<svg version="1.1" viewBox="0.0 0.0 600.0 371.0" fill="none" stroke="none" stroke-linecap="square" stroke-miterlimit="10" width="600" height="371" xmlns:xlink="http://www.w3.org/1999/xlink" xmlns="http://www.w3.org/2000/svg"><path fill="#ffffff" d="M0 0L600.0 0L600.0 371.0L0 371.0L0 0Z" fill-rule="nonzero"/><path fill="#4285f4" d="M300.0 78.916664C356.38507 78.916664 406.991 113.52012 427.44794 166.06334C447.90488 218.60655 434.01938 278.3188 392.47818 316.44498L360.1108 281.1784C387.1126 256.3964 396.13815 217.58342 382.84116 183.43033C369.54416 149.27724 336.6503 126.785 300.0 126.785Z" fill-rule="nonzero"/><path fill="#ab30c4" d="M284.4098 79.80815C289.5853 79.21431 294.79053 78.916664 300.0 78.916664L300.0 126.785C296.61383 126.785 293.23044 126.97847 289.86636 127.36446Z" fill-rule="nonzero"/><path fill="#0f9d58" d="M169.92717 173.4201C186.47331 122.49634 231.21437 85.91175 284.4098 79.80815L289.86636 127.36446C255.28934 131.3318 226.20766 155.11179 215.45267 188.21223Z" fill-rule="nonzero"/><path fill="#f4b400" d="M261.46838 346.91C226.01509 336.49997 196.28242 312.18768 179.03906 279.50787C161.79568 246.82805 158.50899 208.56168 169.92717 173.4201L215.45267 188.21223C208.03084 211.05426 210.16719 235.9274 221.37538 257.16928C232.58357 278.41116 251.9098 294.21414 274.95444 300.98065Z" fill-rule="nonzero"/><path fill="#db4437" d="M392.47818 316.44498C357.16406 348.85596 307.45963 360.41425 261.46838 346.91L274.95444 300.98065C304.84875 309.75842 337.15665 302.24554 360.1108 281.1784Z" fill-rule="nonzero"/><path fill="#ffffff" d="M307.54056 330.08353L306.27493 330.08353L306.27493 321.66165L303.71243 322.58353L303.71243 321.4429L307.33743 320.08353L307.54056 320.08353L307.54056 330.08353ZM316.35306 320.1304L316.35306 321.1929L316.11868 321.1929Q314.6343 321.22415 313.7593 322.0679Q312.8843 322.91165 312.74368 324.45853Q313.54056 323.55228 314.89993 323.55228Q316.1968 323.55228 316.96243 324.47415Q317.74368 325.3804 317.74368 326.83353Q317.74368 328.3804 316.89993 329.30228Q316.0718 330.22415 314.66556 330.22415Q313.24368 330.22415 312.35306 329.1304Q311.46243 328.02103 311.46243 326.30228L311.46243 325.8179Q311.46243 323.0679 312.6343 321.61478Q313.80618 320.16165 316.11868 320.1304L316.35306 320.1304ZM314.68118 324.61478Q314.04056 324.61478 313.49368 325.0054Q312.9468 325.3804 312.72806 325.97415L312.72806 326.4429Q312.72806 327.67728 313.27493 328.42728Q313.83743 329.17728 314.66556 329.17728Q315.52493 329.17728 316.0093 328.55228Q316.49368 327.91165 316.49368 326.89603Q316.49368 325.86478 315.99368 325.23978Q315.5093 324.61478 314.68118 324.61478ZM319.54056 329.42728Q319.54056 329.09915 319.72806 328.8804Q319.93118 328.66165 320.3218 328.66165Q320.71243 328.66165 320.91556 328.8804Q321.11868 329.09915 321.11868 329.42728Q321.11868 329.73978 320.91556 329.95853Q320.71243 330.16165 320.3218 330.16165Q319.93118 330.16165 319.72806 329.95853Q319.54056 329.73978 319.54056 329.42728ZM325.22806 324.48978L326.16556 324.48978Q327.0718 324.47415 327.5718 324.02103Q328.08743 323.5679 328.08743 322.78665Q328.08743 321.03665 326.35306 321.03665Q325.52493 321.03665 325.04056 321.5054Q324.55618 321.97415 324.55618 322.73978L323.29056 322.73978Q323.29056 321.55228 324.14993 320.77103Q325.02493 319.98978 326.35306 319.98978Q327.7593 319.98978 328.55618 320.73978Q329.35306 321.48978 329.35306 322.80228Q329.35306 323.45853 328.93118 324.0679Q328.52493 324.67728 327.79056 324.97415Q328.61868 325.23978 329.05618 325.84915Q329.5093 326.4429 329.5093 327.30228Q329.5093 328.64603 328.6343 329.4429Q327.7593 330.22415 326.35306 330.22415Q324.96243 330.22415 324.0718 329.47415Q323.1968 328.70853 323.1968 327.45853L324.47806 327.45853Q324.47806 328.23978 324.97806 328.72415Q325.49368 329.1929 326.35306 329.1929Q327.27493 329.1929 327.7593 328.70853Q328.24368 328.22415 328.24368 327.33353Q328.24368 326.47415 327.71243 326.0054Q327.18118 325.53665 326.16556 325.52103L325.22806 325.52103L325.22806 324.48978ZM336.35306 320.1304L336.35306 321.1929L336.11868 321.1929Q334.6343 321.22415 333.7593 322.0679Q332.8843 322.91165 332.74368 324.45853Q333.54056 323.55228 334.89993 323.55228Q336.1968 323.55228 336.96243 324.47415Q337.74368 325.3804 337.74368 326.83353Q337.74368 328.3804 336.89993 329.30228Q336.0718 330.22415 334.66556 330.22415Q333.24368 330.22415 332.35306 329.1304Q331.46243 328.02103 331.46243 326.30228L331.46243 325.8179Q331.46243 323.0679 332.6343 321.61478Q333.80618 320.16165 336.11868 320.1304L336.35306 320.1304ZM334.68118 324.61478Q334.04056 324.61478 333.49368 325.0054Q332.9468 325.3804 332.72806 325.97415L332.72806 326.4429Q332.72806 327.67728 333.27493 328.42728Q333.83743 329.17728 334.66556 329.17728Q335.52493 329.17728 336.0093 328.55228Q336.49368 327.91165 336.49368 326.89603Q336.49368 325.86478 335.99368 325.23978Q335.5093 324.61478 334.68118 324.61478ZM339.27493 322.03665Q339.27493 321.14603 339.83743 320.5679Q340.41556 319.98978 341.30618 319.98978Q342.22806 319.98978 342.79056 320.58353Q343.35306 321.16165 343.35306 322.08353L343.35306 322.5679Q343.35306 323.47415 342.77493 324.05228Q342.21243 324.61478 341.3218 324.61478Q340.43118 324.61478 339.85306 324.05228Q339.27493 323.47415 339.27493 322.52103L339.27493 322.03665ZM340.21243 322.5679Q340.21243 323.09915 340.5093 323.4429Q340.8218 323.78665 341.3218 323.78665Q341.80618 323.78665 342.10306 323.45853Q342.39993 323.1304 342.39993 322.53665L342.39993 322.03665Q342.39993 321.5054 342.10306 321.16165Q341.8218 320.8179 341.30618 320.8179Q340.80618 320.8179 340.5093 321.16165Q340.21243 321.5054 340.21243 322.0679L340.21243 322.5679ZM344.11868 327.64603Q344.11868 326.73978 344.68118 326.17728Q345.2593 325.59915 346.14993 325.59915Q347.05618 325.59915 347.61868 326.17728Q348.1968 326.73978 348.1968 327.6929L348.1968 328.17728Q348.1968 329.0679 347.61868 329.64603Q347.05618 330.22415 346.16556 330.22415Q345.29056 330.22415 344.6968 329.66165Q344.11868 329.08353 344.11868 328.1304L344.11868 327.64603ZM345.0718 328.17728Q345.0718 328.70853 345.36868 329.0679Q345.66556 329.41165 346.16556 329.41165Q346.66556 329.41165 346.96243 329.0679Q347.2593 328.72415 347.2593 328.14603L347.2593 327.64603Q347.2593 327.09915 346.9468 326.7554Q346.64993 326.41165 346.16556 326.41165Q345.66556 326.41165 345.36868 326.7554Q345.0718 327.09915 345.0718 327.67728L345.0718 328.17728ZM341.61868 329.33353L340.89993 328.8804L345.7593 321.09915L346.47806 321.55228L341.61868 329.33353Z" fill-rule="nonzero"/><path fill="#ffffff" d="M210.56 132.835L209.29437 132.835L209.29437 124.41313L206.73187 125.33501L206.73187 124.19438L210.35687 122.83501L210.56 122.83501L210.56 132.835ZM220.435 125.47563Q220.435 126.22563 220.04437 126.80376Q219.65375 127.38188 218.98187 127.71001Q219.76312 128.05376 220.21625 128.69438Q220.66937 129.335 220.66937 130.1475Q220.66937 131.44438 219.79437 132.21Q218.935 132.97563 217.51312 132.97563Q216.07562 132.97563 215.20062 132.21Q214.34125 131.42876 214.34125 130.1475Q214.34125 129.335 214.77875 128.69438Q215.21625 128.03813 215.9975 127.71001Q215.34125 127.38188 214.95062 126.80376Q214.57562 126.21001 214.57562 125.47563Q214.57562 124.22563 215.3725 123.49126Q216.185 122.74126 217.51312 122.74126Q218.82562 122.74126 219.6225 123.49126Q220.435 124.22563 220.435 125.47563ZM219.40375 130.11626Q219.40375 129.28813 218.8725 128.7725Q218.34125 128.24126 217.48187 128.24126Q216.63812 128.24126 216.1225 128.75688Q215.60687 129.2725 215.60687 130.13188Q215.60687 130.97563 216.10687 131.46Q216.60687 131.94438 217.51312 131.94438Q218.38812 131.94438 218.88812 131.46Q219.40375 130.96 219.40375 130.11626ZM217.51312 123.78813Q216.76312 123.78813 216.29437 124.25688Q215.84125 124.71001 215.84125 125.50688Q215.84125 126.25688 216.29437 126.72563Q216.7475 127.19438 217.4975 127.19438Q218.26312 127.19438 218.71625 126.72563Q219.16937 126.25688 219.16937 125.50688Q219.16937 124.74126 218.70062 124.27251Q218.23187 123.78813 217.51312 123.78813ZM222.56 132.17876Q222.56 131.85063 222.7475 131.63188Q222.95062 131.41313 223.34125 131.41313Q223.73187 131.41313 223.935 131.63188Q224.13812 131.85063 224.13812 132.17876Q224.13812 132.49126 223.935 132.71Q223.73187 132.91313 223.34125 132.91313Q222.95062 132.91313 222.7475 132.71Q222.56 132.49126 222.56 132.17876ZM230.56 132.835L229.29437 132.835L229.29437 124.41313L226.73187 125.33501L226.73187 124.19438L230.35687 122.83501L230.56 122.83501L230.56 132.835ZM240.435 125.47563Q240.435 126.22563 240.04437 126.80376Q239.65375 127.38188 238.98187 127.71001Q239.76312 128.05376 240.21625 128.69438Q240.66937 129.335 240.66937 130.1475Q240.66937 131.44438 239.79437 132.21Q238.935 132.97563 237.51312 132.97563Q236.07562 132.97563 235.20062 132.21Q234.34125 131.42876 234.34125 130.1475Q234.34125 129.335 234.77875 128.69438Q235.21625 128.03813 235.9975 127.71001Q235.34125 127.38188 234.95062 126.80376Q234.57562 126.21001 234.57562 125.47563Q234.57562 124.22563 235.3725 123.49126Q236.185 122.74126 237.51312 122.74126Q238.82562 122.74126 239.6225 123.49126Q240.435 124.22563 240.435 125.47563ZM239.40375 130.11626Q239.40375 129.28813 238.8725 128.7725Q238.34125 128.24126 237.48187 128.24126Q236.63812 128.24126 236.1225 128.75688Q235.60687 129.2725 235.60687 130.13188Q235.60687 130.97563 236.10687 131.46Q236.60687 131.94438 237.51312 131.94438Q238.38812 131.94438 238.88812 131.46Q239.40375 130.96 239.40375 130.11626ZM237.51312 123.78813Q236.76312 123.78813 236.29437 124.25688Q235.84125 124.71001 235.84125 125.50688Q235.84125 126.25688 236.29437 126.72563Q236.7475 127.19438 237.4975 127.19438Q238.26312 127.19438 238.71625 126.72563Q239.16937 126.25688 239.16937 125.50688Q239.16937 124.74126 238.70062 124.27251Q238.23187 123.78813 237.51312 123.78813ZM242.29437 124.78813Q242.29437 123.89751 242.85687 123.31938Q243.435 122.74126 244.32562 122.74126Q245.2475 122.74126 245.81 123.33501Q246.3725 123.91313 246.3725 124.83501L246.3725 125.31938Q246.3725 126.22563 245.79437 126.80376Q245.23187 127.36626 244.34125 127.36626Q243.45062 127.36626 242.8725 126.80376Q242.29437 126.22563 242.29437 125.27251L242.29437 124.78813ZM243.23187 125.31938Q243.23187 125.85063 243.52875 126.19438Q243.84125 126.53813 244.34125 126.53813Q244.82562 126.53813 245.1225 126.21001Q245.41937 125.88188 245.41937 125.28813L245.41937 124.78813Q245.41937 124.25688 245.1225 123.91313Q244.84125 123.56938 244.32562 123.56938Q243.82562 123.56938 243.52875 123.91313Q243.23187 124.25688 243.23187 124.81938L243.23187 125.31938ZM247.13812 130.3975Q247.13812 129.49126 247.70062 128.92876Q248.27875 128.35063 249.16937 128.35063Q250.07562 128.35063 250.63812 128.92876Q251.21625 129.49126 251.21625 130.44438L251.21625 130.92876Q251.21625 131.81938 250.63812 132.3975Q250.07562 132.97563 249.185 132.97563Q248.31 132.97563 247.71625 132.41313Q247.13812 131.835 247.13812 130.88188L247.13812 130.3975ZM248.09125 130.92876Q248.09125 131.46 248.38812 131.81938Q248.685 132.16313 249.185 132.16313Q249.685 132.16313 249.98187 131.81938Q250.27875 131.47563 250.27875 130.8975L250.27875 130.3975Q250.27875 129.85063 249.96625 129.50688Q249.66937 129.16313 249.185 129.16313Q248.685 129.16313 248.38812 129.50688Q248.09125 129.85063 248.09125 130.42876L248.09125 130.92876ZM244.63812 132.085L243.91937 131.63188L248.77875 123.85063L249.4975 124.30376L244.63812 132.085Z" fill-rule="nonzero"/><path fill="#757575" d="M27.128124 88.74479Q27.26875 94.08854 22.565624 97.041664L21.3625 95.697914Q25.51875 93.447914 25.51875 89.36979L25.51875 86.354164L26.9875 86.354164Q27.628124 86.416664 27.128124 86.83854L27.128124 88.666664Q29.659374 86.77604 31.003124 84.947914L19.534374 85.36979L19.39375 83.74479L32.190624 83.40104L32.690624 83.260414L33.7375 84.52604Q33.95625 84.80729 33.39375 84.729164Q31.284374 87.479164 28.33125 89.86979L27.128124 88.74479ZM47.76875 94.71354L46.159374 94.71354L46.159374 93.947914L38.346874 93.947914L38.346874 95.072914L36.7375 95.072914L36.7375 84.104164L47.76875 84.104164L47.76875 94.71354ZM38.346874 85.65104L38.346874 92.40104L46.159374 92.40104L46.159374 85.65104L38.346874 85.65104ZM51.39375 90.15104L51.39375 88.604164L67.08125 88.604164L67.08125 90.15104L51.39375 90.15104ZM71.425 95.99479Q78.2375 94.229164 79.08125 88.604164L68.39375 88.604164L68.39375 87.05729L79.15938 87.05729L79.78438 86.83854L81.05 87.61979Q81.47188 87.96354 80.90938 88.24479Q79.78438 95.27604 72.69063 97.40104L71.425 95.99479ZM79.3625 84.58854L69.65938 84.58854L69.65938 83.041664L79.3625 83.041664L79.3625 84.58854Z" fill-rule="nonzero"/><path fill="#757575" d="M95.09688 92.572914L89.7375 92.572914L88.53438 95.916664L86.8 95.916664L91.69063 83.11979L93.15938 83.11979L98.05 95.916664L96.33125 95.916664L95.09688 92.572914ZM90.25313 91.18229L94.59688 91.18229L92.425 85.197914L90.25313 91.18229ZM101.55 95.916664L99.925 95.916664L99.925 82.416664L101.55 82.416664L101.55 95.916664ZM103.34688 91.072914Q103.34688 89.68229 103.89375 88.572914Q104.45625 87.447914 105.425 86.83854Q106.40938 86.229164 107.65938 86.229164Q109.6125 86.229164 110.8 87.572914Q112.00313 88.916664 112.00313 91.15104L112.00313 91.260414Q112.00313 92.65104 111.47188 93.760414Q110.94063 94.854164 109.95625 95.479164Q108.97188 96.08854 107.69063 96.08854Q105.75313 96.08854 104.55 94.74479Q103.34688 93.40104 103.34688 91.18229L103.34688 91.072914ZM104.9875 91.260414Q104.9875 92.854164 105.72188 93.80729Q106.45625 94.760414 107.69063 94.760414Q108.925 94.760414 109.64375 93.791664Q110.37813 92.822914 110.37813 91.072914Q110.37813 89.510414 109.62813 88.541664Q108.89375 87.572914 107.65938 87.572914Q106.45625 87.572914 105.72188 88.52604Q104.9875 89.479164 104.9875 91.260414ZM115.55 95.916664L113.925 95.916664L113.925 82.416664L115.55 82.416664L115.55 95.916664ZM123.65938 95.916664Q123.51875 95.635414 123.425 94.916664Q122.28438 96.08854 120.72188 96.08854Q119.31563 96.08854 118.40938 95.291664Q117.50313 94.49479 117.50313 93.27604Q117.50313 91.791664 118.62813 90.979164Q119.76875 90.15104 121.81563 90.15104L123.39375 90.15104L123.39375 89.40104Q123.39375 88.55729 122.87813 88.05729Q122.37813 87.541664 121.37813 87.541664Q120.51875 87.541664 119.925 87.979164Q119.33125 88.416664 119.33125 89.041664L117.70625 89.041664Q117.70625 88.33854 118.20625 87.68229Q118.70625 87.010414 119.56563 86.61979Q120.44063 86.229164 121.4875 86.229164Q123.12813 86.229164 124.05 87.05729Q124.9875 87.86979 125.01875 89.322914L125.01875 93.697914Q125.01875 94.99479 125.3625 95.77604L125.3625 95.916664L123.65938 95.916664ZM120.95625 94.68229Q121.72188 94.68229 122.40938 94.291664Q123.09688 93.885414 123.39375 93.260414L123.39375 91.30729L122.12813 91.30729Q119.12813 91.30729 119.12813 93.05729Q119.12813 93.822914 119.64375 94.260414Q120.15938 94.68229 120.95625 94.68229Z" fill-rule="nonzero"/><path fill="#9e9e9e" d="M24.95625 120.916664L23.315624 120.916664L23.315624 110.072914L20.05 111.27604L20.05 109.80729L24.70625 108.05729L24.95625 108.05729L24.95625 120.916664ZM29.815624 120.05729Q29.815624 119.635414 30.065624 119.354164Q30.315624 119.072914 30.815624 119.072914Q31.315624 119.072914 31.565624 119.354164Q31.83125 119.635414 31.83125 120.05729Q31.83125 120.46354 31.565624 120.74479Q31.315624 121.010414 30.815624 121.010414Q30.315624 121.010414 30.065624 120.74479Q29.815624 120.46354 29.815624 120.05729ZM42.378124 111.46354Q42.378124 112.416664 41.8625 113.166664Q41.3625 113.916664 40.503124 114.33854Q41.503124 114.760414 42.08125 115.58854Q42.675 116.416664 42.675 117.46354Q42.675 119.11979 41.55 120.104164Q40.425 121.08854 38.596874 121.08854Q36.753124 121.08854 35.64375 120.104164Q34.534374 119.11979 34.534374 117.46354Q34.534374 116.43229 35.096874 115.604164Q35.675 114.760414 36.675 114.322914Q35.815624 113.90104 35.315624 113.15104Q34.83125 112.40104 34.83125 111.46354Q34.83125 109.83854 35.8625 108.90104Q36.909374 107.947914 38.596874 107.947914Q40.284374 107.947914 41.33125 108.90104Q42.378124 109.83854 42.378124 111.46354ZM41.05 117.43229Q41.05 116.354164 40.3625 115.68229Q39.690624 114.99479 38.58125 114.99479Q37.4875 114.99479 36.815624 115.666664Q36.159374 116.33854 36.159374 117.43229Q36.159374 118.510414 36.8 119.135414Q37.45625 119.760414 38.596874 119.760414Q39.753124 119.760414 40.39375 119.135414Q41.05 118.510414 41.05 117.43229ZM38.596874 109.27604Q37.64375 109.27604 37.05 109.86979Q36.45625 110.46354 36.45625 111.479164Q36.45625 112.46354 37.034374 113.072914Q37.628124 113.666664 38.596874 113.666664Q39.58125 113.666664 40.159374 113.072914Q40.753124 112.46354 40.753124 111.49479Q40.753124 110.510414 40.14375 109.90104Q39.534374 109.27604 38.596874 109.27604ZM44.471874 110.572914Q44.471874 109.43229 45.20625 108.68229Q45.940624 107.93229 47.096874 107.93229Q48.26875 107.93229 48.9875 108.68229Q49.70625 109.43229 49.70625 110.635414L49.70625 111.260414Q49.70625 112.416664 48.971874 113.15104Q48.2375 113.885414 47.1125 113.885414Q45.971874 113.885414 45.221874 113.15104Q44.471874 112.416664 44.471874 111.197914L44.471874 110.572914ZM45.690624 111.260414Q45.690624 111.947914 46.065624 112.385414Q46.45625 112.822914 47.1125 112.822914Q47.7375 112.822914 48.1125 112.40104Q48.503124 111.96354 48.503124 111.229164L48.503124 110.572914Q48.503124 109.90104 48.1125 109.447914Q47.7375 108.99479 47.08125 108.99479Q46.440624 108.99479 46.065624 109.447914Q45.690624 109.90104 45.690624 110.61979L45.690624 111.260414ZM50.70625 117.77604Q50.70625 116.61979 51.440624 115.885414Q52.175 115.135414 53.315624 115.135414Q54.471874 115.135414 55.20625 115.885414Q55.95625 116.61979 55.95625 117.83854L55.95625 118.46354Q55.95625 119.61979 55.221874 120.36979Q54.4875 121.104164 53.346874 121.104164Q52.20625 121.104164 51.45625 120.36979Q50.70625 119.635414 50.70625 118.416664L50.70625 117.77604ZM51.925 118.46354Q51.925 119.15104 52.3 119.604164Q52.690624 120.041664 53.346874 120.041664Q53.971874 120.041664 54.346874 119.61979Q54.7375 119.18229 54.7375 118.43229L54.7375 117.77604Q54.7375 117.08854 54.346874 116.65104Q53.971874 116.197914 53.33125 116.197914Q52.70625 116.197914 52.315624 116.635414Q51.925 117.072914 51.925 117.80729L51.925 118.46354ZM47.471874 119.947914L46.55 119.36979L52.8 109.36979L53.721874 109.947914L47.471874 119.947914Z" fill-rule="nonzero"/><path stroke="#757575" stroke-width="1.0" stroke-linecap="butt" d="M18.55 102.416664L157.23334 102.416664L292.58255 85.966896" fill-rule="nonzero"/><path fill="#9e9e9e" d="M294.58255 85.966896C294.58255 84.86233 293.6871 83.966896 292.58255 83.966896C291.47797 83.966896 290.58255 84.86233 290.58255 85.966896C290.58255 87.07147 291.47797 87.966896 292.58255 87.966896C293.6871 87.966896 294.58255 87.07147 294.58255 85.966896" fill-rule="nonzero"/><path fill="#757575" d="M20.940624 141.79167Q28.6125 140.10417 32.471874 133.83855L33.7375 135.10417Q30.159374 140.8698 22.628124 143.27605Q22.425 144.1198 21.925 143.33855L20.940624 141.79167ZM20.45625 133.27605Q22.20625 134.19792 24.034374 135.52605L22.909374 137.01042Q20.8 135.46355 19.39375 134.76042L20.45625 133.27605ZM22.425 129.13542Q24.315624 130.1823 26.003124 131.38542L25.01875 132.85417Q23.128124 131.52605 21.503124 130.60417L22.425 129.13542ZM49.175 134.76042Q45.45625 142.4948 36.659374 142.91667Q36.315624 143.83855 35.95625 143.0573L35.39375 141.22917Q44.534374 141.01042 47.70625 133.69792L49.175 134.76042ZM39.26875 134.76042Q37.3625 132.9948 35.675 131.8698L36.878124 130.40105Q38.346874 131.3073 40.596874 133.41667L39.26875 134.76042ZM50.971874 141.08855Q55.471874 138.19792 58.003124 134.19792L51.39375 134.19792L51.39375 132.65105L58.846874 132.65105L58.846874 128.77605L60.33125 128.77605Q60.95625 128.91667 60.471874 129.33855L60.471874 132.65105L66.37813 132.65105L66.37813 134.19792L60.471874 134.19792L60.471874 142.41667Q60.471874 144.1198 58.846874 144.1198L56.878124 144.1198L56.596874 142.5573L58.003124 142.5573Q58.846874 142.41667 58.846874 141.65105L58.846874 135.7448Q56.175 139.6823 52.378124 142.35417L50.971874 141.08855ZM82.59688 132.9948Q82.59688 140.66667 75.22188 144.32292L73.87813 142.9948Q80.70625 139.88542 80.76875 133.69792L71.00313 133.69792L71.14375 137.85417L69.51875 137.85417L69.31563 132.15105L74.8625 132.15105L74.8625 128.63542L76.26875 128.63542Q77.1125 128.71355 76.4875 129.19792L76.4875 132.15105L81.75313 132.15105L82.59688 132.9948Z" fill-rule="nonzero"/><path fill="#757575" d="M93.8 137.21355Q91.62813 136.58855 90.64375 135.6823Q89.65938 134.77605 89.65938 133.4323Q89.65938 131.91667 90.8625 130.9323Q92.08125 129.94792 94.00313 129.94792Q95.33125 129.94792 96.3625 130.46355Q97.39375 130.96355 97.95625 131.8698Q98.51875 132.76042 98.51875 133.82292L96.83125 133.82292Q96.83125 132.66667 96.08125 132.01042Q95.34688 131.33855 94.00313 131.33855Q92.75313 131.33855 92.05 131.88542Q91.3625 132.4323 91.3625 133.40105Q91.3625 134.1823 92.01875 134.72917Q92.69063 135.27605 94.28438 135.72917Q95.87813 136.16667 96.76875 136.71355Q97.675 137.2448 98.1125 137.96355Q98.55 138.6823 98.55 139.66667Q98.55 141.21355 97.33125 142.15105Q96.12813 143.08855 94.09688 143.08855Q92.78438 143.08855 91.62813 142.58855Q90.4875 142.08855 89.8625 141.21355Q89.25313 140.32292 89.25313 139.21355L90.95625 139.21355Q90.95625 140.3698 91.8 141.04167Q92.65938 141.71355 94.09688 141.71355Q95.425 141.71355 96.14375 141.16667Q96.8625 140.6198 96.8625 139.6823Q96.8625 138.7448 96.19063 138.22917Q95.53438 137.71355 93.8 137.21355ZM102.55 142.91667L100.925 142.91667L100.925 133.40105L102.55 133.40105L102.55 142.91667ZM100.78438 130.88542Q100.78438 130.4948 101.01875 130.22917Q101.26875 129.94792 101.7375 129.94792Q102.22188 129.94792 102.47188 130.22917Q102.72188 130.4948 102.72188 130.88542Q102.72188 131.27605 102.47188 131.54167Q102.22188 131.8073 101.7375 131.8073Q101.26875 131.8073 101.01875 131.54167Q100.78438 131.27605 100.78438 130.88542ZM106.31563 133.40105L106.37813 134.60417Q107.45625 133.22917 109.22188 133.22917Q112.2375 133.22917 112.25313 136.63542L112.25313 142.91667L110.62813 142.91667L110.62813 136.6198Q110.62813 135.58855 110.15938 135.10417Q109.70625 134.60417 108.72188 134.60417Q107.94063 134.60417 107.33125 135.02605Q106.7375 135.44792 106.40938 136.13542L106.40938 142.91667L104.78438 142.91667L104.78438 133.40105L106.31563 133.40105ZM116.31563 133.40105L116.37813 134.60417Q117.45625 133.22917 119.22188 133.22917Q122.2375 133.22917 122.25313 136.63542L122.25313 142.91667L120.62813 142.91667L120.62813 136.6198Q120.62813 135.58855 120.15938 135.10417Q119.70625 134.60417 118.72188 134.60417Q117.94063 134.60417 117.33125 135.02605Q116.7375 135.44792 116.40938 136.13542L116.40938 142.91667L114.78438 142.91667L114.78438 133.40105L116.31563 133.40105ZM124.34688 138.07292Q124.34688 136.6823 124.89375 135.57292Q125.45625 134.44792 126.425 133.83855Q127.40938 133.22917 128.65938 133.22917Q130.6125 133.22917 131.8 134.57292Q133.00313 135.91667 133.00313 138.15105L133.00313 138.26042Q133.00313 139.65105 132.47188 140.76042Q131.94063 141.85417 130.95625 142.47917Q129.97188 143.08855 128.69063 143.08855Q126.75313 143.08855 125.55 141.7448Q124.34688 140.40105 124.34688 138.1823L124.34688 138.07292ZM125.9875 138.26042Q125.9875 139.85417 126.72188 140.8073Q127.45625 141.76042 128.69063 141.76042Q129.925 141.76042 130.64375 140.79167Q131.37813 139.82292 131.37813 138.07292Q131.37813 136.51042 130.62813 135.54167Q129.89375 134.57292 128.65938 134.57292Q127.45625 134.57292 126.72188 135.52605Q125.9875 136.47917 125.9875 138.26042ZM136.40938 134.5573Q137.4875 133.22917 139.22188 133.22917Q142.2375 133.22917 142.25313 136.63542L142.25313 142.91667L140.62813 142.91667L140.62813 136.6198Q140.62813 135.58855 140.15938 135.10417Q139.70625 134.60417 138.72188 134.60417Q137.94063 134.60417 137.33125 135.02605Q136.7375 135.44792 136.40938 136.13542L136.40938 142.91667L134.78438 142.91667L134.78438 129.41667L136.40938 129.41667L136.40938 134.5573Z" fill-rule="nonzero"/><path fill="#9e9e9e" d="M24.95625 167.91667L23.315624 167.91667L23.315624 157.07292L20.05 158.27605L20.05 156.8073L24.70625 155.0573L24.95625 155.0573L24.95625 167.91667ZM37.378124 158.46355Q37.378124 159.41667 36.8625 160.16667Q36.3625 160.91667 35.503124 161.33855Q36.503124 161.76042 37.08125 162.58855Q37.675 163.41667 37.675 164.46355Q37.675 166.1198 36.55 167.10417Q35.425 168.08855 33.596874 168.08855Q31.753124 168.08855 30.64375 167.10417Q29.534374 166.1198 29.534374 164.46355Q29.534374 163.4323 30.096874 162.60417Q30.675 161.76042 31.675 161.32292Q30.815624 160.90105 30.315624 160.15105Q29.83125 159.40105 29.83125 158.46355Q29.83125 156.83855 30.8625 155.90105Q31.909374 154.94792 33.596874 154.94792Q35.284374 154.94792 36.33125 155.90105Q37.378124 156.83855 37.378124 158.46355ZM36.05 164.4323Q36.05 163.35417 35.3625 162.6823Q34.690624 161.9948 33.58125 161.9948Q32.4875 161.9948 31.815624 162.66667Q31.159374 163.33855 31.159374 164.4323Q31.159374 165.51042 31.8 166.13542Q32.45625 166.76042 33.596874 166.76042Q34.753124 166.76042 35.39375 166.13542Q36.05 165.51042 36.05 164.4323ZM33.596874 156.27605Q32.64375 156.27605 32.05 156.8698Q31.45625 157.46355 31.45625 158.47917Q31.45625 159.46355 32.034374 160.07292Q32.628124 160.66667 33.596874 160.66667Q34.58125 160.66667 35.159374 160.07292Q35.753124 159.46355 35.753124 158.4948Q35.753124 157.51042 35.14375 156.90105Q34.534374 156.27605 33.596874 156.27605ZM39.815624 167.0573Q39.815624 166.63542 40.065624 166.35417Q40.315624 166.07292 40.815624 166.07292Q41.315624 166.07292 41.565624 166.35417Q41.83125 166.63542 41.83125 167.0573Q41.83125 167.46355 41.565624 167.7448Q41.315624 168.01042 40.815624 168.01042Q40.315624 168.01042 40.065624 167.7448Q39.815624 167.46355 39.815624 167.0573ZM53.003124 167.91667L44.6125 167.91667L44.6125 166.7448L49.05 161.82292Q50.034374 160.71355 50.39375 160.01042Q50.76875 159.3073 50.76875 158.5573Q50.76875 157.5573 50.159374 156.91667Q49.565624 156.27605 48.55 156.27605Q47.33125 156.27605 46.659374 156.97917Q45.9875 157.66667 45.9875 158.88542L44.3625 158.88542Q44.3625 157.1198 45.503124 156.04167Q46.64375 154.94792 48.55 154.94792Q50.33125 154.94792 51.3625 155.88542Q52.409374 156.82292 52.409374 158.3698Q52.409374 160.26042 50.003124 162.8698L46.58125 166.58855L53.003124 166.58855L53.003124 167.91667ZM54.471874 157.57292Q54.471874 156.4323 55.20625 155.6823Q55.940624 154.9323 57.096874 154.9323Q58.26875 154.9323 58.9875 155.6823Q59.70625 156.4323 59.70625 157.63542L59.70625 158.26042Q59.70625 159.41667 58.971874 160.15105Q58.2375 160.88542 57.1125 160.88542Q55.971874 160.88542 55.221874 160.15105Q54.471874 159.41667 54.471874 158.19792L54.471874 157.57292ZM55.690624 158.26042Q55.690624 158.94792 56.065624 159.38542Q56.45625 159.82292 57.1125 159.82292Q57.7375 159.82292 58.1125 159.40105Q58.503124 158.96355 58.503124 158.22917L58.503124 157.57292Q58.503124 156.90105 58.1125 156.44792Q57.7375 155.9948 57.08125 155.9948Q56.440624 155.9948 56.065624 156.44792Q55.690624 156.90105 55.690624 157.6198L55.690624 158.26042ZM60.70625 164.77605Q60.70625 163.6198 61.440624 162.88542Q62.175 162.13542 63.315624 162.13542Q64.47188 162.13542 65.20625 162.88542Q65.95625 163.6198 65.95625 164.83855L65.95625 165.46355Q65.95625 166.6198 65.22188 167.3698Q64.4875 168.10417 63.346874 168.10417Q62.20625 168.10417 61.45625 167.3698Q60.70625 166.63542 60.70625 165.41667L60.70625 164.77605ZM61.925 165.46355Q61.925 166.15105 62.3 166.60417Q62.690624 167.04167 63.346874 167.04167Q63.971874 167.04167 64.34688 166.6198Q64.7375 166.1823 64.7375 165.4323L64.7375 164.77605Q64.7375 164.08855 64.34688 163.65105Q63.971874 163.19792 63.33125 163.19792Q62.70625 163.19792 62.315624 163.63542Q61.925 164.07292 61.925 164.8073L61.925 165.46355ZM57.471874 166.94792L56.55 166.3698L62.8 156.3698L63.721874 156.94792L57.471874 166.94792Z" fill-rule="nonzero"/><path stroke="#757575" stroke-width="1.0" stroke-linecap="butt" d="M18.55 149.41667L157.23334 149.41667L217.75375 115.1004" fill-rule="nonzero"/><path fill="#9e9e9e" d="M219.75375 115.1004C219.75375 113.995834 218.85832 113.1004 217.75375 113.1004C216.64917 113.1004 215.75375 113.995834 215.75375 115.1004C215.75375 116.20497 216.64917 117.1004 217.75375 117.1004C218.85832 117.1004 219.75375 116.20497 219.75375 115.1004" fill-rule="nonzero"/><path fill="#757575" d="M23.55 263.9729Q22.4875 266.30103 20.878124 268.83228L19.33125 267.98853Q21.08125 265.45728 22.284374 262.64478L23.83125 263.48853Q24.253124 263.83228 23.55 263.9729ZM25.940624 255.67603L27.409374 255.67603Q28.190624 255.81665 27.55 256.23853L27.55 259.61353L34.01875 259.61353L34.01875 261.1604L27.55 261.1604L27.55 270.94165L25.940624 270.94165L25.940624 261.1604L19.6125 261.1604L19.6125 259.61353L25.940624 259.61353L25.940624 255.67603ZM33.175 268.61353Q31.70625 266.01978 29.596874 263.76978L30.925 262.64478Q33.45625 265.31665 34.721874 267.56665L33.175 268.61353ZM50.596874 259.89478Q50.596874 267.56665 43.221874 271.2229L41.878124 269.89478Q48.70625 266.7854 48.76875 260.5979L39.003124 260.5979L39.14375 264.75415L37.51875 264.75415L37.315624 259.05103L42.8625 259.05103L42.8625 255.5354L44.26875 255.5354Q45.1125 255.61353 44.4875 256.0979L44.4875 259.05103L49.753124 259.05103L50.596874 259.89478ZM67.53438 266.86353L67.53438 268.4104L53.534374 268.4104L53.534374 266.86353L59.659374 266.86353L59.659374 259.89478L54.7375 259.89478L54.7375 258.3479L66.12813 258.3479L66.12813 259.89478L61.26875 259.89478L61.26875 266.86353L67.53438 266.86353ZM83.175 261.6604Q79.45625 269.39478 70.65938 269.81665Q70.31563 270.73853 69.95625 269.95728L69.39375 268.12915Q78.53438 267.9104 81.70625 260.5979L83.175 261.6604ZM73.26875 261.6604Q71.3625 259.89478 69.675 258.76978L70.87813 257.30103Q72.34688 258.20728 74.59688 260.31665L73.26875 261.6604Z" fill-rule="nonzero"/><path fill="#757575" d="M99.87813 269.81665L98.175 269.81665L98.175 263.89478L91.72188 263.89478L91.72188 269.81665L90.03438 269.81665L90.03438 257.01978L91.72188 257.01978L91.72188 262.51978L98.175 262.51978L98.175 257.01978L99.87813 257.01978L99.87813 269.81665ZM102.34688 264.9729Q102.34688 263.58228 102.89375 262.4729Q103.45625 261.3479 104.425 260.73853Q105.40938 260.12915 106.65938 260.12915Q108.6125 260.12915 109.8 261.4729Q111.00313 262.81665 111.00313 265.05103L111.00313 265.1604Q111.00313 266.55103 110.47188 267.6604Q109.94063 268.75415 108.95625 269.37915Q107.97188 269.98853 106.69063 269.98853Q104.75313 269.98853 103.55 268.64478Q102.34688 267.30103 102.34688 265.08228L102.34688 264.9729ZM103.9875 265.1604Q103.9875 266.75415 104.72188 267.70728Q105.45625 268.6604 106.69063 268.6604Q107.925 268.6604 108.64375 267.69165Q109.37813 266.7229 109.37813 264.9729Q109.37813 263.4104 108.62813 262.44165Q107.89375 261.4729 106.65938 261.4729Q105.45625 261.4729 104.72188 262.42603Q103.9875 263.37915 103.9875 265.1604ZM116.72188 269.98853Q114.8 269.98853 113.58125 268.7229Q112.3625 267.45728 112.3625 265.33228L112.3625 265.01978Q112.3625 263.61353 112.90938 262.50415Q113.45625 261.39478 114.425 260.76978Q115.39375 260.12915 116.51875 260.12915Q118.37813 260.12915 119.40938 261.3479Q120.44063 262.56665 120.44063 264.8479L120.44063 265.51978L113.9875 265.51978Q114.03438 266.92603 114.81563 267.80103Q115.59688 268.6604 116.81563 268.6604Q117.675 268.6604 118.26875 268.31665Q118.87813 267.95728 119.31563 267.37915L120.31563 268.1604Q119.1125 269.98853 116.72188 269.98853ZM116.51875 261.4729Q115.53438 261.4729 114.8625 262.19165Q114.20625 262.89478 114.05 264.19165L118.81563 264.19165L118.81563 264.06665Q118.7375 262.83228 118.14375 262.1604Q117.55 261.4729 116.51875 261.4729ZM124.31563 260.30103L124.37813 261.50415Q125.45625 260.12915 127.22188 260.12915Q130.2375 260.12915 130.25313 263.5354L130.25313 269.81665L128.62813 269.81665L128.62813 263.51978Q128.62813 262.48853 128.15938 262.00415Q127.70625 261.50415 126.72188 261.50415Q125.94063 261.50415 125.33125 261.92603Q124.7375 262.3479 124.40938 263.0354L124.40938 269.81665L122.78438 269.81665L122.78438 260.30103L124.31563 260.30103ZM134.31563 260.30103L134.37813 261.50415Q135.45625 260.12915 137.22188 260.12915Q140.2375 260.12915 140.25313 263.5354L140.25313 269.81665L138.62813 269.81665L138.62813 263.51978Q138.62813 262.48853 138.15938 262.00415Q137.70625 261.50415 136.72188 261.50415Q135.94063 261.50415 135.33125 261.92603Q134.7375 262.3479 134.40938 263.0354L134.40938 269.81665L132.78438 269.81665L132.78438 260.30103L134.31563 260.30103Z" fill-rule="nonzero"/><path fill="#9e9e9e" d="M28.003124 294.81665L19.6125 294.81665L19.6125 293.64478L24.05 288.7229Q25.034374 287.61353 25.39375 286.9104Q25.76875 286.20728 25.76875 285.45728Q25.76875 284.45728 25.159374 283.81665Q24.565624 283.17603 23.55 283.17603Q22.33125 283.17603 21.659374 283.87915Q20.9875 284.56665 20.9875 285.7854L19.3625 285.7854Q19.3625 284.01978 20.503124 282.94165Q21.64375 281.8479 23.55 281.8479Q25.33125 281.8479 26.3625 282.7854Q27.409374 283.7229 27.409374 285.26978Q27.409374 287.1604 25.003124 289.76978L21.58125 293.48853L28.003124 293.48853L28.003124 294.81665ZM30.3625 288.39478L31.01875 282.01978L37.565624 282.01978L37.565624 283.51978L32.39375 283.51978L32.003124 287.00415Q32.940624 286.45728 34.14375 286.45728Q35.89375 286.45728 36.909374 287.61353Q37.940624 288.76978 37.940624 290.73853Q37.940624 292.7229 36.878124 293.86353Q35.815624 294.98853 33.89375 294.98853Q32.190624 294.98853 31.1125 294.05103Q30.05 293.11353 29.909374 291.45728L31.440624 291.45728Q31.596874 292.55103 32.221874 293.11353Q32.8625 293.6604 33.89375 293.6604Q35.034374 293.6604 35.675 292.89478Q36.315624 292.11353 36.315624 290.75415Q36.315624 289.4729 35.6125 288.69165Q34.925 287.9104 33.76875 287.9104Q32.70625 287.9104 32.096874 288.37915L31.659374 288.73853L30.3625 288.39478ZM39.815624 293.95728Q39.815624 293.5354 40.065624 293.25415Q40.315624 292.9729 40.815624 292.9729Q41.315624 292.9729 41.565624 293.25415Q41.83125 293.5354 41.83125 293.95728Q41.83125 294.36353 41.565624 294.64478Q41.315624 294.9104 40.815624 294.9104Q40.315624 294.9104 40.065624 294.64478Q39.815624 294.36353 39.815624 293.95728ZM45.3625 288.39478L46.01875 282.01978L52.565624 282.01978L52.565624 283.51978L47.39375 283.51978L47.003124 287.00415Q47.940624 286.45728 49.14375 286.45728Q50.89375 286.45728 51.909374 287.61353Q52.940624 288.76978 52.940624 290.73853Q52.940624 292.7229 51.878124 293.86353Q50.815624 294.98853 48.89375 294.98853Q47.190624 294.98853 46.1125 294.05103Q45.05 293.11353 44.909374 291.45728L46.440624 291.45728Q46.596874 292.55103 47.221874 293.11353Q47.8625 293.6604 48.89375 293.6604Q50.034374 293.6604 50.675 292.89478Q51.315624 292.11353 51.315624 290.75415Q51.315624 289.4729 50.6125 288.69165Q49.925 287.9104 48.76875 287.9104Q47.70625 287.9104 47.096874 288.37915L46.659374 288.73853L45.3625 288.39478ZM54.471874 284.4729Q54.471874 283.33228 55.20625 282.58228Q55.940624 281.83228 57.096874 281.83228Q58.26875 281.83228 58.9875 282.58228Q59.70625 283.33228 59.70625 284.5354L59.70625 285.1604Q59.70625 286.31665 58.971874 287.05103Q58.2375 287.7854 57.1125 287.7854Q55.971874 287.7854 55.221874 287.05103Q54.471874 286.31665 54.471874 285.0979L54.471874 284.4729ZM55.690624 285.1604Q55.690624 285.8479 56.065624 286.2854Q56.45625 286.7229 57.1125 286.7229Q57.7375 286.7229 58.1125 286.30103Q58.503124 285.86353 58.503124 285.12915L58.503124 284.4729Q58.503124 283.80103 58.1125 283.3479Q57.7375 282.89478 57.08125 282.89478Q56.440624 282.89478 56.065624 283.3479Q55.690624 283.80103 55.690624 284.51978L55.690624 285.1604ZM60.70625 291.67603Q60.70625 290.51978 61.440624 289.7854Q62.175 289.0354 63.315624 289.0354Q64.47188 289.0354 65.20625 289.7854Q65.95625 290.51978 65.95625 291.73853L65.95625 292.36353Q65.95625 293.51978 65.22188 294.26978Q64.4875 295.00415 63.346874 295.00415Q62.20625 295.00415 61.45625 294.26978Q60.70625 293.5354 60.70625 292.31665L60.70625 291.67603ZM61.925 292.36353Q61.925 293.05103 62.3 293.50415Q62.690624 293.94165 63.346874 293.94165Q63.971874 293.94165 64.34688 293.51978Q64.7375 293.08228 64.7375 292.33228L64.7375 291.67603Q64.7375 290.98853 64.34688 290.55103Q63.971874 290.0979 63.33125 290.0979Q62.70625 290.0979 62.315624 290.5354Q61.925 290.9729 61.925 291.70728L61.925 292.36353ZM57.471874 293.8479L56.55 293.26978L62.8 283.26978L63.721874 283.8479L57.471874 293.8479Z" fill-rule="nonzero"/><path stroke="#757575" stroke-width="1.0" stroke-linecap="butt" d="M18.55 276.31665L157.23334 276.31665L185.0871 276.31665" fill-rule="nonzero"/><path fill="#9e9e9e" d="M187.0871 276.31665C187.0871 275.21207 186.19167 274.31665 185.0871 274.31665C183.98253 274.31665 183.0871 275.21207 183.0871 276.31665C183.0871 277.4212 183.98253 278.31665 185.0871 278.31665C186.19167 278.31665 187.0871 277.4212 187.0871 276.31665" fill-rule="nonzero"/><path fill="#757575" d="M482.0594 153.18495L478.04376 153.32558Q477.6219 159.29433 472.4969 162.74745L471.29376 161.54433Q476.15314 158.30995 476.4344 153.32558L471.4344 153.4662L471.29376 152.05995L476.4969 151.91933L476.4969 147.98183L477.98126 147.98183Q478.7469 148.12245 478.1219 148.54433L478.1219 151.91933L483.66876 151.70058L483.66876 156.05995Q483.66876 159.51308 483.04376 160.91933Q482.40314 162.32558 480.3719 162.32558L478.6844 162.32558L478.46564 160.55995Q479.52814 160.70058 480.29376 160.70058Q481.35626 160.70058 481.6375 159.99745Q482.0594 158.87245 482.0594 156.05995L482.0594 153.18495ZM500.075 153.88808Q496.35626 161.62245 487.5594 162.04433Q487.21564 162.9662 486.85626 162.18495L486.29376 160.35683Q495.4344 160.13808 498.60626 152.82558L500.075 153.88808ZM490.16876 153.88808Q488.2625 152.12245 486.575 150.99745L487.77814 149.5287Q489.2469 150.43495 491.4969 152.54433L490.16876 153.88808ZM505.325 153.60683Q508.7625 154.5912 512.27814 156.2787L511.4344 157.88808Q507.71564 155.99745 505.325 155.35683L505.325 162.68495L503.7 162.68495L503.7 148.60683L505.10626 148.60683Q505.95 148.68495 505.325 149.16933L505.325 153.60683ZM514.29376 156.2787L514.29376 154.73183L529.98126 154.73183L529.98126 156.2787L514.29376 156.2787Z" fill-rule="nonzero"/><path fill="#757575" d="M539.1844 156.0912L537.6219 157.7162L537.6219 162.04433L535.9344 162.04433L535.9344 149.24745L537.6219 149.24745L537.6219 155.57558L543.3094 149.24745L545.35626 149.24745L540.3094 154.9037L545.7469 162.04433L543.71564 162.04433L539.1844 156.0912ZM552.5594 162.04433Q552.41876 161.76308 552.325 161.04433Q551.1844 162.2162 549.6219 162.2162Q548.21564 162.2162 547.3094 161.41933Q546.40314 160.62245 546.40314 159.4037Q546.40314 157.91933 547.52814 157.10683Q548.66876 156.2787 550.71564 156.2787L552.29376 156.2787L552.29376 155.5287Q552.29376 154.68495 551.77814 154.18495Q551.27814 153.66933 550.27814 153.66933Q549.41876 153.66933 548.825 154.10683Q548.23126 154.54433 548.23126 155.16933L546.60626 155.16933Q546.60626 154.4662 547.10626 153.80995Q547.60626 153.13808 548.46564 152.74745Q549.34064 152.35683 550.3875 152.35683Q552.02814 152.35683 552.95 153.18495Q553.8875 153.99745 553.91876 155.45058L553.91876 159.82558Q553.91876 161.12245 554.2625 161.9037L554.2625 162.04433L552.5594 162.04433ZM549.85626 160.80995Q550.6219 160.80995 551.3094 160.41933Q551.9969 160.01308 552.29376 159.38808L552.29376 157.43495L551.02814 157.43495Q548.02814 157.43495 548.02814 159.18495Q548.02814 159.95058 548.54376 160.38808Q549.0594 160.80995 549.85626 160.80995ZM558.21564 152.5287L558.27814 153.73183Q559.35626 152.35683 561.1219 152.35683Q564.1375 152.35683 564.15314 155.76308L564.15314 162.04433L562.52814 162.04433L562.52814 155.74745Q562.52814 154.7162 562.0594 154.23183Q561.60626 153.73183 560.6219 153.73183Q559.84064 153.73183 559.23126 154.1537Q558.6375 154.57558 558.3094 155.26308L558.3094 162.04433L556.6844 162.04433L556.6844 152.5287L558.21564 152.5287ZM568.8875 150.23183L568.8875 152.5287L570.66876 152.5287L570.66876 153.79433L568.8875 153.79433L568.8875 159.68495Q568.8875 160.26308 569.1219 160.54433Q569.35626 160.82558 569.9344 160.82558Q570.21564 160.82558 570.7 160.73183L570.7 162.04433Q570.0594 162.2162 569.46564 162.2162Q568.3719 162.2162 567.8094 161.55995Q567.2625 160.9037 567.2625 159.68495L567.2625 153.79433L565.52814 153.79433L565.52814 152.5287L567.2625 152.5287L567.2625 150.23183L568.8875 150.23183ZM572.2469 157.20058Q572.2469 155.80995 572.79376 154.70058Q573.35626 153.57558 574.325 152.9662Q575.3094 152.35683 576.5594 152.35683Q578.5125 152.35683 579.7 153.70058Q580.90314 155.04433 580.90314 157.2787L580.90314 157.38808Q580.90314 158.7787 580.3719 159.88808Q579.84064 160.98183 578.85626 161.60683Q577.8719 162.2162 576.59064 162.2162Q574.65314 162.2162 573.45 160.87245Q572.2469 159.5287 572.2469 157.30995L572.2469 157.20058ZM573.8875 157.38808Q573.8875 158.98183 574.6219 159.93495Q575.35626 160.88808 576.59064 160.88808Q577.825 160.88808 578.54376 159.91933Q579.27814 158.95058 579.27814 157.20058Q579.27814 155.63808 578.52814 154.66933Q577.79376 153.70058 576.5594 153.70058Q575.35626 153.70058 574.6219 154.6537Q573.8875 155.60683 573.8875 157.38808Z" fill-rule="nonzero"/><path fill="#9e9e9e" d="M536.8719 179.85683L538.10626 179.85683Q539.2469 179.8412 539.90314 179.24745Q540.575 178.6537 540.575 177.6537Q540.575 175.4037 538.325 175.4037Q537.27814 175.4037 536.6375 176.01308Q536.0125 176.60683 536.0125 177.60683L534.3875 177.60683Q534.3875 176.0912 535.4969 175.0912Q536.6219 174.07558 538.325 174.07558Q540.1375 174.07558 541.16876 175.0287Q542.2 175.98183 542.2 177.68495Q542.2 178.5287 541.65314 179.30995Q541.1219 180.0912 540.1844 180.48183Q541.23126 180.80995 541.8094 181.5912Q542.3875 182.35683 542.3875 183.48183Q542.3875 185.20058 541.2625 186.2162Q540.1375 187.2162 538.325 187.2162Q536.52814 187.2162 535.40314 186.24745Q534.27814 185.26308 534.27814 183.66933L535.91876 183.66933Q535.91876 184.68495 536.575 185.29433Q537.23126 185.88808 538.34064 185.88808Q539.5125 185.88808 540.1375 185.2787Q540.7625 184.66933 540.7625 183.51308Q540.7625 182.38808 540.075 181.79433Q539.3875 181.20058 538.10626 181.18495L536.8719 181.18495L536.8719 179.85683ZM552.27814 177.5912Q552.27814 178.54433 551.7625 179.29433Q551.2625 180.04433 550.40314 180.4662Q551.40314 180.88808 551.98126 181.7162Q552.575 182.54433 552.575 183.5912Q552.575 185.24745 551.45 186.23183Q550.325 187.2162 548.4969 187.2162Q546.65314 187.2162 545.54376 186.23183Q544.4344 185.24745 544.4344 183.5912Q544.4344 182.55995 544.9969 181.73183Q545.575 180.88808 546.575 180.45058Q545.71564 180.0287 545.21564 179.2787Q544.73126 178.5287 544.73126 177.5912Q544.73126 175.9662 545.7625 175.0287Q546.8094 174.07558 548.4969 174.07558Q550.1844 174.07558 551.23126 175.0287Q552.27814 175.9662 552.27814 177.5912ZM550.95 183.55995Q550.95 182.48183 550.2625 181.80995Q549.59064 181.12245 548.48126 181.12245Q547.3875 181.12245 546.71564 181.79433Q546.0594 182.4662 546.0594 183.55995Q546.0594 184.63808 546.7 185.26308Q547.35626 185.88808 548.4969 185.88808Q549.65314 185.88808 550.29376 185.26308Q550.95 184.63808 550.95 183.55995ZM548.4969 175.4037Q547.54376 175.4037 546.95 175.99745Q546.35626 176.5912 546.35626 177.60683Q546.35626 178.5912 546.9344 179.20058Q547.52814 179.79433 548.4969 179.79433Q549.48126 179.79433 550.0594 179.20058Q550.65314 178.5912 550.65314 177.62245Q550.65314 176.63808 550.04376 176.0287Q549.4344 175.4037 548.4969 175.4037ZM554.71564 186.18495Q554.71564 185.76308 554.96564 185.48183Q555.21564 185.20058 555.71564 185.20058Q556.21564 185.20058 556.46564 185.48183Q556.73126 185.76308 556.73126 186.18495Q556.73126 186.5912 556.46564 186.87245Q556.21564 187.13808 555.71564 187.13808Q555.21564 187.13808 554.96564 186.87245Q554.71564 186.5912 554.71564 186.18495ZM567.90314 187.04433L559.5125 187.04433L559.5125 185.87245L563.95 180.95058Q564.9344 179.8412 565.29376 179.13808Q565.66876 178.43495 565.66876 177.68495Q565.66876 176.68495 565.0594 176.04433Q564.46564 175.4037 563.45 175.4037Q562.23126 175.4037 561.5594 176.10683Q560.8875 176.79433 560.8875 178.01308L559.2625 178.01308Q559.2625 176.24745 560.40314 175.16933Q561.54376 174.07558 563.45 174.07558Q565.23126 174.07558 566.2625 175.01308Q567.3094 175.95058 567.3094 177.49745Q567.3094 179.38808 564.90314 181.99745L561.48126 185.7162L567.90314 185.7162L567.90314 187.04433ZM569.3719 176.70058Q569.3719 175.55995 570.10626 174.80995Q570.84064 174.05995 571.9969 174.05995Q573.16876 174.05995 573.8875 174.80995Q574.60626 175.55995 574.60626 176.76308L574.60626 177.38808Q574.60626 178.54433 573.8719 179.2787Q573.1375 180.01308 572.0125 180.01308Q570.8719 180.01308 570.1219 179.2787Q569.3719 178.54433 569.3719 177.32558L569.3719 176.70058ZM570.59064 177.38808Q570.59064 178.07558 570.96564 178.51308Q571.35626 178.95058 572.0125 178.95058Q572.6375 178.95058 573.0125 178.5287Q573.40314 178.0912 573.40314 177.35683L573.40314 176.70058Q573.40314 176.0287 573.0125 175.57558Q572.6375 175.12245 571.98126 175.12245Q571.34064 175.12245 570.96564 175.57558Q570.59064 176.0287 570.59064 176.74745L570.59064 177.38808ZM575.60626 183.9037Q575.60626 182.74745 576.34064 182.01308Q577.075 181.26308 578.21564 181.26308Q579.3719 181.26308 580.10626 182.01308Q580.85626 182.74745 580.85626 183.9662L580.85626 184.5912Q580.85626 185.74745 580.1219 186.49745Q579.3875 187.23183 578.2469 187.23183Q577.10626 187.23183 576.35626 186.49745Q575.60626 185.76308 575.60626 184.54433L575.60626 183.9037ZM576.825 184.5912Q576.825 185.2787 577.2 185.73183Q577.59064 186.16933 578.2469 186.16933Q578.8719 186.16933 579.2469 185.74745Q579.6375 185.30995 579.6375 184.55995L579.6375 183.9037Q579.6375 183.2162 579.2469 182.7787Q578.8719 182.32558 578.23126 182.32558Q577.60626 182.32558 577.21564 182.76308Q576.825 183.20058 576.825 183.93495L576.825 184.5912ZM572.3719 186.07558L571.45 185.49745L577.7 175.49745L578.6219 176.07558L572.3719 186.07558Z" fill-rule="nonzero"/><path stroke="#757575" stroke-width="1.0" stroke-linecap="butt" d="M581.45 168.54433L442.76666 168.54433L421.07553 168.54433" fill-rule="nonzero"/><path fill="#9e9e9e" d="M423.07553 168.54433C423.07553 167.43976 422.1801 166.54433 421.07553 166.54433C419.97098 166.54433 419.07553 167.43976 419.07553 168.54433C419.07553 169.6489 419.97098 170.54433 421.07553 170.54433C422.1801 170.54433 423.07553 169.6489 423.07553 168.54433" fill-rule="nonzero"/><path fill="#757575" d="M490.6375 314.6375Q487.0594 320.40314 479.52814 322.8094Q479.325 323.65314 478.825 322.8719L477.84064 321.325Q485.5125 319.6375 489.3719 313.3719L490.6375 314.6375ZM479.8094 316.54376Q477.7 314.9969 476.29376 314.29376L477.35626 312.8094Q479.10626 313.73126 480.9344 315.0594L479.8094 316.54376ZM481.91876 312.3875Q480.02814 311.0594 478.40314 310.1375L479.325 308.66876Q481.21564 309.71564 482.90314 310.91876L481.91876 312.3875ZM487.7625 307.60626Q488.95 308.52814 490.15314 309.79376L489.23126 310.7Q487.96564 309.29376 486.84064 308.45L487.7625 307.60626ZM486.075 308.8094Q487.2625 309.79376 488.46564 311.0594L487.54376 311.90314Q486.35626 310.6375 485.09064 309.575L486.075 308.8094ZM492.29376 322.45L492.29376 321.10626L499.46564 321.10626L499.46564 318.15314L492.71564 318.15314L492.71564 316.825L499.46564 316.825L499.46564 314.0125L492.29376 314.0125L492.29376 312.66876L500.8719 312.66876L500.8719 323.23126L499.46564 323.23126L499.46564 322.45L492.29376 322.45ZM517.4969 312.52814Q517.4969 320.2 510.1219 323.85626L508.77814 322.52814Q515.60626 319.41876 515.66876 313.23126L505.90314 313.23126L506.04376 317.3875L504.41876 317.3875L504.21564 311.6844L509.7625 311.6844L509.7625 308.16876L511.16876 308.16876Q512.0125 308.2469 511.3875 308.73126L511.3875 311.6844L516.65314 311.6844L517.4969 312.52814ZM523.325 314.0125Q526.7625 314.9969 530.27814 316.6844L529.4344 318.29376Q525.71564 316.40314 523.325 315.7625L523.325 323.09064L521.7 323.09064L521.7 309.0125L523.10626 309.0125Q523.95 309.09064 523.325 309.575L523.325 314.0125Z" fill-rule="nonzero"/><path fill="#757575" d="M542.29376 309.65314L543.9969 309.65314L543.9969 318.71564Q543.9969 320.54376 542.8875 321.59064Q541.79376 322.6219 539.95 322.6219Q538.04376 322.6219 536.98126 321.65314Q535.91876 320.66876 535.91876 318.91876L537.60626 318.91876Q537.60626 320.0125 538.2 320.6375Q538.8094 321.2469 539.95 321.2469Q540.9969 321.2469 541.6375 320.59064Q542.29376 319.9344 542.29376 318.7469L542.29376 309.65314ZM546.2469 317.60626Q546.2469 316.21564 546.79376 315.10626Q547.35626 313.98126 548.325 313.3719Q549.3094 312.7625 550.5594 312.7625Q552.5125 312.7625 553.7 314.10626Q554.90314 315.45 554.90314 317.6844L554.90314 317.79376Q554.90314 319.1844 554.3719 320.29376Q553.84064 321.3875 552.85626 322.0125Q551.8719 322.6219 550.59064 322.6219Q548.65314 322.6219 547.45 321.27814Q546.2469 319.9344 546.2469 317.71564L546.2469 317.60626ZM547.8875 317.79376Q547.8875 319.3875 548.6219 320.34064Q549.35626 321.29376 550.59064 321.29376Q551.825 321.29376 552.54376 320.325Q553.27814 319.35626 553.27814 317.60626Q553.27814 316.04376 552.52814 315.075Q551.79376 314.10626 550.5594 314.10626Q549.35626 314.10626 548.6219 315.0594Q547.8875 316.0125 547.8875 317.79376ZM558.3094 314.09064Q559.3875 312.7625 561.1219 312.7625Q564.1375 312.7625 564.15314 316.16876L564.15314 322.45L562.52814 322.45L562.52814 316.15314Q562.52814 315.1219 562.0594 314.6375Q561.60626 314.1375 560.6219 314.1375Q559.84064 314.1375 559.23126 314.5594Q558.6375 314.98126 558.3094 315.66876L558.3094 322.45L556.6844 322.45L556.6844 308.95L558.3094 308.95L558.3094 314.09064ZM568.8875 310.6375L568.8875 312.9344L570.66876 312.9344L570.66876 314.2L568.8875 314.2L568.8875 320.09064Q568.8875 320.66876 569.1219 320.95Q569.35626 321.23126 569.9344 321.23126Q570.21564 321.23126 570.7 321.1375L570.7 322.45Q570.0594 322.6219 569.46564 322.6219Q568.3719 322.6219 567.8094 321.96564Q567.2625 321.3094 567.2625 320.09064L567.2625 314.2L565.52814 314.2L565.52814 312.9344L567.2625 312.9344L567.2625 310.6375L568.8875 310.6375ZM572.2469 317.60626Q572.2469 316.21564 572.79376 315.10626Q573.35626 313.98126 574.325 313.3719Q575.3094 312.7625 576.5594 312.7625Q578.5125 312.7625 579.7 314.10626Q580.90314 315.45 580.90314 317.6844L580.90314 317.79376Q580.90314 319.1844 580.3719 320.29376Q579.84064 321.3875 578.85626 322.0125Q577.8719 322.6219 576.59064 322.6219Q574.65314 322.6219 573.45 321.27814Q572.2469 319.9344 572.2469 317.71564L572.2469 317.60626ZM573.8875 317.79376Q573.8875 319.3875 574.6219 320.34064Q575.35626 321.29376 576.59064 321.29376Q577.825 321.29376 578.54376 320.325Q579.27814 319.35626 579.27814 317.60626Q579.27814 316.04376 578.52814 315.075Q577.79376 314.10626 576.5594 314.10626Q575.35626 314.10626 574.6219 315.0594Q573.8875 316.0125 573.8875 317.79376Z" fill-rule="nonzero"/><path fill="#9e9e9e" d="M539.85626 347.45L538.21564 347.45L538.21564 336.60626L534.95 337.8094L534.95 336.34064L539.60626 334.59064L539.85626 334.59064L539.85626 347.45ZM550.8875 334.6375L550.8875 336.02814L550.59064 336.02814Q548.7 336.0594 547.575 337.15314Q546.45 338.23126 546.27814 340.21564Q547.27814 339.0594 549.02814 339.0594Q550.7 339.0594 551.7 340.2469Q552.7 341.41876 552.7 343.27814Q552.7 345.2469 551.6219 346.4344Q550.54376 347.6219 548.73126 347.6219Q546.90314 347.6219 545.7469 346.21564Q544.60626 344.8094 544.60626 342.575L544.60626 341.95Q544.60626 338.41876 546.10626 336.5594Q547.6219 334.6844 550.60626 334.6375L550.8875 334.6375ZM548.7625 340.40314Q547.91876 340.40314 547.21564 340.91876Q546.5125 341.41876 546.2469 342.16876L546.2469 342.7625Q546.2469 344.34064 546.95 345.3094Q547.66876 346.27814 548.73126 346.27814Q549.825 346.27814 550.45 345.48126Q551.09064 344.66876 551.09064 343.35626Q551.09064 342.02814 550.45 341.21564Q549.8094 340.40314 548.7625 340.40314ZM554.71564 346.59064Q554.71564 346.16876 554.96564 345.8875Q555.21564 345.60626 555.71564 345.60626Q556.21564 345.60626 556.46564 345.8875Q556.73126 346.16876 556.73126 346.59064Q556.73126 346.9969 556.46564 347.27814Q556.21564 347.54376 555.71564 347.54376Q555.21564 347.54376 554.96564 347.27814Q554.71564 346.9969 554.71564 346.59064ZM566.3719 343.15314L568.15314 343.15314L568.15314 344.48126L566.3719 344.48126L566.3719 347.45L564.7469 347.45L564.7469 344.48126L558.91876 344.48126L558.91876 343.52814L564.65314 334.65314L566.3719 334.65314L566.3719 343.15314ZM560.7625 343.15314L564.7469 343.15314L564.7469 336.8719L564.54376 337.23126L560.7625 343.15314ZM569.3719 337.10626Q569.3719 335.96564 570.10626 335.21564Q570.84064 334.46564 571.9969 334.46564Q573.16876 334.46564 573.8875 335.21564Q574.60626 335.96564 574.60626 337.16876L574.60626 337.79376Q574.60626 338.95 573.8719 339.6844Q573.1375 340.41876 572.0125 340.41876Q570.8719 340.41876 570.1219 339.6844Q569.3719 338.95 569.3719 337.73126L569.3719 337.10626ZM570.59064 337.79376Q570.59064 338.48126 570.96564 338.91876Q571.35626 339.35626 572.0125 339.35626Q572.6375 339.35626 573.0125 338.9344Q573.40314 338.4969 573.40314 337.7625L573.40314 337.10626Q573.40314 336.4344 573.0125 335.98126Q572.6375 335.52814 571.98126 335.52814Q571.34064 335.52814 570.96564 335.98126Q570.59064 336.4344 570.59064 337.15314L570.59064 337.79376ZM575.60626 344.3094Q575.60626 343.15314 576.34064 342.41876Q577.075 341.66876 578.21564 341.66876Q579.3719 341.66876 580.10626 342.41876Q580.85626 343.15314 580.85626 344.3719L580.85626 344.9969Q580.85626 346.15314 580.1219 346.90314Q579.3875 347.6375 578.2469 347.6375Q577.10626 347.6375 576.35626 346.90314Q575.60626 346.16876 575.60626 344.95L575.60626 344.3094ZM576.825 344.9969Q576.825 345.6844 577.2 346.1375Q577.59064 346.575 578.2469 346.575Q578.8719 346.575 579.2469 346.15314Q579.6375 345.71564 579.6375 344.96564L579.6375 344.3094Q579.6375 343.6219 579.2469 343.1844Q578.8719 342.73126 578.23126 342.73126Q577.60626 342.73126 577.21564 343.16876Q576.825 343.60626 576.825 344.34064L576.825 344.9969ZM572.3719 346.48126L571.45 345.90314L577.7 335.90314L578.6219 336.48126L572.3719 346.48126Z" fill-rule="nonzero"/><path stroke="#757575" stroke-width="1.0" stroke-linecap="butt" d="M581.45 328.95L442.76666 328.95L329.42834 342.23508" fill-rule="nonzero"/><path fill="#9e9e9e" d="M331.42834 342.23508C331.42834 341.13052 330.53293 340.23508 329.42834 340.23508C328.3238 340.23508 327.42834 341.13052 327.42834 342.23508C327.42834 343.33966 328.3238 344.23508 329.42834 344.23508C330.53293 344.23508 331.42834 343.33966 331.42834 342.23508" fill-rule="nonzero"/><path fill="#757575" d="M28.628124 26.846874Q30.034374 25.596874 30.815624 24.190624L26.3625 24.190624Q26.675 25.128124 28.628124 26.846874ZM32.14375 22.39375L33.471874 23.409374L32.925 23.8Q31.83125 25.753124 29.8 27.784374Q32.45625 29.815624 37.45625 30.83125L36.83125 32.628124Q31.284374 31.14375 28.628124 28.8Q26.596874 30.51875 23.940624 31.846874L33.784374 31.846874L33.784374 39.1125L32.221874 39.1125L32.221874 38.4875L25.26875 38.4875L25.26875 39.346874L23.70625 39.346874L23.70625 32.003124Q22.221874 32.784374 20.503124 33.33125L19.721874 31.534374Q23.628124 30.596874 27.378124 27.784374Q25.58125 25.909374 25.190624 25.05Q23.471874 27.70625 20.7375 29.034374L20.034374 27.471874Q24.253124 25.284374 25.425 21.065624L26.83125 21.534374Q27.3 21.76875 26.753124 21.925L26.284374 22.940624L31.675 22.940624L32.14375 22.39375ZM32.221874 37.003124L32.221874 33.33125L25.26875 33.33125L25.26875 37.003124L32.221874 37.003124ZM45.89375 34.971874L40.659374 36.846874Q40.58125 37.39375 40.26875 37.08125L39.64375 35.284374L42.065624 34.58125L42.065624 28.253124L39.8 28.253124L39.8 26.76875L42.065624 26.76875L42.065624 22.39375L43.55 22.39375Q44.175 22.471874 43.628124 22.8625L43.628124 26.76875L45.659374 26.76875L45.659374 28.253124L43.628124 28.253124L43.628124 34.190624L45.89375 33.409374L45.89375 34.971874ZM54.4875 37.2375Q55.26875 37.2375 55.503124 36.45625L55.971874 34.815624L57.690624 35.3625L57.3 36.846874Q56.83125 38.721874 55.034374 38.721874L48.55 38.721874Q47.14375 38.721874 47.14375 37.39375L47.14375 29.971874L45.1125 30.753124L44.64375 29.190624L47.14375 28.33125L47.14375 23.878124L48.628124 23.878124Q49.253124 23.95625 48.70625 24.346874L48.70625 27.784374L50.58125 27.08125L50.58125 21.76875L52.065624 21.76875Q52.690624 21.846874 52.14375 22.2375L52.14375 26.534374L54.8 25.51875L54.95625 25.20625L56.596874 26.3L56.284374 26.534374L56.284374 32.471874Q56.284374 33.721874 55.034374 33.721874L53.471874 33.721874L53.08125 32.2375L54.409374 32.2375Q54.721874 32.2375 54.721874 31.925L54.721874 27.2375L52.14375 28.175L52.14375 34.89375L50.58125 34.89375L50.58125 28.721874L48.70625 29.425L48.70625 36.6125Q48.70625 37.2375 49.253124 37.2375L54.4875 37.2375ZM67.925 29.034374L75.19063 29.034374L74.40938 36.065624Q74.09688 38.878124 72.14375 38.878124L69.01875 38.878124L68.62813 37.159374L71.9875 37.159374Q72.53438 37.159374 72.69063 35.9875L73.31563 30.51875L67.69063 30.51875Q66.675 35.51875 60.971874 39.1125L59.878124 37.471874Q65.97188 34.346874 66.3625 27.70625L66.44063 26.3L59.878124 26.3L59.878124 24.58125L67.53438 24.58125L67.53438 21.45625L69.25313 21.45625Q70.03438 21.6125 69.33125 22.08125L69.33125 24.58125L77.22188 24.58125L77.22188 26.3L68.2375 26.3L67.925 29.034374ZM89.33125 26.534374Q88.00313 34.346874 86.12813 36.221874Q85.1125 37.2375 84.01875 37.2375Q82.76875 37.2375 82.06563 36.534374Q80.19063 34.659374 80.19063 31.846874Q80.19063 28.409374 82.6125 25.9875Q85.26875 23.33125 89.09688 23.33125Q92.53438 23.33125 94.4875 25.284374Q96.675 27.471874 96.675 30.440624Q96.675 33.64375 94.64375 35.675Q93.31563 37.003124 90.58125 38.253124L88.94063 36.6125Q91.675 35.753124 93.2375 34.190624Q94.72188 32.70625 94.72188 30.596874Q94.72188 28.096874 93.08125 26.45625Q91.44063 24.815624 87.925 24.971874L89.33125 25.675Q90.26875 26.065624 89.33125 26.534374ZM87.53438 25.05Q85.50313 25.51875 84.01875 27.003124Q81.9875 29.034374 81.9875 32.003124Q81.9875 33.8 83.15938 34.971874Q83.39375 35.20625 83.8625 35.20625Q84.33125 35.20625 84.87813 34.659374Q86.675 32.8625 87.53438 25.05ZM114.8 24.425Q115.425 24.425 115.81563 24.034374Q116.20625 23.64375 116.20625 23.01875Q116.20625 22.39375 115.81563 22.003124Q115.425 21.6125 114.8 21.6125Q114.175 21.6125 113.78438 22.003124Q113.39375 22.39375 113.39375 23.01875Q113.39375 23.64375 113.78438 24.034374Q114.175 24.425 114.8 24.425ZM114.8 25.20625Q113.8625 25.20625 113.2375 24.58125Q112.6125 23.95625 112.6125 23.01875Q112.6125 22.08125 113.2375 21.45625Q113.8625 20.83125 114.8 20.83125Q115.7375 20.83125 116.3625 21.45625Q116.9875 22.08125 116.9875 23.01875Q116.9875 23.95625 116.3625 24.58125Q115.7375 25.20625 114.8 25.20625ZM112.14375 29.58125Q114.95625 32.55 116.3625 35.05L114.64375 36.221874Q113.00313 33.33125 110.65938 30.83125L112.14375 29.58125ZM108.39375 26.221874L115.58125 26.221874L115.58125 27.940624L108.39375 27.940624L108.39375 38.8L106.59688 38.8L106.59688 27.940624L99.56563 27.940624L99.56563 26.221874L106.59688 26.221874L106.59688 21.846874L108.2375 21.846874Q109.09688 22.003124 108.39375 22.471874L108.39375 26.221874ZM104.25313 30.51875Q104.72188 30.909374 103.94063 31.065624Q102.76875 33.64375 100.97188 36.45625L99.25313 35.51875Q101.20625 32.70625 102.53438 29.58125L104.25313 30.51875ZM118.4875 31.14375Q121.925 27.628124 122.8625 22.2375L124.81563 22.70625Q125.44063 22.8625 124.65938 23.33125Q124.19063 25.05 123.4875 26.690624L135.05 26.690624L135.05 28.409374L130.51875 28.409374Q129.81563 34.503124 124.65938 38.95625L122.8625 37.940624Q128.25313 33.64375 128.56563 28.409374L122.62813 28.409374Q121.6125 30.440624 120.05 32.003124L118.4875 31.14375ZM152.56563 37.315624L145.76875 37.315624Q143.81563 37.315624 143.81563 35.284374L143.81563 31.065624L137.56563 31.065624L137.56563 29.346874L143.81563 29.346874L143.81563 25.753124L139.05 25.753124L139.05 24.034374L151.47188 24.034374L151.47188 25.753124L145.6125 25.753124L145.6125 29.346874L153.425 29.346874L153.425 31.065624L145.6125 31.065624L145.6125 34.659374Q145.6125 35.596874 146.47188 35.596874L152.64375 35.596874L152.56563 37.315624ZM170.8 28.4875Q166.65938 37.08125 156.89375 37.55Q156.50313 38.565624 156.1125 37.70625L155.4875 35.675Q165.64375 35.440624 169.15938 27.315624L170.8 28.4875ZM159.78438 28.4875Q157.675 26.534374 155.8 25.284374L157.12813 23.64375Q158.76875 24.659374 161.26875 27.003124L159.78438 28.4875ZM182.33125 26.534374Q181.00313 34.346874 179.12813 36.221874Q178.1125 37.2375 177.01875 37.2375Q175.76875 37.2375 175.06563 36.534374Q173.19063 34.659374 173.19063 31.846874Q173.19063 28.409374 175.6125 25.9875Q178.26875 23.33125 182.09688 23.33125Q185.53438 23.33125 187.4875 25.284374Q189.675 27.471874 189.675 30.440624Q189.675 33.64375 187.64375 35.675Q186.31563 37.003124 183.58125 38.253124L181.94063 36.6125Q184.675 35.753124 186.2375 34.190624Q187.72188 32.70625 187.72188 30.596874Q187.72188 28.096874 186.08125 26.45625Q184.44063 24.815624 180.925 24.971874L182.33125 25.675Q183.26875 26.065624 182.33125 26.534374ZM180.53438 25.05Q178.50313 25.51875 177.01875 27.003124Q174.9875 29.034374 174.9875 32.003124Q174.9875 33.8 176.15938 34.971874Q176.39375 35.20625 176.8625 35.20625Q177.33125 35.20625 177.87813 34.659374Q179.675 32.8625 180.53438 25.05ZM196.00313 23.409374Q196.62813 23.4875 196.08125 23.878124L196.08125 28.096874L200.69063 28.096874L200.69063 21.846874L202.175 21.846874Q202.8 21.925 202.25313 22.315624L202.25313 28.096874L206.78438 28.096874L206.78438 23.4875L208.26875 23.4875Q208.89375 23.565624 208.34688 23.95625L208.34688 30.284374L206.78438 30.284374L206.78438 29.58125L202.25313 29.58125L202.25313 36.3L207.40938 36.3L207.40938 31.534374L208.89375 31.534374Q209.51875 31.6125 208.97188 32.003124L208.97188 38.64375L207.40938 38.64375L207.40938 37.784374L195.3 37.784374L195.3 38.878124L193.7375 38.878124L193.7375 31.45625L195.22188 31.45625Q195.84688 31.534374 195.3 31.925L195.3 36.3L200.69063 36.3L200.69063 29.58125L196.08125 29.58125L196.08125 30.440624L194.51875 30.440624L194.51875 23.409374L196.00313 23.409374ZM212.4875 34.7375Q214.28438 34.425 215.45625 34.190624L215.45625 29.971874L213.03438 29.971874L213.03438 28.4875L215.45625 28.4875L215.45625 24.346874L212.64375 24.346874L212.64375 22.8625L219.59688 22.8625L219.59688 24.346874L217.01875 24.346874L217.01875 28.4875L219.20625 28.4875L219.20625 29.971874L217.01875 29.971874L217.01875 33.878124L219.51875 33.175L219.90938 34.503124Q216.55 35.596874 213.50313 36.378124Q213.26875 36.925 213.03438 36.6125L212.4875 34.7375ZM227.8 25.284374L227.8 23.409374L221.8625 23.409374L221.8625 25.284374L227.8 25.284374ZM227.8 28.409374L227.8 26.534374L221.8625 26.534374L221.8625 28.409374L227.8 28.409374ZM227.8 31.534374L227.8 29.659374L221.8625 29.659374L221.8625 31.534374L227.8 31.534374ZM225.53438 32.784374L224.05 32.784374L224.05 33.565624Q224.05 38.33125 216.70625 39.190624L216.15938 37.471874Q222.4875 36.925 222.4875 33.4875L222.4875 32.784374L221.39375 32.784374L220.3 32.784374L220.3 22.159374L229.3625 22.159374L229.3625 32.784374L227.09688 32.784374L227.09688 36.925Q227.09688 37.55 227.64375 37.55L228.19063 37.55Q228.65938 37.55 228.81563 37.08125Q228.97188 36.6125 229.12813 35.20625L230.76875 35.675Q230.6125 36.76875 230.45625 37.39375Q230.06563 39.034374 228.89375 39.034374L226.8625 39.034374Q225.53438 39.034374 225.53438 37.70625L225.53438 32.784374ZM248.34688 26.6125Q247.4875 27.70625 246.15938 28.721874L244.9875 27.628124Q246.47188 26.45625 247.175 25.3625L248.65938 26.3Q248.89375 26.6125 248.34688 26.6125ZM246.8625 29.1125Q248.65938 29.971874 250.14375 31.221874L248.97188 32.628124Q247.4875 31.3 245.84688 30.20625L246.8625 29.1125ZM237.64375 30.284374Q236.39375 31.6125 234.83125 32.8625Q234.75313 33.409374 234.44063 33.096874L233.34688 31.76875Q235.22188 30.596874 236.62813 29.190624L237.64375 30.284374ZM237.8 30.83125L238.89375 30.83125L240.3 29.425Q239.51875 28.565624 237.95625 27.471874L238.81563 26.45625L239.3625 26.846874L240.84688 24.815624L241.94063 25.675Q242.25313 26.065624 241.70625 25.9875L240.37813 27.55L241.31563 28.409374L243.425 26.065624L244.44063 27.003124Q244.75313 27.39375 244.12813 27.315624L240.6125 30.83125L243.65938 30.440624L242.87813 29.425L244.05 28.721874Q245.06563 29.815624 246.00313 31.690624L244.675 32.471874L244.28438 31.6125L242.33125 31.846874L242.33125 33.8L250.45625 33.8L250.45625 35.284374L242.33125 35.284374L242.33125 39.190624L240.76875 39.190624L240.76875 35.284374L232.72188 35.284374L232.72188 33.8L240.76875 33.8L240.76875 32.08125L238.425 32.2375Q238.34688 32.784374 238.03438 32.471874L237.8 30.83125ZM249.51875 24.659374L233.65938 24.659374L233.65938 23.175L240.76875 23.175L240.76875 21.378124L242.25313 21.378124Q243.03438 21.534374 242.33125 22.003124L242.33125 23.175L249.51875 23.175L249.51875 24.659374ZM234.9875 25.596874Q236.39375 26.3 237.4875 27.315624L236.39375 28.64375Q235.37813 27.628124 233.97188 26.76875L234.9875 25.596874Z" fill-rule="nonzero"/><path fill="#757575" d="M22.08125 55.9875L22.08125 61.55L20.20625 61.55L20.20625 47.33125L25.440624 47.33125Q27.784374 47.33125 29.096874 48.51875Q30.425 49.70625 30.425 51.675Q30.425 53.753124 29.128124 54.878124Q27.83125 55.9875 25.425 55.9875L22.08125 55.9875ZM22.08125 54.45625L25.440624 54.45625Q26.95625 54.45625 27.753124 53.753124Q28.55 53.034374 28.55 51.690624Q28.55 50.425 27.753124 49.675Q26.95625 48.909374 25.55 48.878124L22.08125 48.878124L22.08125 54.45625ZM32.440624 56.175Q32.440624 54.6125 33.05 53.378124Q33.659374 52.128124 34.7375 51.45625Q35.83125 50.784374 37.2375 50.784374Q39.39375 50.784374 40.721874 52.284374Q42.065624 53.76875 42.065624 56.253124L42.065624 56.378124Q42.065624 57.925 41.471874 59.159374Q40.878124 60.378124 39.76875 61.065624Q38.675 61.753124 37.253124 61.753124Q35.1125 61.753124 33.76875 60.253124Q32.440624 58.753124 32.440624 56.3L32.440624 56.175ZM34.253124 56.378124Q34.253124 58.14375 35.065624 59.20625Q35.89375 60.26875 37.253124 60.26875Q38.628124 60.26875 39.440624 59.190624Q40.253124 58.1125 40.253124 56.175Q40.253124 54.425 39.425 53.346874Q38.596874 52.26875 37.2375 52.26875Q35.89375 52.26875 35.065624 53.33125Q34.253124 54.39375 34.253124 56.378124ZM46.8625 56.659374L45.7375 57.83125L45.7375 61.55L43.925 61.55L43.925 46.55L45.7375 46.55L45.7375 55.628124L46.70625 54.45625L49.9875 50.9875L52.190624 50.9875L48.08125 55.39375L52.675 61.55L50.55 61.55L46.8625 56.659374ZM58.3 61.753124Q56.159374 61.753124 54.8 60.346874Q53.45625 58.925 53.45625 56.565624L53.45625 56.221874Q53.45625 54.659374 54.05 53.425Q54.659374 52.190624 55.7375 51.4875Q56.815624 50.784374 58.08125 50.784374Q60.14375 50.784374 61.284374 52.14375Q62.425 53.503124 62.425 56.034374L62.425 56.784374L55.26875 56.784374Q55.3 58.346874 56.175 59.315624Q57.05 60.26875 58.39375 60.26875Q59.3625 60.26875 60.01875 59.878124Q60.690624 59.4875 61.190624 58.846874L62.284374 59.70625Q60.95625 61.753124 58.3 61.753124ZM58.08125 52.26875Q56.9875 52.26875 56.2375 53.065624Q55.503124 53.8625 55.33125 55.3L60.6125 55.3L60.6125 55.159374Q60.534374 53.784374 59.8625 53.034374Q59.20625 52.26875 58.08125 52.26875ZM58.971874 46.55L61.159374 46.55L58.534374 49.425L57.08125 49.425L58.971874 46.55ZM66.6125 50.9875L66.65938 52.159374Q67.83125 50.784374 69.8 50.784374Q72.01875 50.784374 72.81563 52.4875Q73.34688 51.721874 74.19063 51.253124Q75.03438 50.784374 76.19063 50.784374Q79.65938 50.784374 79.72188 54.471874L79.72188 61.55L77.90938 61.55L77.90938 54.58125Q77.90938 53.440624 77.39375 52.878124Q76.87813 52.315624 75.65938 52.315624Q74.65938 52.315624 73.9875 52.925Q73.33125 53.51875 73.22188 54.534374L73.22188 61.55L71.40938 61.55L71.40938 54.628124Q71.40938 52.315624 69.14375 52.315624Q67.3625 52.315624 66.72188 53.83125L66.72188 61.55L64.90938 61.55L64.90938 50.9875L66.6125 50.9875ZM82.44063 56.175Q82.44063 54.6125 83.05 53.378124Q83.65938 52.128124 84.7375 51.45625Q85.83125 50.784374 87.2375 50.784374Q89.39375 50.784374 90.72188 52.284374Q92.06563 53.76875 92.06563 56.253124L92.06563 56.378124Q92.06563 57.925 91.47188 59.159374Q90.87813 60.378124 89.76875 61.065624Q88.675 61.753124 87.25313 61.753124Q85.1125 61.753124 83.76875 60.253124Q82.44063 58.753124 82.44063 56.3L82.44063 56.175ZM84.25313 56.378124Q84.25313 58.14375 85.06563 59.20625Q85.89375 60.26875 87.25313 60.26875Q88.62813 60.26875 89.44063 59.190624Q90.25313 58.1125 90.25313 56.175Q90.25313 54.425 89.425 53.346874Q88.59688 52.26875 87.2375 52.26875Q85.89375 52.26875 85.06563 53.33125Q84.25313 54.39375 84.25313 56.378124ZM95.62813 50.9875L95.69063 52.315624Q96.89375 50.784374 98.84688 50.784374Q102.20625 50.784374 102.22188 54.565624L102.22188 61.55L100.425 61.55L100.425 54.55Q100.40938 53.409374 99.89375 52.8625Q99.39375 52.315624 98.3 52.315624Q97.425 52.315624 96.75313 52.784374Q96.09688 53.253124 95.72188 54.01875L95.72188 61.55L93.925 61.55L93.925 50.9875L95.62813 50.9875ZM116.44063 61.55Q116.28438 61.2375 116.19063 60.440624Q114.925 61.753124 113.175 61.753124Q111.6125 61.753124 110.6125 60.8625Q109.6125 59.971874 109.6125 58.6125Q109.6125 56.971874 110.8625 56.065624Q112.12813 55.14375 114.39375 55.14375L116.15938 55.14375L116.15938 54.315624Q116.15938 53.3625 115.58125 52.8Q115.01875 52.2375 113.925 52.2375Q112.95625 52.2375 112.3 52.7375Q111.64375 53.221874 111.64375 53.909374L109.83125 53.909374Q109.83125 53.128124 110.39375 52.39375Q110.95625 51.64375 111.90938 51.221874Q112.87813 50.784374 114.03438 50.784374Q115.8625 50.784374 116.89375 51.70625Q117.925 52.6125 117.97188 54.221874L117.97188 59.08125Q117.97188 60.534374 118.33125 61.39375L118.33125 61.55L116.44063 61.55ZM113.44063 60.175Q114.3 60.175 115.05 59.7375Q115.81563 59.3 116.15938 58.596874L116.15938 56.425L114.7375 56.425Q111.425 56.425 111.425 58.3625Q111.425 59.221874 111.9875 59.70625Q112.55 60.175 113.44063 60.175ZM129.84688 56.378124Q129.84688 58.8 128.7375 60.284374Q127.64375 61.753124 125.75313 61.753124Q123.83125 61.753124 122.72188 60.51875L122.72188 65.6125L120.925 65.6125L120.925 50.9875L122.56563 50.9875L122.65938 52.159374Q123.75313 50.784374 125.72188 50.784374Q127.62813 50.784374 128.7375 52.221874Q129.84688 53.659374 129.84688 56.221874L129.84688 56.378124ZM128.03438 56.175Q128.03438 54.39375 127.26875 53.3625Q126.51875 52.315624 125.19063 52.315624Q123.55 52.315624 122.72188 53.76875L122.72188 58.83125Q123.53438 60.26875 125.20625 60.26875Q126.50313 60.26875 127.26875 59.2375Q128.03438 58.20625 128.03438 56.175ZM140.84688 56.378124Q140.84688 58.8 139.7375 60.284374Q138.64375 61.753124 136.75313 61.753124Q134.83125 61.753124 133.72188 60.51875L133.72188 65.6125L131.925 65.6125L131.925 50.9875L133.56563 50.9875L133.65938 52.159374Q134.75313 50.784374 136.72188 50.784374Q138.62813 50.784374 139.7375 52.221874Q140.84688 53.659374 140.84688 56.221874L140.84688 56.378124ZM139.03438 56.175Q139.03438 54.39375 138.26875 53.3625Q137.51875 52.315624 136.19063 52.315624Q134.55 52.315624 133.72188 53.76875L133.72188 58.83125Q134.53438 60.26875 136.20625 60.26875Q137.50313 60.26875 138.26875 59.2375Q139.03438 58.20625 139.03438 56.175ZM147.3 61.753124Q145.15938 61.753124 143.8 60.346874Q142.45625 58.925 142.45625 56.565624L142.45625 56.221874Q142.45625 54.659374 143.05 53.425Q143.65938 52.190624 144.7375 51.4875Q145.81563 50.784374 147.08125 50.784374Q149.14375 50.784374 150.28438 52.14375Q151.425 53.503124 151.425 56.034374L151.425 56.784374L144.26875 56.784374Q144.3 58.346874 145.175 59.315624Q146.05 60.26875 147.39375 60.26875Q148.3625 60.26875 149.01875 59.878124Q149.69063 59.4875 150.19063 58.846874L151.28438 59.70625Q149.95625 61.753124 147.3 61.753124ZM147.08125 52.26875Q145.9875 52.26875 145.2375 53.065624Q144.50313 53.8625 144.33125 55.3L149.6125 55.3L149.6125 55.159374Q149.53438 53.784374 148.8625 53.034374Q148.20625 52.26875 147.08125 52.26875ZM160.44063 61.55Q160.28438 61.2375 160.19063 60.440624Q158.925 61.753124 157.175 61.753124Q155.6125 61.753124 154.6125 60.8625Q153.6125 59.971874 153.6125 58.6125Q153.6125 56.971874 154.8625 56.065624Q156.12813 55.14375 158.39375 55.14375L160.15938 55.14375L160.15938 54.315624Q160.15938 53.3625 159.58125 52.8Q159.01875 52.2375 157.925 52.2375Q156.95625 52.2375 156.3 52.7375Q155.64375 53.221874 155.64375 53.909374L153.83125 53.909374Q153.83125 53.128124 154.39375 52.39375Q154.95625 51.64375 155.90938 51.221874Q156.87813 50.784374 158.03438 50.784374Q159.8625 50.784374 160.89375 51.70625Q161.925 52.6125 161.97188 54.221874L161.97188 59.08125Q161.97188 60.534374 162.33125 61.39375L162.33125 61.55L160.44063 61.55ZM157.44063 60.175Q158.3 60.175 159.05 59.7375Q159.81563 59.3 160.15938 58.596874L160.15938 56.425L158.7375 56.425Q155.425 56.425 155.425 58.3625Q155.425 59.221874 155.9875 59.70625Q156.55 60.175 157.44063 60.175ZM170.01875 52.596874Q169.6125 52.534374 169.14375 52.534374Q167.3625 52.534374 166.72188 54.05L166.72188 61.55L164.925 61.55L164.925 50.9875L166.675 50.9875L166.70625 52.20625Q167.59688 50.784374 169.22188 50.784374Q169.75313 50.784374 170.01875 50.925L170.01875 52.596874ZM178.44063 61.55Q178.28438 61.2375 178.19063 60.440624Q176.925 61.753124 175.175 61.753124Q173.6125 61.753124 172.6125 60.8625Q171.6125 59.971874 171.6125 58.6125Q171.6125 56.971874 172.8625 56.065624Q174.12813 55.14375 176.39375 55.14375L178.15938 55.14375L178.15938 54.315624Q178.15938 53.3625 177.58125 52.8Q177.01875 52.2375 175.925 52.2375Q174.95625 52.2375 174.3 52.7375Q173.64375 53.221874 173.64375 53.909374L171.83125 53.909374Q171.83125 53.128124 172.39375 52.39375Q172.95625 51.64375 173.90938 51.221874Q174.87813 50.784374 176.03438 50.784374Q177.8625 50.784374 178.89375 51.70625Q179.925 52.6125 179.97188 54.221874L179.97188 59.08125Q179.97188 60.534374 180.33125 61.39375L180.33125 61.55L178.44063 61.55ZM175.44063 60.175Q176.3 60.175 177.05 59.7375Q177.81563 59.3 178.15938 58.596874L178.15938 56.425L176.7375 56.425Q173.425 56.425 173.425 58.3625Q173.425 59.221874 173.9875 59.70625Q174.55 60.175 175.44063 60.175ZM184.62813 50.9875L184.69063 52.315624Q185.89375 50.784374 187.84688 50.784374Q191.20625 50.784374 191.22188 54.565624L191.22188 61.55L189.425 61.55L189.425 54.55Q189.40938 53.409374 188.89375 52.8625Q188.39375 52.315624 187.3 52.315624Q186.425 52.315624 185.75313 52.784374Q185.09688 53.253124 184.72188 54.01875L184.72188 61.55L182.925 61.55L182.925 50.9875L184.62813 50.9875ZM198.15938 60.26875Q199.12813 60.26875 199.84688 59.690624Q200.56563 59.096874 200.64375 58.221874L202.3625 58.221874Q202.3 59.128124 201.72188 59.95625Q201.15938 60.76875 200.19063 61.26875Q199.2375 61.753124 198.15938 61.753124Q196.00313 61.753124 194.72188 60.315624Q193.45625 58.8625 193.45625 56.3625L193.45625 56.065624Q193.45625 54.51875 194.01875 53.315624Q194.58125 52.1125 195.64375 51.45625Q196.70625 50.784374 198.14375 50.784374Q199.925 50.784374 201.09688 51.846874Q202.28438 52.909374 202.3625 54.6125L200.64375 54.6125Q200.56563 53.596874 199.8625 52.940624Q199.175 52.26875 198.14375 52.26875Q196.76875 52.26875 196.00313 53.26875Q195.25313 54.253124 195.25313 56.128124L195.25313 56.471874Q195.25313 58.3 196.00313 59.284374Q196.75313 60.26875 198.15938 60.26875ZM208.3 61.753124Q206.15938 61.753124 204.8 60.346874Q203.45625 58.925 203.45625 56.565624L203.45625 56.221874Q203.45625 54.659374 204.05 53.425Q204.65938 52.190624 205.7375 51.4875Q206.81563 50.784374 208.08125 50.784374Q210.14375 50.784374 211.28438 52.14375Q212.425 53.503124 212.425 56.034374L212.425 56.784374L205.26875 56.784374Q205.3 58.346874 206.175 59.315624Q207.05 60.26875 208.39375 60.26875Q209.3625 60.26875 210.01875 59.878124Q210.69063 59.4875 211.19063 58.846874L212.28438 59.70625Q210.95625 61.753124 208.3 61.753124ZM208.08125 52.26875Q206.9875 52.26875 206.2375 53.065624Q205.50313 53.8625 205.33125 55.3L210.6125 55.3L210.6125 55.159374Q210.53438 53.784374 209.8625 53.034374Q209.20625 52.26875 208.08125 52.26875ZM225.01875 52.596874Q224.6125 52.534374 224.14375 52.534374Q222.3625 52.534374 221.72188 54.05L221.72188 61.55L219.925 61.55L219.925 50.9875L221.675 50.9875L221.70625 52.20625Q222.59688 50.784374 224.22188 50.784374Q224.75313 50.784374 225.01875 50.925L225.01875 52.596874ZM233.44063 61.55Q233.28438 61.2375 233.19063 60.440624Q231.925 61.753124 230.175 61.753124Q228.6125 61.753124 227.6125 60.8625Q226.6125 59.971874 226.6125 58.6125Q226.6125 56.971874 227.8625 56.065624Q229.12813 55.14375 231.39375 55.14375L233.15938 55.14375L233.15938 54.315624Q233.15938 53.3625 232.58125 52.8Q232.01875 52.2375 230.925 52.2375Q229.95625 52.2375 229.3 52.7375Q228.64375 53.221874 228.64375 53.909374L226.83125 53.909374Q226.83125 53.128124 227.39375 52.39375Q227.95625 51.64375 228.90938 51.221874Q229.87813 50.784374 231.03438 50.784374Q232.8625 50.784374 233.89375 51.70625Q234.925 52.6125 234.97188 54.221874L234.97188 59.08125Q234.97188 60.534374 235.33125 61.39375L235.33125 61.55L233.44063 61.55ZM230.44063 60.175Q231.3 60.175 232.05 59.7375Q232.81563 59.3 233.15938 58.596874L233.15938 56.425L231.7375 56.425Q228.425 56.425 228.425 58.3625Q228.425 59.221874 228.9875 59.70625Q229.55 60.175 230.44063 60.175ZM240.3625 48.425L240.3625 50.9875L242.34688 50.9875L242.34688 52.378124L240.3625 52.378124L240.3625 58.925Q240.3625 59.565624 240.62813 59.89375Q240.89375 60.20625 241.53438 60.20625Q241.84688 60.20625 242.39375 60.08125L242.39375 61.55Q241.675 61.753124 241.00313 61.753124Q239.8 61.753124 239.175 61.01875Q238.56563 60.284374 238.56563 58.925L238.56563 52.378124L236.64375 52.378124L236.64375 50.9875L238.56563 50.9875L238.56563 48.425L240.3625 48.425ZM246.87813 61.55L245.08125 61.55L245.08125 50.9875L246.87813 50.9875L246.87813 61.55ZM244.925 48.175Q244.925 47.7375 245.19063 47.440624Q245.47188 47.128124 245.9875 47.128124Q246.51875 47.128124 246.78438 47.440624Q247.06563 47.7375 247.06563 48.175Q247.06563 48.6125 246.78438 48.909374Q246.51875 49.20625 245.9875 49.20625Q245.47188 49.20625 245.19063 48.909374Q244.925 48.6125 244.925 48.175ZM249.44063 56.175Q249.44063 54.6125 250.05 53.378124Q250.65938 52.128124 251.7375 51.45625Q252.83125 50.784374 254.2375 50.784374Q256.39374 50.784374 257.72186 52.284374Q259.0656 53.76875 259.0656 56.253124L259.0656 56.378124Q259.0656 57.925 258.47186 59.159374Q257.8781 60.378124 256.76874 61.065624Q255.675 61.753124 254.25313 61.753124Q252.1125 61.753124 250.76875 60.253124Q249.44063 58.753124 249.44063 56.3L249.44063 56.175ZM251.25313 56.378124Q251.25313 58.14375 252.06563 59.20625Q252.89375 60.26875 254.25313 60.26875Q255.62813 60.26875 256.4406 59.190624Q257.2531 58.1125 257.2531 56.175Q257.2531 54.425 256.425 53.346874Q255.59688 52.26875 254.2375 52.26875Q252.89375 52.26875 252.06563 53.33125Q251.25313 54.39375 251.25313 56.378124ZM267.0656 58.753124Q267.0656 58.01875 266.51874 57.6125Q265.97186 57.20625 264.59686 56.909374Q263.22186 56.6125 262.40936 56.20625Q261.6125 55.8 261.22186 55.2375Q260.84686 54.659374 260.84686 53.878124Q260.84686 52.58125 261.9406 51.690624Q263.03436 50.784374 264.7531 50.784374Q266.55 50.784374 267.65936 51.721874Q268.78436 52.64375 268.78436 54.08125L266.95624 54.08125Q266.95624 53.346874 266.33124 52.815624Q265.70624 52.26875 264.7531 52.26875Q263.7531 52.26875 263.1906 52.70625Q262.64374 53.128124 262.64374 53.83125Q262.64374 54.471874 263.15936 54.815624Q263.675 55.14375 265.03436 55.45625Q266.39374 55.753124 267.22186 56.175Q268.0656 56.58125 268.47186 57.175Q268.8781 57.76875 268.8781 58.6125Q268.8781 60.034374 267.7375 60.89375Q266.6125 61.753124 264.8 61.753124Q263.53436 61.753124 262.55 61.3Q261.58124 60.846874 261.01874 60.05Q260.47186 59.2375 260.47186 58.3L262.28436 58.3Q262.33124 59.20625 263.0031 59.7375Q263.6906 60.26875 264.8 60.26875Q265.83124 60.26875 266.4406 59.8625Q267.0656 59.440624 267.0656 58.753124ZM276.8 61.55L276.8 52.378124L275.14374 52.378124L275.14374 50.9875L276.8 50.9875L276.8 49.89375Q276.8 48.20625 277.70624 47.284374Q278.6281 46.346874 280.28436 46.346874Q280.90936 46.346874 281.51874 46.503124L281.425 47.971874Q280.97186 47.89375 280.45624 47.89375Q279.5656 47.89375 279.08124 48.409374Q278.6125 48.909374 278.6125 49.8625L278.6125 50.9875L280.8625 50.9875L280.8625 52.378124L278.6125 52.378124L278.6125 61.55L276.8 61.55ZM282.4406 56.175Q282.4406 54.6125 283.05 53.378124Q283.65936 52.128124 284.7375 51.45625Q285.83124 50.784374 287.2375 50.784374Q289.39374 50.784374 290.72186 52.284374Q292.0656 53.76875 292.0656 56.253124L292.0656 56.378124Q292.0656 57.925 291.47186 59.159374Q290.8781 60.378124 289.76874 61.065624Q288.675 61.753124 287.2531 61.753124Q285.1125 61.753124 283.76874 60.253124Q282.4406 58.753124 282.4406 56.3L282.4406 56.175ZM284.2531 56.378124Q284.2531 58.14375 285.0656 59.20625Q285.89374 60.26875 287.2531 60.26875Q288.6281 60.26875 289.4406 59.190624Q290.2531 58.1125 290.2531 56.175Q290.2531 54.425 289.425 53.346874Q288.59686 52.26875 287.2375 52.26875Q285.89374 52.26875 285.0656 53.33125Q284.2531 54.39375 284.2531 56.378124ZM299.01874 52.596874Q298.6125 52.534374 298.14374 52.534374Q296.3625 52.534374 295.72186 54.05L295.72186 61.55L293.925 61.55L293.925 50.9875L295.675 50.9875L295.70624 52.20625Q296.59686 50.784374 298.22186 50.784374Q298.7531 50.784374 299.01874 50.925L299.01874 52.596874ZM310.3 61.753124Q308.15936 61.753124 306.8 60.346874Q305.45624 58.925 305.45624 56.565624L305.45624 56.221874Q305.45624 54.659374 306.05 53.425Q306.65936 52.190624 307.7375 51.4875Q308.8156 50.784374 310.08124 50.784374Q312.14374 50.784374 313.28436 52.14375Q314.425 53.503124 314.425 56.034374L314.425 56.784374L307.26874 56.784374Q307.3 58.346874 308.175 59.315624Q309.05 60.26875 310.39374 60.26875Q311.3625 60.26875 312.01874 59.878124Q312.6906 59.4875 313.1906 58.846874L314.28436 59.70625Q312.95624 61.753124 310.3 61.753124ZM310.08124 52.26875Q308.9875 52.26875 308.2375 53.065624Q307.5031 53.8625 307.33124 55.3L312.6125 55.3L312.6125 55.159374Q312.53436 53.784374 311.8625 53.034374Q311.20624 52.26875 310.08124 52.26875ZM323.4406 61.55Q323.28436 61.2375 323.1906 60.440624Q321.925 61.753124 320.175 61.753124Q318.6125 61.753124 317.6125 60.8625Q316.6125 59.971874 316.6125 58.6125Q316.6125 56.971874 317.8625 56.065624Q319.1281 55.14375 321.39374 55.14375L323.15936 55.14375L323.15936 54.315624Q323.15936 53.3625 322.58124 52.8Q322.01874 52.2375 320.925 52.2375Q319.95624 52.2375 319.3 52.7375Q318.64374 53.221874 318.64374 53.909374L316.83124 53.909374Q316.83124 53.128124 317.39374 52.39375Q317.95624 51.64375 318.90936 51.221874Q319.8781 50.784374 321.03436 50.784374Q322.8625 50.784374 323.89374 51.70625Q324.925 52.6125 324.97186 54.221874L324.97186 59.08125Q324.97186 60.534374 325.33124 61.39375L325.33124 61.55L323.4406 61.55ZM320.4406 60.175Q321.3 60.175 322.05 59.7375Q322.8156 59.3 323.15936 58.596874L323.15936 56.425L321.7375 56.425Q318.425 56.425 318.425 58.3625Q318.425 59.221874 318.9875 59.70625Q319.55 60.175 320.4406 60.175ZM332.15936 60.26875Q333.1281 60.26875 333.84686 59.690624Q334.5656 59.096874 334.64374 58.221874L336.3625 58.221874Q336.3 59.128124 335.72186 59.95625Q335.15936 60.76875 334.1906 61.26875Q333.2375 61.753124 332.15936 61.753124Q330.0031 61.753124 328.72186 60.315624Q327.45624 58.8625 327.45624 56.3625L327.45624 56.065624Q327.45624 54.51875 328.01874 53.315624Q328.58124 52.1125 329.64374 51.45625Q330.70624 50.784374 332.14374 50.784374Q333.925 50.784374 335.09686 51.846874Q336.28436 52.909374 336.3625 54.6125L334.64374 54.6125Q334.5656 53.596874 333.8625 52.940624Q333.175 52.26875 332.14374 52.26875Q330.76874 52.26875 330.0031 53.26875Q329.2531 54.253124 329.2531 56.128124L329.2531 56.471874Q329.2531 58.3 330.0031 59.284374Q330.7531 60.26875 332.15936 60.26875ZM339.72186 52.26875Q340.925 50.784374 342.84686 50.784374Q346.20624 50.784374 346.22186 54.565624L346.22186 61.55L344.425 61.55L344.425 54.55Q344.40936 53.409374 343.89374 52.8625Q343.39374 52.315624 342.3 52.315624Q341.425 52.315624 340.7531 52.784374Q340.09686 53.253124 339.72186 54.01875L339.72186 61.55L337.925 61.55L337.925 46.55L339.72186 46.55L339.72186 52.26875ZM359.01874 52.596874Q358.6125 52.534374 358.14374 52.534374Q356.3625 52.534374 355.72186 54.05L355.72186 61.55L353.925 61.55L353.925 50.9875L355.675 50.9875L355.70624 52.20625Q356.59686 50.784374 358.22186 50.784374Q358.7531 50.784374 359.01874 50.925L359.01874 52.596874ZM365.3 61.753124Q363.15936 61.753124 361.8 60.346874Q360.45624 58.925 360.45624 56.565624L360.45624 56.221874Q360.45624 54.659374 361.05 53.425Q361.65936 52.190624 362.7375 51.4875Q363.8156 50.784374 365.08124 50.784374Q367.14374 50.784374 368.28436 52.14375Q369.425 53.503124 369.425 56.034374L369.425 56.784374L362.26874 56.784374Q362.3 58.346874 363.175 59.315624Q364.05 60.26875 365.39374 60.26875Q366.3625 60.26875 367.01874 59.878124Q367.6906 59.4875 368.1906 58.846874L369.28436 59.70625Q367.95624 61.753124 365.3 61.753124ZM365.08124 52.26875Q363.9875 52.26875 363.2375 53.065624Q362.5031 53.8625 362.33124 55.3L367.6125 55.3L367.6125 55.159374Q367.53436 53.784374 366.8625 53.034374Q366.20624 52.26875 365.08124 52.26875ZM371.4875 56.175Q371.4875 53.70625 372.6281 52.253124Q373.76874 50.784374 375.65936 50.784374Q377.59686 50.784374 378.675 52.159374L378.76874 50.9875L380.40936 50.9875L380.40936 61.3Q380.40936 63.346874 379.1906 64.51875Q377.9875 65.70625 375.925 65.70625Q374.78436 65.70625 373.6906 65.22188Q372.59686 64.7375 372.01874 63.878124L372.95624 62.8Q374.1281 64.2375 375.8 64.2375Q377.1281 64.2375 377.8625 63.4875Q378.59686 62.753124 378.59686 61.409374L378.59686 60.4875Q377.51874 61.753124 375.64374 61.753124Q373.78436 61.753124 372.6281 60.253124Q371.4875 58.753124 371.4875 56.175ZM373.3 56.378124Q373.3 58.175 374.03436 59.190624Q374.76874 60.20625 376.08124 60.20625Q377.8 60.20625 378.59686 58.659374L378.59686 53.83125Q377.76874 52.315624 376.1125 52.315624Q374.78436 52.315624 374.03436 53.346874Q373.3 54.378124 373.3 56.378124ZM384.8781 61.55L383.08124 61.55L383.08124 50.9875L384.8781 50.9875L384.8781 61.55ZM382.925 48.175Q382.925 47.7375 383.1906 47.440624Q383.47186 47.128124 383.9875 47.128124Q384.51874 47.128124 384.78436 47.440624Q385.0656 47.7375 385.0656 48.175Q385.0656 48.6125 384.78436 48.909374Q384.51874 49.20625 383.9875 49.20625Q383.47186 49.20625 383.1906 48.909374Q382.925 48.6125 382.925 48.175ZM387.4406 56.175Q387.4406 54.6125 388.05 53.378124Q388.65936 52.128124 389.7375 51.45625Q390.83124 50.784374 392.2375 50.784374Q394.39374 50.784374 395.72186 52.284374Q397.0656 53.76875 397.0656 56.253124L397.0656 56.378124Q397.0656 57.925 396.47186 59.159374Q395.8781 60.378124 394.76874 61.065624Q393.675 61.753124 392.2531 61.753124Q390.1125 61.753124 388.76874 60.253124Q387.4406 58.753124 387.4406 56.3L387.4406 56.175ZM389.2531 56.378124Q389.2531 58.14375 390.0656 59.20625Q390.89374 60.26875 392.2531 60.26875Q393.6281 60.26875 394.4406 59.190624Q395.2531 58.1125 395.2531 56.175Q395.2531 54.425 394.425 53.346874Q393.59686 52.26875 392.2375 52.26875Q390.89374 52.26875 390.0656 53.33125Q389.2531 54.39375 389.2531 56.378124ZM400.6281 50.9875L400.6906 52.315624Q401.89374 50.784374 403.84686 50.784374Q407.20624 50.784374 407.22186 54.565624L407.22186 61.55L405.425 61.55L405.425 54.55Q405.40936 53.409374 404.89374 52.8625Q404.39374 52.315624 403.3 52.315624Q402.425 52.315624 401.7531 52.784374Q401.09686 53.253124 400.72186 54.01875L400.72186 61.55L398.925 61.55L398.925 50.9875L400.6281 50.9875Z" fill-rule="nonzero"/></svg>