<svg version="1.1" viewBox="0.0 0.0 600.0 371.0" fill="none" stroke="none" stroke-linecap="square" stroke-miterlimit="10" width="600" height="371" xmlns:xlink="http://www.w3.org/1999/xlink" xmlns="http://www.w3.org/2000/svg"><path fill="#ffffff" d="M0 0L600.0 0L600.0 371.0L0 371.0L0 0Z" fill-rule="nonzero"/><path stroke="#333333" stroke-width="1.0" stroke-linecap="butt" d="M45.5 298.5L581.5 298.5" fill-rule="nonzero"/><path stroke="#cccccc" stroke-width="1.0" stroke-linecap="butt" d="M45.5 259.5L581.5 259.5" fill-rule="nonzero"/><path stroke="#cccccc" stroke-width="1.0" stroke-linecap="butt" d="M45.5 219.5L581.5 219.5" fill-rule="nonzero"/><path stroke="#cccccc" stroke-width="1.0" stroke-linecap="butt" d="M45.5 180.5L581.5 180.5" fill-rule="nonzero"/><path stroke="#cccccc" stroke-width="1.0" stroke-linecap="butt" d="M45.5 141.5L581.5 141.5" fill-rule="nonzero"/><path stroke="#cccccc" stroke-width="1.0" stroke-linecap="butt" d="M45.5 101.5L581.5 101.5" fill-rule="nonzero"/><path stroke="#cccccc" stroke-width="1.0" stroke-linecap="butt" d="M45.5 62.5L581.5 62.5" fill-rule="nonzero"/><clipPath id="id_0"><path d="M45.55 62.416668L581.45 62.416668L581.45 298.45L45.55 298.45L45.55 62.416668Z" clip-rule="nonzero"/></clipPath><path stroke="#000000" stroke-width="2.0" stroke-linecap="butt" stroke-opacity="0.0" clip-path="url(#id_0)" d="M81.0 298.0L58.0 298.0L58.0 298.0L81.0 298.0Z" fill-rule="nonzero"/><path fill="#4285f4" clip-path="url(#id_0)" d="M81.0 298.0L58.0 298.0L58.0 298.0L81.0 298.0Z" fill-rule="nonzero"/><path stroke="#000000" stroke-width="2.0" stroke-linecap="butt" stroke-opacity="0.0" clip-path="url(#id_0)" d="M116.0 298.0L93.0 298.0L93.0 261.0C93.0 259.89542 93.89543 259.0 95.0 259.0L114.0 259.0C115.10457 259.0 116.0 259.89542 116.0 261.0Z" fill-rule="nonzero"/><path fill="#4285f4" clip-path="url(#id_0)" d="M116.0 298.0L93.0 298.0L93.0 261.0C93.0 259.89542 93.89543 259.0 95.0 259.0L114.0 259.0C115.10457 259.0 116.0 259.89542 116.0 261.0Z" fill-rule="nonzero"/><path stroke="#000000" stroke-width="2.0" stroke-linecap="butt" stroke-opacity="0.0" clip-path="url(#id_0)" d="M151.0 298.0L128.0 298.0L128.0 222.0C128.0 220.89543 128.89543 220.0 130.0 220.0L149.0 220.0C150.10457 220.0 151.0 220.89543 151.0 222.0Z" fill-rule="nonzero"/><path fill="#4285f4" clip-path="url(#id_0)" d="M151.0 298.0L128.0 298.0L128.0 222.0C128.0 220.89543 128.89543 220.0 130.0 220.0L149.0 220.0C150.10457 220.0 151.0 220.89543 151.0 222.0Z" fill-rule="nonzero"/><path stroke="#000000" stroke-width="2.0" stroke-linecap="butt" stroke-opacity="0.0" clip-path="url(#id_0)" d="M186.0 298.0L163.0 298.0L163.0 241.0C163.0 239.89543 163.89543 239.0 165.0 239.0L184.0 239.0C185.10457 239.0 186.0 239.89543 186.0 241.0Z" fill-rule="nonzero"/><path fill="#4285f4" clip-path="url(#id_0)" d="M186.0 298.0L163.0 298.0L163.0 241.0C163.0 239.89543 163.89543 239.0 165.0 239.0L184.0 239.0C185.10457 239.0 186.0 239.89543 186.0 241.0Z" fill-rule="nonzero"/><path stroke="#000000" stroke-width="2.0" stroke-linecap="butt" stroke-opacity="0.0" clip-path="url(#id_0)" d="M221.0 298.0L198.0 298.0L198.0 261.0C198.0 259.89542 198.89543 259.0 200.0 259.0L219.0 259.0C220.10457 259.0 221.0 259.89542 221.0 261.0Z" fill-rule="nonzero"/><path fill="#4285f4" clip-path="url(#id_0)" d="M221.0 298.0L198.0 298.0L198.0 261.0C198.0 259.89542 198.89543 259.0 200.0 259.0L219.0 259.0C220.10457 259.0 221.0 259.89542 221.0 261.0Z" fill-rule="nonzero"/><path stroke="#000000" stroke-width="2.0" stroke-linecap="butt" stroke-opacity="0.0" clip-path="url(#id_0)" d="M256.0 298.0L233.0 298.0L233.0 222.0C233.0 220.89543 233.89543 220.0 235.0 220.0L254.0 220.0C255.10457 220.0 256.0 220.89543 256.0 222.0Z" fill-rule="nonzero"/><path fill="#4285f4" clip-path="url(#id_0)" d="M256.0 298.0L233.0 298.0L233.0 222.0C233.0 220.89543 233.89543 220.0 235.0 220.0L254.0 220.0C255.10457 220.0 256.0 220.89543 256.0 222.0Z" fill-rule="nonzero"/><path stroke="#000000" stroke-width="2.0" stroke-linecap="butt" stroke-opacity="0.0" clip-path="url(#id_0)" d="M291.0 298.0L268.0 298.0L268.0 163.0C268.0 161.89543 268.89542 161.0 270.0 161.0L289.0 161.0C290.10458 161.0 291.0 161.89543 291.0 163.0Z" fill-rule="nonzero"/><path fill="#4285f4" clip-path="url(#id_0)" d="M291.0 298.0L268.0 298.0L268.0 163.0C268.0 161.89543 268.89542 161.0 270.0 161.0L289.0 161.0C290.10458 161.0 291.0 161.89543 291.0 163.0Z" fill-rule="nonzero"/><path stroke="#000000" stroke-width="2.0" stroke-linecap="butt" stroke-opacity="0.0" clip-path="url(#id_0)" d="M326.0 298.0L303.0 298.0L303.0 84.0C303.0 82.89543 303.89542 82.0 305.0 82.0L324.0 82.0C325.10458 82.0 326.0 82.89543 326.0 84.0Z" fill-rule="nonzero"/><path fill="#4285f4" clip-path="url(#id_0)" d="M326.0 298.0L303.0 298.0L303.0 84.0C303.0 82.89543 303.89542 82.0 305.0 82.0L324.0 82.0C325.10458 82.0 326.0 82.89543 326.0 84.0Z" fill-rule="nonzero"/><path stroke="#000000" stroke-width="2.0" stroke-linecap="butt" stroke-opacity="0.0" clip-path="url(#id_0)" d="M360.0 298.0L337.0 298.0L337.0 64.0C337.0 62.89543 337.89542 62.0 339.0 62.0L358.0 62.0C359.10458 62.0 360.0 62.89543 360.0 64.0Z" fill-rule="nonzero"/><path fill="#4285f4" clip-path="url(#id_0)" d="M360.0 298.0L337.0 298.0L337.0 64.0C337.0 62.89543 337.89542 62.0 339.0 62.0L358.0 62.0C359.10458 62.0 360.0 62.89543 360.0 64.0Z" fill-rule="nonzero"/><path stroke="#000000" stroke-width="2.0" stroke-linecap="butt" stroke-opacity="0.0" clip-path="url(#id_0)" d="M395.0 298.0L372.0 298.0L372.0 163.0C372.0 161.89543 372.89542 161.0 374.0 161.0L393.0 161.0C394.10458 161.0 395.0 161.89543 395.0 163.0Z" fill-rule="nonzero"/><path fill="#4285f4" clip-path="url(#id_0)" d="M395.0 298.0L372.0 298.0L372.0 163.0C372.0 161.89543 372.89542 161.0 374.0 161.0L393.0 161.0C394.10458 161.0 395.0 161.89543 395.0 163.0Z" fill-rule="nonzero"/><path stroke="#000000" stroke-width="2.0" stroke-linecap="butt" stroke-opacity="0.0" clip-path="url(#id_0)" d="M430.0 298.0L407.0 298.0L407.0 241.0C407.0 239.89543 407.89542 239.0 409.0 239.0L428.0 239.0C429.10458 239.0 430.0 239.89543 430.0 241.0Z" fill-rule="nonzero"/><path fill="#4285f4" clip-path="url(#id_0)" d="M430.0 298.0L407.0 298.0L407.0 241.0C407.0 239.89543 407.89542 239.0 409.0 239.0L428.0 239.0C429.10458 239.0 430.0 239.89543 430.0 241.0Z" fill-rule="nonzero"/><path stroke="#000000" stroke-width="2.0" stroke-linecap="butt" stroke-opacity="0.0" clip-path="url(#id_0)" d="M465.0 298.0L442.0 298.0L442.0 281.0C442.0 279.89542 442.89542 279.0 444.0 279.0L463.0 279.0C464.10458 279.0 465.0 279.89542 465.0 281.0Z" fill-rule="nonzero"/><path fill="#4285f4" clip-path="url(#id_0)" d="M465.0 298.0L442.0 298.0L442.0 281.0C442.0 279.89542 442.89542 279.0 444.0 279.0L463.0 279.0C464.10458 279.0 465.0 279.89542 465.0 281.0Z" fill-rule="nonzero"/><path stroke="#000000" stroke-width="2.0" stroke-linecap="butt" stroke-opacity="0.0" clip-path="url(#id_0)" d="M500.0 298.0L477.0 298.0L477.0 298.0L500.0 298.0Z" fill-rule="nonzero"/><path fill="#4285f4" clip-path="url(#id_0)" d="M500.0 298.0L477.0 298.0L477.0 298.0L500.0 298.0Z" fill-rule="nonzero"/><path stroke="#000000" stroke-width="2.0" stroke-linecap="butt" stroke-opacity="0.0" clip-path="url(#id_0)" d="M535.0 298.0L512.0 298.0L512.0 298.0L535.0 298.0Z" fill-rule="nonzero"/><path fill="#4285f4" clip-path="url(#id_0)" d="M535.0 298.0L512.0 298.0L512.0 298.0L535.0 298.0Z" fill-rule="nonzero"/><path stroke="#000000" stroke-width="2.0" stroke-linecap="butt" stroke-opacity="0.0" clip-path="url(#id_0)" d="M570.0 298.0L547.0 298.0L547.0 261.0C547.0 259.89542 547.89545 259.0 549.0 259.0L568.0 259.0C569.10455 259.0 570.0 259.89542 570.0 261.0Z" fill-rule="nonzero"/><path fill="#4285f4" clip-path="url(#id_0)" d="M570.0 298.0L547.0 298.0L547.0 261.0C547.0 259.89542 547.89545 259.0 549.0 259.0L568.0 259.0C569.10455 259.0 570.0 259.89542 570.0 261.0Z" fill-rule="nonzero"/><path fill="#424242" d="M263.01562 350.29376L263.01562 349.96564L261.375 349.96564L261.375 350.48126L260.57812 350.48126L260.57812 346.6375L263.8125 346.6375L263.8125 350.29376L263.01562 350.29376ZM265.03125 340.1219L270.42188 340.1219L270.42188 349.77814Q270.42188 350.4344 269.85938 350.4344L268.73438 350.4344L268.54688 349.54376L269.4375 349.54376Q269.625 349.54376 269.625 349.35626L269.625 341.0125L265.82812 341.0125L265.82812 346.35626Q265.82812 348.79376 264.60938 350.4344L263.90625 349.6844Q265.03125 348.1375 265.03125 345.9344L265.03125 340.1219ZM268.17188 344.15314L269.15625 344.15314L269.15625 344.90314L266.34375 344.90314L266.34375 344.15314L267.375 344.15314L267.375 343.02814L266.34375 343.02814L266.34375 342.27814L267.375 342.27814L267.375 341.34064L268.125 341.34064Q268.5 341.3875 268.17188 341.6219L268.17188 342.27814L269.20312 342.27814L269.20312 343.02814L268.17188 343.02814L268.17188 344.15314ZM261.375 349.21564L263.01562 349.21564L263.01562 347.3875L261.375 347.3875L261.375 349.21564ZM260.71875 344.9969L263.8125 344.9969L263.8125 345.8875L260.71875 345.8875L260.71875 344.9969ZM260.71875 340.075L263.8125 340.075L263.8125 340.96564L260.71875 340.96564L260.71875 340.075ZM264.42188 341.71564L264.42188 342.60626L260.15625 342.60626L260.15625 341.71564L264.42188 341.71564ZM260.71875 344.2469L260.71875 343.35626L263.8125 343.35626L263.8125 344.2469L260.71875 344.2469ZM267.23438 349.3094L266.4375 349.3094L266.4375 345.7469L268.92188 345.7469L268.92188 348.65314L267.23438 348.65314L267.23438 349.3094ZM267.23438 346.4969L267.23438 347.90314L268.125 347.90314L268.125 346.4969L267.23438 346.4969ZM273.84375 347.90314Q274.64062 346.4969 275.01562 345.325L272.01562 345.325L272.01562 344.4344L282.84375 344.4344L282.84375 345.325L276.09375 345.325Q275.90625 345.8875 275.71875 346.3094L281.29688 346.3094Q280.92188 349.1219 280.26562 350.0125Q279.89062 350.48126 278.85938 350.3875L277.59375 350.2469L277.54688 349.21564L279.0 349.35626Q279.46875 349.40314 279.70312 348.8875Q279.79688 348.65314 280.125 347.2L275.4375 347.2Q275.25 347.66876 274.92188 348.23126L273.84375 347.90314ZM274.92188 340.96564L274.92188 342.5125L279.9375 342.5125L279.9375 340.96564L274.92188 340.96564ZM279.9375 343.73126L279.9375 343.40314L274.92188 343.40314L274.92188 343.825L273.98438 343.825L273.98438 340.075L280.875 340.075L280.875 343.73126L279.9375 343.73126Z" fill-rule="nonzero"/><path fill="#424242" d="M289.65625 345.48126L288.60938 346.5594L288.60938 349.45L287.48438 349.45L287.48438 340.91876L288.60938 340.91876L288.60938 345.1375L292.40625 340.91876L293.76562 340.91876L290.40625 344.6844L294.03125 349.45L292.6875 349.45L289.65625 345.48126ZM297.95312 349.575Q296.65625 349.575 295.84375 348.73126Q295.04688 347.8719 295.04688 346.45L295.04688 346.2625Q295.04688 345.3094 295.40625 344.575Q295.76562 343.825 296.40625 343.41876Q297.0625 342.9969 297.8125 342.9969Q299.04688 342.9969 299.73438 343.8094Q300.42188 344.6219 300.42188 346.1375L300.42188 346.59064L296.125 346.59064Q296.15625 347.52814 296.67188 348.10626Q297.20312 348.6844 298.01562 348.6844Q298.57812 348.6844 298.96875 348.45Q299.375 348.21564 299.6875 347.825L300.34375 348.34064Q299.54688 349.575 297.95312 349.575ZM297.8125 343.8875Q297.15625 343.8875 296.70312 344.3719Q296.26562 344.84064 296.17188 345.7L299.34375 345.7L299.34375 345.6219Q299.29688 344.79376 298.89062 344.34064Q298.5 343.8875 297.8125 343.8875ZM303.39062 347.85626L304.875 343.10626L306.03125 343.10626L303.48438 350.4344Q302.89062 352.0125 301.60938 352.0125L301.39062 351.9969L301.0 351.91876L301.0 351.04376L301.28125 351.0594Q301.84375 351.0594 302.14062 350.84064Q302.45312 350.6219 302.65625 350.02814L302.89062 349.3719L300.625 343.10626L301.8125 343.10626L303.39062 347.85626ZM313.0 345.65314Q311.5625 345.23126 310.89062 344.6219Q310.23438 344.0125 310.23438 343.1219Q310.23438 342.1219 311.03125 341.46564Q311.84375 340.79376 313.14062 340.79376Q314.01562 340.79376 314.70312 341.1375Q315.39062 341.48126 315.76562 342.075Q316.15625 342.66876 316.15625 343.3875L315.01562 343.3875Q315.01562 342.60626 314.51562 342.16876Q314.03125 341.73126 313.14062 341.73126Q312.3125 341.73126 311.84375 342.10626Q311.375 342.46564 311.375 343.10626Q311.375 343.6375 311.8125 343.9969Q312.26562 344.35626 313.32812 344.65314Q314.39062 344.95 314.98438 345.3094Q315.59375 345.66876 315.875 346.15314Q316.17188 346.6375 316.17188 347.27814Q316.17188 348.325 315.35938 348.95Q314.54688 349.575 313.20312 349.575Q312.3125 349.575 311.54688 349.23126Q310.79688 348.8875 310.375 348.3094Q309.96875 347.71564 309.96875 346.98126L311.09375 346.98126Q311.09375 347.7469 311.67188 348.2Q312.25 348.65314 313.20312 348.65314Q314.09375 348.65314 314.5625 348.29376Q315.03125 347.91876 315.03125 347.29376Q315.03125 346.66876 314.59375 346.325Q314.15625 345.98126 313.0 345.65314ZM318.5 349.45L317.42188 349.45L317.42188 343.10626L318.5 343.10626L318.5 349.45ZM317.32812 341.4344Q317.32812 341.16876 317.48438 340.98126Q317.65625 340.79376 317.96875 340.79376Q318.28125 340.79376 318.4375 340.98126Q318.60938 341.16876 318.60938 341.4344Q318.60938 341.6844 318.4375 341.8719Q318.28125 342.04376 317.96875 342.04376Q317.65625 342.04376 317.48438 341.8719Q317.32812 341.6844 317.32812 341.4344ZM320.0625 346.23126Q320.0625 344.7469 320.75 343.8719Q321.4375 342.9969 322.5625 342.9969Q323.71875 342.9969 324.375 343.8094L324.42188 343.10626L325.42188 343.10626L325.42188 349.29376Q325.42188 350.52814 324.6875 351.23126Q323.95312 351.95 322.73438 351.95Q322.04688 351.95 321.39062 351.65314Q320.73438 351.35626 320.39062 350.85626L320.95312 350.2Q321.64062 351.0594 322.65625 351.0594Q323.4375 351.0594 323.875 350.60626Q324.32812 350.16876 324.32812 349.35626L324.32812 348.8094Q323.67188 349.575 322.54688 349.575Q321.4375 349.575 320.75 348.6844Q320.0625 347.77814 320.0625 346.23126ZM321.15625 346.35626Q321.15625 347.41876 321.59375 348.04376Q322.03125 348.65314 322.82812 348.65314Q323.84375 348.65314 324.32812 347.71564L324.32812 344.825Q323.82812 343.91876 322.82812 343.91876Q322.04688 343.91876 321.59375 344.52814Q321.15625 345.1375 321.15625 346.35626ZM328.34375 343.10626L328.375 343.90314Q329.10938 342.9969 330.28125 342.9969Q332.29688 342.9969 332.3125 345.2625L332.3125 349.45L331.21875 349.45L331.21875 345.2469Q331.21875 344.575 330.90625 344.2469Q330.60938 343.91876 329.95312 343.91876Q329.42188 343.91876 329.01562 344.2Q328.625 344.48126 328.40625 344.9344L328.40625 349.45L327.32812 349.45L327.32812 343.10626L328.34375 343.10626ZM338.23438 349.45Q338.14062 349.2625 338.07812 348.77814Q337.32812 349.575 336.28125 349.575Q335.34375 349.575 334.73438 349.04376Q334.14062 348.5125 334.14062 347.6844Q334.14062 346.7 334.89062 346.15314Q335.64062 345.60626 337.01562 345.60626L338.0625 345.60626L338.0625 345.10626Q338.0625 344.54376 337.71875 344.21564Q337.39062 343.8719 336.71875 343.8719Q336.14062 343.8719 335.75 344.16876Q335.35938 344.45 335.35938 344.8719L334.26562 344.8719Q334.26562 344.3875 334.59375 343.95Q334.9375 343.5125 335.51562 343.2625Q336.09375 342.9969 336.78125 342.9969Q337.89062 342.9969 338.5 343.54376Q339.125 344.09064 339.15625 345.04376L339.15625 347.96564Q339.15625 348.84064 339.375 349.35626L339.375 349.45L338.23438 349.45ZM336.4375 348.6219Q336.95312 348.6219 337.40625 348.35626Q337.85938 348.09064 338.0625 347.66876L338.0625 346.3719L337.21875 346.3719Q335.21875 346.3719 335.21875 347.54376Q335.21875 348.04376 335.5625 348.34064Q335.90625 348.6219 336.4375 348.6219ZM342.79688 341.575L342.79688 343.10626L343.96875 343.10626L343.96875 343.95L342.79688 343.95L342.79688 347.8719Q342.79688 348.2625 342.95312 348.45Q343.10938 348.6375 343.48438 348.6375Q343.67188 348.6375 344.0 348.575L344.0 349.45Q343.57812 349.575 343.17188 349.575Q342.45312 349.575 342.07812 349.1375Q341.70312 348.6844 341.70312 347.8719L341.70312 343.95L340.54688 343.95L340.54688 343.10626L341.70312 343.10626L341.70312 341.575L342.79688 341.575ZM349.23438 348.825Q348.60938 349.575 347.375 349.575Q346.35938 349.575 345.82812 348.98126Q345.29688 348.3875 345.29688 347.23126L345.29688 343.10626L346.375 343.10626L346.375 347.2Q346.375 348.65314 347.54688 348.65314Q348.79688 348.65314 349.20312 347.71564L349.20312 343.10626L350.29688 343.10626L350.29688 349.45L349.26562 349.45L349.23438 348.825ZM355.39062 344.075Q355.14062 344.04376 354.85938 344.04376Q353.78125 344.04376 353.40625 344.95L353.40625 349.45L352.32812 349.45L352.32812 343.10626L353.375 343.10626L353.39062 343.84064Q353.92188 342.9969 354.90625 342.9969Q355.21875 342.9969 355.39062 343.075L355.39062 344.075ZM358.95312 349.575Q357.65625 349.575 356.84375 348.73126Q356.04688 347.8719 356.04688 346.45L356.04688 346.2625Q356.04688 345.3094 356.40625 344.575Q356.76562 343.825 357.40625 343.41876Q358.0625 342.9969 358.8125 342.9969Q360.04688 342.9969 360.73438 343.8094Q361.42188 344.6219 361.42188 346.1375L361.42188 346.59064L357.125 346.59064Q357.15625 347.52814 357.67188 348.10626Q358.20312 348.6844 359.01562 348.6844Q359.57812 348.6844 359.96875 348.45Q360.375 348.21564 360.6875 347.825L361.34375 348.34064Q360.54688 349.575 358.95312 349.575ZM358.8125 343.8875Q358.15625 343.8875 357.70312 344.3719Q357.26562 344.84064 357.17188 345.7L360.34375 345.7L360.34375 345.6219Q360.29688 344.79376 359.89062 344.34064Q359.5 343.8875 358.8125 343.8875ZM366.01562 347.7625Q366.01562 347.325 365.67188 347.09064Q365.34375 346.84064 364.51562 346.66876Q363.70312 346.4969 363.21875 346.2469Q362.73438 345.9969 362.5 345.66876Q362.28125 345.325 362.28125 344.85626Q362.28125 344.075 362.9375 343.54376Q363.59375 342.9969 364.625 342.9969Q365.70312 342.9969 366.35938 343.5594Q367.03125 344.10626 367.03125 344.96564L365.95312 344.96564Q365.95312 344.52814 365.5625 344.21564Q365.1875 343.8875 364.625 343.8875Q364.03125 343.8875 363.6875 344.15314Q363.35938 344.40314 363.35938 344.8094Q363.35938 345.2 363.67188 345.40314Q363.98438 345.60626 364.79688 345.79376Q365.60938 345.96564 366.10938 346.21564Q366.60938 346.46564 366.84375 346.825Q367.09375 347.1844 367.09375 347.6844Q367.09375 348.54376 366.40625 349.0594Q365.73438 349.575 364.65625 349.575Q363.89062 349.575 363.29688 349.3094Q362.71875 349.02814 362.39062 348.54376Q362.0625 348.0594 362.0625 347.4969L363.14062 347.4969Q363.17188 348.04376 363.57812 348.3719Q363.98438 348.6844 364.65625 348.6844Q365.26562 348.6844 365.64062 348.4344Q366.01562 348.1844 366.01562 347.7625Z" fill-rule="nonzero"/><path fill="#757575" d="M38.6125 299.3094Q38.6125 301.21564 37.95625 302.15314Q37.315624 303.075 35.925 303.075Q34.565624 303.075 33.909374 302.16876Q33.253124 301.2625 33.221874 299.45L33.221874 298.0125Q33.221874 296.1219 33.8625 295.21564Q34.51875 294.29376 35.909374 294.29376Q37.284374 294.29376 37.940624 295.1844Q38.596874 296.0594 38.6125 297.90314L38.6125 299.3094ZM37.51875 297.825Q37.51875 296.45 37.128124 295.825Q36.753124 295.1844 35.909374 295.1844Q35.08125 295.1844 34.690624 295.825Q34.315624 296.45 34.315624 297.7469L34.315624 299.48126Q34.315624 300.85626 34.70625 301.52814Q35.1125 302.1844 35.925 302.1844Q36.721874 302.1844 37.1125 301.5594Q37.503124 300.9344 37.51875 299.60626L37.51875 297.825Z" fill-rule="nonzero"/><path fill="#757575" d="M38.846874 263.6111L33.253124 263.6111L33.253124 262.82986L36.20625 259.5486Q36.8625 258.7986 37.1125 258.3455Q37.3625 257.87674 37.3625 257.37674Q37.3625 256.70486 36.95625 256.283Q36.565624 255.84549 35.878124 255.84549Q35.08125 255.84549 34.628124 256.31424Q34.175 256.76736 34.175 257.5955L33.096874 257.5955Q33.096874 256.408 33.846874 255.68924Q34.6125 254.95486 35.878124 254.95486Q37.08125 254.95486 37.76875 255.57986Q38.45625 256.20486 38.45625 257.25174Q38.45625 258.50174 36.846874 260.25174L34.565624 262.7205L38.846874 262.7205L38.846874 263.6111Z" fill-rule="nonzero"/><path fill="#757575" d="M37.83125 221.41284L39.01875 221.41284L39.01875 222.28784L37.83125 222.28784L37.83125 224.27222L36.753124 224.27222L36.753124 222.28784L32.8625 222.28784L32.8625 221.64722L36.675 215.74097L37.83125 215.74097L37.83125 221.41284ZM34.096874 221.41284L36.753124 221.41284L36.753124 217.22534L36.6125 217.45972L34.096874 221.41284Z" fill-rule="nonzero"/><path fill="#757575" d="M37.51875 176.40208L37.51875 177.30833L37.315624 177.30833Q36.05 177.33958 35.3 178.07396Q34.55 178.79271 34.425 180.10521Q35.1125 179.33958 36.26875 179.33958Q37.378124 179.33958 38.05 180.12083Q38.721874 180.90208 38.721874 182.15208Q38.721874 183.46458 38.003124 184.26146Q37.284374 185.05833 36.065624 185.05833Q34.846874 185.05833 34.08125 184.12083Q33.33125 183.16771 33.33125 181.68333L33.33125 181.27708Q33.33125 178.91771 34.33125 177.66771Q35.33125 176.41771 37.315624 176.40208L37.51875 176.40208ZM36.096874 180.24583Q35.534374 180.24583 35.065624 180.57396Q34.596874 180.90208 34.409374 181.41771L34.409374 181.80833Q34.409374 182.87083 34.878124 183.51146Q35.3625 184.15208 36.065624 184.15208Q36.8 184.15208 37.221874 183.62083Q37.64375 183.07396 37.64375 182.19896Q37.64375 181.32396 37.221874 180.79271Q36.8 180.24583 36.096874 180.24583Z" fill-rule="nonzero"/><path fill="#757575" d="M38.440624 139.28195Q38.440624 139.92258 38.096874 140.42258Q37.753124 140.92258 37.190624 141.20383Q37.846874 141.48508 38.2375 142.04758Q38.628124 142.59445 38.628124 143.29758Q38.628124 144.39133 37.878124 145.0632Q37.14375 145.71945 35.925 145.71945Q34.690624 145.71945 33.940624 145.0632Q33.20625 144.39133 33.20625 143.29758Q33.20625 142.59445 33.58125 142.04758Q33.95625 141.48508 34.628124 141.20383Q34.065624 140.92258 33.7375 140.42258Q33.409374 139.92258 33.409374 139.28195Q33.409374 138.20383 34.096874 137.57883Q34.784374 136.9382 35.925 136.9382Q37.05 136.9382 37.7375 137.57883Q38.440624 138.20383 38.440624 139.28195ZM37.55 143.26633Q37.55 142.54758 37.096874 142.11008Q36.64375 141.65695 35.909374 141.65695Q35.175 141.65695 34.721874 142.11008Q34.284374 142.54758 34.284374 143.28195Q34.284374 144.0007 34.721874 144.42258Q35.159374 144.82883 35.925 144.82883Q36.675 144.82883 37.1125 144.40695Q37.55 143.98508 37.55 143.26633ZM35.925 137.82883Q35.284374 137.82883 34.878124 138.23508Q34.4875 138.6257 34.4875 139.3132Q34.4875 139.95383 34.878124 140.36008Q35.26875 140.76633 35.909374 140.76633Q36.565624 140.76633 36.95625 140.36008Q37.346874 139.95383 37.346874 139.3132Q37.346874 138.65695 36.940624 138.2507Q36.534374 137.82883 35.925 137.82883Z" fill-rule="nonzero"/><path fill="#757575" d="M29.815624 106.255554L28.7375 106.255554L28.7375 99.036804L26.55 99.83368L26.55 98.849304L29.659374 97.67743L29.815624 97.67743L29.815624 106.255554ZM38.6125 102.61493Q38.6125 104.52118 37.95625 105.45868Q37.315624 106.380554 35.925 106.380554Q34.565624 106.380554 33.909374 105.474304Q33.253124 104.568054 33.221874 102.755554L33.221874 101.318054Q33.221874 99.42743 33.8625 98.52118Q34.51875 97.599304 35.909374 97.599304Q37.284374 97.599304 37.940624 98.48993Q38.596874 99.36493 38.6125 101.20868L38.6125 102.61493ZM37.51875 101.130554Q37.51875 99.755554 37.128124 99.130554Q36.753124 98.48993 35.909374 98.48993Q35.08125 98.48993 34.690624 99.130554Q34.315624 99.755554 34.315624 101.05243L34.315624 102.786804Q34.315624 104.161804 34.70625 104.83368Q35.1125 105.48993 35.925 105.48993Q36.721874 105.48993 37.1125 104.86493Q37.503124 104.23993 37.51875 102.911804L37.51875 101.130554Z" fill-rule="nonzero"/><path fill="#757575" d="M29.815624 66.916664L28.7375 66.916664L28.7375 59.697914L26.55 60.49479L26.55 59.510414L29.659374 58.33854L29.815624 58.33854L29.815624 66.916664ZM38.846874 66.916664L33.253124 66.916664L33.253124 66.135414L36.20625 62.854164Q36.8625 62.104164 37.1125 61.65104Q37.3625 61.18229 37.3625 60.68229Q37.3625 60.010414 36.95625 59.58854Q36.565624 59.15104 35.878124 59.15104Q35.08125 59.15104 34.628124 59.61979Q34.175 60.072914 34.175 60.90104L33.096874 60.90104Q33.096874 59.71354 33.846874 58.99479Q34.6125 58.260414 35.878124 58.260414Q37.08125 58.260414 37.76875 58.885414Q38.45625 59.510414 38.45625 60.55729Q38.45625 61.80729 36.846874 63.55729L34.565624 66.02604L38.846874 66.02604L38.846874 66.916664Z" fill-rule="nonzero"/><path fill="#757575" d="M64.58438 316.35626Q65.193756 315.98126 65.70938 315.46564Q66.83438 314.34064 66.83438 313.2625Q66.83438 312.7469 66.506256 312.41876Q66.225006 312.1375 65.89688 312.1375Q65.100006 312.1375 64.58438 312.41876L64.58438 316.35626ZM65.61563 316.1219Q65.05313 316.4969 63.928135 317.15314L63.928135 307.2625L64.58438 307.2625L64.58438 312.04376Q65.193756 311.71564 66.037506 311.71564Q66.83438 311.71564 67.256256 312.1375Q67.725006 312.60626 67.725006 313.35626Q67.725006 314.2469 66.83438 315.1375Q66.318756 315.65314 65.61563 316.1219Z" fill-rule="nonzero"/><path fill="#757575" d="M77.83438 308.52814L74.30313 316.45L73.162506 316.45L76.67813 308.8094L72.068756 308.8094L72.068756 307.91876L77.83438 307.91876L77.83438 308.52814Z" fill-rule="nonzero"/><path fill="#757575" d="M99.49644 316.35626Q100.10581 315.98126 100.62144 315.46564Q101.74644 314.34064 101.74644 313.2625Q101.74644 312.7469 101.41831 312.41876Q101.13706 312.1375 100.80894 312.1375Q100.01206 312.1375 99.49644 312.41876L99.49644 316.35626ZM100.52769 316.1219Q99.96519 316.4969 98.84019 317.15314L98.84019 307.2625L99.49644 307.2625L99.49644 312.04376Q100.10581 311.71564 100.94956 311.71564Q101.74644 311.71564 102.16831 312.1375Q102.63706 312.60626 102.63706 313.35626Q102.63706 314.2469 101.74644 315.1375Q101.23081 315.65314 100.52769 316.1219Z" fill-rule="nonzero"/><path fill="#757575" d="M111.49644 307.91876L111.49644 308.825L111.29331 308.825Q110.02769 308.85626 109.27769 309.59064Q108.52769 310.3094 108.40269 311.6219Q109.09019 310.85626 110.24644 310.85626Q111.35581 310.85626 112.02769 311.6375Q112.69956 312.41876 112.69956 313.66876Q112.69956 314.98126 111.98081 315.77814Q111.26206 316.575 110.04331 316.575Q108.82456 316.575 108.05894 315.6375Q107.30894 314.6844 107.30894 313.2L107.30894 312.79376Q107.30894 310.4344 108.30894 309.1844Q109.30894 307.9344 111.29331 307.91876L111.49644 307.91876ZM110.07456 311.7625Q109.51206 311.7625 109.04331 312.09064Q108.57456 312.41876 108.38706 312.9344L108.38706 313.325Q108.38706 314.3875 108.85581 315.02814Q109.34019 315.66876 110.04331 315.66876Q110.77769 315.66876 111.19956 315.1375Q111.62144 314.59064 111.62144 313.71564Q111.62144 312.84064 111.19956 312.3094Q110.77769 311.7625 110.07456 311.7625Z" fill-rule="nonzero"/><path fill="#757575" d="M134.4085 316.35626Q135.01787 315.98126 135.5335 315.46564Q136.6585 314.34064 136.6585 313.2625Q136.6585 312.7469 136.33037 312.41876Q136.04912 312.1375 135.721 312.1375Q134.92412 312.1375 134.4085 312.41876L134.4085 316.35626ZM135.43974 316.1219Q134.87724 316.4969 133.75224 317.15314L133.75224 307.2625L134.4085 307.2625L134.4085 312.04376Q135.01787 311.71564 135.86162 311.71564Q136.6585 311.71564 137.08037 312.1375Q137.54912 312.60626 137.54912 313.35626Q137.54912 314.2469 136.6585 315.1375Q136.14287 315.65314 135.43974 316.1219Z" fill-rule="nonzero"/><path fill="#757575" d="M142.64287 312.16876L143.08037 307.91876L147.45537 307.91876L147.45537 308.91876L144.00224 308.91876L143.73662 311.2469Q144.37724 310.8719 145.17412 310.8719Q146.33037 310.8719 147.01787 311.65314Q147.70537 312.41876 147.70537 313.73126Q147.70537 315.04376 146.98662 315.8094Q146.2835 316.575 145.00224 316.575Q143.87724 316.575 143.1585 315.95Q142.43974 315.3094 142.346 314.2L143.36162 314.2Q143.471 314.9344 143.89287 315.3094Q144.31474 315.6844 145.00224 315.6844Q145.75224 315.6844 146.18974 315.16876Q146.62724 314.65314 146.62724 313.7469Q146.62724 312.8875 146.1585 312.3719Q145.68974 311.85626 144.9085 311.85626Q144.20537 311.85626 143.79912 312.15314L143.51787 312.3875L142.64287 312.16876Z" fill-rule="nonzero"/><path fill="#757575" d="M169.32054 316.35626Q169.92992 315.98126 170.44554 315.46564Q171.57054 314.34064 171.57054 313.2625Q171.57054 312.7469 171.24242 312.41876Q170.96117 312.1375 170.63304 312.1375Q169.83617 312.1375 169.32054 312.41876L169.32054 316.35626ZM170.35179 316.1219Q169.78929 316.4969 168.66429 317.15314L168.66429 307.2625L169.32054 307.2625L169.32054 312.04376Q169.92992 311.71564 170.77367 311.71564Q171.57054 311.71564 171.99242 312.1375Q172.46117 312.60626 172.46117 313.35626Q172.46117 314.2469 171.57054 315.1375Q171.05492 315.65314 170.35179 316.1219Z" fill-rule="nonzero"/><path fill="#757575" d="M181.63304 313.59064L182.82054 313.59064L182.82054 314.46564L181.63304 314.46564L181.63304 316.45L180.55492 316.45L180.55492 314.46564L176.66429 314.46564L176.66429 313.825L180.47679 307.91876L181.63304 307.91876L181.63304 313.59064ZM177.89867 313.59064L180.55492 313.59064L180.55492 309.40314L180.41429 309.6375L177.89867 313.59064Z" fill-rule="nonzero"/><path fill="#757575" d="M204.23259 316.35626Q204.84196 315.98126 205.35759 315.46564Q206.48259 314.34064 206.48259 313.2625Q206.48259 312.7469 206.15446 312.41876Q205.87321 312.1375 205.54509 312.1375Q204.74821 312.1375 204.23259 312.41876L204.23259 316.35626ZM205.26384 316.1219Q204.70134 316.4969 203.57634 317.15314L203.57634 307.2625L204.23259 307.2625L204.23259 312.04376Q204.84196 311.71564 205.68571 311.71564Q206.48259 311.71564 206.90446 312.1375Q207.37321 312.60626 207.37321 313.35626Q207.37321 314.2469 206.48259 315.1375Q205.96696 315.65314 205.26384 316.1219Z" fill-rule="nonzero"/><path fill="#757575" d="M213.54509 311.65314L214.35759 311.65314Q215.13884 311.6375 215.57634 311.2469Q216.01384 310.85626 216.01384 310.1844Q216.01384 308.6844 214.51384 308.6844Q213.81071 308.6844 213.38884 309.09064Q212.98259 309.4969 212.98259 310.15314L211.88884 310.15314Q211.88884 309.1375 212.62321 308.46564Q213.37321 307.79376 214.51384 307.79376Q215.71696 307.79376 216.40446 308.4344Q217.09196 309.075 217.09196 310.21564Q217.09196 310.77814 216.73259 311.29376Q216.37321 311.8094 215.74821 312.075Q216.45134 312.29376 216.82634 312.8094Q217.21696 313.325 217.21696 314.075Q217.21696 315.21564 216.46696 315.90314Q215.71696 316.575 214.51384 316.575Q213.32634 316.575 212.56071 315.91876Q211.81071 315.2625 211.81071 314.2L212.90446 314.2Q212.90446 314.8719 213.34196 315.27814Q213.77946 315.6844 214.52946 315.6844Q215.31071 315.6844 215.71696 315.27814Q216.13884 314.85626 216.13884 314.09064Q216.13884 313.35626 215.68571 312.96564Q215.23259 312.5594 214.35759 312.54376L213.54509 312.54376L213.54509 311.65314Z" fill-rule="nonzero"/><path fill="#757575" d="M239.14465 316.35626Q239.75403 315.98126 240.26965 315.46564Q241.39465 314.34064 241.39465 313.2625Q241.39465 312.7469 241.06653 312.41876Q240.78528 312.1375 240.45715 312.1375Q239.66028 312.1375 239.14465 312.41876L239.14465 316.35626ZM240.1759 316.1219Q239.6134 316.4969 238.4884 317.15314L238.4884 307.2625L239.14465 307.2625L239.14465 312.04376Q239.75403 311.71564 240.59778 311.71564Q241.39465 311.71564 241.81653 312.1375Q242.28528 312.60626 242.28528 313.35626Q242.28528 314.2469 241.39465 315.1375Q240.87903 315.65314 240.1759 316.1219Z" fill-rule="nonzero"/><path fill="#757575" d="M252.47278 316.45L246.87903 316.45L246.87903 315.66876L249.83215 312.3875Q250.4884 311.6375 250.7384 311.1844Q250.9884 310.71564 250.9884 310.21564Q250.9884 309.54376 250.58215 309.1219Q250.19153 308.6844 249.50403 308.6844Q248.70715 308.6844 248.25403 309.15314Q247.8009 309.60626 247.8009 310.4344L246.72278 310.4344Q246.72278 309.2469 247.47278 308.52814Q248.2384 307.79376 249.50403 307.79376Q250.70715 307.79376 251.39465 308.41876Q252.08215 309.04376 252.08215 310.09064Q252.08215 311.34064 250.47278 313.09064L248.19153 315.5594L252.47278 315.5594L252.47278 316.45Z" fill-rule="nonzero"/><path fill="#757575" d="M274.0567 316.35626Q274.66608 315.98126 275.1817 315.46564Q276.3067 314.34064 276.3067 313.2625Q276.3067 312.7469 275.97858 312.41876Q275.69733 312.1375 275.3692 312.1375Q274.57233 312.1375 274.0567 312.41876L274.0567 316.35626ZM275.08795 316.1219Q274.52545 316.4969 273.40045 317.15314L273.40045 307.2625L274.0567 307.2625L274.0567 312.04376Q274.66608 311.71564 275.50983 311.71564Q276.3067 311.71564 276.72858 312.1375Q277.19733 312.60626 277.19733 313.35626Q277.19733 314.2469 276.3067 315.1375Q275.79108 315.65314 275.08795 316.1219Z" fill-rule="nonzero"/><path fill="#757575" d="M285.35358 316.45L284.27545 316.45L284.27545 309.23126L282.08795 310.02814L282.08795 309.04376L285.19733 307.8719L285.35358 307.8719L285.35358 316.45Z" fill-rule="nonzero"/><path fill="#757575" d="M311.15625 312.98126L311.15625 310.54376L308.48438 311.2469L308.48438 313.6844L311.15625 312.98126ZM311.48438 316.3094L311.15625 316.3094L311.15625 313.6844L308.15625 314.48126L308.15625 307.91876L308.48438 307.91876L308.48438 310.54376L311.48438 309.7469L311.48438 316.3094Z" fill-rule="nonzero"/><path fill="#757575" d="M318.5625 312.8094Q318.5625 314.71564 317.90625 315.65314Q317.26562 316.575 315.875 316.575Q314.51562 316.575 313.85938 315.66876Q313.20312 314.7625 313.17188 312.95L313.17188 311.5125Q313.17188 309.6219 313.8125 308.71564Q314.46875 307.79376 315.85938 307.79376Q317.23438 307.79376 317.89062 308.6844Q318.54688 309.5594 318.5625 311.40314L318.5625 312.8094ZM317.46875 311.325Q317.46875 309.95 317.07812 309.325Q316.70312 308.6844 315.85938 308.6844Q315.03125 308.6844 314.64062 309.325Q314.26562 309.95 314.26562 311.2469L314.26562 312.98126Q314.26562 314.35626 314.65625 315.02814Q315.0625 315.6844 315.875 315.6844Q316.67188 315.6844 317.0625 315.0594Q317.45312 314.4344 317.46875 313.10626L317.46875 311.325Z" fill-rule="nonzero"/><path fill="#757575" d="M347.64642 314.0125L346.47455 314.52814L346.47455 316.45L345.97455 316.45L345.97455 314.7625L343.86517 315.7L343.86517 317.6844L343.36517 317.6844L343.36517 315.9344L342.1933 316.45L342.1933 315.46564L343.36517 314.95L343.36517 312.04376L342.1933 312.575L342.1933 311.59064L343.36517 311.0594L343.36517 309.15314L343.86517 309.15314L343.86517 310.84064L345.97455 309.90314L345.97455 307.85626L346.47455 307.85626L346.47455 309.66876L347.64642 309.15314L347.64642 310.1375L346.47455 310.65314L346.47455 313.54376L347.64642 313.02814L347.64642 314.0125ZM345.97455 313.77814L345.97455 310.8875L343.86517 311.825L343.86517 314.71564L345.97455 313.77814Z" fill-rule="nonzero"/><path fill="#757575" d="M352.17767 316.45L351.09955 316.45L351.09955 309.23126L348.91205 310.02814L348.91205 309.04376L352.02142 307.8719L352.17767 307.8719L352.17767 316.45Z" fill-rule="nonzero"/><path fill="#757575" d="M382.55847 314.0125L381.3866 314.52814L381.3866 316.45L380.8866 316.45L380.8866 314.7625L378.77722 315.7L378.77722 317.6844L378.27722 317.6844L378.27722 315.9344L377.10535 316.45L377.10535 315.46564L378.27722 314.95L378.27722 312.04376L377.10535 312.575L377.10535 311.59064L378.27722 311.0594L378.27722 309.15314L378.77722 309.15314L378.77722 310.84064L380.8866 309.90314L380.8866 307.85626L381.3866 307.85626L381.3866 309.66876L382.55847 309.15314L382.55847 310.1375L381.3866 310.65314L381.3866 313.54376L382.55847 313.02814L382.55847 314.0125ZM380.8866 313.77814L380.8866 310.8875L378.77722 311.825L378.77722 314.71564L380.8866 313.77814Z" fill-rule="nonzero"/><path fill="#757575" d="M389.12097 316.45L383.52722 316.45L383.52722 315.66876L386.48035 312.3875Q387.1366 311.6375 387.3866 311.1844Q387.6366 310.71564 387.6366 310.21564Q387.6366 309.54376 387.23035 309.1219Q386.83972 308.6844 386.15222 308.6844Q385.35535 308.6844 384.90222 309.15314Q384.4491 309.60626 384.4491 310.4344L383.37097 310.4344Q383.37097 309.2469 384.12097 308.52814Q384.8866 307.79376 386.15222 307.79376Q387.35535 307.79376 388.04285 308.41876Q388.73035 309.04376 388.73035 310.09064Q388.73035 311.34064 387.12097 313.09064L384.83972 315.5594L389.12097 315.5594L389.12097 316.45Z" fill-rule="nonzero"/><path fill="#757575" d="M417.47052 314.0125L416.29865 314.52814L416.29865 316.45L415.79865 316.45L415.79865 314.7625L413.68927 315.7L413.68927 317.6844L413.18927 317.6844L413.18927 315.9344L412.0174 316.45L412.0174 315.46564L413.18927 314.95L413.18927 312.04376L412.0174 312.575L412.0174 311.59064L413.18927 311.0594L413.18927 309.15314L413.68927 309.15314L413.68927 310.84064L415.79865 309.90314L415.79865 307.85626L416.29865 307.85626L416.29865 309.66876L417.47052 309.15314L417.47052 310.1375L416.29865 310.65314L416.29865 313.54376L417.47052 313.02814L417.47052 314.0125ZM415.79865 313.77814L415.79865 310.8875L413.68927 311.825L413.68927 314.71564L415.79865 313.77814Z" fill-rule="nonzero"/><path fill="#757575" d="M420.0174 311.65314L420.8299 311.65314Q421.61115 311.6375 422.04865 311.2469Q422.48615 310.85626 422.48615 310.1844Q422.48615 308.6844 420.98615 308.6844Q420.28302 308.6844 419.86115 309.09064Q419.4549 309.4969 419.4549 310.15314L418.36115 310.15314Q418.36115 309.1375 419.09552 308.46564Q419.84552 307.79376 420.98615 307.79376Q422.18927 307.79376 422.87677 308.4344Q423.56427 309.075 423.56427 310.21564Q423.56427 310.77814 423.2049 311.29376Q422.84552 311.8094 422.22052 312.075Q422.92365 312.29376 423.29865 312.8094Q423.68927 313.325 423.68927 314.075Q423.68927 315.21564 422.93927 315.90314Q422.18927 316.575 420.98615 316.575Q419.79865 316.575 419.03302 315.91876Q418.28302 315.2625 418.28302 314.2L419.37677 314.2Q419.37677 314.8719 419.81427 315.27814Q420.25177 315.6844 421.00177 315.6844Q421.78302 315.6844 422.18927 315.27814Q422.61115 314.85626 422.61115 314.09064Q422.61115 313.35626 422.15802 312.96564Q421.7049 312.5594 420.8299 312.54376L420.0174 312.54376L420.0174 311.65314Z" fill-rule="nonzero"/><path fill="#757575" d="M452.38257 314.0125L451.2107 314.52814L451.2107 316.45L450.7107 316.45L450.7107 314.7625L448.60132 315.7L448.60132 317.6844L448.10132 317.6844L448.10132 315.9344L446.92944 316.45L446.92944 315.46564L448.10132 314.95L448.10132 312.04376L446.92944 312.575L446.92944 311.59064L448.10132 311.0594L448.10132 309.15314L448.60132 309.15314L448.60132 310.84064L450.7107 309.90314L450.7107 307.85626L451.2107 307.85626L451.2107 309.66876L452.38257 309.15314L452.38257 310.1375L451.2107 310.65314L451.2107 313.54376L452.38257 313.02814L452.38257 314.0125ZM450.7107 313.77814L450.7107 310.8875L448.60132 311.825L448.60132 314.71564L450.7107 313.77814Z" fill-rule="nonzero"/><path fill="#757575" d="M457.92944 313.59064L459.11694 313.59064L459.11694 314.46564L457.92944 314.46564L457.92944 316.45L456.85132 316.45L456.85132 314.46564L452.9607 314.46564L452.9607 313.825L456.7732 307.91876L457.92944 307.91876L457.92944 313.59064ZM454.19507 313.59064L456.85132 313.59064L456.85132 309.40314L456.7107 309.6375L454.19507 313.59064Z" fill-rule="nonzero"/><path fill="#757575" d="M487.29465 314.0125L486.12277 314.52814L486.12277 316.45L485.62277 316.45L485.62277 314.7625L483.5134 315.7L483.5134 317.6844L483.0134 317.6844L483.0134 315.9344L481.84152 316.45L481.84152 315.46564L483.0134 314.95L483.0134 312.04376L481.84152 312.575L481.84152 311.59064L483.0134 311.0594L483.0134 309.15314L483.5134 309.15314L483.5134 310.84064L485.62277 309.90314L485.62277 307.85626L486.12277 307.85626L486.12277 309.66876L487.29465 309.15314L487.29465 310.1375L486.12277 310.65314L486.12277 313.54376L487.29465 313.02814L487.29465 314.0125ZM485.62277 313.77814L485.62277 310.8875L483.5134 311.825L483.5134 314.71564L485.62277 313.77814Z" fill-rule="nonzero"/><path fill="#757575" d="M488.7634 312.16876L489.2009 307.91876L493.5759 307.91876L493.5759 308.91876L490.12277 308.91876L489.85715 311.2469Q490.49777 310.8719 491.29465 310.8719Q492.4509 310.8719 493.1384 311.65314Q493.8259 312.41876 493.8259 313.73126Q493.8259 315.04376 493.10715 315.8094Q492.40402 316.575 491.12277 316.575Q489.99777 316.575 489.27902 315.95Q488.56027 315.3094 488.46652 314.2L489.48215 314.2Q489.59152 314.9344 490.0134 315.3094Q490.43527 315.6844 491.12277 315.6844Q491.87277 315.6844 492.31027 315.16876Q492.74777 314.65314 492.74777 313.7469Q492.74777 312.8875 492.27902 312.3719Q491.81027 311.85626 491.02902 311.85626Q490.3259 311.85626 489.91965 312.15314L489.6384 312.3875L488.7634 312.16876Z" fill-rule="nonzero"/><path fill="#757575" d="M522.20667 314.0125L521.0348 314.52814L521.0348 316.45L520.5348 316.45L520.5348 314.7625L518.4254 315.7L518.4254 317.6844L517.9254 317.6844L517.9254 315.9344L516.75354 316.45L516.75354 315.46564L517.9254 314.95L517.9254 312.04376L516.75354 312.575L516.75354 311.59064L517.9254 311.0594L517.9254 309.15314L518.4254 309.15314L518.4254 310.84064L520.5348 309.90314L520.5348 307.85626L521.0348 307.85626L521.0348 309.66876L522.20667 309.15314L522.20667 310.1375L521.0348 310.65314L521.0348 313.54376L522.20667 313.02814L522.20667 314.0125ZM520.5348 313.77814L520.5348 310.8875L518.4254 311.825L518.4254 314.71564L520.5348 313.77814Z" fill-rule="nonzero"/><path fill="#757575" d="M527.44104 307.91876L527.44104 308.825L527.2379 308.825Q525.9723 308.85626 525.2223 309.59064Q524.4723 310.3094 524.3473 311.6219Q525.0348 310.85626 526.19104 310.85626Q527.3004 310.85626 527.9723 311.6375Q528.64417 312.41876 528.64417 313.66876Q528.64417 314.98126 527.9254 315.77814Q527.20667 316.575 525.9879 316.575Q524.76917 316.575 524.00354 315.6375Q523.25354 314.6844 523.25354 313.2L523.25354 312.79376Q523.25354 310.4344 524.25354 309.1844Q525.25354 307.9344 527.2379 307.91876L527.44104 307.91876ZM526.01917 311.7625Q525.45667 311.7625 524.9879 312.09064Q524.51917 312.41876 524.33167 312.9344L524.33167 313.325Q524.33167 314.3875 524.8004 315.02814Q525.2848 315.66876 525.9879 315.66876Q526.7223 315.66876 527.14417 315.1375Q527.56604 314.59064 527.56604 313.71564Q527.56604 312.84064 527.14417 312.3094Q526.7223 311.7625 526.01917 311.7625Z" fill-rule="nonzero"/><path fill="#757575" d="M557.1187 314.0125L555.94684 314.52814L555.94684 316.45L555.44684 316.45L555.44684 314.7625L553.33746 315.7L553.33746 317.6844L552.83746 317.6844L552.83746 315.9344L551.6656 316.45L551.6656 315.46564L552.83746 314.95L552.83746 312.04376L551.6656 312.575L551.6656 311.59064L552.83746 311.0594L552.83746 309.15314L553.33746 309.15314L553.33746 310.84064L555.44684 309.90314L555.44684 307.85626L555.94684 307.85626L555.94684 309.66876L557.1187 309.15314L557.1187 310.1375L555.94684 310.65314L555.94684 313.54376L557.1187 313.02814L557.1187 314.0125ZM555.44684 313.77814L555.44684 310.8875L553.33746 311.825L553.33746 314.71564L555.44684 313.77814Z" fill-rule="nonzero"/><path fill="#757575" d="M563.6031 308.52814L560.07184 316.45L558.9312 316.45L562.44684 308.8094L557.83746 308.8094L557.83746 307.91876L563.6031 307.91876L563.6031 308.52814Z" fill-rule="nonzero"/><path fill="#757575" d="M28.2375 23.409374Q25.971874 26.6125 23.784374 28.096874L33.628124 28.096874Q31.05 26.690624 28.2375 23.409374ZM23.08125 28.565624Q21.9875 29.190624 20.503124 29.971874L19.721874 28.33125Q25.034374 26.065624 27.534374 21.221874L29.253124 21.45625Q29.878124 21.690624 29.175 21.846874L29.01875 22.08125Q32.534374 26.378124 37.378124 27.8625L36.596874 29.58125Q35.659374 29.26875 33.940624 28.253124L33.940624 29.58125L29.33125 29.58125L29.33125 32.2375L34.409374 32.2375L34.409374 33.721874L29.33125 33.721874L29.33125 36.76875L36.51875 36.76875L36.51875 38.253124L20.58125 38.253124L20.58125 36.76875L27.76875 36.76875L27.76875 33.721874L22.690624 33.721874L22.690624 32.2375L27.76875 32.2375L27.76875 29.58125L23.08125 29.58125L23.08125 28.565624ZM55.425 25.284374Q52.690624 25.284374 51.128124 25.83125Q49.409374 26.45625 47.925 27.940624Q46.440624 29.425 46.440624 31.76875Q46.440624 33.64375 47.6125 34.815624Q49.175 36.378124 53.628124 36.534374L53.003124 38.253124Q48.39375 38.01875 46.596874 36.221874Q44.8 34.425 44.8 31.846874Q44.8 28.175 47.690624 26.065624Q44.01875 26.6125 40.190624 27.159374L39.721874 25.3625Q47.378124 24.815624 55.1125 23.4875L55.425 25.284374ZM67.33125 26.534374Q66.00313 34.346874 64.12813 36.221874Q63.1125 37.2375 62.01875 37.2375Q60.76875 37.2375 60.065624 36.534374Q58.190624 34.659374 58.190624 31.846874Q58.190624 28.409374 60.6125 25.9875Q63.26875 23.33125 67.09688 23.33125Q70.53438 23.33125 72.4875 25.284374Q74.675 27.471874 74.675 30.440624Q74.675 33.64375 72.64375 35.675Q71.31563 37.003124 68.58125 38.253124L66.94063 36.6125Q69.675 35.753124 71.2375 34.190624Q72.72188 32.70625 72.72188 30.596874Q72.72188 28.096874 71.08125 26.45625Q69.44063 24.815624 65.925 24.971874L67.33125 25.675Q68.26875 26.065624 67.33125 26.534374ZM65.53438 25.05Q63.503124 25.51875 62.01875 27.003124Q59.9875 29.034374 59.9875 32.003124Q59.9875 33.8 61.159374 34.971874Q61.39375 35.20625 61.8625 35.20625Q62.33125 35.20625 62.878124 34.659374Q64.675 32.8625 65.53438 25.05ZM90.45625 36.76875L90.45625 34.89375L82.56563 34.89375L82.56563 36.76875L90.45625 36.76875ZM84.675 27.471874L88.34688 27.471874L89.3625 24.58125L83.58125 24.58125L84.675 27.471874ZM95.3 27.471874L95.3 28.95625L77.56563 28.95625L77.56563 27.471874L83.1125 27.471874L81.8625 24.58125L79.3625 24.58125L79.3625 23.096874L85.69063 23.096874L85.69063 21.221874L87.175 21.221874Q87.8 21.3 87.25313 21.690624L87.25313 23.096874L93.65938 23.096874L93.65938 24.58125L91.15938 24.58125L89.83125 27.471874L95.3 27.471874ZM90.45625 33.409374L90.45625 31.76875L82.56563 31.76875L82.56563 33.409374L90.45625 33.409374ZM92.01875 38.878124L90.45625 38.878124L90.45625 38.253124L82.56563 38.253124L82.56563 39.26875L81.00313 39.26875L81.00313 30.284374L92.01875 30.284374L92.01875 38.878124ZM106.55 23.4875L109.83125 23.4875L109.83125 30.83125L108.50313 30.83125L108.50313 30.51875L107.33125 30.51875L107.33125 32.003124L114.9875 32.003124L114.9875 33.4875L108.19063 33.4875Q111.39375 36.065624 115.45625 36.6125L114.9875 38.409374Q109.75313 37.159374 107.33125 34.346874L107.33125 39.190624L105.76875 39.190624L105.76875 34.815624Q103.03438 37.315624 98.425 38.721874L97.72188 37.003124Q102.09688 36.065624 105.22188 33.4875L98.1125 33.4875L98.1125 32.003124L105.76875 32.003124L105.76875 30.51875L104.59688 30.51875L104.59688 30.9875L103.26875 30.9875L103.26875 23.4875L105.3 23.4875L105.76875 21.378124L107.4875 21.690624Q107.8 21.76875 107.25313 22.159374L106.55 23.4875ZM114.05 23.878124Q113.1125 24.7375 111.55 26.065624L110.3 24.971874Q111.94063 23.565624 113.03438 22.39375L114.44063 23.64375Q114.51875 24.034374 114.05 23.878124ZM104.59688 29.26875L108.50313 29.26875L108.50313 27.628124L104.59688 27.628124L104.59688 29.26875ZM104.59688 24.7375L104.59688 26.378124L108.50313 26.378124L108.50313 24.7375L104.59688 24.7375ZM113.81563 30.440624Q112.09688 28.95625 110.3 27.940624L111.31563 26.6125Q112.87813 27.315624 114.9875 28.95625L113.81563 30.440624ZM99.44063 30.753124Q99.3625 31.221874 99.05 30.909374L98.1125 29.346874Q100.14375 28.33125 101.8625 26.76875L102.72188 28.096874Q101.62813 29.190624 99.44063 30.753124ZM101.47188 26.14375Q100.14375 25.20625 98.81563 24.425L99.75313 23.01875Q101.39375 23.8 102.4875 24.503124L101.47188 26.14375ZM127.33125 26.534374Q126.00313 34.346874 124.12813 36.221874Q123.1125 37.2375 122.01875 37.2375Q120.76875 37.2375 120.06563 36.534374Q118.19063 34.659374 118.19063 31.846874Q118.19063 28.409374 120.6125 25.9875Q123.26875 23.33125 127.09688 23.33125Q130.53438 23.33125 132.4875 25.284374Q134.675 27.471874 134.675 30.440624Q134.675 33.64375 132.64375 35.675Q131.31563 37.003124 128.58125 38.253124L126.94063 36.6125Q129.675 35.753124 131.2375 34.190624Q132.72188 32.70625 132.72188 30.596874Q132.72188 28.096874 131.08125 26.45625Q129.44063 24.815624 125.925 24.971874L127.33125 25.675Q128.26875 26.065624 127.33125 26.534374ZM125.53438 25.05Q123.50313 25.51875 122.01875 27.003124Q119.9875 29.034374 119.9875 32.003124Q119.9875 33.8 121.15938 34.971874Q121.39375 35.20625 121.8625 35.20625Q122.33125 35.20625 122.87813 34.659374Q124.675 32.8625 125.53438 25.05ZM142.40938 38.95625L142.40938 38.409374L139.675 38.409374L139.675 39.26875L138.34688 39.26875L138.34688 32.8625L143.7375 32.8625L143.7375 38.95625L142.40938 38.95625ZM145.76875 22.003124L154.75313 22.003124L154.75313 38.096874Q154.75313 39.190624 153.81563 39.190624L151.94063 39.190624L151.62813 37.70625L153.1125 37.70625Q153.425 37.70625 153.425 37.39375L153.425 23.4875L147.09688 23.4875L147.09688 32.39375Q147.09688 36.45625 145.06563 39.190624L143.89375 37.940624Q145.76875 35.3625 145.76875 31.690624L145.76875 22.003124ZM151.00313 28.721874L152.64375 28.721874L152.64375 29.971874L147.95625 29.971874L147.95625 28.721874L149.675 28.721874L149.675 26.846874L147.95625 26.846874L147.95625 25.596874L149.675 25.596874L149.675 24.034374L150.925 24.034374Q151.55 24.1125 151.00313 24.503124L151.00313 25.596874L152.72188 25.596874L152.72188 26.846874L151.00313 26.846874L151.00313 28.721874ZM139.675 37.159374L142.40938 37.159374L142.40938 34.1125L139.675 34.1125L139.675 37.159374ZM138.58125 30.128124L143.7375 30.128124L143.7375 31.6125L138.58125 31.6125L138.58125 30.128124ZM138.58125 21.925L143.7375 21.925L143.7375 23.409374L138.58125 23.409374L138.58125 21.925ZM144.75313 24.659374L144.75313 26.14375L137.64375 26.14375L137.64375 24.659374L144.75313 24.659374ZM138.58125 28.878124L138.58125 27.39375L143.7375 27.39375L143.7375 28.878124L138.58125 28.878124ZM149.44063 37.315624L148.1125 37.315624L148.1125 31.378124L152.25313 31.378124L152.25313 36.221874L149.44063 36.221874L149.44063 37.315624ZM149.44063 32.628124L149.44063 34.971874L150.925 34.971874L150.925 32.628124L149.44063 32.628124ZM160.45625 34.971874Q161.78438 32.628124 162.40938 30.675L157.40938 30.675L157.40938 29.190624L175.45625 29.190624L175.45625 30.675L164.20625 30.675Q163.89375 31.6125 163.58125 32.315624L172.87813 32.315624Q172.25313 37.003124 171.15938 38.4875Q170.53438 39.26875 168.81563 39.1125L166.70625 38.878124L166.62813 37.159374L169.05 37.39375Q169.83125 37.471874 170.22188 36.6125Q170.37813 36.221874 170.925 33.8L163.1125 33.8Q162.8 34.58125 162.25313 35.51875L160.45625 34.971874ZM162.25313 23.409374L162.25313 25.9875L170.6125 25.9875L170.6125 23.409374L162.25313 23.409374ZM170.6125 28.01875L170.6125 27.471874L162.25313 27.471874L162.25313 28.175L160.69063 28.175L160.69063 21.925L172.175 21.925L172.175 28.01875L170.6125 28.01875Z" fill-rule="nonzero"/><path fill="#757575" d="M191.05 33.83125L185.09688 33.83125L183.75313 37.55L181.83125 37.55L187.25313 23.33125L188.89375 23.33125L194.33125 37.55L192.40938 37.55L191.05 33.83125ZM185.65938 32.3L190.50313 32.3L188.08125 25.64375L185.65938 32.3ZM197.87813 37.55L196.08125 37.55L196.08125 22.55L197.87813 22.55L197.87813 37.55ZM202.87813 37.55L201.08125 37.55L201.08125 22.55L202.87813 22.55L202.87813 37.55ZM212.6125 26.9875L212.65938 28.159374Q213.83125 26.784374 215.8 26.784374Q218.01875 26.784374 218.81563 28.4875Q219.34688 27.721874 220.19063 27.253124Q221.03438 26.784374 222.19063 26.784374Q225.65938 26.784374 225.72188 30.471874L225.72188 37.55L223.90938 37.55L223.90938 30.58125Q223.90938 29.440624 223.39375 28.878124Q222.87813 28.315624 221.65938 28.315624Q220.65938 28.315624 219.9875 28.925Q219.33125 29.51875 219.22188 30.534374L219.22188 37.55L217.40938 37.55L217.40938 30.628124Q217.40938 28.315624 215.14375 28.315624Q213.3625 28.315624 212.72188 29.83125L212.72188 37.55L210.90938 37.55L210.90938 26.9875L212.6125 26.9875ZM235.44063 36.503124Q234.39375 37.753124 232.34688 37.753124Q230.65938 37.753124 229.76875 36.76875Q228.89375 35.784374 228.87813 33.8625L228.87813 26.9875L230.69063 26.9875L230.69063 33.815624Q230.69063 36.20625 232.64375 36.20625Q234.70625 36.20625 235.39375 34.675L235.39375 26.9875L237.20625 26.9875L237.20625 37.55L235.4875 37.55L235.44063 36.503124ZM246.06563 34.753124Q246.06563 34.01875 245.51875 33.6125Q244.97188 33.20625 243.59688 32.909374Q242.22188 32.6125 241.40938 32.20625Q240.6125 31.8 240.22188 31.2375Q239.84688 30.659374 239.84688 29.878124Q239.84688 28.58125 240.94063 27.690624Q242.03438 26.784374 243.75313 26.784374Q245.55 26.784374 246.65938 27.721874Q247.78438 28.64375 247.78438 30.08125L245.95625 30.08125Q245.95625 29.346874 245.33125 28.815624Q244.70625 28.26875 243.75313 28.26875Q242.75313 28.26875 242.19063 28.70625Q241.64375 29.128124 241.64375 29.83125Q241.64375 30.471874 242.15938 30.815624Q242.675 31.14375 244.03438 31.45625Q245.39375 31.753124 246.22188 32.175Q247.06563 32.58125 247.47188 33.175Q247.87813 33.76875 247.87813 34.6125Q247.87813 36.034374 246.7375 36.89375Q245.6125 37.753124 243.8 37.753124Q242.53438 37.753124 241.55 37.3Q240.58125 36.846874 240.01875 36.05Q239.47188 35.2375 239.47188 34.3L241.28438 34.3Q241.33125 35.20625 242.00313 35.7375Q242.69063 36.26875 243.8 36.26875Q244.83125 36.26875 245.44063 35.8625Q246.06563 35.440624 246.06563 34.753124ZM251.87813 37.55L250.08125 37.55L250.08125 26.9875L251.87813 26.9875L251.87813 37.55ZM249.925 24.175Q249.925 23.7375 250.19063 23.440624Q250.47188 23.128124 250.9875 23.128124Q251.51875 23.128124 251.78438 23.440624Q252.06563 23.7375 252.06563 24.175Q252.06563 24.6125 251.78438 24.909374Q251.51875 25.20625 250.9875 25.20625Q250.47188 25.20625 250.19063 24.909374Q249.925 24.6125 249.925 24.175ZM259.15936 36.26875Q260.1281 36.26875 260.84686 35.690624Q261.5656 35.096874 261.64374 34.221874L263.3625 34.221874Q263.3 35.128124 262.72186 35.95625Q262.15936 36.76875 261.1906 37.26875Q260.2375 37.753124 259.15936 37.753124Q257.0031 37.753124 255.72188 36.315624Q254.45625 34.8625 254.45625 32.3625L254.45625 32.065624Q254.45625 30.51875 255.01875 29.315624Q255.58125 28.1125 256.64374 27.45625Q257.70624 26.784374 259.14374 26.784374Q260.925 26.784374 262.09686 27.846874Q263.28436 28.909374 263.3625 30.6125L261.64374 30.6125Q261.5656 29.596874 260.8625 28.940624Q260.175 28.26875 259.14374 28.26875Q257.76874 28.26875 257.0031 29.26875Q256.2531 30.253124 256.2531 32.128124L256.2531 32.471874Q256.2531 34.3 257.0031 35.284374Q257.7531 36.26875 259.15936 36.26875ZM272.8625 32.659374L271.7375 33.83125L271.7375 37.55L269.925 37.55L269.925 22.55L271.7375 22.55L271.7375 31.628124L272.70624 30.45625L275.9875 26.9875L278.1906 26.9875L274.08124 31.39375L278.675 37.55L276.55 37.55L272.8625 32.659374ZM284.3 37.753124Q282.15936 37.753124 280.8 36.346874Q279.45624 34.925 279.45624 32.565624L279.45624 32.221874Q279.45624 30.659374 280.05 29.425Q280.65936 28.190624 281.7375 27.4875Q282.8156 26.784374 284.08124 26.784374Q286.14374 26.784374 287.28436 28.14375Q288.425 29.503124 288.425 32.034374L288.425 32.784374L281.26874 32.784374Q281.3 34.346874 282.175 35.315624Q283.05 36.26875 284.39374 36.26875Q285.3625 36.26875 286.01874 35.878124Q286.6906 35.4875 287.1906 34.846874L288.28436 35.70625Q286.95624 37.753124 284.3 37.753124ZM284.08124 28.26875Q282.9875 28.26875 282.2375 29.065624Q281.5031 29.8625 281.33124 31.3L286.6125 31.3L286.6125 31.159374Q286.53436 29.784374 285.8625 29.034374Q285.20624 28.26875 284.08124 28.26875ZM294.3781 34.909374L296.83124 26.9875L298.76874 26.9875L294.51874 39.175Q293.53436 41.815624 291.39374 41.815624L291.05 41.784374L290.3781 41.659374L290.3781 40.190624L290.8625 40.2375Q291.78436 40.2375 292.28436 39.8625Q292.8 39.4875 293.1281 38.503124L293.53436 37.425L289.76874 26.9875L291.7375 26.9875L294.3781 34.909374ZM311.0656 34.753124Q311.0656 34.01875 310.51874 33.6125Q309.97186 33.20625 308.59686 32.909374Q307.22186 32.6125 306.40936 32.20625Q305.6125 31.8 305.22186 31.2375Q304.84686 30.659374 304.84686 29.878124Q304.84686 28.58125 305.9406 27.690624Q307.03436 26.784374 308.7531 26.784374Q310.55 26.784374 311.65936 27.721874Q312.78436 28.64375 312.78436 30.08125L310.95624 30.08125Q310.95624 29.346874 310.33124 28.815624Q309.70624 28.26875 308.7531 28.26875Q307.7531 28.26875 307.1906 28.70625Q306.64374 29.128124 306.64374 29.83125Q306.64374 30.471874 307.15936 30.815624Q307.675 31.14375 309.03436 31.45625Q310.39374 31.753124 311.22186 32.175Q312.0656 32.58125 312.47186 33.175Q312.8781 33.76875 312.8781 34.6125Q312.8781 36.034374 311.7375 36.89375Q310.6125 37.753124 308.8 37.753124Q307.53436 37.753124 306.55 37.3Q305.58124 36.846874 305.01874 36.05Q304.47186 35.2375 304.47186 34.3L306.28436 34.3Q306.33124 35.20625 307.0031 35.7375Q307.6906 36.26875 308.8 36.26875Q309.83124 36.26875 310.4406 35.8625Q311.0656 35.440624 311.0656 34.753124ZM316.8781 37.55L315.08124 37.55L315.08124 26.9875L316.8781 26.9875L316.8781 37.55ZM314.925 24.175Q314.925 23.7375 315.1906 23.440624Q315.47186 23.128124 315.9875 23.128124Q316.51874 23.128124 316.78436 23.440624Q317.0656 23.7375 317.0656 24.175Q317.0656 24.6125 316.78436 24.909374Q316.51874 25.20625 315.9875 25.20625Q315.47186 25.20625 315.1906 24.909374Q314.925 24.6125 314.925 24.175ZM319.4875 32.175Q319.4875 29.70625 320.6281 28.253124Q321.76874 26.784374 323.65936 26.784374Q325.59686 26.784374 326.675 28.159374L326.76874 26.9875L328.40936 26.9875L328.40936 37.3Q328.40936 39.346874 327.1906 40.51875Q325.9875 41.70625 323.925 41.70625Q322.78436 41.70625 321.6906 41.221874Q320.59686 40.7375 320.01874 39.878124L320.95624 38.8Q322.1281 40.2375 323.8 40.2375Q325.1281 40.2375 325.8625 39.4875Q326.59686 38.753124 326.59686 37.409374L326.59686 36.4875Q325.51874 37.753124 323.64374 37.753124Q321.78436 37.753124 320.6281 36.253124Q319.4875 34.753124 319.4875 32.175ZM321.3 32.378124Q321.3 34.175 322.03436 35.190624Q322.76874 36.20625 324.08124 36.20625Q325.8 36.20625 326.59686 34.659374L326.59686 29.83125Q325.76874 28.315624 324.1125 28.315624Q322.78436 28.315624 322.03436 29.346874Q321.3 30.378124 321.3 32.378124ZM332.6281 26.9875L332.6906 28.315624Q333.89374 26.784374 335.84686 26.784374Q339.20624 26.784374 339.22186 30.565624L339.22186 37.55L337.425 37.55L337.425 30.55Q337.40936 29.409374 336.89374 28.8625Q336.39374 28.315624 335.3 28.315624Q334.425 28.315624 333.7531 28.784374Q333.09686 29.253124 332.72186 30.01875L332.72186 37.55L330.925 37.55L330.925 26.9875L332.6281 26.9875ZM348.4406 37.55Q348.28436 37.2375 348.1906 36.440624Q346.925 37.753124 345.175 37.753124Q343.6125 37.753124 342.6125 36.8625Q341.6125 35.971874 341.6125 34.6125Q341.6125 32.971874 342.8625 32.065624Q344.1281 31.14375 346.39374 31.14375L348.15936 31.14375L348.15936 30.315624Q348.15936 29.3625 347.58124 28.8Q347.01874 28.2375 345.925 28.2375Q344.95624 28.2375 344.3 28.7375Q343.64374 29.221874 343.64374 29.909374L341.83124 29.909374Q341.83124 29.128124 342.39374 28.39375Q342.95624 27.64375 343.90936 27.221874Q344.8781 26.784374 346.03436 26.784374Q347.8625 26.784374 348.89374 27.70625Q349.925 28.6125 349.97186 30.221874L349.97186 35.08125Q349.97186 36.534374 350.33124 37.39375L350.33124 37.55L348.4406 37.55ZM345.4406 36.175Q346.3 36.175 347.05 35.7375Q347.8156 35.3 348.15936 34.596874L348.15936 32.425L346.7375 32.425Q343.425 32.425 343.425 34.3625Q343.425 35.221874 343.9875 35.70625Q344.55 36.175 345.4406 36.175ZM355.3625 24.425L355.3625 26.9875L357.34686 26.9875L357.34686 28.378124L355.3625 28.378124L355.3625 34.925Q355.3625 35.565624 355.6281 35.89375Q355.89374 36.20625 356.53436 36.20625Q356.84686 36.20625 357.39374 36.08125L357.39374 37.55Q356.675 37.753124 356.0031 37.753124Q354.8 37.753124 354.175 37.01875Q353.5656 36.284374 353.5656 34.925L353.5656 28.378124L351.64374 28.378124L351.64374 26.9875L353.5656 26.9875L353.5656 24.425L355.3625 24.425ZM366.4406 36.503124Q365.39374 37.753124 363.34686 37.753124Q361.65936 37.753124 360.76874 36.76875Q359.89374 35.784374 359.8781 33.8625L359.8781 26.9875L361.6906 26.9875L361.6906 33.815624Q361.6906 36.20625 363.64374 36.20625Q365.70624 36.20625 366.39374 34.675L366.39374 26.9875L368.20624 26.9875L368.20624 37.55L366.4875 37.55L366.4406 36.503124ZM376.01874 28.596874Q375.6125 28.534374 375.14374 28.534374Q373.3625 28.534374 372.72186 30.05L372.72186 37.55L370.925 37.55L370.925 26.9875L372.675 26.9875L372.70624 28.20625Q373.59686 26.784374 375.22186 26.784374Q375.7531 26.784374 376.01874 26.925L376.01874 28.596874ZM382.3 37.753124Q380.15936 37.753124 378.8 36.346874Q377.45624 34.925 377.45624 32.565624L377.45624 32.221874Q377.45624 30.659374 378.05 29.425Q378.65936 28.190624 379.7375 27.4875Q380.8156 26.784374 382.08124 26.784374Q384.14374 26.784374 385.28436 28.14375Q386.425 29.503124 386.425 32.034374L386.425 32.784374L379.26874 32.784374Q379.3 34.346874 380.175 35.315624Q381.05 36.26875 382.39374 36.26875Q383.3625 36.26875 384.01874 35.878124Q384.6906 35.4875 385.1906 34.846874L386.28436 35.70625Q384.95624 37.753124 382.3 37.753124ZM382.08124 28.26875Q380.9875 28.26875 380.2375 29.065624Q379.5031 29.8625 379.33124 31.3L384.6125 31.3L384.6125 31.159374Q384.53436 29.784374 383.8625 29.034374Q383.20624 28.26875 382.08124 28.26875ZM395.0656 34.753124Q395.0656 34.01875 394.51874 33.6125Q393.97186 33.20625 392.59686 32.909374Q391.22186 32.6125 390.40936 32.20625Q389.6125 31.8 389.22186 31.2375Q388.84686 30.659374 388.84686 29.878124Q388.84686 28.58125 389.9406 27.690624Q391.03436 26.784374 392.7531 26.784374Q394.55 26.784374 395.65936 27.721874Q396.78436 28.64375 396.78436 30.08125L394.95624 30.08125Q394.95624 29.346874 394.33124 28.815624Q393.70624 28.26875 392.7531 28.26875Q391.7531 28.26875 391.1906 28.70625Q390.64374 29.128124 390.64374 29.83125Q390.64374 30.471874 391.15936 30.815624Q391.675 31.14375 393.03436 31.45625Q394.39374 31.753124 395.22186 32.175Q396.0656 32.58125 396.47186 33.175Q396.8781 33.76875 396.8781 34.6125Q396.8781 36.034374 395.7375 36.89375Q394.6125 37.753124 392.8 37.753124Q391.53436 37.753124 390.55 37.3Q389.58124 36.846874 389.01874 36.05Q388.47186 35.2375 388.47186 34.3L390.28436 34.3Q390.33124 35.20625 391.0031 35.7375Q391.6906 36.26875 392.8 36.26875Q393.83124 36.26875 394.4406 35.8625Q395.0656 35.440624 395.0656 34.753124Z" fill-rule="nonzero"/></svg>