<svg version="1.1" viewBox="0.0 0.0 600.0 371.0" fill="none" stroke="none" stroke-linecap="square" stroke-miterlimit="10" width="600" height="371" xmlns:xlink="http://www.w3.org/1999/xlink" xmlns="http://www.w3.org/2000/svg"><path fill="#ffffff" d="M0 0L600.0 0L600.0 371.0L0 371.0L0 0Z" fill-rule="nonzero"/><path fill="#db4437" d="M300.0 54.916668C310.75452 54.916668 321.47736 56.082844 331.98044 58.39475L315.9902 131.03905C310.73868 129.88309 305.37726 129.3 300.0 129.3Z" fill-rule="nonzero"/><path fill="#f4b400" d="M331.98044 58.39475C353.04855 63.032192 372.85605 72.19612 390.02975 85.25122L345.01486 144.46727C336.42804 137.93973 326.52426 133.35776 315.9902 131.03905Z" fill-rule="nonzero"/><path fill="#0f9d58" d="M390.02975 85.25122C402.8879 95.025734 414.06848 106.82893 423.13254 120.1974L361.56625 161.94037C357.03424 155.25613 351.44394 149.35454 345.01486 144.46727Z" fill-rule="nonzero"/><path fill="#ff6d00" d="M423.13254 120.1974C429.16785 129.0988 434.22012 138.6284 438.20078 148.61911L369.10037 176.15123C367.11005 171.15587 364.58392 166.39107 361.56625 161.94037Z" fill-rule="nonzero"/><path fill="#46bdc6" d="M438.20078 148.61911C446.18558 168.65944 449.7164 190.19656 448.5485 211.7374L374.27423 207.71037C374.8582 196.93996 373.09277 186.17139 369.10037 176.15123Z" fill-rule="nonzero"/><path fill="#ab30c4" d="M448.5485 211.7374C446.4879 249.74268 429.93893 285.51266 402.30676 311.68726L351.15338 257.6853C364.96948 244.598 373.24396 226.713 374.27423 207.71037Z" fill-rule="nonzero"/><path fill="#f4b400" d="M268.01956 58.39475C278.52264 56.082844 289.24548 54.916668 300.0 54.916668L300.0 129.3C294.62274 129.3 289.26132 129.88309 284.0098 131.03905Z" fill-rule="nonzero"/><path fill="#c2185b" d="M252.49858 62.70413C257.5906 60.988422 262.77188 59.549854 268.01956 58.39475L284.0098 131.03905C281.38593 131.6166 278.79532 132.33588 276.2493 133.19373Z" fill-rule="nonzero"/><path fill="#00695c" d="M209.97025 85.25122C222.8284 75.47671 237.19249 67.86135 252.49858 62.70413L276.2493 133.19373C268.59625 135.77234 261.41418 139.58002 254.98512 144.46727Z" fill-rule="nonzero"/><path fill="#f975a8" d="M153.19312 179.61557C159.35071 142.05588 179.67007 108.28481 209.97025 85.25122L254.98512 144.46727C239.83504 155.98407 229.67535 172.8696 226.59656 191.64944Z" fill-rule="nonzero"/><path fill="#3949ab" d="M237.5345 338.70032C176.8778 310.63754 142.3806 245.5689 153.19312 179.61557L226.59656 191.64944C221.1903 224.62611 238.4389 257.16043 268.76724 271.19183Z" fill-rule="nonzero"/><path fill="#c1bc1f" d="M402.30676 311.68726C358.09033 353.5713 292.80997 364.27347 237.5345 338.70032L268.76724 271.19183C296.405 283.9784 329.04517 278.62732 351.15338 257.6853Z" fill-rule="nonzero"/><path fill="#ffffff" d="M316.59885 86.30481L310.08322 86.30481L310.08322 85.39856L313.52072 81.570435Q314.28635 80.695435 314.58322 80.164185Q314.8801 79.61731 314.8801 79.02356Q314.8801 78.257935 314.39572 77.757935Q313.92697 77.257935 313.14572 77.257935Q312.20822 77.257935 311.67697 77.789185Q311.16135 78.320435 311.16135 79.289185L309.89572 79.289185Q309.89572 77.914185 310.77072 77.070435Q311.66135 76.21106 313.14572 76.21106Q314.53635 76.21106 315.33322 76.945435Q316.14572 77.664185 316.14572 78.882935Q316.14572 80.351685 314.27072 82.382935L311.61447 85.27356L316.59885 85.27356L316.59885 86.30481Z" fill-rule="nonzero"/><path fill="#000000" d="M352.3253 96.43474L353.7003 96.43474L353.7003 97.46599L352.3253 97.46599L352.3253 99.77849L351.04404 99.77849L351.04404 97.46599L346.5128 97.46599L346.5128 96.71599L350.9659 89.82536L352.3253 89.82536L352.3253 96.43474ZM347.9503 96.43474L351.04404 96.43474L351.04404 91.55974L350.9034 91.82536L347.9503 96.43474Z" fill-rule="nonzero"/><path fill="#ffffff" d="M385.01645 120.79966L385.95395 120.79966Q386.8602 120.784035 387.3602 120.33091Q387.87582 119.877785 387.87582 119.096535Q387.87582 117.346535 386.14145 117.346535Q385.31332 117.346535 384.82895 117.815285Q384.34457 118.284035 384.34457 119.04966L383.07895 119.04966Q383.07895 117.86216 383.93832 117.08091Q384.81332 116.29966 386.14145 116.29966Q387.5477 116.29966 388.34457 117.04966Q389.14145 117.79966 389.14145 119.11216Q389.14145 119.76841 388.71957 120.377785Q388.31332 120.98716 387.57895 121.284035Q388.40707 121.54966 388.84457 122.159035Q389.2977 122.752785 389.2977 123.61216Q389.2977 124.95591 388.4227 125.752785Q387.5477 126.534035 386.14145 126.534035Q384.75082 126.534035 383.8602 125.784035Q382.9852 125.01841 382.9852 123.76841L384.26645 123.76841Q384.26645 124.54966 384.76645 125.034035Q385.28207 125.502785 386.14145 125.502785Q387.06332 125.502785 387.5477 125.01841Q388.03207 124.534035 388.03207 123.64341Q388.03207 122.784035 387.50082 122.315285Q386.96957 121.846535 385.95395 121.83091L385.01645 121.83091L385.01645 120.79966Z" fill-rule="nonzero"/><path fill="#000000" d="M409.95663 151.66075L403.441 151.66075L403.441 150.7545L406.8785 146.92638Q407.64413 146.05138 407.941 145.52013Q408.23788 144.97325 408.23788 144.3795Q408.23788 143.61388 407.7535 143.11388Q407.28476 142.61388 406.5035 142.61388Q405.566 142.61388 405.03476 143.14513Q404.51913 143.67638 404.51913 144.64513L403.2535 144.64513Q403.2535 143.27013 404.1285 142.42638Q405.01913 141.567 406.5035 141.567Q407.89413 141.567 408.691 142.30138Q409.5035 143.02013 409.5035 144.23888Q409.5035 145.70763 407.6285 147.73888L404.97226 150.6295L409.95663 150.6295L409.95663 151.66075Z" fill-rule="nonzero"/><path fill="#000000" d="M425.52936 184.61615L426.90436 184.61615L426.90436 185.6474L425.52936 185.6474L425.52936 187.9599L424.2481 187.9599L424.2481 185.6474L419.71686 185.6474L419.71686 184.8974L424.16998 178.00677L425.52936 178.00677L425.52936 184.61615ZM421.15436 184.61615L424.2481 184.61615L424.2481 179.74115L424.10748 180.00677L421.15436 184.61615Z" fill-rule="nonzero"/><path fill="#ffffff" d="M413.27014 249.83408L409.14514 259.08408L407.83264 259.08408L411.9264 250.1622L406.5514 250.1622L406.5514 249.13095L413.27014 249.13095L413.27014 249.83408Z" fill-rule="nonzero"/><path fill="#000000" d="M316.52847 327.397L315.26285 327.397L315.26285 318.97513L312.70035 319.897L312.70035 318.75638L316.32535 317.397L316.52847 317.397L316.52847 327.397ZM324.52847 327.397L323.26285 327.397L323.26285 318.97513L320.70035 319.897L320.70035 318.75638L324.32535 317.397L324.52847 317.397L324.52847 327.397Z" fill-rule="nonzero"/><path fill="#ffffff" d="M193.37251 263.11487L192.10689 263.11487L192.10689 254.693L189.54439 255.61487L189.54439 254.47424L193.16939 253.11487L193.37251 253.11487L193.37251 263.11487ZM203.73189 263.11487L197.21626 263.11487L197.21626 262.20862L200.65376 258.3805Q201.41939 257.5055 201.71626 256.97424Q202.01314 256.42737 202.01314 255.83362Q202.01314 255.068 201.52876 254.568Q201.06001 254.068 200.27876 254.068Q199.34126 254.068 198.81001 254.59924Q198.29439 255.1305 198.29439 256.09924L197.02876 256.09924Q197.02876 254.72424 197.90376 253.8805Q198.79439 253.02112 200.27876 253.02112Q201.66939 253.02112 202.46626 253.7555Q203.27876 254.47424 203.27876 255.693Q203.27876 257.16174 201.40376 259.193L198.74751 262.08362L203.73189 262.08362L203.73189 263.11487Z" fill-rule="nonzero"/><path fill="#000000" d="M200.27013 136.9724L196.14513 146.2224L194.83263 146.2224L198.92638 137.30052L193.55138 137.30052L193.55138 136.26927L200.27013 136.26927L200.27013 136.9724Z" fill-rule="nonzero"/><path fill="#ffffff" d="M242.85596 97.309586L243.79346 97.309586Q244.6997 97.29396 245.1997 96.840836Q245.71533 96.38771 245.71533 95.60646Q245.71533 93.85646 243.98096 93.85646Q243.15283 93.85646 242.66846 94.32521Q242.18408 94.79396 242.18408 95.559586L240.91846 95.559586Q240.91846 94.372086 241.77783 93.590836Q242.65283 92.809586 243.98096 92.809586Q245.3872 92.809586 246.18408 93.559586Q246.98096 94.309586 246.98096 95.622086Q246.98096 96.278336 246.55908 96.88771Q246.15283 97.497086 245.41846 97.79396Q246.24658 98.059586 246.68408 98.66896Q247.1372 99.26271 247.1372 100.122086Q247.1372 101.465836 246.2622 102.26271Q245.3872 103.04396 243.98096 103.04396Q242.59033 103.04396 241.6997 102.29396Q240.8247 101.528336 240.8247 100.278336L242.10596 100.278336Q242.10596 101.059586 242.60596 101.54396Q243.12158 102.01271 243.98096 102.01271Q244.90283 102.01271 245.3872 101.528336Q245.87158 101.04396 245.87158 100.153336Q245.87158 99.29396 245.34033 98.82521Q244.80908 98.35646 243.79346 98.340836L242.85596 98.340836L242.85596 97.309586Z" fill-rule="nonzero"/><path fill="#ffffff" d="M268.69034 91.870766L267.4247 91.870766L267.4247 83.44889L264.8622 84.370766L264.8622 83.23014L268.4872 81.870766L268.69034 81.870766L268.69034 91.870766Z" fill-rule="nonzero"/><path fill="#000000" d="M290.08865 86.30481L283.57303 86.30481L283.57303 85.39856L287.01053 81.570435Q287.77615 80.695435 288.07303 80.164185Q288.3699 79.61731 288.3699 79.02356Q288.3699 78.257935 287.88553 77.757935Q287.41678 77.257935 286.63553 77.257935Q285.69803 77.257935 285.16678 77.789185Q284.65115 78.320435 284.65115 79.289185L283.38553 79.289185Q283.38553 77.914185 284.26053 77.070435Q285.15115 76.21106 286.63553 76.21106Q288.02615 76.21106 288.82303 76.945435Q289.63553 77.664185 289.63553 78.882935Q289.63553 80.351685 287.76053 82.382935L285.10428 85.27356L290.08865 85.27356L290.08865 86.30481Z" fill-rule="nonzero"/><path fill="#757575" d="M25.2375 65.072914L23.8625 65.68229L23.8625 67.916664L23.284374 67.916664L23.284374 65.947914L20.83125 67.041664L20.83125 69.354164L20.253124 69.354164L20.253124 67.30729L18.878124 67.916664L18.878124 66.760414L20.253124 66.166664L20.253124 62.77604L18.878124 63.385414L18.878124 62.24479L20.253124 61.635414L20.253124 59.40104L20.83125 59.40104L20.83125 61.36979L23.284374 60.27604L23.284374 57.90104L23.8625 57.90104L23.8625 60.010414L25.2375 59.40104L25.2375 60.541664L23.8625 61.15104L23.8625 64.52604L25.2375 63.916664L25.2375 65.072914ZM23.284374 64.791664L23.284374 61.416664L20.83125 62.510414L20.83125 65.885414L23.284374 64.791664Z" fill-rule="nonzero"/><path fill="#757575" d="M32.8 58.666664L28.675 67.916664L27.3625 67.916664L31.45625 58.99479L26.08125 58.99479L26.08125 57.96354L32.8 57.96354L32.8 58.666664Z" fill-rule="nonzero"/><path fill="#9e9e9e" d="M21.221874 82.322914L22.159374 82.322914Q23.065624 82.30729 23.565624 81.854164Q24.08125 81.40104 24.08125 80.61979Q24.08125 78.86979 22.346874 78.86979Q21.51875 78.86979 21.034374 79.33854Q20.55 79.80729 20.55 80.572914L19.284374 80.572914Q19.284374 79.385414 20.14375 78.604164Q21.01875 77.822914 22.346874 77.822914Q23.753124 77.822914 24.55 78.572914Q25.346874 79.322914 25.346874 80.635414Q25.346874 81.291664 24.925 81.90104Q24.51875 82.510414 23.784374 82.80729Q24.6125 83.072914 25.05 83.68229Q25.503124 84.27604 25.503124 85.135414Q25.503124 86.479164 24.628124 87.27604Q23.753124 88.05729 22.346874 88.05729Q20.95625 88.05729 20.065624 87.30729Q19.190624 86.541664 19.190624 85.291664L20.471874 85.291664Q20.471874 86.072914 20.971874 86.55729Q21.4875 87.02604 22.346874 87.02604Q23.26875 87.02604 23.753124 86.541664Q24.2375 86.05729 24.2375 85.166664Q24.2375 84.30729 23.70625 83.83854Q23.175 83.36979 22.159374 83.354164L21.221874 83.354164L21.221874 82.322914ZM27.534374 87.260414Q27.534374 86.93229 27.721874 86.71354Q27.925 86.49479 28.315624 86.49479Q28.70625 86.49479 28.909374 86.71354Q29.1125 86.93229 29.1125 87.260414Q29.1125 87.572914 28.909374 87.791664Q28.70625 87.99479 28.315624 87.99479Q27.925 87.99479 27.721874 87.791664Q27.534374 87.572914 27.534374 87.260414ZM36.721874 84.572914L38.096874 84.572914L38.096874 85.604164L36.721874 85.604164L36.721874 87.916664L35.440624 87.916664L35.440624 85.604164L30.909374 85.604164L30.909374 84.854164L35.3625 77.96354L36.721874 77.96354L36.721874 84.572914ZM32.346874 84.572914L35.440624 84.572914L35.440624 79.697914L35.3 79.96354L32.346874 84.572914ZM39.26875 79.86979Q39.26875 78.979164 39.83125 78.40104Q40.409374 77.822914 41.3 77.822914Q42.221874 77.822914 42.784374 78.416664Q43.346874 78.99479 43.346874 79.916664L43.346874 80.40104Q43.346874 81.30729 42.76875 81.885414Q42.20625 82.447914 41.315624 82.447914Q40.425 82.447914 39.846874 81.885414Q39.26875 81.30729 39.26875 80.354164L39.26875 79.86979ZM40.20625 80.40104Q40.20625 80.93229 40.503124 81.27604Q40.815624 81.61979 41.315624 81.61979Q41.8 81.61979 42.096874 81.291664Q42.39375 80.96354 42.39375 80.36979L42.39375 79.86979Q42.39375 79.33854 42.096874 78.99479Q41.815624 78.65104 41.3 78.65104Q40.8 78.65104 40.503124 78.99479Q40.20625 79.33854 40.20625 79.90104L40.20625 80.40104ZM44.1125 85.479164Q44.1125 84.572914 44.675 84.010414Q45.253124 83.43229 46.14375 83.43229Q47.05 83.43229 47.6125 84.010414Q48.190624 84.572914 48.190624 85.52604L48.190624 86.010414Q48.190624 86.90104 47.6125 87.479164Q47.05 88.05729 46.159374 88.05729Q45.284374 88.05729 44.690624 87.49479Q44.1125 86.916664 44.1125 85.96354L44.1125 85.479164ZM45.065624 86.010414Q45.065624 86.541664 45.3625 86.90104Q45.659374 87.24479 46.159374 87.24479Q46.659374 87.24479 46.95625 86.90104Q47.253124 86.55729 47.253124 85.979164L47.253124 85.479164Q47.253124 84.93229 46.940624 84.58854Q46.64375 84.24479 46.159374 84.24479Q45.659374 84.24479 45.3625 84.58854Q45.065624 84.93229 45.065624 85.510414L45.065624 86.010414ZM41.6125 87.166664L40.89375 86.71354L45.753124 78.93229L46.471874 79.385414L41.6125 87.166664Z" fill-rule="nonzero"/><path stroke="#757575" stroke-width="1.0" stroke-linecap="butt" d="M18.55 73.416664L145.23334 73.416664L284.71973 63.18347" fill-rule="nonzero"/><path fill="#9e9e9e" d="M286.71973 63.18347C286.71973 62.078903 285.82428 61.18347 284.71973 61.18347C283.61514 61.18347 282.71973 62.078903 282.71973 63.18347C282.71973 64.28804 283.61514 65.18347 284.71973 65.18347C285.82428 65.18347 286.71973 64.28804 286.71973 63.18347" fill-rule="nonzero"/><path fill="#757575" d="M25.2375 102.072914L23.8625 102.68229L23.8625 104.916664L23.284374 104.916664L23.284374 102.947914L20.83125 104.041664L20.83125 106.354164L20.253124 106.354164L20.253124 104.30729L18.878124 104.916664L18.878124 103.760414L20.253124 103.166664L20.253124 99.77604L18.878124 100.385414L18.878124 99.24479L20.253124 98.635414L20.253124 96.40104L20.83125 96.40104L20.83125 98.36979L23.284374 97.27604L23.284374 94.90104L23.8625 94.90104L23.8625 97.010414L25.2375 96.40104L25.2375 97.541664L23.8625 98.15104L23.8625 101.52604L25.2375 100.916664L25.2375 102.072914ZM23.284374 101.791664L23.284374 98.416664L20.83125 99.510414L20.83125 102.885414L23.284374 101.791664Z" fill-rule="nonzero"/><path fill="#757575" d="M28.221874 99.322914L29.159374 99.322914Q30.065624 99.30729 30.565624 98.854164Q31.08125 98.40104 31.08125 97.61979Q31.08125 95.86979 29.346874 95.86979Q28.51875 95.86979 28.034374 96.33854Q27.55 96.80729 27.55 97.572914L26.284374 97.572914Q26.284374 96.385414 27.14375 95.604164Q28.01875 94.822914 29.346874 94.822914Q30.753124 94.822914 31.55 95.572914Q32.346874 96.322914 32.346874 97.635414Q32.346874 98.291664 31.925 98.90104Q31.51875 99.510414 30.784374 99.80729Q31.6125 100.072914 32.05 100.68229Q32.503124 101.27604 32.503124 102.135414Q32.503124 103.479164 31.628124 104.27604Q30.753124 105.05729 29.346874 105.05729Q27.95625 105.05729 27.065624 104.30729Q26.190624 103.541664 26.190624 102.291664L27.471874 102.291664Q27.471874 103.072914 27.971874 103.55729Q28.4875 104.02604 29.346874 104.02604Q30.26875 104.02604 30.753124 103.541664Q31.2375 103.05729 31.2375 102.166664Q31.2375 101.30729 30.70625 100.83854Q30.175 100.36979 29.159374 100.354164L28.221874 100.354164L28.221874 99.322914Z" fill-rule="nonzero"/><path fill="#9e9e9e" d="M19.95625 119.93229L20.471874 114.96354L25.565624 114.96354L25.565624 116.135414L21.534374 116.135414L21.2375 118.83854Q21.971874 118.416664 22.89375 118.416664Q24.253124 118.416664 25.05 119.322914Q25.8625 120.21354 25.8625 121.74479Q25.8625 123.27604 25.01875 124.166664Q24.190624 125.05729 22.70625 125.05729Q21.39375 125.05729 20.55 124.322914Q19.721874 123.58854 19.596874 122.291664L20.8 122.291664Q20.909374 123.15104 21.39375 123.58854Q21.89375 124.02604 22.70625 124.02604Q23.58125 124.02604 24.08125 123.43229Q24.596874 122.822914 24.596874 121.760414Q24.596874 120.760414 24.05 120.166664Q23.503124 119.55729 22.596874 119.55729Q21.784374 119.55729 21.3 119.916664L20.971874 120.18229L19.95625 119.93229ZM27.534374 124.260414Q27.534374 123.93229 27.721874 123.71354Q27.925 123.49479 28.315624 123.49479Q28.70625 123.49479 28.909374 123.71354Q29.1125 123.93229 29.1125 124.260414Q29.1125 124.572914 28.909374 124.791664Q28.70625 124.99479 28.315624 124.99479Q27.925 124.99479 27.721874 124.791664Q27.534374 124.572914 27.534374 124.260414ZM37.89375 124.916664L31.378124 124.916664L31.378124 124.010414L34.815624 120.18229Q35.58125 119.30729 35.878124 118.77604Q36.175 118.229164 36.175 117.635414Q36.175 116.86979 35.690624 116.36979Q35.221874 115.86979 34.440624 115.86979Q33.503124 115.86979 32.971874 116.40104Q32.45625 116.93229 32.45625 117.90104L31.190624 117.90104Q31.190624 116.52604 32.065624 115.68229Q32.95625 114.822914 34.440624 114.822914Q35.83125 114.822914 36.628124 115.55729Q37.440624 116.27604 37.440624 117.49479Q37.440624 118.96354 35.565624 120.99479L32.909374 123.885414L37.89375 123.885414L37.89375 124.916664ZM39.26875 116.86979Q39.26875 115.979164 39.83125 115.40104Q40.409374 114.822914 41.3 114.822914Q42.221874 114.822914 42.784374 115.416664Q43.346874 115.99479 43.346874 116.916664L43.346874 117.40104Q43.346874 118.30729 42.76875 118.885414Q42.20625 119.447914 41.315624 119.447914Q40.425 119.447914 39.846874 118.885414Q39.26875 118.30729 39.26875 117.354164L39.26875 116.86979ZM40.20625 117.40104Q40.20625 117.93229 40.503124 118.27604Q40.815624 118.61979 41.315624 118.61979Q41.8 118.61979 42.096874 118.291664Q42.39375 117.96354 42.39375 117.36979L42.39375 116.86979Q42.39375 116.33854 42.096874 115.99479Q41.815624 115.65104 41.3 115.65104Q40.8 115.65104 40.503124 115.99479Q40.20625 116.33854 40.20625 116.90104L40.20625 117.40104ZM44.1125 122.479164Q44.1125 121.572914 44.675 121.010414Q45.253124 120.43229 46.14375 120.43229Q47.05 120.43229 47.6125 121.010414Q48.190624 121.572914 48.190624 122.52604L48.190624 123.010414Q48.190624 123.90104 47.6125 124.479164Q47.05 125.05729 46.159374 125.05729Q45.284374 125.05729 44.690624 124.49479Q44.1125 123.916664 44.1125 122.96354L44.1125 122.479164ZM45.065624 123.010414Q45.065624 123.541664 45.3625 123.90104Q45.659374 124.24479 46.159374 124.24479Q46.659374 124.24479 46.95625 123.90104Q47.253124 123.55729 47.253124 122.979164L47.253124 122.479164Q47.253124 121.93229 46.940624 121.58854Q46.64375 121.24479 46.159374 121.24479Q45.659374 121.24479 45.3625 121.58854Q45.065624 121.93229 45.065624 122.510414L45.065624 123.010414ZM41.6125 124.166664L40.89375 123.71354L45.753124 115.93229L46.471874 116.385414L41.6125 124.166664Z" fill-rule="nonzero"/><path stroke="#757575" stroke-width="1.0" stroke-linecap="butt" d="M18.55 110.416664L145.23334 110.416664L233.80061 78.81805" fill-rule="nonzero"/><path fill="#9e9e9e" d="M235.80061 78.81805C235.80061 77.71348 234.90518 76.81805 233.80061 76.81805C232.69604 76.81805 231.80061 77.71348 231.80061 78.81805C231.80061 79.922615 232.69604 80.81805 233.80061 80.81805C234.90518 80.81805 235.80061 79.922615 235.80061 78.81805" fill-rule="nonzero"/><path fill="#757575" d="M25.2375 139.07292L23.8625 139.6823L23.8625 141.91667L23.284374 141.91667L23.284374 139.94792L20.83125 141.04167L20.83125 143.35417L20.253124 143.35417L20.253124 141.3073L18.878124 141.91667L18.878124 140.76042L20.253124 140.16667L20.253124 136.77605L18.878124 137.38542L18.878124 136.2448L20.253124 135.63542L20.253124 133.40105L20.83125 133.40105L20.83125 135.3698L23.284374 134.27605L23.284374 131.90105L23.8625 131.90105L23.8625 134.01042L25.2375 133.40105L25.2375 134.54167L23.8625 135.15105L23.8625 138.52605L25.2375 137.91667L25.2375 139.07292ZM23.284374 138.79167L23.284374 135.41667L20.83125 136.51042L20.83125 139.88542L23.284374 138.79167Z" fill-rule="nonzero"/><path fill="#757575" d="M32.89375 141.91667L26.378124 141.91667L26.378124 141.01042L29.815624 137.1823Q30.58125 136.3073 30.878124 135.77605Q31.175 135.22917 31.175 134.63542Q31.175 133.8698 30.690624 133.3698Q30.221874 132.8698 29.440624 132.8698Q28.503124 132.8698 27.971874 133.40105Q27.45625 133.9323 27.45625 134.90105L26.190624 134.90105Q26.190624 133.52605 27.065624 132.6823Q27.95625 131.82292 29.440624 131.82292Q30.83125 131.82292 31.628124 132.5573Q32.440624 133.27605 32.440624 134.4948Q32.440624 135.96355 30.565624 137.9948L27.909374 140.88542L32.89375 140.88542L32.89375 141.91667Z" fill-rule="nonzero"/><path fill="#9e9e9e" d="M23.534374 161.91667L22.26875 161.91667L22.26875 153.4948L19.70625 154.41667L19.70625 153.27605L23.33125 151.91667L23.534374 151.91667L23.534374 161.91667ZM33.89375 161.91667L27.378124 161.91667L27.378124 161.01042L30.815624 157.1823Q31.58125 156.3073 31.878124 155.77605Q32.175 155.22917 32.175 154.63542Q32.175 153.8698 31.690624 153.3698Q31.221874 152.8698 30.440624 152.8698Q29.503124 152.8698 28.971874 153.40105Q28.45625 153.9323 28.45625 154.90105L27.190624 154.90105Q27.190624 153.52605 28.065624 152.6823Q28.95625 151.82292 30.440624 151.82292Q31.83125 151.82292 32.628124 152.5573Q33.440624 153.27605 33.440624 154.4948Q33.440624 155.96355 31.565624 157.9948L28.909374 160.88542L33.89375 160.88542L33.89375 161.91667ZM35.534374 161.26042Q35.534374 160.9323 35.721874 160.71355Q35.925 160.4948 36.315624 160.4948Q36.70625 160.4948 36.909374 160.71355Q37.1125 160.9323 37.1125 161.26042Q37.1125 161.57292 36.909374 161.79167Q36.70625 161.9948 36.315624 161.9948Q35.925 161.9948 35.721874 161.79167Q35.534374 161.57292 35.534374 161.26042ZM43.534374 161.91667L42.26875 161.91667L42.26875 153.4948L39.70625 154.41667L39.70625 153.27605L43.33125 151.91667L43.534374 151.91667L43.534374 161.91667ZM47.26875 153.8698Q47.26875 152.97917 47.83125 152.40105Q48.409374 151.82292 49.3 151.82292Q50.221874 151.82292 50.784374 152.41667Q51.346874 152.9948 51.346874 153.91667L51.346874 154.40105Q51.346874 155.3073 50.76875 155.88542Q50.20625 156.44792 49.315624 156.44792Q48.425 156.44792 47.846874 155.88542Q47.26875 155.3073 47.26875 154.35417L47.26875 153.8698ZM48.20625 154.40105Q48.20625 154.9323 48.503124 155.27605Q48.815624 155.6198 49.315624 155.6198Q49.8 155.6198 50.096874 155.29167Q50.39375 154.96355 50.39375 154.3698L50.39375 153.8698Q50.39375 153.33855 50.096874 152.9948Q49.815624 152.65105 49.3 152.65105Q48.8 152.65105 48.503124 152.9948Q48.20625 153.33855 48.20625 153.90105L48.20625 154.40105ZM52.1125 159.47917Q52.1125 158.57292 52.675 158.01042Q53.253124 157.4323 54.14375 157.4323Q55.05 157.4323 55.6125 158.01042Q56.190624 158.57292 56.190624 159.52605L56.190624 160.01042Q56.190624 160.90105 55.6125 161.47917Q55.05 162.0573 54.159374 162.0573Q53.284374 162.0573 52.690624 161.4948Q52.1125 160.91667 52.1125 159.96355L52.1125 159.47917ZM53.065624 160.01042Q53.065624 160.54167 53.3625 160.90105Q53.659374 161.2448 54.159374 161.2448Q54.659374 161.2448 54.95625 160.90105Q55.253124 160.5573 55.253124 159.97917L55.253124 159.47917Q55.253124 158.9323 54.940624 158.58855Q54.64375 158.2448 54.159374 158.2448Q53.659374 158.2448 53.3625 158.58855Q53.065624 158.9323 53.065624 159.51042L53.065624 160.01042ZM49.6125 161.16667L48.89375 160.71355L53.753124 152.9323L54.471874 153.38542L49.6125 161.16667Z" fill-rule="nonzero"/><path stroke="#757575" stroke-width="1.0" stroke-linecap="butt" d="M18.55 147.41667L145.23334 147.41667L178.90181 130.82097" fill-rule="nonzero"/><path fill="#9e9e9e" d="M180.90181 130.82097C180.90181 129.7164 180.00638 128.82097 178.90181 128.82097C177.79724 128.82097 176.90181 129.7164 176.90181 130.82097C176.90181 131.92554 177.79724 132.82097 178.90181 132.82097C180.00638 132.82097 180.90181 131.92554 180.90181 130.82097" fill-rule="nonzero"/><path fill="#757575" d="M25.2375 261.53897L23.8625 262.14835L23.8625 264.38272L23.284374 264.38272L23.284374 262.41397L20.83125 263.50772L20.83125 265.82022L20.253124 265.82022L20.253124 263.77335L18.878124 264.38272L18.878124 263.22647L20.253124 262.63272L20.253124 259.2421L18.878124 259.85147L18.878124 258.71085L20.253124 258.10147L20.253124 255.8671L20.83125 255.8671L20.83125 257.83585L23.284374 256.7421L23.284374 254.3671L23.8625 254.3671L23.8625 256.47647L25.2375 255.8671L25.2375 257.00772L23.8625 257.6171L23.8625 260.9921L25.2375 260.38272L25.2375 261.53897ZM23.284374 261.25772L23.284374 257.88272L20.83125 258.97647L20.83125 262.35147L23.284374 261.25772Z" fill-rule="nonzero"/><path fill="#757575" d="M30.534374 264.38272L29.26875 264.38272L29.26875 255.96085L26.70625 256.88272L26.70625 255.7421L30.33125 254.38272L30.534374 254.38272L30.534374 264.38272Z" fill-rule="nonzero"/><path fill="#9e9e9e" d="M25.89375 284.38272L19.378124 284.38272L19.378124 283.47647L22.815624 279.64835Q23.58125 278.77335 23.878124 278.2421Q24.175 277.69522 24.175 277.10147Q24.175 276.33585 23.690624 275.83585Q23.221874 275.33585 22.440624 275.33585Q21.503124 275.33585 20.971874 275.8671Q20.45625 276.39835 20.45625 277.3671L19.190624 277.3671Q19.190624 275.9921 20.065624 275.14835Q20.95625 274.28897 22.440624 274.28897Q23.83125 274.28897 24.628124 275.02335Q25.440624 275.7421 25.440624 276.96085Q25.440624 278.4296 23.565624 280.46085L20.909374 283.35147L25.89375 283.35147L25.89375 284.38272ZM33.6125 280.13272Q33.6125 282.35147 32.846874 283.44522Q32.096874 284.52335 30.4875 284.52335Q28.89375 284.52335 28.128124 283.47647Q27.3625 282.41397 27.33125 280.3046L27.33125 278.6171Q27.33125 276.4296 28.08125 275.3671Q28.846874 274.28897 30.471874 274.28897Q32.08125 274.28897 32.83125 275.32022Q33.596874 276.35147 33.6125 278.4921L33.6125 280.13272ZM32.346874 278.41397Q32.346874 276.8046 31.89375 276.07022Q31.45625 275.33585 30.471874 275.33585Q29.503124 275.33585 29.05 276.07022Q28.6125 276.78897 28.596874 278.3046L28.596874 280.33585Q28.596874 281.94522 29.065624 282.72647Q29.534374 283.4921 30.4875 283.4921Q31.425 283.4921 31.878124 282.77335Q32.33125 282.03897 32.346874 280.47647L32.346874 278.41397ZM35.534374 283.72647Q35.534374 283.39835 35.721874 283.1796Q35.925 282.96085 36.315624 282.96085Q36.70625 282.96085 36.909374 283.1796Q37.1125 283.39835 37.1125 283.72647Q37.1125 284.03897 36.909374 284.25772Q36.70625 284.46085 36.315624 284.46085Q35.925 284.46085 35.721874 284.25772Q35.534374 284.03897 35.534374 283.72647ZM45.8 275.13272L41.675 284.38272L40.3625 284.38272L44.45625 275.46085L39.08125 275.46085L39.08125 274.4296L45.8 274.4296L45.8 275.13272ZM47.26875 276.33585Q47.26875 275.44522 47.83125 274.8671Q48.409374 274.28897 49.3 274.28897Q50.221874 274.28897 50.784374 274.88272Q51.346874 275.46085 51.346874 276.38272L51.346874 276.8671Q51.346874 277.77335 50.76875 278.35147Q50.20625 278.91397 49.315624 278.91397Q48.425 278.91397 47.846874 278.35147Q47.26875 277.77335 47.26875 276.82022L47.26875 276.33585ZM48.20625 276.8671Q48.20625 277.39835 48.503124 277.7421Q48.815624 278.08585 49.315624 278.08585Q49.8 278.08585 50.096874 277.75772Q50.39375 277.4296 50.39375 276.83585L50.39375 276.33585Q50.39375 275.8046 50.096874 275.46085Q49.815624 275.1171 49.3 275.1171Q48.8 275.1171 48.503124 275.46085Q48.20625 275.8046 48.20625 276.3671L48.20625 276.8671ZM52.1125 281.94522Q52.1125 281.03897 52.675 280.47647Q53.253124 279.89835 54.14375 279.89835Q55.05 279.89835 55.6125 280.47647Q56.190624 281.03897 56.190624 281.9921L56.190624 282.47647Q56.190624 283.3671 55.6125 283.94522Q55.05 284.52335 54.159374 284.52335Q53.284374 284.52335 52.690624 283.96085Q52.1125 283.38272 52.1125 282.4296L52.1125 281.94522ZM53.065624 282.47647Q53.065624 283.00772 53.3625 283.3671Q53.659374 283.71085 54.159374 283.71085Q54.659374 283.71085 54.95625 283.3671Q55.253124 283.02335 55.253124 282.44522L55.253124 281.94522Q55.253124 281.39835 54.940624 281.0546Q54.64375 280.71085 54.159374 280.71085Q53.659374 280.71085 53.3625 281.0546Q53.065624 281.39835 53.065624 281.97647L53.065624 282.47647ZM49.6125 283.63272L48.89375 283.1796L53.753124 275.39835L54.471874 275.85147L49.6125 283.63272Z" fill-rule="nonzero"/><path stroke="#757575" stroke-width="1.0" stroke-linecap="butt" d="M18.55 269.88272L145.23334 269.88272L175.13472 269.88272" fill-rule="nonzero"/><path fill="#9e9e9e" d="M177.13472 269.88272C177.13472 268.77814 176.23929 267.88272 175.13472 267.88272C174.03015 267.88272 173.13472 268.77814 173.13472 269.88272C173.13472 270.98727 174.03015 271.88272 175.13472 271.88272C176.23929 271.88272 177.13472 270.98727 177.13472 269.88272" fill-rule="nonzero"/><path fill="#757575" d="M565.2469 67.80729Q565.96564 67.36979 566.5594 66.760414Q567.8719 65.447914 567.8719 64.197914Q567.8719 63.58854 567.4969 63.21354Q567.16876 62.885414 566.77814 62.885414Q565.85626 62.885414 565.2469 63.21354L565.2469 67.80729ZM566.45 67.52604Q565.79376 67.979164 564.48126 68.74479L564.48126 57.197914L565.2469 57.197914L565.2469 62.77604Q565.96564 62.385414 566.95 62.385414Q567.8719 62.385414 568.3719 62.885414Q568.91876 63.43229 568.91876 64.30729Q568.91876 65.33854 567.8719 66.385414Q567.27814 66.979164 566.45 67.52604Z" fill-rule="nonzero"/><path fill="#757575" d="M579.2469 57.96354L579.2469 59.02604L579.0125 59.02604Q577.52814 59.05729 576.65314 59.90104Q575.77814 60.74479 575.6375 62.291664Q576.4344 61.385414 577.79376 61.385414Q579.09064 61.385414 579.85626 62.30729Q580.6375 63.21354 580.6375 64.666664Q580.6375 66.21354 579.79376 67.135414Q578.96564 68.05729 577.5594 68.05729Q576.1375 68.05729 575.2469 66.96354Q574.35626 65.854164 574.35626 64.135414L574.35626 63.65104Q574.35626 60.90104 575.52814 59.447914Q576.7 57.99479 579.0125 57.96354L579.2469 57.96354ZM577.575 62.447914Q576.9344 62.447914 576.3875 62.83854Q575.84064 63.21354 575.6219 63.80729L575.6219 64.27604Q575.6219 65.510414 576.16876 66.260414Q576.73126 67.010414 577.5594 67.010414Q578.41876 67.010414 578.90314 66.385414Q579.3875 65.74479 579.3875 64.729164Q579.3875 63.697914 578.8875 63.072914Q578.40314 62.447914 577.575 62.447914Z" fill-rule="nonzero"/><path fill="#9e9e9e" d="M554.1219 82.322914L555.0594 82.322914Q555.96564 82.30729 556.46564 81.854164Q556.98126 81.40104 556.98126 80.61979Q556.98126 78.86979 555.2469 78.86979Q554.41876 78.86979 553.9344 79.33854Q553.45 79.80729 553.45 80.572914L552.1844 80.572914Q552.1844 79.385414 553.04376 78.604164Q553.91876 77.822914 555.2469 77.822914Q556.65314 77.822914 557.45 78.572914Q558.2469 79.322914 558.2469 80.635414Q558.2469 81.291664 557.825 81.90104Q557.41876 82.510414 556.6844 82.80729Q557.5125 83.072914 557.95 83.68229Q558.40314 84.27604 558.40314 85.135414Q558.40314 86.479164 557.52814 87.27604Q556.65314 88.05729 555.2469 88.05729Q553.85626 88.05729 552.96564 87.30729Q552.09064 86.541664 552.09064 85.291664L553.3719 85.291664Q553.3719 86.072914 553.8719 86.55729Q554.3875 87.02604 555.2469 87.02604Q556.16876 87.02604 556.65314 86.541664Q557.1375 86.05729 557.1375 85.166664Q557.1375 84.30729 556.60626 83.83854Q556.075 83.36979 555.0594 83.354164L554.1219 83.354164L554.1219 82.322914ZM560.4344 87.260414Q560.4344 86.93229 560.6219 86.71354Q560.825 86.49479 561.21564 86.49479Q561.60626 86.49479 561.8094 86.71354Q562.0125 86.93229 562.0125 87.260414Q562.0125 87.572914 561.8094 87.791664Q561.60626 87.99479 561.21564 87.99479Q560.825 87.99479 560.6219 87.791664Q560.4344 87.572914 560.4344 87.260414ZM569.6219 84.572914L570.9969 84.572914L570.9969 85.604164L569.6219 85.604164L569.6219 87.916664L568.34064 87.916664L568.34064 85.604164L563.8094 85.604164L563.8094 84.854164L568.2625 77.96354L569.6219 77.96354L569.6219 84.572914ZM565.2469 84.572914L568.34064 84.572914L568.34064 79.697914L568.2 79.96354L565.2469 84.572914ZM572.16876 79.86979Q572.16876 78.979164 572.73126 78.40104Q573.3094 77.822914 574.2 77.822914Q575.1219 77.822914 575.6844 78.416664Q576.2469 78.99479 576.2469 79.916664L576.2469 80.40104Q576.2469 81.30729 575.66876 81.885414Q575.10626 82.447914 574.21564 82.447914Q573.325 82.447914 572.7469 81.885414Q572.16876 81.30729 572.16876 80.354164L572.16876 79.86979ZM573.10626 80.40104Q573.10626 80.93229 573.40314 81.27604Q573.71564 81.61979 574.21564 81.61979Q574.7 81.61979 574.9969 81.291664Q575.29376 80.96354 575.29376 80.36979L575.29376 79.86979Q575.29376 79.33854 574.9969 78.99479Q574.71564 78.65104 574.2 78.65104Q573.7 78.65104 573.40314 78.99479Q573.10626 79.33854 573.10626 79.90104L573.10626 80.40104ZM577.0125 85.479164Q577.0125 84.572914 577.575 84.010414Q578.15314 83.43229 579.04376 83.43229Q579.95 83.43229 580.5125 84.010414Q581.09064 84.572914 581.09064 85.52604L581.09064 86.010414Q581.09064 86.90104 580.5125 87.479164Q579.95 88.05729 579.0594 88.05729Q578.1844 88.05729 577.59064 87.49479Q577.0125 86.916664 577.0125 85.96354L577.0125 85.479164ZM577.96564 86.010414Q577.96564 86.541664 578.2625 86.90104Q578.5594 87.24479 579.0594 87.24479Q579.5594 87.24479 579.85626 86.90104Q580.15314 86.55729 580.15314 85.979164L580.15314 85.479164Q580.15314 84.93229 579.84064 84.58854Q579.54376 84.24479 579.0594 84.24479Q578.5594 84.24479 578.2625 84.58854Q577.96564 84.93229 577.96564 85.510414L577.96564 86.010414ZM574.5125 87.166664L573.79376 86.71354L578.65314 78.93229L579.3719 79.385414L574.5125 87.166664Z" fill-rule="nonzero"/><path stroke="#757575" stroke-width="1.0" stroke-linecap="butt" d="M581.45 73.416664L454.76666 73.416664L315.28027 63.18347" fill-rule="nonzero"/><path fill="#9e9e9e" d="M317.28027 63.18347C317.28027 62.078903 316.38486 61.18347 315.28027 61.18347C314.17572 61.18347 313.28027 62.078903 313.28027 63.18347C313.28027 64.28804 314.17572 65.18347 315.28027 65.18347C316.38486 65.18347 317.28027 64.28804 317.28027 63.18347" fill-rule="nonzero"/><path fill="#757575" d="M565.2469 104.80729Q565.96564 104.36979 566.5594 103.760414Q567.8719 102.447914 567.8719 101.197914Q567.8719 100.58854 567.4969 100.21354Q567.16876 99.885414 566.77814 99.885414Q565.85626 99.885414 565.2469 100.21354L565.2469 104.80729ZM566.45 104.52604Q565.79376 104.979164 564.48126 105.74479L564.48126 94.197914L565.2469 94.197914L565.2469 99.77604Q565.96564 99.385414 566.95 99.385414Q567.8719 99.385414 568.3719 99.885414Q568.91876 100.43229 568.91876 101.30729Q568.91876 102.33854 567.8719 103.385414Q567.27814 103.979164 566.45 104.52604Z" fill-rule="nonzero"/><path fill="#757575" d="M574.85626 99.93229L575.3719 94.96354L580.46564 94.96354L580.46564 96.135414L576.4344 96.135414L576.1375 98.83854Q576.8719 98.416664 577.79376 98.416664Q579.15314 98.416664 579.95 99.322914Q580.7625 100.21354 580.7625 101.74479Q580.7625 103.27604 579.91876 104.166664Q579.09064 105.05729 577.60626 105.05729Q576.29376 105.05729 575.45 104.322914Q574.6219 103.58854 574.4969 102.291664L575.7 102.291664Q575.8094 103.15104 576.29376 103.58854Q576.79376 104.02604 577.60626 104.02604Q578.48126 104.02604 578.98126 103.43229Q579.4969 102.822914 579.4969 101.760414Q579.4969 100.760414 578.95 100.166664Q578.40314 99.55729 577.4969 99.55729Q576.6844 99.55729 576.2 99.916664L575.8719 100.18229L574.85626 99.93229Z" fill-rule="nonzero"/><path fill="#9e9e9e" d="M557.2469 114.96354L557.2469 116.02604L557.0125 116.02604Q555.52814 116.05729 554.65314 116.90104Q553.77814 117.74479 553.6375 119.291664Q554.4344 118.385414 555.79376 118.385414Q557.09064 118.385414 557.85626 119.30729Q558.6375 120.21354 558.6375 121.666664Q558.6375 123.21354 557.79376 124.135414Q556.96564 125.05729 555.5594 125.05729Q554.1375 125.05729 553.2469 123.96354Q552.35626 122.854164 552.35626 121.135414L552.35626 120.65104Q552.35626 117.90104 553.52814 116.447914Q554.7 114.99479 557.0125 114.96354L557.2469 114.96354ZM555.575 119.447914Q554.9344 119.447914 554.3875 119.83854Q553.84064 120.21354 553.6219 120.80729L553.6219 121.27604Q553.6219 122.510414 554.16876 123.260414Q554.73126 124.010414 555.5594 124.010414Q556.41876 124.010414 556.90314 123.385414Q557.3875 122.74479 557.3875 121.729164Q557.3875 120.697914 556.8875 120.072914Q556.40314 119.447914 555.575 119.447914ZM560.4344 124.260414Q560.4344 123.93229 560.6219 123.71354Q560.825 123.49479 561.21564 123.49479Q561.60626 123.49479 561.8094 123.71354Q562.0125 123.93229 562.0125 124.260414Q562.0125 124.572914 561.8094 124.791664Q561.60626 124.99479 561.21564 124.99479Q560.825 124.99479 560.6219 124.791664Q560.4344 124.572914 560.4344 124.260414ZM569.1219 120.541664Q568.73126 121.010414 568.16876 121.30729Q567.6219 121.58854 566.96564 121.58854Q566.10626 121.58854 565.46564 121.166664Q564.825 120.74479 564.48126 119.979164Q564.1375 119.197914 564.1375 118.27604Q564.1375 117.27604 564.5125 116.479164Q564.8875 115.666664 565.59064 115.24479Q566.29376 114.822914 567.21564 114.822914Q568.7 114.822914 569.54376 115.93229Q570.40314 117.041664 570.40314 118.947914L570.40314 119.30729Q570.40314 122.21354 569.2469 123.55729Q568.10626 124.885414 565.77814 124.916664L565.52814 124.916664L565.52814 123.854164L565.8094 123.854164Q567.3719 123.822914 568.2 123.041664Q569.04376 122.24479 569.1219 120.541664ZM567.16876 120.541664Q567.8094 120.541664 568.34064 120.15104Q568.8875 119.760414 569.1375 119.18229L569.1375 118.68229Q569.1375 117.43229 568.59064 116.666664Q568.04376 115.885414 567.23126 115.885414Q566.3875 115.885414 565.8719 116.52604Q565.3719 117.15104 565.3719 118.197914Q565.3719 119.229164 565.85626 119.885414Q566.35626 120.541664 567.16876 120.541664ZM572.16876 116.86979Q572.16876 115.979164 572.73126 115.40104Q573.3094 114.822914 574.2 114.822914Q575.1219 114.822914 575.6844 115.416664Q576.2469 115.99479 576.2469 116.916664L576.2469 117.40104Q576.2469 118.30729 575.66876 118.885414Q575.10626 119.447914 574.21564 119.447914Q573.325 119.447914 572.7469 118.885414Q572.16876 118.30729 572.16876 117.354164L572.16876 116.86979ZM573.10626 117.40104Q573.10626 117.93229 573.40314 118.27604Q573.71564 118.61979 574.21564 118.61979Q574.7 118.61979 574.9969 118.291664Q575.29376 117.96354 575.29376 117.36979L575.29376 116.86979Q575.29376 116.33854 574.9969 115.99479Q574.71564 115.65104 574.2 115.65104Q573.7 115.65104 573.40314 115.99479Q573.10626 116.33854 573.10626 116.90104L573.10626 117.40104ZM577.0125 122.479164Q577.0125 121.572914 577.575 121.010414Q578.15314 120.43229 579.04376 120.43229Q579.95 120.43229 580.5125 121.010414Q581.09064 121.572914 581.09064 122.52604L581.09064 123.010414Q581.09064 123.90104 580.5125 124.479164Q579.95 125.05729 579.0594 125.05729Q578.1844 125.05729 577.59064 124.49479Q577.0125 123.916664 577.0125 122.96354L577.0125 122.479164ZM577.96564 123.010414Q577.96564 123.541664 578.2625 123.90104Q578.5594 124.24479 579.0594 124.24479Q579.5594 124.24479 579.85626 123.90104Q580.15314 123.55729 580.15314 122.979164L580.15314 122.479164Q580.15314 121.93229 579.84064 121.58854Q579.54376 121.24479 579.0594 121.24479Q578.5594 121.24479 578.2625 121.58854Q577.96564 121.93229 577.96564 122.510414L577.96564 123.010414ZM574.5125 124.166664L573.79376 123.71354L578.65314 115.93229L579.3719 116.385414L574.5125 124.166664Z" fill-rule="nonzero"/><path stroke="#757575" stroke-width="1.0" stroke-linecap="butt" d="M581.45 110.416664L454.76666 110.416664L359.34222 75.41721" fill-rule="nonzero"/><path fill="#9e9e9e" d="M361.34222 75.41721C361.34222 74.312645 360.4468 73.41721 359.34222 73.41721C358.23767 73.41721 357.34222 74.312645 357.34222 75.41721C357.34222 76.52178 358.23767 77.41721 359.34222 77.41721C360.4468 77.41721 361.34222 76.52178 361.34222 75.41721" fill-rule="nonzero"/><path fill="#757575" d="M565.2469 141.8073Q565.96564 141.3698 566.5594 140.76042Q567.8719 139.44792 567.8719 138.19792Q567.8719 137.58855 567.4969 137.21355Q567.16876 136.88542 566.77814 136.88542Q565.85626 136.88542 565.2469 137.21355L565.2469 141.8073ZM566.45 141.52605Q565.79376 141.97917 564.48126 142.7448L564.48126 131.19792L565.2469 131.19792L565.2469 136.77605Q565.96564 136.38542 566.95 136.38542Q567.8719 136.38542 568.3719 136.88542Q568.91876 137.4323 568.91876 138.3073Q568.91876 139.33855 567.8719 140.38542Q567.27814 140.97917 566.45 141.52605Z" fill-rule="nonzero"/><path fill="#757575" d="M579.6219 138.57292L580.9969 138.57292L580.9969 139.60417L579.6219 139.60417L579.6219 141.91667L578.34064 141.91667L578.34064 139.60417L573.8094 139.60417L573.8094 138.85417L578.2625 131.96355L579.6219 131.96355L579.6219 138.57292ZM575.2469 138.57292L578.34064 138.57292L578.34064 133.69792L578.2 133.96355L575.2469 138.57292Z" fill-rule="nonzero"/><path fill="#9e9e9e" d="M552.85626 156.9323L553.3719 151.96355L558.46564 151.96355L558.46564 153.13542L554.4344 153.13542L554.1375 155.83855Q554.8719 155.41667 555.79376 155.41667Q557.15314 155.41667 557.95 156.32292Q558.7625 157.21355 558.7625 158.7448Q558.7625 160.27605 557.91876 161.16667Q557.09064 162.0573 555.60626 162.0573Q554.29376 162.0573 553.45 161.32292Q552.6219 160.58855 552.4969 159.29167L553.7 159.29167Q553.8094 160.15105 554.29376 160.58855Q554.79376 161.02605 555.60626 161.02605Q556.48126 161.02605 556.98126 160.4323Q557.4969 159.82292 557.4969 158.76042Q557.4969 157.76042 556.95 157.16667Q556.40314 156.5573 555.4969 156.5573Q554.6844 156.5573 554.2 156.91667L553.8719 157.1823L552.85626 156.9323ZM560.4344 161.26042Q560.4344 160.9323 560.6219 160.71355Q560.825 160.4948 561.21564 160.4948Q561.60626 160.4948 561.8094 160.71355Q562.0125 160.9323 562.0125 161.26042Q562.0125 161.57292 561.8094 161.79167Q561.60626 161.9948 561.21564 161.9948Q560.825 161.9948 560.6219 161.79167Q560.4344 161.57292 560.4344 161.26042ZM570.79376 161.91667L564.27814 161.91667L564.27814 161.01042L567.71564 157.1823Q568.48126 156.3073 568.77814 155.77605Q569.075 155.22917 569.075 154.63542Q569.075 153.8698 568.59064 153.3698Q568.1219 152.8698 567.34064 152.8698Q566.40314 152.8698 565.8719 153.40105Q565.35626 153.9323 565.35626 154.90105L564.09064 154.90105Q564.09064 153.52605 564.96564 152.6823Q565.85626 151.82292 567.34064 151.82292Q568.73126 151.82292 569.52814 152.5573Q570.34064 153.27605 570.34064 154.4948Q570.34064 155.96355 568.46564 157.9948L565.8094 160.88542L570.79376 160.88542L570.79376 161.91667ZM572.16876 153.8698Q572.16876 152.97917 572.73126 152.40105Q573.3094 151.82292 574.2 151.82292Q575.1219 151.82292 575.6844 152.41667Q576.2469 152.9948 576.2469 153.91667L576.2469 154.40105Q576.2469 155.3073 575.66876 155.88542Q575.10626 156.44792 574.21564 156.44792Q573.325 156.44792 572.7469 155.88542Q572.16876 155.3073 572.16876 154.35417L572.16876 153.8698ZM573.10626 154.40105Q573.10626 154.9323 573.40314 155.27605Q573.71564 155.6198 574.21564 155.6198Q574.7 155.6198 574.9969 155.29167Q575.29376 154.96355 575.29376 154.3698L575.29376 153.8698Q575.29376 153.33855 574.9969 152.9948Q574.71564 152.65105 574.2 152.65105Q573.7 152.65105 573.40314 152.9948Q573.10626 153.33855 573.10626 153.90105L573.10626 154.40105ZM577.0125 159.47917Q577.0125 158.57292 577.575 158.01042Q578.15314 157.4323 579.04376 157.4323Q579.95 157.4323 580.5125 158.01042Q581.09064 158.57292 581.09064 159.52605L581.09064 160.01042Q581.09064 160.90105 580.5125 161.47917Q579.95 162.0573 579.0594 162.0573Q578.1844 162.0573 577.59064 161.4948Q577.0125 160.91667 577.0125 159.96355L577.0125 159.47917ZM577.96564 160.01042Q577.96564 160.54167 578.2625 160.90105Q578.5594 161.2448 579.0594 161.2448Q579.5594 161.2448 579.85626 160.90105Q580.15314 160.5573 580.15314 159.97917L580.15314 159.47917Q580.15314 158.9323 579.84064 158.58855Q579.54376 158.2448 579.0594 158.2448Q578.5594 158.2448 578.2625 158.58855Q577.96564 158.9323 577.96564 159.51042L577.96564 160.01042ZM574.5125 161.16667L573.79376 160.71355L578.65314 152.9323L579.3719 153.38542L574.5125 161.16667Z" fill-rule="nonzero"/><path stroke="#757575" stroke-width="1.0" stroke-linecap="butt" d="M581.45 147.41667L454.76666 147.41667L402.60373 106.49191" fill-rule="nonzero"/><path fill="#9e9e9e" d="M404.60373 106.49191C404.60373 105.387344 403.7083 104.49191 402.60373 104.49191C401.49918 104.49191 400.60373 105.387344 400.60373 106.49191C400.60373 107.59648 401.49918 108.49191 402.60373 108.49191C403.7083 108.49191 404.60373 107.59648 404.60373 106.49191" fill-rule="nonzero"/><path fill="#757575" d="M565.2469 178.8073Q565.96564 178.3698 566.5594 177.76042Q567.8719 176.44792 567.8719 175.19792Q567.8719 174.58855 567.4969 174.21355Q567.16876 173.88542 566.77814 173.88542Q565.85626 173.88542 565.2469 174.21355L565.2469 178.8073ZM566.45 178.52605Q565.79376 178.97917 564.48126 179.7448L564.48126 168.19792L565.2469 168.19792L565.2469 173.77605Q565.96564 173.38542 566.95 173.38542Q567.8719 173.38542 568.3719 173.88542Q568.91876 174.4323 568.91876 175.3073Q568.91876 176.33855 567.8719 177.38542Q567.27814 177.97917 566.45 178.52605Z" fill-rule="nonzero"/><path fill="#757575" d="M576.1219 173.32292L577.0594 173.32292Q577.96564 173.3073 578.46564 172.85417Q578.98126 172.40105 578.98126 171.6198Q578.98126 169.8698 577.2469 169.8698Q576.41876 169.8698 575.9344 170.33855Q575.45 170.8073 575.45 171.57292L574.1844 171.57292Q574.1844 170.38542 575.04376 169.60417Q575.91876 168.82292 577.2469 168.82292Q578.65314 168.82292 579.45 169.57292Q580.2469 170.32292 580.2469 171.63542Q580.2469 172.29167 579.825 172.90105Q579.41876 173.51042 578.6844 173.8073Q579.5125 174.07292 579.95 174.6823Q580.40314 175.27605 580.40314 176.13542Q580.40314 177.47917 579.52814 178.27605Q578.65314 179.0573 577.2469 179.0573Q575.85626 179.0573 574.96564 178.3073Q574.09064 177.54167 574.09064 176.29167L575.3719 176.29167Q575.3719 177.07292 575.8719 177.5573Q576.3875 178.02605 577.2469 178.02605Q578.16876 178.02605 578.65314 177.54167Q579.1375 177.0573 579.1375 176.16667Q579.1375 175.3073 578.60626 174.83855Q578.075 174.3698 577.0594 174.35417L576.1219 174.35417L576.1219 173.32292Z" fill-rule="nonzero"/><path fill="#9e9e9e" d="M554.1219 193.32292L555.0594 193.32292Q555.96564 193.3073 556.46564 192.85417Q556.98126 192.40105 556.98126 191.6198Q556.98126 189.8698 555.2469 189.8698Q554.41876 189.8698 553.9344 190.33855Q553.45 190.8073 553.45 191.57292L552.1844 191.57292Q552.1844 190.38542 553.04376 189.60417Q553.91876 188.82292 555.2469 188.82292Q556.65314 188.82292 557.45 189.57292Q558.2469 190.32292 558.2469 191.63542Q558.2469 192.29167 557.825 192.90105Q557.41876 193.51042 556.6844 193.8073Q557.5125 194.07292 557.95 194.6823Q558.40314 195.27605 558.40314 196.13542Q558.40314 197.47917 557.52814 198.27605Q556.65314 199.0573 555.2469 199.0573Q553.85626 199.0573 552.96564 198.3073Q552.09064 197.54167 552.09064 196.29167L553.3719 196.29167Q553.3719 197.07292 553.8719 197.5573Q554.3875 198.02605 555.2469 198.02605Q556.16876 198.02605 556.65314 197.54167Q557.1375 197.0573 557.1375 196.16667Q557.1375 195.3073 556.60626 194.83855Q556.075 194.3698 555.0594 194.35417L554.1219 194.35417L554.1219 193.32292ZM560.4344 198.26042Q560.4344 197.9323 560.6219 197.71355Q560.825 197.4948 561.21564 197.4948Q561.60626 197.4948 561.8094 197.71355Q562.0125 197.9323 562.0125 198.26042Q562.0125 198.57292 561.8094 198.79167Q561.60626 198.9948 561.21564 198.9948Q560.825 198.9948 560.6219 198.79167Q560.4344 198.57292 560.4344 198.26042ZM569.6219 195.57292L570.9969 195.57292L570.9969 196.60417L569.6219 196.60417L569.6219 198.91667L568.34064 198.91667L568.34064 196.60417L563.8094 196.60417L563.8094 195.85417L568.2625 188.96355L569.6219 188.96355L569.6219 195.57292ZM565.2469 195.57292L568.34064 195.57292L568.34064 190.69792L568.2 190.96355L565.2469 195.57292ZM572.16876 190.8698Q572.16876 189.97917 572.73126 189.40105Q573.3094 188.82292 574.2 188.82292Q575.1219 188.82292 575.6844 189.41667Q576.2469 189.9948 576.2469 190.91667L576.2469 191.40105Q576.2469 192.3073 575.66876 192.88542Q575.10626 193.44792 574.21564 193.44792Q573.325 193.44792 572.7469 192.88542Q572.16876 192.3073 572.16876 191.35417L572.16876 190.8698ZM573.10626 191.40105Q573.10626 191.9323 573.40314 192.27605Q573.71564 192.6198 574.21564 192.6198Q574.7 192.6198 574.9969 192.29167Q575.29376 191.96355 575.29376 191.3698L575.29376 190.8698Q575.29376 190.33855 574.9969 189.9948Q574.71564 189.65105 574.2 189.65105Q573.7 189.65105 573.40314 189.9948Q573.10626 190.33855 573.10626 190.90105L573.10626 191.40105ZM577.0125 196.47917Q577.0125 195.57292 577.575 195.01042Q578.15314 194.4323 579.04376 194.4323Q579.95 194.4323 580.5125 195.01042Q581.09064 195.57292 581.09064 196.52605L581.09064 197.01042Q581.09064 197.90105 580.5125 198.47917Q579.95 199.0573 579.0594 199.0573Q578.1844 199.0573 577.59064 198.4948Q577.0125 197.91667 577.0125 196.96355L577.0125 196.47917ZM577.96564 197.01042Q577.96564 197.54167 578.2625 197.90105Q578.5594 198.2448 579.0594 198.2448Q579.5594 198.2448 579.85626 197.90105Q580.15314 197.5573 580.15314 196.97917L580.15314 196.47917Q580.15314 195.9323 579.84064 195.58855Q579.54376 195.2448 579.0594 195.2448Q578.5594 195.2448 578.2625 195.58855Q577.96564 195.9323 577.96564 196.51042L577.96564 197.01042ZM574.5125 198.16667L573.79376 197.71355L578.65314 189.9323L579.3719 190.38542L574.5125 198.16667Z" fill-rule="nonzero"/><path stroke="#757575" stroke-width="1.0" stroke-linecap="butt" d="M581.45 184.41667L454.76666 184.41667L424.8653 137.48395" fill-rule="nonzero"/><path fill="#9e9e9e" d="M426.8653 137.48395C426.8653 136.37938 425.96985 135.48395 424.8653 135.48395C423.7607 135.48395 422.8653 136.37938 422.8653 137.48395C422.8653 138.58852 423.7607 139.48395 424.8653 139.48395C425.96985 139.48395 426.8653 138.58852 426.8653 137.48395" fill-rule="nonzero"/><path fill="#757575" d="M565.2469 215.8073Q565.96564 215.3698 566.5594 214.76042Q567.8719 213.44792 567.8719 212.19792Q567.8719 211.58855 567.4969 211.21355Q567.16876 210.88542 566.77814 210.88542Q565.85626 210.88542 565.2469 211.21355L565.2469 215.8073ZM566.45 215.52605Q565.79376 215.97917 564.48126 216.7448L564.48126 205.19792L565.2469 205.19792L565.2469 210.77605Q565.96564 210.38542 566.95 210.38542Q567.8719 210.38542 568.3719 210.88542Q568.91876 211.4323 568.91876 212.3073Q568.91876 213.33855 567.8719 214.38542Q567.27814 214.97917 566.45 215.52605Z" fill-rule="nonzero"/><path fill="#757575" d="M580.79376 215.91667L574.27814 215.91667L574.27814 215.01042L577.71564 211.1823Q578.48126 210.3073 578.77814 209.77605Q579.075 209.22917 579.075 208.63542Q579.075 207.8698 578.59064 207.3698Q578.1219 206.8698 577.34064 206.8698Q576.40314 206.8698 575.8719 207.40105Q575.35626 207.9323 575.35626 208.90105L574.09064 208.90105Q574.09064 207.52605 574.96564 206.6823Q575.85626 205.82292 577.34064 205.82292Q578.73126 205.82292 579.52814 206.5573Q580.34064 207.27605 580.34064 208.4948Q580.34064 209.96355 578.46564 211.9948L575.8094 214.88542L580.79376 214.88542L580.79376 215.91667Z" fill-rule="nonzero"/><path fill="#9e9e9e" d="M557.2469 225.96355L557.2469 227.02605L557.0125 227.02605Q555.52814 227.0573 554.65314 227.90105Q553.77814 228.7448 553.6375 230.29167Q554.4344 229.38542 555.79376 229.38542Q557.09064 229.38542 557.85626 230.3073Q558.6375 231.21355 558.6375 232.66667Q558.6375 234.21355 557.79376 235.13542Q556.96564 236.0573 555.5594 236.0573Q554.1375 236.0573 553.2469 234.96355Q552.35626 233.85417 552.35626 232.13542L552.35626 231.65105Q552.35626 228.90105 553.52814 227.44792Q554.7 225.9948 557.0125 225.96355L557.2469 225.96355ZM555.575 230.44792Q554.9344 230.44792 554.3875 230.83855Q553.84064 231.21355 553.6219 231.8073L553.6219 232.27605Q553.6219 233.51042 554.16876 234.26042Q554.73126 235.01042 555.5594 235.01042Q556.41876 235.01042 556.90314 234.38542Q557.3875 233.7448 557.3875 232.72917Q557.3875 231.69792 556.8875 231.07292Q556.40314 230.44792 555.575 230.44792ZM560.4344 235.26042Q560.4344 234.9323 560.6219 234.71355Q560.825 234.4948 561.21564 234.4948Q561.60626 234.4948 561.8094 234.71355Q562.0125 234.9323 562.0125 235.26042Q562.0125 235.57292 561.8094 235.79167Q561.60626 235.9948 561.21564 235.9948Q560.825 235.9948 560.6219 235.79167Q560.4344 235.57292 560.4344 235.26042ZM569.1219 231.54167Q568.73126 232.01042 568.16876 232.3073Q567.6219 232.58855 566.96564 232.58855Q566.10626 232.58855 565.46564 232.16667Q564.825 231.7448 564.48126 230.97917Q564.1375 230.19792 564.1375 229.27605Q564.1375 228.27605 564.5125 227.47917Q564.8875 226.66667 565.59064 226.2448Q566.29376 225.82292 567.21564 225.82292Q568.7 225.82292 569.54376 226.9323Q570.40314 228.04167 570.40314 229.94792L570.40314 230.3073Q570.40314 233.21355 569.2469 234.5573Q568.10626 235.88542 565.77814 235.91667L565.52814 235.91667L565.52814 234.85417L565.8094 234.85417Q567.3719 234.82292 568.2 234.04167Q569.04376 233.2448 569.1219 231.54167ZM567.16876 231.54167Q567.8094 231.54167 568.34064 231.15105Q568.8875 230.76042 569.1375 230.1823L569.1375 229.6823Q569.1375 228.4323 568.59064 227.66667Q568.04376 226.88542 567.23126 226.88542Q566.3875 226.88542 565.8719 227.52605Q565.3719 228.15105 565.3719 229.19792Q565.3719 230.22917 565.85626 230.88542Q566.35626 231.54167 567.16876 231.54167ZM572.16876 227.8698Q572.16876 226.97917 572.73126 226.40105Q573.3094 225.82292 574.2 225.82292Q575.1219 225.82292 575.6844 226.41667Q576.2469 226.9948 576.2469 227.91667L576.2469 228.40105Q576.2469 229.3073 575.66876 229.88542Q575.10626 230.44792 574.21564 230.44792Q573.325 230.44792 572.7469 229.88542Q572.16876 229.3073 572.16876 228.35417L572.16876 227.8698ZM573.10626 228.40105Q573.10626 228.9323 573.40314 229.27605Q573.71564 229.6198 574.21564 229.6198Q574.7 229.6198 574.9969 229.29167Q575.29376 228.96355 575.29376 228.3698L575.29376 227.8698Q575.29376 227.33855 574.9969 226.9948Q574.71564 226.65105 574.2 226.65105Q573.7 226.65105 573.40314 226.9948Q573.10626 227.33855 573.10626 227.90105L573.10626 228.40105ZM577.0125 233.47917Q577.0125 232.57292 577.575 232.01042Q578.15314 231.4323 579.04376 231.4323Q579.95 231.4323 580.5125 232.01042Q581.09064 232.57292 581.09064 233.52605L581.09064 234.01042Q581.09064 234.90105 580.5125 235.47917Q579.95 236.0573 579.0594 236.0573Q578.1844 236.0573 577.59064 235.4948Q577.0125 234.91667 577.0125 233.96355L577.0125 233.47917ZM577.96564 234.01042Q577.96564 234.54167 578.2625 234.90105Q578.5594 235.2448 579.0594 235.2448Q579.5594 235.2448 579.85626 234.90105Q580.15314 234.5573 580.15314 233.97917L580.15314 233.47917Q580.15314 232.9323 579.84064 232.58855Q579.54376 232.2448 579.0594 232.2448Q578.5594 232.2448 578.2625 232.58855Q577.96564 232.9323 577.96564 233.51042L577.96564 234.01042ZM574.5125 235.16667L573.79376 234.71355L578.65314 226.9323L579.3719 227.38542L574.5125 235.16667Z" fill-rule="nonzero"/><path stroke="#757575" stroke-width="1.0" stroke-linecap="butt" d="M581.45 221.41667L454.76666 221.41667L439.46655 180.81895" fill-rule="nonzero"/><path fill="#9e9e9e" d="M441.46655 180.81895C441.46655 179.71439 440.5711 178.81895 439.46655 178.81895C438.36197 178.81895 437.46655 179.71439 437.46655 180.81895C437.46655 181.92352 438.36197 182.81895 439.46655 182.81895C440.5711 182.81895 441.46655 181.92352 441.46655 180.81895" fill-rule="nonzero"/><path fill="#757575" d="M565.2469 257.4162Q565.96564 256.9787 566.5594 256.36932Q567.8719 255.05682 567.8719 253.80682Q567.8719 253.19745 567.4969 252.82245Q567.16876 252.49432 566.77814 252.49432Q565.85626 252.49432 565.2469 252.82245L565.2469 257.4162ZM566.45 257.13495Q565.79376 257.58807 564.48126 258.3537L564.48126 246.80682L565.2469 246.80682L565.2469 252.38495Q565.96564 251.99432 566.95 251.99432Q567.8719 251.99432 568.3719 252.49432Q568.91876 253.0412 568.91876 253.9162Q568.91876 254.94745 567.8719 255.99432Q567.27814 256.58807 566.45 257.13495Z" fill-rule="nonzero"/><path fill="#757575" d="M578.4344 257.52557L577.16876 257.52557L577.16876 249.1037L574.60626 250.02557L574.60626 248.88495L578.23126 247.52557L578.4344 247.52557L578.4344 257.52557Z" fill-rule="nonzero"/><path fill="#9e9e9e" d="M548.4344 277.52557L547.16876 277.52557L547.16876 269.1037L544.60626 270.02557L544.60626 268.88495L548.23126 267.52557L548.4344 267.52557L548.4344 277.52557ZM558.79376 277.52557L552.27814 277.52557L552.27814 276.61932L555.71564 272.7912Q556.48126 271.9162 556.77814 271.38495Q557.075 270.83807 557.075 270.24432Q557.075 269.4787 556.59064 268.9787Q556.1219 268.4787 555.34064 268.4787Q554.40314 268.4787 553.8719 269.00995Q553.35626 269.5412 553.35626 270.50995L552.09064 270.50995Q552.09064 269.13495 552.96564 268.2912Q553.85626 267.43182 555.34064 267.43182Q556.73126 267.43182 557.52814 268.1662Q558.34064 268.88495 558.34064 270.1037Q558.34064 271.57245 556.46564 273.6037L553.8094 276.49432L558.79376 276.49432L558.79376 277.52557ZM560.4344 276.86932Q560.4344 276.5412 560.6219 276.32245Q560.825 276.1037 561.21564 276.1037Q561.60626 276.1037 561.8094 276.32245Q562.0125 276.5412 562.0125 276.86932Q562.0125 277.18182 561.8094 277.40057Q561.60626 277.6037 561.21564 277.6037Q560.825 277.6037 560.6219 277.40057Q560.4344 277.18182 560.4344 276.86932ZM568.4344 277.52557L567.16876 277.52557L567.16876 269.1037L564.60626 270.02557L564.60626 268.88495L568.23126 267.52557L568.4344 267.52557L568.4344 277.52557ZM572.16876 269.4787Q572.16876 268.58807 572.73126 268.00995Q573.3094 267.43182 574.2 267.43182Q575.1219 267.43182 575.6844 268.02557Q576.2469 268.6037 576.2469 269.52557L576.2469 270.00995Q576.2469 270.9162 575.66876 271.49432Q575.10626 272.05682 574.21564 272.05682Q573.325 272.05682 572.7469 271.49432Q572.16876 270.9162 572.16876 269.96307L572.16876 269.4787ZM573.10626 270.00995Q573.10626 270.5412 573.40314 270.88495Q573.71564 271.2287 574.21564 271.2287Q574.7 271.2287 574.9969 270.90057Q575.29376 270.57245 575.29376 269.9787L575.29376 269.4787Q575.29376 268.94745 574.9969 268.6037Q574.71564 268.25995 574.2 268.25995Q573.7 268.25995 573.40314 268.6037Q573.10626 268.94745 573.10626 269.50995L573.10626 270.00995ZM577.0125 275.08807Q577.0125 274.18182 577.575 273.61932Q578.15314 273.0412 579.04376 273.0412Q579.95 273.0412 580.5125 273.61932Q581.09064 274.18182 581.09064 275.13495L581.09064 275.61932Q581.09064 276.50995 580.5125 277.08807Q579.95 277.6662 579.0594 277.6662Q578.1844 277.6662 577.59064 277.1037Q577.0125 276.52557 577.0125 275.57245L577.0125 275.08807ZM577.96564 275.61932Q577.96564 276.15057 578.2625 276.50995Q578.5594 276.8537 579.0594 276.8537Q579.5594 276.8537 579.85626 276.50995Q580.15314 276.1662 580.15314 275.58807L580.15314 275.08807Q580.15314 274.5412 579.84064 274.19745Q579.54376 273.8537 579.0594 273.8537Q578.5594 273.8537 578.2625 274.19745Q577.96564 274.5412 577.96564 275.11932L577.96564 275.61932ZM574.5125 276.77557L573.79376 276.32245L578.65314 268.5412L579.3719 268.99432L574.5125 276.77557Z" fill-rule="nonzero"/><path stroke="#757575" stroke-width="1.0" stroke-linecap="butt" d="M581.45 263.02557L454.76666 263.02557L428.2661 263.02557" fill-rule="nonzero"/><path fill="#9e9e9e" d="M430.2661 263.02557C430.2661 261.921 429.3707 261.02557 428.2661 261.02557C427.16156 261.02557 426.2661 261.921 426.2661 263.02557C426.2661 264.13013 427.16156 265.02557 428.2661 265.02557C429.3707 265.02557 430.2661 264.13013 430.2661 263.02557" fill-rule="nonzero"/><path fill="#757575" d="M572.71564 324.40314L572.71564 321.5594L569.60626 322.3719L569.60626 325.21564L572.71564 324.40314ZM573.10626 328.27814L572.71564 328.27814L572.71564 325.21564L569.21564 326.15314L569.21564 318.4969L569.60626 318.4969L569.60626 321.5594L573.10626 320.6219L573.10626 328.27814Z" fill-rule="nonzero"/><path fill="#757575" d="M580.5125 324.2Q580.5125 326.41876 579.7469 327.5125Q578.9969 328.59064 577.3875 328.59064Q575.79376 328.59064 575.02814 327.54376Q574.2625 326.48126 574.23126 324.3719L574.23126 322.6844Q574.23126 320.4969 574.98126 319.4344Q575.7469 318.35626 577.3719 318.35626Q578.98126 318.35626 579.73126 319.3875Q580.4969 320.41876 580.5125 322.5594L580.5125 324.2ZM579.2469 322.48126Q579.2469 320.8719 578.79376 320.1375Q578.35626 319.40314 577.3719 319.40314Q576.40314 319.40314 575.95 320.1375Q575.5125 320.85626 575.4969 322.3719L575.4969 324.40314Q575.4969 326.0125 575.96564 326.79376Q576.4344 327.5594 577.3875 327.5594Q578.325 327.5594 578.77814 326.84064Q579.23126 326.10626 579.2469 324.54376L579.2469 322.48126Z" fill-rule="nonzero"/><path fill="#9e9e9e" d="M548.4344 348.45L547.16876 348.45L547.16876 340.02814L544.60626 340.95L544.60626 339.8094L548.23126 338.45L548.4344 338.45L548.4344 348.45ZM557.1219 344.075Q556.73126 344.54376 556.16876 344.84064Q555.6219 345.1219 554.96564 345.1219Q554.10626 345.1219 553.46564 344.7Q552.825 344.27814 552.48126 343.5125Q552.1375 342.73126 552.1375 341.8094Q552.1375 340.8094 552.5125 340.0125Q552.8875 339.2 553.59064 338.77814Q554.29376 338.35626 555.21564 338.35626Q556.7 338.35626 557.54376 339.46564Q558.40314 340.575 558.40314 342.48126L558.40314 342.84064Q558.40314 345.7469 557.2469 347.09064Q556.10626 348.41876 553.77814 348.45L553.52814 348.45L553.52814 347.3875L553.8094 347.3875Q555.3719 347.35626 556.2 346.575Q557.04376 345.77814 557.1219 344.075ZM555.16876 344.075Q555.8094 344.075 556.34064 343.6844Q556.8875 343.29376 557.1375 342.71564L557.1375 342.21564Q557.1375 340.96564 556.59064 340.2Q556.04376 339.41876 555.23126 339.41876Q554.3875 339.41876 553.8719 340.0594Q553.3719 340.6844 553.3719 341.73126Q553.3719 342.7625 553.85626 343.41876Q554.35626 344.075 555.16876 344.075ZM560.4344 347.79376Q560.4344 347.46564 560.6219 347.2469Q560.825 347.02814 561.21564 347.02814Q561.60626 347.02814 561.8094 347.2469Q562.0125 347.46564 562.0125 347.79376Q562.0125 348.10626 561.8094 348.325Q561.60626 348.52814 561.21564 348.52814Q560.825 348.52814 560.6219 348.325Q560.4344 348.10626 560.4344 347.79376ZM570.5125 344.2Q570.5125 346.41876 569.7469 347.5125Q568.9969 348.59064 567.3875 348.59064Q565.79376 348.59064 565.02814 347.54376Q564.2625 346.48126 564.23126 344.3719L564.23126 342.6844Q564.23126 340.4969 564.98126 339.4344Q565.7469 338.35626 567.3719 338.35626Q568.98126 338.35626 569.73126 339.3875Q570.4969 340.41876 570.5125 342.5594L570.5125 344.2ZM569.2469 342.48126Q569.2469 340.8719 568.79376 340.1375Q568.35626 339.40314 567.3719 339.40314Q566.40314 339.40314 565.95 340.1375Q565.5125 340.85626 565.4969 342.3719L565.4969 344.40314Q565.4969 346.0125 565.96564 346.79376Q566.4344 347.5594 567.3875 347.5594Q568.325 347.5594 568.77814 346.84064Q569.23126 346.10626 569.2469 344.54376L569.2469 342.48126ZM572.16876 340.40314Q572.16876 339.5125 572.73126 338.9344Q573.3094 338.35626 574.2 338.35626Q575.1219 338.35626 575.6844 338.95Q576.2469 339.52814 576.2469 340.45L576.2469 340.9344Q576.2469 341.84064 575.66876 342.41876Q575.10626 342.98126 574.21564 342.98126Q573.325 342.98126 572.7469 342.41876Q572.16876 341.84064 572.16876 340.8875L572.16876 340.40314ZM573.10626 340.9344Q573.10626 341.46564 573.40314 341.8094Q573.71564 342.15314 574.21564 342.15314Q574.7 342.15314 574.9969 341.825Q575.29376 341.4969 575.29376 340.90314L575.29376 340.40314Q575.29376 339.8719 574.9969 339.52814Q574.71564 339.1844 574.2 339.1844Q573.7 339.1844 573.40314 339.52814Q573.10626 339.8719 573.10626 340.4344L573.10626 340.9344ZM577.0125 346.0125Q577.0125 345.10626 577.575 344.54376Q578.15314 343.96564 579.04376 343.96564Q579.95 343.96564 580.5125 344.54376Q581.09064 345.10626 581.09064 346.0594L581.09064 346.54376Q581.09064 347.4344 580.5125 348.0125Q579.95 348.59064 579.0594 348.59064Q578.1844 348.59064 577.59064 348.02814Q577.0125 347.45 577.0125 346.4969L577.0125 346.0125ZM577.96564 346.54376Q577.96564 347.075 578.2625 347.4344Q578.5594 347.77814 579.0594 347.77814Q579.5594 347.77814 579.85626 347.4344Q580.15314 347.09064 580.15314 346.5125L580.15314 346.0125Q580.15314 345.46564 579.84064 345.1219Q579.54376 344.77814 579.0594 344.77814Q578.5594 344.77814 578.2625 345.1219Q577.96564 345.46564 577.96564 346.04376L577.96564 346.54376ZM574.5125 347.7L573.79376 347.2469L578.65314 339.46564L579.3719 339.91876L574.5125 347.7Z" fill-rule="nonzero"/><path stroke="#757575" stroke-width="1.0" stroke-linecap="butt" d="M581.45 333.95L454.76666 333.95L322.86438 343.14987" fill-rule="nonzero"/><path fill="#9e9e9e" d="M324.86438 343.14987C324.86438 342.04532 323.96896 341.14987 322.86438 341.14987C321.7598 341.14987 320.86438 342.04532 320.86438 343.14987C320.86438 344.25446 321.7598 345.14987 322.86438 345.14987C323.96896 345.14987 324.86438 344.25446 324.86438 343.14987" fill-rule="nonzero"/><path fill="#757575" d="M28.2375 23.409374Q25.971874 26.6125 23.784374 28.096874L33.628124 28.096874Q31.05 26.690624 28.2375 23.409374ZM23.08125 28.565624Q21.9875 29.190624 20.503124 29.971874L19.721874 28.33125Q25.034374 26.065624 27.534374 21.221874L29.253124 21.45625Q29.878124 21.690624 29.175 21.846874L29.01875 22.08125Q32.534374 26.378124 37.378124 27.8625L36.596874 29.58125Q35.659374 29.26875 33.940624 28.253124L33.940624 29.58125L29.33125 29.58125L29.33125 32.2375L34.409374 32.2375L34.409374 33.721874L29.33125 33.721874L29.33125 36.76875L36.51875 36.76875L36.51875 38.253124L20.58125 38.253124L20.58125 36.76875L27.76875 36.76875L27.76875 33.721874L22.690624 33.721874L22.690624 32.2375L27.76875 32.2375L27.76875 29.58125L23.08125 29.58125L23.08125 28.565624ZM55.425 25.284374Q52.690624 25.284374 51.128124 25.83125Q49.409374 26.45625 47.925 27.940624Q46.440624 29.425 46.440624 31.76875Q46.440624 33.64375 47.6125 34.815624Q49.175 36.378124 53.628124 36.534374L53.003124 38.253124Q48.39375 38.01875 46.596874 36.221874Q44.8 34.425 44.8 31.846874Q44.8 28.175 47.690624 26.065624Q44.01875 26.6125 40.190624 27.159374L39.721874 25.3625Q47.378124 24.815624 55.1125 23.4875L55.425 25.284374ZM67.33125 26.534374Q66.00313 34.346874 64.12813 36.221874Q63.1125 37.2375 62.01875 37.2375Q60.76875 37.2375 60.065624 36.534374Q58.190624 34.659374 58.190624 31.846874Q58.190624 28.409374 60.6125 25.9875Q63.26875 23.33125 67.09688 23.33125Q70.53438 23.33125 72.4875 25.284374Q74.675 27.471874 74.675 30.440624Q74.675 33.64375 72.64375 35.675Q71.31563 37.003124 68.58125 38.253124L66.94063 36.6125Q69.675 35.753124 71.2375 34.190624Q72.72188 32.70625 72.72188 30.596874Q72.72188 28.096874 71.08125 26.45625Q69.44063 24.815624 65.925 24.971874L67.33125 25.675Q68.26875 26.065624 67.33125 26.534374ZM65.53438 25.05Q63.503124 25.51875 62.01875 27.003124Q59.9875 29.034374 59.9875 32.003124Q59.9875 33.8 61.159374 34.971874Q61.39375 35.20625 61.8625 35.20625Q62.33125 35.20625 62.878124 34.659374Q64.675 32.8625 65.53438 25.05ZM90.45625 36.76875L90.45625 34.89375L82.56563 34.89375L82.56563 36.76875L90.45625 36.76875ZM84.675 27.471874L88.34688 27.471874L89.3625 24.58125L83.58125 24.58125L84.675 27.471874ZM95.3 27.471874L95.3 28.95625L77.56563 28.95625L77.56563 27.471874L83.1125 27.471874L81.8625 24.58125L79.3625 24.58125L79.3625 23.096874L85.69063 23.096874L85.69063 21.221874L87.175 21.221874Q87.8 21.3 87.25313 21.690624L87.25313 23.096874L93.65938 23.096874L93.65938 24.58125L91.15938 24.58125L89.83125 27.471874L95.3 27.471874ZM90.45625 33.409374L90.45625 31.76875L82.56563 31.76875L82.56563 33.409374L90.45625 33.409374ZM92.01875 38.878124L90.45625 38.878124L90.45625 38.253124L82.56563 38.253124L82.56563 39.26875L81.00313 39.26875L81.00313 30.284374L92.01875 30.284374L92.01875 38.878124ZM106.55 23.4875L109.83125 23.4875L109.83125 30.83125L108.50313 30.83125L108.50313 30.51875L107.33125 30.51875L107.33125 32.003124L114.9875 32.003124L114.9875 33.4875L108.19063 33.4875Q111.39375 36.065624 115.45625 36.6125L114.9875 38.409374Q109.75313 37.159374 107.33125 34.346874L107.33125 39.190624L105.76875 39.190624L105.76875 34.815624Q103.03438 37.315624 98.425 38.721874L97.72188 37.003124Q102.09688 36.065624 105.22188 33.4875L98.1125 33.4875L98.1125 32.003124L105.76875 32.003124L105.76875 30.51875L104.59688 30.51875L104.59688 30.9875L103.26875 30.9875L103.26875 23.4875L105.3 23.4875L105.76875 21.378124L107.4875 21.690624Q107.8 21.76875 107.25313 22.159374L106.55 23.4875ZM114.05 23.878124Q113.1125 24.7375 111.55 26.065624L110.3 24.971874Q111.94063 23.565624 113.03438 22.39375L114.44063 23.64375Q114.51875 24.034374 114.05 23.878124ZM104.59688 29.26875L108.50313 29.26875L108.50313 27.628124L104.59688 27.628124L104.59688 29.26875ZM104.59688 24.7375L104.59688 26.378124L108.50313 26.378124L108.50313 24.7375L104.59688 24.7375ZM113.81563 30.440624Q112.09688 28.95625 110.3 27.940624L111.31563 26.6125Q112.87813 27.315624 114.9875 28.95625L113.81563 30.440624ZM99.44063 30.753124Q99.3625 31.221874 99.05 30.909374L98.1125 29.346874Q100.14375 28.33125 101.8625 26.76875L102.72188 28.096874Q101.62813 29.190624 99.44063 30.753124ZM101.47188 26.14375Q100.14375 25.20625 98.81563 24.425L99.75313 23.01875Q101.39375 23.8 102.4875 24.503124L101.47188 26.14375ZM127.33125 26.534374Q126.00313 34.346874 124.12813 36.221874Q123.1125 37.2375 122.01875 37.2375Q120.76875 37.2375 120.06563 36.534374Q118.19063 34.659374 118.19063 31.846874Q118.19063 28.409374 120.6125 25.9875Q123.26875 23.33125 127.09688 23.33125Q130.53438 23.33125 132.4875 25.284374Q134.675 27.471874 134.675 30.440624Q134.675 33.64375 132.64375 35.675Q131.31563 37.003124 128.58125 38.253124L126.94063 36.6125Q129.675 35.753124 131.2375 34.190624Q132.72188 32.70625 132.72188 30.596874Q132.72188 28.096874 131.08125 26.45625Q129.44063 24.815624 125.925 24.971874L127.33125 25.675Q128.26875 26.065624 127.33125 26.534374ZM125.53438 25.05Q123.50313 25.51875 122.01875 27.003124Q119.9875 29.034374 119.9875 32.003124Q119.9875 33.8 121.15938 34.971874Q121.39375 35.20625 121.8625 35.20625Q122.33125 35.20625 122.87813 34.659374Q124.675 32.8625 125.53438 25.05ZM142.40938 38.95625L142.40938 38.409374L139.675 38.409374L139.675 39.26875L138.34688 39.26875L138.34688 32.8625L143.7375 32.8625L143.7375 38.95625L142.40938 38.95625ZM145.76875 22.003124L154.75313 22.003124L154.75313 38.096874Q154.75313 39.190624 153.81563 39.190624L151.94063 39.190624L151.62813 37.70625L153.1125 37.70625Q153.425 37.70625 153.425 37.39375L153.425 23.4875L147.09688 23.4875L147.09688 32.39375Q147.09688 36.45625 145.06563 39.190624L143.89375 37.940624Q145.76875 35.3625 145.76875 31.690624L145.76875 22.003124ZM151.00313 28.721874L152.64375 28.721874L152.64375 29.971874L147.95625 29.971874L147.95625 28.721874L149.675 28.721874L149.675 26.846874L147.95625 26.846874L147.95625 25.596874L149.675 25.596874L149.675 24.034374L150.925 24.034374Q151.55 24.1125 151.00313 24.503124L151.00313 25.596874L152.72188 25.596874L152.72188 26.846874L151.00313 26.846874L151.00313 28.721874ZM139.675 37.159374L142.40938 37.159374L142.40938 34.1125L139.675 34.1125L139.675 37.159374ZM138.58125 30.128124L143.7375 30.128124L143.7375 31.6125L138.58125 31.6125L138.58125 30.128124ZM138.58125 21.925L143.7375 21.925L143.7375 23.409374L138.58125 23.409374L138.58125 21.925ZM144.75313 24.659374L144.75313 26.14375L137.64375 26.14375L137.64375 24.659374L144.75313 24.659374ZM138.58125 28.878124L138.58125 27.39375L143.7375 27.39375L143.7375 28.878124L138.58125 28.878124ZM149.44063 37.315624L148.1125 37.315624L148.1125 31.378124L152.25313 31.378124L152.25313 36.221874L149.44063 36.221874L149.44063 37.315624ZM149.44063 32.628124L149.44063 34.971874L150.925 34.971874L150.925 32.628124L149.44063 32.628124ZM160.45625 34.971874Q161.78438 32.628124 162.40938 30.675L157.40938 30.675L157.40938 29.190624L175.45625 29.190624L175.45625 30.675L164.20625 30.675Q163.89375 31.6125 163.58125 32.315624L172.87813 32.315624Q172.25313 37.003124 171.15938 38.4875Q170.53438 39.26875 168.81563 39.1125L166.70625 38.878124L166.62813 37.159374L169.05 37.39375Q169.83125 37.471874 170.22188 36.6125Q170.37813 36.221874 170.925 33.8L163.1125 33.8Q162.8 34.58125 162.25313 35.51875L160.45625 34.971874ZM162.25313 23.409374L162.25313 25.9875L170.6125 25.9875L170.6125 23.409374L162.25313 23.409374ZM170.6125 28.01875L170.6125 27.471874L162.25313 27.471874L162.25313 28.175L160.69063 28.175L160.69063 21.925L172.175 21.925L172.175 28.01875L170.6125 28.01875Z" fill-rule="nonzero"/><path fill="#757575" d="M191.05 33.83125L185.09688 33.83125L183.75313 37.55L181.83125 37.55L187.25313 23.33125L188.89375 23.33125L194.33125 37.55L192.40938 37.55L191.05 33.83125ZM185.65938 32.3L190.50313 32.3L188.08125 25.64375L185.65938 32.3ZM197.87813 37.55L196.08125 37.55L196.08125 22.55L197.87813 22.55L197.87813 37.55ZM202.87813 37.55L201.08125 37.55L201.08125 22.55L202.87813 22.55L202.87813 37.55ZM212.6125 26.9875L212.65938 28.159374Q213.83125 26.784374 215.8 26.784374Q218.01875 26.784374 218.81563 28.4875Q219.34688 27.721874 220.19063 27.253124Q221.03438 26.784374 222.19063 26.784374Q225.65938 26.784374 225.72188 30.471874L225.72188 37.55L223.90938 37.55L223.90938 30.58125Q223.90938 29.440624 223.39375 28.878124Q222.87813 28.315624 221.65938 28.315624Q220.65938 28.315624 219.9875 28.925Q219.33125 29.51875 219.22188 30.534374L219.22188 37.55L217.40938 37.55L217.40938 30.628124Q217.40938 28.315624 215.14375 28.315624Q213.3625 28.315624 212.72188 29.83125L212.72188 37.55L210.90938 37.55L210.90938 26.9875L212.6125 26.9875ZM235.44063 36.503124Q234.39375 37.753124 232.34688 37.753124Q230.65938 37.753124 229.76875 36.76875Q228.89375 35.784374 228.87813 33.8625L228.87813 26.9875L230.69063 26.9875L230.69063 33.815624Q230.69063 36.20625 232.64375 36.20625Q234.70625 36.20625 235.39375 34.675L235.39375 26.9875L237.20625 26.9875L237.20625 37.55L235.4875 37.55L235.44063 36.503124ZM246.06563 34.753124Q246.06563 34.01875 245.51875 33.6125Q244.97188 33.20625 243.59688 32.909374Q242.22188 32.6125 241.40938 32.20625Q240.6125 31.8 240.22188 31.2375Q239.84688 30.659374 239.84688 29.878124Q239.84688 28.58125 240.94063 27.690624Q242.03438 26.784374 243.75313 26.784374Q245.55 26.784374 246.65938 27.721874Q247.78438 28.64375 247.78438 30.08125L245.95625 30.08125Q245.95625 29.346874 245.33125 28.815624Q244.70625 28.26875 243.75313 28.26875Q242.75313 28.26875 242.19063 28.70625Q241.64375 29.128124 241.64375 29.83125Q241.64375 30.471874 242.15938 30.815624Q242.675 31.14375 244.03438 31.45625Q245.39375 31.753124 246.22188 32.175Q247.06563 32.58125 247.47188 33.175Q247.87813 33.76875 247.87813 34.6125Q247.87813 36.034374 246.7375 36.89375Q245.6125 37.753124 243.8 37.753124Q242.53438 37.753124 241.55 37.3Q240.58125 36.846874 240.01875 36.05Q239.47188 35.2375 239.47188 34.3L241.28438 34.3Q241.33125 35.20625 242.00313 35.7375Q242.69063 36.26875 243.8 36.26875Q244.83125 36.26875 245.44063 35.8625Q246.06563 35.440624 246.06563 34.753124ZM251.87813 37.55L250.08125 37.55L250.08125 26.9875L251.87813 26.9875L251.87813 37.55ZM249.925 24.175Q249.925 23.7375 250.19063 23.440624Q250.47188 23.128124 250.9875 23.128124Q251.51875 23.128124 251.78438 23.440624Q252.06563 23.7375 252.06563 24.175Q252.06563 24.6125 251.78438 24.909374Q251.51875 25.20625 250.9875 25.20625Q250.47188 25.20625 250.19063 24.909374Q249.925 24.6125 249.925 24.175ZM259.15936 36.26875Q260.1281 36.26875 260.84686 35.690624Q261.5656 35.096874 261.64374 34.221874L263.3625 34.221874Q263.3 35.128124 262.72186 35.95625Q262.15936 36.76875 261.1906 37.26875Q260.2375 37.753124 259.15936 37.753124Q257.0031 37.753124 255.72188 36.315624Q254.45625 34.8625 254.45625 32.3625L254.45625 32.065624Q254.45625 30.51875 255.01875 29.315624Q255.58125 28.1125 256.64374 27.45625Q257.70624 26.784374 259.14374 26.784374Q260.925 26.784374 262.09686 27.846874Q263.28436 28.909374 263.3625 30.6125L261.64374 30.6125Q261.5656 29.596874 260.8625 28.940624Q260.175 28.26875 259.14374 28.26875Q257.76874 28.26875 257.0031 29.26875Q256.2531 30.253124 256.2531 32.128124L256.2531 32.471874Q256.2531 34.3 257.0031 35.284374Q257.7531 36.26875 259.15936 36.26875ZM272.8625 32.659374L271.7375 33.83125L271.7375 37.55L269.925 37.55L269.925 22.55L271.7375 22.55L271.7375 31.628124L272.70624 30.45625L275.9875 26.9875L278.1906 26.9875L274.08124 31.39375L278.675 37.55L276.55 37.55L272.8625 32.659374ZM284.3 37.753124Q282.15936 37.753124 280.8 36.346874Q279.45624 34.925 279.45624 32.565624L279.45624 32.221874Q279.45624 30.659374 280.05 29.425Q280.65936 28.190624 281.7375 27.4875Q282.8156 26.784374 284.08124 26.784374Q286.14374 26.784374 287.28436 28.14375Q288.425 29.503124 288.425 32.034374L288.425 32.784374L281.26874 32.784374Q281.3 34.346874 282.175 35.315624Q283.05 36.26875 284.39374 36.26875Q285.3625 36.26875 286.01874 35.878124Q286.6906 35.4875 287.1906 34.846874L288.28436 35.70625Q286.95624 37.753124 284.3 37.753124ZM284.08124 28.26875Q282.9875 28.26875 282.2375 29.065624Q281.5031 29.8625 281.33124 31.3L286.6125 31.3L286.6125 31.159374Q286.53436 29.784374 285.8625 29.034374Q285.20624 28.26875 284.08124 28.26875ZM294.3781 34.909374L296.83124 26.9875L298.76874 26.9875L294.51874 39.175Q293.53436 41.815624 291.39374 41.815624L291.05 41.784374L290.3781 41.659374L290.3781 40.190624L290.8625 40.2375Q291.78436 40.2375 292.28436 39.8625Q292.8 39.4875 293.1281 38.503124L293.53436 37.425L289.76874 26.9875L291.7375 26.9875L294.3781 34.909374ZM311.0656 34.753124Q311.0656 34.01875 310.51874 33.6125Q309.97186 33.20625 308.59686 32.909374Q307.22186 32.6125 306.40936 32.20625Q305.6125 31.8 305.22186 31.2375Q304.84686 30.659374 304.84686 29.878124Q304.84686 28.58125 305.9406 27.690624Q307.03436 26.784374 308.7531 26.784374Q310.55 26.784374 311.65936 27.721874Q312.78436 28.64375 312.78436 30.08125L310.95624 30.08125Q310.95624 29.346874 310.33124 28.815624Q309.70624 28.26875 308.7531 28.26875Q307.7531 28.26875 307.1906 28.70625Q306.64374 29.128124 306.64374 29.83125Q306.64374 30.471874 307.15936 30.815624Q307.675 31.14375 309.03436 31.45625Q310.39374 31.753124 311.22186 32.175Q312.0656 32.58125 312.47186 33.175Q312.8781 33.76875 312.8781 34.6125Q312.8781 36.034374 311.7375 36.89375Q310.6125 37.753124 308.8 37.753124Q307.53436 37.753124 306.55 37.3Q305.58124 36.846874 305.01874 36.05Q304.47186 35.2375 304.47186 34.3L306.28436 34.3Q306.33124 35.20625 307.0031 35.7375Q307.6906 36.26875 308.8 36.26875Q309.83124 36.26875 310.4406 35.8625Q311.0656 35.440624 311.0656 34.753124ZM316.8781 37.55L315.08124 37.55L315.08124 26.9875L316.8781 26.9875L316.8781 37.55ZM314.925 24.175Q314.925 23.7375 315.1906 23.440624Q315.47186 23.128124 315.9875 23.128124Q316.51874 23.128124 316.78436 23.440624Q317.0656 23.7375 317.0656 24.175Q317.0656 24.6125 316.78436 24.909374Q316.51874 25.20625 315.9875 25.20625Q315.47186 25.20625 315.1906 24.909374Q314.925 24.6125 314.925 24.175ZM319.4875 32.175Q319.4875 29.70625 320.6281 28.253124Q321.76874 26.784374 323.65936 26.784374Q325.59686 26.784374 326.675 28.159374L326.76874 26.9875L328.40936 26.9875L328.40936 37.3Q328.40936 39.346874 327.1906 40.51875Q325.9875 41.70625 323.925 41.70625Q322.78436 41.70625 321.6906 41.221874Q320.59686 40.7375 320.01874 39.878124L320.95624 38.8Q322.1281 40.2375 323.8 40.2375Q325.1281 40.2375 325.8625 39.4875Q326.59686 38.753124 326.59686 37.409374L326.59686 36.4875Q325.51874 37.753124 323.64374 37.753124Q321.78436 37.753124 320.6281 36.253124Q319.4875 34.753124 319.4875 32.175ZM321.3 32.378124Q321.3 34.175 322.03436 35.190624Q322.76874 36.20625 324.08124 36.20625Q325.8 36.20625 326.59686 34.659374L326.59686 29.83125Q325.76874 28.315624 324.1125 28.315624Q322.78436 28.315624 322.03436 29.346874Q321.3 30.378124 321.3 32.378124ZM332.6281 26.9875L332.6906 28.315624Q333.89374 26.784374 335.84686 26.784374Q339.20624 26.784374 339.22186 30.565624L339.22186 37.55L337.425 37.55L337.425 30.55Q337.40936 29.409374 336.89374 28.8625Q336.39374 28.315624 335.3 28.315624Q334.425 28.315624 333.7531 28.784374Q333.09686 29.253124 332.72186 30.01875L332.72186 37.55L330.925 37.55L330.925 26.9875L332.6281 26.9875ZM348.4406 37.55Q348.28436 37.2375 348.1906 36.440624Q346.925 37.753124 345.175 37.753124Q343.6125 37.753124 342.6125 36.8625Q341.6125 35.971874 341.6125 34.6125Q341.6125 32.971874 342.8625 32.065624Q344.1281 31.14375 346.39374 31.14375L348.15936 31.14375L348.15936 30.315624Q348.15936 29.3625 347.58124 28.8Q347.01874 28.2375 345.925 28.2375Q344.95624 28.2375 344.3 28.7375Q343.64374 29.221874 343.64374 29.909374L341.83124 29.909374Q341.83124 29.128124 342.39374 28.39375Q342.95624 27.64375 343.90936 27.221874Q344.8781 26.784374 346.03436 26.784374Q347.8625 26.784374 348.89374 27.70625Q349.925 28.6125 349.97186 30.221874L349.97186 35.08125Q349.97186 36.534374 350.33124 37.39375L350.33124 37.55L348.4406 37.55ZM345.4406 36.175Q346.3 36.175 347.05 35.7375Q347.8156 35.3 348.15936 34.596874L348.15936 32.425L346.7375 32.425Q343.425 32.425 343.425 34.3625Q343.425 35.221874 343.9875 35.70625Q344.55 36.175 345.4406 36.175ZM355.3625 24.425L355.3625 26.9875L357.34686 26.9875L357.34686 28.378124L355.3625 28.378124L355.3625 34.925Q355.3625 35.565624 355.6281 35.89375Q355.89374 36.20625 356.53436 36.20625Q356.84686 36.20625 357.39374 36.08125L357.39374 37.55Q356.675 37.753124 356.0031 37.753124Q354.8 37.753124 354.175 37.01875Q353.5656 36.284374 353.5656 34.925L353.5656 28.378124L351.64374 28.378124L351.64374 26.9875L353.5656 26.9875L353.5656 24.425L355.3625 24.425ZM366.4406 36.503124Q365.39374 37.753124 363.34686 37.753124Q361.65936 37.753124 360.76874 36.76875Q359.89374 35.784374 359.8781 33.8625L359.8781 26.9875L361.6906 26.9875L361.6906 33.815624Q361.6906 36.20625 363.64374 36.20625Q365.70624 36.20625 366.39374 34.675L366.39374 26.9875L368.20624 26.9875L368.20624 37.55L366.4875 37.55L366.4406 36.503124ZM376.01874 28.596874Q375.6125 28.534374 375.14374 28.534374Q373.3625 28.534374 372.72186 30.05L372.72186 37.55L370.925 37.55L370.925 26.9875L372.675 26.9875L372.70624 28.20625Q373.59686 26.784374 375.22186 26.784374Q375.7531 26.784374 376.01874 26.925L376.01874 28.596874ZM382.3 37.753124Q380.15936 37.753124 378.8 36.346874Q377.45624 34.925 377.45624 32.565624L377.45624 32.221874Q377.45624 30.659374 378.05 29.425Q378.65936 28.190624 379.7375 27.4875Q380.8156 26.784374 382.08124 26.784374Q384.14374 26.784374 385.28436 28.14375Q386.425 29.503124 386.425 32.034374L386.425 32.784374L379.26874 32.784374Q379.3 34.346874 380.175 35.315624Q381.05 36.26875 382.39374 36.26875Q383.3625 36.26875 384.01874 35.878124Q384.6906 35.4875 385.1906 34.846874L386.28436 35.70625Q384.95624 37.753124 382.3 37.753124ZM382.08124 28.26875Q380.9875 28.26875 380.2375 29.065624Q379.5031 29.8625 379.33124 31.3L384.6125 31.3L384.6125 31.159374Q384.53436 29.784374 383.8625 29.034374Q383.20624 28.26875 382.08124 28.26875ZM395.0656 34.753124Q395.0656 34.01875 394.51874 33.6125Q393.97186 33.20625 392.59686 32.909374Q391.22186 32.6125 390.40936 32.20625Q389.6125 31.8 389.22186 31.2375Q388.84686 30.659374 388.84686 29.878124Q388.84686 28.58125 389.9406 27.690624Q391.03436 26.784374 392.7531 26.784374Q394.55 26.784374 395.65936 27.721874Q396.78436 28.64375 396.78436 30.08125L394.95624 30.08125Q394.95624 29.346874 394.33124 28.815624Q393.70624 28.26875 392.7531 28.26875Q391.7531 28.26875 391.1906 28.70625Q390.64374 29.128124 390.64374 29.83125Q390.64374 30.471874 391.15936 30.815624Q391.675 31.14375 393.03436 31.45625Q394.39374 31.753124 395.22186 32.175Q396.0656 32.58125 396.47186 33.175Q396.8781 33.76875 396.8781 34.6125Q396.8781 36.034374 395.7375 36.89375Q394.6125 37.753124 392.8 37.753124Q391.53436 37.753124 390.55 37.3Q389.58124 36.846874 389.01874 36.05Q388.47186 35.2375 388.47186 34.3L390.28436 34.3Q390.33124 35.20625 391.0031 35.7375Q391.6906 36.26875 392.8 36.26875Q393.83124 36.26875 394.4406 35.8625Q395.0656 35.440624 395.0656 34.753124Z" fill-rule="nonzero"/></svg>