<svg version="1.1" viewBox="0.0 0.0 600.0 371.0" fill="none" stroke="none" stroke-linecap="square" stroke-miterlimit="10" width="600" height="371" xmlns:xlink="http://www.w3.org/1999/xlink" xmlns="http://www.w3.org/2000/svg"><path fill="#ffffff" d="M0 0L600.0 0L600.0 371.0L0 371.0L0 0Z" fill-rule="nonzero"/><path stroke="#333333" stroke-width="1.0" stroke-linecap="butt" d="M45.5 298.5L581.5 298.5" fill-rule="nonzero"/><path stroke="#cccccc" stroke-width="1.0" stroke-linecap="butt" d="M45.5 239.5L581.5 239.5" fill-rule="nonzero"/><path stroke="#cccccc" stroke-width="1.0" stroke-linecap="butt" d="M45.5 180.5L581.5 180.5" fill-rule="nonzero"/><path stroke="#cccccc" stroke-width="1.0" stroke-linecap="butt" d="M45.5 121.5L581.5 121.5" fill-rule="nonzero"/><path stroke="#cccccc" stroke-width="1.0" stroke-linecap="butt" d="M45.5 62.5L581.5 62.5" fill-rule="nonzero"/><clipPath id="id_0"><path d="M45.55 62.416668L581.45 62.416668L581.45 298.45L45.55 298.45L45.55 62.416668Z" clip-rule="nonzero"/></clipPath><path stroke="#000000" stroke-width="2.0" stroke-linecap="butt" stroke-opacity="0.0" clip-path="url(#id_0)" d="M81.0 298.0L58.0 298.0L58.0 298.0L81.0 298.0Z" fill-rule="nonzero"/><path fill="#4285f4" clip-path="url(#id_0)" d="M81.0 298.0L58.0 298.0L58.0 298.0L81.0 298.0Z" fill-rule="nonzero"/><path stroke="#000000" stroke-width="2.0" stroke-linecap="butt" stroke-opacity="0.0" clip-path="url(#id_0)" d="M116.0 298.0L93.0 298.0L93.0 182.0C93.0 180.89543 93.89543 180.0 95.0 180.0L114.0 180.0C115.10457 180.0 116.0 180.89543 116.0 182.0Z" fill-rule="nonzero"/><path fill="#4285f4" clip-path="url(#id_0)" d="M116.0 298.0L93.0 298.0L93.0 182.0C93.0 180.89543 93.89543 180.0 95.0 180.0L114.0 180.0C115.10457 180.0 116.0 180.89543 116.0 182.0Z" fill-rule="nonzero"/><path stroke="#000000" stroke-width="2.0" stroke-linecap="butt" stroke-opacity="0.0" clip-path="url(#id_0)" d="M151.0 298.0L128.0 298.0L128.0 241.0C128.0 239.89543 128.89543 239.0 130.0 239.0L149.0 239.0C150.10457 239.0 151.0 239.89543 151.0 241.0Z" fill-rule="nonzero"/><path fill="#4285f4" clip-path="url(#id_0)" d="M151.0 298.0L128.0 298.0L128.0 241.0C128.0 239.89543 128.89543 239.0 130.0 239.0L149.0 239.0C150.10457 239.0 151.0 239.89543 151.0 241.0Z" fill-rule="nonzero"/><path stroke="#000000" stroke-width="2.0" stroke-linecap="butt" stroke-opacity="0.0" clip-path="url(#id_0)" d="M186.0 298.0L163.0 298.0L163.0 241.0C163.0 239.89543 163.89543 239.0 165.0 239.0L184.0 239.0C185.10457 239.0 186.0 239.89543 186.0 241.0Z" fill-rule="nonzero"/><path fill="#4285f4" clip-path="url(#id_0)" d="M186.0 298.0L163.0 298.0L163.0 241.0C163.0 239.89543 163.89543 239.0 165.0 239.0L184.0 239.0C185.10457 239.0 186.0 239.89543 186.0 241.0Z" fill-rule="nonzero"/><path stroke="#000000" stroke-width="2.0" stroke-linecap="butt" stroke-opacity="0.0" clip-path="url(#id_0)" d="M221.0 298.0L198.0 298.0L198.0 182.0C198.0 180.89543 198.89543 180.0 200.0 180.0L219.0 180.0C220.10457 180.0 221.0 180.89543 221.0 182.0Z" fill-rule="nonzero"/><path fill="#4285f4" clip-path="url(#id_0)" d="M221.0 298.0L198.0 298.0L198.0 182.0C198.0 180.89543 198.89543 180.0 200.0 180.0L219.0 180.0C220.10457 180.0 221.0 180.89543 221.0 182.0Z" fill-rule="nonzero"/><path stroke="#000000" stroke-width="2.0" stroke-linecap="butt" stroke-opacity="0.0" clip-path="url(#id_0)" d="M256.0 298.0L233.0 298.0L233.0 298.0L256.0 298.0Z" fill-rule="nonzero"/><path fill="#4285f4" clip-path="url(#id_0)" d="M256.0 298.0L233.0 298.0L233.0 298.0L256.0 298.0Z" fill-rule="nonzero"/><path stroke="#000000" stroke-width="2.0" stroke-linecap="butt" stroke-opacity="0.0" clip-path="url(#id_0)" d="M291.0 298.0L268.0 298.0L268.0 241.0C268.0 239.89543 268.89542 239.0 270.0 239.0L289.0 239.0C290.10458 239.0 291.0 239.89543 291.0 241.0Z" fill-rule="nonzero"/><path fill="#4285f4" clip-path="url(#id_0)" d="M291.0 298.0L268.0 298.0L268.0 241.0C268.0 239.89543 268.89542 239.0 270.0 239.0L289.0 239.0C290.10458 239.0 291.0 239.89543 291.0 241.0Z" fill-rule="nonzero"/><path stroke="#000000" stroke-width="2.0" stroke-linecap="butt" stroke-opacity="0.0" clip-path="url(#id_0)" d="M326.0 298.0L303.0 298.0L303.0 298.0L326.0 298.0Z" fill-rule="nonzero"/><path fill="#4285f4" clip-path="url(#id_0)" d="M326.0 298.0L303.0 298.0L303.0 298.0L326.0 298.0Z" fill-rule="nonzero"/><path stroke="#000000" stroke-width="2.0" stroke-linecap="butt" stroke-opacity="0.0" clip-path="url(#id_0)" d="M360.0 298.0L337.0 298.0L337.0 64.0C337.0 62.89543 337.89542 62.0 339.0 62.0L358.0 62.0C359.10458 62.0 360.0 62.89543 360.0 64.0Z" fill-rule="nonzero"/><path fill="#4285f4" clip-path="url(#id_0)" d="M360.0 298.0L337.0 298.0L337.0 64.0C337.0 62.89543 337.89542 62.0 339.0 62.0L358.0 62.0C359.10458 62.0 360.0 62.89543 360.0 64.0Z" fill-rule="nonzero"/><path stroke="#000000" stroke-width="2.0" stroke-linecap="butt" stroke-opacity="0.0" clip-path="url(#id_0)" d="M395.0 298.0L372.0 298.0L372.0 241.0C372.0 239.89543 372.89542 239.0 374.0 239.0L393.0 239.0C394.10458 239.0 395.0 239.89543 395.0 241.0Z" fill-rule="nonzero"/><path fill="#4285f4" clip-path="url(#id_0)" d="M395.0 298.0L372.0 298.0L372.0 241.0C372.0 239.89543 372.89542 239.0 374.0 239.0L393.0 239.0C394.10458 239.0 395.0 239.89543 395.0 241.0Z" fill-rule="nonzero"/><path stroke="#000000" stroke-width="2.0" stroke-linecap="butt" stroke-opacity="0.0" clip-path="url(#id_0)" d="M430.0 298.0L407.0 298.0L407.0 241.0C407.0 239.89543 407.89542 239.0 409.0 239.0L428.0 239.0C429.10458 239.0 430.0 239.89543 430.0 241.0Z" fill-rule="nonzero"/><path fill="#4285f4" clip-path="url(#id_0)" d="M430.0 298.0L407.0 298.0L407.0 241.0C407.0 239.89543 407.89542 239.0 409.0 239.0L428.0 239.0C429.10458 239.0 430.0 239.89543 430.0 241.0Z" fill-rule="nonzero"/><path stroke="#000000" stroke-width="2.0" stroke-linecap="butt" stroke-opacity="0.0" clip-path="url(#id_0)" d="M465.0 298.0L442.0 298.0L442.0 298.0L465.0 298.0Z" fill-rule="nonzero"/><path fill="#4285f4" clip-path="url(#id_0)" d="M465.0 298.0L442.0 298.0L442.0 298.0L465.0 298.0Z" fill-rule="nonzero"/><path stroke="#000000" stroke-width="2.0" stroke-linecap="butt" stroke-opacity="0.0" clip-path="url(#id_0)" d="M500.0 298.0L477.0 298.0L477.0 298.0L500.0 298.0Z" fill-rule="nonzero"/><path fill="#4285f4" clip-path="url(#id_0)" d="M500.0 298.0L477.0 298.0L477.0 298.0L500.0 298.0Z" fill-rule="nonzero"/><path stroke="#000000" stroke-width="2.0" stroke-linecap="butt" stroke-opacity="0.0" clip-path="url(#id_0)" d="M535.0 298.0L512.0 298.0L512.0 298.0L535.0 298.0Z" fill-rule="nonzero"/><path fill="#4285f4" clip-path="url(#id_0)" d="M535.0 298.0L512.0 298.0L512.0 298.0L535.0 298.0Z" fill-rule="nonzero"/><path stroke="#000000" stroke-width="2.0" stroke-linecap="butt" stroke-opacity="0.0" clip-path="url(#id_0)" d="M570.0 298.0L547.0 298.0L547.0 298.0L570.0 298.0Z" fill-rule="nonzero"/><path fill="#4285f4" clip-path="url(#id_0)" d="M570.0 298.0L547.0 298.0L547.0 298.0L570.0 298.0Z" fill-rule="nonzero"/><path fill="#424242" d="M263.01562 350.29376L263.01562 349.96564L261.375 349.96564L261.375 350.48126L260.57812 350.48126L260.57812 346.6375L263.8125 346.6375L263.8125 350.29376L263.01562 350.29376ZM265.03125 340.1219L270.42188 340.1219L270.42188 349.77814Q270.42188 350.4344 269.85938 350.4344L268.73438 350.4344L268.54688 349.54376L269.4375 349.54376Q269.625 349.54376 269.625 349.35626L269.625 341.0125L265.82812 341.0125L265.82812 346.35626Q265.82812 348.79376 264.60938 350.4344L263.90625 349.6844Q265.03125 348.1375 265.03125 345.9344L265.03125 340.1219ZM268.17188 344.15314L269.15625 344.15314L269.15625 344.90314L266.34375 344.90314L266.34375 344.15314L267.375 344.15314L267.375 343.02814L266.34375 343.02814L266.34375 342.27814L267.375 342.27814L267.375 341.34064L268.125 341.34064Q268.5 341.3875 268.17188 341.6219L268.17188 342.27814L269.20312 342.27814L269.20312 343.02814L268.17188 343.02814L268.17188 344.15314ZM261.375 349.21564L263.01562 349.21564L263.01562 347.3875L261.375 347.3875L261.375 349.21564ZM260.71875 344.9969L263.8125 344.9969L263.8125 345.8875L260.71875 345.8875L260.71875 344.9969ZM260.71875 340.075L263.8125 340.075L263.8125 340.96564L260.71875 340.96564L260.71875 340.075ZM264.42188 341.71564L264.42188 342.60626L260.15625 342.60626L260.15625 341.71564L264.42188 341.71564ZM260.71875 344.2469L260.71875 343.35626L263.8125 343.35626L263.8125 344.2469L260.71875 344.2469ZM267.23438 349.3094L266.4375 349.3094L266.4375 345.7469L268.92188 345.7469L268.92188 348.65314L267.23438 348.65314L267.23438 349.3094ZM267.23438 346.4969L267.23438 347.90314L268.125 347.90314L268.125 346.4969L267.23438 346.4969ZM273.84375 347.90314Q274.64062 346.4969 275.01562 345.325L272.01562 345.325L272.01562 344.4344L282.84375 344.4344L282.84375 345.325L276.09375 345.325Q275.90625 345.8875 275.71875 346.3094L281.29688 346.3094Q280.92188 349.1219 280.26562 350.0125Q279.89062 350.48126 278.85938 350.3875L277.59375 350.2469L277.54688 349.21564L279.0 349.35626Q279.46875 349.40314 279.70312 348.8875Q279.79688 348.65314 280.125 347.2L275.4375 347.2Q275.25 347.66876 274.92188 348.23126L273.84375 347.90314ZM274.92188 340.96564L274.92188 342.5125L279.9375 342.5125L279.9375 340.96564L274.92188 340.96564ZM279.9375 343.73126L279.9375 343.40314L274.92188 343.40314L274.92188 343.825L273.98438 343.825L273.98438 340.075L280.875 340.075L280.875 343.73126L279.9375 343.73126Z" fill-rule="nonzero"/><path fill="#424242" d="M289.65625 345.48126L288.60938 346.5594L288.60938 349.45L287.48438 349.45L287.48438 340.91876L288.60938 340.91876L288.60938 345.1375L292.40625 340.91876L293.76562 340.91876L290.40625 344.6844L294.03125 349.45L292.6875 349.45L289.65625 345.48126ZM297.95312 349.575Q296.65625 349.575 295.84375 348.73126Q295.04688 347.8719 295.04688 346.45L295.04688 346.2625Q295.04688 345.3094 295.40625 344.575Q295.76562 343.825 296.40625 343.41876Q297.0625 342.9969 297.8125 342.9969Q299.04688 342.9969 299.73438 343.8094Q300.42188 344.6219 300.42188 346.1375L300.42188 346.59064L296.125 346.59064Q296.15625 347.52814 296.67188 348.10626Q297.20312 348.6844 298.01562 348.6844Q298.57812 348.6844 298.96875 348.45Q299.375 348.21564 299.6875 347.825L300.34375 348.34064Q299.54688 349.575 297.95312 349.575ZM297.8125 343.8875Q297.15625 343.8875 296.70312 344.3719Q296.26562 344.84064 296.17188 345.7L299.34375 345.7L299.34375 345.6219Q299.29688 344.79376 298.89062 344.34064Q298.5 343.8875 297.8125 343.8875ZM303.39062 347.85626L304.875 343.10626L306.03125 343.10626L303.48438 350.4344Q302.89062 352.0125 301.60938 352.0125L301.39062 351.9969L301.0 351.91876L301.0 351.04376L301.28125 351.0594Q301.84375 351.0594 302.14062 350.84064Q302.45312 350.6219 302.65625 350.02814L302.89062 349.3719L300.625 343.10626L301.8125 343.10626L303.39062 347.85626ZM313.0 345.65314Q311.5625 345.23126 310.89062 344.6219Q310.23438 344.0125 310.23438 343.1219Q310.23438 342.1219 311.03125 341.46564Q311.84375 340.79376 313.14062 340.79376Q314.01562 340.79376 314.70312 341.1375Q315.39062 341.48126 315.76562 342.075Q316.15625 342.66876 316.15625 343.3875L315.01562 343.3875Q315.01562 342.60626 314.51562 342.16876Q314.03125 341.73126 313.14062 341.73126Q312.3125 341.73126 311.84375 342.10626Q311.375 342.46564 311.375 343.10626Q311.375 343.6375 311.8125 343.9969Q312.26562 344.35626 313.32812 344.65314Q314.39062 344.95 314.98438 345.3094Q315.59375 345.66876 315.875 346.15314Q316.17188 346.6375 316.17188 347.27814Q316.17188 348.325 315.35938 348.95Q314.54688 349.575 313.20312 349.575Q312.3125 349.575 311.54688 349.23126Q310.79688 348.8875 310.375 348.3094Q309.96875 347.71564 309.96875 346.98126L311.09375 346.98126Q311.09375 347.7469 311.67188 348.2Q312.25 348.65314 313.20312 348.65314Q314.09375 348.65314 314.5625 348.29376Q315.03125 347.91876 315.03125 347.29376Q315.03125 346.66876 314.59375 346.325Q314.15625 345.98126 313.0 345.65314ZM318.5 349.45L317.42188 349.45L317.42188 343.10626L318.5 343.10626L318.5 349.45ZM317.32812 341.4344Q317.32812 341.16876 317.48438 340.98126Q317.65625 340.79376 317.96875 340.79376Q318.28125 340.79376 318.4375 340.98126Q318.60938 341.16876 318.60938 341.4344Q318.60938 341.6844 318.4375 341.8719Q318.28125 342.04376 317.96875 342.04376Q317.65625 342.04376 317.48438 341.8719Q317.32812 341.6844 317.32812 341.4344ZM320.0625 346.23126Q320.0625 344.7469 320.75 343.8719Q321.4375 342.9969 322.5625 342.9969Q323.71875 342.9969 324.375 343.8094L324.42188 343.10626L325.42188 343.10626L325.42188 349.29376Q325.42188 350.52814 324.6875 351.23126Q323.95312 351.95 322.73438 351.95Q322.04688 351.95 321.39062 351.65314Q320.73438 351.35626 320.39062 350.85626L320.95312 350.2Q321.64062 351.0594 322.65625 351.0594Q323.4375 351.0594 323.875 350.60626Q324.32812 350.16876 324.32812 349.35626L324.32812 348.8094Q323.67188 349.575 322.54688 349.575Q321.4375 349.575 320.75 348.6844Q320.0625 347.77814 320.0625 346.23126ZM321.15625 346.35626Q321.15625 347.41876 321.59375 348.04376Q322.03125 348.65314 322.82812 348.65314Q323.84375 348.65314 324.32812 347.71564L324.32812 344.825Q323.82812 343.91876 322.82812 343.91876Q322.04688 343.91876 321.59375 344.52814Q321.15625 345.1375 321.15625 346.35626ZM328.34375 343.10626L328.375 343.90314Q329.10938 342.9969 330.28125 342.9969Q332.29688 342.9969 332.3125 345.2625L332.3125 349.45L331.21875 349.45L331.21875 345.2469Q331.21875 344.575 330.90625 344.2469Q330.60938 343.91876 329.95312 343.91876Q329.42188 343.91876 329.01562 344.2Q328.625 344.48126 328.40625 344.9344L328.40625 349.45L327.32812 349.45L327.32812 343.10626L328.34375 343.10626ZM338.23438 349.45Q338.14062 349.2625 338.07812 348.77814Q337.32812 349.575 336.28125 349.575Q335.34375 349.575 334.73438 349.04376Q334.14062 348.5125 334.14062 347.6844Q334.14062 346.7 334.89062 346.15314Q335.64062 345.60626 337.01562 345.60626L338.0625 345.60626L338.0625 345.10626Q338.0625 344.54376 337.71875 344.21564Q337.39062 343.8719 336.71875 343.8719Q336.14062 343.8719 335.75 344.16876Q335.35938 344.45 335.35938 344.8719L334.26562 344.8719Q334.26562 344.3875 334.59375 343.95Q334.9375 343.5125 335.51562 343.2625Q336.09375 342.9969 336.78125 342.9969Q337.89062 342.9969 338.5 343.54376Q339.125 344.09064 339.15625 345.04376L339.15625 347.96564Q339.15625 348.84064 339.375 349.35626L339.375 349.45L338.23438 349.45ZM336.4375 348.6219Q336.95312 348.6219 337.40625 348.35626Q337.85938 348.09064 338.0625 347.66876L338.0625 346.3719L337.21875 346.3719Q335.21875 346.3719 335.21875 347.54376Q335.21875 348.04376 335.5625 348.34064Q335.90625 348.6219 336.4375 348.6219ZM342.79688 341.575L342.79688 343.10626L343.96875 343.10626L343.96875 343.95L342.79688 343.95L342.79688 347.8719Q342.79688 348.2625 342.95312 348.45Q343.10938 348.6375 343.48438 348.6375Q343.67188 348.6375 344.0 348.575L344.0 349.45Q343.57812 349.575 343.17188 349.575Q342.45312 349.575 342.07812 349.1375Q341.70312 348.6844 341.70312 347.8719L341.70312 343.95L340.54688 343.95L340.54688 343.10626L341.70312 343.10626L341.70312 341.575L342.79688 341.575ZM349.23438 348.825Q348.60938 349.575 347.375 349.575Q346.35938 349.575 345.82812 348.98126Q345.29688 348.3875 345.29688 347.23126L345.29688 343.10626L346.375 343.10626L346.375 347.2Q346.375 348.65314 347.54688 348.65314Q348.79688 348.65314 349.20312 347.71564L349.20312 343.10626L350.29688 343.10626L350.29688 349.45L349.26562 349.45L349.23438 348.825ZM355.39062 344.075Q355.14062 344.04376 354.85938 344.04376Q353.78125 344.04376 353.40625 344.95L353.40625 349.45L352.32812 349.45L352.32812 343.10626L353.375 343.10626L353.39062 343.84064Q353.92188 342.9969 354.90625 342.9969Q355.21875 342.9969 355.39062 343.075L355.39062 344.075ZM358.95312 349.575Q357.65625 349.575 356.84375 348.73126Q356.04688 347.8719 356.04688 346.45L356.04688 346.2625Q356.04688 345.3094 356.40625 344.575Q356.76562 343.825 357.40625 343.41876Q358.0625 342.9969 358.8125 342.9969Q360.04688 342.9969 360.73438 343.8094Q361.42188 344.6219 361.42188 346.1375L361.42188 346.59064L357.125 346.59064Q357.15625 347.52814 357.67188 348.10626Q358.20312 348.6844 359.01562 348.6844Q359.57812 348.6844 359.96875 348.45Q360.375 348.21564 360.6875 347.825L361.34375 348.34064Q360.54688 349.575 358.95312 349.575ZM358.8125 343.8875Q358.15625 343.8875 357.70312 344.3719Q357.26562 344.84064 357.17188 345.7L360.34375 345.7L360.34375 345.6219Q360.29688 344.79376 359.89062 344.34064Q359.5 343.8875 358.8125 343.8875ZM366.01562 347.7625Q366.01562 347.325 365.67188 347.09064Q365.34375 346.84064 364.51562 346.66876Q363.70312 346.4969 363.21875 346.2469Q362.73438 345.9969 362.5 345.66876Q362.28125 345.325 362.28125 344.85626Q362.28125 344.075 362.9375 343.54376Q363.59375 342.9969 364.625 342.9969Q365.70312 342.9969 366.35938 343.5594Q367.03125 344.10626 367.03125 344.96564L365.95312 344.96564Q365.95312 344.52814 365.5625 344.21564Q365.1875 343.8875 364.625 343.8875Q364.03125 343.8875 363.6875 344.15314Q363.35938 344.40314 363.35938 344.8094Q363.35938 345.2 363.67188 345.40314Q363.98438 345.60626 364.79688 345.79376Q365.60938 345.96564 366.10938 346.21564Q366.60938 346.46564 366.84375 346.825Q367.09375 347.1844 367.09375 347.6844Q367.09375 348.54376 366.40625 349.0594Q365.73438 349.575 364.65625 349.575Q363.89062 349.575 363.29688 349.3094Q362.71875 349.02814 362.39062 348.54376Q362.0625 348.0594 362.0625 347.4969L363.14062 347.4969Q363.17188 348.04376 363.57812 348.3719Q363.98438 348.6844 364.65625 348.6844Q365.26562 348.6844 365.64062 348.4344Q366.01562 348.1844 366.01562 347.7625Z" fill-rule="nonzero"/><path fill="#757575" d="M38.6125 299.3094Q38.6125 301.21564 37.95625 302.15314Q37.315624 303.075 35.925 303.075Q34.565624 303.075 33.909374 302.16876Q33.253124 301.2625 33.221874 299.45L33.221874 298.0125Q33.221874 296.1219 33.8625 295.21564Q34.51875 294.29376 35.909374 294.29376Q37.284374 294.29376 37.940624 295.1844Q38.596874 296.0594 38.6125 297.90314L38.6125 299.3094ZM37.51875 297.825Q37.51875 296.45 37.128124 295.825Q36.753124 295.1844 35.909374 295.1844Q35.08125 295.1844 34.690624 295.825Q34.315624 296.45 34.315624 297.7469L34.315624 299.48126Q34.315624 300.85626 34.70625 301.52814Q35.1125 302.1844 35.925 302.1844Q36.721874 302.1844 37.1125 301.5594Q37.503124 300.9344 37.51875 299.60626L37.51875 297.825Z" fill-rule="nonzero"/><path fill="#757575" d="M36.815624 243.94167L35.7375 243.94167L35.7375 236.72292L33.55 237.51979L33.55 236.53542L36.659374 235.36354L36.815624 235.36354L36.815624 243.94167Z" fill-rule="nonzero"/><path fill="#757575" d="M38.846874 184.93333L33.253124 184.93333L33.253124 184.15208L36.20625 180.87083Q36.8625 180.12083 37.1125 179.66771Q37.3625 179.19896 37.3625 178.69896Q37.3625 178.02708 36.95625 177.60521Q36.565624 177.16771 35.878124 177.16771Q35.08125 177.16771 34.628124 177.63646Q34.175 178.08958 34.175 178.91771L33.096874 178.91771Q33.096874 177.73021 33.846874 177.01146Q34.6125 176.27708 35.878124 176.27708Q37.08125 176.27708 37.76875 176.90208Q38.45625 177.52708 38.45625 178.57396Q38.45625 179.82396 36.846874 181.57396L34.565624 184.04271L38.846874 184.04271L38.846874 184.93333Z" fill-rule="nonzero"/><path fill="#757575" d="M34.83125 121.12813L35.64375 121.12813Q36.425 121.1125 36.8625 120.72188Q37.3 120.33125 37.3 119.65938Q37.3 118.15938 35.8 118.15938Q35.096874 118.15938 34.675 118.56563Q34.26875 118.97188 34.26875 119.62813L33.175 119.62813Q33.175 118.6125 33.909374 117.94063Q34.659374 117.26875 35.8 117.26875Q37.003124 117.26875 37.690624 117.90938Q38.378124 118.55 38.378124 119.69063Q38.378124 120.25313 38.01875 120.76875Q37.659374 121.28438 37.034374 121.55Q37.7375 121.76875 38.1125 122.28438Q38.503124 122.8 38.503124 123.55Q38.503124 124.69063 37.753124 125.37813Q37.003124 126.05 35.8 126.05Q34.6125 126.05 33.846874 125.39375Q33.096874 124.7375 33.096874 123.675L34.190624 123.675Q34.190624 124.34688 34.628124 124.75313Q35.065624 125.15938 35.815624 125.15938Q36.596874 125.15938 37.003124 124.75313Q37.425 124.33125 37.425 123.56563Q37.425 122.83125 36.971874 122.44063Q36.51875 122.03438 35.64375 122.01875L34.83125 122.01875L34.83125 121.12813Z" fill-rule="nonzero"/><path fill="#757575" d="M37.83125 64.05729L39.01875 64.05729L39.01875 64.93229L37.83125 64.93229L37.83125 66.916664L36.753124 66.916664L36.753124 64.93229L32.8625 64.93229L32.8625 64.291664L36.675 58.385414L37.83125 58.385414L37.83125 64.05729ZM34.096874 64.05729L36.753124 64.05729L36.753124 59.86979L36.6125 60.104164L34.096874 64.05729Z" fill-rule="nonzero"/><path fill="#757575" d="M64.58438 316.35626Q65.193756 315.98126 65.70938 315.46564Q66.83438 314.34064 66.83438 313.2625Q66.83438 312.7469 66.506256 312.41876Q66.225006 312.1375 65.89688 312.1375Q65.100006 312.1375 64.58438 312.41876L64.58438 316.35626ZM65.61563 316.1219Q65.05313 316.4969 63.928135 317.15314L63.928135 307.2625L64.58438 307.2625L64.58438 312.04376Q65.193756 311.71564 66.037506 311.71564Q66.83438 311.71564 67.256256 312.1375Q67.725006 312.60626 67.725006 313.35626Q67.725006 314.2469 66.83438 315.1375Q66.318756 315.65314 65.61563 316.1219Z" fill-rule="nonzero"/><path fill="#757575" d="M77.83438 308.52814L74.30313 316.45L73.162506 316.45L76.67813 308.8094L72.068756 308.8094L72.068756 307.91876L77.83438 307.91876L77.83438 308.52814Z" fill-rule="nonzero"/><path fill="#757575" d="M99.49644 316.35626Q100.10581 315.98126 100.62144 315.46564Q101.74644 314.34064 101.74644 313.2625Q101.74644 312.7469 101.41831 312.41876Q101.13706 312.1375 100.80894 312.1375Q100.01206 312.1375 99.49644 312.41876L99.49644 316.35626ZM100.52769 316.1219Q99.96519 316.4969 98.84019 317.15314L98.84019 307.2625L99.49644 307.2625L99.49644 312.04376Q100.10581 311.71564 100.94956 311.71564Q101.74644 311.71564 102.16831 312.1375Q102.63706 312.60626 102.63706 313.35626Q102.63706 314.2469 101.74644 315.1375Q101.23081 315.65314 100.52769 316.1219Z" fill-rule="nonzero"/><path fill="#757575" d="M111.49644 307.91876L111.49644 308.825L111.29331 308.825Q110.02769 308.85626 109.27769 309.59064Q108.52769 310.3094 108.40269 311.6219Q109.09019 310.85626 110.24644 310.85626Q111.35581 310.85626 112.02769 311.6375Q112.69956 312.41876 112.69956 313.66876Q112.69956 314.98126 111.98081 315.77814Q111.26206 316.575 110.04331 316.575Q108.82456 316.575 108.05894 315.6375Q107.30894 314.6844 107.30894 313.2L107.30894 312.79376Q107.30894 310.4344 108.30894 309.1844Q109.30894 307.9344 111.29331 307.91876L111.49644 307.91876ZM110.07456 311.7625Q109.51206 311.7625 109.04331 312.09064Q108.57456 312.41876 108.38706 312.9344L108.38706 313.325Q108.38706 314.3875 108.85581 315.02814Q109.34019 315.66876 110.04331 315.66876Q110.77769 315.66876 111.19956 315.1375Q111.62144 314.59064 111.62144 313.71564Q111.62144 312.84064 111.19956 312.3094Q110.77769 311.7625 110.07456 311.7625Z" fill-rule="nonzero"/><path fill="#757575" d="M134.4085 316.35626Q135.01787 315.98126 135.5335 315.46564Q136.6585 314.34064 136.6585 313.2625Q136.6585 312.7469 136.33037 312.41876Q136.04912 312.1375 135.721 312.1375Q134.92412 312.1375 134.4085 312.41876L134.4085 316.35626ZM135.43974 316.1219Q134.87724 316.4969 133.75224 317.15314L133.75224 307.2625L134.4085 307.2625L134.4085 312.04376Q135.01787 311.71564 135.86162 311.71564Q136.6585 311.71564 137.08037 312.1375Q137.54912 312.60626 137.54912 313.35626Q137.54912 314.2469 136.6585 315.1375Q136.14287 315.65314 135.43974 316.1219Z" fill-rule="nonzero"/><path fill="#757575" d="M142.64287 312.16876L143.08037 307.91876L147.45537 307.91876L147.45537 308.91876L144.00224 308.91876L143.73662 311.2469Q144.37724 310.8719 145.17412 310.8719Q146.33037 310.8719 147.01787 311.65314Q147.70537 312.41876 147.70537 313.73126Q147.70537 315.04376 146.98662 315.8094Q146.2835 316.575 145.00224 316.575Q143.87724 316.575 143.1585 315.95Q142.43974 315.3094 142.346 314.2L143.36162 314.2Q143.471 314.9344 143.89287 315.3094Q144.31474 315.6844 145.00224 315.6844Q145.75224 315.6844 146.18974 315.16876Q146.62724 314.65314 146.62724 313.7469Q146.62724 312.8875 146.1585 312.3719Q145.68974 311.85626 144.9085 311.85626Q144.20537 311.85626 143.79912 312.15314L143.51787 312.3875L142.64287 312.16876Z" fill-rule="nonzero"/><path fill="#757575" d="M169.32054 316.35626Q169.92992 315.98126 170.44554 315.46564Q171.57054 314.34064 171.57054 313.2625Q171.57054 312.7469 171.24242 312.41876Q170.96117 312.1375 170.63304 312.1375Q169.83617 312.1375 169.32054 312.41876L169.32054 316.35626ZM170.35179 316.1219Q169.78929 316.4969 168.66429 317.15314L168.66429 307.2625L169.32054 307.2625L169.32054 312.04376Q169.92992 311.71564 170.77367 311.71564Q171.57054 311.71564 171.99242 312.1375Q172.46117 312.60626 172.46117 313.35626Q172.46117 314.2469 171.57054 315.1375Q171.05492 315.65314 170.35179 316.1219Z" fill-rule="nonzero"/><path fill="#757575" d="M181.63304 313.59064L182.82054 313.59064L182.82054 314.46564L181.63304 314.46564L181.63304 316.45L180.55492 316.45L180.55492 314.46564L176.66429 314.46564L176.66429 313.825L180.47679 307.91876L181.63304 307.91876L181.63304 313.59064ZM177.89867 313.59064L180.55492 313.59064L180.55492 309.40314L180.41429 309.6375L177.89867 313.59064Z" fill-rule="nonzero"/><path fill="#757575" d="M204.23259 316.35626Q204.84196 315.98126 205.35759 315.46564Q206.48259 314.34064 206.48259 313.2625Q206.48259 312.7469 206.15446 312.41876Q205.87321 312.1375 205.54509 312.1375Q204.74821 312.1375 204.23259 312.41876L204.23259 316.35626ZM205.26384 316.1219Q204.70134 316.4969 203.57634 317.15314L203.57634 307.2625L204.23259 307.2625L204.23259 312.04376Q204.84196 311.71564 205.68571 311.71564Q206.48259 311.71564 206.90446 312.1375Q207.37321 312.60626 207.37321 313.35626Q207.37321 314.2469 206.48259 315.1375Q205.96696 315.65314 205.26384 316.1219Z" fill-rule="nonzero"/><path fill="#757575" d="M213.54509 311.65314L214.35759 311.65314Q215.13884 311.6375 215.57634 311.2469Q216.01384 310.85626 216.01384 310.1844Q216.01384 308.6844 214.51384 308.6844Q213.81071 308.6844 213.38884 309.09064Q212.98259 309.4969 212.98259 310.15314L211.88884 310.15314Q211.88884 309.1375 212.62321 308.46564Q213.37321 307.79376 214.51384 307.79376Q215.71696 307.79376 216.40446 308.4344Q217.09196 309.075 217.09196 310.21564Q217.09196 310.77814 216.73259 311.29376Q216.37321 311.8094 215.74821 312.075Q216.45134 312.29376 216.82634 312.8094Q217.21696 313.325 217.21696 314.075Q217.21696 315.21564 216.46696 315.90314Q215.71696 316.575 214.51384 316.575Q213.32634 316.575 212.56071 315.91876Q211.81071 315.2625 211.81071 314.2L212.90446 314.2Q212.90446 314.8719 213.34196 315.27814Q213.77946 315.6844 214.52946 315.6844Q215.31071 315.6844 215.71696 315.27814Q216.13884 314.85626 216.13884 314.09064Q216.13884 313.35626 215.68571 312.96564Q215.23259 312.5594 214.35759 312.54376L213.54509 312.54376L213.54509 311.65314Z" fill-rule="nonzero"/><path fill="#757575" d="M239.14465 316.35626Q239.75403 315.98126 240.26965 315.46564Q241.39465 314.34064 241.39465 313.2625Q241.39465 312.7469 241.06653 312.41876Q240.78528 312.1375 240.45715 312.1375Q239.66028 312.1375 239.14465 312.41876L239.14465 316.35626ZM240.1759 316.1219Q239.6134 316.4969 238.4884 317.15314L238.4884 307.2625L239.14465 307.2625L239.14465 312.04376Q239.75403 311.71564 240.59778 311.71564Q241.39465 311.71564 241.81653 312.1375Q242.28528 312.60626 242.28528 313.35626Q242.28528 314.2469 241.39465 315.1375Q240.87903 315.65314 240.1759 316.1219Z" fill-rule="nonzero"/><path fill="#757575" d="M252.47278 316.45L246.87903 316.45L246.87903 315.66876L249.83215 312.3875Q250.4884 311.6375 250.7384 311.1844Q250.9884 310.71564 250.9884 310.21564Q250.9884 309.54376 250.58215 309.1219Q250.19153 308.6844 249.50403 308.6844Q248.70715 308.6844 248.25403 309.15314Q247.8009 309.60626 247.8009 310.4344L246.72278 310.4344Q246.72278 309.2469 247.47278 308.52814Q248.2384 307.79376 249.50403 307.79376Q250.70715 307.79376 251.39465 308.41876Q252.08215 309.04376 252.08215 310.09064Q252.08215 311.34064 250.47278 313.09064L248.19153 315.5594L252.47278 315.5594L252.47278 316.45Z" fill-rule="nonzero"/><path fill="#757575" d="M274.0567 316.35626Q274.66608 315.98126 275.1817 315.46564Q276.3067 314.34064 276.3067 313.2625Q276.3067 312.7469 275.97858 312.41876Q275.69733 312.1375 275.3692 312.1375Q274.57233 312.1375 274.0567 312.41876L274.0567 316.35626ZM275.08795 316.1219Q274.52545 316.4969 273.40045 317.15314L273.40045 307.2625L274.0567 307.2625L274.0567 312.04376Q274.66608 311.71564 275.50983 311.71564Q276.3067 311.71564 276.72858 312.1375Q277.19733 312.60626 277.19733 313.35626Q277.19733 314.2469 276.3067 315.1375Q275.79108 315.65314 275.08795 316.1219Z" fill-rule="nonzero"/><path fill="#757575" d="M285.35358 316.45L284.27545 316.45L284.27545 309.23126L282.08795 310.02814L282.08795 309.04376L285.19733 307.8719L285.35358 307.8719L285.35358 316.45Z" fill-rule="nonzero"/><path fill="#757575" d="M311.15625 312.98126L311.15625 310.54376L308.48438 311.2469L308.48438 313.6844L311.15625 312.98126ZM311.48438 316.3094L311.15625 316.3094L311.15625 313.6844L308.15625 314.48126L308.15625 307.91876L308.48438 307.91876L308.48438 310.54376L311.48438 309.7469L311.48438 316.3094Z" fill-rule="nonzero"/><path fill="#757575" d="M318.5625 312.8094Q318.5625 314.71564 317.90625 315.65314Q317.26562 316.575 315.875 316.575Q314.51562 316.575 313.85938 315.66876Q313.20312 314.7625 313.17188 312.95L313.17188 311.5125Q313.17188 309.6219 313.8125 308.71564Q314.46875 307.79376 315.85938 307.79376Q317.23438 307.79376 317.89062 308.6844Q318.54688 309.5594 318.5625 311.40314L318.5625 312.8094ZM317.46875 311.325Q317.46875 309.95 317.07812 309.325Q316.70312 308.6844 315.85938 308.6844Q315.03125 308.6844 314.64062 309.325Q314.26562 309.95 314.26562 311.2469L314.26562 312.98126Q314.26562 314.35626 314.65625 315.02814Q315.0625 315.6844 315.875 315.6844Q316.67188 315.6844 317.0625 315.0594Q317.45312 314.4344 317.46875 313.10626L317.46875 311.325Z" fill-rule="nonzero"/><path fill="#757575" d="M347.64642 314.0125L346.47455 314.52814L346.47455 316.45L345.97455 316.45L345.97455 314.7625L343.86517 315.7L343.86517 317.6844L343.36517 317.6844L343.36517 315.9344L342.1933 316.45L342.1933 315.46564L343.36517 314.95L343.36517 312.04376L342.1933 312.575L342.1933 311.59064L343.36517 311.0594L343.36517 309.15314L343.86517 309.15314L343.86517 310.84064L345.97455 309.90314L345.97455 307.85626L346.47455 307.85626L346.47455 309.66876L347.64642 309.15314L347.64642 310.1375L346.47455 310.65314L346.47455 313.54376L347.64642 313.02814L347.64642 314.0125ZM345.97455 313.77814L345.97455 310.8875L343.86517 311.825L343.86517 314.71564L345.97455 313.77814Z" fill-rule="nonzero"/><path fill="#757575" d="M352.17767 316.45L351.09955 316.45L351.09955 309.23126L348.91205 310.02814L348.91205 309.04376L352.02142 307.8719L352.17767 307.8719L352.17767 316.45Z" fill-rule="nonzero"/><path fill="#757575" d="M382.55847 314.0125L381.3866 314.52814L381.3866 316.45L380.8866 316.45L380.8866 314.7625L378.77722 315.7L378.77722 317.6844L378.27722 317.6844L378.27722 315.9344L377.10535 316.45L377.10535 315.46564L378.27722 314.95L378.27722 312.04376L377.10535 312.575L377.10535 311.59064L378.27722 311.0594L378.27722 309.15314L378.77722 309.15314L378.77722 310.84064L380.8866 309.90314L380.8866 307.85626L381.3866 307.85626L381.3866 309.66876L382.55847 309.15314L382.55847 310.1375L381.3866 310.65314L381.3866 313.54376L382.55847 313.02814L382.55847 314.0125ZM380.8866 313.77814L380.8866 310.8875L378.77722 311.825L378.77722 314.71564L380.8866 313.77814Z" fill-rule="nonzero"/><path fill="#757575" d="M389.12097 316.45L383.52722 316.45L383.52722 315.66876L386.48035 312.3875Q387.1366 311.6375 387.3866 311.1844Q387.6366 310.71564 387.6366 310.21564Q387.6366 309.54376 387.23035 309.1219Q386.83972 308.6844 386.15222 308.6844Q385.35535 308.6844 384.90222 309.15314Q384.4491 309.60626 384.4491 310.4344L383.37097 310.4344Q383.37097 309.2469 384.12097 308.52814Q384.8866 307.79376 386.15222 307.79376Q387.35535 307.79376 388.04285 308.41876Q388.73035 309.04376 388.73035 310.09064Q388.73035 311.34064 387.12097 313.09064L384.83972 315.5594L389.12097 315.5594L389.12097 316.45Z" fill-rule="nonzero"/><path fill="#757575" d="M417.47052 314.0125L416.29865 314.52814L416.29865 316.45L415.79865 316.45L415.79865 314.7625L413.68927 315.7L413.68927 317.6844L413.18927 317.6844L413.18927 315.9344L412.0174 316.45L412.0174 315.46564L413.18927 314.95L413.18927 312.04376L412.0174 312.575L412.0174 311.59064L413.18927 311.0594L413.18927 309.15314L413.68927 309.15314L413.68927 310.84064L415.79865 309.90314L415.79865 307.85626L416.29865 307.85626L416.29865 309.66876L417.47052 309.15314L417.47052 310.1375L416.29865 310.65314L416.29865 313.54376L417.47052 313.02814L417.47052 314.0125ZM415.79865 313.77814L415.79865 310.8875L413.68927 311.825L413.68927 314.71564L415.79865 313.77814Z" fill-rule="nonzero"/><path fill="#757575" d="M420.0174 311.65314L420.8299 311.65314Q421.61115 311.6375 422.04865 311.2469Q422.48615 310.85626 422.48615 310.1844Q422.48615 308.6844 420.98615 308.6844Q420.28302 308.6844 419.86115 309.09064Q419.4549 309.4969 419.4549 310.15314L418.36115 310.15314Q418.36115 309.1375 419.09552 308.46564Q419.84552 307.79376 420.98615 307.79376Q422.18927 307.79376 422.87677 308.4344Q423.56427 309.075 423.56427 310.21564Q423.56427 310.77814 423.2049 311.29376Q422.84552 311.8094 422.22052 312.075Q422.92365 312.29376 423.29865 312.8094Q423.68927 313.325 423.68927 314.075Q423.68927 315.21564 422.93927 315.90314Q422.18927 316.575 420.98615 316.575Q419.79865 316.575 419.03302 315.91876Q418.28302 315.2625 418.28302 314.2L419.37677 314.2Q419.37677 314.8719 419.81427 315.27814Q420.25177 315.6844 421.00177 315.6844Q421.78302 315.6844 422.18927 315.27814Q422.61115 314.85626 422.61115 314.09064Q422.61115 313.35626 422.15802 312.96564Q421.7049 312.5594 420.8299 312.54376L420.0174 312.54376L420.0174 311.65314Z" fill-rule="nonzero"/><path fill="#757575" d="M452.38257 314.0125L451.2107 314.52814L451.2107 316.45L450.7107 316.45L450.7107 314.7625L448.60132 315.7L448.60132 317.6844L448.10132 317.6844L448.10132 315.9344L446.92944 316.45L446.92944 315.46564L448.10132 314.95L448.10132 312.04376L446.92944 312.575L446.92944 311.59064L448.10132 311.0594L448.10132 309.15314L448.60132 309.15314L448.60132 310.84064L450.7107 309.90314L450.7107 307.85626L451.2107 307.85626L451.2107 309.66876L452.38257 309.15314L452.38257 310.1375L451.2107 310.65314L451.2107 313.54376L452.38257 313.02814L452.38257 314.0125ZM450.7107 313.77814L450.7107 310.8875L448.60132 311.825L448.60132 314.71564L450.7107 313.77814Z" fill-rule="nonzero"/><path fill="#757575" d="M457.92944 313.59064L459.11694 313.59064L459.11694 314.46564L457.92944 314.46564L457.92944 316.45L456.85132 316.45L456.85132 314.46564L452.9607 314.46564L452.9607 313.825L456.7732 307.91876L457.92944 307.91876L457.92944 313.59064ZM454.19507 313.59064L456.85132 313.59064L456.85132 309.40314L456.7107 309.6375L454.19507 313.59064Z" fill-rule="nonzero"/><path fill="#757575" d="M487.29465 314.0125L486.12277 314.52814L486.12277 316.45L485.62277 316.45L485.62277 314.7625L483.5134 315.7L483.5134 317.6844L483.0134 317.6844L483.0134 315.9344L481.84152 316.45L481.84152 315.46564L483.0134 314.95L483.0134 312.04376L481.84152 312.575L481.84152 311.59064L483.0134 311.0594L483.0134 309.15314L483.5134 309.15314L483.5134 310.84064L485.62277 309.90314L485.62277 307.85626L486.12277 307.85626L486.12277 309.66876L487.29465 309.15314L487.29465 310.1375L486.12277 310.65314L486.12277 313.54376L487.29465 313.02814L487.29465 314.0125ZM485.62277 313.77814L485.62277 310.8875L483.5134 311.825L483.5134 314.71564L485.62277 313.77814Z" fill-rule="nonzero"/><path fill="#757575" d="M488.7634 312.16876L489.2009 307.91876L493.5759 307.91876L493.5759 308.91876L490.12277 308.91876L489.85715 311.2469Q490.49777 310.8719 491.29465 310.8719Q492.4509 310.8719 493.1384 311.65314Q493.8259 312.41876 493.8259 313.73126Q493.8259 315.04376 493.10715 315.8094Q492.40402 316.575 491.12277 316.575Q489.99777 316.575 489.27902 315.95Q488.56027 315.3094 488.46652 314.2L489.48215 314.2Q489.59152 314.9344 490.0134 315.3094Q490.43527 315.6844 491.12277 315.6844Q491.87277 315.6844 492.31027 315.16876Q492.74777 314.65314 492.74777 313.7469Q492.74777 312.8875 492.27902 312.3719Q491.81027 311.85626 491.02902 311.85626Q490.3259 311.85626 489.91965 312.15314L489.6384 312.3875L488.7634 312.16876Z" fill-rule="nonzero"/><path fill="#757575" d="M522.20667 314.0125L521.0348 314.52814L521.0348 316.45L520.5348 316.45L520.5348 314.7625L518.4254 315.7L518.4254 317.6844L517.9254 317.6844L517.9254 315.9344L516.75354 316.45L516.75354 315.46564L517.9254 314.95L517.9254 312.04376L516.75354 312.575L516.75354 311.59064L517.9254 311.0594L517.9254 309.15314L518.4254 309.15314L518.4254 310.84064L520.5348 309.90314L520.5348 307.85626L521.0348 307.85626L521.0348 309.66876L522.20667 309.15314L522.20667 310.1375L521.0348 310.65314L521.0348 313.54376L522.20667 313.02814L522.20667 314.0125ZM520.5348 313.77814L520.5348 310.8875L518.4254 311.825L518.4254 314.71564L520.5348 313.77814Z" fill-rule="nonzero"/><path fill="#757575" d="M527.44104 307.91876L527.44104 308.825L527.2379 308.825Q525.9723 308.85626 525.2223 309.59064Q524.4723 310.3094 524.3473 311.6219Q525.0348 310.85626 526.19104 310.85626Q527.3004 310.85626 527.9723 311.6375Q528.64417 312.41876 528.64417 313.66876Q528.64417 314.98126 527.9254 315.77814Q527.20667 316.575 525.9879 316.575Q524.76917 316.575 524.00354 315.6375Q523.25354 314.6844 523.25354 313.2L523.25354 312.79376Q523.25354 310.4344 524.25354 309.1844Q525.25354 307.9344 527.2379 307.91876L527.44104 307.91876ZM526.01917 311.7625Q525.45667 311.7625 524.9879 312.09064Q524.51917 312.41876 524.33167 312.9344L524.33167 313.325Q524.33167 314.3875 524.8004 315.02814Q525.2848 315.66876 525.9879 315.66876Q526.7223 315.66876 527.14417 315.1375Q527.56604 314.59064 527.56604 313.71564Q527.56604 312.84064 527.14417 312.3094Q526.7223 311.7625 526.01917 311.7625Z" fill-rule="nonzero"/><path fill="#757575" d="M557.1187 314.0125L555.94684 314.52814L555.94684 316.45L555.44684 316.45L555.44684 314.7625L553.33746 315.7L553.33746 317.6844L552.83746 317.6844L552.83746 315.9344L551.6656 316.45L551.6656 315.46564L552.83746 314.95L552.83746 312.04376L551.6656 312.575L551.6656 311.59064L552.83746 311.0594L552.83746 309.15314L553.33746 309.15314L553.33746 310.84064L555.44684 309.90314L555.44684 307.85626L555.94684 307.85626L555.94684 309.66876L557.1187 309.15314L557.1187 310.1375L555.94684 310.65314L555.94684 313.54376L557.1187 313.02814L557.1187 314.0125ZM555.44684 313.77814L555.44684 310.8875L553.33746 311.825L553.33746 314.71564L555.44684 313.77814Z" fill-rule="nonzero"/><path fill="#757575" d="M563.6031 308.52814L560.07184 316.45L558.9312 316.45L562.44684 308.8094L557.83746 308.8094L557.83746 307.91876L563.6031 307.91876L563.6031 308.52814Z" fill-rule="nonzero"/><path fill="#757575" d="M24.409374 38.95625L24.409374 38.409374L21.675 38.409374L21.675 39.26875L20.346874 39.26875L20.346874 32.8625L25.7375 32.8625L25.7375 38.95625L24.409374 38.95625ZM27.76875 22.003124L36.753124 22.003124L36.753124 38.096874Q36.753124 39.190624 35.815624 39.190624L33.940624 39.190624L33.628124 37.70625L35.1125 37.70625Q35.425 37.70625 35.425 37.39375L35.425 23.4875L29.096874 23.4875L29.096874 32.39375Q29.096874 36.45625 27.065624 39.190624L25.89375 37.940624Q27.76875 35.3625 27.76875 31.690624L27.76875 22.003124ZM33.003124 28.721874L34.64375 28.721874L34.64375 29.971874L29.95625 29.971874L29.95625 28.721874L31.675 28.721874L31.675 26.846874L29.95625 26.846874L29.95625 25.596874L31.675 25.596874L31.675 24.034374L32.925 24.034374Q33.55 24.1125 33.003124 24.503124L33.003124 25.596874L34.721874 25.596874L34.721874 26.846874L33.003124 26.846874L33.003124 28.721874ZM21.675 37.159374L24.409374 37.159374L24.409374 34.1125L21.675 34.1125L21.675 37.159374ZM20.58125 30.128124L25.7375 30.128124L25.7375 31.6125L20.58125 31.6125L20.58125 30.128124ZM20.58125 21.925L25.7375 21.925L25.7375 23.409374L20.58125 23.409374L20.58125 21.925ZM26.753124 24.659374L26.753124 26.14375L19.64375 26.14375L19.64375 24.659374L26.753124 24.659374ZM20.58125 28.878124L20.58125 27.39375L25.7375 27.39375L25.7375 28.878124L20.58125 28.878124ZM31.440624 37.315624L30.1125 37.315624L30.1125 31.378124L34.253124 31.378124L34.253124 36.221874L31.440624 36.221874L31.440624 37.315624ZM31.440624 32.628124L31.440624 34.971874L32.925 34.971874L32.925 32.628124L31.440624 32.628124ZM42.45625 34.971874Q43.784374 32.628124 44.409374 30.675L39.409374 30.675L39.409374 29.190624L57.45625 29.190624L57.45625 30.675L46.20625 30.675Q45.89375 31.6125 45.58125 32.315624L54.878124 32.315624Q54.253124 37.003124 53.159374 38.4875Q52.534374 39.26875 50.815624 39.1125L48.70625 38.878124L48.628124 37.159374L51.05 37.39375Q51.83125 37.471874 52.221874 36.6125Q52.378124 36.221874 52.925 33.8L45.1125 33.8Q44.8 34.58125 44.253124 35.51875L42.45625 34.971874ZM44.253124 23.409374L44.253124 25.9875L52.6125 25.9875L52.6125 23.409374L44.253124 23.409374ZM52.6125 28.01875L52.6125 27.471874L44.253124 27.471874L44.253124 28.175L42.690624 28.175L42.690624 21.925L54.175 21.925L54.175 28.01875L52.6125 28.01875ZM72.925 25.05Q76.12813 28.33125 77.3 32.940624L75.58125 33.64375Q74.175 28.565624 71.51875 26.065624L72.925 25.05ZM70.58125 31.3Q70.58125 35.83125 69.25313 37.159374Q68.47188 37.940624 67.45625 37.940624Q65.97188 37.940624 64.4875 36.221874L65.50313 34.815624Q66.75313 36.065624 67.37813 36.065624Q67.76875 36.065624 68.08125 35.753124Q68.94063 34.89375 68.94063 30.9875Q68.94063 28.8 68.47188 28.33125Q68.2375 28.096874 67.53438 28.096874Q66.83125 28.096874 65.58125 28.253124Q63.940624 34.034374 61.675 38.175L59.878124 37.55Q62.14375 34.034374 63.8625 28.409374Q62.14375 28.64375 60.503124 28.8L60.346874 27.08125Q61.753124 27.08125 64.25313 26.846874Q64.95625 24.425 65.425 21.925L67.06563 22.471874Q68.00313 22.8625 66.9875 23.175Q66.51875 24.815624 66.05 26.690624Q66.9875 26.534374 68.00313 26.534374Q69.09688 26.534374 69.64375 27.08125Q70.58125 28.01875 70.58125 31.3ZM74.95625 20.9875Q76.3625 21.76875 78.08125 23.175L77.14375 24.1125Q75.425 22.784374 74.01875 21.925L74.95625 20.9875ZM75.50313 25.9875Q73.70625 24.503124 72.45625 23.721874L73.39375 22.784374Q74.8 23.565624 76.51875 24.971874L75.50313 25.9875ZM93.2375 27.784374L96.90938 27.784374L96.90938 29.034374L93.62813 29.034374L93.62813 30.83125L96.28438 30.83125L96.28438 32.08125L93.62813 32.08125L93.62813 33.95625L96.28438 33.95625L96.28438 35.20625L93.62813 35.20625L93.62813 37.159374L97.53438 37.159374L97.53438 38.409374L89.64375 38.409374L89.64375 39.190624L88.31563 39.190624L88.31563 30.51875Q87.69063 31.378124 86.75313 32.08125L86.20625 30.596874Q89.175 27.940624 90.03438 25.05L88.2375 25.05L88.2375 26.846874L86.90938 26.846874L86.90938 23.8L90.34688 23.8Q90.65938 22.55 90.89375 21.14375L92.45625 21.534374Q92.69063 21.76875 92.3 22.003124Q92.06563 22.940624 91.83125 23.8L97.37813 23.8L97.37813 26.534374L96.05 26.534374L96.05 25.05L91.51875 25.05Q91.05 26.690624 90.26875 27.784374L91.90938 27.784374L92.925 25.440624L94.40938 25.753124Q94.8 25.909374 94.25313 26.14375L93.2375 27.784374ZM80.03438 24.190624L80.03438 22.70625L86.675 22.70625L86.675 24.190624L83.94063 24.190624Q83.78438 26.6125 82.925 28.64375L85.97188 28.64375L85.97188 37.940624L84.64375 37.940624L84.64375 36.690624L82.6125 36.690624L82.6125 38.721874L81.28438 38.721874L81.28438 31.690624Q80.81563 32.471874 80.26875 33.096874L79.25313 31.76875Q81.9875 28.721874 82.45625 24.190624L80.03438 24.190624ZM89.64375 32.08125L89.64375 33.95625L92.3 33.95625L92.3 32.08125L89.64375 32.08125ZM89.64375 29.034374L89.64375 30.83125L92.3 30.83125L92.3 29.034374L89.64375 29.034374ZM89.64375 35.20625L89.64375 37.159374L92.3 37.159374L92.3 35.20625L89.64375 35.20625ZM82.6125 29.89375L82.6125 35.440624L84.64375 35.440624L84.64375 29.89375L82.6125 29.89375ZM99.87813 37.940624Q103.70625 35.596874 103.62813 30.440624L105.425 30.753124Q105.65938 30.9875 105.26875 31.221874L104.87813 34.034374Q106.05 35.440624 107.925 36.45625L107.925 28.878124L102.6125 28.878124L102.6125 27.39375L114.40938 27.39375L114.40938 28.878124L109.4875 28.878124L109.4875 31.76875L114.95625 31.76875L114.95625 33.253124L109.4875 33.253124L109.4875 37.003124Q110.65938 37.315624 111.83125 37.315624L116.9875 37.315624L116.675 38.8L111.83125 38.8Q107.3 38.8 104.40938 35.51875Q103.2375 38.096874 101.12813 39.425L99.87813 37.940624ZM109.40938 23.64375L116.59688 23.64375L116.59688 27.784374L115.03438 27.784374L115.03438 25.128124L102.06563 25.128124L102.06563 27.940624L100.50313 27.940624L100.50313 23.64375L107.6125 23.64375L107.6125 21.378124L109.33125 21.378124Q110.1125 21.534374 109.40938 22.003124L109.40938 23.64375ZM133.08125 34.7375Q129.72188 38.409374 125.81563 38.409374Q123.00313 38.409374 121.675 37.08125Q120.65938 36.065624 120.65938 33.175L120.65938 22.70625L122.3 22.70625Q123.00313 22.8625 122.45625 23.33125L122.45625 33.175Q122.45625 35.128124 123.15938 35.83125Q124.01875 36.690624 125.7375 36.690624Q128.78438 36.690624 131.90938 33.253124L133.08125 34.7375ZM150.65938 36.534374L150.65938 38.253124L147.22188 38.253124Q144.25313 38.253124 141.59688 36.846874L142.3 35.440624Q144.33125 36.534374 147.22188 36.534374L150.65938 36.534374ZM139.87813 27.39375Q138.70625 34.346874 136.9875 38.409374L135.26875 37.8625Q137.37813 32.940624 138.2375 27.55Q136.3625 27.70625 134.87813 27.70625L134.56563 26.14375Q136.75313 26.14375 138.47188 25.9875Q138.78438 23.565624 139.01875 21.76875L140.58125 22.08125Q141.44063 22.315624 140.7375 22.70625Q140.50313 23.64375 140.1125 25.83125Q141.90938 25.596874 143.39375 25.20625L143.70625 26.76875Q141.675 27.159374 139.87813 27.39375ZM150.26875 30.05Q145.7375 30.20625 143.15938 31.3L142.69063 29.7375Q146.05 28.409374 149.95625 28.409374L150.26875 30.05ZM165.45625 36.76875L165.45625 34.89375L157.56563 34.89375L157.56563 36.76875L165.45625 36.76875ZM159.675 27.471874L163.34688 27.471874L164.3625 24.58125L158.58125 24.58125L159.675 27.471874ZM170.3 27.471874L170.3 28.95625L152.56563 28.95625L152.56563 27.471874L158.1125 27.471874L156.8625 24.58125L154.3625 24.58125L154.3625 23.096874L160.69063 23.096874L160.69063 21.221874L162.175 21.221874Q162.8 21.3 162.25313 21.690624L162.25313 23.096874L168.65938 23.096874L168.65938 24.58125L166.15938 24.58125L164.83125 27.471874L170.3 27.471874ZM165.45625 33.409374L165.45625 31.76875L157.56563 31.76875L157.56563 33.409374L165.45625 33.409374ZM167.01875 38.878124L165.45625 38.878124L165.45625 38.253124L157.56563 38.253124L157.56563 39.26875L156.00313 39.26875L156.00313 30.284374L167.01875 30.284374L167.01875 38.878124ZM181.55 23.4875L184.83125 23.4875L184.83125 30.83125L183.50313 30.83125L183.50313 30.51875L182.33125 30.51875L182.33125 32.003124L189.9875 32.003124L189.9875 33.4875L183.19063 33.4875Q186.39375 36.065624 190.45625 36.6125L189.9875 38.409374Q184.75313 37.159374 182.33125 34.346874L182.33125 39.190624L180.76875 39.190624L180.76875 34.815624Q178.03438 37.315624 173.425 38.721874L172.72188 37.003124Q177.09688 36.065624 180.22188 33.4875L173.1125 33.4875L173.1125 32.003124L180.76875 32.003124L180.76875 30.51875L179.59688 30.51875L179.59688 30.9875L178.26875 30.9875L178.26875 23.4875L180.3 23.4875L180.76875 21.378124L182.4875 21.690624Q182.8 21.76875 182.25313 22.159374L181.55 23.4875ZM189.05 23.878124Q188.1125 24.7375 186.55 26.065624L185.3 24.971874Q186.94063 23.565624 188.03438 22.39375L189.44063 23.64375Q189.51875 24.034374 189.05 23.878124ZM179.59688 29.26875L183.50313 29.26875L183.50313 27.628124L179.59688 27.628124L179.59688 29.26875ZM179.59688 24.7375L179.59688 26.378124L183.50313 26.378124L183.50313 24.7375L179.59688 24.7375ZM188.81563 30.440624Q187.09688 28.95625 185.3 27.940624L186.31563 26.6125Q187.87813 27.315624 189.9875 28.95625L188.81563 30.440624ZM174.44063 30.753124Q174.3625 31.221874 174.05 30.909374L173.1125 29.346874Q175.14375 28.33125 176.8625 26.76875L177.72188 28.096874Q176.62813 29.190624 174.44063 30.753124ZM176.47188 26.14375Q175.14375 25.20625 173.81563 24.425L174.75313 23.01875Q176.39375 23.8 177.4875 24.503124L176.47188 26.14375Z" fill-rule="nonzero"/><path fill="#757575" d="M200.62813 23.33125L205.26875 34.925L209.925 23.33125L212.34688 23.33125L212.34688 37.55L210.47188 37.55L210.47188 32.01875L210.65938 26.034374L205.9875 37.55L204.55 37.55L199.89375 26.065624L200.08125 32.01875L200.08125 37.55L198.20625 37.55L198.20625 23.33125L200.62813 23.33125ZM221.44063 36.503124Q220.39375 37.753124 218.34688 37.753124Q216.65938 37.753124 215.76875 36.76875Q214.89375 35.784374 214.87813 33.8625L214.87813 26.9875L216.69063 26.9875L216.69063 33.815624Q216.69063 36.20625 218.64375 36.20625Q220.70625 36.20625 221.39375 34.675L221.39375 26.9875L223.20625 26.9875L223.20625 37.55L221.4875 37.55L221.44063 36.503124ZM232.06563 34.753124Q232.06563 34.01875 231.51875 33.6125Q230.97188 33.20625 229.59688 32.909374Q228.22188 32.6125 227.40938 32.20625Q226.6125 31.8 226.22188 31.2375Q225.84688 30.659374 225.84688 29.878124Q225.84688 28.58125 226.94063 27.690624Q228.03438 26.784374 229.75313 26.784374Q231.55 26.784374 232.65938 27.721874Q233.78438 28.64375 233.78438 30.08125L231.95625 30.08125Q231.95625 29.346874 231.33125 28.815624Q230.70625 28.26875 229.75313 28.26875Q228.75313 28.26875 228.19063 28.70625Q227.64375 29.128124 227.64375 29.83125Q227.64375 30.471874 228.15938 30.815624Q228.675 31.14375 230.03438 31.45625Q231.39375 31.753124 232.22188 32.175Q233.06563 32.58125 233.47188 33.175Q233.87813 33.76875 233.87813 34.6125Q233.87813 36.034374 232.7375 36.89375Q231.6125 37.753124 229.8 37.753124Q228.53438 37.753124 227.55 37.3Q226.58125 36.846874 226.01875 36.05Q225.47188 35.2375 225.47188 34.3L227.28438 34.3Q227.33125 35.20625 228.00313 35.7375Q228.69063 36.26875 229.8 36.26875Q230.83125 36.26875 231.44063 35.8625Q232.06563 35.440624 232.06563 34.753124ZM237.87813 37.55L236.08125 37.55L236.08125 26.9875L237.87813 26.9875L237.87813 37.55ZM235.925 24.175Q235.925 23.7375 236.19063 23.440624Q236.47188 23.128124 236.9875 23.128124Q237.51875 23.128124 237.78438 23.440624Q238.06563 23.7375 238.06563 24.175Q238.06563 24.6125 237.78438 24.909374Q237.51875 25.20625 236.9875 25.20625Q236.47188 25.20625 236.19063 24.909374Q235.925 24.6125 235.925 24.175ZM245.15938 36.26875Q246.12813 36.26875 246.84688 35.690624Q247.56563 35.096874 247.64375 34.221874L249.3625 34.221874Q249.3 35.128124 248.72188 35.95625Q248.15938 36.76875 247.19063 37.26875Q246.2375 37.753124 245.15938 37.753124Q243.00313 37.753124 241.72188 36.315624Q240.45625 34.8625 240.45625 32.3625L240.45625 32.065624Q240.45625 30.51875 241.01875 29.315624Q241.58125 28.1125 242.64375 27.45625Q243.70625 26.784374 245.14375 26.784374Q246.925 26.784374 248.09688 27.846874Q249.28438 28.909374 249.3625 30.6125L247.64375 30.6125Q247.56563 29.596874 246.8625 28.940624Q246.175 28.26875 245.14375 28.26875Q243.76875 28.26875 243.00313 29.26875Q242.25313 30.253124 242.25313 32.128124L242.25313 32.471874Q242.25313 34.3 243.00313 35.284374Q243.75313 36.26875 245.15938 36.26875ZM265.26874 35.065624L267.3 26.9875L269.1125 26.9875L266.03436 37.55L264.5656 37.55L262.0031 29.534374L259.5031 37.55L258.03436 37.55L254.97188 26.9875L256.76874 26.9875L258.84686 34.89375L261.3156 26.9875L262.76874 26.9875L265.26874 35.065624ZM272.8781 37.55L271.08124 37.55L271.08124 26.9875L272.8781 26.9875L272.8781 37.55ZM270.925 24.175Q270.925 23.7375 271.1906 23.440624Q271.47186 23.128124 271.9875 23.128124Q272.51874 23.128124 272.78436 23.440624Q273.0656 23.7375 273.0656 24.175Q273.0656 24.6125 272.78436 24.909374Q272.51874 25.20625 271.9875 25.20625Q271.47186 25.20625 271.1906 24.909374Q270.925 24.6125 270.925 24.175ZM278.3625 24.425L278.3625 26.9875L280.34686 26.9875L280.34686 28.378124L278.3625 28.378124L278.3625 34.925Q278.3625 35.565624 278.6281 35.89375Q278.89374 36.20625 279.53436 36.20625Q279.84686 36.20625 280.39374 36.08125L280.39374 37.55Q279.675 37.753124 279.0031 37.753124Q277.8 37.753124 277.175 37.01875Q276.5656 36.284374 276.5656 34.925L276.5656 28.378124L274.64374 28.378124L274.64374 26.9875L276.5656 26.9875L276.5656 24.425L278.3625 24.425ZM284.72186 28.26875Q285.925 26.784374 287.84686 26.784374Q291.20624 26.784374 291.22186 30.565624L291.22186 37.55L289.425 37.55L289.425 30.55Q289.40936 29.409374 288.89374 28.8625Q288.39374 28.315624 287.3 28.315624Q286.425 28.315624 285.7531 28.784374Q285.09686 29.253124 284.72186 30.01875L284.72186 37.55L282.925 37.55L282.925 22.55L284.72186 22.55L284.72186 28.26875ZM305.4406 37.55Q305.28436 37.2375 305.1906 36.440624Q303.925 37.753124 302.175 37.753124Q300.6125 37.753124 299.6125 36.8625Q298.6125 35.971874 298.6125 34.6125Q298.6125 32.971874 299.8625 32.065624Q301.1281 31.14375 303.39374 31.14375L305.15936 31.14375L305.15936 30.315624Q305.15936 29.3625 304.58124 28.8Q304.01874 28.2375 302.925 28.2375Q301.95624 28.2375 301.3 28.7375Q300.64374 29.221874 300.64374 29.909374L298.83124 29.909374Q298.83124 29.128124 299.39374 28.39375Q299.95624 27.64375 300.90936 27.221874Q301.8781 26.784374 303.03436 26.784374Q304.8625 26.784374 305.89374 27.70625Q306.925 28.6125 306.97186 30.221874L306.97186 35.08125Q306.97186 36.534374 307.33124 37.39375L307.33124 37.55L305.4406 37.55ZM302.4406 36.175Q303.3 36.175 304.05 35.7375Q304.8156 35.3 305.15936 34.596874L305.15936 32.425L303.7375 32.425Q300.425 32.425 300.425 34.3625Q300.425 35.221874 300.9875 35.70625Q301.55 36.175 302.4406 36.175ZM315.8 37.55L315.8 28.378124L314.14374 28.378124L314.14374 26.9875L315.8 26.9875L315.8 25.89375Q315.8 24.20625 316.70624 23.284374Q317.6281 22.346874 319.28436 22.346874Q319.90936 22.346874 320.51874 22.503124L320.425 23.971874Q319.97186 23.89375 319.45624 23.89375Q318.5656 23.89375 318.08124 24.409374Q317.6125 24.909374 317.6125 25.8625L317.6125 26.9875L319.8625 26.9875L319.8625 28.378124L317.6125 28.378124L317.6125 37.55L315.8 37.55ZM323.8781 37.55L322.08124 37.55L322.08124 26.9875L323.8781 26.9875L323.8781 37.55ZM321.925 24.175Q321.925 23.7375 322.1906 23.440624Q322.47186 23.128124 322.9875 23.128124Q323.51874 23.128124 323.78436 23.440624Q324.0656 23.7375 324.0656 24.175Q324.0656 24.6125 323.78436 24.909374Q323.51874 25.20625 322.9875 25.20625Q322.47186 25.20625 322.1906 24.909374Q321.925 24.6125 321.925 24.175ZM330.45624 30.846874L332.8 26.9875L334.90936 26.9875L331.45624 32.20625L335.01874 37.55L332.9406 37.55L330.4875 33.596874L328.05 37.55L325.95624 37.55L329.51874 32.20625L326.0656 26.9875L328.14374 26.9875L330.45624 30.846874ZM341.3 37.753124Q339.15936 37.753124 337.8 36.346874Q336.45624 34.925 336.45624 32.565624L336.45624 32.221874Q336.45624 30.659374 337.05 29.425Q337.65936 28.190624 338.7375 27.4875Q339.8156 26.784374 341.08124 26.784374Q343.14374 26.784374 344.28436 28.14375Q345.425 29.503124 345.425 32.034374L345.425 32.784374L338.26874 32.784374Q338.3 34.346874 339.175 35.315624Q340.05 36.26875 341.39374 36.26875Q342.3625 36.26875 343.01874 35.878124Q343.6906 35.4875 344.1906 34.846874L345.28436 35.70625Q343.95624 37.753124 341.3 37.753124ZM341.08124 28.26875Q339.9875 28.26875 339.2375 29.065624Q338.5031 29.8625 338.33124 31.3L343.6125 31.3L343.6125 31.159374Q343.53436 29.784374 342.8625 29.034374Q342.20624 28.26875 341.08124 28.26875ZM347.47186 32.175Q347.47186 29.753124 348.6281 28.26875Q349.78436 26.784374 351.64374 26.784374Q353.5031 26.784374 354.58124 28.05L354.58124 22.55L356.39374 22.55L356.39374 37.55L354.7375 37.55L354.64374 36.409374Q353.5656 37.753124 351.6281 37.753124Q349.8 37.753124 348.6281 36.253124Q347.47186 34.7375 347.47186 32.315624L347.47186 32.175ZM349.28436 32.378124Q349.28436 34.175 350.01874 35.190624Q350.76874 36.20625 352.08124 36.20625Q353.8 36.20625 354.58124 34.675L354.58124 29.815624Q353.78436 28.315624 352.09686 28.315624Q350.76874 28.315624 350.01874 29.346874Q349.28436 30.378124 349.28436 32.378124ZM366.8625 32.659374L365.7375 33.83125L365.7375 37.55L363.925 37.55L363.925 22.55L365.7375 22.55L365.7375 31.628124L366.70624 30.45625L369.9875 26.9875L372.1906 26.9875L368.08124 31.39375L372.675 37.55L370.55 37.55L366.8625 32.659374ZM378.3 37.753124Q376.15936 37.753124 374.8 36.346874Q373.45624 34.925 373.45624 32.565624L373.45624 32.221874Q373.45624 30.659374 374.05 29.425Q374.65936 28.190624 375.7375 27.4875Q376.8156 26.784374 378.08124 26.784374Q380.14374 26.784374 381.28436 28.14375Q382.425 29.503124 382.425 32.034374L382.425 32.784374L375.26874 32.784374Q375.3 34.346874 376.175 35.315624Q377.05 36.26875 378.39374 36.26875Q379.3625 36.26875 380.01874 35.878124Q380.6906 35.4875 381.1906 34.846874L382.28436 35.70625Q380.95624 37.753124 378.3 37.753124ZM378.08124 28.26875Q376.9875 28.26875 376.2375 29.065624Q375.5031 29.8625 375.33124 31.3L380.6125 31.3L380.6125 31.159374Q380.53436 29.784374 379.8625 29.034374Q379.20624 28.26875 378.08124 28.26875ZM388.3781 34.909374L390.83124 26.9875L392.76874 26.9875L388.51874 39.175Q387.53436 41.815624 385.39374 41.815624L385.05 41.784374L384.3781 41.659374L384.3781 40.190624L384.8625 40.2375Q385.78436 40.2375 386.28436 39.8625Q386.8 39.4875 387.1281 38.503124L387.53436 37.425L383.76874 26.9875L385.7375 26.9875L388.3781 34.909374ZM405.0656 34.753124Q405.0656 34.01875 404.51874 33.6125Q403.97186 33.20625 402.59686 32.909374Q401.22186 32.6125 400.40936 32.20625Q399.6125 31.8 399.22186 31.2375Q398.84686 30.659374 398.84686 29.878124Q398.84686 28.58125 399.9406 27.690624Q401.03436 26.784374 402.7531 26.784374Q404.55 26.784374 405.65936 27.721874Q406.78436 28.64375 406.78436 30.08125L404.95624 30.08125Q404.95624 29.346874 404.33124 28.815624Q403.70624 28.26875 402.7531 28.26875Q401.7531 28.26875 401.1906 28.70625Q400.64374 29.128124 400.64374 29.83125Q400.64374 30.471874 401.15936 30.815624Q401.675 31.14375 403.03436 31.45625Q404.39374 31.753124 405.22186 32.175Q406.0656 32.58125 406.47186 33.175Q406.8781 33.76875 406.8781 34.6125Q406.8781 36.034374 405.7375 36.89375Q404.6125 37.753124 402.8 37.753124Q401.53436 37.753124 400.55 37.3Q399.58124 36.846874 399.01874 36.05Q398.47186 35.2375 398.47186 34.3L400.28436 34.3Q400.33124 35.20625 401.0031 35.7375Q401.6906 36.26875 402.8 36.26875Q403.83124 36.26875 404.4406 35.8625Q405.0656 35.440624 405.0656 34.753124ZM410.8781 37.55L409.08124 37.55L409.08124 26.9875L410.8781 26.9875L410.8781 37.55ZM408.925 24.175Q408.925 23.7375 409.1906 23.440624Q409.47186 23.128124 409.9875 23.128124Q410.51874 23.128124 410.78436 23.440624Q411.0656 23.7375 411.0656 24.175Q411.0656 24.6125 410.78436 24.909374Q410.51874 25.20625 409.9875 25.20625Q409.47186 25.20625 409.1906 24.909374Q408.925 24.6125 408.925 24.175ZM413.4875 32.175Q413.4875 29.70625 414.6281 28.253124Q415.76874 26.784374 417.65936 26.784374Q419.59686 26.784374 420.675 28.159374L420.76874 26.9875L422.40936 26.9875L422.40936 37.3Q422.40936 39.346874 421.1906 40.51875Q419.9875 41.70625 417.925 41.70625Q416.78436 41.70625 415.6906 41.221874Q414.59686 40.7375 414.01874 39.878124L414.95624 38.8Q416.1281 40.2375 417.8 40.2375Q419.1281 40.2375 419.8625 39.4875Q420.59686 38.753124 420.59686 37.409374L420.59686 36.4875Q419.51874 37.753124 417.64374 37.753124Q415.78436 37.753124 414.6281 36.253124Q413.4875 34.753124 413.4875 32.175ZM415.3 32.378124Q415.3 34.175 416.03436 35.190624Q416.76874 36.20625 418.08124 36.20625Q419.8 36.20625 420.59686 34.659374L420.59686 29.83125Q419.76874 28.315624 418.1125 28.315624Q416.78436 28.315624 416.03436 29.346874Q415.3 30.378124 415.3 32.378124ZM426.6281 26.9875L426.6906 28.315624Q427.89374 26.784374 429.84686 26.784374Q433.20624 26.784374 433.22186 30.565624L433.22186 37.55L431.425 37.55L431.425 30.55Q431.40936 29.409374 430.89374 28.8625Q430.39374 28.315624 429.3 28.315624Q428.425 28.315624 427.7531 28.784374Q427.09686 29.253124 426.72186 30.01875L426.72186 37.55L424.925 37.55L424.925 26.9875L426.6281 26.9875ZM442.4406 37.55Q442.28436 37.2375 442.1906 36.440624Q440.925 37.753124 439.175 37.753124Q437.6125 37.753124 436.6125 36.8625Q435.6125 35.971874 435.6125 34.6125Q435.6125 32.971874 436.8625 32.065624Q438.1281 31.14375 440.39374 31.14375L442.15936 31.14375L442.15936 30.315624Q442.15936 29.3625 441.58124 28.8Q441.01874 28.2375 439.925 28.2375Q438.95624 28.2375 438.3 28.7375Q437.64374 29.221874 437.64374 29.909374L435.83124 29.909374Q435.83124 29.128124 436.39374 28.39375Q436.95624 27.64375 437.90936 27.221874Q438.8781 26.784374 440.03436 26.784374Q441.8625 26.784374 442.89374 27.70625Q443.925 28.6125 443.97186 30.221874L443.97186 35.08125Q443.97186 36.534374 444.33124 37.39375L444.33124 37.55L442.4406 37.55ZM439.4406 36.175Q440.3 36.175 441.05 35.7375Q441.8156 35.3 442.15936 34.596874L442.15936 32.425L440.7375 32.425Q437.425 32.425 437.425 34.3625Q437.425 35.221874 437.9875 35.70625Q438.55 36.175 439.4406 36.175ZM449.3625 24.425L449.3625 26.9875L451.34686 26.9875L451.34686 28.378124L449.3625 28.378124L449.3625 34.925Q449.3625 35.565624 449.6281 35.89375Q449.89374 36.20625 450.53436 36.20625Q450.84686 36.20625 451.39374 36.08125L451.39374 37.55Q450.675 37.753124 450.0031 37.753124Q448.8 37.753124 448.175 37.01875Q447.5656 36.284374 447.5656 34.925L447.5656 28.378124L445.64374 28.378124L445.64374 26.9875L447.5656 26.9875L447.5656 24.425L449.3625 24.425ZM460.4406 36.503124Q459.39374 37.753124 457.34686 37.753124Q455.65936 37.753124 454.76874 36.76875Q453.89374 35.784374 453.8781 33.8625L453.8781 26.9875L455.6906 26.9875L455.6906 33.815624Q455.6906 36.20625 457.64374 36.20625Q459.70624 36.20625 460.39374 34.675L460.39374 26.9875L462.20624 26.9875L462.20624 37.55L460.4875 37.55L460.4406 36.503124ZM470.01874 28.596874Q469.6125 28.534374 469.14374 28.534374Q467.3625 28.534374 466.72186 30.05L466.72186 37.55L464.925 37.55L464.925 26.9875L466.675 26.9875L466.70624 28.20625Q467.59686 26.784374 469.22186 26.784374Q469.7531 26.784374 470.01874 26.925L470.01874 28.596874ZM476.3 37.753124Q474.15936 37.753124 472.8 36.346874Q471.45624 34.925 471.45624 32.565624L471.45624 32.221874Q471.45624 30.659374 472.05 29.425Q472.65936 28.190624 473.7375 27.4875Q474.8156 26.784374 476.08124 26.784374Q478.14374 26.784374 479.28436 28.14375Q480.425 29.503124 480.425 32.034374L480.425 32.784374L473.26874 32.784374Q473.3 34.346874 474.175 35.315624Q475.05 36.26875 476.39374 36.26875Q477.3625 36.26875 478.01874 35.878124Q478.6906 35.4875 479.1906 34.846874L480.28436 35.70625Q478.95624 37.753124 476.3 37.753124ZM476.08124 28.26875Q474.9875 28.26875 474.2375 29.065624Q473.5031 29.8625 473.33124 31.3L478.6125 31.3L478.6125 31.159374Q478.53436 29.784374 477.8625 29.034374Q477.20624 28.26875 476.08124 28.26875Z" fill-rule="nonzero"/></svg>