<svg version="1.1" viewBox="0.0 0.0 600.0 371.0" fill="none" stroke="none" stroke-linecap="square" stroke-miterlimit="10" width="600" height="371" xmlns:xlink="http://www.w3.org/1999/xlink" xmlns="http://www.w3.org/2000/svg"><path fill="#ffffff" d="M0 0L600.0 0L600.0 371.0L0 371.0L0 0Z" fill-rule="nonzero"/><path fill="#db4437" d="M300.0 54.916668C348.89026 54.916668 394.65973 78.93835 422.43256 119.17423L361.21628 161.42879C347.32986 141.31084 324.44513 129.3 300.0 129.3Z" fill-rule="nonzero"/><path fill="#f4b400" d="M422.43256 119.17423C436.11426 138.99557 444.7789 161.84238 447.68198 185.7515L373.841 194.7174C372.38943 182.76285 368.05713 171.33945 361.21628 161.42879Z" fill-rule="nonzero"/><path fill="#0f9d58" d="M447.68198 185.7515C450.58508 209.66061 447.6398 233.91711 439.09924 256.4367L369.54962 230.06003C373.81992 218.80022 375.29254 206.67197 373.841 194.7174Z" fill-rule="nonzero"/><path fill="#ff6d00" d="M439.09924 256.4367C421.7625 302.1499 383.07178 336.4269 335.6022 348.1271L317.8011 275.9052C341.5359 270.0551 360.88126 252.91661 369.54962 230.06003Z" fill-rule="nonzero"/><path fill="#00695c" d="M230.86469 71.95699C252.19064 60.764263 275.91528 54.916668 300.0 54.916668L300.0 129.3C287.95764 129.3 276.09534 132.2238 265.43234 137.82016Z" fill-rule="nonzero"/><path fill="#f975a8" d="M177.56743 119.17423C191.24911 99.3529 209.53871 83.14972 230.86469 71.95699L265.43234 137.82016C254.76936 143.41653 245.62456 151.51811 238.78372 161.42879Z" fill-rule="nonzero"/><path fill="#3949ab" d="M264.3978 348.1271C216.9282 336.4269 178.23747 302.1499 160.90076 256.4367C143.56403 210.72354 149.7946 159.41013 177.56743 119.17423L238.78372 161.42879C224.89731 181.54672 221.78201 207.20343 230.45038 230.06003C239.11874 252.91661 258.4641 270.0551 282.1989 275.9052Z" fill-rule="nonzero"/><path fill="#ab30c4" d="M335.6022 348.1271C312.21732 353.89096 287.78268 353.89096 264.3978 348.1271L282.1989 275.9052C293.89133 278.78714 306.10867 278.78714 317.8011 275.9052Z" fill-rule="nonzero"/><path fill="#ffffff" d="M358.72952 102.654564L352.2139 102.654564L352.2139 101.748314L355.6514 97.92019Q356.41702 97.04519 356.7139 96.51394Q357.01077 95.967064 357.01077 95.373314Q357.01077 94.60769 356.5264 94.10769Q356.05765 93.60769 355.2764 93.60769Q354.3389 93.60769 353.80765 94.13894Q353.29202 94.67019 353.29202 95.63894L352.0264 95.63894Q352.0264 94.26394 352.9014 93.42019Q353.79202 92.560814 355.2764 92.560814Q356.66702 92.560814 357.4639 93.29519Q358.2764 94.01394 358.2764 95.23269Q358.2764 96.70144 356.4014 98.73269L353.74515 101.623314L358.72952 101.623314L358.72952 102.654564Z" fill-rule="nonzero"/><path fill="#000000" d="M415.10532 164.90297L413.8397 164.90297L413.8397 156.4811L411.2772 157.40297L411.2772 156.26234L414.9022 154.90297L415.10532 154.90297L415.10532 164.90297Z" fill-rule="nonzero"/><path fill="#ffffff" d="M425.79773 223.33842L424.5321 223.33842L424.5321 214.91655L421.9696 215.83842L421.9696 214.6978L425.5946 213.33842L425.79773 213.33842L425.79773 223.33842Z" fill-rule="nonzero"/><path fill="#000000" d="M382.08633 297.0653L375.5707 297.0653L375.5707 296.15906L379.0082 292.33093Q379.77383 291.45593 380.0707 290.92468Q380.36758 290.3778 380.36758 289.78406Q380.36758 289.01843 379.8832 288.51843Q379.41446 288.01843 378.6332 288.01843Q377.6957 288.01843 377.16446 288.54968Q376.64883 289.08093 376.64883 290.04968L375.3832 290.04968Q375.3832 288.67468 376.2582 287.83093Q377.14883 286.97156 378.6332 286.97156Q380.02383 286.97156 380.8207 287.70593Q381.6332 288.42468 381.6332 289.64343Q381.6332 291.11218 379.7582 293.14343L377.10196 296.03406L382.08633 296.03406L382.08633 297.0653Z" fill-rule="nonzero"/><path fill="#ffffff" d="M300.98438 332.37085L299.71875 332.37085L299.71875 323.94897L297.15625 324.87085L297.15625 323.73022L300.78125 322.37085L300.98438 322.37085L300.98438 332.37085Z" fill-rule="nonzero"/><path fill="#ffffff" d="M188.05093 248.11995L189.42593 248.11995L189.42593 249.1512L188.05093 249.1512L188.05093 251.4637L186.76968 251.4637L186.76968 249.1512L182.23843 249.1512L182.23843 248.4012L186.69156 241.51057L188.05093 241.51057L188.05093 248.11995ZM183.67593 248.11995L186.76968 248.11995L186.76968 243.24495L186.62906 243.51057L183.67593 248.11995Z" fill-rule="nonzero"/><path fill="#000000" d="M222.2418 119.301346L220.97618 119.301346L220.97618 110.87947L218.41368 111.801346L218.41368 110.66072L222.03868 109.301346L222.2418 109.301346L222.2418 119.301346Z" fill-rule="nonzero"/><path fill="#ffffff" d="M272.0258 90.69372L270.76016 90.69372L270.76016 82.27184L268.19766 83.19372L268.19766 82.05309L271.82266 80.69372L272.0258 80.69372L272.0258 90.69372Z" fill-rule="nonzero"/><path fill="#757575" d="M25.2375 65.072914L23.8625 65.68229L23.8625 67.916664L23.284374 67.916664L23.284374 65.947914L20.83125 67.041664L20.83125 69.354164L20.253124 69.354164L20.253124 67.30729L18.878124 67.916664L18.878124 66.760414L20.253124 66.166664L20.253124 62.77604L18.878124 63.385414L18.878124 62.24479L20.253124 61.635414L20.253124 59.40104L20.83125 59.40104L20.83125 61.36979L23.284374 60.27604L23.284374 57.90104L23.8625 57.90104L23.8625 60.010414L25.2375 59.40104L25.2375 60.541664L23.8625 61.15104L23.8625 64.52604L25.2375 63.916664L25.2375 65.072914ZM23.284374 64.791664L23.284374 61.416664L20.83125 62.510414L20.83125 65.885414L23.284374 64.791664Z" fill-rule="nonzero"/><path fill="#757575" d="M28.221874 62.322914L29.159374 62.322914Q30.065624 62.30729 30.565624 61.854164Q31.08125 61.40104 31.08125 60.61979Q31.08125 58.86979 29.346874 58.86979Q28.51875 58.86979 28.034374 59.33854Q27.55 59.80729 27.55 60.572914L26.284374 60.572914Q26.284374 59.385414 27.14375 58.604164Q28.01875 57.822914 29.346874 57.822914Q30.753124 57.822914 31.55 58.572914Q32.346874 59.322914 32.346874 60.635414Q32.346874 61.291664 31.925 61.90104Q31.51875 62.510414 30.784374 62.80729Q31.6125 63.072914 32.05 63.68229Q32.503124 64.27604 32.503124 65.135414Q32.503124 66.479164 31.628124 67.27604Q30.753124 68.05729 29.346874 68.05729Q27.95625 68.05729 27.065624 67.30729Q26.190624 66.541664 26.190624 65.291664L27.471874 65.291664Q27.471874 66.072914 27.971874 66.55729Q28.4875 67.02604 29.346874 67.02604Q30.26875 67.02604 30.753124 66.541664Q31.2375 66.05729 31.2375 65.166664Q31.2375 64.30729 30.70625 63.83854Q30.175 63.36979 29.159374 63.354164L28.221874 63.354164L28.221874 62.322914Z" fill-rule="nonzero"/><path fill="#9e9e9e" d="M25.8 78.666664L21.675 87.916664L20.3625 87.916664L24.45625 78.99479L19.08125 78.99479L19.08125 77.96354L25.8 77.96354L25.8 78.666664ZM27.534374 87.260414Q27.534374 86.93229 27.721874 86.71354Q27.925 86.49479 28.315624 86.49479Q28.70625 86.49479 28.909374 86.71354Q29.1125 86.93229 29.1125 87.260414Q29.1125 87.572914 28.909374 87.791664Q28.70625 87.99479 28.315624 87.99479Q27.925 87.99479 27.721874 87.791664Q27.534374 87.572914 27.534374 87.260414ZM37.8 78.666664L33.675 87.916664L32.3625 87.916664L36.45625 78.99479L31.08125 78.99479L31.08125 77.96354L37.8 77.96354L37.8 78.666664ZM39.26875 79.86979Q39.26875 78.979164 39.83125 78.40104Q40.409374 77.822914 41.3 77.822914Q42.221874 77.822914 42.784374 78.416664Q43.346874 78.99479 43.346874 79.916664L43.346874 80.40104Q43.346874 81.30729 42.76875 81.885414Q42.20625 82.447914 41.315624 82.447914Q40.425 82.447914 39.846874 81.885414Q39.26875 81.30729 39.26875 80.354164L39.26875 79.86979ZM40.20625 80.40104Q40.20625 80.93229 40.503124 81.27604Q40.815624 81.61979 41.315624 81.61979Q41.8 81.61979 42.096874 81.291664Q42.39375 80.96354 42.39375 80.36979L42.39375 79.86979Q42.39375 79.33854 42.096874 78.99479Q41.815624 78.65104 41.3 78.65104Q40.8 78.65104 40.503124 78.99479Q40.20625 79.33854 40.20625 79.90104L40.20625 80.40104ZM44.1125 85.479164Q44.1125 84.572914 44.675 84.010414Q45.253124 83.43229 46.14375 83.43229Q47.05 83.43229 47.6125 84.010414Q48.190624 84.572914 48.190624 85.52604L48.190624 86.010414Q48.190624 86.90104 47.6125 87.479164Q47.05 88.05729 46.159374 88.05729Q45.284374 88.05729 44.690624 87.49479Q44.1125 86.916664 44.1125 85.96354L44.1125 85.479164ZM45.065624 86.010414Q45.065624 86.541664 45.3625 86.90104Q45.659374 87.24479 46.159374 87.24479Q46.659374 87.24479 46.95625 86.90104Q47.253124 86.55729 47.253124 85.979164L47.253124 85.479164Q47.253124 84.93229 46.940624 84.58854Q46.64375 84.24479 46.159374 84.24479Q45.659374 84.24479 45.3625 84.58854Q45.065624 84.93229 45.065624 85.510414L45.065624 86.010414ZM41.6125 87.166664L40.89375 86.71354L45.753124 78.93229L46.471874 79.385414L41.6125 87.166664Z" fill-rule="nonzero"/><path stroke="#757575" stroke-width="1.0" stroke-linecap="butt" d="M18.55 73.416664L145.23334 73.416664L266.17792 66.46175" fill-rule="nonzero"/><path fill="#9e9e9e" d="M268.17792 66.46175C268.17792 65.35718 267.28247 64.46175 266.17792 64.46175C265.07333 64.46175 264.17792 65.35718 264.17792 66.46175C264.17792 67.566315 265.07333 68.46175 266.17792 68.46175C267.28247 68.46175 268.17792 67.566315 268.17792 66.46175" fill-rule="nonzero"/><path fill="#757575" d="M25.2375 102.072914L23.8625 102.68229L23.8625 104.916664L23.284374 104.916664L23.284374 102.947914L20.83125 104.041664L20.83125 106.354164L20.253124 106.354164L20.253124 104.30729L18.878124 104.916664L18.878124 103.760414L20.253124 103.166664L20.253124 99.77604L18.878124 100.385414L18.878124 99.24479L20.253124 98.635414L20.253124 96.40104L20.83125 96.40104L20.83125 98.36979L23.284374 97.27604L23.284374 94.90104L23.8625 94.90104L23.8625 97.010414L25.2375 96.40104L25.2375 97.541664L23.8625 98.15104L23.8625 101.52604L25.2375 100.916664L25.2375 102.072914ZM23.284374 101.791664L23.284374 98.416664L20.83125 99.510414L20.83125 102.885414L23.284374 101.791664Z" fill-rule="nonzero"/><path fill="#757575" d="M32.89375 104.916664L26.378124 104.916664L26.378124 104.010414L29.815624 100.18229Q30.58125 99.30729 30.878124 98.77604Q31.175 98.229164 31.175 97.635414Q31.175 96.86979 30.690624 96.36979Q30.221874 95.86979 29.440624 95.86979Q28.503124 95.86979 27.971874 96.40104Q27.45625 96.93229 27.45625 97.90104L26.190624 97.90104Q26.190624 96.52604 27.065624 95.68229Q27.95625 94.822914 29.440624 94.822914Q30.83125 94.822914 31.628124 95.55729Q32.440624 96.27604 32.440624 97.49479Q32.440624 98.96354 30.565624 100.99479L27.909374 103.885414L32.89375 103.885414L32.89375 104.916664Z" fill-rule="nonzero"/><path fill="#9e9e9e" d="M25.8 115.666664L21.675 124.916664L20.3625 124.916664L24.45625 115.99479L19.08125 115.99479L19.08125 114.96354L25.8 114.96354L25.8 115.666664ZM27.534374 124.260414Q27.534374 123.93229 27.721874 123.71354Q27.925 123.49479 28.315624 123.49479Q28.70625 123.49479 28.909374 123.71354Q29.1125 123.93229 29.1125 124.260414Q29.1125 124.572914 28.909374 124.791664Q28.70625 124.99479 28.315624 124.99479Q27.925 124.99479 27.721874 124.791664Q27.534374 124.572914 27.534374 124.260414ZM37.8 115.666664L33.675 124.916664L32.3625 124.916664L36.45625 115.99479L31.08125 115.99479L31.08125 114.96354L37.8 114.96354L37.8 115.666664ZM39.26875 116.86979Q39.26875 115.979164 39.83125 115.40104Q40.409374 114.822914 41.3 114.822914Q42.221874 114.822914 42.784374 115.416664Q43.346874 115.99479 43.346874 116.916664L43.346874 117.40104Q43.346874 118.30729 42.76875 118.885414Q42.20625 119.447914 41.315624 119.447914Q40.425 119.447914 39.846874 118.885414Q39.26875 118.30729 39.26875 117.354164L39.26875 116.86979ZM40.20625 117.40104Q40.20625 117.93229 40.503124 118.27604Q40.815624 118.61979 41.315624 118.61979Q41.8 118.61979 42.096874 118.291664Q42.39375 117.96354 42.39375 117.36979L42.39375 116.86979Q42.39375 116.33854 42.096874 115.99479Q41.815624 115.65104 41.3 115.65104Q40.8 115.65104 40.503124 115.99479Q40.20625 116.33854 40.20625 116.90104L40.20625 117.40104ZM44.1125 122.479164Q44.1125 121.572914 44.675 121.010414Q45.253124 120.43229 46.14375 120.43229Q47.05 120.43229 47.6125 121.010414Q48.190624 121.572914 48.190624 122.52604L48.190624 123.010414Q48.190624 123.90104 47.6125 124.479164Q47.05 125.05729 46.159374 125.05729Q45.284374 125.05729 44.690624 124.49479Q44.1125 123.916664 44.1125 122.96354L44.1125 122.479164ZM45.065624 123.010414Q45.065624 123.541664 45.3625 123.90104Q45.659374 124.24479 46.159374 124.24479Q46.659374 124.24479 46.95625 123.90104Q47.253124 123.55729 47.253124 122.979164L47.253124 122.479164Q47.253124 121.93229 46.940624 121.58854Q46.64375 121.24479 46.159374 121.24479Q45.659374 121.24479 45.3625 121.58854Q45.065624 121.93229 45.065624 122.510414L45.065624 123.010414ZM41.6125 124.166664L40.89375 123.71354L45.753124 115.93229L46.471874 116.385414L41.6125 124.166664Z" fill-rule="nonzero"/><path stroke="#757575" stroke-width="1.0" stroke-linecap="butt" d="M18.55 110.416664L145.23334 110.416664L206.28198 97.89756" fill-rule="nonzero"/><path fill="#9e9e9e" d="M208.28198 97.89756C208.28198 96.792984 207.38655 95.89756 206.28198 95.89756C205.17741 95.89756 204.28198 96.792984 204.28198 97.89756C204.28198 99.00213 205.17741 99.89756 206.28198 99.89756C207.38655 99.89756 208.28198 99.00213 208.28198 97.89756" fill-rule="nonzero"/><path fill="#757575" d="M25.2375 245.4553L23.8625 246.06468L23.8625 248.29906L23.284374 248.29906L23.284374 246.3303L20.83125 247.42406L20.83125 249.73656L20.253124 249.73656L20.253124 247.68968L18.878124 248.29906L18.878124 247.1428L20.253124 246.54906L20.253124 243.15843L18.878124 243.7678L18.878124 242.62718L20.253124 242.0178L20.253124 239.78343L20.83125 239.78343L20.83125 241.75218L23.284374 240.65843L23.284374 238.28343L23.8625 238.28343L23.8625 240.3928L25.2375 239.78343L25.2375 240.92406L23.8625 241.53343L23.8625 244.90843L25.2375 244.29906L25.2375 245.4553ZM23.284374 245.17406L23.284374 241.79906L20.83125 242.8928L20.83125 246.2678L23.284374 245.17406Z" fill-rule="nonzero"/><path fill="#757575" d="M30.534374 248.29906L29.26875 248.29906L29.26875 239.87718L26.70625 240.79906L26.70625 239.65843L30.33125 238.29906L30.534374 238.29906L30.534374 248.29906Z" fill-rule="nonzero"/><path fill="#9e9e9e" d="M21.221874 262.7053L22.159374 262.7053Q23.065624 262.68967 23.565624 262.23654Q24.08125 261.78342 24.08125 261.00217Q24.08125 259.25217 22.346874 259.25217Q21.51875 259.25217 21.034374 259.72092Q20.55 260.18967 20.55 260.9553L19.284374 260.9553Q19.284374 259.7678 20.14375 258.98654Q21.01875 258.2053 22.346874 258.2053Q23.753124 258.2053 24.55 258.9553Q25.346874 259.7053 25.346874 261.0178Q25.346874 261.67404 24.925 262.28342Q24.51875 262.8928 23.784374 263.18967Q24.6125 263.4553 25.05 264.06467Q25.503124 264.65842 25.503124 265.5178Q25.503124 266.86154 24.628124 267.65842Q23.753124 268.43967 22.346874 268.43967Q20.95625 268.43967 20.065624 267.68967Q19.190624 266.92404 19.190624 265.67404L20.471874 265.67404Q20.471874 266.4553 20.971874 266.93967Q21.4875 267.40842 22.346874 267.40842Q23.26875 267.40842 23.753124 266.92404Q24.2375 266.43967 24.2375 265.54904Q24.2375 264.68967 23.70625 264.22092Q23.175 263.75217 22.159374 263.73654L21.221874 263.73654L21.221874 262.7053ZM33.6125 264.04904Q33.6125 266.2678 32.846874 267.36154Q32.096874 268.43967 30.4875 268.43967Q28.89375 268.43967 28.128124 267.3928Q27.3625 266.3303 27.33125 264.22092L27.33125 262.53342Q27.33125 260.34592 28.08125 259.28342Q28.846874 258.2053 30.471874 258.2053Q32.08125 258.2053 32.83125 259.23654Q33.596874 260.2678 33.6125 262.40842L33.6125 264.04904ZM32.346874 262.3303Q32.346874 260.72092 31.89375 259.98654Q31.45625 259.25217 30.471874 259.25217Q29.503124 259.25217 29.05 259.98654Q28.6125 260.7053 28.596874 262.22092L28.596874 264.25217Q28.596874 265.86154 29.065624 266.6428Q29.534374 267.40842 30.4875 267.40842Q31.425 267.40842 31.878124 266.68967Q32.33125 265.9553 32.346874 264.3928L32.346874 262.3303ZM35.534374 267.6428Q35.534374 267.31467 35.721874 267.09592Q35.925 266.87717 36.315624 266.87717Q36.70625 266.87717 36.909374 267.09592Q37.1125 267.31467 37.1125 267.6428Q37.1125 267.9553 36.909374 268.17404Q36.70625 268.37717 36.315624 268.37717Q35.925 268.37717 35.721874 268.17404Q35.534374 267.9553 35.534374 267.6428ZM45.409374 260.93967Q45.409374 261.68967 45.01875 262.2678Q44.628124 262.84592 43.95625 263.17404Q44.7375 263.5178 45.190624 264.15842Q45.64375 264.79904 45.64375 265.61154Q45.64375 266.90842 44.76875 267.67404Q43.909374 268.43967 42.4875 268.43967Q41.05 268.43967 40.175 267.67404Q39.315624 266.8928 39.315624 265.61154Q39.315624 264.79904 39.753124 264.15842Q40.190624 263.50217 40.971874 263.17404Q40.315624 262.84592 39.925 262.2678Q39.55 261.67404 39.55 260.93967Q39.55 259.68967 40.346874 258.9553Q41.159374 258.2053 42.4875 258.2053Q43.8 258.2053 44.596874 258.9553Q45.409374 259.68967 45.409374 260.93967ZM44.378124 265.5803Q44.378124 264.75217 43.846874 264.23654Q43.315624 263.7053 42.45625 263.7053Q41.6125 263.7053 41.096874 264.22092Q40.58125 264.73654 40.58125 265.59592Q40.58125 266.43967 41.08125 266.92404Q41.58125 267.40842 42.4875 267.40842Q43.3625 267.40842 43.8625 266.92404Q44.378124 266.42404 44.378124 265.5803ZM42.4875 259.25217Q41.7375 259.25217 41.26875 259.72092Q40.815624 260.17404 40.815624 260.97092Q40.815624 261.72092 41.26875 262.18967Q41.721874 262.65842 42.471874 262.65842Q43.2375 262.65842 43.690624 262.18967Q44.14375 261.72092 44.14375 260.97092Q44.14375 260.2053 43.675 259.73654Q43.20625 259.25217 42.4875 259.25217ZM47.26875 260.25217Q47.26875 259.36154 47.83125 258.78342Q48.409374 258.2053 49.3 258.2053Q50.221874 258.2053 50.784374 258.79904Q51.346874 259.37717 51.346874 260.29904L51.346874 260.78342Q51.346874 261.68967 50.76875 262.2678Q50.20625 262.8303 49.315624 262.8303Q48.425 262.8303 47.846874 262.2678Q47.26875 261.68967 47.26875 260.73654L47.26875 260.25217ZM48.20625 260.78342Q48.20625 261.31467 48.503124 261.65842Q48.815624 262.00217 49.315624 262.00217Q49.8 262.00217 50.096874 261.67404Q50.39375 261.34592 50.39375 260.75217L50.39375 260.25217Q50.39375 259.72092 50.096874 259.37717Q49.815624 259.03342 49.3 259.03342Q48.8 259.03342 48.503124 259.37717Q48.20625 259.72092 48.20625 260.28342L48.20625 260.78342ZM52.1125 265.86154Q52.1125 264.9553 52.675 264.3928Q53.253124 263.81467 54.14375 263.81467Q55.05 263.81467 55.6125 264.3928Q56.190624 264.9553 56.190624 265.90842L56.190624 266.3928Q56.190624 267.28342 55.6125 267.86154Q55.05 268.43967 54.159374 268.43967Q53.284374 268.43967 52.690624 267.87717Q52.1125 267.29904 52.1125 266.34592L52.1125 265.86154ZM53.065624 266.3928Q53.065624 266.92404 53.3625 267.28342Q53.659374 267.62717 54.159374 267.62717Q54.659374 267.62717 54.95625 267.28342Q55.253124 266.93967 55.253124 266.36154L55.253124 265.86154Q55.253124 265.31467 54.940624 264.97092Q54.64375 264.62717 54.159374 264.62717Q53.659374 264.62717 53.3625 264.97092Q53.065624 265.31467 53.065624 265.8928L53.065624 266.3928ZM49.6125 267.54904L48.89375 267.09592L53.753124 259.31467L54.471874 259.7678L49.6125 267.54904Z" fill-rule="nonzero"/><path stroke="#757575" stroke-width="1.0" stroke-linecap="butt" d="M18.55 253.79906L145.23334 253.79906L167.85571 253.79906" fill-rule="nonzero"/><path fill="#9e9e9e" d="M169.85571 253.79906C169.85571 252.69449 168.96028 251.79906 167.85571 251.79906C166.75114 251.79906 165.85571 252.69449 165.85571 253.79906C165.85571 254.90363 166.75114 255.79906 167.85571 255.79906C168.96028 255.79906 169.85571 254.90363 169.85571 253.79906" fill-rule="nonzero"/><path fill="#757575" d="M565.2469 72.93394Q565.96564 72.49644 566.5594 71.88706Q567.8719 70.57456 567.8719 69.32456Q567.8719 68.71519 567.4969 68.34019Q567.16876 68.01206 566.77814 68.01206Q565.85626 68.01206 565.2469 68.34019L565.2469 72.93394ZM566.45 72.65269Q565.79376 73.10581 564.48126 73.87144L564.48126 62.324562L565.2469 62.324562L565.2469 67.90269Q565.96564 67.51206 566.95 67.51206Q567.8719 67.51206 568.3719 68.01206Q568.91876 68.55894 568.91876 69.43394Q568.91876 70.46519 567.8719 71.51206Q567.27814 72.10581 566.45 72.65269Z" fill-rule="nonzero"/><path fill="#757575" d="M579.2469 63.090187L579.2469 64.15269L579.0125 64.15269Q577.52814 64.18394 576.65314 65.02769Q575.77814 65.87144 575.6375 67.41831Q576.4344 66.51206 577.79376 66.51206Q579.09064 66.51206 579.85626 67.43394Q580.6375 68.34019 580.6375 69.79331Q580.6375 71.34019 579.79376 72.26206Q578.96564 73.18394 577.5594 73.18394Q576.1375 73.18394 575.2469 72.09019Q574.35626 70.98081 574.35626 69.26206L574.35626 68.77769Q574.35626 66.02769 575.52814 64.57456Q576.7 63.121437 579.0125 63.090187L579.2469 63.090187ZM577.575 67.57456Q576.9344 67.57456 576.3875 67.96519Q575.84064 68.34019 575.6219 68.93394L575.6219 69.40269Q575.6219 70.63706 576.16876 71.38706Q576.73126 72.13706 577.5594 72.13706Q578.41876 72.13706 578.90314 71.51206Q579.3875 70.87144 579.3875 69.85581Q579.3875 68.82456 578.8875 68.19956Q578.40314 67.57456 577.575 67.57456Z" fill-rule="nonzero"/><path fill="#9e9e9e" d="M548.4344 93.04331L547.16876 93.04331L547.16876 84.62144L544.60626 85.54331L544.60626 84.40269L548.23126 83.04331L548.4344 83.04331L548.4344 93.04331ZM552.85626 88.05894L553.3719 83.09019L558.46564 83.09019L558.46564 84.26206L554.4344 84.26206L554.1375 86.96519Q554.8719 86.54331 555.79376 86.54331Q557.15314 86.54331 557.95 87.44956Q558.7625 88.34019 558.7625 89.87144Q558.7625 91.40269 557.91876 92.29331Q557.09064 93.18394 555.60626 93.18394Q554.29376 93.18394 553.45 92.44956Q552.6219 91.71519 552.4969 90.41831L553.7 90.41831Q553.8094 91.27769 554.29376 91.71519Q554.79376 92.15269 555.60626 92.15269Q556.48126 92.15269 556.98126 91.55894Q557.4969 90.94956 557.4969 89.88706Q557.4969 88.88706 556.95 88.29331Q556.40314 87.68394 555.4969 87.68394Q554.6844 87.68394 554.2 88.04331L553.8719 88.30894L552.85626 88.05894ZM560.4344 92.38706Q560.4344 92.05894 560.6219 91.84019Q560.825 91.62144 561.21564 91.62144Q561.60626 91.62144 561.8094 91.84019Q562.0125 92.05894 562.0125 92.38706Q562.0125 92.69956 561.8094 92.91831Q561.60626 93.12144 561.21564 93.12144Q560.825 93.12144 560.6219 92.91831Q560.4344 92.69956 560.4344 92.38706ZM569.6219 89.69956L570.9969 89.69956L570.9969 90.73081L569.6219 90.73081L569.6219 93.04331L568.34064 93.04331L568.34064 90.73081L563.8094 90.73081L563.8094 89.98081L568.2625 83.09019L569.6219 83.09019L569.6219 89.69956ZM565.2469 89.69956L568.34064 89.69956L568.34064 84.82456L568.2 85.09019L565.2469 89.69956ZM572.16876 84.99644Q572.16876 84.10581 572.73126 83.52769Q573.3094 82.94956 574.2 82.94956Q575.1219 82.94956 575.6844 83.54331Q576.2469 84.12144 576.2469 85.04331L576.2469 85.52769Q576.2469 86.43394 575.66876 87.01206Q575.10626 87.57456 574.21564 87.57456Q573.325 87.57456 572.7469 87.01206Q572.16876 86.43394 572.16876 85.48081L572.16876 84.99644ZM573.10626 85.52769Q573.10626 86.05894 573.40314 86.40269Q573.71564 86.74644 574.21564 86.74644Q574.7 86.74644 574.9969 86.41831Q575.29376 86.09019 575.29376 85.49644L575.29376 84.99644Q575.29376 84.46519 574.9969 84.12144Q574.71564 83.77769 574.2 83.77769Q573.7 83.77769 573.40314 84.12144Q573.10626 84.46519 573.10626 85.02769L573.10626 85.52769ZM577.0125 90.60581Q577.0125 89.69956 577.575 89.13706Q578.15314 88.55894 579.04376 88.55894Q579.95 88.55894 580.5125 89.13706Q581.09064 89.69956 581.09064 90.65269L581.09064 91.13706Q581.09064 92.02769 580.5125 92.60581Q579.95 93.18394 579.0594 93.18394Q578.1844 93.18394 577.59064 92.62144Q577.0125 92.04331 577.0125 91.09019L577.0125 90.60581ZM577.96564 91.13706Q577.96564 91.66831 578.2625 92.02769Q578.5594 92.37144 579.0594 92.37144Q579.5594 92.37144 579.85626 92.02769Q580.15314 91.68394 580.15314 91.10581L580.15314 90.60581Q580.15314 90.05894 579.84064 89.71519Q579.54376 89.37144 579.0594 89.37144Q578.5594 89.37144 578.2625 89.71519Q577.96564 90.05894 577.96564 90.63706L577.96564 91.13706ZM574.5125 92.29331L573.79376 91.84019L578.65314 84.05894L579.3719 84.51206L574.5125 92.29331Z" fill-rule="nonzero"/><path stroke="#757575" stroke-width="1.0" stroke-linecap="butt" d="M581.45 78.54331L454.76666 78.54331L365.67856 78.54331" fill-rule="nonzero"/><path fill="#9e9e9e" d="M367.67856 78.54331C367.67856 77.438736 366.7831 76.54331 365.67856 76.54331C364.57397 76.54331 363.67856 77.438736 363.67856 78.54331C363.67856 79.64788 364.57397 80.54331 365.67856 80.54331C366.7831 80.54331 367.67856 79.64788 367.67856 78.54331" fill-rule="nonzero"/><path fill="#757575" d="M565.2469 147.95824Q565.96564 147.52074 566.5594 146.91136Q567.8719 145.59886 567.8719 144.34886Q567.8719 143.73949 567.4969 143.36449Q567.16876 143.03636 566.77814 143.03636Q565.85626 143.03636 565.2469 143.36449L565.2469 147.95824ZM566.45 147.67699Q565.79376 148.13011 564.48126 148.89574L564.48126 137.34886L565.2469 137.34886L565.2469 142.92699Q565.96564 142.53636 566.95 142.53636Q567.8719 142.53636 568.3719 143.03636Q568.91876 143.58324 568.91876 144.45824Q568.91876 145.48949 567.8719 146.53636Q567.27814 147.13011 566.45 147.67699Z" fill-rule="nonzero"/><path fill="#757575" d="M574.85626 143.08324L575.3719 138.11449L580.46564 138.11449L580.46564 139.28636L576.4344 139.28636L576.1375 141.98949Q576.8719 141.56761 577.79376 141.56761Q579.15314 141.56761 579.95 142.47386Q580.7625 143.36449 580.7625 144.89574Q580.7625 146.42699 579.91876 147.31761Q579.09064 148.20824 577.60626 148.20824Q576.29376 148.20824 575.45 147.47386Q574.6219 146.73949 574.4969 145.44261L575.7 145.44261Q575.8094 146.30199 576.29376 146.73949Q576.79376 147.17699 577.60626 147.17699Q578.48126 147.17699 578.98126 146.58324Q579.4969 145.97386 579.4969 144.91136Q579.4969 143.91136 578.95 143.31761Q578.40314 142.70824 577.4969 142.70824Q576.6844 142.70824 576.2 143.06761L575.8719 143.33324L574.85626 143.08324Z" fill-rule="nonzero"/><path fill="#9e9e9e" d="M558.7 158.81761L554.575 168.06761L553.2625 168.06761L557.35626 159.14574L551.98126 159.14574L551.98126 158.11449L558.7 158.11449L558.7 158.81761ZM560.4344 167.41136Q560.4344 167.08324 560.6219 166.86449Q560.825 166.64574 561.21564 166.64574Q561.60626 166.64574 561.8094 166.86449Q562.0125 167.08324 562.0125 167.41136Q562.0125 167.72386 561.8094 167.94261Q561.60626 168.14574 561.21564 168.14574Q560.825 168.14574 560.6219 167.94261Q560.4344 167.72386 560.4344 167.41136ZM570.7 158.81761L566.575 168.06761L565.2625 168.06761L569.35626 159.14574L563.98126 159.14574L563.98126 158.11449L570.7 158.11449L570.7 158.81761ZM572.16876 160.02074Q572.16876 159.13011 572.73126 158.55199Q573.3094 157.97386 574.2 157.97386Q575.1219 157.97386 575.6844 158.56761Q576.2469 159.14574 576.2469 160.06761L576.2469 160.55199Q576.2469 161.45824 575.66876 162.03636Q575.10626 162.59886 574.21564 162.59886Q573.325 162.59886 572.7469 162.03636Q572.16876 161.45824 572.16876 160.50511L572.16876 160.02074ZM573.10626 160.55199Q573.10626 161.08324 573.40314 161.42699Q573.71564 161.77074 574.21564 161.77074Q574.7 161.77074 574.9969 161.44261Q575.29376 161.11449 575.29376 160.52074L575.29376 160.02074Q575.29376 159.48949 574.9969 159.14574Q574.71564 158.80199 574.2 158.80199Q573.7 158.80199 573.40314 159.14574Q573.10626 159.48949 573.10626 160.05199L573.10626 160.55199ZM577.0125 165.63011Q577.0125 164.72386 577.575 164.16136Q578.15314 163.58324 579.04376 163.58324Q579.95 163.58324 580.5125 164.16136Q581.09064 164.72386 581.09064 165.67699L581.09064 166.16136Q581.09064 167.05199 580.5125 167.63011Q579.95 168.20824 579.0594 168.20824Q578.1844 168.20824 577.59064 167.64574Q577.0125 167.06761 577.0125 166.11449L577.0125 165.63011ZM577.96564 166.16136Q577.96564 166.69261 578.2625 167.05199Q578.5594 167.39574 579.0594 167.39574Q579.5594 167.39574 579.85626 167.05199Q580.15314 166.70824 580.15314 166.13011L580.15314 165.63011Q580.15314 165.08324 579.84064 164.73949Q579.54376 164.39574 579.0594 164.39574Q578.5594 164.39574 578.2625 164.73949Q577.96564 165.08324 577.96564 165.66136L577.96564 166.16136ZM574.5125 167.31761L573.79376 166.86449L578.65314 159.08324L579.3719 159.53636L574.5125 167.31761Z" fill-rule="nonzero"/><path stroke="#757575" stroke-width="1.0" stroke-linecap="butt" d="M581.45 153.56761L454.76666 153.56761L432.1443 153.56761" fill-rule="nonzero"/><path fill="#9e9e9e" d="M434.1443 153.56761C434.1443 152.46304 433.24887 151.56761 432.1443 151.56761C431.0397 151.56761 430.1443 152.46304 430.1443 153.56761C430.1443 154.67218 431.0397 155.56761 432.1443 155.56761C433.24887 155.56761 434.1443 154.67218 434.1443 153.56761" fill-rule="nonzero"/><path fill="#757575" d="M565.2469 215.1092Q565.96564 214.6717 566.5594 214.06233Q567.8719 212.74983 567.8719 211.49983Q567.8719 210.89046 567.4969 210.51546Q567.16876 210.18733 566.77814 210.18733Q565.85626 210.18733 565.2469 210.51546L565.2469 215.1092ZM566.45 214.82796Q565.79376 215.28108 564.48126 216.0467L564.48126 204.49983L565.2469 204.49983L565.2469 210.07796Q565.96564 209.68733 566.95 209.68733Q567.8719 209.68733 568.3719 210.18733Q568.91876 210.7342 568.91876 211.6092Q568.91876 212.64046 567.8719 213.68733Q567.27814 214.28108 566.45 214.82796Z" fill-rule="nonzero"/><path fill="#757575" d="M579.6219 211.87483L580.9969 211.87483L580.9969 212.90608L579.6219 212.90608L579.6219 215.21858L578.34064 215.21858L578.34064 212.90608L573.8094 212.90608L573.8094 212.15608L578.2625 205.26546L579.6219 205.26546L579.6219 211.87483ZM575.2469 211.87483L578.34064 211.87483L578.34064 206.99983L578.2 207.26546L575.2469 211.87483Z" fill-rule="nonzero"/><path fill="#9e9e9e" d="M558.7 225.96858L554.575 235.21858L553.2625 235.21858L557.35626 226.2967L551.98126 226.2967L551.98126 225.26546L558.7 225.26546L558.7 225.96858ZM560.4344 234.56233Q560.4344 234.2342 560.6219 234.01546Q560.825 233.7967 561.21564 233.7967Q561.60626 233.7967 561.8094 234.01546Q562.0125 234.2342 562.0125 234.56233Q562.0125 234.87483 561.8094 235.09358Q561.60626 235.2967 561.21564 235.2967Q560.825 235.2967 560.6219 235.09358Q560.4344 234.87483 560.4344 234.56233ZM570.7 225.96858L566.575 235.21858L565.2625 235.21858L569.35626 226.2967L563.98126 226.2967L563.98126 225.26546L570.7 225.26546L570.7 225.96858ZM572.16876 227.1717Q572.16876 226.28108 572.73126 225.70296Q573.3094 225.12483 574.2 225.12483Q575.1219 225.12483 575.6844 225.71858Q576.2469 226.2967 576.2469 227.21858L576.2469 227.70296Q576.2469 228.6092 575.66876 229.18733Q575.10626 229.74983 574.21564 229.74983Q573.325 229.74983 572.7469 229.18733Q572.16876 228.6092 572.16876 227.65608L572.16876 227.1717ZM573.10626 227.70296Q573.10626 228.2342 573.40314 228.57796Q573.71564 228.9217 574.21564 228.9217Q574.7 228.9217 574.9969 228.59358Q575.29376 228.26546 575.29376 227.6717L575.29376 227.1717Q575.29376 226.64046 574.9969 226.2967Q574.71564 225.95296 574.2 225.95296Q573.7 225.95296 573.40314 226.2967Q573.10626 226.64046 573.10626 227.20296L573.10626 227.70296ZM577.0125 232.78108Q577.0125 231.87483 577.575 231.31233Q578.15314 230.7342 579.04376 230.7342Q579.95 230.7342 580.5125 231.31233Q581.09064 231.87483 581.09064 232.82796L581.09064 233.31233Q581.09064 234.20296 580.5125 234.78108Q579.95 235.3592 579.0594 235.3592Q578.1844 235.3592 577.59064 234.7967Q577.0125 234.21858 577.0125 233.26546L577.0125 232.78108ZM577.96564 233.31233Q577.96564 233.84358 578.2625 234.20296Q578.5594 234.5467 579.0594 234.5467Q579.5594 234.5467 579.85626 234.20296Q580.15314 233.8592 580.15314 233.28108L580.15314 232.78108Q580.15314 232.2342 579.84064 231.89046Q579.54376 231.5467 579.0594 231.5467Q578.5594 231.5467 578.2625 231.89046Q577.96564 232.2342 577.96564 232.81233L577.96564 233.31233ZM574.5125 234.46858L573.79376 234.01546L578.65314 226.2342L579.3719 226.68733L574.5125 234.46858Z" fill-rule="nonzero"/><path stroke="#757575" stroke-width="1.0" stroke-linecap="butt" d="M581.45 220.71858L454.76666 220.71858L440.29788 220.71858" fill-rule="nonzero"/><path fill="#9e9e9e" d="M442.29788 220.71858C442.29788 219.61401 441.40247 218.71858 440.29788 218.71858C439.19333 218.71858 438.29788 219.61401 438.29788 220.71858C438.29788 221.82315 439.19333 222.71858 440.29788 222.71858C441.40247 222.71858 442.29788 221.82315 442.29788 220.71858" fill-rule="nonzero"/><path fill="#757575" d="M565.2469 291.34064Q565.96564 290.90314 566.5594 290.29376Q567.8719 288.98126 567.8719 287.73126Q567.8719 287.1219 567.4969 286.7469Q567.16876 286.41876 566.77814 286.41876Q565.85626 286.41876 565.2469 286.7469L565.2469 291.34064ZM566.45 291.0594Q565.79376 291.5125 564.48126 292.27814L564.48126 280.73126L565.2469 280.73126L565.2469 286.3094Q565.96564 285.91876 566.95 285.91876Q567.8719 285.91876 568.3719 286.41876Q568.91876 286.96564 568.91876 287.84064Q568.91876 288.8719 567.8719 289.91876Q567.27814 290.5125 566.45 291.0594Z" fill-rule="nonzero"/><path fill="#757575" d="M576.1219 285.85626L577.0594 285.85626Q577.96564 285.84064 578.46564 285.3875Q578.98126 284.9344 578.98126 284.15314Q578.98126 282.40314 577.2469 282.40314Q576.41876 282.40314 575.9344 282.8719Q575.45 283.34064 575.45 284.10626L574.1844 284.10626Q574.1844 282.91876 575.04376 282.1375Q575.91876 281.35626 577.2469 281.35626Q578.65314 281.35626 579.45 282.10626Q580.2469 282.85626 580.2469 284.16876Q580.2469 284.825 579.825 285.4344Q579.41876 286.04376 578.6844 286.34064Q579.5125 286.60626 579.95 287.21564Q580.40314 287.8094 580.40314 288.66876Q580.40314 290.0125 579.52814 290.8094Q578.65314 291.59064 577.2469 291.59064Q575.85626 291.59064 574.96564 290.84064Q574.09064 290.075 574.09064 288.825L575.3719 288.825Q575.3719 289.60626 575.8719 290.09064Q576.3875 290.5594 577.2469 290.5594Q578.16876 290.5594 578.65314 290.075Q579.1375 289.59064 579.1375 288.7Q579.1375 287.84064 578.60626 287.3719Q578.075 286.90314 577.0594 286.8875L576.1219 286.8875L576.1219 285.85626Z" fill-rule="nonzero"/><path fill="#9e9e9e" d="M548.4344 311.45L547.16876 311.45L547.16876 303.02814L544.60626 303.95L544.60626 302.8094L548.23126 301.45L548.4344 301.45L548.4344 311.45ZM552.85626 306.46564L553.3719 301.4969L558.46564 301.4969L558.46564 302.66876L554.4344 302.66876L554.1375 305.3719Q554.8719 304.95 555.79376 304.95Q557.15314 304.95 557.95 305.85626Q558.7625 306.7469 558.7625 308.27814Q558.7625 309.8094 557.91876 310.7Q557.09064 311.59064 555.60626 311.59064Q554.29376 311.59064 553.45 310.85626Q552.6219 310.1219 552.4969 308.825L553.7 308.825Q553.8094 309.6844 554.29376 310.1219Q554.79376 310.5594 555.60626 310.5594Q556.48126 310.5594 556.98126 309.96564Q557.4969 309.35626 557.4969 308.29376Q557.4969 307.29376 556.95 306.7Q556.40314 306.09064 555.4969 306.09064Q554.6844 306.09064 554.2 306.45L553.8719 306.71564L552.85626 306.46564ZM560.4344 310.79376Q560.4344 310.46564 560.6219 310.2469Q560.825 310.02814 561.21564 310.02814Q561.60626 310.02814 561.8094 310.2469Q562.0125 310.46564 562.0125 310.79376Q562.0125 311.10626 561.8094 311.325Q561.60626 311.52814 561.21564 311.52814Q560.825 311.52814 560.6219 311.325Q560.4344 311.10626 560.4344 310.79376ZM569.6219 308.10626L570.9969 308.10626L570.9969 309.1375L569.6219 309.1375L569.6219 311.45L568.34064 311.45L568.34064 309.1375L563.8094 309.1375L563.8094 308.3875L568.2625 301.4969L569.6219 301.4969L569.6219 308.10626ZM565.2469 308.10626L568.34064 308.10626L568.34064 303.23126L568.2 303.4969L565.2469 308.10626ZM572.16876 303.40314Q572.16876 302.5125 572.73126 301.9344Q573.3094 301.35626 574.2 301.35626Q575.1219 301.35626 575.6844 301.95Q576.2469 302.52814 576.2469 303.45L576.2469 303.9344Q576.2469 304.84064 575.66876 305.41876Q575.10626 305.98126 574.21564 305.98126Q573.325 305.98126 572.7469 305.41876Q572.16876 304.84064 572.16876 303.8875L572.16876 303.40314ZM573.10626 303.9344Q573.10626 304.46564 573.40314 304.8094Q573.71564 305.15314 574.21564 305.15314Q574.7 305.15314 574.9969 304.825Q575.29376 304.4969 575.29376 303.90314L575.29376 303.40314Q575.29376 302.8719 574.9969 302.52814Q574.71564 302.1844 574.2 302.1844Q573.7 302.1844 573.40314 302.52814Q573.10626 302.8719 573.10626 303.4344L573.10626 303.9344ZM577.0125 309.0125Q577.0125 308.10626 577.575 307.54376Q578.15314 306.96564 579.04376 306.96564Q579.95 306.96564 580.5125 307.54376Q581.09064 308.10626 581.09064 309.0594L581.09064 309.54376Q581.09064 310.4344 580.5125 311.0125Q579.95 311.59064 579.0594 311.59064Q578.1844 311.59064 577.59064 311.02814Q577.0125 310.45 577.0125 309.4969L577.0125 309.0125ZM577.96564 309.54376Q577.96564 310.075 578.2625 310.4344Q578.5594 310.77814 579.0594 310.77814Q579.5594 310.77814 579.85626 310.4344Q580.15314 310.09064 580.15314 309.5125L580.15314 309.0125Q580.15314 308.46564 579.84064 308.1219Q579.54376 307.77814 579.0594 307.77814Q578.5594 307.77814 578.2625 308.1219Q577.96564 308.46564 577.96564 309.04376L577.96564 309.54376ZM574.5125 310.7L573.79376 310.2469L578.65314 302.46564L579.3719 302.91876L574.5125 310.7Z" fill-rule="nonzero"/><path stroke="#757575" stroke-width="1.0" stroke-linecap="butt" d="M581.45 296.95L454.76666 296.95L393.71802 309.46912" fill-rule="nonzero"/><path fill="#9e9e9e" d="M395.71802 309.46912C395.71802 308.36453 394.8226 307.46912 393.71802 307.46912C392.61346 307.46912 391.71802 308.36453 391.71802 309.46912C391.71802 310.57367 392.61346 311.46912 393.71802 311.46912C394.8226 311.46912 395.71802 310.57367 395.71802 309.46912" fill-rule="nonzero"/><path fill="#757575" d="M565.2469 328.34064Q565.96564 327.90314 566.5594 327.29376Q567.8719 325.98126 567.8719 324.73126Q567.8719 324.1219 567.4969 323.7469Q567.16876 323.41876 566.77814 323.41876Q565.85626 323.41876 565.2469 323.7469L565.2469 328.34064ZM566.45 328.0594Q565.79376 328.5125 564.48126 329.27814L564.48126 317.73126L565.2469 317.73126L565.2469 323.3094Q565.96564 322.91876 566.95 322.91876Q567.8719 322.91876 568.3719 323.41876Q568.91876 323.96564 568.91876 324.84064Q568.91876 325.8719 567.8719 326.91876Q567.27814 327.5125 566.45 328.0594Z" fill-rule="nonzero"/><path fill="#757575" d="M578.4344 328.45L577.16876 328.45L577.16876 320.02814L574.60626 320.95L574.60626 319.8094L578.23126 318.45L578.4344 318.45L578.4344 328.45Z" fill-rule="nonzero"/><path fill="#9e9e9e" d="M558.7 339.2L554.575 348.45L553.2625 348.45L557.35626 339.52814L551.98126 339.52814L551.98126 338.4969L558.7 338.4969L558.7 339.2ZM560.4344 347.79376Q560.4344 347.46564 560.6219 347.2469Q560.825 347.02814 561.21564 347.02814Q561.60626 347.02814 561.8094 347.2469Q562.0125 347.46564 562.0125 347.79376Q562.0125 348.10626 561.8094 348.325Q561.60626 348.52814 561.21564 348.52814Q560.825 348.52814 560.6219 348.325Q560.4344 348.10626 560.4344 347.79376ZM570.7 339.2L566.575 348.45L565.2625 348.45L569.35626 339.52814L563.98126 339.52814L563.98126 338.4969L570.7 338.4969L570.7 339.2ZM572.16876 340.40314Q572.16876 339.5125 572.73126 338.9344Q573.3094 338.35626 574.2 338.35626Q575.1219 338.35626 575.6844 338.95Q576.2469 339.52814 576.2469 340.45L576.2469 340.9344Q576.2469 341.84064 575.66876 342.41876Q575.10626 342.98126 574.21564 342.98126Q573.325 342.98126 572.7469 342.41876Q572.16876 341.84064 572.16876 340.8875L572.16876 340.40314ZM573.10626 340.9344Q573.10626 341.46564 573.40314 341.8094Q573.71564 342.15314 574.21564 342.15314Q574.7 342.15314 574.9969 341.825Q575.29376 341.4969 575.29376 340.90314L575.29376 340.40314Q575.29376 339.8719 574.9969 339.52814Q574.71564 339.1844 574.2 339.1844Q573.7 339.1844 573.40314 339.52814Q573.10626 339.8719 573.10626 340.4344L573.10626 340.9344ZM577.0125 346.0125Q577.0125 345.10626 577.575 344.54376Q578.15314 343.96564 579.04376 343.96564Q579.95 343.96564 580.5125 344.54376Q581.09064 345.10626 581.09064 346.0594L581.09064 346.54376Q581.09064 347.4344 580.5125 348.0125Q579.95 348.59064 579.0594 348.59064Q578.1844 348.59064 577.59064 348.02814Q577.0125 347.45 577.0125 346.4969L577.0125 346.0125ZM577.96564 346.54376Q577.96564 347.075 578.2625 347.4344Q578.5594 347.77814 579.0594 347.77814Q579.5594 347.77814 579.85626 347.4344Q580.15314 347.09064 580.15314 346.5125L580.15314 346.0125Q580.15314 345.46564 579.84064 345.1219Q579.54376 344.77814 579.0594 344.77814Q578.5594 344.77814 578.2625 345.1219Q577.96564 345.46564 577.96564 346.04376L577.96564 346.54376ZM574.5125 347.7L573.79376 347.2469L578.65314 339.46564L579.3719 339.91876L574.5125 347.7Z" fill-rule="nonzero"/><path stroke="#757575" stroke-width="1.0" stroke-linecap="butt" d="M581.45 333.95L454.76666 333.95L300.0 345.01166" fill-rule="nonzero"/><path fill="#9e9e9e" d="M302.0 345.01166C302.0 343.9071 301.10458 343.01166 300.0 343.01166C298.89542 343.01166 298.0 343.9071 298.0 345.01166C298.0 346.11624 298.89542 347.01166 300.0 347.01166C301.10458 347.01166 302.0 346.11624 302.0 345.01166" fill-rule="nonzero"/><path fill="#757575" d="M24.409374 38.95625L24.409374 38.409374L21.675 38.409374L21.675 39.26875L20.346874 39.26875L20.346874 32.8625L25.7375 32.8625L25.7375 38.95625L24.409374 38.95625ZM27.76875 22.003124L36.753124 22.003124L36.753124 38.096874Q36.753124 39.190624 35.815624 39.190624L33.940624 39.190624L33.628124 37.70625L35.1125 37.70625Q35.425 37.70625 35.425 37.39375L35.425 23.4875L29.096874 23.4875L29.096874 32.39375Q29.096874 36.45625 27.065624 39.190624L25.89375 37.940624Q27.76875 35.3625 27.76875 31.690624L27.76875 22.003124ZM33.003124 28.721874L34.64375 28.721874L34.64375 29.971874L29.95625 29.971874L29.95625 28.721874L31.675 28.721874L31.675 26.846874L29.95625 26.846874L29.95625 25.596874L31.675 25.596874L31.675 24.034374L32.925 24.034374Q33.55 24.1125 33.003124 24.503124L33.003124 25.596874L34.721874 25.596874L34.721874 26.846874L33.003124 26.846874L33.003124 28.721874ZM21.675 37.159374L24.409374 37.159374L24.409374 34.1125L21.675 34.1125L21.675 37.159374ZM20.58125 30.128124L25.7375 30.128124L25.7375 31.6125L20.58125 31.6125L20.58125 30.128124ZM20.58125 21.925L25.7375 21.925L25.7375 23.409374L20.58125 23.409374L20.58125 21.925ZM26.753124 24.659374L26.753124 26.14375L19.64375 26.14375L19.64375 24.659374L26.753124 24.659374ZM20.58125 28.878124L20.58125 27.39375L25.7375 27.39375L25.7375 28.878124L20.58125 28.878124ZM31.440624 37.315624L30.1125 37.315624L30.1125 31.378124L34.253124 31.378124L34.253124 36.221874L31.440624 36.221874L31.440624 37.315624ZM31.440624 32.628124L31.440624 34.971874L32.925 34.971874L32.925 32.628124L31.440624 32.628124ZM42.45625 34.971874Q43.784374 32.628124 44.409374 30.675L39.409374 30.675L39.409374 29.190624L57.45625 29.190624L57.45625 30.675L46.20625 30.675Q45.89375 31.6125 45.58125 32.315624L54.878124 32.315624Q54.253124 37.003124 53.159374 38.4875Q52.534374 39.26875 50.815624 39.1125L48.70625 38.878124L48.628124 37.159374L51.05 37.39375Q51.83125 37.471874 52.221874 36.6125Q52.378124 36.221874 52.925 33.8L45.1125 33.8Q44.8 34.58125 44.253124 35.51875L42.45625 34.971874ZM44.253124 23.409374L44.253124 25.9875L52.6125 25.9875L52.6125 23.409374L44.253124 23.409374ZM52.6125 28.01875L52.6125 27.471874L44.253124 27.471874L44.253124 28.175L42.690624 28.175L42.690624 21.925L54.175 21.925L54.175 28.01875L52.6125 28.01875ZM72.925 25.05Q76.12813 28.33125 77.3 32.940624L75.58125 33.64375Q74.175 28.565624 71.51875 26.065624L72.925 25.05ZM70.58125 31.3Q70.58125 35.83125 69.25313 37.159374Q68.47188 37.940624 67.45625 37.940624Q65.97188 37.940624 64.4875 36.221874L65.50313 34.815624Q66.75313 36.065624 67.37813 36.065624Q67.76875 36.065624 68.08125 35.753124Q68.94063 34.89375 68.94063 30.9875Q68.94063 28.8 68.47188 28.33125Q68.2375 28.096874 67.53438 28.096874Q66.83125 28.096874 65.58125 28.253124Q63.940624 34.034374 61.675 38.175L59.878124 37.55Q62.14375 34.034374 63.8625 28.409374Q62.14375 28.64375 60.503124 28.8L60.346874 27.08125Q61.753124 27.08125 64.25313 26.846874Q64.95625 24.425 65.425 21.925L67.06563 22.471874Q68.00313 22.8625 66.9875 23.175Q66.51875 24.815624 66.05 26.690624Q66.9875 26.534374 68.00313 26.534374Q69.09688 26.534374 69.64375 27.08125Q70.58125 28.01875 70.58125 31.3ZM74.95625 20.9875Q76.3625 21.76875 78.08125 23.175L77.14375 24.1125Q75.425 22.784374 74.01875 21.925L74.95625 20.9875ZM75.50313 25.9875Q73.70625 24.503124 72.45625 23.721874L73.39375 22.784374Q74.8 23.565624 76.51875 24.971874L75.50313 25.9875ZM93.2375 27.784374L96.90938 27.784374L96.90938 29.034374L93.62813 29.034374L93.62813 30.83125L96.28438 30.83125L96.28438 32.08125L93.62813 32.08125L93.62813 33.95625L96.28438 33.95625L96.28438 35.20625L93.62813 35.20625L93.62813 37.159374L97.53438 37.159374L97.53438 38.409374L89.64375 38.409374L89.64375 39.190624L88.31563 39.190624L88.31563 30.51875Q87.69063 31.378124 86.75313 32.08125L86.20625 30.596874Q89.175 27.940624 90.03438 25.05L88.2375 25.05L88.2375 26.846874L86.90938 26.846874L86.90938 23.8L90.34688 23.8Q90.65938 22.55 90.89375 21.14375L92.45625 21.534374Q92.69063 21.76875 92.3 22.003124Q92.06563 22.940624 91.83125 23.8L97.37813 23.8L97.37813 26.534374L96.05 26.534374L96.05 25.05L91.51875 25.05Q91.05 26.690624 90.26875 27.784374L91.90938 27.784374L92.925 25.440624L94.40938 25.753124Q94.8 25.909374 94.25313 26.14375L93.2375 27.784374ZM80.03438 24.190624L80.03438 22.70625L86.675 22.70625L86.675 24.190624L83.94063 24.190624Q83.78438 26.6125 82.925 28.64375L85.97188 28.64375L85.97188 37.940624L84.64375 37.940624L84.64375 36.690624L82.6125 36.690624L82.6125 38.721874L81.28438 38.721874L81.28438 31.690624Q80.81563 32.471874 80.26875 33.096874L79.25313 31.76875Q81.9875 28.721874 82.45625 24.190624L80.03438 24.190624ZM89.64375 32.08125L89.64375 33.95625L92.3 33.95625L92.3 32.08125L89.64375 32.08125ZM89.64375 29.034374L89.64375 30.83125L92.3 30.83125L92.3 29.034374L89.64375 29.034374ZM89.64375 35.20625L89.64375 37.159374L92.3 37.159374L92.3 35.20625L89.64375 35.20625ZM82.6125 29.89375L82.6125 35.440624L84.64375 35.440624L84.64375 29.89375L82.6125 29.89375ZM99.87813 37.940624Q103.70625 35.596874 103.62813 30.440624L105.425 30.753124Q105.65938 30.9875 105.26875 31.221874L104.87813 34.034374Q106.05 35.440624 107.925 36.45625L107.925 28.878124L102.6125 28.878124L102.6125 27.39375L114.40938 27.39375L114.40938 28.878124L109.4875 28.878124L109.4875 31.76875L114.95625 31.76875L114.95625 33.253124L109.4875 33.253124L109.4875 37.003124Q110.65938 37.315624 111.83125 37.315624L116.9875 37.315624L116.675 38.8L111.83125 38.8Q107.3 38.8 104.40938 35.51875Q103.2375 38.096874 101.12813 39.425L99.87813 37.940624ZM109.40938 23.64375L116.59688 23.64375L116.59688 27.784374L115.03438 27.784374L115.03438 25.128124L102.06563 25.128124L102.06563 27.940624L100.50313 27.940624L100.50313 23.64375L107.6125 23.64375L107.6125 21.378124L109.33125 21.378124Q110.1125 21.534374 109.40938 22.003124L109.40938 23.64375ZM133.08125 34.7375Q129.72188 38.409374 125.81563 38.409374Q123.00313 38.409374 121.675 37.08125Q120.65938 36.065624 120.65938 33.175L120.65938 22.70625L122.3 22.70625Q123.00313 22.8625 122.45625 23.33125L122.45625 33.175Q122.45625 35.128124 123.15938 35.83125Q124.01875 36.690624 125.7375 36.690624Q128.78438 36.690624 131.90938 33.253124L133.08125 34.7375ZM150.65938 36.534374L150.65938 38.253124L147.22188 38.253124Q144.25313 38.253124 141.59688 36.846874L142.3 35.440624Q144.33125 36.534374 147.22188 36.534374L150.65938 36.534374ZM139.87813 27.39375Q138.70625 34.346874 136.9875 38.409374L135.26875 37.8625Q137.37813 32.940624 138.2375 27.55Q136.3625 27.70625 134.87813 27.70625L134.56563 26.14375Q136.75313 26.14375 138.47188 25.9875Q138.78438 23.565624 139.01875 21.76875L140.58125 22.08125Q141.44063 22.315624 140.7375 22.70625Q140.50313 23.64375 140.1125 25.83125Q141.90938 25.596874 143.39375 25.20625L143.70625 26.76875Q141.675 27.159374 139.87813 27.39375ZM150.26875 30.05Q145.7375 30.20625 143.15938 31.3L142.69063 29.7375Q146.05 28.409374 149.95625 28.409374L150.26875 30.05ZM165.45625 36.76875L165.45625 34.89375L157.56563 34.89375L157.56563 36.76875L165.45625 36.76875ZM159.675 27.471874L163.34688 27.471874L164.3625 24.58125L158.58125 24.58125L159.675 27.471874ZM170.3 27.471874L170.3 28.95625L152.56563 28.95625L152.56563 27.471874L158.1125 27.471874L156.8625 24.58125L154.3625 24.58125L154.3625 23.096874L160.69063 23.096874L160.69063 21.221874L162.175 21.221874Q162.8 21.3 162.25313 21.690624L162.25313 23.096874L168.65938 23.096874L168.65938 24.58125L166.15938 24.58125L164.83125 27.471874L170.3 27.471874ZM165.45625 33.409374L165.45625 31.76875L157.56563 31.76875L157.56563 33.409374L165.45625 33.409374ZM167.01875 38.878124L165.45625 38.878124L165.45625 38.253124L157.56563 38.253124L157.56563 39.26875L156.00313 39.26875L156.00313 30.284374L167.01875 30.284374L167.01875 38.878124ZM181.55 23.4875L184.83125 23.4875L184.83125 30.83125L183.50313 30.83125L183.50313 30.51875L182.33125 30.51875L182.33125 32.003124L189.9875 32.003124L189.9875 33.4875L183.19063 33.4875Q186.39375 36.065624 190.45625 36.6125L189.9875 38.409374Q184.75313 37.159374 182.33125 34.346874L182.33125 39.190624L180.76875 39.190624L180.76875 34.815624Q178.03438 37.315624 173.425 38.721874L172.72188 37.003124Q177.09688 36.065624 180.22188 33.4875L173.1125 33.4875L173.1125 32.003124L180.76875 32.003124L180.76875 30.51875L179.59688 30.51875L179.59688 30.9875L178.26875 30.9875L178.26875 23.4875L180.3 23.4875L180.76875 21.378124L182.4875 21.690624Q182.8 21.76875 182.25313 22.159374L181.55 23.4875ZM189.05 23.878124Q188.1125 24.7375 186.55 26.065624L185.3 24.971874Q186.94063 23.565624 188.03438 22.39375L189.44063 23.64375Q189.51875 24.034374 189.05 23.878124ZM179.59688 29.26875L183.50313 29.26875L183.50313 27.628124L179.59688 27.628124L179.59688 29.26875ZM179.59688 24.7375L179.59688 26.378124L183.50313 26.378124L183.50313 24.7375L179.59688 24.7375ZM188.81563 30.440624Q187.09688 28.95625 185.3 27.940624L186.31563 26.6125Q187.87813 27.315624 189.9875 28.95625L188.81563 30.440624ZM174.44063 30.753124Q174.3625 31.221874 174.05 30.909374L173.1125 29.346874Q175.14375 28.33125 176.8625 26.76875L177.72188 28.096874Q176.62813 29.190624 174.44063 30.753124ZM176.47188 26.14375Q175.14375 25.20625 173.81563 24.425L174.75313 23.01875Q176.39375 23.8 177.4875 24.503124L176.47188 26.14375Z" fill-rule="nonzero"/><path fill="#757575" d="M200.62813 23.33125L205.26875 34.925L209.925 23.33125L212.34688 23.33125L212.34688 37.55L210.47188 37.55L210.47188 32.01875L210.65938 26.034374L205.9875 37.55L204.55 37.55L199.89375 26.065624L200.08125 32.01875L200.08125 37.55L198.20625 37.55L198.20625 23.33125L200.62813 23.33125ZM221.44063 36.503124Q220.39375 37.753124 218.34688 37.753124Q216.65938 37.753124 215.76875 36.76875Q214.89375 35.784374 214.87813 33.8625L214.87813 26.9875L216.69063 26.9875L216.69063 33.815624Q216.69063 36.20625 218.64375 36.20625Q220.70625 36.20625 221.39375 34.675L221.39375 26.9875L223.20625 26.9875L223.20625 37.55L221.4875 37.55L221.44063 36.503124ZM232.06563 34.753124Q232.06563 34.01875 231.51875 33.6125Q230.97188 33.20625 229.59688 32.909374Q228.22188 32.6125 227.40938 32.20625Q226.6125 31.8 226.22188 31.2375Q225.84688 30.659374 225.84688 29.878124Q225.84688 28.58125 226.94063 27.690624Q228.03438 26.784374 229.75313 26.784374Q231.55 26.784374 232.65938 27.721874Q233.78438 28.64375 233.78438 30.08125L231.95625 30.08125Q231.95625 29.346874 231.33125 28.815624Q230.70625 28.26875 229.75313 28.26875Q228.75313 28.26875 228.19063 28.70625Q227.64375 29.128124 227.64375 29.83125Q227.64375 30.471874 228.15938 30.815624Q228.675 31.14375 230.03438 31.45625Q231.39375 31.753124 232.22188 32.175Q233.06563 32.58125 233.47188 33.175Q233.87813 33.76875 233.87813 34.6125Q233.87813 36.034374 232.7375 36.89375Q231.6125 37.753124 229.8 37.753124Q228.53438 37.753124 227.55 37.3Q226.58125 36.846874 226.01875 36.05Q225.47188 35.2375 225.47188 34.3L227.28438 34.3Q227.33125 35.20625 228.00313 35.7375Q228.69063 36.26875 229.8 36.26875Q230.83125 36.26875 231.44063 35.8625Q232.06563 35.440624 232.06563 34.753124ZM237.87813 37.55L236.08125 37.55L236.08125 26.9875L237.87813 26.9875L237.87813 37.55ZM235.925 24.175Q235.925 23.7375 236.19063 23.440624Q236.47188 23.128124 236.9875 23.128124Q237.51875 23.128124 237.78438 23.440624Q238.06563 23.7375 238.06563 24.175Q238.06563 24.6125 237.78438 24.909374Q237.51875 25.20625 236.9875 25.20625Q236.47188 25.20625 236.19063 24.909374Q235.925 24.6125 235.925 24.175ZM245.15938 36.26875Q246.12813 36.26875 246.84688 35.690624Q247.56563 35.096874 247.64375 34.221874L249.3625 34.221874Q249.3 35.128124 248.72188 35.95625Q248.15938 36.76875 247.19063 37.26875Q246.2375 37.753124 245.15938 37.753124Q243.00313 37.753124 241.72188 36.315624Q240.45625 34.8625 240.45625 32.3625L240.45625 32.065624Q240.45625 30.51875 241.01875 29.315624Q241.58125 28.1125 242.64375 27.45625Q243.70625 26.784374 245.14375 26.784374Q246.925 26.784374 248.09688 27.846874Q249.28438 28.909374 249.3625 30.6125L247.64375 30.6125Q247.56563 29.596874 246.8625 28.940624Q246.175 28.26875 245.14375 28.26875Q243.76875 28.26875 243.00313 29.26875Q242.25313 30.253124 242.25313 32.128124L242.25313 32.471874Q242.25313 34.3 243.00313 35.284374Q243.75313 36.26875 245.15938 36.26875ZM265.26874 35.065624L267.3 26.9875L269.1125 26.9875L266.03436 37.55L264.5656 37.55L262.0031 29.534374L259.5031 37.55L258.03436 37.55L254.97188 26.9875L256.76874 26.9875L258.84686 34.89375L261.3156 26.9875L262.76874 26.9875L265.26874 35.065624ZM272.8781 37.55L271.08124 37.55L271.08124 26.9875L272.8781 26.9875L272.8781 37.55ZM270.925 24.175Q270.925 23.7375 271.1906 23.440624Q271.47186 23.128124 271.9875 23.128124Q272.51874 23.128124 272.78436 23.440624Q273.0656 23.7375 273.0656 24.175Q273.0656 24.6125 272.78436 24.909374Q272.51874 25.20625 271.9875 25.20625Q271.47186 25.20625 271.1906 24.909374Q270.925 24.6125 270.925 24.175ZM278.3625 24.425L278.3625 26.9875L280.34686 26.9875L280.34686 28.378124L278.3625 28.378124L278.3625 34.925Q278.3625 35.565624 278.6281 35.89375Q278.89374 36.20625 279.53436 36.20625Q279.84686 36.20625 280.39374 36.08125L280.39374 37.55Q279.675 37.753124 279.0031 37.753124Q277.8 37.753124 277.175 37.01875Q276.5656 36.284374 276.5656 34.925L276.5656 28.378124L274.64374 28.378124L274.64374 26.9875L276.5656 26.9875L276.5656 24.425L278.3625 24.425ZM284.72186 28.26875Q285.925 26.784374 287.84686 26.784374Q291.20624 26.784374 291.22186 30.565624L291.22186 37.55L289.425 37.55L289.425 30.55Q289.40936 29.409374 288.89374 28.8625Q288.39374 28.315624 287.3 28.315624Q286.425 28.315624 285.7531 28.784374Q285.09686 29.253124 284.72186 30.01875L284.72186 37.55L282.925 37.55L282.925 22.55L284.72186 22.55L284.72186 28.26875ZM305.4406 37.55Q305.28436 37.2375 305.1906 36.440624Q303.925 37.753124 302.175 37.753124Q300.6125 37.753124 299.6125 36.8625Q298.6125 35.971874 298.6125 34.6125Q298.6125 32.971874 299.8625 32.065624Q301.1281 31.14375 303.39374 31.14375L305.15936 31.14375L305.15936 30.315624Q305.15936 29.3625 304.58124 28.8Q304.01874 28.2375 302.925 28.2375Q301.95624 28.2375 301.3 28.7375Q300.64374 29.221874 300.64374 29.909374L298.83124 29.909374Q298.83124 29.128124 299.39374 28.39375Q299.95624 27.64375 300.90936 27.221874Q301.8781 26.784374 303.03436 26.784374Q304.8625 26.784374 305.89374 27.70625Q306.925 28.6125 306.97186 30.221874L306.97186 35.08125Q306.97186 36.534374 307.33124 37.39375L307.33124 37.55L305.4406 37.55ZM302.4406 36.175Q303.3 36.175 304.05 35.7375Q304.8156 35.3 305.15936 34.596874L305.15936 32.425L303.7375 32.425Q300.425 32.425 300.425 34.3625Q300.425 35.221874 300.9875 35.70625Q301.55 36.175 302.4406 36.175ZM315.8 37.55L315.8 28.378124L314.14374 28.378124L314.14374 26.9875L315.8 26.9875L315.8 25.89375Q315.8 24.20625 316.70624 23.284374Q317.6281 22.346874 319.28436 22.346874Q319.90936 22.346874 320.51874 22.503124L320.425 23.971874Q319.97186 23.89375 319.45624 23.89375Q318.5656 23.89375 318.08124 24.409374Q317.6125 24.909374 317.6125 25.8625L317.6125 26.9875L319.8625 26.9875L319.8625 28.378124L317.6125 28.378124L317.6125 37.55L315.8 37.55ZM323.8781 37.55L322.08124 37.55L322.08124 26.9875L323.8781 26.9875L323.8781 37.55ZM321.925 24.175Q321.925 23.7375 322.1906 23.440624Q322.47186 23.128124 322.9875 23.128124Q323.51874 23.128124 323.78436 23.440624Q324.0656 23.7375 324.0656 24.175Q324.0656 24.6125 323.78436 24.909374Q323.51874 25.20625 322.9875 25.20625Q322.47186 25.20625 322.1906 24.909374Q321.925 24.6125 321.925 24.175ZM330.45624 30.846874L332.8 26.9875L334.90936 26.9875L331.45624 32.20625L335.01874 37.55L332.9406 37.55L330.4875 33.596874L328.05 37.55L325.95624 37.55L329.51874 32.20625L326.0656 26.9875L328.14374 26.9875L330.45624 30.846874ZM341.3 37.753124Q339.15936 37.753124 337.8 36.346874Q336.45624 34.925 336.45624 32.565624L336.45624 32.221874Q336.45624 30.659374 337.05 29.425Q337.65936 28.190624 338.7375 27.4875Q339.8156 26.784374 341.08124 26.784374Q343.14374 26.784374 344.28436 28.14375Q345.425 29.503124 345.425 32.034374L345.425 32.784374L338.26874 32.784374Q338.3 34.346874 339.175 35.315624Q340.05 36.26875 341.39374 36.26875Q342.3625 36.26875 343.01874 35.878124Q343.6906 35.4875 344.1906 34.846874L345.28436 35.70625Q343.95624 37.753124 341.3 37.753124ZM341.08124 28.26875Q339.9875 28.26875 339.2375 29.065624Q338.5031 29.8625 338.33124 31.3L343.6125 31.3L343.6125 31.159374Q343.53436 29.784374 342.8625 29.034374Q342.20624 28.26875 341.08124 28.26875ZM347.47186 32.175Q347.47186 29.753124 348.6281 28.26875Q349.78436 26.784374 351.64374 26.784374Q353.5031 26.784374 354.58124 28.05L354.58124 22.55L356.39374 22.55L356.39374 37.55L354.7375 37.55L354.64374 36.409374Q353.5656 37.753124 351.6281 37.753124Q349.8 37.753124 348.6281 36.253124Q347.47186 34.7375 347.47186 32.315624L347.47186 32.175ZM349.28436 32.378124Q349.28436 34.175 350.01874 35.190624Q350.76874 36.20625 352.08124 36.20625Q353.8 36.20625 354.58124 34.675L354.58124 29.815624Q353.78436 28.315624 352.09686 28.315624Q350.76874 28.315624 350.01874 29.346874Q349.28436 30.378124 349.28436 32.378124ZM366.8625 32.659374L365.7375 33.83125L365.7375 37.55L363.925 37.55L363.925 22.55L365.7375 22.55L365.7375 31.628124L366.70624 30.45625L369.9875 26.9875L372.1906 26.9875L368.08124 31.39375L372.675 37.55L370.55 37.55L366.8625 32.659374ZM378.3 37.753124Q376.15936 37.753124 374.8 36.346874Q373.45624 34.925 373.45624 32.565624L373.45624 32.221874Q373.45624 30.659374 374.05 29.425Q374.65936 28.190624 375.7375 27.4875Q376.8156 26.784374 378.08124 26.784374Q380.14374 26.784374 381.28436 28.14375Q382.425 29.503124 382.425 32.034374L382.425 32.784374L375.26874 32.784374Q375.3 34.346874 376.175 35.315624Q377.05 36.26875 378.39374 36.26875Q379.3625 36.26875 380.01874 35.878124Q380.6906 35.4875 381.1906 34.846874L382.28436 35.70625Q380.95624 37.753124 378.3 37.753124ZM378.08124 28.26875Q376.9875 28.26875 376.2375 29.065624Q375.5031 29.8625 375.33124 31.3L380.6125 31.3L380.6125 31.159374Q380.53436 29.784374 379.8625 29.034374Q379.20624 28.26875 378.08124 28.26875ZM388.3781 34.909374L390.83124 26.9875L392.76874 26.9875L388.51874 39.175Q387.53436 41.815624 385.39374 41.815624L385.05 41.784374L384.3781 41.659374L384.3781 40.190624L384.8625 40.2375Q385.78436 40.2375 386.28436 39.8625Q386.8 39.4875 387.1281 38.503124L387.53436 37.425L383.76874 26.9875L385.7375 26.9875L388.3781 34.909374ZM405.0656 34.753124Q405.0656 34.01875 404.51874 33.6125Q403.97186 33.20625 402.59686 32.909374Q401.22186 32.6125 400.40936 32.20625Q399.6125 31.8 399.22186 31.2375Q398.84686 30.659374 398.84686 29.878124Q398.84686 28.58125 399.9406 27.690624Q401.03436 26.784374 402.7531 26.784374Q404.55 26.784374 405.65936 27.721874Q406.78436 28.64375 406.78436 30.08125L404.95624 30.08125Q404.95624 29.346874 404.33124 28.815624Q403.70624 28.26875 402.7531 28.26875Q401.7531 28.26875 401.1906 28.70625Q400.64374 29.128124 400.64374 29.83125Q400.64374 30.471874 401.15936 30.815624Q401.675 31.14375 403.03436 31.45625Q404.39374 31.753124 405.22186 32.175Q406.0656 32.58125 406.47186 33.175Q406.8781 33.76875 406.8781 34.6125Q406.8781 36.034374 405.7375 36.89375Q404.6125 37.753124 402.8 37.753124Q401.53436 37.753124 400.55 37.3Q399.58124 36.846874 399.01874 36.05Q398.47186 35.2375 398.47186 34.3L400.28436 34.3Q400.33124 35.20625 401.0031 35.7375Q401.6906 36.26875 402.8 36.26875Q403.83124 36.26875 404.4406 35.8625Q405.0656 35.440624 405.0656 34.753124ZM410.8781 37.55L409.08124 37.55L409.08124 26.9875L410.8781 26.9875L410.8781 37.55ZM408.925 24.175Q408.925 23.7375 409.1906 23.440624Q409.47186 23.128124 409.9875 23.128124Q410.51874 23.128124 410.78436 23.440624Q411.0656 23.7375 411.0656 24.175Q411.0656 24.6125 410.78436 24.909374Q410.51874 25.20625 409.9875 25.20625Q409.47186 25.20625 409.1906 24.909374Q408.925 24.6125 408.925 24.175ZM413.4875 32.175Q413.4875 29.70625 414.6281 28.253124Q415.76874 26.784374 417.65936 26.784374Q419.59686 26.784374 420.675 28.159374L420.76874 26.9875L422.40936 26.9875L422.40936 37.3Q422.40936 39.346874 421.1906 40.51875Q419.9875 41.70625 417.925 41.70625Q416.78436 41.70625 415.6906 41.221874Q414.59686 40.7375 414.01874 39.878124L414.95624 38.8Q416.1281 40.2375 417.8 40.2375Q419.1281 40.2375 419.8625 39.4875Q420.59686 38.753124 420.59686 37.409374L420.59686 36.4875Q419.51874 37.753124 417.64374 37.753124Q415.78436 37.753124 414.6281 36.253124Q413.4875 34.753124 413.4875 32.175ZM415.3 32.378124Q415.3 34.175 416.03436 35.190624Q416.76874 36.20625 418.08124 36.20625Q419.8 36.20625 420.59686 34.659374L420.59686 29.83125Q419.76874 28.315624 418.1125 28.315624Q416.78436 28.315624 416.03436 29.346874Q415.3 30.378124 415.3 32.378124ZM426.6281 26.9875L426.6906 28.315624Q427.89374 26.784374 429.84686 26.784374Q433.20624 26.784374 433.22186 30.565624L433.22186 37.55L431.425 37.55L431.425 30.55Q431.40936 29.409374 430.89374 28.8625Q430.39374 28.315624 429.3 28.315624Q428.425 28.315624 427.7531 28.784374Q427.09686 29.253124 426.72186 30.01875L426.72186 37.55L424.925 37.55L424.925 26.9875L426.6281 26.9875ZM442.4406 37.55Q442.28436 37.2375 442.1906 36.440624Q440.925 37.753124 439.175 37.753124Q437.6125 37.753124 436.6125 36.8625Q435.6125 35.971874 435.6125 34.6125Q435.6125 32.971874 436.8625 32.065624Q438.1281 31.14375 440.39374 31.14375L442.15936 31.14375L442.15936 30.315624Q442.15936 29.3625 441.58124 28.8Q441.01874 28.2375 439.925 28.2375Q438.95624 28.2375 438.3 28.7375Q437.64374 29.221874 437.64374 29.909374L435.83124 29.909374Q435.83124 29.128124 436.39374 28.39375Q436.95624 27.64375 437.90936 27.221874Q438.8781 26.784374 440.03436 26.784374Q441.8625 26.784374 442.89374 27.70625Q443.925 28.6125 443.97186 30.221874L443.97186 35.08125Q443.97186 36.534374 444.33124 37.39375L444.33124 37.55L442.4406 37.55ZM439.4406 36.175Q440.3 36.175 441.05 35.7375Q441.8156 35.3 442.15936 34.596874L442.15936 32.425L440.7375 32.425Q437.425 32.425 437.425 34.3625Q437.425 35.221874 437.9875 35.70625Q438.55 36.175 439.4406 36.175ZM449.3625 24.425L449.3625 26.9875L451.34686 26.9875L451.34686 28.378124L449.3625 28.378124L449.3625 34.925Q449.3625 35.565624 449.6281 35.89375Q449.89374 36.20625 450.53436 36.20625Q450.84686 36.20625 451.39374 36.08125L451.39374 37.55Q450.675 37.753124 450.0031 37.753124Q448.8 37.753124 448.175 37.01875Q447.5656 36.284374 447.5656 34.925L447.5656 28.378124L445.64374 28.378124L445.64374 26.9875L447.5656 26.9875L447.5656 24.425L449.3625 24.425ZM460.4406 36.503124Q459.39374 37.753124 457.34686 37.753124Q455.65936 37.753124 454.76874 36.76875Q453.89374 35.784374 453.8781 33.8625L453.8781 26.9875L455.6906 26.9875L455.6906 33.815624Q455.6906 36.20625 457.64374 36.20625Q459.70624 36.20625 460.39374 34.675L460.39374 26.9875L462.20624 26.9875L462.20624 37.55L460.4875 37.55L460.4406 36.503124ZM470.01874 28.596874Q469.6125 28.534374 469.14374 28.534374Q467.3625 28.534374 466.72186 30.05L466.72186 37.55L464.925 37.55L464.925 26.9875L466.675 26.9875L466.70624 28.20625Q467.59686 26.784374 469.22186 26.784374Q469.7531 26.784374 470.01874 26.925L470.01874 28.596874ZM476.3 37.753124Q474.15936 37.753124 472.8 36.346874Q471.45624 34.925 471.45624 32.565624L471.45624 32.221874Q471.45624 30.659374 472.05 29.425Q472.65936 28.190624 473.7375 27.4875Q474.8156 26.784374 476.08124 26.784374Q478.14374 26.784374 479.28436 28.14375Q480.425 29.503124 480.425 32.034374L480.425 32.784374L473.26874 32.784374Q473.3 34.346874 474.175 35.315624Q475.05 36.26875 476.39374 36.26875Q477.3625 36.26875 478.01874 35.878124Q478.6906 35.4875 479.1906 34.846874L480.28436 35.70625Q478.95624 37.753124 476.3 37.753124ZM476.08124 28.26875Q474.9875 28.26875 474.2375 29.065624Q473.5031 29.8625 473.33124 31.3L478.6125 31.3L478.6125 31.159374Q478.53436 29.784374 477.8625 29.034374Q477.20624 28.26875 476.08124 28.26875Z" fill-rule="nonzero"/></svg>