<?xml version="1.0" encoding="utf-8"?>
<!-- Generator: Adobe Illustrator 25.4.1, SVG Export Plug-In . SVG Version: 6.00 Build 0)  -->
<svg version="1.1" id="レイヤー_1" xmlns="http://www.w3.org/2000/svg" xmlns:xlink="http://www.w3.org/1999/xlink" x="0px"
	 y="0px" viewBox="0 0 990 80" style="enable-background:new 0 0 990 80;" xml:space="preserve">
<style type="text/css">
	.st0{fill:#999999;}
	.st1{fill:#FBB03B;}
	.st2{fill:#A67C52;}
	.st3{fill:#8CC63F;}
</style>
<path class="st0" d="M90,80H0V27.2h90V80z M15,0L0,27.2h30L15,0z M45,0L30,27.2h30L45,0z M75,0L60,27.2h30L75,0z"/>
<path class="st1" d="M190,80h-90V27.2h90V80z M115,0l-15,27.2h30L115,0z M145,0l-15,27.2h30L145,0z M175,0l-15,27.2h30L175,0z"/>
<path class="st1" d="M290,80h-90V27.2h90V80z M215,0l-15,27.2h30L215,0z M245,0l-15,27.2h30L245,0z M275,0l-15,27.2h30L275,0z"/>
<path class="st1" d="M390,80h-90V27.2h90V80z M315,0l-15,27.2h30L315,0z M345,0l-15,27.2h30L345,0z M375,0l-15,27.2h30L375,0z"/>
<path class="st0" d="M490,80h-90V27.2h90V80z M415,0l-15,27.2h30L415,0z M445,0l-15,27.2h30L445,0z M475,0l-15,27.2h30L475,0z"/>
<path class="st2" d="M590,80h-90V27.2h90V80z M515,0l-15,27.2h30L515,0z M545,0l-15,27.2h30L545,0z M575,0l-15,27.2h30L575,0z"/>
<path class="st2" d="M690,80h-90V27.2h90V80z M615,0l-15,27.2h30L615,0z M645,0l-15,27.2h30L645,0z M675,0l-15,27.2h30L675,0z"/>
<g>
	<path d="M29,60.3H16.2v-2.8c1.1-0.9,2.1-1.7,2.9-2.4s1.6-1.5,2.3-2.2c0.9-0.9,1.5-1.7,1.9-2.4s0.6-1.4,0.6-2.1
		c0-0.8-0.2-1.4-0.7-1.9s-1.2-0.7-2-0.7c-0.4,0-0.9,0.1-1.3,0.2s-0.8,0.2-1.2,0.4c-0.4,0.2-0.7,0.4-1,0.6s-0.5,0.3-0.6,0.4h-0.3
		v-3.8c0.5-0.2,1.3-0.5,2.3-0.7s2.1-0.4,3-0.4c2.1,0,3.6,0.5,4.7,1.4s1.6,2.2,1.6,3.9c0,1-0.2,2-0.7,3s-1.3,2-2.4,3.2
		c-0.7,0.7-1.4,1.3-2.1,1.9s-1.1,0.9-1.4,1.2H29V60.3z"/>
	<path d="M44.1,51.6c0,1.5-0.1,2.8-0.4,4s-0.6,2.1-1.2,2.8s-1.2,1.3-2.1,1.7s-1.9,0.6-3.1,0.6c-1.2,0-2.3-0.2-3.1-0.6
		s-1.5-1-2.1-1.7c-0.5-0.8-0.9-1.7-1.2-2.8s-0.4-2.4-0.4-3.9c0-1.5,0.1-2.9,0.4-4s0.6-2,1.2-2.8c0.5-0.8,1.2-1.3,2.1-1.7
		s1.9-0.6,3.1-0.6c1.3,0,2.3,0.2,3.1,0.6s1.5,1,2.1,1.8c0.5,0.8,0.9,1.7,1.2,2.8S44.1,50.1,44.1,51.6z M39.7,51.6
		c0-2.2-0.2-3.7-0.5-4.5s-1-1.3-1.8-1.3c-0.8,0-1.4,0.4-1.8,1.3S35,49.5,35,51.6c0,2.1,0.2,3.6,0.5,4.5s1,1.3,1.8,1.3
		s1.4-0.4,1.8-1.3S39.7,53.7,39.7,51.6z"/>
	<path d="M58.8,60.3H47.3v-3H51v-9.2h-3.7v-2.8c0.5,0,1.1,0,1.6-0.1s1-0.2,1.3-0.3c0.4-0.2,0.7-0.4,0.9-0.8s0.3-0.7,0.4-1.2h3.8
		v14.4h3.6V60.3z"/>
	<path d="M74.5,54.4c0,0.9-0.2,1.7-0.5,2.5s-0.8,1.4-1.4,2c-0.6,0.6-1.3,1-2.2,1.3s-1.9,0.5-3.1,0.5c-1.3,0-2.4-0.1-3.3-0.3
		s-1.7-0.5-2.3-0.7v-3.8h0.4c0.2,0.1,0.5,0.3,0.7,0.4s0.6,0.3,1.1,0.5c0.4,0.2,0.8,0.3,1.3,0.4s0.9,0.2,1.4,0.2
		c0.5,0,0.9-0.1,1.5-0.2s0.9-0.3,1.3-0.6c0.2-0.2,0.4-0.5,0.6-0.8s0.2-0.7,0.2-1.2c0-0.4-0.1-0.8-0.3-1s-0.4-0.5-0.7-0.7
		c-0.4-0.3-0.9-0.4-1.4-0.5s-1-0.1-1.5-0.1c-0.6,0-1.3,0.1-1.9,0.2s-1.1,0.2-1.6,0.3h-0.4v-9.8H74v3.3h-7.4v2.9c0.2,0,0.5,0,0.8,0
		s0.6,0,0.8,0c0.8,0,1.6,0.1,2.3,0.3s1.3,0.4,1.9,0.8c0.7,0.4,1.2,1,1.5,1.7S74.5,53.4,74.5,54.4z"/>
</g>
<g>
	<path d="M129,60.3h-12.8v-2.8c1.1-0.9,2.1-1.7,2.9-2.4s1.6-1.5,2.3-2.2c0.9-0.9,1.5-1.7,1.9-2.4s0.6-1.4,0.6-2.1
		c0-0.8-0.2-1.4-0.7-1.9s-1.2-0.7-2-0.7c-0.4,0-0.9,0.1-1.3,0.2s-0.8,0.2-1.2,0.4c-0.4,0.2-0.7,0.4-1,0.6s-0.5,0.3-0.6,0.4h-0.3
		v-3.8c0.5-0.2,1.3-0.5,2.3-0.7s2.1-0.4,3-0.4c2.1,0,3.6,0.5,4.7,1.4s1.6,2.2,1.6,3.9c0,1-0.2,2-0.7,3s-1.3,2-2.4,3.2
		c-0.7,0.7-1.4,1.3-2.1,1.9s-1.1,0.9-1.4,1.2h7.4V60.3z"/>
	<path d="M144.1,51.6c0,1.5-0.1,2.8-0.4,4s-0.6,2.1-1.2,2.8s-1.2,1.3-2.1,1.7s-1.9,0.6-3.1,0.6c-1.2,0-2.3-0.2-3.1-0.6
		s-1.5-1-2.1-1.7c-0.5-0.8-0.9-1.7-1.2-2.8s-0.4-2.4-0.4-3.9c0-1.5,0.1-2.9,0.4-4s0.6-2,1.2-2.8c0.5-0.8,1.2-1.3,2.1-1.7
		s1.9-0.6,3.1-0.6c1.3,0,2.3,0.2,3.1,0.6s1.5,1,2.1,1.8c0.5,0.8,0.9,1.7,1.2,2.8S144.1,50.1,144.1,51.6z M139.7,51.6
		c0-2.2-0.2-3.7-0.5-4.5s-1-1.3-1.8-1.3c-0.8,0-1.4,0.4-1.8,1.3s-0.5,2.4-0.5,4.6c0,2.1,0.2,3.6,0.5,4.5s1,1.3,1.8,1.3
		s1.4-0.4,1.8-1.3S139.7,53.7,139.7,51.6z"/>
	<path d="M158.8,60.3h-11.5v-3h3.7v-9.2h-3.7v-2.8c0.5,0,1.1,0,1.6-0.1s1-0.2,1.3-0.3c0.4-0.2,0.7-0.4,0.9-0.8s0.3-0.7,0.4-1.2h3.8
		v14.4h3.6V60.3z"/>
	<path d="M174.8,54.4c0,1.8-0.6,3.3-1.7,4.5s-2.8,1.8-4.8,1.8c-1,0-1.9-0.1-2.7-0.4s-1.5-0.7-2-1.3c-0.7-0.7-1.2-1.5-1.5-2.6
		s-0.5-2.3-0.5-3.8c0-1.5,0.2-2.9,0.5-4.1s0.9-2.2,1.6-3.2c0.7-0.9,1.6-1.5,2.8-2s2.5-0.7,4.1-0.7c0.6,0,1.1,0,1.7,0.1
		s1,0.1,1.2,0.2v3.4H173c-0.2-0.1-0.5-0.2-1-0.3s-1-0.2-1.6-0.2c-1.4,0-2.4,0.4-3.2,1.1s-1.2,1.8-1.4,3.1c0.6-0.4,1.2-0.7,1.7-0.9
		s1.3-0.3,2-0.3c0.6,0,1.2,0.1,1.8,0.3s1,0.4,1.5,0.7c0.6,0.5,1.1,1.1,1.4,1.8S174.8,53.2,174.8,54.4z M169.7,57
		c0.2-0.3,0.4-0.6,0.5-0.9s0.2-0.8,0.2-1.5c0-0.6-0.1-1-0.2-1.4s-0.3-0.7-0.6-0.9s-0.6-0.4-0.9-0.5s-0.7-0.1-1-0.1
		c-0.3,0-0.6,0-0.9,0.1s-0.6,0.2-0.9,0.3c0,0.1,0,0.2,0,0.4s0,0.4,0,0.7c0,1,0.1,1.8,0.3,2.4s0.4,1.1,0.7,1.4
		c0.2,0.2,0.4,0.4,0.7,0.5s0.5,0.2,0.8,0.2c0.2,0,0.5-0.1,0.8-0.2S169.5,57.3,169.7,57z"/>
</g>
<g>
	<path d="M229,60.3h-12.8v-2.8c1.1-0.9,2.1-1.7,2.9-2.4s1.6-1.5,2.3-2.2c0.9-0.9,1.5-1.7,1.9-2.4s0.6-1.4,0.6-2.1
		c0-0.8-0.2-1.4-0.7-1.9s-1.2-0.7-2-0.7c-0.4,0-0.9,0.1-1.3,0.2s-0.8,0.2-1.2,0.4c-0.4,0.2-0.7,0.4-1,0.6s-0.5,0.3-0.6,0.4h-0.3
		v-3.8c0.5-0.2,1.3-0.5,2.3-0.7s2.1-0.4,3-0.4c2.1,0,3.6,0.5,4.7,1.4s1.6,2.2,1.6,3.9c0,1-0.2,2-0.7,3s-1.3,2-2.4,3.2
		c-0.7,0.7-1.4,1.3-2.1,1.9s-1.1,0.9-1.4,1.2h7.4V60.3z"/>
	<path d="M244.1,51.6c0,1.5-0.1,2.8-0.4,4s-0.6,2.1-1.2,2.8s-1.2,1.3-2.1,1.7s-1.9,0.6-3.1,0.6c-1.2,0-2.3-0.2-3.1-0.6
		s-1.5-1-2.1-1.7c-0.5-0.8-0.9-1.7-1.2-2.8s-0.4-2.4-0.4-3.9c0-1.5,0.1-2.9,0.4-4s0.6-2,1.2-2.8c0.5-0.8,1.2-1.3,2.1-1.7
		s1.9-0.6,3.1-0.6c1.3,0,2.3,0.2,3.1,0.6s1.5,1,2.1,1.8c0.5,0.8,0.9,1.7,1.2,2.8S244.1,50.1,244.1,51.6z M239.7,51.6
		c0-2.2-0.2-3.7-0.5-4.5s-1-1.3-1.8-1.3c-0.8,0-1.4,0.4-1.8,1.3s-0.5,2.4-0.5,4.6c0,2.1,0.2,3.6,0.5,4.5s1,1.3,1.8,1.3
		s1.4-0.4,1.8-1.3S239.7,53.7,239.7,51.6z"/>
	<path d="M258.8,60.3h-11.5v-3h3.7v-9.2h-3.7v-2.8c0.5,0,1.1,0,1.6-0.1s1-0.2,1.3-0.3c0.4-0.2,0.7-0.4,0.9-0.8s0.3-0.7,0.4-1.2h3.8
		v14.4h3.6V60.3z"/>
	<path d="M274.5,46.4l-7.4,14h-4.9l7.8-14.2h-8.3v-3.3h12.8V46.4z"/>
</g>
<g>
	<path d="M329,60.3h-12.8v-2.8c1.1-0.9,2.1-1.7,2.9-2.4s1.6-1.5,2.3-2.2c0.9-0.9,1.5-1.7,1.9-2.4s0.6-1.4,0.6-2.1
		c0-0.8-0.2-1.4-0.7-1.9s-1.2-0.7-2-0.7c-0.4,0-0.9,0.1-1.3,0.2s-0.8,0.2-1.2,0.4c-0.4,0.2-0.7,0.4-1,0.6s-0.5,0.3-0.6,0.4h-0.3
		v-3.8c0.5-0.2,1.3-0.5,2.3-0.7s2.1-0.4,3-0.4c2.1,0,3.6,0.5,4.7,1.4s1.6,2.2,1.6,3.9c0,1-0.2,2-0.7,3s-1.3,2-2.4,3.2
		c-0.7,0.7-1.4,1.3-2.1,1.9s-1.1,0.9-1.4,1.2h7.4V60.3z"/>
	<path d="M344.1,51.6c0,1.5-0.1,2.8-0.4,4s-0.6,2.1-1.2,2.8s-1.2,1.3-2.1,1.7s-1.9,0.6-3.1,0.6c-1.2,0-2.3-0.2-3.1-0.6
		s-1.5-1-2.1-1.7c-0.5-0.8-0.9-1.7-1.2-2.8s-0.4-2.4-0.4-3.9c0-1.5,0.1-2.9,0.4-4s0.6-2,1.2-2.8c0.5-0.8,1.2-1.3,2.1-1.7
		s1.9-0.6,3.1-0.6c1.3,0,2.3,0.2,3.1,0.6s1.5,1,2.1,1.8c0.5,0.8,0.9,1.7,1.2,2.8S344.1,50.1,344.1,51.6z M339.7,51.6
		c0-2.2-0.2-3.7-0.5-4.5s-1-1.3-1.8-1.3c-0.8,0-1.4,0.4-1.8,1.3s-0.5,2.4-0.5,4.6c0,2.1,0.2,3.6,0.5,4.5s1,1.3,1.8,1.3
		s1.4-0.4,1.8-1.3S339.7,53.7,339.7,51.6z"/>
	<path d="M358.8,60.3h-11.5v-3h3.7v-9.2h-3.7v-2.8c0.5,0,1.1,0,1.6-0.1s1-0.2,1.3-0.3c0.4-0.2,0.7-0.4,0.9-0.8s0.3-0.7,0.4-1.2h3.8
		v14.4h3.6V60.3z"/>
	<path d="M374.8,55.5c0,0.8-0.2,1.4-0.5,2.1s-0.8,1.2-1.4,1.7s-1.3,0.8-2.2,1.1s-1.8,0.4-2.9,0.4c-1.2,0-2.2-0.1-3.1-0.4
		s-1.6-0.6-2.2-1.1c-0.6-0.5-1-1-1.2-1.6s-0.4-1.3-0.4-2c0-1,0.3-1.8,0.8-2.5s1.3-1.2,2.4-1.7v-0.1c-1-0.5-1.7-1.1-2.1-1.8
		s-0.6-1.5-0.6-2.4c0-0.6,0.1-1.2,0.4-1.8s0.7-1.1,1.3-1.5c0.5-0.4,1.2-0.8,2-1s1.7-0.4,2.7-0.4c1.1,0,2,0.1,2.8,0.3s1.5,0.5,2,0.9
		c0.5,0.4,0.9,0.8,1.2,1.4s0.4,1.1,0.4,1.8c0,0.8-0.2,1.6-0.7,2.2s-1.2,1.2-2.2,1.7v0.1c1.2,0.5,2,1.1,2.6,1.8
		S374.8,54.4,374.8,55.5z M370.5,55.7c0-0.6-0.1-1-0.4-1.3s-0.8-0.6-1.6-1c-0.2-0.1-0.6-0.2-1-0.4s-0.8-0.3-1.1-0.5
		c-0.3,0.3-0.6,0.7-0.8,1.1s-0.4,0.9-0.4,1.5c0,0.8,0.3,1.5,0.8,1.9s1.2,0.7,2,0.7c0.2,0,0.5,0,0.8-0.1s0.6-0.2,0.8-0.3
		c0.2-0.2,0.5-0.4,0.6-0.6S370.5,56.1,370.5,55.7z M370.1,47.4c0-0.6-0.2-1.1-0.6-1.4s-0.9-0.5-1.6-0.5c-0.6,0-1.2,0.2-1.6,0.5
		s-0.6,0.7-0.6,1.2s0.1,0.8,0.4,1.1s0.6,0.5,1.1,0.8c0.2,0.1,0.5,0.2,0.8,0.3s0.7,0.3,1.2,0.5c0.3-0.4,0.5-0.8,0.7-1.2
		S370.1,47.9,370.1,47.4z"/>
</g>
<g>
	<path d="M429,60.3h-12.8v-2.8c1.1-0.9,2.1-1.7,2.9-2.4s1.6-1.5,2.3-2.2c0.9-0.9,1.5-1.7,1.9-2.4s0.6-1.4,0.6-2.1
		c0-0.8-0.2-1.4-0.7-1.9s-1.2-0.7-2-0.7c-0.4,0-0.9,0.1-1.3,0.2s-0.8,0.2-1.2,0.4c-0.4,0.2-0.7,0.4-1,0.6s-0.5,0.3-0.6,0.4h-0.3
		v-3.8c0.5-0.2,1.3-0.5,2.3-0.7s2.1-0.4,3-0.4c2.1,0,3.6,0.5,4.7,1.4s1.6,2.2,1.6,3.9c0,1-0.2,2-0.7,3s-1.3,2-2.4,3.2
		c-0.7,0.7-1.4,1.3-2.1,1.9s-1.1,0.9-1.4,1.2h7.4V60.3z"/>
	<path d="M444.1,51.6c0,1.5-0.1,2.8-0.4,4s-0.6,2.1-1.2,2.8s-1.2,1.3-2.1,1.7s-1.9,0.6-3.1,0.6c-1.2,0-2.3-0.2-3.1-0.6
		s-1.5-1-2.1-1.7c-0.5-0.8-0.9-1.7-1.2-2.8s-0.4-2.4-0.4-3.9c0-1.5,0.1-2.9,0.4-4s0.6-2,1.2-2.8c0.5-0.8,1.2-1.3,2.1-1.7
		s1.9-0.6,3.1-0.6c1.3,0,2.3,0.2,3.1,0.6s1.5,1,2.1,1.8c0.5,0.8,0.9,1.7,1.2,2.8S444.1,50.1,444.1,51.6z M439.7,51.6
		c0-2.2-0.2-3.7-0.5-4.5s-1-1.3-1.8-1.3c-0.8,0-1.4,0.4-1.8,1.3s-0.5,2.4-0.5,4.6c0,2.1,0.2,3.6,0.5,4.5s1,1.3,1.8,1.3
		s1.4-0.4,1.8-1.3S439.7,53.7,439.7,51.6z"/>
	<path d="M458.8,60.3h-11.5v-3h3.7v-9.2h-3.7v-2.8c0.5,0,1.1,0,1.6-0.1s1-0.2,1.3-0.3c0.4-0.2,0.7-0.4,0.9-0.8s0.3-0.7,0.4-1.2h3.8
		v14.4h3.6V60.3z"/>
	<path d="M474.4,50.6c0,1.5-0.2,2.8-0.5,4.1s-0.9,2.3-1.6,3.2c-0.8,0.9-1.7,1.6-2.8,2.1s-2.5,0.7-4.1,0.7c-0.5,0-1.1,0-1.7-0.1
		s-1-0.1-1.2-0.2v-3.4h0.3c0.2,0.1,0.5,0.2,0.9,0.4s1,0.2,1.7,0.2c0.6,0,1.1-0.1,1.7-0.2s1-0.4,1.4-0.7c0.4-0.3,0.7-0.8,1-1.3
		s0.4-1.2,0.5-1.9c-0.6,0.4-1.2,0.7-1.7,0.9s-1.2,0.3-2,0.3c-0.6,0-1.2-0.1-1.7-0.2s-1.1-0.4-1.5-0.7c-0.6-0.5-1.1-1.1-1.4-1.8
		s-0.5-1.7-0.5-2.9c0-0.9,0.2-1.7,0.5-2.5s0.7-1.4,1.3-2c0.6-0.6,1.3-1,2.1-1.3s1.7-0.5,2.7-0.5c1,0,1.9,0.1,2.7,0.4s1.5,0.7,2,1.3
		c0.7,0.7,1.2,1.5,1.5,2.6S474.4,49.1,474.4,50.6z M470.1,50c0-0.9-0.1-1.7-0.2-2.3s-0.4-1.1-0.7-1.4c-0.2-0.2-0.4-0.4-0.7-0.5
		s-0.5-0.2-0.8-0.2c-0.3,0-0.5,0.1-0.8,0.2s-0.5,0.3-0.7,0.5c-0.2,0.2-0.4,0.6-0.5,1s-0.2,0.9-0.2,1.4c0,0.6,0.1,1,0.2,1.4
		s0.3,0.7,0.6,0.9c0.2,0.2,0.5,0.4,0.9,0.4s0.7,0.1,1.1,0.1c0.3,0,0.7,0,1-0.1s0.6-0.2,0.8-0.3c0-0.1,0-0.2,0-0.4
		S470.1,50.3,470.1,50z"/>
</g>
<g>
	<path d="M529,60.3h-12.8v-2.8c1.1-0.9,2.1-1.7,2.9-2.4s1.6-1.5,2.3-2.2c0.9-0.9,1.5-1.7,1.9-2.4s0.6-1.4,0.6-2.1
		c0-0.8-0.2-1.4-0.7-1.9s-1.2-0.7-2-0.7c-0.4,0-0.9,0.1-1.3,0.2s-0.8,0.2-1.2,0.4c-0.4,0.2-0.7,0.4-1,0.6s-0.5,0.3-0.6,0.4h-0.3
		v-3.8c0.5-0.2,1.3-0.5,2.3-0.7s2.1-0.4,3-0.4c2.1,0,3.6,0.5,4.7,1.4s1.6,2.2,1.6,3.9c0,1-0.2,2-0.7,3s-1.3,2-2.4,3.2
		c-0.7,0.7-1.4,1.3-2.1,1.9s-1.1,0.9-1.4,1.2h7.4V60.3z"/>
	<path d="M544.1,51.6c0,1.5-0.1,2.8-0.4,4s-0.6,2.1-1.2,2.8s-1.2,1.3-2.1,1.7s-1.9,0.6-3.1,0.6c-1.2,0-2.3-0.2-3.1-0.6
		s-1.5-1-2.1-1.7c-0.5-0.8-0.9-1.7-1.2-2.8s-0.4-2.4-0.4-3.9c0-1.5,0.1-2.9,0.4-4s0.6-2,1.2-2.8c0.5-0.8,1.2-1.3,2.1-1.7
		s1.9-0.6,3.1-0.6c1.3,0,2.3,0.2,3.1,0.6s1.5,1,2.1,1.8c0.5,0.8,0.9,1.7,1.2,2.8S544.1,50.1,544.1,51.6z M539.7,51.6
		c0-2.2-0.2-3.7-0.5-4.5s-1-1.3-1.8-1.3c-0.8,0-1.4,0.4-1.8,1.3s-0.5,2.4-0.5,4.6c0,2.1,0.2,3.6,0.5,4.5s1,1.3,1.8,1.3
		s1.4-0.4,1.8-1.3S539.7,53.7,539.7,51.6z"/>
	<path d="M559.6,60.3h-12.8v-2.8c1.1-0.9,2.1-1.7,2.9-2.4s1.6-1.5,2.3-2.2c0.9-0.9,1.5-1.7,1.9-2.4s0.6-1.4,0.6-2.1
		c0-0.8-0.2-1.4-0.7-1.9s-1.2-0.7-2-0.7c-0.4,0-0.9,0.1-1.3,0.2s-0.8,0.2-1.2,0.4c-0.4,0.2-0.7,0.4-1,0.6s-0.5,0.3-0.6,0.4h-0.3
		v-3.8c0.5-0.2,1.3-0.5,2.3-0.7s2.1-0.4,3-0.4c2.1,0,3.6,0.5,4.7,1.4s1.6,2.2,1.6,3.9c0,1-0.2,2-0.7,3s-1.3,2-2.4,3.2
		c-0.7,0.7-1.4,1.3-2.1,1.9s-1.1,0.9-1.4,1.2h7.4V60.3z"/>
	<path d="M574.6,51.6c0,1.5-0.1,2.8-0.4,4s-0.6,2.1-1.2,2.8s-1.2,1.3-2.1,1.7s-1.9,0.6-3.1,0.6c-1.2,0-2.3-0.2-3.1-0.6
		s-1.5-1-2.1-1.7c-0.5-0.8-0.9-1.7-1.2-2.8s-0.4-2.4-0.4-3.9c0-1.5,0.1-2.9,0.4-4s0.6-2,1.2-2.8c0.5-0.8,1.2-1.3,2.1-1.7
		s1.9-0.6,3.1-0.6c1.3,0,2.3,0.2,3.1,0.6s1.5,1,2.1,1.8c0.5,0.8,0.9,1.7,1.2,2.8S574.6,50.1,574.6,51.6z M570.3,51.6
		c0-2.2-0.2-3.7-0.5-4.5s-1-1.3-1.8-1.3c-0.8,0-1.4,0.4-1.8,1.3s-0.5,2.4-0.5,4.6c0,2.1,0.2,3.6,0.5,4.5s1,1.3,1.8,1.3
		s1.4-0.4,1.8-1.3S570.3,53.7,570.3,51.6z"/>
</g>
<g>
	<path d="M629,60.3h-12.8v-2.8c1.1-0.9,2.1-1.7,2.9-2.4s1.6-1.5,2.3-2.2c0.9-0.9,1.5-1.7,1.9-2.4s0.6-1.4,0.6-2.1
		c0-0.8-0.2-1.4-0.7-1.9s-1.2-0.7-2-0.7c-0.4,0-0.9,0.1-1.3,0.2s-0.8,0.2-1.2,0.4c-0.4,0.2-0.7,0.4-1,0.6s-0.5,0.3-0.6,0.4h-0.3
		v-3.8c0.5-0.2,1.3-0.5,2.3-0.7s2.1-0.4,3-0.4c2.1,0,3.6,0.5,4.7,1.4s1.6,2.2,1.6,3.9c0,1-0.2,2-0.7,3s-1.3,2-2.4,3.2
		c-0.7,0.7-1.4,1.3-2.1,1.9s-1.1,0.9-1.4,1.2h7.4V60.3z"/>
	<path d="M644.1,51.6c0,1.5-0.1,2.8-0.4,4s-0.6,2.1-1.2,2.8s-1.2,1.3-2.1,1.7s-1.9,0.6-3.1,0.6c-1.2,0-2.3-0.2-3.1-0.6
		s-1.5-1-2.1-1.7c-0.5-0.8-0.9-1.7-1.2-2.8s-0.4-2.4-0.4-3.9c0-1.5,0.1-2.9,0.4-4s0.6-2,1.2-2.8c0.5-0.8,1.2-1.3,2.1-1.7
		s1.9-0.6,3.1-0.6c1.3,0,2.3,0.2,3.1,0.6s1.5,1,2.1,1.8c0.5,0.8,0.9,1.7,1.2,2.8S644.1,50.1,644.1,51.6z M639.7,51.6
		c0-2.2-0.2-3.7-0.5-4.5s-1-1.3-1.8-1.3c-0.8,0-1.4,0.4-1.8,1.3s-0.5,2.4-0.5,4.6c0,2.1,0.2,3.6,0.5,4.5s1,1.3,1.8,1.3
		s1.4-0.4,1.8-1.3S639.7,53.7,639.7,51.6z"/>
	<path d="M659.6,60.3h-12.8v-2.8c1.1-0.9,2.1-1.7,2.9-2.4s1.6-1.5,2.3-2.2c0.9-0.9,1.5-1.7,1.9-2.4s0.6-1.4,0.6-2.1
		c0-0.8-0.2-1.4-0.7-1.9s-1.2-0.7-2-0.7c-0.4,0-0.9,0.1-1.3,0.2s-0.8,0.2-1.2,0.4c-0.4,0.2-0.7,0.4-1,0.6s-0.5,0.3-0.6,0.4h-0.3
		v-3.8c0.5-0.2,1.3-0.5,2.3-0.7s2.1-0.4,3-0.4c2.1,0,3.6,0.5,4.7,1.4s1.6,2.2,1.6,3.9c0,1-0.2,2-0.7,3s-1.3,2-2.4,3.2
		c-0.7,0.7-1.4,1.3-2.1,1.9s-1.1,0.9-1.4,1.2h7.4V60.3z"/>
	<path d="M674.1,60.3h-11.5v-3h3.7v-9.2h-3.7v-2.8c0.5,0,1.1,0,1.6-0.1s1-0.2,1.3-0.3c0.4-0.2,0.7-0.4,0.9-0.8s0.3-0.7,0.4-1.2h3.8
		v14.4h3.6V60.3z"/>
</g>
<rect x="900" class="st3" width="90" height="80"/>
<g>
	<path d="M951.5,60c0,0.9-0.2,1.6-0.5,2.3s-0.8,1.3-1.4,1.8c-0.6,0.5-1.3,0.9-2.2,1.1s-1.8,0.4-3,0.4c-1.4,0-2.5-0.1-3.5-0.3
		s-1.8-0.5-2.4-0.8v-3.8h0.4c0.6,0.4,1.4,0.8,2.3,1.1s1.7,0.4,2.4,0.4c0.4,0,0.9,0,1.4-0.1s0.9-0.2,1.2-0.5c0.3-0.2,0.5-0.4,0.6-0.7
		s0.2-0.7,0.2-1.2c0-0.5-0.1-0.9-0.3-1.2s-0.5-0.5-0.9-0.6c-0.4-0.1-0.8-0.2-1.3-0.2s-1,0-1.4,0h-0.8v-3.1h0.7c0.5,0,1,0,1.5-0.1
		s0.8-0.1,1.1-0.3c0.3-0.1,0.6-0.4,0.7-0.6s0.3-0.6,0.3-1.1c0-0.4-0.1-0.6-0.2-0.9s-0.4-0.4-0.6-0.5c-0.3-0.1-0.6-0.2-1-0.3
		s-0.7-0.1-1-0.1c-0.4,0-0.9,0.1-1.3,0.2s-0.9,0.2-1.3,0.4c-0.3,0.1-0.7,0.3-1,0.5s-0.6,0.3-0.8,0.5h-0.4v-3.7
		c0.6-0.3,1.4-0.5,2.4-0.7s2.1-0.4,3.1-0.4c1,0,1.9,0.1,2.7,0.3s1.4,0.4,2,0.8c0.6,0.4,1,0.8,1.3,1.4s0.4,1.2,0.4,1.9
		c0,1-0.3,1.9-0.9,2.6s-1.3,1.2-2.3,1.4v0.2c0.4,0.1,0.8,0.2,1.2,0.3s0.8,0.4,1.2,0.7c0.4,0.3,0.6,0.7,0.9,1.2S951.5,59.4,951.5,60z
		"/>
</g>
<g>
	<path d="M927.8,35.3V21.2h-5.2v-3.3h14.7v3.3h-5.2v14.1H927.8z"/>
	<path d="M951.6,28.8c0,2.2-0.6,3.9-1.8,5.1s-2.9,1.9-5,1.9c-2.1,0-3.8-0.6-5-1.9s-1.8-3-1.8-5.1c0-2.2,0.6-3.9,1.8-5.1
		s2.9-1.9,5-1.9c2.2,0,3.8,0.6,5,1.9S951.6,26.6,951.6,28.8z M947.4,28.8c0-0.8-0.1-1.4-0.2-2s-0.3-0.9-0.5-1.2
		c-0.2-0.3-0.5-0.6-0.8-0.7s-0.7-0.2-1-0.2c-0.4,0-0.7,0.1-1,0.2s-0.6,0.3-0.8,0.7c-0.2,0.3-0.4,0.7-0.6,1.3s-0.2,1.2-0.2,2
		s0.1,1.5,0.2,2s0.3,0.9,0.5,1.2c0.2,0.3,0.5,0.5,0.8,0.7s0.7,0.2,1.1,0.2c0.3,0,0.7-0.1,1-0.2s0.6-0.4,0.8-0.6
		c0.2-0.3,0.4-0.7,0.6-1.2S947.4,29.6,947.4,28.8z"/>
	<path d="M966.7,28.6c0,2.1-0.5,3.8-1.6,5.1s-2.4,1.9-3.9,1.9c-0.7,0-1.2-0.1-1.7-0.2s-1-0.4-1.5-0.7v5.5h-4.1v-18h4.1v1.4
		c0.6-0.5,1.2-0.9,1.8-1.3s1.3-0.5,2.2-0.5c1.5,0,2.7,0.6,3.5,1.8S966.7,26.5,966.7,28.6z M962.5,28.7c0-1.3-0.2-2.2-0.6-2.8
		s-1-0.9-1.8-0.9c-0.4,0-0.7,0.1-1.1,0.2s-0.7,0.3-1.1,0.5v6.6c0.2,0.1,0.5,0.2,0.7,0.2s0.6,0.1,0.9,0.1c1,0,1.7-0.3,2.2-1
		S962.5,30,962.5,28.7z"/>
</g>
<g>
</g>
<g>
</g>
<g>
</g>
<g>
</g>
<g>
</g>
<g>
</g>
<g>
</g>
<g>
</g>
<g>
</g>
<g>
</g>
<g>
</g>
</svg>
