<svg version="1.1" viewBox="0.0 0.0 600.0 371.0" fill="none" stroke="none" stroke-linecap="square" stroke-miterlimit="10" width="600" height="371" xmlns:xlink="http://www.w3.org/1999/xlink" xmlns="http://www.w3.org/2000/svg"><path fill="#ffffff" d="M0 0L600.0 0L600.0 371.0L0 371.0L0 0Z" fill-rule="nonzero"/><path fill="#4285f4" d="M300.0 54.916668C333.70197 54.916668 366.40524 66.36004 392.7545 87.37287L346.37726 145.5281C333.2026 135.02168 316.85098 129.3 300.0 129.3Z" fill-rule="nonzero"/><path fill="#db4437" d="M392.7545 87.37287C401.46365 94.31818 409.36514 102.219696 416.31046 110.92883L358.15524 157.30608C354.6826 152.9515 350.7318 149.00076 346.37726 145.5281Z" fill-rule="nonzero"/><path fill="#f4b400" d="M416.31046 110.92883C459.5854 165.1939 459.5854 242.17278 416.31046 296.43784L358.15524 250.06058C379.7927 222.92805 379.7927 184.43861 358.15524 157.30608Z" fill-rule="nonzero"/><path fill="#ff6d00" d="M165.96587 268.23077C143.76562 222.13148 146.81352 167.85847 174.03566 124.5347C201.2578 81.210915 248.83365 54.916668 300.0 54.916668L300.0 129.3C274.41684 129.3 250.6289 142.44713 237.01784 164.10901C223.40677 185.7709 221.88281 212.90741 232.98293 235.95705Z" fill-rule="nonzero"/><path fill="#0f9d58" d="M416.31046 296.43784C384.40878 336.44128 334.18805 357.2434 283.3434 351.5146C232.4988 345.78577 188.1661 314.33005 165.96587 268.23077L232.98293 235.95705C244.08305 259.00668 266.2494 274.73456 291.67172 277.59897C317.09402 280.46338 342.20438 270.06232 358.15524 250.06058Z" fill-rule="nonzero"/><path fill="#ffffff" d="M310.02277 97.2758L310.96027 97.2758Q311.86652 97.26018 312.36652 96.80705Q312.88214 96.35393 312.88214 95.57268Q312.88214 93.82268 311.14777 93.82268Q310.31964 93.82268 309.83527 94.29143Q309.3509 94.76018 309.3509 95.5258L308.08527 95.5258Q308.08527 94.3383 308.94464 93.55705Q309.81964 92.7758 311.14777 92.7758Q312.55402 92.7758 313.3509 93.5258Q314.14777 94.2758 314.14777 95.5883Q314.14777 96.24455 313.7259 96.85393Q313.31964 97.4633 312.58527 97.76018Q313.4134 98.0258 313.8509 98.63518Q314.30402 99.22893 314.30402 100.0883Q314.30402 101.43205 313.42902 102.22893Q312.55402 103.01018 311.14777 103.01018Q309.75714 103.01018 308.86652 102.26018Q307.99152 101.49455 307.99152 100.24455L309.27277 100.24455Q309.27277 101.0258 309.77277 101.51018Q310.2884 101.97893 311.14777 101.97893Q312.06964 101.97893 312.55402 101.49455Q313.0384 101.01018 313.0384 100.11955Q313.0384 99.26018 312.50714 98.79143Q311.9759 98.32268 310.96027 98.30705L310.02277 98.30705L310.02277 97.2758ZM319.25714 98.82268Q319.25714 97.29143 319.6634 95.86955Q320.08527 94.44768 320.89777 93.29143Q321.7259 92.11955 322.61652 91.63518L322.86652 92.47893Q321.86652 93.24455 321.2259 94.82268Q320.6009 96.38518 320.5384 98.32268L320.52277 98.91643Q320.52277 101.55705 321.49152 103.49455Q322.06964 104.6508 322.86652 105.30705L322.61652 106.0883Q321.69464 105.57268 320.86652 104.38518Q319.25714 102.05705 319.25714 98.82268ZM328.33527 102.86955L327.06964 102.86955L327.06964 94.44768L324.50714 95.36955L324.50714 94.22893L328.13214 92.86955L328.33527 92.86955L328.33527 102.86955ZM338.4134 98.61955Q338.4134 100.8383 337.64777 101.93205Q336.89777 103.01018 335.2884 103.01018Q333.69464 103.01018 332.92902 101.9633Q332.1634 100.9008 332.13214 98.79143L332.13214 97.10393Q332.13214 94.91643 332.88214 93.85393Q333.64777 92.7758 335.27277 92.7758Q336.88214 92.7758 337.63214 93.80705Q338.39777 94.8383 338.4134 96.97893L338.4134 98.61955ZM337.14777 96.9008Q337.14777 95.29143 336.69464 94.55705Q336.25714 93.82268 335.27277 93.82268Q334.30402 93.82268 333.8509 94.55705Q333.4134 95.2758 333.39777 96.79143L333.39777 98.82268Q333.39777 100.43205 333.86652 101.2133Q334.33527 101.97893 335.2884 101.97893Q336.2259 101.97893 336.67902 101.26018Q337.13214 100.5258 337.14777 98.9633L337.14777 96.9008ZM340.33527 102.2133Q340.33527 101.88518 340.52277 101.66643Q340.7259 101.44768 341.11652 101.44768Q341.50714 101.44768 341.71027 101.66643Q341.9134 101.88518 341.9134 102.2133Q341.9134 102.5258 341.71027 102.74455Q341.50714 102.94768 341.11652 102.94768Q340.7259 102.94768 340.52277 102.74455Q340.33527 102.5258 340.33527 102.2133ZM350.6009 93.61955L346.4759 102.86955L345.1634 102.86955L349.25714 93.94768L343.88214 93.94768L343.88214 92.91643L350.6009 92.91643L350.6009 93.61955ZM352.06964 94.82268Q352.06964 93.93205 352.63214 93.35393Q353.21027 92.7758 354.1009 92.7758Q355.02277 92.7758 355.58527 93.36955Q356.14777 93.94768 356.14777 94.86955L356.14777 95.35393Q356.14777 96.26018 355.56964 96.8383Q355.00714 97.4008 354.11652 97.4008Q353.2259 97.4008 352.64777 96.8383Q352.06964 96.26018 352.06964 95.30705L352.06964 94.82268ZM353.00714 95.35393Q353.00714 95.88518 353.30402 96.22893Q353.61652 96.57268 354.11652 96.57268Q354.6009 96.57268 354.89777 96.24455Q355.19464 95.91643 355.19464 95.32268L355.19464 94.82268Q355.19464 94.29143 354.89777 93.94768Q354.61652 93.60393 354.1009 93.60393Q353.6009 93.60393 353.30402 93.94768Q353.00714 94.29143 353.00714 94.85393L353.00714 95.35393ZM356.9134 100.43205Q356.9134 99.5258 357.4759 98.9633Q358.05402 98.38518 358.94464 98.38518Q359.8509 98.38518 360.4134 98.9633Q360.99152 99.5258 360.99152 100.47893L360.99152 100.9633Q360.99152 101.85393 360.4134 102.43205Q359.8509 103.01018 358.96027 103.01018Q358.08527 103.01018 357.49152 102.44768Q356.9134 101.86955 356.9134 100.91643L356.9134 100.43205ZM357.86652 100.9633Q357.86652 101.49455 358.1634 101.85393Q358.46027 102.19768 358.96027 102.19768Q359.46027 102.19768 359.75714 101.85393Q360.05402 101.51018 360.05402 100.93205L360.05402 100.43205Q360.05402 99.88518 359.74152 99.54143Q359.44464 99.19768 358.96027 99.19768Q358.46027 99.19768 358.1634 99.54143Q357.86652 99.88518 357.86652 100.4633L357.86652 100.9633ZM354.4134 102.11955L353.69464 101.66643L358.55402 93.88518L359.27277 94.3383L354.4134 102.11955ZM365.2259 98.9008Q365.2259 100.41643 364.81964 101.82268Q364.42902 103.2133 363.6009 104.4008Q362.77277 105.5883 361.88214 106.0883L361.61652 105.30705Q362.6634 104.51018 363.30402 102.80705Q363.94464 101.10393 363.96027 99.04143L363.96027 98.82268Q363.96027 97.38518 363.64777 96.1508Q363.3509 94.91643 362.81964 93.94768Q362.2884 92.9633 361.61652 92.41643L361.88214 91.63518Q362.77277 92.13518 363.58527 93.30705Q364.4134 94.47893 364.81964 95.88518Q365.2259 97.29143 365.2259 98.9008Z" fill-rule="nonzero"/><path fill="#000000" d="M387.8719 198.23021L387.8719 199.29271L387.6375 199.29271Q386.15314 199.32396 385.27814 200.16771Q384.40314 201.01146 384.2625 202.55833Q385.0594 201.65208 386.41876 201.65208Q387.71564 201.65208 388.48126 202.57396Q389.2625 203.48021 389.2625 204.93333Q389.2625 206.48021 388.41876 207.40208Q387.59064 208.32396 386.1844 208.32396Q384.7625 208.32396 383.8719 207.23021Q382.98126 206.12083 382.98126 204.40208L382.98126 203.91771Q382.98126 201.16771 384.15314 199.71458Q385.325 198.26146 387.6375 198.23021L387.8719 198.23021ZM386.2 202.71458Q385.5594 202.71458 385.0125 203.10521Q384.46564 203.48021 384.2469 204.07396L384.2469 204.54271Q384.2469 205.77708 384.79376 206.52708Q385.35626 207.27708 386.1844 207.27708Q387.04376 207.27708 387.52814 206.65208Q388.0125 206.01146 388.0125 204.99583Q388.0125 203.96458 387.5125 203.33958Q387.02814 202.71458 386.2 202.71458ZM393.98126 204.13646Q393.98126 202.60521 394.3875 201.18333Q394.8094 199.76146 395.6219 198.60521Q396.45 197.43333 397.34064 196.94896L397.59064 197.79271Q396.59064 198.55833 395.95 200.13646Q395.325 201.69896 395.2625 203.63646L395.2469 204.23021Q395.2469 206.87083 396.21564 208.80833Q396.79376 209.96458 397.59064 210.62083L397.34064 211.40208Q396.41876 210.88646 395.59064 209.69896Q393.98126 207.37083 393.98126 204.13646ZM405.41876 208.18333L398.90314 208.18333L398.90314 207.27708L402.34064 203.44896Q403.10626 202.57396 403.40314 202.04271Q403.7 201.49583 403.7 200.90208Q403.7 200.13646 403.21564 199.63646Q402.7469 199.13646 401.96564 199.13646Q401.02814 199.13646 400.4969 199.66771Q399.98126 200.19896 399.98126 201.16771L398.71564 201.16771Q398.71564 199.79271 399.59064 198.94896Q400.48126 198.08958 401.96564 198.08958Q403.35626 198.08958 404.15314 198.82396Q404.96564 199.54271 404.96564 200.76146Q404.96564 202.23021 403.09064 204.26146L400.4344 207.15208L405.41876 207.15208L405.41876 208.18333ZM411.0594 208.18333L409.79376 208.18333L409.79376 199.76146L407.23126 200.68333L407.23126 199.54271L410.85626 198.18333L411.0594 198.18333L411.0594 208.18333ZM415.0594 207.52708Q415.0594 207.19896 415.2469 206.98021Q415.45 206.76146 415.84064 206.76146Q416.23126 206.76146 416.4344 206.98021Q416.6375 207.19896 416.6375 207.52708Q416.6375 207.83958 416.4344 208.05833Q416.23126 208.26146 415.84064 208.26146Q415.45 208.26146 415.2469 208.05833Q415.0594 207.83958 415.0594 207.52708ZM424.2469 204.83958L425.6219 204.83958L425.6219 205.87083L424.2469 205.87083L424.2469 208.18333L422.96564 208.18333L422.96564 205.87083L418.4344 205.87083L418.4344 205.12083L422.8875 198.23021L424.2469 198.23021L424.2469 204.83958ZM419.8719 204.83958L422.96564 204.83958L422.96564 199.96458L422.825 200.23021L419.8719 204.83958ZM426.79376 200.13646Q426.79376 199.24583 427.35626 198.66771Q427.9344 198.08958 428.825 198.08958Q429.7469 198.08958 430.3094 198.68333Q430.8719 199.26146 430.8719 200.18333L430.8719 200.66771Q430.8719 201.57396 430.29376 202.15208Q429.73126 202.71458 428.84064 202.71458Q427.95 202.71458 427.3719 202.15208Q426.79376 201.57396 426.79376 200.62083L426.79376 200.13646ZM427.73126 200.66771Q427.73126 201.19896 428.02814 201.54271Q428.34064 201.88646 428.84064 201.88646Q429.325 201.88646 429.6219 201.55833Q429.91876 201.23021 429.91876 200.63646L429.91876 200.13646Q429.91876 199.60521 429.6219 199.26146Q429.34064 198.91771 428.825 198.91771Q428.325 198.91771 428.02814 199.26146Q427.73126 199.60521 427.73126 200.16771L427.73126 200.66771ZM431.6375 205.74583Q431.6375 204.83958 432.2 204.27708Q432.77814 203.69896 433.66876 203.69896Q434.575 203.69896 435.1375 204.27708Q435.71564 204.83958 435.71564 205.79271L435.71564 206.27708Q435.71564 207.16771 435.1375 207.74583Q434.575 208.32396 433.6844 208.32396Q432.8094 208.32396 432.21564 207.76146Q431.6375 207.18333 431.6375 206.23021L431.6375 205.74583ZM432.59064 206.27708Q432.59064 206.80833 432.8875 207.16771Q433.1844 207.51146 433.6844 207.51146Q434.1844 207.51146 434.48126 207.16771Q434.77814 206.82396 434.77814 206.24583L434.77814 205.74583Q434.77814 205.19896 434.46564 204.85521Q434.16876 204.51146 433.6844 204.51146Q433.1844 204.51146 432.8875 204.85521Q432.59064 205.19896 432.59064 205.77708L432.59064 206.27708ZM429.1375 207.43333L428.41876 206.98021L433.27814 199.19896L433.9969 199.65208L429.1375 207.43333ZM439.95 204.21458Q439.95 205.73021 439.54376 207.13646Q439.15314 208.52708 438.325 209.71458Q437.4969 210.90208 436.60626 211.40208L436.34064 210.62083Q437.3875 209.82396 438.02814 208.12083Q438.66876 206.41771 438.6844 204.35521L438.6844 204.13646Q438.6844 202.69896 438.3719 201.46458Q438.075 200.23021 437.54376 199.26146Q437.0125 198.27708 436.34064 197.73021L436.60626 196.94896Q437.4969 197.44896 438.3094 198.62083Q439.1375 199.79271 439.54376 201.19896Q439.95 202.60521 439.95 204.21458Z" fill-rule="nonzero"/><path fill="#ffffff" d="M263.33307 317.75577Q262.94244 318.22452 262.37994 318.5214Q261.83307 318.80264 261.17682 318.80264Q260.31744 318.80264 259.67682 318.38077Q259.0362 317.9589 258.69244 317.19327Q258.3487 316.41202 258.3487 315.49014Q258.3487 314.49014 258.7237 313.69327Q259.0987 312.88077 259.80182 312.4589Q260.50494 312.03702 261.42682 312.03702Q262.9112 312.03702 263.75494 313.1464Q264.61432 314.25577 264.61432 316.16202L264.61432 316.5214Q264.61432 319.42764 263.45807 320.7714Q262.31744 322.09952 259.98932 322.13077L259.73932 322.13077L259.73932 321.06827L260.02057 321.06827Q261.58307 321.03702 262.4112 320.25577Q263.25494 319.4589 263.33307 317.75577ZM261.37994 317.75577Q262.02057 317.75577 262.55182 317.36514Q263.0987 316.97452 263.3487 316.3964L263.3487 315.8964Q263.3487 314.6464 262.80182 313.88077Q262.25494 313.09952 261.44244 313.09952Q260.5987 313.09952 260.08307 313.74014Q259.58307 314.36514 259.58307 315.41202Q259.58307 316.44327 260.06744 317.09952Q260.56744 317.75577 261.37994 317.75577ZM269.56744 318.0839Q269.56744 316.55264 269.9737 315.13077Q270.39557 313.7089 271.20807 312.55264Q272.0362 311.38077 272.92682 310.8964L273.17682 311.74014Q272.17682 312.50577 271.5362 314.0839Q270.9112 315.6464 270.8487 317.5839L270.83307 318.17764Q270.83307 320.81827 271.80182 322.75577Q272.37994 323.91202 273.17682 324.56827L272.92682 325.34952Q272.00494 324.8339 271.17682 323.6464Q269.56744 321.31827 269.56744 318.0839ZM276.33307 316.53702L277.27057 316.53702Q278.17682 316.5214 278.67682 316.06827Q279.19244 315.61514 279.19244 314.8339Q279.19244 313.0839 277.45807 313.0839Q276.62994 313.0839 276.14557 313.55264Q275.6612 314.0214 275.6612 314.78702L274.39557 314.78702Q274.39557 313.59952 275.25494 312.81827Q276.12994 312.03702 277.45807 312.03702Q278.86432 312.03702 279.6612 312.78702Q280.45807 313.53702 280.45807 314.84952Q280.45807 315.50577 280.0362 316.11514Q279.62994 316.72452 278.89557 317.0214Q279.7237 317.28702 280.1612 317.8964Q280.61432 318.49014 280.61432 319.34952Q280.61432 320.69327 279.73932 321.49014Q278.86432 322.2714 277.45807 322.2714Q276.06744 322.2714 275.17682 321.5214Q274.30182 320.75577 274.30182 319.50577L275.58307 319.50577Q275.58307 320.28702 276.08307 320.7714Q276.5987 321.24014 277.45807 321.24014Q278.37994 321.24014 278.86432 320.75577Q279.3487 320.2714 279.3487 319.38077Q279.3487 318.5214 278.81744 318.05264Q278.2862 317.5839 277.27057 317.56827L276.33307 317.56827L276.33307 316.53702ZM289.00494 322.13077L282.48932 322.13077L282.48932 321.22452L285.92682 317.3964Q286.69244 316.5214 286.98932 315.99014Q287.2862 315.44327 287.2862 314.84952Q287.2862 314.0839 286.80182 313.5839Q286.33307 313.0839 285.55182 313.0839Q284.61432 313.0839 284.08307 313.61514Q283.56744 314.1464 283.56744 315.11514L282.30182 315.11514Q282.30182 313.74014 283.17682 312.8964Q284.06744 312.03702 285.55182 312.03702Q286.94244 312.03702 287.73932 312.7714Q288.55182 313.49014 288.55182 314.7089Q288.55182 316.17764 286.67682 318.2089L284.02057 321.09952L289.00494 321.09952L289.00494 322.13077ZM290.64557 321.47452Q290.64557 321.1464 290.83307 320.92764Q291.0362 320.7089 291.42682 320.7089Q291.81744 320.7089 292.02057 320.92764Q292.2237 321.1464 292.2237 321.47452Q292.2237 321.78702 292.02057 322.00577Q291.81744 322.2089 291.42682 322.2089Q291.0362 322.2089 290.83307 322.00577Q290.64557 321.78702 290.64557 321.47452ZM298.64557 322.13077L297.37994 322.13077L297.37994 313.7089L294.81744 314.63077L294.81744 313.49014L298.44244 312.13077L298.64557 312.13077L298.64557 322.13077ZM302.37994 314.0839Q302.37994 313.19327 302.94244 312.61514Q303.52057 312.03702 304.4112 312.03702Q305.33307 312.03702 305.89557 312.63077Q306.45807 313.2089 306.45807 314.13077L306.45807 314.61514Q306.45807 315.5214 305.87994 316.09952Q305.31744 316.66202 304.42682 316.66202Q303.5362 316.66202 302.95807 316.09952Q302.37994 315.5214 302.37994 314.56827L302.37994 314.0839ZM303.31744 314.61514Q303.31744 315.1464 303.61432 315.49014Q303.92682 315.8339 304.42682 315.8339Q304.9112 315.8339 305.20807 315.50577Q305.50494 315.17764 305.50494 314.5839L305.50494 314.0839Q305.50494 313.55264 305.20807 313.2089Q304.92682 312.86514 304.4112 312.86514Q303.9112 312.86514 303.61432 313.2089Q303.31744 313.55264 303.31744 314.11514L303.31744 314.61514ZM307.2237 319.69327Q307.2237 318.78702 307.7862 318.22452Q308.36432 317.6464 309.25494 317.6464Q310.1612 317.6464 310.7237 318.22452Q311.30182 318.78702 311.30182 319.74014L311.30182 320.22452Q311.30182 321.11514 310.7237 321.69327Q310.1612 322.2714 309.27057 322.2714Q308.39557 322.2714 307.80182 321.7089Q307.2237 321.13077 307.2237 320.17764L307.2237 319.69327ZM308.17682 320.22452Q308.17682 320.75577 308.4737 321.11514Q308.77057 321.4589 309.27057 321.4589Q309.77057 321.4589 310.06744 321.11514Q310.36432 320.7714 310.36432 320.19327L310.36432 319.69327Q310.36432 319.1464 310.05182 318.80264Q309.75494 318.4589 309.27057 318.4589Q308.77057 318.4589 308.4737 318.80264Q308.17682 319.1464 308.17682 319.72452L308.17682 320.22452ZM304.7237 321.38077L304.00494 320.92764L308.86432 313.1464L309.58307 313.59952L304.7237 321.38077ZM315.5362 318.16202Q315.5362 319.67764 315.12994 321.0839Q314.73932 322.47452 313.9112 323.66202Q313.08307 324.84952 312.19244 325.34952L311.92682 324.56827Q312.9737 323.7714 313.61432 322.06827Q314.25494 320.36514 314.27057 318.30264L314.27057 318.0839Q314.27057 316.6464 313.95807 315.41202Q313.6612 314.17764 313.12994 313.2089Q312.5987 312.22452 311.92682 311.67764L312.19244 310.8964Q313.08307 311.3964 313.89557 312.56827Q314.7237 313.74014 315.12994 315.1464Q315.5362 316.55264 315.5362 318.16202Z" fill-rule="nonzero"/><path fill="#000000" d="M181.69862 144.44685Q181.308 144.9156 180.7455 145.21248Q180.19862 145.49373 179.54237 145.49373Q178.683 145.49373 178.04237 145.07185Q177.40175 144.64998 177.058 143.88435Q176.71425 143.1031 176.71425 142.18123Q176.71425 141.18123 177.08925 140.38435Q177.46425 139.57185 178.16737 139.14998Q178.8705 138.7281 179.79237 138.7281Q181.27675 138.7281 182.1205 139.83748Q182.97987 140.94685 182.97987 142.8531L182.97987 143.21248Q182.97987 146.11873 181.82362 147.46248Q180.683 148.7906 178.35487 148.82185L178.10487 148.82185L178.10487 147.75935L178.38612 147.75935Q179.94862 147.7281 180.77675 146.94685Q181.6205 146.14998 181.69862 144.44685ZM179.7455 144.44685Q180.38612 144.44685 180.91737 144.05623Q181.46425 143.6656 181.71425 143.08748L181.71425 142.58748Q181.71425 141.33748 181.16737 140.57185Q180.6205 139.7906 179.808 139.7906Q178.96425 139.7906 178.44862 140.43123Q177.94862 141.05623 177.94862 142.1031Q177.94862 143.13435 178.433 143.7906Q178.933 144.44685 179.7455 144.44685ZM187.933 144.77498Q187.933 143.24373 188.33925 141.82185Q188.76112 140.39998 189.57362 139.24373Q190.40175 138.07185 191.29237 137.58748L191.54237 138.43123Q190.54237 139.19685 189.90175 140.77498Q189.27675 142.33748 189.21425 144.27498L189.19862 144.86873Q189.19862 147.50935 190.16737 149.44685Q190.7455 150.6031 191.54237 151.25935L191.29237 152.0406Q190.3705 151.52498 189.54237 150.33748Q187.933 148.00935 187.933 144.77498ZM194.69862 143.2281L195.63612 143.2281Q196.54237 143.21248 197.04237 142.75935Q197.558 142.30623 197.558 141.52498Q197.558 139.77498 195.82362 139.77498Q194.9955 139.77498 194.51112 140.24373Q194.02675 140.71248 194.02675 141.4781L192.76112 141.4781Q192.76112 140.2906 193.6205 139.50935Q194.4955 138.7281 195.82362 138.7281Q197.22987 138.7281 198.02675 139.4781Q198.82362 140.2281 198.82362 141.5406Q198.82362 142.19685 198.40175 142.80623Q197.9955 143.4156 197.26112 143.71248Q198.08925 143.9781 198.52675 144.58748Q198.97987 145.18123 198.97987 146.0406Q198.97987 147.38435 198.10487 148.18123Q197.22987 148.96248 195.82362 148.96248Q194.433 148.96248 193.54237 148.21248Q192.66737 147.44685 192.66737 146.19685L193.94862 146.19685Q193.94862 146.9781 194.44862 147.46248Q194.96425 147.93123 195.82362 147.93123Q196.7455 147.93123 197.22987 147.44685Q197.71425 146.96248 197.71425 146.07185Q197.71425 145.21248 197.183 144.74373Q196.65175 144.27498 195.63612 144.25935L194.69862 144.25935L194.69862 143.2281ZM207.3705 148.82185L200.85487 148.82185L200.85487 147.9156L204.29237 144.08748Q205.058 143.21248 205.35487 142.68123Q205.65175 142.13435 205.65175 141.5406Q205.65175 140.77498 205.16737 140.27498Q204.69862 139.77498 203.91737 139.77498Q202.97987 139.77498 202.44862 140.30623Q201.933 140.83748 201.933 141.80623L200.66737 141.80623Q200.66737 140.43123 201.54237 139.58748Q202.433 138.7281 203.91737 138.7281Q205.308 138.7281 206.10487 139.46248Q206.91737 140.18123 206.91737 141.39998Q206.91737 142.86873 205.04237 144.89998L202.38612 147.7906L207.3705 147.7906L207.3705 148.82185ZM209.01112 148.1656Q209.01112 147.83748 209.19862 147.61873Q209.40175 147.39998 209.79237 147.39998Q210.183 147.39998 210.38612 147.61873Q210.58925 147.83748 210.58925 148.1656Q210.58925 148.4781 210.38612 148.69685Q210.183 148.89998 209.79237 148.89998Q209.40175 148.89998 209.19862 148.69685Q209.01112 148.4781 209.01112 148.1656ZM217.01112 148.82185L215.7455 148.82185L215.7455 140.39998L213.183 141.32185L213.183 140.18123L216.808 138.82185L217.01112 138.82185L217.01112 148.82185ZM220.7455 140.77498Q220.7455 139.88435 221.308 139.30623Q221.88612 138.7281 222.77675 138.7281Q223.69862 138.7281 224.26112 139.32185Q224.82362 139.89998 224.82362 140.82185L224.82362 141.30623Q224.82362 142.21248 224.2455 142.7906Q223.683 143.3531 222.79237 143.3531Q221.90175 143.3531 221.32362 142.7906Q220.7455 142.21248 220.7455 141.25935L220.7455 140.77498ZM221.683 141.30623Q221.683 141.83748 221.97987 142.18123Q222.29237 142.52498 222.79237 142.52498Q223.27675 142.52498 223.57362 142.19685Q223.8705 141.86873 223.8705 141.27498L223.8705 140.77498Q223.8705 140.24373 223.57362 139.89998Q223.29237 139.55623 222.77675 139.55623Q222.27675 139.55623 221.97987 139.89998Q221.683 140.24373 221.683 140.80623L221.683 141.30623ZM225.58925 146.38435Q225.58925 145.4781 226.15175 144.9156Q226.72987 144.33748 227.6205 144.33748Q228.52675 144.33748 229.08925 144.9156Q229.66737 145.4781 229.66737 146.43123L229.66737 146.9156Q229.66737 147.80623 229.08925 148.38435Q228.52675 148.96248 227.63612 148.96248Q226.76112 148.96248 226.16737 148.39998Q225.58925 147.82185 225.58925 146.86873L225.58925 146.38435ZM226.54237 146.9156Q226.54237 147.44685 226.83925 147.80623Q227.13612 148.14998 227.63612 148.14998Q228.13612 148.14998 228.433 147.80623Q228.72987 147.46248 228.72987 146.88435L228.72987 146.38435Q228.72987 145.83748 228.41737 145.49373Q228.1205 145.14998 227.63612 145.14998Q227.13612 145.14998 226.83925 145.49373Q226.54237 145.83748 226.54237 146.4156L226.54237 146.9156ZM223.08925 148.07185L222.3705 147.61873L227.22987 139.83748L227.94862 140.2906L223.08925 148.07185ZM233.90175 144.8531Q233.90175 146.36873 233.4955 147.77498Q233.10487 149.1656 232.27675 150.3531Q231.44862 151.5406 230.558 152.0406L230.29237 151.25935Q231.33925 150.46248 231.97987 148.75935Q232.6205 147.05623 232.63612 144.99373L232.63612 144.77498Q232.63612 143.33748 232.32362 142.1031Q232.02675 140.86873 231.4955 139.89998Q230.96425 138.9156 230.29237 138.36873L230.558 137.58748Q231.44862 138.08748 232.26112 139.25935Q233.08925 140.43123 233.4955 141.83748Q233.90175 143.24373 233.90175 144.8531Z" fill-rule="nonzero"/><path fill="#757575" d="M31.14375 120.99213L19.971874 120.99213L19.971874 119.42963L25.878124 112.86713Q27.190624 111.38275 27.690624 110.46088Q28.190624 109.52338 28.190624 108.52338Q28.190624 107.17963 27.378124 106.33588Q26.565624 105.4765 25.221874 105.4765Q23.596874 105.4765 22.70625 106.39838Q21.815624 107.32025 21.815624 108.96088L19.64375 108.96088Q19.64375 106.6015 21.159374 105.14838Q22.675 103.69525 25.221874 103.69525Q27.596874 103.69525 28.971874 104.94525Q30.3625 106.19525 30.3625 108.25775Q30.3625 110.789 27.159374 114.25775L22.58125 119.2265L31.14375 119.2265L31.14375 120.99213ZM43.675 113.71088Q43.675 117.52338 42.3625 119.38275Q41.065624 121.2265 38.3 121.2265Q35.565624 121.2265 34.253124 119.414Q32.940624 117.6015 32.89375 114.00775L32.89375 111.11713Q32.89375 107.3515 34.190624 105.52338Q35.503124 103.69525 38.284374 103.69525Q41.034374 103.69525 42.33125 105.46088Q43.628124 107.2265 43.675 110.89838L43.675 113.71088ZM41.503124 110.74213Q41.503124 107.99213 40.721874 106.74213Q39.95625 105.4765 38.284374 105.4765Q36.6125 105.4765 35.846874 106.7265Q35.096874 107.9765 35.065624 110.58588L35.065624 114.05463Q35.065624 116.82025 35.8625 118.14838Q36.675 119.46088 38.3 119.46088Q39.909374 119.46088 40.690624 118.2265Q41.471874 116.9765 41.503124 114.30463L41.503124 110.74213ZM53.096874 120.99213L50.909374 120.99213L50.909374 106.539L46.55 108.14838L46.55 106.17963L52.753124 103.8515L53.096874 103.8515L53.096874 120.99213ZM59.971874 112.42963L60.83125 103.92963L69.58125 103.92963L69.58125 105.92963L62.675 105.92963L62.159374 110.58588Q63.409374 109.8515 65.00313 109.8515Q67.33125 109.8515 68.70625 111.39838Q70.08125 112.92963 70.08125 115.55463Q70.08125 118.19525 68.65938 119.71088Q67.2375 121.2265 64.675 121.2265Q62.409374 121.2265 60.971874 119.9765Q59.55 118.71088 59.3625 116.50775L61.409374 116.50775Q61.6125 117.96088 62.45625 118.71088Q63.3 119.46088 64.675 119.46088Q66.19063 119.46088 67.05 118.42963Q67.90938 117.39838 67.90938 115.57025Q67.90938 113.86713 66.97188 112.83588Q66.05 111.789 64.50313 111.789Q63.08125 111.789 62.26875 112.414L61.70625 112.88275L59.971874 112.42963Z" fill-rule="nonzero"/><path fill="#9e9e9e" d="M23.128124 143.39838L24.753124 143.39838Q26.284374 143.38275 27.159374 142.6015Q28.05 141.80463 28.05 140.4765Q28.05 137.4765 25.05 137.4765Q23.64375 137.4765 22.8 138.289Q21.971874 139.08588 21.971874 140.39838L19.8 140.39838Q19.8 138.38275 21.284374 137.039Q22.76875 135.69525 25.05 135.69525Q27.471874 135.69525 28.83125 136.9765Q30.20625 138.24213 30.20625 140.52338Q30.20625 141.63275 29.4875 142.67963Q28.76875 143.7265 27.534374 144.24213Q28.940624 144.67963 29.70625 145.71088Q30.471874 146.74213 30.471874 148.2265Q30.471874 150.52338 28.971874 151.88275Q27.471874 153.2265 25.065624 153.2265Q22.659374 153.2265 21.159374 151.92963Q19.659374 150.61713 19.659374 148.49213L21.83125 148.49213Q21.83125 149.83588 22.70625 150.64838Q23.596874 151.46088 25.065624 151.46088Q26.64375 151.46088 27.471874 150.64838Q28.3 149.82025 28.3 148.27338Q28.3 146.789 27.378124 145.99213Q26.471874 145.19525 24.753124 145.17963L23.128124 145.17963L23.128124 143.39838ZM44.14375 152.99213L32.971874 152.99213L32.971874 151.42963L38.878124 144.86713Q40.190624 143.38275 40.690624 142.46088Q41.190624 141.52338 41.190624 140.52338Q41.190624 139.17963 40.378124 138.33588Q39.565624 137.4765 38.221874 137.4765Q36.596874 137.4765 35.70625 138.39838Q34.815624 139.32025 34.815624 140.96088L32.64375 140.96088Q32.64375 138.6015 34.159374 137.14838Q35.675 135.69525 38.221874 135.69525Q40.596874 135.69525 41.971874 136.94525Q43.3625 138.19525 43.3625 140.25775Q43.3625 142.789 40.159374 146.25775L35.58125 151.2265L44.14375 151.2265L44.14375 152.99213ZM46.2375 151.8515Q46.2375 151.289 46.565624 150.914Q46.909374 150.539 47.565624 150.539Q48.2375 150.539 48.58125 150.914Q48.940624 151.289 48.940624 151.8515Q48.940624 152.39838 48.58125 152.75775Q48.2375 153.11713 47.565624 153.11713Q46.909374 153.11713 46.565624 152.75775Q46.2375 152.39838 46.2375 151.8515ZM59.096874 152.99213L56.909374 152.99213L56.909374 138.539L52.55 140.14838L52.55 138.17963L58.753124 135.8515L59.096874 135.8515L59.096874 152.99213ZM64.78438 139.21088Q64.78438 137.67963 65.75313 136.67963Q66.7375 135.67963 68.26875 135.67963Q69.83125 135.67963 70.8 136.67963Q71.76875 137.67963 71.76875 139.27338L71.76875 140.11713Q71.76875 141.664 70.78438 142.64838Q69.81563 143.61713 68.3 143.61713Q66.76875 143.61713 65.76875 142.64838Q64.78438 141.664 64.78438 140.02338L64.78438 139.21088ZM66.39375 140.11713Q66.39375 141.02338 66.90938 141.61713Q67.425 142.21088 68.3 142.21088Q69.12813 142.21088 69.62813 141.63275Q70.14375 141.05463 70.14375 140.07025L70.14375 139.21088Q70.14375 138.289 69.64375 137.69525Q69.14375 137.1015 68.26875 137.1015Q67.40938 137.1015 66.89375 137.69525Q66.39375 138.289 66.39375 139.25775L66.39375 140.11713ZM73.09688 148.80463Q73.09688 147.27338 74.06563 146.289Q75.05 145.289 76.58125 145.289Q78.1125 145.289 79.09688 146.27338Q80.08125 147.25775 80.08125 148.88275L80.08125 149.7265Q80.08125 151.25775 79.09688 152.25775Q78.12813 153.24213 76.59688 153.24213Q75.08125 153.24213 74.08125 152.25775Q73.09688 151.27338 73.09688 149.64838L73.09688 148.80463ZM74.70625 149.7265Q74.70625 150.64838 75.22188 151.24213Q75.7375 151.83588 76.6125 151.83588Q77.45625 151.83588 77.95625 151.25775Q78.45625 150.664 78.45625 149.67963L78.45625 148.80463Q78.45625 147.88275 77.94063 147.30463Q77.44063 146.71088 76.58125 146.71088Q75.75313 146.71088 75.22188 147.289Q74.70625 147.86713 74.70625 148.8515L74.70625 149.7265ZM68.78438 151.69525L67.56563 150.92963L75.89375 137.58588L77.12813 138.36713L68.78438 151.69525Z" fill-rule="nonzero"/><path stroke="#757575" stroke-width="1.0" stroke-linecap="butt" d="M18.55 128.49213L145.23334 128.49213L180.33388 128.49213" fill-rule="nonzero"/><path fill="#9e9e9e" d="M182.33388 128.49213C182.33388 127.38756 181.43845 126.49213 180.33388 126.49213C179.22931 126.49213 178.33388 127.38756 178.33388 128.49213C178.33388 129.5967 179.22931 130.49213 180.33388 130.49213C181.43845 130.49213 182.33388 129.5967 182.33388 128.49213" fill-rule="nonzero"/><path fill="#757575" d="M31.14375 314.45L19.971874 314.45L19.971874 312.8875L25.878124 306.325Q27.190624 304.84064 27.690624 303.91876Q28.190624 302.98126 28.190624 301.98126Q28.190624 300.6375 27.378124 299.79376Q26.565624 298.9344 25.221874 298.9344Q23.596874 298.9344 22.70625 299.85626Q21.815624 300.77814 21.815624 302.41876L19.64375 302.41876Q19.64375 300.0594 21.159374 298.60626Q22.675 297.15314 25.221874 297.15314Q27.596874 297.15314 28.971874 298.40314Q30.3625 299.65314 30.3625 301.71564Q30.3625 304.2469 27.159374 307.71564L22.58125 312.6844L31.14375 312.6844L31.14375 314.45ZM43.675 307.16876Q43.675 310.98126 42.3625 312.84064Q41.065624 314.6844 38.3 314.6844Q35.565624 314.6844 34.253124 312.8719Q32.940624 311.0594 32.89375 307.46564L32.89375 304.575Q32.89375 300.8094 34.190624 298.98126Q35.503124 297.15314 38.284374 297.15314Q41.034374 297.15314 42.33125 298.91876Q43.628124 300.6844 43.675 304.35626L43.675 307.16876ZM41.503124 304.2Q41.503124 301.45 40.721874 300.2Q39.95625 298.9344 38.284374 298.9344Q36.6125 298.9344 35.846874 300.1844Q35.096874 301.4344 35.065624 304.04376L35.065624 307.5125Q35.065624 310.27814 35.8625 311.60626Q36.675 312.91876 38.3 312.91876Q39.909374 312.91876 40.690624 311.6844Q41.471874 310.4344 41.503124 307.7625L41.503124 304.2ZM53.096874 314.45L50.909374 314.45L50.909374 299.9969L46.55 301.60626L46.55 299.6375L52.753124 297.3094L53.096874 297.3094L53.096874 314.45ZM68.12813 308.71564L70.4875 308.71564L70.4875 310.48126L68.12813 310.48126L68.12813 314.45L65.94063 314.45L65.94063 310.48126L58.175 310.48126L58.175 309.21564L65.81563 297.3875L68.12813 297.3875L68.12813 308.71564ZM60.628124 308.71564L65.94063 308.71564L65.94063 300.35626L65.69063 300.825L60.628124 308.71564Z" fill-rule="nonzero"/><path fill="#9e9e9e" d="M23.128124 336.85626L24.753124 336.85626Q26.284374 336.84064 27.159374 336.0594Q28.05 335.2625 28.05 333.9344Q28.05 330.9344 25.05 330.9344Q23.64375 330.9344 22.8 331.7469Q21.971874 332.54376 21.971874 333.85626L19.8 333.85626Q19.8 331.84064 21.284374 330.4969Q22.76875 329.15314 25.05 329.15314Q27.471874 329.15314 28.83125 330.4344Q30.20625 331.7 30.20625 333.98126Q30.20625 335.09064 29.4875 336.1375Q28.76875 337.1844 27.534374 337.7Q28.940624 338.1375 29.70625 339.16876Q30.471874 340.2 30.471874 341.6844Q30.471874 343.98126 28.971874 345.34064Q27.471874 346.6844 25.065624 346.6844Q22.659374 346.6844 21.159374 345.3875Q19.659374 344.075 19.659374 341.95L21.83125 341.95Q21.83125 343.29376 22.70625 344.10626Q23.596874 344.91876 25.065624 344.91876Q26.64375 344.91876 27.471874 344.10626Q28.3 343.27814 28.3 341.73126Q28.3 340.2469 27.378124 339.45Q26.471874 338.65314 24.753124 338.6375L23.128124 338.6375L23.128124 336.85626ZM44.14375 346.45L32.971874 346.45L32.971874 344.8875L38.878124 338.325Q40.190624 336.84064 40.690624 335.91876Q41.190624 334.98126 41.190624 333.98126Q41.190624 332.6375 40.378124 331.79376Q39.565624 330.9344 38.221874 330.9344Q36.596874 330.9344 35.70625 331.85626Q34.815624 332.77814 34.815624 334.41876L32.64375 334.41876Q32.64375 332.0594 34.159374 330.60626Q35.675 329.15314 38.221874 329.15314Q40.596874 329.15314 41.971874 330.40314Q43.3625 331.65314 43.3625 333.71564Q43.3625 336.2469 40.159374 339.71564L35.58125 344.6844L44.14375 344.6844L44.14375 346.45ZM46.2375 345.3094Q46.2375 344.7469 46.565624 344.3719Q46.909374 343.9969 47.565624 343.9969Q48.2375 343.9969 48.58125 344.3719Q48.940624 344.7469 48.940624 345.3094Q48.940624 345.85626 48.58125 346.21564Q48.2375 346.575 47.565624 346.575Q46.909374 346.575 46.565624 346.21564Q46.2375 345.85626 46.2375 345.3094ZM59.096874 346.45L56.909374 346.45L56.909374 331.9969L52.55 333.60626L52.55 331.6375L58.753124 329.3094L59.096874 329.3094L59.096874 346.45ZM64.78438 332.66876Q64.78438 331.1375 65.75313 330.1375Q66.7375 329.1375 68.26875 329.1375Q69.83125 329.1375 70.8 330.1375Q71.76875 331.1375 71.76875 332.73126L71.76875 333.575Q71.76875 335.1219 70.78438 336.10626Q69.81563 337.075 68.3 337.075Q66.76875 337.075 65.76875 336.10626Q64.78438 335.1219 64.78438 333.48126L64.78438 332.66876ZM66.39375 333.575Q66.39375 334.48126 66.90938 335.075Q67.425 335.66876 68.3 335.66876Q69.12813 335.66876 69.62813 335.09064Q70.14375 334.5125 70.14375 333.52814L70.14375 332.66876Q70.14375 331.7469 69.64375 331.15314Q69.14375 330.5594 68.26875 330.5594Q67.40938 330.5594 66.89375 331.15314Q66.39375 331.7469 66.39375 332.71564L66.39375 333.575ZM73.09688 342.2625Q73.09688 340.73126 74.06563 339.7469Q75.05 338.7469 76.58125 338.7469Q78.1125 338.7469 79.09688 339.73126Q80.08125 340.71564 80.08125 342.34064L80.08125 343.1844Q80.08125 344.71564 79.09688 345.71564Q78.12813 346.7 76.59688 346.7Q75.08125 346.7 74.08125 345.71564Q73.09688 344.73126 73.09688 343.10626L73.09688 342.2625ZM74.70625 343.1844Q74.70625 344.10626 75.22188 344.7Q75.7375 345.29376 76.6125 345.29376Q77.45625 345.29376 77.95625 344.71564Q78.45625 344.1219 78.45625 343.1375L78.45625 342.2625Q78.45625 341.34064 77.94063 340.7625Q77.44063 340.16876 76.58125 340.16876Q75.75313 340.16876 75.22188 340.7469Q74.70625 341.325 74.70625 342.3094L74.70625 343.1844ZM68.78438 345.15314L67.56563 344.3875L75.89375 331.04376L77.12813 331.825L68.78438 345.15314Z" fill-rule="nonzero"/><path stroke="#757575" stroke-width="1.0" stroke-linecap="butt" d="M18.55 321.95L145.23334 321.95L284.17624 344.12302" fill-rule="nonzero"/><path fill="#9e9e9e" d="M286.17624 344.12302C286.17624 343.01846 285.28082 342.12302 284.17624 342.12302C283.0717 342.12302 282.17624 343.01846 282.17624 344.12302C282.17624 345.2276 283.0717 346.12302 284.17624 346.12302C285.28082 346.12302 286.17624 345.2276 286.17624 344.12302" fill-rule="nonzero"/><path fill="#757575" d="M542.04376 77.916664L530.8719 77.916664L530.8719 76.354164L536.77814 69.791664Q538.09064 68.30729 538.59064 67.385414Q539.09064 66.447914 539.09064 65.447914Q539.09064 64.104164 538.27814 63.260414Q537.46564 62.40104 536.1219 62.40104Q534.4969 62.40104 533.60626 63.322914Q532.71564 64.24479 532.71564 65.885414L530.54376 65.885414Q530.54376 63.52604 532.0594 62.072914Q533.575 60.61979 536.1219 60.61979Q538.4969 60.61979 539.8719 61.86979Q541.2625 63.11979 541.2625 65.18229Q541.2625 67.71354 538.0594 71.18229L533.48126 76.15104L542.04376 76.15104L542.04376 77.916664ZM554.575 70.635414Q554.575 74.447914 553.2625 76.30729Q551.96564 78.15104 549.2 78.15104Q546.46564 78.15104 545.15314 76.33854Q543.84064 74.52604 543.79376 70.93229L543.79376 68.041664Q543.79376 64.27604 545.09064 62.447914Q546.40314 60.61979 549.1844 60.61979Q551.9344 60.61979 553.23126 62.385414Q554.52814 64.15104 554.575 67.822914L554.575 70.635414ZM552.40314 67.666664Q552.40314 64.916664 551.6219 63.666664Q550.85626 62.40104 549.1844 62.40104Q547.5125 62.40104 546.7469 63.65104Q545.9969 64.90104 545.96564 67.510414L545.96564 70.979164Q545.96564 73.74479 546.7625 75.072914Q547.575 76.385414 549.2 76.385414Q550.8094 76.385414 551.59064 75.15104Q552.3719 73.90104 552.40314 71.229164L552.40314 67.666664ZM567.575 70.635414Q567.575 74.447914 566.2625 76.30729Q564.96564 78.15104 562.2 78.15104Q559.46564 78.15104 558.15314 76.33854Q556.84064 74.52604 556.79376 70.93229L556.79376 68.041664Q556.79376 64.27604 558.09064 62.447914Q559.40314 60.61979 562.1844 60.61979Q564.9344 60.61979 566.23126 62.385414Q567.52814 64.15104 567.575 67.822914L567.575 70.635414ZM565.40314 67.666664Q565.40314 64.916664 564.6219 63.666664Q563.85626 62.40104 562.1844 62.40104Q560.5125 62.40104 559.7469 63.65104Q558.9969 64.90104 558.96564 67.510414L558.96564 70.979164Q558.96564 73.74479 559.7625 75.072914Q560.575 76.385414 562.2 76.385414Q563.8094 76.385414 564.59064 75.15104Q565.3719 73.90104 565.40314 71.229164L565.40314 67.666664ZM580.8875 62.072914L573.825 77.916664L571.54376 77.916664L578.59064 62.635414L569.35626 62.635414L569.35626 60.854164L580.8875 60.854164L580.8875 62.072914Z" fill-rule="nonzero"/><path fill="#9e9e9e" d="M526.9969 109.916664L524.8094 109.916664L524.8094 95.46354L520.45 97.072914L520.45 95.104164L526.65314 92.77604L526.9969 92.77604L526.9969 109.916664ZM543.575 102.635414Q543.575 106.447914 542.2625 108.30729Q540.96564 110.15104 538.2 110.15104Q535.46564 110.15104 534.15314 108.33854Q532.84064 106.52604 532.79376 102.93229L532.79376 100.041664Q532.79376 96.27604 534.09064 94.447914Q535.40314 92.61979 538.1844 92.61979Q540.9344 92.61979 542.23126 94.385414Q543.52814 96.15104 543.575 99.822914L543.575 102.635414ZM541.40314 99.666664Q541.40314 96.916664 540.6219 95.666664Q539.85626 94.40104 538.1844 94.40104Q536.5125 94.40104 535.7469 95.65104Q534.9969 96.90104 534.96564 99.510414L534.96564 102.979164Q534.96564 105.74479 535.7625 107.072914Q536.575 108.385414 538.2 108.385414Q539.8094 108.385414 540.59064 107.15104Q541.3719 105.90104 541.40314 103.229164L541.40314 99.666664ZM546.1375 108.77604Q546.1375 108.21354 546.46564 107.83854Q546.8094 107.46354 547.46564 107.46354Q548.1375 107.46354 548.48126 107.83854Q548.84064 108.21354 548.84064 108.77604Q548.84064 109.322914 548.48126 109.68229Q548.1375 110.041664 547.46564 110.041664Q546.8094 110.041664 546.46564 109.68229Q546.1375 109.322914 546.1375 108.77604ZM562.8875 94.072914L555.825 109.916664L553.54376 109.916664L560.59064 94.635414L551.35626 94.635414L551.35626 92.854164L562.8875 92.854164L562.8875 94.072914ZM564.6844 96.135414Q564.6844 94.604164 565.65314 93.604164Q566.6375 92.604164 568.16876 92.604164Q569.73126 92.604164 570.7 93.604164Q571.66876 94.604164 571.66876 96.197914L571.66876 97.041664Q571.66876 98.58854 570.6844 99.572914Q569.71564 100.541664 568.2 100.541664Q566.66876 100.541664 565.66876 99.572914Q564.6844 98.58854 564.6844 96.947914L564.6844 96.135414ZM566.29376 97.041664Q566.29376 97.947914 566.8094 98.541664Q567.325 99.135414 568.2 99.135414Q569.02814 99.135414 569.52814 98.55729Q570.04376 97.979164 570.04376 96.99479L570.04376 96.135414Q570.04376 95.21354 569.54376 94.61979Q569.04376 94.02604 568.16876 94.02604Q567.3094 94.02604 566.79376 94.61979Q566.29376 95.21354 566.29376 96.18229L566.29376 97.041664ZM572.9969 105.729164Q572.9969 104.197914 573.96564 103.21354Q574.95 102.21354 576.48126 102.21354Q578.0125 102.21354 578.9969 103.197914Q579.98126 104.18229 579.98126 105.80729L579.98126 106.65104Q579.98126 108.18229 578.9969 109.18229Q578.02814 110.166664 576.4969 110.166664Q574.98126 110.166664 573.98126 109.18229Q572.9969 108.197914 572.9969 106.572914L572.9969 105.729164ZM574.60626 106.65104Q574.60626 107.572914 575.1219 108.166664Q575.6375 108.760414 576.5125 108.760414Q577.35626 108.760414 577.85626 108.18229Q578.35626 107.58854 578.35626 106.604164L578.35626 105.729164Q578.35626 104.80729 577.84064 104.229164Q577.34064 103.635414 576.48126 103.635414Q575.65314 103.635414 575.1219 104.21354Q574.60626 104.791664 574.60626 105.77604L574.60626 106.65104ZM568.6844 108.61979L567.46564 107.854164L575.79376 94.510414L577.02814 95.291664L568.6844 108.61979Z" fill-rule="nonzero"/><path stroke="#757575" stroke-width="1.0" stroke-linecap="butt" d="M581.45 85.416664L454.76666 85.416664L346.6778 70.28587" fill-rule="nonzero"/><path fill="#9e9e9e" d="M348.6778 70.28587C348.6778 69.181305 347.78235 68.28587 346.6778 68.28587C345.5732 68.28587 344.6778 69.181305 344.6778 70.28587C344.6778 71.39044 345.5732 72.28587 346.6778 72.28587C347.78235 72.28587 348.6778 71.39044 348.6778 70.28587" fill-rule="nonzero"/><path fill="#757575" d="M542.04376 138.91667L530.8719 138.91667L530.8719 137.35417L536.77814 130.79167Q538.09064 129.3073 538.59064 128.38542Q539.09064 127.44792 539.09064 126.44792Q539.09064 125.10417 538.27814 124.26042Q537.46564 123.40105 536.1219 123.40105Q534.4969 123.40105 533.60626 124.32292Q532.71564 125.2448 532.71564 126.88542L530.54376 126.88542Q530.54376 124.52605 532.0594 123.07292Q533.575 121.6198 536.1219 121.6198Q538.4969 121.6198 539.8719 122.8698Q541.2625 124.1198 541.2625 126.1823Q541.2625 128.71355 538.0594 132.1823L533.48126 137.15105L542.04376 137.15105L542.04376 138.91667ZM554.575 131.63542Q554.575 135.44792 553.2625 137.3073Q551.96564 139.15105 549.2 139.15105Q546.46564 139.15105 545.15314 137.33855Q543.84064 135.52605 543.79376 131.9323L543.79376 129.04167Q543.79376 125.27605 545.09064 123.44792Q546.40314 121.6198 549.1844 121.6198Q551.9344 121.6198 553.23126 123.38542Q554.52814 125.15105 554.575 128.82292L554.575 131.63542ZM552.40314 128.66667Q552.40314 125.91667 551.6219 124.66667Q550.85626 123.40105 549.1844 123.40105Q547.5125 123.40105 546.7469 124.65105Q545.9969 125.90105 545.96564 128.51042L545.96564 131.97917Q545.96564 134.7448 546.7625 136.07292Q547.575 137.38542 549.2 137.38542Q550.8094 137.38542 551.59064 136.15105Q552.3719 134.90105 552.40314 132.22917L552.40314 128.66667ZM567.575 131.63542Q567.575 135.44792 566.2625 137.3073Q564.96564 139.15105 562.2 139.15105Q559.46564 139.15105 558.15314 137.33855Q556.84064 135.52605 556.79376 131.9323L556.79376 129.04167Q556.79376 125.27605 558.09064 123.44792Q559.40314 121.6198 562.1844 121.6198Q564.9344 121.6198 566.23126 123.38542Q567.52814 125.15105 567.575 128.82292L567.575 131.63542ZM565.40314 128.66667Q565.40314 125.91667 564.6219 124.66667Q563.85626 123.40105 562.1844 123.40105Q560.5125 123.40105 559.7469 124.65105Q558.9969 125.90105 558.96564 128.51042L558.96564 131.97917Q558.96564 134.7448 559.7625 136.07292Q560.575 137.38542 562.2 137.38542Q563.8094 137.38542 564.59064 136.15105Q565.3719 134.90105 565.40314 132.22917L565.40314 128.66667ZM578.1844 131.41667Q577.4969 132.22917 576.54376 132.72917Q575.60626 133.21355 574.48126 133.21355Q573.0125 133.21355 571.91876 132.4948Q570.825 131.76042 570.21564 130.44792Q569.6219 129.1198 569.6219 127.52605Q569.6219 125.8073 570.2625 124.44792Q570.91876 123.07292 572.10626 122.35417Q573.3094 121.6198 574.90314 121.6198Q577.4344 121.6198 578.8875 123.51042Q580.35626 125.40105 580.35626 128.66667L580.35626 129.3073Q580.35626 134.29167 578.3875 136.58855Q576.41876 138.8698 572.45 138.9323L572.02814 138.9323L572.02814 137.10417L572.48126 137.10417Q575.16876 137.0573 576.60626 135.69792Q578.04376 134.33855 578.1844 131.41667ZM574.84064 131.41667Q575.9344 131.41667 576.84064 130.7448Q577.7625 130.07292 578.1844 129.08855L578.1844 128.22917Q578.1844 126.08855 577.2625 124.76042Q576.34064 123.41667 574.91876 123.41667Q573.4969 123.41667 572.6219 124.52605Q571.7625 125.6198 571.7625 127.40105Q571.7625 129.15105 572.59064 130.29167Q573.4344 131.41667 574.84064 131.41667Z" fill-rule="nonzero"/><path fill="#9e9e9e" d="M536.02814 161.32292L537.65314 161.32292Q539.1844 161.3073 540.0594 160.52605Q540.95 159.72917 540.95 158.40105Q540.95 155.40105 537.95 155.40105Q536.54376 155.40105 535.7 156.21355Q534.8719 157.01042 534.8719 158.32292L532.7 158.32292Q532.7 156.3073 534.1844 154.96355Q535.66876 153.6198 537.95 153.6198Q540.3719 153.6198 541.73126 154.90105Q543.10626 156.16667 543.10626 158.44792Q543.10626 159.5573 542.3875 160.60417Q541.66876 161.65105 540.4344 162.16667Q541.84064 162.60417 542.60626 163.63542Q543.3719 164.66667 543.3719 166.15105Q543.3719 168.44792 541.8719 169.8073Q540.3719 171.15105 537.96564 171.15105Q535.5594 171.15105 534.0594 169.85417Q532.5594 168.54167 532.5594 166.41667L534.73126 166.41667Q534.73126 167.76042 535.60626 168.57292Q536.4969 169.38542 537.96564 169.38542Q539.54376 169.38542 540.3719 168.57292Q541.2 167.7448 541.2 166.19792Q541.2 164.71355 540.27814 163.91667Q539.3719 163.1198 537.65314 163.10417L536.02814 163.10417L536.02814 161.32292ZM546.1375 169.77605Q546.1375 169.21355 546.46564 168.83855Q546.8094 168.46355 547.46564 168.46355Q548.1375 168.46355 548.48126 168.83855Q548.84064 169.21355 548.84064 169.77605Q548.84064 170.32292 548.48126 170.6823Q548.1375 171.04167 547.46564 171.04167Q546.8094 171.04167 546.46564 170.6823Q546.1375 170.32292 546.1375 169.77605ZM560.3719 153.83855L560.3719 155.6823L559.98126 155.6823Q557.45 155.72917 555.95 157.1823Q554.45 158.63542 554.21564 161.27605Q555.5594 159.72917 557.8875 159.72917Q560.1219 159.72917 561.45 161.3073Q562.77814 162.8698 562.77814 165.35417Q562.77814 167.97917 561.34064 169.57292Q559.90314 171.15105 557.4969 171.15105Q555.04376 171.15105 553.5125 169.27605Q551.9969 167.38542 551.9969 164.41667L551.9969 163.58855Q551.9969 158.88542 553.9969 156.40105Q556.0125 153.90105 559.9969 153.83855L560.3719 153.83855ZM557.52814 161.52605Q556.41876 161.52605 555.48126 162.19792Q554.54376 162.8698 554.1844 163.8698L554.1844 164.66667Q554.1844 166.77605 555.1219 168.07292Q556.075 169.35417 557.4969 169.35417Q558.96564 169.35417 559.79376 168.27605Q560.6375 167.19792 560.6375 165.44792Q560.6375 163.69792 559.77814 162.6198Q558.9344 161.52605 557.52814 161.52605ZM564.6844 157.13542Q564.6844 155.60417 565.65314 154.60417Q566.6375 153.60417 568.16876 153.60417Q569.73126 153.60417 570.7 154.60417Q571.66876 155.60417 571.66876 157.19792L571.66876 158.04167Q571.66876 159.58855 570.6844 160.57292Q569.71564 161.54167 568.2 161.54167Q566.66876 161.54167 565.66876 160.57292Q564.6844 159.58855 564.6844 157.94792L564.6844 157.13542ZM566.29376 158.04167Q566.29376 158.94792 566.8094 159.54167Q567.325 160.13542 568.2 160.13542Q569.02814 160.13542 569.52814 159.5573Q570.04376 158.97917 570.04376 157.9948L570.04376 157.13542Q570.04376 156.21355 569.54376 155.6198Q569.04376 155.02605 568.16876 155.02605Q567.3094 155.02605 566.79376 155.6198Q566.29376 156.21355 566.29376 157.1823L566.29376 158.04167ZM572.9969 166.72917Q572.9969 165.19792 573.96564 164.21355Q574.95 163.21355 576.48126 163.21355Q578.0125 163.21355 578.9969 164.19792Q579.98126 165.1823 579.98126 166.8073L579.98126 167.65105Q579.98126 169.1823 578.9969 170.1823Q578.02814 171.16667 576.4969 171.16667Q574.98126 171.16667 573.98126 170.1823Q572.9969 169.19792 572.9969 167.57292L572.9969 166.72917ZM574.60626 167.65105Q574.60626 168.57292 575.1219 169.16667Q575.6375 169.76042 576.5125 169.76042Q577.35626 169.76042 577.85626 169.1823Q578.35626 168.58855 578.35626 167.60417L578.35626 166.72917Q578.35626 165.8073 577.84064 165.22917Q577.34064 164.63542 576.48126 164.63542Q575.65314 164.63542 575.1219 165.21355Q574.60626 165.79167 574.60626 166.77605L574.60626 167.65105ZM568.6844 169.6198L567.46564 168.85417L575.79376 155.51042L577.02814 156.29167L568.6844 169.6198Z" fill-rule="nonzero"/><path stroke="#757575" stroke-width="1.0" stroke-linecap="butt" d="M581.45 146.41667L454.76666 146.41667L399.93423 103.74911" fill-rule="nonzero"/><path fill="#9e9e9e" d="M401.93423 103.74911C401.93423 102.64454 401.0388 101.74911 399.93423 101.74911C398.82965 101.74911 397.93423 102.64454 397.93423 103.74911C397.93423 104.85368 398.82965 105.74911 399.93423 105.74911C401.0388 105.74911 401.93423 104.85368 401.93423 103.74911" fill-rule="nonzero"/><path fill="#757575" d="M542.04376 199.91667L530.8719 199.91667L530.8719 198.35417L536.77814 191.79167Q538.09064 190.3073 538.59064 189.38542Q539.09064 188.44792 539.09064 187.44792Q539.09064 186.10417 538.27814 185.26042Q537.46564 184.40105 536.1219 184.40105Q534.4969 184.40105 533.60626 185.32292Q532.71564 186.2448 532.71564 187.88542L530.54376 187.88542Q530.54376 185.52605 532.0594 184.07292Q533.575 182.6198 536.1219 182.6198Q538.4969 182.6198 539.8719 183.8698Q541.2625 185.1198 541.2625 187.1823Q541.2625 189.71355 538.0594 193.1823L533.48126 198.15105L542.04376 198.15105L542.04376 199.91667ZM554.575 192.63542Q554.575 196.44792 553.2625 198.3073Q551.96564 200.15105 549.2 200.15105Q546.46564 200.15105 545.15314 198.33855Q543.84064 196.52605 543.79376 192.9323L543.79376 190.04167Q543.79376 186.27605 545.09064 184.44792Q546.40314 182.6198 549.1844 182.6198Q551.9344 182.6198 553.23126 184.38542Q554.52814 186.15105 554.575 189.82292L554.575 192.63542ZM552.40314 189.66667Q552.40314 186.91667 551.6219 185.66667Q550.85626 184.40105 549.1844 184.40105Q547.5125 184.40105 546.7469 185.65105Q545.9969 186.90105 545.96564 189.51042L545.96564 192.97917Q545.96564 195.7448 546.7625 197.07292Q547.575 198.38542 549.2 198.38542Q550.8094 198.38542 551.59064 197.15105Q552.3719 195.90105 552.40314 193.22917L552.40314 189.66667ZM563.9969 199.91667L561.8094 199.91667L561.8094 185.46355L557.45 187.07292L557.45 185.10417L563.65314 182.77605L563.9969 182.77605L563.9969 199.91667ZM573.02814 190.32292L574.65314 190.32292Q576.1844 190.3073 577.0594 189.52605Q577.95 188.72917 577.95 187.40105Q577.95 184.40105 574.95 184.40105Q573.54376 184.40105 572.7 185.21355Q571.8719 186.01042 571.8719 187.32292L569.7 187.32292Q569.7 185.3073 571.1844 183.96355Q572.66876 182.6198 574.95 182.6198Q577.3719 182.6198 578.73126 183.90105Q580.10626 185.16667 580.10626 187.44792Q580.10626 188.5573 579.3875 189.60417Q578.66876 190.65105 577.4344 191.16667Q578.84064 191.60417 579.60626 192.63542Q580.3719 193.66667 580.3719 195.15105Q580.3719 197.44792 578.8719 198.8073Q577.3719 200.15105 574.96564 200.15105Q572.5594 200.15105 571.0594 198.85417Q569.5594 197.54167 569.5594 195.41667L571.73126 195.41667Q571.73126 196.76042 572.60626 197.57292Q573.4969 198.38542 574.96564 198.38542Q576.54376 198.38542 577.3719 197.57292Q578.2 196.7448 578.2 195.19792Q578.2 193.71355 577.27814 192.91667Q576.3719 192.1198 574.65314 192.10417L573.02814 192.10417L573.02814 190.32292Z" fill-rule="nonzero"/><path fill="#9e9e9e" d="M531.04376 231.91667L519.8719 231.91667L519.8719 230.35417L525.77814 223.79167Q527.09064 222.3073 527.59064 221.38542Q528.09064 220.44792 528.09064 219.44792Q528.09064 218.10417 527.27814 217.26042Q526.46564 216.40105 525.1219 216.40105Q523.4969 216.40105 522.60626 217.32292Q521.71564 218.2448 521.71564 219.88542L519.54376 219.88542Q519.54376 217.52605 521.0594 216.07292Q522.575 214.6198 525.1219 214.6198Q527.4969 214.6198 528.8719 215.8698Q530.2625 217.1198 530.2625 219.1823Q530.2625 221.71355 527.0594 225.1823L522.48126 230.15105L531.04376 230.15105L531.04376 231.91667ZM539.9969 231.91667L537.8094 231.91667L537.8094 217.46355L533.45 219.07292L533.45 217.10417L539.65314 214.77605L539.9969 214.77605L539.9969 231.91667ZM546.1375 230.77605Q546.1375 230.21355 546.46564 229.83855Q546.8094 229.46355 547.46564 229.46355Q548.1375 229.46355 548.48126 229.83855Q548.84064 230.21355 548.84064 230.77605Q548.84064 231.32292 548.48126 231.6823Q548.1375 232.04167 547.46564 232.04167Q546.8094 232.04167 546.46564 231.6823Q546.1375 231.32292 546.1375 230.77605ZM561.02814 226.1823L563.3875 226.1823L563.3875 227.94792L561.02814 227.94792L561.02814 231.91667L558.84064 231.91667L558.84064 227.94792L551.075 227.94792L551.075 226.6823L558.71564 214.85417L561.02814 214.85417L561.02814 226.1823ZM553.52814 226.1823L558.84064 226.1823L558.84064 217.82292L558.59064 218.29167L553.52814 226.1823ZM564.6844 218.13542Q564.6844 216.60417 565.65314 215.60417Q566.6375 214.60417 568.16876 214.60417Q569.73126 214.60417 570.7 215.60417Q571.66876 216.60417 571.66876 218.19792L571.66876 219.04167Q571.66876 220.58855 570.6844 221.57292Q569.71564 222.54167 568.2 222.54167Q566.66876 222.54167 565.66876 221.57292Q564.6844 220.58855 564.6844 218.94792L564.6844 218.13542ZM566.29376 219.04167Q566.29376 219.94792 566.8094 220.54167Q567.325 221.13542 568.2 221.13542Q569.02814 221.13542 569.52814 220.5573Q570.04376 219.97917 570.04376 218.9948L570.04376 218.13542Q570.04376 217.21355 569.54376 216.6198Q569.04376 216.02605 568.16876 216.02605Q567.3094 216.02605 566.79376 216.6198Q566.29376 217.21355 566.29376 218.1823L566.29376 219.04167ZM572.9969 227.72917Q572.9969 226.19792 573.96564 225.21355Q574.95 224.21355 576.48126 224.21355Q578.0125 224.21355 578.9969 225.19792Q579.98126 226.1823 579.98126 227.8073L579.98126 228.65105Q579.98126 230.1823 578.9969 231.1823Q578.02814 232.16667 576.4969 232.16667Q574.98126 232.16667 573.98126 231.1823Q572.9969 230.19792 572.9969 228.57292L572.9969 227.72917ZM574.60626 228.65105Q574.60626 229.57292 575.1219 230.16667Q575.6375 230.76042 576.5125 230.76042Q577.35626 230.76042 577.85626 230.1823Q578.35626 229.58855 578.35626 228.60417L578.35626 227.72917Q578.35626 226.8073 577.84064 226.22917Q577.34064 225.63542 576.48126 225.63542Q575.65314 225.63542 575.1219 226.21355Q574.60626 226.79167 574.60626 227.77605L574.60626 228.65105ZM568.6844 230.6198L567.46564 229.85417L575.79376 216.51042L577.02814 217.29167L568.6844 230.6198Z" fill-rule="nonzero"/><path stroke="#757575" stroke-width="1.0" stroke-linecap="butt" d="M581.45 207.41667L454.76666 207.41667L441.32834 203.68333" fill-rule="nonzero"/><path fill="#9e9e9e" d="M443.32834 203.68333C443.32834 202.57877 442.4329 201.68333 441.32834 201.68333C440.22375 201.68333 439.32834 202.57877 439.32834 203.68333C439.32834 204.7879 440.22375 205.68333 441.32834 205.68333C442.4329 205.68333 443.32834 204.7879 443.32834 203.68333" fill-rule="nonzero"/><path fill="#757575" d="M21.596874 37.940624Q25.659374 37.8625 28.003124 36.690624Q26.83125 35.675 25.1125 34.89375Q23.628124 35.909374 22.221874 36.45625L21.51875 35.128124Q24.565624 34.1125 26.440624 31.221874L21.596874 31.221874L21.596874 33.253124L20.034374 33.253124L20.034374 29.971874L36.909374 29.971874L36.909374 33.096874L35.346874 33.096874L35.346874 31.221874L28.08125 31.221874L27.3 32.39375L32.6125 32.39375L33.003124 32.003124L34.253124 32.940624Q34.565624 33.33125 33.940624 33.4875Q30.190624 38.878124 22.14375 39.503124L21.596874 37.940624ZM26.440624 33.64375L26.05 34.034374Q28.159374 34.815624 29.4875 35.83125Q31.20625 34.7375 31.83125 33.64375L26.440624 33.64375ZM34.8 29.034374L22.221874 29.034374L22.221874 25.128124L24.95625 25.128124L24.95625 24.034374L20.034374 24.034374L20.034374 22.784374L24.95625 22.784374L24.95625 21.221874L26.440624 21.221874Q27.065624 21.3 26.51875 21.690624L26.51875 22.784374L30.346874 22.784374L30.346874 21.221874L31.83125 21.221874Q32.45625 21.3 31.909374 21.690624L31.909374 22.784374L36.909374 22.784374L36.909374 24.034374L31.909374 24.034374L31.909374 25.128124L34.8 25.128124L34.8 29.034374ZM26.05 26.378124L23.784374 26.378124L23.784374 27.784374L26.05 27.784374L26.05 26.378124ZM27.378124 26.378124L27.378124 27.784374L29.565624 27.784374L29.565624 26.378124L27.378124 26.378124ZM33.2375 26.378124L30.89375 26.378124L30.89375 27.784374L33.2375 27.784374L33.2375 26.378124ZM30.346874 24.034374L26.51875 24.034374L26.51875 25.128124L30.346874 25.128124L30.346874 24.034374ZM44.253124 38.253124L42.45625 38.253124L42.45625 23.175L54.721874 23.175L54.721874 37.940624L52.925 37.940624L52.925 36.846874L44.253124 36.846874L44.253124 38.253124ZM52.925 29.1125L52.925 24.659374L44.253124 24.659374L44.253124 29.1125L52.925 29.1125ZM52.925 35.3625L52.925 30.596874L44.253124 30.596874L44.253124 35.3625L52.925 35.3625ZM73.08125 33.253124Q74.175 31.14375 74.40938 26.846874L71.75313 26.846874Q71.9875 31.14375 73.08125 33.253124ZM75.97188 26.846874Q75.81563 31.690624 74.09688 34.659374Q75.34688 36.221874 77.6125 37.39375L76.59688 39.1125Q74.09688 37.471874 73.08125 35.9875Q71.28438 38.01875 67.53438 39.503124L66.75313 37.940624Q70.81563 36.3 72.14375 34.58125Q70.81563 32.003124 70.65938 29.425Q70.19063 30.596874 69.72188 31.221874L68.39375 30.20625Q70.7375 26.76875 71.20625 21.690624L72.84688 22.08125Q73.31563 22.39375 72.6125 22.55Q72.37813 23.95625 71.9875 25.3625L77.3 25.3625L77.3 26.846874L75.97188 26.846874ZM68.70625 23.096874Q68.2375 24.26875 67.6125 25.05L66.3625 24.346874Q66.9875 23.33125 67.53438 22.003124L68.94063 22.70625Q69.25313 23.01875 68.70625 23.096874ZM63.70625 34.1125Q64.8 34.425 65.65938 34.815624Q66.28438 34.1125 66.675 32.70625L64.40938 32.70625Q64.09688 33.409374 63.70625 34.1125ZM62.6125 36.065624L61.3625 35.3625Q62.14375 34.190624 62.925 32.70625L59.95625 32.70625L59.95625 31.45625L63.39375 31.45625Q63.8625 30.440624 64.09688 29.7375L65.58125 30.128124Q65.89375 30.440624 65.34688 30.51875L64.87813 31.45625L69.33125 31.45625L69.33125 32.70625L68.15938 32.70625Q67.76875 34.26875 66.9875 35.3625Q67.69063 35.675 68.47188 36.14375L67.76875 37.39375Q66.90938 36.846874 66.20625 36.534374Q64.175 38.565624 60.7375 39.034374L60.190624 37.628124Q63.2375 37.315624 64.87813 35.909374Q64.01875 35.51875 63.159374 35.20625L62.6125 36.065624ZM64.175 21.378124L65.425 21.378124Q66.05 21.45625 65.50313 21.846874L65.50313 25.20625L69.4875 25.20625L69.4875 26.45625L66.20625 26.45625Q67.06563 27.471874 68.8625 28.409374L68.00313 29.7375Q66.675 28.95625 65.50313 27.55L65.50313 29.425L64.175 29.425L64.175 27.940624Q62.925 29.503124 60.7375 30.753124L59.721874 29.503124Q62.14375 28.253124 63.70625 26.45625L60.1125 26.45625L60.1125 25.20625L64.175 25.20625L64.175 21.378124ZM61.9875 24.971874Q61.440624 23.8 60.58125 22.940624L61.83125 22.159374Q62.76875 23.096874 63.2375 24.1125L61.9875 24.971874Z" fill-rule="nonzero"/><path fill="#757575" d="M85.20625 37.55L85.20625 23.33125L89.22188 23.33125Q91.06563 23.33125 92.4875 24.159374Q93.925 24.971874 94.69063 26.4875Q95.47188 28.003124 95.4875 29.95625L95.4875 30.8625Q95.4875 32.878124 94.70625 34.39375Q93.925 35.909374 92.4875 36.721874Q91.05 37.534374 89.14375 37.55L85.20625 37.55ZM87.08125 24.878124L87.08125 36.01875L89.05 36.01875Q91.22188 36.01875 92.425 34.675Q93.62813 33.315624 93.62813 30.83125L93.62813 30.003124Q93.62813 27.58125 92.4875 26.2375Q91.34688 24.89375 89.26875 24.878124L87.08125 24.878124ZM104.44063 37.55Q104.28438 37.2375 104.19063 36.440624Q102.925 37.753124 101.175 37.753124Q99.6125 37.753124 98.6125 36.8625Q97.6125 35.971874 97.6125 34.6125Q97.6125 32.971874 98.8625 32.065624Q100.12813 31.14375 102.39375 31.14375L104.15938 31.14375L104.15938 30.315624Q104.15938 29.3625 103.58125 28.8Q103.01875 28.2375 101.925 28.2375Q100.95625 28.2375 100.3 28.7375Q99.64375 29.221874 99.64375 29.909374L97.83125 29.909374Q97.83125 29.128124 98.39375 28.39375Q98.95625 27.64375 99.90938 27.221874Q100.87813 26.784374 102.03438 26.784374Q103.8625 26.784374 104.89375 27.70625Q105.925 28.6125 105.97188 30.221874L105.97188 35.08125Q105.97188 36.534374 106.33125 37.39375L106.33125 37.55L104.44063 37.55ZM101.44063 36.175Q102.3 36.175 103.05 35.7375Q103.81563 35.3 104.15938 34.596874L104.15938 32.425L102.7375 32.425Q99.425 32.425 99.425 34.3625Q99.425 35.221874 99.9875 35.70625Q100.55 36.175 101.44063 36.175ZM112.37813 34.909374L114.83125 26.9875L116.76875 26.9875L112.51875 39.175Q111.53438 41.815624 109.39375 41.815624L109.05 41.784374L108.37813 41.659374L108.37813 40.190624L108.8625 40.2375Q109.78438 40.2375 110.28438 39.8625Q110.8 39.4875 111.12813 38.503124L111.53438 37.425L107.76875 26.9875L109.7375 26.9875L112.37813 34.909374ZM124.06563 34.753124Q124.06563 34.01875 123.51875 33.6125Q122.97188 33.20625 121.59688 32.909374Q120.22188 32.6125 119.40938 32.20625Q118.6125 31.8 118.22188 31.2375Q117.84688 30.659374 117.84688 29.878124Q117.84688 28.58125 118.94063 27.690624Q120.03438 26.784374 121.75313 26.784374Q123.55 26.784374 124.65938 27.721874Q125.78438 28.64375 125.78438 30.08125L123.95625 30.08125Q123.95625 29.346874 123.33125 28.815624Q122.70625 28.26875 121.75313 28.26875Q120.75313 28.26875 120.19063 28.70625Q119.64375 29.128124 119.64375 29.83125Q119.64375 30.471874 120.15938 30.815624Q120.675 31.14375 122.03438 31.45625Q123.39375 31.753124 124.22188 32.175Q125.06563 32.58125 125.47188 33.175Q125.87813 33.76875 125.87813 34.6125Q125.87813 36.034374 124.7375 36.89375Q123.6125 37.753124 121.8 37.753124Q120.53438 37.753124 119.55 37.3Q118.58125 36.846874 118.01875 36.05Q117.47188 35.2375 117.47188 34.3L119.28438 34.3Q119.33125 35.20625 120.00313 35.7375Q120.69063 36.26875 121.8 36.26875Q122.83125 36.26875 123.44063 35.8625Q124.06563 35.440624 124.06563 34.753124ZM135.3625 24.425L135.3625 26.9875L137.34688 26.9875L137.34688 28.378124L135.3625 28.378124L135.3625 34.925Q135.3625 35.565624 135.62813 35.89375Q135.89375 36.20625 136.53438 36.20625Q136.84688 36.20625 137.39375 36.08125L137.39375 37.55Q136.675 37.753124 136.00313 37.753124Q134.8 37.753124 134.175 37.01875Q133.56563 36.284374 133.56563 34.925L133.56563 28.378124L131.64375 28.378124L131.64375 26.9875L133.56563 26.9875L133.56563 24.425L135.3625 24.425ZM139.44063 32.175Q139.44063 30.6125 140.05 29.378124Q140.65938 28.128124 141.7375 27.45625Q142.83125 26.784374 144.2375 26.784374Q146.39375 26.784374 147.72188 28.284374Q149.06563 29.76875 149.06563 32.253124L149.06563 32.378124Q149.06563 33.925 148.47188 35.159374Q147.87813 36.378124 146.76875 37.065624Q145.675 37.753124 144.25313 37.753124Q142.1125 37.753124 140.76875 36.253124Q139.44063 34.753124 139.44063 32.3L139.44063 32.175ZM141.25313 32.378124Q141.25313 34.14375 142.06563 35.20625Q142.89375 36.26875 144.25313 36.26875Q145.62813 36.26875 146.44063 35.190624Q147.25313 34.1125 147.25313 32.175Q147.25313 30.425 146.425 29.346874Q145.59688 28.26875 144.2375 28.26875Q142.89375 28.26875 142.06563 29.33125Q141.25313 30.39375 141.25313 32.378124ZM155.47188 32.175Q155.47188 29.753124 156.62813 28.26875Q157.78438 26.784374 159.64375 26.784374Q161.50313 26.784374 162.58125 28.05L162.58125 22.55L164.39375 22.55L164.39375 37.55L162.7375 37.55L162.64375 36.409374Q161.56563 37.753124 159.62813 37.753124Q157.8 37.753124 156.62813 36.253124Q155.47188 34.7375 155.47188 32.315624L155.47188 32.175ZM157.28438 32.378124Q157.28438 34.175 158.01875 35.190624Q158.76875 36.20625 160.08125 36.20625Q161.8 36.20625 162.58125 34.675L162.58125 29.815624Q161.78438 28.315624 160.09688 28.315624Q158.76875 28.315624 158.01875 29.346874Q157.28438 30.378124 157.28438 32.378124ZM172.01875 28.596874Q171.6125 28.534374 171.14375 28.534374Q169.3625 28.534374 168.72188 30.05L168.72188 37.55L166.925 37.55L166.925 26.9875L168.675 26.9875L168.70625 28.20625Q169.59688 26.784374 171.22188 26.784374Q171.75313 26.784374 172.01875 26.925L172.01875 28.596874ZM178.3 37.753124Q176.15938 37.753124 174.8 36.346874Q173.45625 34.925 173.45625 32.565624L173.45625 32.221874Q173.45625 30.659374 174.05 29.425Q174.65938 28.190624 175.7375 27.4875Q176.81563 26.784374 178.08125 26.784374Q180.14375 26.784374 181.28438 28.14375Q182.425 29.503124 182.425 32.034374L182.425 32.784374L175.26875 32.784374Q175.3 34.346874 176.175 35.315624Q177.05 36.26875 178.39375 36.26875Q179.3625 36.26875 180.01875 35.878124Q180.69063 35.4875 181.19063 34.846874L182.28438 35.70625Q180.95625 37.753124 178.3 37.753124ZM178.08125 28.26875Q176.9875 28.26875 176.2375 29.065624Q175.50313 29.8625 175.33125 31.3L180.6125 31.3L180.6125 31.159374Q180.53438 29.784374 179.8625 29.034374Q179.20625 28.26875 178.08125 28.26875ZM191.44063 37.55Q191.28438 37.2375 191.19063 36.440624Q189.925 37.753124 188.175 37.753124Q186.6125 37.753124 185.6125 36.8625Q184.6125 35.971874 184.6125 34.6125Q184.6125 32.971874 185.8625 32.065624Q187.12813 31.14375 189.39375 31.14375L191.15938 31.14375L191.15938 30.315624Q191.15938 29.3625 190.58125 28.8Q190.01875 28.2375 188.925 28.2375Q187.95625 28.2375 187.3 28.7375Q186.64375 29.221874 186.64375 29.909374L184.83125 29.909374Q184.83125 29.128124 185.39375 28.39375Q185.95625 27.64375 186.90938 27.221874Q187.87813 26.784374 189.03438 26.784374Q190.8625 26.784374 191.89375 27.70625Q192.925 28.6125 192.97188 30.221874L192.97188 35.08125Q192.97188 36.534374 193.33125 37.39375L193.33125 37.55L191.44063 37.55ZM188.44063 36.175Q189.3 36.175 190.05 35.7375Q190.81563 35.3 191.15938 34.596874L191.15938 32.425L189.7375 32.425Q186.425 32.425 186.425 34.3625Q186.425 35.221874 186.9875 35.70625Q187.55 36.175 188.44063 36.175ZM197.6125 26.9875L197.65938 28.159374Q198.83125 26.784374 200.8 26.784374Q203.01875 26.784374 203.81563 28.4875Q204.34688 27.721874 205.19063 27.253124Q206.03438 26.784374 207.19063 26.784374Q210.65938 26.784374 210.72188 30.471874L210.72188 37.55L208.90938 37.55L208.90938 30.58125Q208.90938 29.440624 208.39375 28.878124Q207.87813 28.315624 206.65938 28.315624Q205.65938 28.315624 204.9875 28.925Q204.33125 29.51875 204.22188 30.534374L204.22188 37.55L202.40938 37.55L202.40938 30.628124Q202.40938 28.315624 200.14375 28.315624Q198.3625 28.315624 197.72188 29.83125L197.72188 37.55L195.90938 37.55L195.90938 26.9875L197.6125 26.9875ZM218.84688 31.784374Q218.84688 29.565624 219.44063 27.534374Q220.03438 25.503124 221.20625 23.846874Q222.37813 22.190624 223.62813 21.503124L224.00313 22.690624Q222.58125 23.784374 221.65938 26.034374Q220.75313 28.284374 220.65938 31.065624L220.65938 31.89375Q220.65938 35.659374 222.03438 38.440624Q222.8625 40.096874 224.00313 41.034374L223.62813 42.14375Q222.33125 41.425 221.15938 39.721874Q218.84688 36.39375 218.84688 31.784374ZM235.05 37.55L225.7375 37.55L225.7375 36.253124L230.65938 30.784374Q231.75313 29.534374 232.15938 28.76875Q232.58125 27.9875 232.58125 27.159374Q232.58125 26.05 231.90938 25.33125Q231.2375 24.6125 230.1125 24.6125Q228.75313 24.6125 228.00313 25.39375Q227.26875 26.159374 227.26875 27.51875L225.45625 27.51875Q225.45625 25.55 226.72188 24.346874Q227.9875 23.128124 230.1125 23.128124Q232.09688 23.128124 233.2375 24.175Q234.39375 25.221874 234.39375 26.940624Q234.39375 29.05 231.72188 31.940624L227.90938 36.08125L235.05 36.08125L235.05 37.55ZM245.64375 31.4875Q245.64375 34.659374 244.56563 36.20625Q243.4875 37.753124 241.175 37.753124Q238.89375 37.753124 237.8 36.2375Q236.70625 34.721874 236.675 31.721874L236.675 29.315624Q236.675 26.175 237.75313 24.659374Q238.84688 23.128124 241.15938 23.128124Q243.45625 23.128124 244.53438 24.6125Q245.6125 26.08125 245.64375 29.14375L245.64375 31.4875ZM243.84688 29.01875Q243.84688 26.721874 243.19063 25.675Q242.55 24.6125 241.15938 24.6125Q239.76875 24.6125 239.12813 25.659374Q238.50313 26.70625 238.4875 28.878124L238.4875 31.76875Q238.4875 34.065624 239.14375 35.175Q239.81563 36.26875 241.175 36.26875Q242.51875 36.26875 243.15938 35.2375Q243.81563 34.20625 243.84688 31.971874L243.84688 29.01875ZM256.64374 31.4875Q256.64374 34.659374 255.56563 36.20625Q254.4875 37.753124 252.175 37.753124Q249.89375 37.753124 248.8 36.2375Q247.70625 34.721874 247.675 31.721874L247.675 29.315624Q247.675 26.175 248.75313 24.659374Q249.84688 23.128124 252.15938 23.128124Q254.45625 23.128124 255.53438 24.6125Q256.6125 26.08125 256.64374 29.14375L256.64374 31.4875ZM254.84688 29.01875Q254.84688 26.721874 254.19063 25.675Q253.55 24.6125 252.15938 24.6125Q250.76875 24.6125 250.12813 25.659374Q249.50313 26.70625 249.4875 28.878124L249.4875 31.76875Q249.4875 34.065624 250.14375 35.175Q250.81563 36.26875 252.175 36.26875Q253.51875 36.26875 254.15938 35.2375Q254.81563 34.20625 254.84688 31.971874L254.84688 29.01875ZM267.90936 24.346874L262.01874 37.55L260.1281 37.55L266.0031 24.815624L258.3 24.815624L258.3 23.33125L267.90936 23.33125L267.90936 24.346874ZM273.675 32.253124L268.90936 32.253124L268.90936 30.76875L273.675 30.76875L273.675 32.253124ZM285.05 37.55L275.7375 37.55L275.7375 36.253124L280.65936 30.784374Q281.7531 29.534374 282.15936 28.76875Q282.58124 27.9875 282.58124 27.159374Q282.58124 26.05 281.90936 25.33125Q281.2375 24.6125 280.1125 24.6125Q278.7531 24.6125 278.0031 25.39375Q277.26874 26.159374 277.26874 27.51875L275.45624 27.51875Q275.45624 25.55 276.72186 24.346874Q277.9875 23.128124 280.1125 23.128124Q282.09686 23.128124 283.2375 24.175Q284.39374 25.221874 284.39374 26.940624Q284.39374 29.05 281.72186 31.940624L277.90936 36.08125L285.05 36.08125L285.05 37.55ZM295.64374 31.4875Q295.64374 34.659374 294.5656 36.20625Q293.4875 37.753124 291.175 37.753124Q288.89374 37.753124 287.8 36.2375Q286.70624 34.721874 286.675 31.721874L286.675 29.315624Q286.675 26.175 287.7531 24.659374Q288.84686 23.128124 291.15936 23.128124Q293.45624 23.128124 294.53436 24.6125Q295.6125 26.08125 295.64374 29.14375L295.64374 31.4875ZM293.84686 29.01875Q293.84686 26.721874 293.1906 25.675Q292.55 24.6125 291.15936 24.6125Q289.76874 24.6125 289.1281 25.659374Q288.5031 26.70625 288.4875 28.878124L288.4875 31.76875Q288.4875 34.065624 289.14374 35.175Q289.8156 36.26875 291.175 36.26875Q292.51874 36.26875 293.15936 35.2375Q293.8156 34.20625 293.84686 31.971874L293.84686 29.01875ZM303.675 37.55L301.84686 37.55L301.84686 25.503124L298.20624 26.846874L298.20624 25.20625L303.39374 23.26875L303.675 23.26875L303.675 37.55ZM309.5656 30.425L310.28436 23.33125L317.5656 23.33125L317.5656 25.003124L311.8156 25.003124L311.39374 28.878124Q312.4406 28.26875 313.76874 28.26875Q315.70624 28.26875 316.84686 29.55Q317.9875 30.83125 317.9875 33.01875Q317.9875 35.221874 316.8 36.4875Q315.6125 37.753124 313.4875 37.753124Q311.59686 37.753124 310.40936 36.70625Q309.22186 35.659374 309.05 33.815624L310.76874 33.815624Q310.925 35.034374 311.6281 35.659374Q312.33124 36.26875 313.4875 36.26875Q314.7531 36.26875 315.47186 35.409374Q316.1906 34.55 316.1906 33.034374Q316.1906 31.6125 315.40936 30.753124Q314.6281 29.878124 313.34686 29.878124Q312.15936 29.878124 311.4875 30.39375L311.0031 30.784374L309.5656 30.425ZM324.08124 31.878124Q324.08124 34.05 323.5031 36.05Q322.9406 38.05 321.76874 39.7375Q320.59686 41.425 319.3 42.14375L318.925 41.034374Q320.425 39.878124 321.33124 37.45625Q322.2531 35.034374 322.26874 32.065624L322.26874 31.753124Q322.26874 29.70625 321.83124 27.940624Q321.40936 26.175 320.64374 24.784374Q319.8781 23.39375 318.925 22.6125L319.3 21.503124Q320.59686 22.221874 321.7531 23.89375Q322.925 25.55 323.5031 27.565624Q324.08124 29.58125 324.08124 31.878124Z" fill-rule="nonzero"/></svg>