<svg version="1.1" viewBox="0.0 0.0 600.0 371.0" fill="none" stroke="none" stroke-linecap="square" stroke-miterlimit="10" width="600" height="371" xmlns:xlink="http://www.w3.org/1999/xlink" xmlns="http://www.w3.org/2000/svg"><path fill="#ffffff" d="M0 0L600.0 0L600.0 371.0L0 371.0L0 0Z" fill-rule="nonzero"/><path fill="#4285f4" d="M300.0 54.916668C301.16406 54.916668 302.32806 54.93033 303.49182 54.957653L301.7459 129.3205C301.16403 129.30682 300.58203 129.3 300.0 129.3Z" fill-rule="nonzero"/><path fill="#db4437" d="M303.49182 54.957653C303.87973 54.96676 304.2676 54.977383 304.65543 54.989525L302.3277 129.33643C302.1338 129.33035 301.93985 129.32504 301.7459 129.3205Z" fill-rule="nonzero"/><path fill="#f4b400" d="M304.65543 54.989525C306.98248 55.062386 309.3075 55.189857 311.62857 55.371845L305.8143 129.52759C304.65375 129.4366 303.49124 129.37286 302.3277 129.33643Z" fill-rule="nonzero"/><path fill="#0f9d58" d="M311.62857 55.371845C315.11038 55.644844 318.5815 56.040363 322.0355 56.55768L311.01773 130.1205C309.29074 129.86185 307.5552 129.6641 305.8143 129.52759Z" fill-rule="nonzero"/><path fill="#ff6d00" d="M322.0355 56.55768C325.48944 57.07499 328.92413 57.71377 332.33316 58.472836L316.16656 131.07808C314.46207 130.69855 312.74472 130.37917 311.01773 130.1205Z" fill-rule="nonzero"/><path fill="#46bdc6" d="M332.33316 58.472836C352.4786 62.958504 371.4703 71.58686 388.10074 83.80932L344.05038 143.74632C335.73514 137.6351 326.2393 133.32092 316.16656 131.07808Z" fill-rule="nonzero"/><path fill="#ab30c4" d="M388.10074 83.80932C397.49124 90.71081 406.03827 98.69181 413.566 107.58816L356.783 155.63574C353.01913 151.18758 348.74564 147.19707 344.05038 143.74632Z" fill-rule="nonzero"/><path fill="#c1bc1f" d="M413.566 107.58816C435.8425 133.9147 448.28052 167.16289 448.75272 201.64632L374.37637 202.66483C374.14026 185.42311 367.92126 168.79901 356.783 155.63574Z" fill-rule="nonzero"/><path fill="#3949ab" d="M448.75272 201.64632C449.26886 239.33638 435.45862 275.8172 410.11273 303.7169L355.05637 253.7001C367.7293 239.75026 374.63443 221.50986 374.37637 202.66483Z" fill-rule="nonzero"/><path fill="#00695c" d="M171.35873 278.40244C144.62935 232.3834 144.51825 175.59134 171.0674 129.46808C197.61653 83.34482 246.78146 54.916668 300.0 54.916668L300.0 129.3C273.39075 129.3 248.80826 143.51407 235.53369 166.5757C222.25912 189.63733 222.31468 218.03337 235.67937 241.0429Z" fill-rule="nonzero"/><path fill="#f975a8" d="M410.11273 303.7169C378.21564 338.82785 331.4865 356.62228 284.3146 351.6208C237.14268 346.61926 195.18396 319.4215 171.35873 278.40244L235.67937 241.0429C247.59198 261.55243 268.57135 275.1513 292.1573 277.65207C315.74326 280.1528 339.10782 271.25558 355.05637 253.7001Z" fill-rule="nonzero"/><path fill="#000000" d="M377.86136 161.73026Q377.86136 162.48026 377.47073 163.05838Q377.0801 163.6365 376.40823 163.96463Q377.18948 164.30838 377.6426 164.949Q378.09573 165.58963 378.09573 166.40213Q378.09573 167.699 377.22073 168.46463Q376.36136 169.23026 374.93948 169.23026Q373.50198 169.23026 372.62698 168.46463Q371.7676 167.68338 371.7676 166.40213Q371.7676 165.58963 372.2051 164.949Q372.6426 164.29276 373.42386 163.96463Q372.7676 163.6365 372.37698 163.05838Q372.00198 162.46463 372.00198 161.73026Q372.00198 160.48026 372.79886 159.74588Q373.61136 158.99588 374.93948 158.99588Q376.25198 158.99588 377.04886 159.74588Q377.86136 160.48026 377.86136 161.73026ZM376.8301 166.37088Q376.8301 165.54276 376.29886 165.02713Q375.7676 164.49588 374.90823 164.49588Q374.06448 164.49588 373.54886 165.0115Q373.03323 165.52713 373.03323 166.3865Q373.03323 167.23026 373.53323 167.71463Q374.03323 168.199 374.93948 168.199Q375.81448 168.199 376.31448 167.71463Q376.8301 167.21463 376.8301 166.37088ZM374.93948 160.04276Q374.18948 160.04276 373.72073 160.5115Q373.2676 160.96463 373.2676 161.7615Q373.2676 162.5115 373.72073 162.98026Q374.17386 163.449 374.92386 163.449Q375.68948 163.449 376.1426 162.98026Q376.59573 162.5115 376.59573 161.7615Q376.59573 160.99588 376.12698 160.52713Q375.65823 160.04276 374.93948 160.04276ZM385.86136 161.73026Q385.86136 162.48026 385.47073 163.05838Q385.0801 163.6365 384.40823 163.96463Q385.18948 164.30838 385.6426 164.949Q386.09573 165.58963 386.09573 166.40213Q386.09573 167.699 385.22073 168.46463Q384.36136 169.23026 382.93948 169.23026Q381.50198 169.23026 380.62698 168.46463Q379.7676 167.68338 379.7676 166.40213Q379.7676 165.58963 380.2051 164.949Q380.6426 164.29276 381.42386 163.96463Q380.7676 163.6365 380.37698 163.05838Q380.00198 162.46463 380.00198 161.73026Q380.00198 160.48026 380.79886 159.74588Q381.61136 158.99588 382.93948 158.99588Q384.25198 158.99588 385.04886 159.74588Q385.86136 160.48026 385.86136 161.73026ZM384.8301 166.37088Q384.8301 165.54276 384.29886 165.02713Q383.7676 164.49588 382.90823 164.49588Q382.06448 164.49588 381.54886 165.0115Q381.03323 165.52713 381.03323 166.3865Q381.03323 167.23026 381.53323 167.71463Q382.03323 168.199 382.93948 168.199Q383.81448 168.199 384.31448 167.71463Q384.8301 167.21463 384.8301 166.37088ZM382.93948 160.04276Q382.18948 160.04276 381.72073 160.5115Q381.2676 160.96463 381.2676 161.7615Q381.2676 162.5115 381.72073 162.98026Q382.17386 163.449 382.92386 163.449Q383.68948 163.449 384.1426 162.98026Q384.59573 162.5115 384.59573 161.7615Q384.59573 160.99588 384.12698 160.52713Q383.65823 160.04276 382.93948 160.04276ZM390.90823 165.04276Q390.90823 163.5115 391.31448 162.08963Q391.73636 160.66776 392.54886 159.5115Q393.37698 158.33963 394.2676 157.85526L394.5176 158.699Q393.5176 159.46463 392.87698 161.04276Q392.25198 162.60526 392.18948 164.54276L392.17386 165.1365Q392.17386 167.77713 393.1426 169.71463Q393.72073 170.87088 394.5176 171.52713L394.2676 172.30838Q393.34573 171.79276 392.5176 170.60526Q390.90823 168.27713 390.90823 165.04276ZM399.98636 169.08963L398.72073 169.08963L398.72073 160.66776L396.15823 161.58963L396.15823 160.449L399.78323 159.08963L399.98636 159.08963L399.98636 169.08963ZM407.98636 169.08963L406.72073 169.08963L406.72073 160.66776L404.15823 161.58963L404.15823 160.449L407.78323 159.08963L407.98636 159.08963L407.98636 169.08963ZM411.98636 168.43338Q411.98636 168.10526 412.17386 167.8865Q412.37698 167.66776 412.7676 167.66776Q413.15823 167.66776 413.36136 167.8865Q413.56448 168.10526 413.56448 168.43338Q413.56448 168.74588 413.36136 168.96463Q413.15823 169.16776 412.7676 169.16776Q412.37698 169.16776 412.17386 168.96463Q411.98636 168.74588 411.98636 168.43338ZM422.06448 164.83963Q422.06448 167.05838 421.29886 168.15213Q420.54886 169.23026 418.93948 169.23026Q417.34573 169.23026 416.5801 168.18338Q415.81448 167.12088 415.78323 165.0115L415.78323 163.324Q415.78323 161.1365 416.53323 160.074Q417.29886 158.99588 418.92386 158.99588Q420.53323 158.99588 421.28323 160.02713Q422.04886 161.05838 422.06448 163.199L422.06448 164.83963ZM420.79886 163.12088Q420.79886 161.5115 420.34573 160.77713Q419.90823 160.04276 418.92386 160.04276Q417.9551 160.04276 417.50198 160.77713Q417.06448 161.49588 417.04886 163.0115L417.04886 165.04276Q417.04886 166.65213 417.5176 167.43338Q417.98636 168.199 418.93948 168.199Q419.87698 168.199 420.3301 167.48026Q420.78323 166.74588 420.79886 165.18338L420.79886 163.12088ZM423.72073 161.04276Q423.72073 160.15213 424.28323 159.574Q424.86136 158.99588 425.75198 158.99588Q426.67386 158.99588 427.23636 159.58963Q427.79886 160.16776 427.79886 161.08963L427.79886 161.574Q427.79886 162.48026 427.22073 163.05838Q426.65823 163.62088 425.7676 163.62088Q424.87698 163.62088 424.29886 163.05838Q423.72073 162.48026 423.72073 161.52713L423.72073 161.04276ZM424.65823 161.574Q424.65823 162.10526 424.9551 162.449Q425.2676 162.79276 425.7676 162.79276Q426.25198 162.79276 426.54886 162.46463Q426.84573 162.1365 426.84573 161.54276L426.84573 161.04276Q426.84573 160.5115 426.54886 160.16776Q426.2676 159.824 425.75198 159.824Q425.25198 159.824 424.9551 160.16776Q424.65823 160.5115 424.65823 161.074L424.65823 161.574ZM428.56448 166.65213Q428.56448 165.74588 429.12698 165.18338Q429.7051 164.60526 430.59573 164.60526Q431.50198 164.60526 432.06448 165.18338Q432.6426 165.74588 432.6426 166.699L432.6426 167.18338Q432.6426 168.074 432.06448 168.65213Q431.50198 169.23026 430.61136 169.23026Q429.73636 169.23026 429.1426 168.66776Q428.56448 168.08963 428.56448 167.1365L428.56448 166.65213ZM429.5176 167.18338Q429.5176 167.71463 429.81448 168.074Q430.11136 168.41776 430.61136 168.41776Q431.11136 168.41776 431.40823 168.074Q431.7051 167.73026 431.7051 167.15213L431.7051 166.65213Q431.7051 166.10526 431.3926 165.7615Q431.09573 165.41776 430.61136 165.41776Q430.11136 165.41776 429.81448 165.7615Q429.5176 166.10526 429.5176 166.68338L429.5176 167.18338ZM426.06448 168.33963L425.34573 167.8865L430.2051 160.10526L430.92386 160.55838L426.06448 168.33963ZM436.87698 165.12088Q436.87698 166.6365 436.47073 168.04276Q436.0801 169.43338 435.25198 170.62088Q434.42386 171.80838 433.53323 172.30838L433.2676 171.52713Q434.31448 170.73026 434.9551 169.02713Q435.59573 167.324 435.61136 165.2615L435.61136 165.04276Q435.61136 163.60526 435.29886 162.37088Q435.00198 161.1365 434.47073 160.16776Q433.93948 159.18338 433.2676 158.6365L433.53323 157.85526Q434.42386 158.35526 435.23636 159.52713Q436.06448 160.699 436.47073 162.10526Q436.87698 163.5115 436.87698 165.12088Z" fill-rule="nonzero"/><path fill="#ffffff" d="M376.5201 243.31058Q376.1295 243.77933 375.567 244.0762Q375.0201 244.35745 374.36386 244.35745Q373.5045 244.35745 372.86386 243.93558Q372.22324 243.5137 371.8795 242.74808Q371.53574 241.96683 371.53574 241.04495Q371.53574 240.04495 371.91074 239.24808Q372.28574 238.43558 372.98886 238.0137Q373.692 237.59183 374.61386 237.59183Q376.09824 237.59183 376.942 238.7012Q377.80136 239.81058 377.80136 241.71683L377.80136 242.0762Q377.80136 244.98245 376.6451 246.3262Q375.5045 247.65433 373.17636 247.68558L372.92636 247.68558L372.92636 246.62308L373.2076 246.62308Q374.7701 246.59183 375.59824 245.81058Q376.442 245.0137 376.5201 243.31058ZM374.567 243.31058Q375.2076 243.31058 375.73886 242.91995Q376.28574 242.52933 376.53574 241.9512L376.53574 241.4512Q376.53574 240.2012 375.98886 239.43558Q375.442 238.65433 374.6295 238.65433Q373.78574 238.65433 373.2701 239.29495Q372.7701 239.91995 372.7701 240.96683Q372.7701 241.99808 373.2545 242.65433Q373.7545 243.31058 374.567 243.31058ZM384.6451 237.73245L384.6451 238.79495L384.41074 238.79495Q382.92636 238.8262 382.05136 239.66995Q381.17636 240.5137 381.03574 242.06058Q381.8326 241.15433 383.192 241.15433Q384.48886 241.15433 385.2545 242.0762Q386.03574 242.98245 386.03574 244.43558Q386.03574 245.98245 385.192 246.90433Q384.36386 247.8262 382.9576 247.8262Q381.53574 247.8262 380.6451 246.73245Q379.7545 245.62308 379.7545 243.90433L379.7545 243.41995Q379.7545 240.66995 380.92636 239.21683Q382.09824 237.7637 384.41074 237.73245L384.6451 237.73245ZM382.97324 242.21683Q382.3326 242.21683 381.78574 242.60745Q381.23886 242.98245 381.0201 243.5762L381.0201 244.04495Q381.0201 245.27933 381.567 246.02933Q382.1295 246.77933 382.9576 246.77933Q383.817 246.77933 384.30136 246.15433Q384.78574 245.5137 384.78574 244.49808Q384.78574 243.46683 384.28574 242.84183Q383.80136 242.21683 382.97324 242.21683ZM390.7545 243.6387Q390.7545 242.10745 391.16074 240.68558Q391.5826 239.2637 392.3951 238.10745Q393.22324 236.93558 394.11386 236.4512L394.36386 237.29495Q393.36386 238.06058 392.72324 239.6387Q392.09824 241.2012 392.03574 243.1387L392.0201 243.73245Q392.0201 246.37308 392.98886 248.31058Q393.567 249.46683 394.36386 250.12308L394.11386 250.90433Q393.192 250.3887 392.36386 249.2012Q390.7545 246.87308 390.7545 243.6387ZM399.8326 247.68558L398.567 247.68558L398.567 239.2637L396.0045 240.18558L396.0045 239.04495L399.6295 237.68558L399.8326 237.68558L399.8326 247.68558ZM410.192 247.68558L403.67636 247.68558L403.67636 246.77933L407.11386 242.9512Q407.8795 242.0762 408.17636 241.54495Q408.47324 240.99808 408.47324 240.40433Q408.47324 239.6387 407.98886 239.1387Q407.5201 238.6387 406.73886 238.6387Q405.80136 238.6387 405.2701 239.16995Q404.7545 239.7012 404.7545 240.66995L403.48886 240.66995Q403.48886 239.29495 404.36386 238.4512Q405.2545 237.59183 406.73886 237.59183Q408.1295 237.59183 408.92636 238.3262Q409.73886 239.04495 409.73886 240.2637Q409.73886 241.73245 407.86386 243.7637L405.2076 246.65433L410.192 246.65433L410.192 247.68558ZM411.8326 247.02933Q411.8326 246.7012 412.0201 246.48245Q412.22324 246.2637 412.61386 246.2637Q413.0045 246.2637 413.2076 246.48245Q413.41074 246.7012 413.41074 247.02933Q413.41074 247.34183 413.2076 247.56058Q413.0045 247.7637 412.61386 247.7637Q412.22324 247.7637 412.0201 247.56058Q411.8326 247.34183 411.8326 247.02933ZM421.91074 243.43558Q421.91074 245.65433 421.1451 246.74808Q420.3951 247.8262 418.78574 247.8262Q417.192 247.8262 416.42636 246.77933Q415.66074 245.71683 415.6295 243.60745L415.6295 241.91995Q415.6295 239.73245 416.3795 238.66995Q417.1451 237.59183 418.7701 237.59183Q420.3795 237.59183 421.1295 238.62308Q421.8951 239.65433 421.91074 241.79495L421.91074 243.43558ZM420.6451 241.71683Q420.6451 240.10745 420.192 239.37308Q419.7545 238.6387 418.7701 238.6387Q417.80136 238.6387 417.34824 239.37308Q416.91074 240.09183 416.8951 241.60745L416.8951 243.6387Q416.8951 245.24808 417.36386 246.02933Q417.8326 246.79495 418.78574 246.79495Q419.72324 246.79495 420.17636 246.0762Q420.6295 245.34183 420.6451 243.77933L420.6451 241.71683ZM423.567 239.6387Q423.567 238.74808 424.1295 238.16995Q424.7076 237.59183 425.59824 237.59183Q426.5201 237.59183 427.0826 238.18558Q427.6451 238.7637 427.6451 239.68558L427.6451 240.16995Q427.6451 241.0762 427.067 241.65433Q426.5045 242.21683 425.61386 242.21683Q424.72324 242.21683 424.1451 241.65433Q423.567 241.0762 423.567 240.12308L423.567 239.6387ZM424.5045 240.16995Q424.5045 240.7012 424.80136 241.04495Q425.11386 241.3887 425.61386 241.3887Q426.09824 241.3887 426.3951 241.06058Q426.692 240.73245 426.692 240.1387L426.692 239.6387Q426.692 239.10745 426.3951 238.7637Q426.11386 238.41995 425.59824 238.41995Q425.09824 238.41995 424.80136 238.7637Q424.5045 239.10745 424.5045 239.66995L424.5045 240.16995ZM428.41074 245.24808Q428.41074 244.34183 428.97324 243.77933Q429.55136 243.2012 430.442 243.2012Q431.34824 243.2012 431.91074 243.77933Q432.48886 244.34183 432.48886 245.29495L432.48886 245.77933Q432.48886 246.66995 431.91074 247.24808Q431.34824 247.8262 430.4576 247.8262Q429.5826 247.8262 428.98886 247.2637Q428.41074 246.68558 428.41074 245.73245L428.41074 245.24808ZM429.36386 245.77933Q429.36386 246.31058 429.66074 246.66995Q429.9576 247.0137 430.4576 247.0137Q430.9576 247.0137 431.2545 246.66995Q431.55136 246.3262 431.55136 245.74808L431.55136 245.24808Q431.55136 244.7012 431.23886 244.35745Q430.942 244.0137 430.4576 244.0137Q429.9576 244.0137 429.66074 244.35745Q429.36386 244.7012 429.36386 245.27933L429.36386 245.77933ZM425.91074 246.93558L425.192 246.48245L430.05136 238.7012L430.7701 239.15433L425.91074 246.93558ZM436.72324 243.71683Q436.72324 245.23245 436.317 246.6387Q435.92636 248.02933 435.09824 249.21683Q434.2701 250.40433 433.3795 250.90433L433.11386 250.12308Q434.16074 249.3262 434.80136 247.62308Q435.442 245.91995 435.4576 243.85745L435.4576 243.6387Q435.4576 242.2012 435.1451 240.96683Q434.84824 239.73245 434.317 238.7637Q433.78574 237.77933 433.11386 237.23245L433.3795 236.4512Q434.2701 236.9512 435.0826 238.12308Q435.91074 239.29495 436.317 240.7012Q436.72324 242.10745 436.72324 243.71683Z" fill-rule="nonzero"/><path fill="#000000" d="M258.0797 319.1364L251.56407 319.1364L251.56407 318.23016L255.00157 314.40204Q255.7672 313.52704 256.0641 312.9958Q256.36096 312.4489 256.36096 311.85516Q256.36096 311.08954 255.87657 310.58954Q255.40782 310.08954 254.62657 310.08954Q253.68907 310.08954 253.15782 310.6208Q252.6422 311.15204 252.6422 312.1208L251.37657 312.1208Q251.37657 310.7458 252.25157 309.90204Q253.1422 309.04266 254.62657 309.04266Q256.0172 309.04266 256.8141 309.77704Q257.6266 310.4958 257.6266 311.71454Q257.6266 313.1833 255.75157 315.21454L253.09532 318.10516L258.0797 318.10516L258.0797 319.1364ZM264.90784 315.79266L266.28284 315.79266L266.28284 316.8239L264.90784 316.8239L264.90784 319.1364L263.6266 319.1364L263.6266 316.8239L259.09534 316.8239L259.09534 316.0739L263.54846 309.1833L264.90784 309.1833L264.90784 315.79266ZM260.53284 315.79266L263.6266 315.79266L263.6266 310.91766L263.48596 311.1833L260.53284 315.79266ZM273.79846 314.8864Q273.79846 317.10516 273.03284 318.1989Q272.28284 319.27704 270.67346 319.27704Q269.0797 319.27704 268.3141 318.23016Q267.54846 317.16766 267.5172 315.0583L267.5172 313.3708Q267.5172 311.1833 268.2672 310.1208Q269.03284 309.04266 270.65784 309.04266Q272.2672 309.04266 273.0172 310.0739Q273.78284 311.10516 273.79846 313.2458L273.79846 314.8864ZM272.53284 313.16766Q272.53284 311.5583 272.0797 310.8239Q271.6422 310.08954 270.65784 310.08954Q269.6891 310.08954 269.23596 310.8239Q268.79846 311.54266 268.78284 313.0583L268.78284 315.08954Q268.78284 316.6989 269.2516 317.48016Q269.72034 318.2458 270.67346 318.2458Q271.61096 318.2458 272.0641 317.52704Q272.5172 316.79266 272.53284 315.23016L272.53284 313.16766ZM278.6422 315.08954Q278.6422 313.5583 279.04846 312.1364Q279.47034 310.71454 280.28284 309.5583Q281.11096 308.3864 282.0016 307.90204L282.2516 308.7458Q281.2516 309.5114 280.61096 311.08954Q279.98596 312.65204 279.92346 314.58954L279.90784 315.1833Q279.90784 317.8239 280.8766 319.7614Q281.4547 320.91766 282.2516 321.5739L282.0016 322.35516Q281.0797 321.83954 280.2516 320.65204Q278.6422 318.3239 278.6422 315.08954ZM290.0797 319.1364L283.5641 319.1364L283.5641 318.23016L287.0016 314.40204Q287.7672 313.52704 288.0641 312.9958Q288.36096 312.4489 288.36096 311.85516Q288.36096 311.08954 287.8766 310.58954Q287.40784 310.08954 286.6266 310.08954Q285.6891 310.08954 285.15784 310.6208Q284.6422 311.15204 284.6422 312.1208L283.3766 312.1208Q283.3766 310.7458 284.2516 309.90204Q285.1422 309.04266 286.6266 309.04266Q288.0172 309.04266 288.8141 309.77704Q289.6266 310.4958 289.6266 311.71454Q289.6266 313.1833 287.7516 315.21454L285.09534 318.10516L290.0797 318.10516L290.0797 319.1364ZM296.40784 314.7614Q296.0172 315.23016 295.4547 315.52704Q294.90784 315.8083 294.2516 315.8083Q293.3922 315.8083 292.7516 315.3864Q292.11096 314.96454 291.7672 314.1989Q291.42346 313.41766 291.42346 312.4958Q291.42346 311.4958 291.79846 310.6989Q292.17346 309.8864 292.8766 309.46454Q293.5797 309.04266 294.5016 309.04266Q295.98596 309.04266 296.8297 310.15204Q297.6891 311.2614 297.6891 313.16766L297.6891 313.52704Q297.6891 316.4333 296.53284 317.77704Q295.3922 319.10516 293.0641 319.1364L292.8141 319.1364L292.8141 318.0739L293.09534 318.0739Q294.65784 318.04266 295.48596 317.2614Q296.3297 316.46454 296.40784 314.7614ZM294.4547 314.7614Q295.09534 314.7614 295.6266 314.3708Q296.17346 313.98016 296.42346 313.40204L296.42346 312.90204Q296.42346 311.65204 295.8766 310.8864Q295.3297 310.10516 294.5172 310.10516Q293.67346 310.10516 293.15784 310.7458Q292.65784 311.3708 292.65784 312.41766Q292.65784 313.4489 293.1422 314.10516Q293.6422 314.7614 294.4547 314.7614ZM299.72034 318.48016Q299.72034 318.15204 299.90784 317.9333Q300.11096 317.71454 300.5016 317.71454Q300.8922 317.71454 301.09534 317.9333Q301.29846 318.15204 301.29846 318.48016Q301.29846 318.79266 301.09534 319.0114Q300.8922 319.21454 300.5016 319.21454Q300.11096 319.21454 299.90784 319.0114Q299.72034 318.79266 299.72034 318.48016ZM308.40784 314.7614Q308.0172 315.23016 307.4547 315.52704Q306.90784 315.8083 306.2516 315.8083Q305.3922 315.8083 304.7516 315.3864Q304.11096 314.96454 303.7672 314.1989Q303.42346 313.41766 303.42346 312.4958Q303.42346 311.4958 303.79846 310.6989Q304.17346 309.8864 304.8766 309.46454Q305.5797 309.04266 306.5016 309.04266Q307.98596 309.04266 308.8297 310.15204Q309.6891 311.2614 309.6891 313.16766L309.6891 313.52704Q309.6891 316.4333 308.53284 317.77704Q307.3922 319.10516 305.0641 319.1364L304.8141 319.1364L304.8141 318.0739L305.09534 318.0739Q306.65784 318.04266 307.48596 317.2614Q308.3297 316.46454 308.40784 314.7614ZM306.4547 314.7614Q307.09534 314.7614 307.6266 314.3708Q308.17346 313.98016 308.42346 313.40204L308.42346 312.90204Q308.42346 311.65204 307.8766 310.8864Q307.3297 310.10516 306.5172 310.10516Q305.67346 310.10516 305.15784 310.7458Q304.65784 311.3708 304.65784 312.41766Q304.65784 313.4489 305.1422 314.10516Q305.6422 314.7614 306.4547 314.7614ZM311.4547 311.08954Q311.4547 310.1989 312.0172 309.6208Q312.59534 309.04266 313.48596 309.04266Q314.40784 309.04266 314.97034 309.6364Q315.53284 310.21454 315.53284 311.1364L315.53284 311.6208Q315.53284 312.52704 314.9547 313.10516Q314.3922 313.66766 313.5016 313.66766Q312.61096 313.66766 312.03284 313.10516Q311.4547 312.52704 311.4547 311.5739L311.4547 311.08954ZM312.3922 311.6208Q312.3922 312.15204 312.6891 312.4958Q313.0016 312.83954 313.5016 312.83954Q313.98596 312.83954 314.28284 312.5114Q314.5797 312.1833 314.5797 311.58954L314.5797 311.08954Q314.5797 310.5583 314.28284 310.21454Q314.0016 309.8708 313.48596 309.8708Q312.98596 309.8708 312.6891 310.21454Q312.3922 310.5583 312.3922 311.1208L312.3922 311.6208ZM316.29846 316.6989Q316.29846 315.79266 316.86096 315.23016Q317.4391 314.65204 318.3297 314.65204Q319.23596 314.65204 319.79846 315.23016Q320.3766 315.79266 320.3766 316.7458L320.3766 317.23016Q320.3766 318.1208 319.79846 318.6989Q319.23596 319.27704 318.34534 319.27704Q317.47034 319.27704 316.8766 318.71454Q316.29846 318.1364 316.29846 317.1833L316.29846 316.6989ZM317.2516 317.23016Q317.2516 317.7614 317.54846 318.1208Q317.84534 318.46454 318.34534 318.46454Q318.84534 318.46454 319.1422 318.1208Q319.4391 317.77704 319.4391 317.1989L319.4391 316.6989Q319.4391 316.15204 319.1266 315.8083Q318.8297 315.46454 318.34534 315.46454Q317.84534 315.46454 317.54846 315.8083Q317.2516 316.15204 317.2516 316.73016L317.2516 317.23016ZM313.79846 318.3864L313.0797 317.9333L317.9391 310.15204L318.65784 310.60516L313.79846 318.3864ZM324.61096 315.16766Q324.61096 316.6833 324.2047 318.08954Q323.8141 319.48016 322.98596 320.66766Q322.15784 321.85516 321.2672 322.35516L321.0016 321.5739Q322.04846 320.77704 322.6891 319.0739Q323.3297 317.3708 323.34534 315.3083L323.34534 315.08954Q323.34534 313.65204 323.03284 312.41766Q322.73596 311.1833 322.2047 310.21454Q321.67346 309.23016 321.0016 308.6833L321.2672 307.90204Q322.15784 308.40204 322.97034 309.5739Q323.79846 310.7458 324.2047 312.15204Q324.61096 313.5583 324.61096 315.16766Z" fill-rule="nonzero"/><path fill="#ffffff" d="M173.1443 152.5219L166.62868 152.5219L166.62868 151.61565L170.06618 147.78752Q170.8318 146.91252 171.12868 146.38127Q171.42555 145.8344 171.42555 145.24065Q171.42555 144.47502 170.94118 143.97502Q170.47243 143.47502 169.69118 143.47502Q168.75368 143.47502 168.22243 144.00627Q167.7068 144.53752 167.7068 145.50627L166.44118 145.50627Q166.44118 144.13127 167.31618 143.28752Q168.2068 142.42815 169.69118 142.42815Q171.0818 142.42815 171.87868 143.16252Q172.69118 143.88127 172.69118 145.10002Q172.69118 146.56877 170.81618 148.60002L168.15993 151.49065L173.1443 151.49065L173.1443 152.5219ZM179.59743 142.56877L179.59743 143.63127L179.36305 143.63127Q177.87868 143.66252 177.00368 144.50627Q176.12868 145.35002 175.98805 146.8969Q176.78493 145.99065 178.1443 145.99065Q179.44118 145.99065 180.2068 146.91252Q180.98805 147.81877 180.98805 149.2719Q180.98805 150.81877 180.1443 151.74065Q179.31618 152.66252 177.90993 152.66252Q176.48805 152.66252 175.59743 151.56877Q174.7068 150.4594 174.7068 148.74065L174.7068 148.25627Q174.7068 145.50627 175.87868 144.05315Q177.05055 142.60002 179.36305 142.56877L179.59743 142.56877ZM177.92555 147.05315Q177.28493 147.05315 176.73805 147.44377Q176.19118 147.81877 175.97243 148.41252L175.97243 148.88127Q175.97243 150.11565 176.5193 150.86565Q177.0818 151.61565 177.90993 151.61565Q178.7693 151.61565 179.25368 150.99065Q179.73805 150.35002 179.73805 149.3344Q179.73805 148.30315 179.23805 147.67815Q178.75368 147.05315 177.92555 147.05315ZM188.65993 145.16252Q188.65993 145.91252 188.2693 146.49065Q187.87868 147.06877 187.2068 147.3969Q187.98805 147.74065 188.44118 148.38127Q188.8943 149.0219 188.8943 149.8344Q188.8943 151.13127 188.0193 151.8969Q187.15993 152.66252 185.73805 152.66252Q184.30055 152.66252 183.42555 151.8969Q182.56618 151.11565 182.56618 149.8344Q182.56618 149.0219 183.00368 148.38127Q183.44118 147.72502 184.22243 147.3969Q183.56618 147.06877 183.17555 146.49065Q182.80055 145.8969 182.80055 145.16252Q182.80055 143.91252 183.59743 143.17815Q184.40993 142.42815 185.73805 142.42815Q187.05055 142.42815 187.84743 143.17815Q188.65993 143.91252 188.65993 145.16252ZM187.62868 149.80315Q187.62868 148.97502 187.09743 148.4594Q186.56618 147.92815 185.7068 147.92815Q184.86305 147.92815 184.34743 148.44377Q183.8318 148.9594 183.8318 149.81877Q183.8318 150.66252 184.3318 151.1469Q184.8318 151.63127 185.73805 151.63127Q186.61305 151.63127 187.11305 151.1469Q187.62868 150.6469 187.62868 149.80315ZM185.73805 143.47502Q184.98805 143.47502 184.5193 143.94377Q184.06618 144.3969 184.06618 145.19377Q184.06618 145.94377 184.5193 146.41252Q184.97243 146.88127 185.72243 146.88127Q186.48805 146.88127 186.94118 146.41252Q187.3943 145.94377 187.3943 145.19377Q187.3943 144.42815 186.92555 143.9594Q186.4568 143.47502 185.73805 143.47502ZM193.7068 148.47502Q193.7068 146.94377 194.11305 145.5219Q194.53493 144.10002 195.34743 142.94377Q196.17555 141.7719 197.06618 141.28752L197.31618 142.13127Q196.31618 142.8969 195.67555 144.47502Q195.05055 146.03752 194.98805 147.97502L194.97243 148.56877Q194.97243 151.2094 195.94118 153.1469Q196.5193 154.30315 197.31618 154.9594L197.06618 155.74065Q196.1443 155.22502 195.31618 154.03752Q193.7068 151.7094 193.7068 148.47502ZM200.47243 146.92815L201.40993 146.92815Q202.31618 146.91252 202.81618 146.4594Q203.3318 146.00627 203.3318 145.22502Q203.3318 143.47502 201.59743 143.47502Q200.7693 143.47502 200.28493 143.94377Q199.80055 144.41252 199.80055 145.17815L198.53493 145.17815Q198.53493 143.99065 199.3943 143.2094Q200.2693 142.42815 201.59743 142.42815Q203.00368 142.42815 203.80055 143.17815Q204.59743 143.92815 204.59743 145.24065Q204.59743 145.8969 204.17555 146.50627Q203.7693 147.11565 203.03493 147.41252Q203.86305 147.67815 204.30055 148.28752Q204.75368 148.88127 204.75368 149.74065Q204.75368 151.0844 203.87868 151.88127Q203.00368 152.66252 201.59743 152.66252Q200.2068 152.66252 199.31618 151.91252Q198.44118 151.1469 198.44118 149.8969L199.72243 149.8969Q199.72243 150.67815 200.22243 151.16252Q200.73805 151.63127 201.59743 151.63127Q202.5193 151.63127 203.00368 151.1469Q203.48805 150.66252 203.48805 149.7719Q203.48805 148.91252 202.9568 148.44377Q202.42555 147.97502 201.40993 147.9594L200.47243 147.9594L200.47243 146.92815ZM208.47243 146.92815L209.40993 146.92815Q210.31618 146.91252 210.81618 146.4594Q211.3318 146.00627 211.3318 145.22502Q211.3318 143.47502 209.59743 143.47502Q208.7693 143.47502 208.28493 143.94377Q207.80055 144.41252 207.80055 145.17815L206.53493 145.17815Q206.53493 143.99065 207.3943 143.2094Q208.2693 142.42815 209.59743 142.42815Q211.00368 142.42815 211.80055 143.17815Q212.59743 143.92815 212.59743 145.24065Q212.59743 145.8969 212.17555 146.50627Q211.7693 147.11565 211.03493 147.41252Q211.86305 147.67815 212.30055 148.28752Q212.75368 148.88127 212.75368 149.74065Q212.75368 151.0844 211.87868 151.88127Q211.00368 152.66252 209.59743 152.66252Q208.2068 152.66252 207.31618 151.91252Q206.44118 151.1469 206.44118 149.8969L207.72243 149.8969Q207.72243 150.67815 208.22243 151.16252Q208.73805 151.63127 209.59743 151.63127Q210.5193 151.63127 211.00368 151.1469Q211.48805 150.66252 211.48805 149.7719Q211.48805 148.91252 210.9568 148.44377Q210.42555 147.97502 209.40993 147.9594L208.47243 147.9594L208.47243 146.92815ZM214.78493 151.86565Q214.78493 151.53752 214.97243 151.31877Q215.17555 151.10002 215.56618 151.10002Q215.9568 151.10002 216.15993 151.31877Q216.36305 151.53752 216.36305 151.86565Q216.36305 152.17815 216.15993 152.3969Q215.9568 152.60002 215.56618 152.60002Q215.17555 152.60002 214.97243 152.3969Q214.78493 152.17815 214.78493 151.86565ZM223.97243 149.17815L225.34743 149.17815L225.34743 150.2094L223.97243 150.2094L223.97243 152.5219L222.69118 152.5219L222.69118 150.2094L218.15993 150.2094L218.15993 149.4594L222.61305 142.56877L223.97243 142.56877L223.97243 149.17815ZM219.59743 149.17815L222.69118 149.17815L222.69118 144.30315L222.55055 144.56877L219.59743 149.17815ZM226.5193 144.47502Q226.5193 143.5844 227.0818 143.00627Q227.65993 142.42815 228.55055 142.42815Q229.47243 142.42815 230.03493 143.0219Q230.59743 143.60002 230.59743 144.5219L230.59743 145.00627Q230.59743 145.91252 230.0193 146.49065Q229.4568 147.05315 228.56618 147.05315Q227.67555 147.05315 227.09743 146.49065Q226.5193 145.91252 226.5193 144.9594L226.5193 144.47502ZM227.4568 145.00627Q227.4568 145.53752 227.75368 145.88127Q228.06618 146.22502 228.56618 146.22502Q229.05055 146.22502 229.34743 145.8969Q229.6443 145.56877 229.6443 144.97502L229.6443 144.47502Q229.6443 143.94377 229.34743 143.60002Q229.06618 143.25627 228.55055 143.25627Q228.05055 143.25627 227.75368 143.60002Q227.4568 143.94377 227.4568 144.50627L227.4568 145.00627ZM231.36305 150.0844Q231.36305 149.17815 231.92555 148.61565Q232.50368 148.03752 233.3943 148.03752Q234.30055 148.03752 234.86305 148.61565Q235.44118 149.17815 235.44118 150.13127L235.44118 150.61565Q235.44118 151.50627 234.86305 152.0844Q234.30055 152.66252 233.40993 152.66252Q232.53493 152.66252 231.94118 152.10002Q231.36305 151.5219 231.36305 150.56877L231.36305 150.0844ZM232.31618 150.61565Q232.31618 151.1469 232.61305 151.50627Q232.90993 151.85002 233.40993 151.85002Q233.90993 151.85002 234.2068 151.50627Q234.50368 151.16252 234.50368 150.5844L234.50368 150.0844Q234.50368 149.53752 234.19118 149.19377Q233.8943 148.85002 233.40993 148.85002Q232.90993 148.85002 232.61305 149.19377Q232.31618 149.53752 232.31618 150.11565L232.31618 150.61565ZM228.86305 151.7719L228.1443 151.31877L233.00368 143.53752L233.72243 143.99065L228.86305 151.7719ZM239.67555 148.55315Q239.67555 150.06877 239.2693 151.47502Q238.87868 152.86565 238.05055 154.05315Q237.22243 155.24065 236.3318 155.74065L236.06618 154.9594Q237.11305 154.16252 237.75368 152.4594Q238.3943 150.75627 238.40993 148.69377L238.40993 148.47502Q238.40993 147.03752 238.09743 145.80315Q237.80055 144.56877 237.2693 143.60002Q236.73805 142.61565 236.06618 142.06877L236.3318 141.28752Q237.22243 141.78752 238.03493 142.9594Q238.86305 144.13127 239.2693 145.53752Q239.67555 146.94377 239.67555 148.55315Z" fill-rule="nonzero"/><path fill="#757575" d="M31.14375 125.67884L19.971874 125.67884L19.971874 124.11634L25.878124 117.55384Q27.190624 116.069466 27.690624 115.14759Q28.190624 114.21009 28.190624 113.21009Q28.190624 111.86634 27.378124 111.02259Q26.565624 110.163216 25.221874 110.163216Q23.596874 110.163216 22.70625 111.08509Q21.815624 112.006966 21.815624 113.64759L19.64375 113.64759Q19.64375 111.288216 21.159374 109.83509Q22.675 108.381966 25.221874 108.381966Q27.596874 108.381966 28.971874 109.631966Q30.3625 110.881966 30.3625 112.944466Q30.3625 115.475716 27.159374 118.944466L22.58125 123.913216L31.14375 123.913216L31.14375 125.67884ZM43.675 118.39759Q43.675 122.21009 42.3625 124.069466Q41.065624 125.913216 38.3 125.913216Q35.565624 125.913216 34.253124 124.100716Q32.940624 122.288216 32.89375 118.694466L32.89375 115.80384Q32.89375 112.038216 34.190624 110.21009Q35.503124 108.381966 38.284374 108.381966Q41.034374 108.381966 42.33125 110.14759Q43.628124 111.913216 43.675 115.58509L43.675 118.39759ZM41.503124 115.42884Q41.503124 112.67884 40.721874 111.42884Q39.95625 110.163216 38.284374 110.163216Q36.6125 110.163216 35.846874 111.413216Q35.096874 112.663216 35.065624 115.27259L35.065624 118.74134Q35.065624 121.506966 35.8625 122.83509Q36.675 124.14759 38.3 124.14759Q39.909374 124.14759 40.690624 122.913216Q41.471874 121.663216 41.503124 118.99134L41.503124 115.42884ZM57.14375 125.67884L45.971874 125.67884L45.971874 124.11634L51.878124 117.55384Q53.190624 116.069466 53.690624 115.14759Q54.190624 114.21009 54.190624 113.21009Q54.190624 111.86634 53.378124 111.02259Q52.565624 110.163216 51.221874 110.163216Q49.596874 110.163216 48.70625 111.08509Q47.815624 112.006966 47.815624 113.64759L45.64375 113.64759Q45.64375 111.288216 47.159374 109.83509Q48.675 108.381966 51.221874 108.381966Q53.596874 108.381966 54.971874 109.631966Q56.3625 110.881966 56.3625 112.944466Q56.3625 115.475716 53.159374 118.944466L48.58125 123.913216L57.14375 123.913216L57.14375 125.67884ZM66.09688 125.67884L63.909374 125.67884L63.909374 111.225716L59.55 112.83509L59.55 110.86634L65.75313 108.538216L66.09688 108.538216L66.09688 125.67884Z" fill-rule="nonzero"/><path fill="#9e9e9e" d="M23.128124 148.0851L24.753124 148.0851Q26.284374 148.06947 27.159374 147.28822Q28.05 146.49135 28.05 145.16322Q28.05 142.16322 25.05 142.16322Q23.64375 142.16322 22.8 142.97572Q21.971874 143.7726 21.971874 145.0851L19.8 145.0851Q19.8 143.06947 21.284374 141.72572Q22.76875 140.38197 25.05 140.38197Q27.471874 140.38197 28.83125 141.66322Q30.20625 142.92885 30.20625 145.2101Q30.20625 146.31947 29.4875 147.36635Q28.76875 148.41322 27.534374 148.92885Q28.940624 149.36635 29.70625 150.3976Q30.471874 151.42885 30.471874 152.91322Q30.471874 155.2101 28.971874 156.56947Q27.471874 157.91322 25.065624 157.91322Q22.659374 157.91322 21.159374 156.61635Q19.659374 155.30385 19.659374 153.17885L21.83125 153.17885Q21.83125 154.5226 22.70625 155.3351Q23.596874 156.1476 25.065624 156.1476Q26.64375 156.1476 27.471874 155.3351Q28.3 154.50697 28.3 152.9601Q28.3 151.47572 27.378124 150.67885Q26.471874 149.88197 24.753124 149.86635L23.128124 149.86635L23.128124 148.0851ZM36.128124 148.0851L37.753124 148.0851Q39.284374 148.06947 40.159374 147.28822Q41.05 146.49135 41.05 145.16322Q41.05 142.16322 38.05 142.16322Q36.64375 142.16322 35.8 142.97572Q34.971874 143.7726 34.971874 145.0851L32.8 145.0851Q32.8 143.06947 34.284374 141.72572Q35.76875 140.38197 38.05 140.38197Q40.471874 140.38197 41.83125 141.66322Q43.20625 142.92885 43.20625 145.2101Q43.20625 146.31947 42.4875 147.36635Q41.76875 148.41322 40.534374 148.92885Q41.940624 149.36635 42.70625 150.3976Q43.471874 151.42885 43.471874 152.91322Q43.471874 155.2101 41.971874 156.56947Q40.471874 157.91322 38.065624 157.91322Q35.659374 157.91322 34.159374 156.61635Q32.659374 155.30385 32.659374 153.17885L34.83125 153.17885Q34.83125 154.5226 35.70625 155.3351Q36.596874 156.1476 38.065624 156.1476Q39.64375 156.1476 40.471874 155.3351Q41.3 154.50697 41.3 152.9601Q41.3 151.47572 40.378124 150.67885Q39.471874 149.88197 37.753124 149.86635L36.128124 149.86635L36.128124 148.0851ZM46.2375 156.53822Q46.2375 155.97572 46.565624 155.60072Q46.909374 155.22572 47.565624 155.22572Q48.2375 155.22572 48.58125 155.60072Q48.940624 155.97572 48.940624 156.53822Q48.940624 157.0851 48.58125 157.44447Q48.2375 157.80385 47.565624 157.80385Q46.909374 157.80385 46.565624 157.44447Q46.2375 157.0851 46.2375 156.53822ZM61.128124 151.94447L63.4875 151.94447L63.4875 153.7101L61.128124 153.7101L61.128124 157.67885L58.940624 157.67885L58.940624 153.7101L51.175 153.7101L51.175 152.44447L58.815624 140.61635L61.128124 140.61635L61.128124 151.94447ZM53.628124 151.94447L58.940624 151.94447L58.940624 143.5851L58.690624 144.05385L53.628124 151.94447ZM64.78438 143.8976Q64.78438 142.36635 65.75313 141.36635Q66.7375 140.36635 68.26875 140.36635Q69.83125 140.36635 70.8 141.36635Q71.76875 142.36635 71.76875 143.9601L71.76875 144.80385Q71.76875 146.35072 70.78438 147.3351Q69.81563 148.30385 68.3 148.30385Q66.76875 148.30385 65.76875 147.3351Q64.78438 146.35072 64.78438 144.7101L64.78438 143.8976ZM66.39375 144.80385Q66.39375 145.7101 66.90938 146.30385Q67.425 146.8976 68.3 146.8976Q69.12813 146.8976 69.62813 146.31947Q70.14375 145.74135 70.14375 144.75697L70.14375 143.8976Q70.14375 142.97572 69.64375 142.38197Q69.14375 141.78822 68.26875 141.78822Q67.40938 141.78822 66.89375 142.38197Q66.39375 142.97572 66.39375 143.94447L66.39375 144.80385ZM73.09688 153.49135Q73.09688 151.9601 74.06563 150.97572Q75.05 149.97572 76.58125 149.97572Q78.1125 149.97572 79.09688 150.9601Q80.08125 151.94447 80.08125 153.56947L80.08125 154.41322Q80.08125 155.94447 79.09688 156.94447Q78.12813 157.92885 76.59688 157.92885Q75.08125 157.92885 74.08125 156.94447Q73.09688 155.9601 73.09688 154.3351L73.09688 153.49135ZM74.70625 154.41322Q74.70625 155.3351 75.22188 155.92885Q75.7375 156.5226 76.6125 156.5226Q77.45625 156.5226 77.95625 155.94447Q78.45625 155.35072 78.45625 154.36635L78.45625 153.49135Q78.45625 152.56947 77.94063 151.99135Q77.44063 151.3976 76.58125 151.3976Q75.75313 151.3976 75.22188 151.97572Q74.70625 152.55385 74.70625 153.53822L74.70625 154.41322ZM68.78438 156.38197L67.56563 155.61635L75.89375 142.2726L77.12813 143.05385L68.78438 156.38197Z" fill-rule="nonzero"/><path stroke="#757575" stroke-width="1.0" stroke-linecap="butt" d="M18.55 133.17885L145.23334 133.17885L177.51402 133.17885" fill-rule="nonzero"/><path fill="#9e9e9e" d="M179.51402 133.17885C179.51402 132.07426 178.61859 131.17885 177.51402 131.17885C176.40945 131.17885 175.51402 132.07426 175.51402 133.17885C175.51402 134.28342 176.40945 135.17885 177.51402 135.17885C178.61859 135.17885 179.51402 134.28342 179.51402 133.17885" fill-rule="nonzero"/><path fill="#757575" d="M31.14375 314.45L19.971874 314.45L19.971874 312.8875L25.878124 306.325Q27.190624 304.84064 27.690624 303.91876Q28.190624 302.98126 28.190624 301.98126Q28.190624 300.6375 27.378124 299.79376Q26.565624 298.9344 25.221874 298.9344Q23.596874 298.9344 22.70625 299.85626Q21.815624 300.77814 21.815624 302.41876L19.64375 302.41876Q19.64375 300.0594 21.159374 298.60626Q22.675 297.15314 25.221874 297.15314Q27.596874 297.15314 28.971874 298.40314Q30.3625 299.65314 30.3625 301.71564Q30.3625 304.2469 27.159374 307.71564L22.58125 312.6844L31.14375 312.6844L31.14375 314.45ZM43.675 307.16876Q43.675 310.98126 42.3625 312.84064Q41.065624 314.6844 38.3 314.6844Q35.565624 314.6844 34.253124 312.8719Q32.940624 311.0594 32.89375 307.46564L32.89375 304.575Q32.89375 300.8094 34.190624 298.98126Q35.503124 297.15314 38.284374 297.15314Q41.034374 297.15314 42.33125 298.91876Q43.628124 300.6844 43.675 304.35626L43.675 307.16876ZM41.503124 304.2Q41.503124 301.45 40.721874 300.2Q39.95625 298.9344 38.284374 298.9344Q36.6125 298.9344 35.846874 300.1844Q35.096874 301.4344 35.065624 304.04376L35.065624 307.5125Q35.065624 310.27814 35.8625 311.60626Q36.675 312.91876 38.3 312.91876Q39.909374 312.91876 40.690624 311.6844Q41.471874 310.4344 41.503124 307.7625L41.503124 304.2ZM57.14375 314.45L45.971874 314.45L45.971874 312.8875L51.878124 306.325Q53.190624 304.84064 53.690624 303.91876Q54.190624 302.98126 54.190624 301.98126Q54.190624 300.6375 53.378124 299.79376Q52.565624 298.9344 51.221874 298.9344Q49.596874 298.9344 48.70625 299.85626Q47.815624 300.77814 47.815624 302.41876L45.64375 302.41876Q45.64375 300.0594 47.159374 298.60626Q48.675 297.15314 51.221874 297.15314Q53.596874 297.15314 54.971874 298.40314Q56.3625 299.65314 56.3625 301.71564Q56.3625 304.2469 53.159374 307.71564L48.58125 312.6844L57.14375 312.6844L57.14375 314.45ZM69.675 307.16876Q69.675 310.98126 68.3625 312.84064Q67.06563 314.6844 64.3 314.6844Q61.565624 314.6844 60.253124 312.8719Q58.940624 311.0594 58.89375 307.46564L58.89375 304.575Q58.89375 300.8094 60.190624 298.98126Q61.503124 297.15314 64.28438 297.15314Q67.03438 297.15314 68.33125 298.91876Q69.62813 300.6844 69.675 304.35626L69.675 307.16876ZM67.50313 304.2Q67.50313 301.45 66.72188 300.2Q65.95625 298.9344 64.28438 298.9344Q62.6125 298.9344 61.846874 300.1844Q61.096874 301.4344 61.065624 304.04376L61.065624 307.5125Q61.065624 310.27814 61.8625 311.60626Q62.675 312.91876 64.3 312.91876Q65.90938 312.91876 66.69063 311.6844Q67.47188 310.4344 67.50313 307.7625L67.50313 304.2Z" fill-rule="nonzero"/><path fill="#9e9e9e" d="M31.14375 346.45L19.971874 346.45L19.971874 344.8875L25.878124 338.325Q27.190624 336.84064 27.690624 335.91876Q28.190624 334.98126 28.190624 333.98126Q28.190624 332.6375 27.378124 331.79376Q26.565624 330.9344 25.221874 330.9344Q23.596874 330.9344 22.70625 331.85626Q21.815624 332.77814 21.815624 334.41876L19.64375 334.41876Q19.64375 332.0594 21.159374 330.60626Q22.675 329.15314 25.221874 329.15314Q27.596874 329.15314 28.971874 330.40314Q30.3625 331.65314 30.3625 333.71564Q30.3625 336.2469 27.159374 339.71564L22.58125 344.6844L31.14375 344.6844L31.14375 346.45ZM41.284374 338.95Q40.596874 339.7625 39.64375 340.2625Q38.70625 340.7469 37.58125 340.7469Q36.1125 340.7469 35.01875 340.02814Q33.925 339.29376 33.315624 337.98126Q32.721874 336.65314 32.721874 335.0594Q32.721874 333.34064 33.3625 331.98126Q34.01875 330.60626 35.20625 329.8875Q36.409374 329.15314 38.003124 329.15314Q40.534374 329.15314 41.9875 331.04376Q43.45625 332.9344 43.45625 336.2L43.45625 336.84064Q43.45625 341.825 41.4875 344.1219Q39.51875 346.40314 35.55 346.46564L35.128124 346.46564L35.128124 344.6375L35.58125 344.6375Q38.26875 344.59064 39.70625 343.23126Q41.14375 341.8719 41.284374 338.95ZM37.940624 338.95Q39.034374 338.95 39.940624 338.27814Q40.8625 337.60626 41.284374 336.6219L41.284374 335.7625Q41.284374 333.6219 40.3625 332.29376Q39.440624 330.95 38.01875 330.95Q36.596874 330.95 35.721874 332.0594Q34.8625 333.15314 34.8625 334.9344Q34.8625 336.6844 35.690624 337.825Q36.534374 338.95 37.940624 338.95ZM46.2375 345.3094Q46.2375 344.7469 46.565624 344.3719Q46.909374 343.9969 47.565624 343.9969Q48.2375 343.9969 48.58125 344.3719Q48.940624 344.7469 48.940624 345.3094Q48.940624 345.85626 48.58125 346.21564Q48.2375 346.575 47.565624 346.575Q46.909374 346.575 46.565624 346.21564Q46.2375 345.85626 46.2375 345.3094ZM60.284374 338.95Q59.596874 339.7625 58.64375 340.2625Q57.70625 340.7469 56.58125 340.7469Q55.1125 340.7469 54.01875 340.02814Q52.925 339.29376 52.315624 337.98126Q51.721874 336.65314 51.721874 335.0594Q51.721874 333.34064 52.3625 331.98126Q53.01875 330.60626 54.20625 329.8875Q55.409374 329.15314 57.003124 329.15314Q59.534374 329.15314 60.9875 331.04376Q62.45625 332.9344 62.45625 336.2L62.45625 336.84064Q62.45625 341.825 60.4875 344.1219Q58.51875 346.40314 54.55 346.46564L54.128124 346.46564L54.128124 344.6375L54.58125 344.6375Q57.26875 344.59064 58.70625 343.23126Q60.14375 341.8719 60.284374 338.95ZM56.940624 338.95Q58.034374 338.95 58.940624 338.27814Q59.8625 337.60626 60.284374 336.6219L60.284374 335.7625Q60.284374 333.6219 59.3625 332.29376Q58.440624 330.95 57.01875 330.95Q55.596874 330.95 54.721874 332.0594Q53.8625 333.15314 53.8625 334.9344Q53.8625 336.6844 54.690624 337.825Q55.534374 338.95 56.940624 338.95ZM64.78438 332.66876Q64.78438 331.1375 65.75313 330.1375Q66.7375 329.1375 68.26875 329.1375Q69.83125 329.1375 70.8 330.1375Q71.76875 331.1375 71.76875 332.73126L71.76875 333.575Q71.76875 335.1219 70.78438 336.10626Q69.81563 337.075 68.3 337.075Q66.76875 337.075 65.76875 336.10626Q64.78438 335.1219 64.78438 333.48126L64.78438 332.66876ZM66.39375 333.575Q66.39375 334.48126 66.90938 335.075Q67.425 335.66876 68.3 335.66876Q69.12813 335.66876 69.62813 335.09064Q70.14375 334.5125 70.14375 333.52814L70.14375 332.66876Q70.14375 331.7469 69.64375 331.15314Q69.14375 330.5594 68.26875 330.5594Q67.40938 330.5594 66.89375 331.15314Q66.39375 331.7469 66.39375 332.71564L66.39375 333.575ZM73.09688 342.2625Q73.09688 340.73126 74.06563 339.7469Q75.05 338.7469 76.58125 338.7469Q78.1125 338.7469 79.09688 339.73126Q80.08125 340.71564 80.08125 342.34064L80.08125 343.1844Q80.08125 344.71564 79.09688 345.71564Q78.12813 346.7 76.59688 346.7Q75.08125 346.7 74.08125 345.71564Q73.09688 344.73126 73.09688 343.10626L73.09688 342.2625ZM74.70625 343.1844Q74.70625 344.10626 75.22188 344.7Q75.7375 345.29376 76.6125 345.29376Q77.45625 345.29376 77.95625 344.71564Q78.45625 344.1219 78.45625 343.1375L78.45625 342.2625Q78.45625 341.34064 77.94063 340.7625Q77.44063 340.16876 76.58125 340.16876Q75.75313 340.16876 75.22188 340.7469Q74.70625 341.325 74.70625 342.3094L74.70625 343.1844ZM68.78438 345.15314L67.56563 344.3875L75.89375 331.04376L77.12813 331.825L68.78438 345.15314Z" fill-rule="nonzero"/><path stroke="#757575" stroke-width="1.0" stroke-linecap="butt" d="M18.55 321.95L145.23334 321.95L285.09888 344.2239" fill-rule="nonzero"/><path fill="#9e9e9e" d="M287.09888 344.2239C287.09888 343.11935 286.20343 342.2239 285.09888 342.2239C283.9943 342.2239 283.09888 343.11935 283.09888 344.2239C283.09888 345.3285 283.9943 346.2239 285.09888 346.2239C286.20343 346.2239 287.09888 345.3285 287.09888 344.2239" fill-rule="nonzero"/><path fill="#757575" d="M542.04376 77.916664L530.8719 77.916664L530.8719 76.354164L536.77814 69.791664Q538.09064 68.30729 538.59064 67.385414Q539.09064 66.447914 539.09064 65.447914Q539.09064 64.104164 538.27814 63.260414Q537.46564 62.40104 536.1219 62.40104Q534.4969 62.40104 533.60626 63.322914Q532.71564 64.24479 532.71564 65.885414L530.54376 65.885414Q530.54376 63.52604 532.0594 62.072914Q533.575 60.61979 536.1219 60.61979Q538.4969 60.61979 539.8719 61.86979Q541.2625 63.11979 541.2625 65.18229Q541.2625 67.71354 538.0594 71.18229L533.48126 76.15104L542.04376 76.15104L542.04376 77.916664ZM554.575 70.635414Q554.575 74.447914 553.2625 76.30729Q551.96564 78.15104 549.2 78.15104Q546.46564 78.15104 545.15314 76.33854Q543.84064 74.52604 543.79376 70.93229L543.79376 68.041664Q543.79376 64.27604 545.09064 62.447914Q546.40314 60.61979 549.1844 60.61979Q551.9344 60.61979 553.23126 62.385414Q554.52814 64.15104 554.575 67.822914L554.575 70.635414ZM552.40314 67.666664Q552.40314 64.916664 551.6219 63.666664Q550.85626 62.40104 549.1844 62.40104Q547.5125 62.40104 546.7469 63.65104Q545.9969 64.90104 545.96564 67.510414L545.96564 70.979164Q545.96564 73.74479 546.7625 75.072914Q547.575 76.385414 549.2 76.385414Q550.8094 76.385414 551.59064 75.15104Q552.3719 73.90104 552.40314 71.229164L552.40314 67.666664ZM563.9969 77.916664L561.8094 77.916664L561.8094 63.46354L557.45 65.072914L557.45 63.104164L563.65314 60.77604L563.9969 60.77604L563.9969 77.916664ZM578.3719 60.83854L578.3719 62.68229L577.98126 62.68229Q575.45 62.729164 573.95 64.18229Q572.45 65.635414 572.21564 68.27604Q573.5594 66.729164 575.8875 66.729164Q578.1219 66.729164 579.45 68.30729Q580.77814 69.86979 580.77814 72.354164Q580.77814 74.979164 579.34064 76.572914Q577.90314 78.15104 575.4969 78.15104Q573.04376 78.15104 571.5125 76.27604Q569.9969 74.385414 569.9969 71.416664L569.9969 70.58854Q569.9969 65.885414 571.9969 63.40104Q574.0125 60.90104 577.9969 60.83854L578.3719 60.83854ZM575.52814 68.52604Q574.41876 68.52604 573.48126 69.197914Q572.54376 69.86979 572.1844 70.86979L572.1844 71.666664Q572.1844 73.77604 573.1219 75.072914Q574.075 76.354164 575.4969 76.354164Q576.96564 76.354164 577.79376 75.27604Q578.6375 74.197914 578.6375 72.447914Q578.6375 70.697914 577.77814 69.61979Q576.9344 68.52604 575.52814 68.52604Z" fill-rule="nonzero"/><path fill="#9e9e9e" d="M541.3719 92.83854L541.3719 94.68229L540.98126 94.68229Q538.45 94.729164 536.95 96.18229Q535.45 97.635414 535.21564 100.27604Q536.5594 98.729164 538.8875 98.729164Q541.1219 98.729164 542.45 100.30729Q543.77814 101.86979 543.77814 104.354164Q543.77814 106.979164 542.34064 108.572914Q540.90314 110.15104 538.4969 110.15104Q536.04376 110.15104 534.5125 108.27604Q532.9969 106.385414 532.9969 103.416664L532.9969 102.58854Q532.9969 97.885414 534.9969 95.40104Q537.0125 92.90104 540.9969 92.83854L541.3719 92.83854ZM538.52814 100.52604Q537.41876 100.52604 536.48126 101.197914Q535.54376 101.86979 535.1844 102.86979L535.1844 103.666664Q535.1844 105.77604 536.1219 107.072914Q537.075 108.354164 538.4969 108.354164Q539.96564 108.354164 540.79376 107.27604Q541.6375 106.197914 541.6375 104.447914Q541.6375 102.697914 540.77814 101.61979Q539.9344 100.52604 538.52814 100.52604ZM546.1375 108.77604Q546.1375 108.21354 546.46564 107.83854Q546.8094 107.46354 547.46564 107.46354Q548.1375 107.46354 548.48126 107.83854Q548.84064 108.21354 548.84064 108.77604Q548.84064 109.322914 548.48126 109.68229Q548.1375 110.041664 547.46564 110.041664Q546.8094 110.041664 546.46564 109.68229Q546.1375 109.322914 546.1375 108.77604ZM560.3719 92.83854L560.3719 94.68229L559.98126 94.68229Q557.45 94.729164 555.95 96.18229Q554.45 97.635414 554.21564 100.27604Q555.5594 98.729164 557.8875 98.729164Q560.1219 98.729164 561.45 100.30729Q562.77814 101.86979 562.77814 104.354164Q562.77814 106.979164 561.34064 108.572914Q559.90314 110.15104 557.4969 110.15104Q555.04376 110.15104 553.5125 108.27604Q551.9969 106.385414 551.9969 103.416664L551.9969 102.58854Q551.9969 97.885414 553.9969 95.40104Q556.0125 92.90104 559.9969 92.83854L560.3719 92.83854ZM557.52814 100.52604Q556.41876 100.52604 555.48126 101.197914Q554.54376 101.86979 554.1844 102.86979L554.1844 103.666664Q554.1844 105.77604 555.1219 107.072914Q556.075 108.354164 557.4969 108.354164Q558.96564 108.354164 559.79376 107.27604Q560.6375 106.197914 560.6375 104.447914Q560.6375 102.697914 559.77814 101.61979Q558.9344 100.52604 557.52814 100.52604ZM564.6844 96.135414Q564.6844 94.604164 565.65314 93.604164Q566.6375 92.604164 568.16876 92.604164Q569.73126 92.604164 570.7 93.604164Q571.66876 94.604164 571.66876 96.197914L571.66876 97.041664Q571.66876 98.58854 570.6844 99.572914Q569.71564 100.541664 568.2 100.541664Q566.66876 100.541664 565.66876 99.572914Q564.6844 98.58854 564.6844 96.947914L564.6844 96.135414ZM566.29376 97.041664Q566.29376 97.947914 566.8094 98.541664Q567.325 99.135414 568.2 99.135414Q569.02814 99.135414 569.52814 98.55729Q570.04376 97.979164 570.04376 96.99479L570.04376 96.135414Q570.04376 95.21354 569.54376 94.61979Q569.04376 94.02604 568.16876 94.02604Q567.3094 94.02604 566.79376 94.61979Q566.29376 95.21354 566.29376 96.18229L566.29376 97.041664ZM572.9969 105.729164Q572.9969 104.197914 573.96564 103.21354Q574.95 102.21354 576.48126 102.21354Q578.0125 102.21354 578.9969 103.197914Q579.98126 104.18229 579.98126 105.80729L579.98126 106.65104Q579.98126 108.18229 578.9969 109.18229Q578.02814 110.166664 576.4969 110.166664Q574.98126 110.166664 573.98126 109.18229Q572.9969 108.197914 572.9969 106.572914L572.9969 105.729164ZM574.60626 106.65104Q574.60626 107.572914 575.1219 108.166664Q575.6375 108.760414 576.5125 108.760414Q577.35626 108.760414 577.85626 108.18229Q578.35626 107.58854 578.35626 106.604164L578.35626 105.729164Q578.35626 104.80729 577.84064 104.229164Q577.34064 103.635414 576.48126 103.635414Q575.65314 103.635414 575.1219 104.21354Q574.60626 104.791664 574.60626 105.77604L574.60626 106.65104ZM568.6844 108.61979L567.46564 107.854164L575.79376 94.510414L577.02814 95.291664L568.6844 108.61979Z" fill-rule="nonzero"/><path stroke="#757575" stroke-width="1.0" stroke-linecap="butt" d="M581.45 85.416664L454.76666 85.416664L358.4583 75.01196" fill-rule="nonzero"/><path fill="#9e9e9e" d="M360.4583 75.01196C360.4583 73.90739 359.5629 73.01196 358.4583 73.01196C357.35376 73.01196 356.4583 73.90739 356.4583 75.01196C356.4583 76.11653 357.35376 77.01196 358.4583 77.01196C359.5629 77.01196 360.4583 76.11653 360.4583 75.01196" fill-rule="nonzero"/><path fill="#757575" d="M542.04376 138.91667L530.8719 138.91667L530.8719 137.35417L536.77814 130.79167Q538.09064 129.3073 538.59064 128.38542Q539.09064 127.44792 539.09064 126.44792Q539.09064 125.10417 538.27814 124.26042Q537.46564 123.40105 536.1219 123.40105Q534.4969 123.40105 533.60626 124.32292Q532.71564 125.2448 532.71564 126.88542L530.54376 126.88542Q530.54376 124.52605 532.0594 123.07292Q533.575 121.6198 536.1219 121.6198Q538.4969 121.6198 539.8719 122.8698Q541.2625 124.1198 541.2625 126.1823Q541.2625 128.71355 538.0594 132.1823L533.48126 137.15105L542.04376 137.15105L542.04376 138.91667ZM554.575 131.63542Q554.575 135.44792 553.2625 137.3073Q551.96564 139.15105 549.2 139.15105Q546.46564 139.15105 545.15314 137.33855Q543.84064 135.52605 543.79376 131.9323L543.79376 129.04167Q543.79376 125.27605 545.09064 123.44792Q546.40314 121.6198 549.1844 121.6198Q551.9344 121.6198 553.23126 123.38542Q554.52814 125.15105 554.575 128.82292L554.575 131.63542ZM552.40314 128.66667Q552.40314 125.91667 551.6219 124.66667Q550.85626 123.40105 549.1844 123.40105Q547.5125 123.40105 546.7469 124.65105Q545.9969 125.90105 545.96564 128.51042L545.96564 131.97917Q545.96564 134.7448 546.7625 136.07292Q547.575 137.38542 549.2 137.38542Q550.8094 137.38542 551.59064 136.15105Q552.3719 134.90105 552.40314 132.22917L552.40314 128.66667ZM563.9969 138.91667L561.8094 138.91667L561.8094 124.46355L557.45 126.07292L557.45 124.10417L563.65314 121.77605L563.9969 121.77605L563.9969 138.91667ZM580.8875 123.07292L573.825 138.91667L571.54376 138.91667L578.59064 123.63542L569.35626 123.63542L569.35626 121.85417L580.8875 121.85417L580.8875 123.07292Z" fill-rule="nonzero"/><path fill="#9e9e9e" d="M536.02814 161.32292L537.65314 161.32292Q539.1844 161.3073 540.0594 160.52605Q540.95 159.72917 540.95 158.40105Q540.95 155.40105 537.95 155.40105Q536.54376 155.40105 535.7 156.21355Q534.8719 157.01042 534.8719 158.32292L532.7 158.32292Q532.7 156.3073 534.1844 154.96355Q535.66876 153.6198 537.95 153.6198Q540.3719 153.6198 541.73126 154.90105Q543.10626 156.16667 543.10626 158.44792Q543.10626 159.5573 542.3875 160.60417Q541.66876 161.65105 540.4344 162.16667Q541.84064 162.60417 542.60626 163.63542Q543.3719 164.66667 543.3719 166.15105Q543.3719 168.44792 541.8719 169.8073Q540.3719 171.15105 537.96564 171.15105Q535.5594 171.15105 534.0594 169.85417Q532.5594 168.54167 532.5594 166.41667L534.73126 166.41667Q534.73126 167.76042 535.60626 168.57292Q536.4969 169.38542 537.96564 169.38542Q539.54376 169.38542 540.3719 168.57292Q541.2 167.7448 541.2 166.19792Q541.2 164.71355 540.27814 163.91667Q539.3719 163.1198 537.65314 163.10417L536.02814 163.10417L536.02814 161.32292ZM546.1375 169.77605Q546.1375 169.21355 546.46564 168.83855Q546.8094 168.46355 547.46564 168.46355Q548.1375 168.46355 548.48126 168.83855Q548.84064 169.21355 548.84064 169.77605Q548.84064 170.32292 548.48126 170.6823Q548.1375 171.04167 547.46564 171.04167Q546.8094 171.04167 546.46564 170.6823Q546.1375 170.32292 546.1375 169.77605ZM562.8875 155.07292L555.825 170.91667L553.54376 170.91667L560.59064 155.63542L551.35626 155.63542L551.35626 153.85417L562.8875 153.85417L562.8875 155.07292ZM564.6844 157.13542Q564.6844 155.60417 565.65314 154.60417Q566.6375 153.60417 568.16876 153.60417Q569.73126 153.60417 570.7 154.60417Q571.66876 155.60417 571.66876 157.19792L571.66876 158.04167Q571.66876 159.58855 570.6844 160.57292Q569.71564 161.54167 568.2 161.54167Q566.66876 161.54167 565.66876 160.57292Q564.6844 159.58855 564.6844 157.94792L564.6844 157.13542ZM566.29376 158.04167Q566.29376 158.94792 566.8094 159.54167Q567.325 160.13542 568.2 160.13542Q569.02814 160.13542 569.52814 159.5573Q570.04376 158.97917 570.04376 157.9948L570.04376 157.13542Q570.04376 156.21355 569.54376 155.6198Q569.04376 155.02605 568.16876 155.02605Q567.3094 155.02605 566.79376 155.6198Q566.29376 156.21355 566.29376 157.1823L566.29376 158.04167ZM572.9969 166.72917Q572.9969 165.19792 573.96564 164.21355Q574.95 163.21355 576.48126 163.21355Q578.0125 163.21355 578.9969 164.19792Q579.98126 165.1823 579.98126 166.8073L579.98126 167.65105Q579.98126 169.1823 578.9969 170.1823Q578.02814 171.16667 576.4969 171.16667Q574.98126 171.16667 573.98126 170.1823Q572.9969 169.19792 572.9969 167.57292L572.9969 166.72917ZM574.60626 167.65105Q574.60626 168.57292 575.1219 169.16667Q575.6375 169.76042 576.5125 169.76042Q577.35626 169.76042 577.85626 169.1823Q578.35626 168.58855 578.35626 167.60417L578.35626 166.72917Q578.35626 165.8073 577.84064 165.22917Q577.34064 164.63542 576.48126 164.63542Q575.65314 164.63542 575.1219 165.21355Q574.60626 165.79167 574.60626 166.77605L574.60626 167.65105ZM568.6844 169.6198L567.46564 168.85417L575.79376 155.51042L577.02814 156.29167L568.6844 169.6198Z" fill-rule="nonzero"/><path stroke="#757575" stroke-width="1.0" stroke-linecap="butt" d="M581.45 146.41667L454.76666 146.41667L396.45532 100.3873" fill-rule="nonzero"/><path fill="#9e9e9e" d="M398.45532 100.3873C398.45532 99.28273 397.55988 98.3873 396.45532 98.3873C395.35074 98.3873 394.45532 99.28273 394.45532 100.3873C394.45532 101.49187 395.35074 102.3873 396.45532 102.3873C397.55988 102.3873 398.45532 101.49187 398.45532 100.3873" fill-rule="nonzero"/><path fill="#757575" d="M542.04376 199.91667L530.8719 199.91667L530.8719 198.35417L536.77814 191.79167Q538.09064 190.3073 538.59064 189.38542Q539.09064 188.44792 539.09064 187.44792Q539.09064 186.10417 538.27814 185.26042Q537.46564 184.40105 536.1219 184.40105Q534.4969 184.40105 533.60626 185.32292Q532.71564 186.2448 532.71564 187.88542L530.54376 187.88542Q530.54376 185.52605 532.0594 184.07292Q533.575 182.6198 536.1219 182.6198Q538.4969 182.6198 539.8719 183.8698Q541.2625 185.1198 541.2625 187.1823Q541.2625 189.71355 538.0594 193.1823L533.48126 198.15105L542.04376 198.15105L542.04376 199.91667ZM554.575 192.63542Q554.575 196.44792 553.2625 198.3073Q551.96564 200.15105 549.2 200.15105Q546.46564 200.15105 545.15314 198.33855Q543.84064 196.52605 543.79376 192.9323L543.79376 190.04167Q543.79376 186.27605 545.09064 184.44792Q546.40314 182.6198 549.1844 182.6198Q551.9344 182.6198 553.23126 184.38542Q554.52814 186.15105 554.575 189.82292L554.575 192.63542ZM552.40314 189.66667Q552.40314 186.91667 551.6219 185.66667Q550.85626 184.40105 549.1844 184.40105Q547.5125 184.40105 546.7469 185.65105Q545.9969 186.90105 545.96564 189.51042L545.96564 192.97917Q545.96564 195.7448 546.7625 197.07292Q547.575 198.38542 549.2 198.38542Q550.8094 198.38542 551.59064 197.15105Q552.3719 195.90105 552.40314 193.22917L552.40314 189.66667ZM563.9969 199.91667L561.8094 199.91667L561.8094 185.46355L557.45 187.07292L557.45 185.10417L563.65314 182.77605L563.9969 182.77605L563.9969 199.91667ZM580.21564 187.3073Q580.21564 188.58855 579.54376 189.58855Q578.8719 190.57292 577.71564 191.13542Q579.0594 191.71355 579.84064 192.82292Q580.6219 193.91667 580.6219 195.3073Q580.6219 197.52605 579.1219 198.83855Q577.6219 200.15105 575.1844 200.15105Q572.73126 200.15105 571.2469 198.83855Q569.7625 197.51042 569.7625 195.3073Q569.7625 193.9323 570.5125 192.82292Q571.27814 191.69792 572.60626 191.1198Q571.48126 190.5573 570.825 189.57292Q570.16876 188.57292 570.16876 187.3073Q570.16876 185.15105 571.54376 183.88542Q572.9344 182.6198 575.1844 182.6198Q577.4344 182.6198 578.825 183.88542Q580.21564 185.15105 580.21564 187.3073ZM578.45 195.26042Q578.45 193.83855 577.54376 192.9323Q576.6375 192.02605 575.16876 192.02605Q573.7 192.02605 572.8094 192.91667Q571.9344 193.8073 571.9344 195.26042Q571.9344 196.71355 572.79376 197.5573Q573.65314 198.38542 575.1844 198.38542Q576.71564 198.38542 577.575 197.54167Q578.45 196.69792 578.45 195.26042ZM575.1844 184.40105Q573.91876 184.40105 573.1219 185.19792Q572.325 185.97917 572.325 187.33855Q572.325 188.63542 573.10626 189.44792Q573.8875 190.2448 575.1844 190.2448Q576.4969 190.2448 577.2625 189.44792Q578.04376 188.63542 578.04376 187.33855Q578.04376 186.04167 577.23126 185.22917Q576.4344 184.40105 575.1844 184.40105Z" fill-rule="nonzero"/><path fill="#9e9e9e" d="M526.9969 231.91667L524.8094 231.91667L524.8094 217.46355L520.45 219.07292L520.45 217.10417L526.65314 214.77605L526.9969 214.77605L526.9969 231.91667ZM539.9969 231.91667L537.8094 231.91667L537.8094 217.46355L533.45 219.07292L533.45 217.10417L539.65314 214.77605L539.9969 214.77605L539.9969 231.91667ZM546.1375 230.77605Q546.1375 230.21355 546.46564 229.83855Q546.8094 229.46355 547.46564 229.46355Q548.1375 229.46355 548.48126 229.83855Q548.84064 230.21355 548.84064 230.77605Q548.84064 231.32292 548.48126 231.6823Q548.1375 232.04167 547.46564 232.04167Q546.8094 232.04167 546.46564 231.6823Q546.1375 231.32292 546.1375 230.77605ZM562.575 224.63542Q562.575 228.44792 561.2625 230.3073Q559.96564 232.15105 557.2 232.15105Q554.46564 232.15105 553.15314 230.33855Q551.84064 228.52605 551.79376 224.9323L551.79376 222.04167Q551.79376 218.27605 553.09064 216.44792Q554.40314 214.6198 557.1844 214.6198Q559.9344 214.6198 561.23126 216.38542Q562.52814 218.15105 562.575 221.82292L562.575 224.63542ZM560.40314 221.66667Q560.40314 218.91667 559.6219 217.66667Q558.85626 216.40105 557.1844 216.40105Q555.5125 216.40105 554.7469 217.65105Q553.9969 218.90105 553.96564 221.51042L553.96564 224.97917Q553.96564 227.7448 554.7625 229.07292Q555.575 230.38542 557.2 230.38542Q558.8094 230.38542 559.59064 229.15105Q560.3719 227.90105 560.40314 225.22917L560.40314 221.66667ZM564.6844 218.13542Q564.6844 216.60417 565.65314 215.60417Q566.6375 214.60417 568.16876 214.60417Q569.73126 214.60417 570.7 215.60417Q571.66876 216.60417 571.66876 218.19792L571.66876 219.04167Q571.66876 220.58855 570.6844 221.57292Q569.71564 222.54167 568.2 222.54167Q566.66876 222.54167 565.66876 221.57292Q564.6844 220.58855 564.6844 218.94792L564.6844 218.13542ZM566.29376 219.04167Q566.29376 219.94792 566.8094 220.54167Q567.325 221.13542 568.2 221.13542Q569.02814 221.13542 569.52814 220.5573Q570.04376 219.97917 570.04376 218.9948L570.04376 218.13542Q570.04376 217.21355 569.54376 216.6198Q569.04376 216.02605 568.16876 216.02605Q567.3094 216.02605 566.79376 216.6198Q566.29376 217.21355 566.29376 218.1823L566.29376 219.04167ZM572.9969 227.72917Q572.9969 226.19792 573.96564 225.21355Q574.95 224.21355 576.48126 224.21355Q578.0125 224.21355 578.9969 225.19792Q579.98126 226.1823 579.98126 227.8073L579.98126 228.65105Q579.98126 230.1823 578.9969 231.1823Q578.02814 232.16667 576.4969 232.16667Q574.98126 232.16667 573.98126 231.1823Q572.9969 230.19792 572.9969 228.57292L572.9969 227.72917ZM574.60626 228.65105Q574.60626 229.57292 575.1219 230.16667Q575.6375 230.76042 576.5125 230.76042Q577.35626 230.76042 577.85626 230.1823Q578.35626 229.58855 578.35626 228.60417L578.35626 227.72917Q578.35626 226.8073 577.84064 226.22917Q577.34064 225.63542 576.48126 225.63542Q575.65314 225.63542 575.1219 226.21355Q574.60626 226.79167 574.60626 227.77605L574.60626 228.65105ZM568.6844 230.6198L567.46564 229.85417L575.79376 216.51042L577.02814 217.29167L568.6844 230.6198Z" fill-rule="nonzero"/><path stroke="#757575" stroke-width="1.0" stroke-linecap="butt" d="M581.45 207.41667L454.76666 207.41667L432.36917 154.16466" fill-rule="nonzero"/><path fill="#9e9e9e" d="M434.36917 154.16466C434.36917 153.06009 433.47375 152.16466 432.36917 152.16466C431.26462 152.16466 430.36917 153.06009 430.36917 154.16466C430.36917 155.26923 431.26462 156.16466 432.36917 156.16466C433.47375 156.16466 434.36917 155.26923 434.36917 154.16466" fill-rule="nonzero"/><path fill="#757575" d="M542.04376 260.91666L530.8719 260.91666L530.8719 259.35416L536.77814 252.79166Q538.09064 251.30728 538.59064 250.3854Q539.09064 249.4479 539.09064 248.4479Q539.09064 247.10416 538.27814 246.2604Q537.46564 245.40103 536.1219 245.40103Q534.4969 245.40103 533.60626 246.3229Q532.71564 247.24478 532.71564 248.8854L530.54376 248.8854Q530.54376 246.52603 532.0594 245.0729Q533.575 243.61978 536.1219 243.61978Q538.4969 243.61978 539.8719 244.86978Q541.2625 246.11978 541.2625 248.18228Q541.2625 250.71353 538.0594 254.18228L533.48126 259.15103L542.04376 259.15103L542.04376 260.91666ZM554.575 253.6354Q554.575 257.4479 553.2625 259.30728Q551.96564 261.15103 549.2 261.15103Q546.46564 261.15103 545.15314 259.33853Q543.84064 257.52603 543.79376 253.93228L543.79376 251.04166Q543.79376 247.27603 545.09064 245.4479Q546.40314 243.61978 549.1844 243.61978Q551.9344 243.61978 553.23126 245.3854Q554.52814 247.15103 554.575 250.8229L554.575 253.6354ZM552.40314 250.66666Q552.40314 247.91666 551.6219 246.66666Q550.85626 245.40103 549.1844 245.40103Q547.5125 245.40103 546.7469 246.65103Q545.9969 247.90103 545.96564 250.5104L545.96564 253.97916Q545.96564 256.74478 546.7625 258.0729Q547.575 259.3854 549.2 259.3854Q550.8094 259.3854 551.59064 258.15103Q552.3719 256.90103 552.40314 254.22916L552.40314 250.66666ZM563.9969 260.91666L561.8094 260.91666L561.8094 246.46353L557.45 248.0729L557.45 246.10416L563.65314 243.77603L563.9969 243.77603L563.9969 260.91666ZM578.1844 253.41666Q577.4969 254.22916 576.54376 254.72916Q575.60626 255.21353 574.48126 255.21353Q573.0125 255.21353 571.91876 254.49478Q570.825 253.7604 570.21564 252.4479Q569.6219 251.11978 569.6219 249.52603Q569.6219 247.80728 570.2625 246.4479Q570.91876 245.0729 572.10626 244.35416Q573.3094 243.61978 574.90314 243.61978Q577.4344 243.61978 578.8875 245.5104Q580.35626 247.40103 580.35626 250.66666L580.35626 251.30728Q580.35626 256.29166 578.3875 258.58853Q576.41876 260.86978 572.45 260.93228L572.02814 260.93228L572.02814 259.10416L572.48126 259.10416Q575.16876 259.05728 576.60626 257.6979Q578.04376 256.33853 578.1844 253.41666ZM574.84064 253.41666Q575.9344 253.41666 576.84064 252.74478Q577.7625 252.0729 578.1844 251.08853L578.1844 250.22916Q578.1844 248.08853 577.2625 246.7604Q576.34064 245.41666 574.91876 245.41666Q573.4969 245.41666 572.6219 246.52603Q571.7625 247.61978 571.7625 249.40103Q571.7625 251.15103 572.59064 252.29166Q573.4344 253.41666 574.84064 253.41666Z" fill-rule="nonzero"/><path fill="#9e9e9e" d="M526.9969 292.91666L524.8094 292.91666L524.8094 278.46353L520.45 280.0729L520.45 278.10416L526.65314 275.77603L526.9969 275.77603L526.9969 292.91666ZM544.04376 292.91666L532.8719 292.91666L532.8719 291.35416L538.77814 284.79166Q540.09064 283.30728 540.59064 282.3854Q541.09064 281.4479 541.09064 280.4479Q541.09064 279.10416 540.27814 278.2604Q539.46564 277.40103 538.1219 277.40103Q536.4969 277.40103 535.60626 278.3229Q534.71564 279.24478 534.71564 280.8854L532.54376 280.8854Q532.54376 278.52603 534.0594 277.0729Q535.575 275.61978 538.1219 275.61978Q540.4969 275.61978 541.8719 276.86978Q543.2625 278.11978 543.2625 280.18228Q543.2625 282.71353 540.0594 286.18228L535.48126 291.15103L544.04376 291.15103L544.04376 292.91666ZM546.1375 291.77603Q546.1375 291.21353 546.46564 290.83853Q546.8094 290.46353 547.46564 290.46353Q548.1375 290.46353 548.48126 290.83853Q548.84064 291.21353 548.84064 291.77603Q548.84064 292.3229 548.48126 292.68228Q548.1375 293.04166 547.46564 293.04166Q546.8094 293.04166 546.46564 292.68228Q546.1375 292.3229 546.1375 291.77603ZM562.575 285.6354Q562.575 289.4479 561.2625 291.30728Q559.96564 293.15103 557.2 293.15103Q554.46564 293.15103 553.15314 291.33853Q551.84064 289.52603 551.79376 285.93228L551.79376 283.04166Q551.79376 279.27603 553.09064 277.4479Q554.40314 275.61978 557.1844 275.61978Q559.9344 275.61978 561.23126 277.3854Q562.52814 279.15103 562.575 282.8229L562.575 285.6354ZM560.40314 282.66666Q560.40314 279.91666 559.6219 278.66666Q558.85626 277.40103 557.1844 277.40103Q555.5125 277.40103 554.7469 278.65103Q553.9969 279.90103 553.96564 282.5104L553.96564 285.97916Q553.96564 288.74478 554.7625 290.0729Q555.575 291.3854 557.2 291.3854Q558.8094 291.3854 559.59064 290.15103Q560.3719 288.90103 560.40314 286.22916L560.40314 282.66666ZM564.6844 279.1354Q564.6844 277.60416 565.65314 276.60416Q566.6375 275.60416 568.16876 275.60416Q569.73126 275.60416 570.7 276.60416Q571.66876 277.60416 571.66876 279.1979L571.66876 280.04166Q571.66876 281.58853 570.6844 282.5729Q569.71564 283.54166 568.2 283.54166Q566.66876 283.54166 565.66876 282.5729Q564.6844 281.58853 564.6844 279.9479L564.6844 279.1354ZM566.29376 280.04166Q566.29376 280.9479 566.8094 281.54166Q567.325 282.1354 568.2 282.1354Q569.02814 282.1354 569.52814 281.55728Q570.04376 280.97916 570.04376 279.99478L570.04376 279.1354Q570.04376 278.21353 569.54376 277.61978Q569.04376 277.02603 568.16876 277.02603Q567.3094 277.02603 566.79376 277.61978Q566.29376 278.21353 566.29376 279.18228L566.29376 280.04166ZM572.9969 288.72916Q572.9969 287.1979 573.96564 286.21353Q574.95 285.21353 576.48126 285.21353Q578.0125 285.21353 578.9969 286.1979Q579.98126 287.18228 579.98126 288.80728L579.98126 289.65103Q579.98126 291.18228 578.9969 292.18228Q578.02814 293.16666 576.4969 293.16666Q574.98126 293.16666 573.98126 292.18228Q572.9969 291.1979 572.9969 289.5729L572.9969 288.72916ZM574.60626 289.65103Q574.60626 290.5729 575.1219 291.16666Q575.6375 291.7604 576.5125 291.7604Q577.35626 291.7604 577.85626 291.18228Q578.35626 290.58853 578.35626 289.60416L578.35626 288.72916Q578.35626 287.80728 577.84064 287.22916Q577.34064 286.6354 576.48126 286.6354Q575.65314 286.6354 575.1219 287.21353Q574.60626 287.79166 574.60626 288.77603L574.60626 289.65103ZM568.6844 291.61978L567.46564 290.85416L575.79376 277.5104L577.02814 278.29166L568.6844 291.61978Z" fill-rule="nonzero"/><path stroke="#757575" stroke-width="1.0" stroke-linecap="butt" d="M581.45 268.41666L454.76666 268.41666L432.17444 253.7195" fill-rule="nonzero"/><path fill="#9e9e9e" d="M434.17444 253.7195C434.17444 252.61493 433.279 251.7195 432.17444 251.7195C431.06985 251.7195 430.17444 252.61493 430.17444 253.7195C430.17444 254.82408 431.06985 255.7195 432.17444 255.7195C433.279 255.7195 434.17444 254.82408 434.17444 253.7195" fill-rule="nonzero"/><path fill="#757575" d="M21.596874 37.940624Q25.659374 37.8625 28.003124 36.690624Q26.83125 35.675 25.1125 34.89375Q23.628124 35.909374 22.221874 36.45625L21.51875 35.128124Q24.565624 34.1125 26.440624 31.221874L21.596874 31.221874L21.596874 33.253124L20.034374 33.253124L20.034374 29.971874L36.909374 29.971874L36.909374 33.096874L35.346874 33.096874L35.346874 31.221874L28.08125 31.221874L27.3 32.39375L32.6125 32.39375L33.003124 32.003124L34.253124 32.940624Q34.565624 33.33125 33.940624 33.4875Q30.190624 38.878124 22.14375 39.503124L21.596874 37.940624ZM26.440624 33.64375L26.05 34.034374Q28.159374 34.815624 29.4875 35.83125Q31.20625 34.7375 31.83125 33.64375L26.440624 33.64375ZM34.8 29.034374L22.221874 29.034374L22.221874 25.128124L24.95625 25.128124L24.95625 24.034374L20.034374 24.034374L20.034374 22.784374L24.95625 22.784374L24.95625 21.221874L26.440624 21.221874Q27.065624 21.3 26.51875 21.690624L26.51875 22.784374L30.346874 22.784374L30.346874 21.221874L31.83125 21.221874Q32.45625 21.3 31.909374 21.690624L31.909374 22.784374L36.909374 22.784374L36.909374 24.034374L31.909374 24.034374L31.909374 25.128124L34.8 25.128124L34.8 29.034374ZM26.05 26.378124L23.784374 26.378124L23.784374 27.784374L26.05 27.784374L26.05 26.378124ZM27.378124 26.378124L27.378124 27.784374L29.565624 27.784374L29.565624 26.378124L27.378124 26.378124ZM33.2375 26.378124L30.89375 26.378124L30.89375 27.784374L33.2375 27.784374L33.2375 26.378124ZM30.346874 24.034374L26.51875 24.034374L26.51875 25.128124L30.346874 25.128124L30.346874 24.034374ZM44.253124 38.253124L42.45625 38.253124L42.45625 23.175L54.721874 23.175L54.721874 37.940624L52.925 37.940624L52.925 36.846874L44.253124 36.846874L44.253124 38.253124ZM52.925 29.1125L52.925 24.659374L44.253124 24.659374L44.253124 29.1125L52.925 29.1125ZM52.925 35.3625L52.925 30.596874L44.253124 30.596874L44.253124 35.3625L52.925 35.3625ZM73.08125 33.253124Q74.175 31.14375 74.40938 26.846874L71.75313 26.846874Q71.9875 31.14375 73.08125 33.253124ZM75.97188 26.846874Q75.81563 31.690624 74.09688 34.659374Q75.34688 36.221874 77.6125 37.39375L76.59688 39.1125Q74.09688 37.471874 73.08125 35.9875Q71.28438 38.01875 67.53438 39.503124L66.75313 37.940624Q70.81563 36.3 72.14375 34.58125Q70.81563 32.003124 70.65938 29.425Q70.19063 30.596874 69.72188 31.221874L68.39375 30.20625Q70.7375 26.76875 71.20625 21.690624L72.84688 22.08125Q73.31563 22.39375 72.6125 22.55Q72.37813 23.95625 71.9875 25.3625L77.3 25.3625L77.3 26.846874L75.97188 26.846874ZM68.70625 23.096874Q68.2375 24.26875 67.6125 25.05L66.3625 24.346874Q66.9875 23.33125 67.53438 22.003124L68.94063 22.70625Q69.25313 23.01875 68.70625 23.096874ZM63.70625 34.1125Q64.8 34.425 65.65938 34.815624Q66.28438 34.1125 66.675 32.70625L64.40938 32.70625Q64.09688 33.409374 63.70625 34.1125ZM62.6125 36.065624L61.3625 35.3625Q62.14375 34.190624 62.925 32.70625L59.95625 32.70625L59.95625 31.45625L63.39375 31.45625Q63.8625 30.440624 64.09688 29.7375L65.58125 30.128124Q65.89375 30.440624 65.34688 30.51875L64.87813 31.45625L69.33125 31.45625L69.33125 32.70625L68.15938 32.70625Q67.76875 34.26875 66.9875 35.3625Q67.69063 35.675 68.47188 36.14375L67.76875 37.39375Q66.90938 36.846874 66.20625 36.534374Q64.175 38.565624 60.7375 39.034374L60.190624 37.628124Q63.2375 37.315624 64.87813 35.909374Q64.01875 35.51875 63.159374 35.20625L62.6125 36.065624ZM64.175 21.378124L65.425 21.378124Q66.05 21.45625 65.50313 21.846874L65.50313 25.20625L69.4875 25.20625L69.4875 26.45625L66.20625 26.45625Q67.06563 27.471874 68.8625 28.409374L68.00313 29.7375Q66.675 28.95625 65.50313 27.55L65.50313 29.425L64.175 29.425L64.175 27.940624Q62.925 29.503124 60.7375 30.753124L59.721874 29.503124Q62.14375 28.253124 63.70625 26.45625L60.1125 26.45625L60.1125 25.20625L64.175 25.20625L64.175 21.378124ZM61.9875 24.971874Q61.440624 23.8 60.58125 22.940624L61.83125 22.159374Q62.76875 23.096874 63.2375 24.1125L61.9875 24.971874Z" fill-rule="nonzero"/><path fill="#757575" d="M85.20625 37.55L85.20625 23.33125L89.22188 23.33125Q91.06563 23.33125 92.4875 24.159374Q93.925 24.971874 94.69063 26.4875Q95.47188 28.003124 95.4875 29.95625L95.4875 30.8625Q95.4875 32.878124 94.70625 34.39375Q93.925 35.909374 92.4875 36.721874Q91.05 37.534374 89.14375 37.55L85.20625 37.55ZM87.08125 24.878124L87.08125 36.01875L89.05 36.01875Q91.22188 36.01875 92.425 34.675Q93.62813 33.315624 93.62813 30.83125L93.62813 30.003124Q93.62813 27.58125 92.4875 26.2375Q91.34688 24.89375 89.26875 24.878124L87.08125 24.878124ZM104.44063 37.55Q104.28438 37.2375 104.19063 36.440624Q102.925 37.753124 101.175 37.753124Q99.6125 37.753124 98.6125 36.8625Q97.6125 35.971874 97.6125 34.6125Q97.6125 32.971874 98.8625 32.065624Q100.12813 31.14375 102.39375 31.14375L104.15938 31.14375L104.15938 30.315624Q104.15938 29.3625 103.58125 28.8Q103.01875 28.2375 101.925 28.2375Q100.95625 28.2375 100.3 28.7375Q99.64375 29.221874 99.64375 29.909374L97.83125 29.909374Q97.83125 29.128124 98.39375 28.39375Q98.95625 27.64375 99.90938 27.221874Q100.87813 26.784374 102.03438 26.784374Q103.8625 26.784374 104.89375 27.70625Q105.925 28.6125 105.97188 30.221874L105.97188 35.08125Q105.97188 36.534374 106.33125 37.39375L106.33125 37.55L104.44063 37.55ZM101.44063 36.175Q102.3 36.175 103.05 35.7375Q103.81563 35.3 104.15938 34.596874L104.15938 32.425L102.7375 32.425Q99.425 32.425 99.425 34.3625Q99.425 35.221874 99.9875 35.70625Q100.55 36.175 101.44063 36.175ZM112.37813 34.909374L114.83125 26.9875L116.76875 26.9875L112.51875 39.175Q111.53438 41.815624 109.39375 41.815624L109.05 41.784374L108.37813 41.659374L108.37813 40.190624L108.8625 40.2375Q109.78438 40.2375 110.28438 39.8625Q110.8 39.4875 111.12813 38.503124L111.53438 37.425L107.76875 26.9875L109.7375 26.9875L112.37813 34.909374ZM124.06563 34.753124Q124.06563 34.01875 123.51875 33.6125Q122.97188 33.20625 121.59688 32.909374Q120.22188 32.6125 119.40938 32.20625Q118.6125 31.8 118.22188 31.2375Q117.84688 30.659374 117.84688 29.878124Q117.84688 28.58125 118.94063 27.690624Q120.03438 26.784374 121.75313 26.784374Q123.55 26.784374 124.65938 27.721874Q125.78438 28.64375 125.78438 30.08125L123.95625 30.08125Q123.95625 29.346874 123.33125 28.815624Q122.70625 28.26875 121.75313 28.26875Q120.75313 28.26875 120.19063 28.70625Q119.64375 29.128124 119.64375 29.83125Q119.64375 30.471874 120.15938 30.815624Q120.675 31.14375 122.03438 31.45625Q123.39375 31.753124 124.22188 32.175Q125.06563 32.58125 125.47188 33.175Q125.87813 33.76875 125.87813 34.6125Q125.87813 36.034374 124.7375 36.89375Q123.6125 37.753124 121.8 37.753124Q120.53438 37.753124 119.55 37.3Q118.58125 36.846874 118.01875 36.05Q117.47188 35.2375 117.47188 34.3L119.28438 34.3Q119.33125 35.20625 120.00313 35.7375Q120.69063 36.26875 121.8 36.26875Q122.83125 36.26875 123.44063 35.8625Q124.06563 35.440624 124.06563 34.753124ZM135.3625 24.425L135.3625 26.9875L137.34688 26.9875L137.34688 28.378124L135.3625 28.378124L135.3625 34.925Q135.3625 35.565624 135.62813 35.89375Q135.89375 36.20625 136.53438 36.20625Q136.84688 36.20625 137.39375 36.08125L137.39375 37.55Q136.675 37.753124 136.00313 37.753124Q134.8 37.753124 134.175 37.01875Q133.56563 36.284374 133.56563 34.925L133.56563 28.378124L131.64375 28.378124L131.64375 26.9875L133.56563 26.9875L133.56563 24.425L135.3625 24.425ZM139.44063 32.175Q139.44063 30.6125 140.05 29.378124Q140.65938 28.128124 141.7375 27.45625Q142.83125 26.784374 144.2375 26.784374Q146.39375 26.784374 147.72188 28.284374Q149.06563 29.76875 149.06563 32.253124L149.06563 32.378124Q149.06563 33.925 148.47188 35.159374Q147.87813 36.378124 146.76875 37.065624Q145.675 37.753124 144.25313 37.753124Q142.1125 37.753124 140.76875 36.253124Q139.44063 34.753124 139.44063 32.3L139.44063 32.175ZM141.25313 32.378124Q141.25313 34.14375 142.06563 35.20625Q142.89375 36.26875 144.25313 36.26875Q145.62813 36.26875 146.44063 35.190624Q147.25313 34.1125 147.25313 32.175Q147.25313 30.425 146.425 29.346874Q145.59688 28.26875 144.2375 28.26875Q142.89375 28.26875 142.06563 29.33125Q141.25313 30.39375 141.25313 32.378124ZM155.47188 32.175Q155.47188 29.753124 156.62813 28.26875Q157.78438 26.784374 159.64375 26.784374Q161.50313 26.784374 162.58125 28.05L162.58125 22.55L164.39375 22.55L164.39375 37.55L162.7375 37.55L162.64375 36.409374Q161.56563 37.753124 159.62813 37.753124Q157.8 37.753124 156.62813 36.253124Q155.47188 34.7375 155.47188 32.315624L155.47188 32.175ZM157.28438 32.378124Q157.28438 34.175 158.01875 35.190624Q158.76875 36.20625 160.08125 36.20625Q161.8 36.20625 162.58125 34.675L162.58125 29.815624Q161.78438 28.315624 160.09688 28.315624Q158.76875 28.315624 158.01875 29.346874Q157.28438 30.378124 157.28438 32.378124ZM172.01875 28.596874Q171.6125 28.534374 171.14375 28.534374Q169.3625 28.534374 168.72188 30.05L168.72188 37.55L166.925 37.55L166.925 26.9875L168.675 26.9875L168.70625 28.20625Q169.59688 26.784374 171.22188 26.784374Q171.75313 26.784374 172.01875 26.925L172.01875 28.596874ZM178.3 37.753124Q176.15938 37.753124 174.8 36.346874Q173.45625 34.925 173.45625 32.565624L173.45625 32.221874Q173.45625 30.659374 174.05 29.425Q174.65938 28.190624 175.7375 27.4875Q176.81563 26.784374 178.08125 26.784374Q180.14375 26.784374 181.28438 28.14375Q182.425 29.503124 182.425 32.034374L182.425 32.784374L175.26875 32.784374Q175.3 34.346874 176.175 35.315624Q177.05 36.26875 178.39375 36.26875Q179.3625 36.26875 180.01875 35.878124Q180.69063 35.4875 181.19063 34.846874L182.28438 35.70625Q180.95625 37.753124 178.3 37.753124ZM178.08125 28.26875Q176.9875 28.26875 176.2375 29.065624Q175.50313 29.8625 175.33125 31.3L180.6125 31.3L180.6125 31.159374Q180.53438 29.784374 179.8625 29.034374Q179.20625 28.26875 178.08125 28.26875ZM191.44063 37.55Q191.28438 37.2375 191.19063 36.440624Q189.925 37.753124 188.175 37.753124Q186.6125 37.753124 185.6125 36.8625Q184.6125 35.971874 184.6125 34.6125Q184.6125 32.971874 185.8625 32.065624Q187.12813 31.14375 189.39375 31.14375L191.15938 31.14375L191.15938 30.315624Q191.15938 29.3625 190.58125 28.8Q190.01875 28.2375 188.925 28.2375Q187.95625 28.2375 187.3 28.7375Q186.64375 29.221874 186.64375 29.909374L184.83125 29.909374Q184.83125 29.128124 185.39375 28.39375Q185.95625 27.64375 186.90938 27.221874Q187.87813 26.784374 189.03438 26.784374Q190.8625 26.784374 191.89375 27.70625Q192.925 28.6125 192.97188 30.221874L192.97188 35.08125Q192.97188 36.534374 193.33125 37.39375L193.33125 37.55L191.44063 37.55ZM188.44063 36.175Q189.3 36.175 190.05 35.7375Q190.81563 35.3 191.15938 34.596874L191.15938 32.425L189.7375 32.425Q186.425 32.425 186.425 34.3625Q186.425 35.221874 186.9875 35.70625Q187.55 36.175 188.44063 36.175ZM197.6125 26.9875L197.65938 28.159374Q198.83125 26.784374 200.8 26.784374Q203.01875 26.784374 203.81563 28.4875Q204.34688 27.721874 205.19063 27.253124Q206.03438 26.784374 207.19063 26.784374Q210.65938 26.784374 210.72188 30.471874L210.72188 37.55L208.90938 37.55L208.90938 30.58125Q208.90938 29.440624 208.39375 28.878124Q207.87813 28.315624 206.65938 28.315624Q205.65938 28.315624 204.9875 28.925Q204.33125 29.51875 204.22188 30.534374L204.22188 37.55L202.40938 37.55L202.40938 30.628124Q202.40938 28.315624 200.14375 28.315624Q198.3625 28.315624 197.72188 29.83125L197.72188 37.55L195.90938 37.55L195.90938 26.9875L197.6125 26.9875ZM218.84688 31.784374Q218.84688 29.565624 219.44063 27.534374Q220.03438 25.503124 221.20625 23.846874Q222.37813 22.190624 223.62813 21.503124L224.00313 22.690624Q222.58125 23.784374 221.65938 26.034374Q220.75313 28.284374 220.65938 31.065624L220.65938 31.89375Q220.65938 35.659374 222.03438 38.440624Q222.8625 40.096874 224.00313 41.034374L223.62813 42.14375Q222.33125 41.425 221.15938 39.721874Q218.84688 36.39375 218.84688 31.784374ZM235.05 37.55L225.7375 37.55L225.7375 36.253124L230.65938 30.784374Q231.75313 29.534374 232.15938 28.76875Q232.58125 27.9875 232.58125 27.159374Q232.58125 26.05 231.90938 25.33125Q231.2375 24.6125 230.1125 24.6125Q228.75313 24.6125 228.00313 25.39375Q227.26875 26.159374 227.26875 27.51875L225.45625 27.51875Q225.45625 25.55 226.72188 24.346874Q227.9875 23.128124 230.1125 23.128124Q232.09688 23.128124 233.2375 24.175Q234.39375 25.221874 234.39375 26.940624Q234.39375 29.05 231.72188 31.940624L227.90938 36.08125L235.05 36.08125L235.05 37.55ZM245.64375 31.4875Q245.64375 34.659374 244.56563 36.20625Q243.4875 37.753124 241.175 37.753124Q238.89375 37.753124 237.8 36.2375Q236.70625 34.721874 236.675 31.721874L236.675 29.315624Q236.675 26.175 237.75313 24.659374Q238.84688 23.128124 241.15938 23.128124Q243.45625 23.128124 244.53438 24.6125Q245.6125 26.08125 245.64375 29.14375L245.64375 31.4875ZM243.84688 29.01875Q243.84688 26.721874 243.19063 25.675Q242.55 24.6125 241.15938 24.6125Q239.76875 24.6125 239.12813 25.659374Q238.50313 26.70625 238.4875 28.878124L238.4875 31.76875Q238.4875 34.065624 239.14375 35.175Q239.81563 36.26875 241.175 36.26875Q242.51875 36.26875 243.15938 35.2375Q243.81563 34.20625 243.84688 31.971874L243.84688 29.01875ZM256.64374 31.4875Q256.64374 34.659374 255.56563 36.20625Q254.4875 37.753124 252.175 37.753124Q249.89375 37.753124 248.8 36.2375Q247.70625 34.721874 247.675 31.721874L247.675 29.315624Q247.675 26.175 248.75313 24.659374Q249.84688 23.128124 252.15938 23.128124Q254.45625 23.128124 255.53438 24.6125Q256.6125 26.08125 256.64374 29.14375L256.64374 31.4875ZM254.84688 29.01875Q254.84688 26.721874 254.19063 25.675Q253.55 24.6125 252.15938 24.6125Q250.76875 24.6125 250.12813 25.659374Q249.50313 26.70625 249.4875 28.878124L249.4875 31.76875Q249.4875 34.065624 250.14375 35.175Q250.81563 36.26875 252.175 36.26875Q253.51875 36.26875 254.15938 35.2375Q254.81563 34.20625 254.84688 31.971874L254.84688 29.01875ZM267.90936 24.346874L262.01874 37.55L260.1281 37.55L266.0031 24.815624L258.3 24.815624L258.3 23.33125L267.90936 23.33125L267.90936 24.346874ZM273.675 32.253124L268.90936 32.253124L268.90936 30.76875L273.675 30.76875L273.675 32.253124ZM285.05 37.55L275.7375 37.55L275.7375 36.253124L280.65936 30.784374Q281.7531 29.534374 282.15936 28.76875Q282.58124 27.9875 282.58124 27.159374Q282.58124 26.05 281.90936 25.33125Q281.2375 24.6125 280.1125 24.6125Q278.7531 24.6125 278.0031 25.39375Q277.26874 26.159374 277.26874 27.51875L275.45624 27.51875Q275.45624 25.55 276.72186 24.346874Q277.9875 23.128124 280.1125 23.128124Q282.09686 23.128124 283.2375 24.175Q284.39374 25.221874 284.39374 26.940624Q284.39374 29.05 281.72186 31.940624L277.90936 36.08125L285.05 36.08125L285.05 37.55ZM295.64374 31.4875Q295.64374 34.659374 294.5656 36.20625Q293.4875 37.753124 291.175 37.753124Q288.89374 37.753124 287.8 36.2375Q286.70624 34.721874 286.675 31.721874L286.675 29.315624Q286.675 26.175 287.7531 24.659374Q288.84686 23.128124 291.15936 23.128124Q293.45624 23.128124 294.53436 24.6125Q295.6125 26.08125 295.64374 29.14375L295.64374 31.4875ZM293.84686 29.01875Q293.84686 26.721874 293.1906 25.675Q292.55 24.6125 291.15936 24.6125Q289.76874 24.6125 289.1281 25.659374Q288.5031 26.70625 288.4875 28.878124L288.4875 31.76875Q288.4875 34.065624 289.14374 35.175Q289.8156 36.26875 291.175 36.26875Q292.51874 36.26875 293.15936 35.2375Q293.8156 34.20625 293.84686 31.971874L293.84686 29.01875ZM307.05 37.55L297.7375 37.55L297.7375 36.253124L302.65936 30.784374Q303.7531 29.534374 304.15936 28.76875Q304.58124 27.9875 304.58124 27.159374Q304.58124 26.05 303.90936 25.33125Q303.2375 24.6125 302.1125 24.6125Q300.7531 24.6125 300.0031 25.39375Q299.26874 26.159374 299.26874 27.51875L297.45624 27.51875Q297.45624 25.55 298.72186 24.346874Q299.9875 23.128124 302.1125 23.128124Q304.09686 23.128124 305.2375 24.175Q306.39374 25.221874 306.39374 26.940624Q306.39374 29.05 303.72186 31.940624L299.90936 36.08125L307.05 36.08125L307.05 37.55ZM314.675 37.55L312.84686 37.55L312.84686 25.503124L309.20624 26.846874L309.20624 25.20625L314.39374 23.26875L314.675 23.26875L314.675 37.55ZM324.08124 31.878124Q324.08124 34.05 323.5031 36.05Q322.9406 38.05 321.76874 39.7375Q320.59686 41.425 319.3 42.14375L318.925 41.034374Q320.425 39.878124 321.33124 37.45625Q322.2531 35.034374 322.26874 32.065624L322.26874 31.753124Q322.26874 29.70625 321.83124 27.940624Q321.40936 26.175 320.64374 24.784374Q319.8781 23.39375 318.925 22.6125L319.3 21.503124Q320.59686 22.221874 321.7531 23.89375Q322.925 25.55 323.5031 27.565624Q324.08124 29.58125 324.08124 31.878124Z" fill-rule="nonzero"/></svg>