<svg version="1.1" viewBox="0.0 0.0 600.0 371.0" fill="none" stroke="none" stroke-linecap="square" stroke-miterlimit="10" width="600" height="371" xmlns:xlink="http://www.w3.org/1999/xlink" xmlns="http://www.w3.org/2000/svg"><path fill="#ffffff" d="M0 0L600.0 0L600.0 371.0L0 371.0L0 0Z" fill-rule="nonzero"/><path fill="#4285f4" d="M300.0 54.916668C303.16885 54.916668 306.33688 55.017914 309.49924 55.220257L304.74963 129.4518C303.16843 129.35062 301.5844 129.3 300.0 129.3Z" fill-rule="nonzero"/><path fill="#db4437" d="M309.49924 55.220257C310.55328 55.287697 311.6066 55.366364 312.65897 55.456238L306.32947 129.56978C305.80328 129.52484 305.27664 129.48552 304.74963 129.4518Z" fill-rule="nonzero"/><path fill="#f4b400" d="M312.65897 55.456238C318.97528 55.995667 325.25064 56.93827 331.4467 58.27829L315.72336 130.9808C312.6253 130.3108 309.48764 129.8395 306.32947 129.56978Z" fill-rule="nonzero"/><path fill="#0f9d58" d="M331.4467 58.27829C340.74472 60.289173 349.82843 63.187267 358.57306 66.93277L329.28653 135.30804C324.9142 133.4353 320.37238 131.98625 315.72336 130.9808Z" fill-rule="nonzero"/><path fill="#ff6d00" d="M358.57306 66.93277C367.3177 70.67827 375.6829 75.2539 383.55374 80.59681L341.7769 142.14008C337.84143 139.46861 333.65884 137.1808 329.28653 135.30804Z" fill-rule="nonzero"/><path fill="#46bdc6" d="M383.55374 80.59681C431.13892 112.89863 455.84232 169.73552 446.99655 226.56429L373.49826 215.12381C377.92114 186.70943 365.56946 158.29099 341.7769 142.14008Z" fill-rule="nonzero"/><path fill="#ab30c4" d="M446.99655 226.56429C442.08127 258.14203 427.12787 287.29758 404.35037 309.71408L352.1752 256.6987C363.56393 245.49045 371.04062 230.91269 373.49826 215.12381Z" fill-rule="nonzero"/><path fill="#3949ab" d="M167.6282 271.57465C143.9747 225.45598 146.02959 170.35083 173.0522 126.12189C200.07481 81.89294 248.1693 54.916668 300.0 54.916668L300.0 129.3C274.08466 129.3 250.03741 142.78813 236.52611 164.9026C223.0148 187.01707 221.98735 214.56966 233.8141 237.629Z" fill-rule="nonzero"/><path fill="#c1bc1f" d="M404.35037 309.71408C370.60837 342.92133 323.07568 358.0863 276.33664 350.55597C229.59761 343.0256 189.23315 313.6991 167.6282 271.57465L233.8141 237.629C244.61658 258.69122 264.7988 273.35446 288.16833 277.11966C311.53784 280.88483 335.3042 273.30234 352.1752 256.6987Z" fill-rule="nonzero"/><path fill="#000000" d="M370.2338 158.72366L370.74942 153.75491L375.84317 153.75491L375.84317 154.92679L371.81192 154.92679L371.51505 157.62991Q372.24942 157.20804 373.1713 157.20804Q374.53067 157.20804 375.32755 158.11429Q376.14005 159.00491 376.14005 160.53616Q376.14005 162.06741 375.2963 162.95804Q374.46817 163.84866 372.9838 163.84866Q371.6713 163.84866 370.82755 163.11429Q369.99942 162.37991 369.87442 161.08304L371.07755 161.08304Q371.18692 161.94241 371.6713 162.37991Q372.1713 162.81741 372.9838 162.81741Q373.8588 162.81741 374.3588 162.22366Q374.87442 161.61429 374.87442 160.55179Q374.87442 159.55179 374.32755 158.95804Q373.78067 158.34866 372.87442 158.34866Q372.06192 158.34866 371.57755 158.70804L371.24942 158.97366L370.2338 158.72366ZM379.49942 158.11429L380.43692 158.11429Q381.34317 158.09866 381.84317 157.64554Q382.3588 157.19241 382.3588 156.41116Q382.3588 154.66116 380.62442 154.66116Q379.7963 154.66116 379.31192 155.12991Q378.82755 155.59866 378.82755 156.36429L377.56192 156.36429Q377.56192 155.17679 378.4213 154.39554Q379.2963 153.61429 380.62442 153.61429Q382.03067 153.61429 382.82755 154.36429Q383.62442 155.11429 383.62442 156.42679Q383.62442 157.08304 383.20255 157.69241Q382.7963 158.30179 382.06192 158.59866Q382.89005 158.86429 383.32755 159.47366Q383.78067 160.06741 383.78067 160.92679Q383.78067 162.27054 382.90567 163.06741Q382.03067 163.84866 380.62442 163.84866Q379.2338 163.84866 378.34317 163.09866Q377.46817 162.33304 377.46817 161.08304L378.74942 161.08304Q378.74942 161.86429 379.24942 162.34866Q379.76505 162.81741 380.62442 162.81741Q381.5463 162.81741 382.03067 162.33304Q382.51505 161.84866 382.51505 160.95804Q382.51505 160.09866 381.9838 159.62991Q381.45255 159.16116 380.43692 159.14554L379.49942 159.14554L379.49942 158.11429ZM388.7338 159.66116Q388.7338 158.12991 389.14005 156.70804Q389.56192 155.28616 390.37442 154.12991Q391.20255 152.95804 392.09317 152.47366L392.34317 153.31741Q391.34317 154.08304 390.70255 155.66116Q390.07755 157.22366 390.01505 159.16116L389.99942 159.75491Q389.99942 162.39554 390.96817 164.33304Q391.5463 165.48929 392.34317 166.14554L392.09317 166.92679Q391.1713 166.41116 390.34317 165.22366Q388.7338 162.89554 388.7338 159.66116ZM397.81192 163.70804L396.5463 163.70804L396.5463 155.28616L393.9838 156.20804L393.9838 155.06741L397.6088 153.70804L397.81192 153.70804L397.81192 163.70804ZM407.68692 156.34866Q407.68692 157.09866 407.2963 157.67679Q406.90567 158.25491 406.2338 158.58304Q407.01505 158.92679 407.46817 159.56741Q407.9213 160.20804 407.9213 161.02054Q407.9213 162.31741 407.0463 163.08304Q406.18692 163.84866 404.76505 163.84866Q403.32755 163.84866 402.45255 163.08304Q401.59317 162.30179 401.59317 161.02054Q401.59317 160.20804 402.03067 159.56741Q402.46817 158.91116 403.24942 158.58304Q402.59317 158.25491 402.20255 157.67679Q401.82755 157.08304 401.82755 156.34866Q401.82755 155.09866 402.62442 154.36429Q403.43692 153.61429 404.76505 153.61429Q406.07755 153.61429 406.87442 154.36429Q407.68692 155.09866 407.68692 156.34866ZM406.65567 160.98929Q406.65567 160.16116 406.12442 159.64554Q405.59317 159.11429 404.7338 159.11429Q403.89005 159.11429 403.37442 159.62991Q402.8588 160.14554 402.8588 161.00491Q402.8588 161.84866 403.3588 162.33304Q403.8588 162.81741 404.76505 162.81741Q405.64005 162.81741 406.14005 162.33304Q406.65567 161.83304 406.65567 160.98929ZM404.76505 154.66116Q404.01505 154.66116 403.5463 155.12991Q403.09317 155.58304 403.09317 156.37991Q403.09317 157.12991 403.5463 157.59866Q403.99942 158.06741 404.74942 158.06741Q405.51505 158.06741 405.96817 157.59866Q406.4213 157.12991 406.4213 156.37991Q406.4213 155.61429 405.95255 155.14554Q405.4838 154.66116 404.76505 154.66116ZM409.81192 163.05179Q409.81192 162.72366 409.99942 162.50491Q410.20255 162.28616 410.59317 162.28616Q410.9838 162.28616 411.18692 162.50491Q411.39005 162.72366 411.39005 163.05179Q411.39005 163.36429 411.18692 163.58304Q410.9838 163.78616 410.59317 163.78616Q410.20255 163.78616 409.99942 163.58304Q409.81192 163.36429 409.81192 163.05179ZM419.89005 159.45804Q419.89005 161.67679 419.12442 162.77054Q418.37442 163.84866 416.76505 163.84866Q415.1713 163.84866 414.40567 162.80179Q413.64005 161.73929 413.6088 159.62991L413.6088 157.94241Q413.6088 155.75491 414.3588 154.69241Q415.12442 153.61429 416.74942 153.61429Q418.3588 153.61429 419.1088 154.64554Q419.87442 155.67679 419.89005 157.81741L419.89005 159.45804ZM418.62442 157.73929Q418.62442 156.12991 418.1713 155.39554Q417.7338 154.66116 416.74942 154.66116Q415.78067 154.66116 415.32755 155.39554Q414.89005 156.11429 414.87442 157.62991L414.87442 159.66116Q414.87442 161.27054 415.34317 162.05179Q415.81192 162.81741 416.76505 162.81741Q417.70255 162.81741 418.15567 162.09866Q418.6088 161.36429 418.62442 159.80179L418.62442 157.73929ZM421.5463 155.66116Q421.5463 154.77054 422.1088 154.19241Q422.68692 153.61429 423.57755 153.61429Q424.49942 153.61429 425.06192 154.20804Q425.62442 154.78616 425.62442 155.70804L425.62442 156.19241Q425.62442 157.09866 425.0463 157.67679Q424.4838 158.23929 423.59317 158.23929Q422.70255 158.23929 422.12442 157.67679Q421.5463 157.09866 421.5463 156.14554L421.5463 155.66116ZM422.4838 156.19241Q422.4838 156.72366 422.78067 157.06741Q423.09317 157.41116 423.59317 157.41116Q424.07755 157.41116 424.37442 157.08304Q424.6713 156.75491 424.6713 156.16116L424.6713 155.66116Q424.6713 155.12991 424.37442 154.78616Q424.09317 154.44241 423.57755 154.44241Q423.07755 154.44241 422.78067 154.78616Q422.4838 155.12991 422.4838 155.69241L422.4838 156.19241ZM426.39005 161.27054Q426.39005 160.36429 426.95255 159.80179Q427.53067 159.22366 428.4213 159.22366Q429.32755 159.22366 429.89005 159.80179Q430.46817 160.36429 430.46817 161.31741L430.46817 161.80179Q430.46817 162.69241 429.89005 163.27054Q429.32755 163.84866 428.43692 163.84866Q427.56192 163.84866 426.96817 163.28616Q426.39005 162.70804 426.39005 161.75491L426.39005 161.27054ZM427.34317 161.80179Q427.34317 162.33304 427.64005 162.69241Q427.93692 163.03616 428.43692 163.03616Q428.93692 163.03616 429.2338 162.69241Q429.53067 162.34866 429.53067 161.77054L429.53067 161.27054Q429.53067 160.72366 429.21817 160.37991Q428.9213 160.03616 428.43692 160.03616Q427.93692 160.03616 427.64005 160.37991Q427.34317 160.72366 427.34317 161.30179L427.34317 161.80179ZM423.89005 162.95804L423.1713 162.50491L428.03067 154.72366L428.74942 155.17679L423.89005 162.95804ZM434.70255 159.73929Q434.70255 161.25491 434.2963 162.66116Q433.90567 164.05179 433.07755 165.23929Q432.24942 166.42679 431.3588 166.92679L431.09317 166.14554Q432.14005 165.34866 432.78067 163.64554Q433.4213 161.94241 433.43692 159.87991L433.43692 159.66116Q433.43692 158.22366 433.12442 156.98929Q432.82755 155.75491 432.2963 154.78616Q431.76505 153.80179 431.09317 153.25491L431.3588 152.47366Q432.24942 152.97366 433.06192 154.14554Q433.89005 155.31741 434.2963 156.72366Q434.70255 158.12991 434.70255 159.73929Z" fill-rule="nonzero"/><path fill="#ffffff" d="M368.4507 253.50806L369.3882 253.50806Q370.29446 253.49243 370.79446 253.0393Q371.3101 252.58618 371.3101 251.80493Q371.3101 250.05493 369.5757 250.05493Q368.7476 250.05493 368.2632 250.52368Q367.77884 250.99243 367.77884 251.75806L366.5132 251.75806Q366.5132 250.57056 367.3726 249.7893Q368.2476 249.00806 369.5757 249.00806Q370.98196 249.00806 371.77884 249.75806Q372.5757 250.50806 372.5757 251.82056Q372.5757 252.4768 372.15384 253.08618Q371.7476 253.69556 371.0132 253.99243Q371.84134 254.25806 372.27884 254.86743Q372.73196 255.46118 372.73196 256.32056Q372.73196 257.6643 371.85696 258.46118Q370.98196 259.24243 369.5757 259.24243Q368.1851 259.24243 367.29446 258.49243Q366.41946 257.7268 366.41946 256.4768L367.7007 256.4768Q367.7007 257.25806 368.2007 257.74243Q368.71634 258.21118 369.5757 258.21118Q370.4976 258.21118 370.98196 257.7268Q371.46634 257.24243 371.46634 256.3518Q371.46634 255.49243 370.9351 255.02368Q370.40384 254.55493 369.3882 254.5393L368.4507 254.5393L368.4507 253.50806ZM380.84134 254.8518Q380.84134 257.07056 380.0757 258.1643Q379.3257 259.24243 377.71634 259.24243Q376.1226 259.24243 375.35696 258.19556Q374.59134 257.13306 374.5601 255.02368L374.5601 253.33618Q374.5601 251.14868 375.3101 250.08618Q376.0757 249.00806 377.7007 249.00806Q379.3101 249.00806 380.0601 250.0393Q380.8257 251.07056 380.84134 253.21118L380.84134 254.8518ZM379.5757 253.13306Q379.5757 251.52368 379.1226 250.7893Q378.6851 250.05493 377.7007 250.05493Q376.73196 250.05493 376.27884 250.7893Q375.84134 251.50806 375.8257 253.02368L375.8257 255.05493Q375.8257 256.6643 376.29446 257.44556Q376.7632 258.21118 377.71634 258.21118Q378.65384 258.21118 379.10696 257.49243Q379.5601 256.75806 379.5757 255.19556L379.5757 253.13306ZM385.6851 255.05493Q385.6851 253.52368 386.09134 252.1018Q386.5132 250.67993 387.3257 249.52368Q388.15384 248.3518 389.04446 247.86743L389.29446 248.71118Q388.29446 249.4768 387.65384 251.05493Q387.02884 252.61743 386.96634 254.55493L386.9507 255.14868Q386.9507 257.7893 387.91946 259.7268Q388.4976 260.88306 389.29446 261.5393L389.04446 262.32056Q388.1226 261.80493 387.29446 260.61743Q385.6851 258.2893 385.6851 255.05493ZM394.7632 259.1018L393.4976 259.1018L393.4976 250.67993L390.9351 251.6018L390.9351 250.46118L394.5601 249.1018L394.7632 249.1018L394.7632 259.1018ZM404.84134 254.8518Q404.84134 257.07056 404.0757 258.1643Q403.3257 259.24243 401.71634 259.24243Q400.1226 259.24243 399.35696 258.19556Q398.59134 257.13306 398.5601 255.02368L398.5601 253.33618Q398.5601 251.14868 399.3101 250.08618Q400.0757 249.00806 401.7007 249.00806Q403.3101 249.00806 404.0601 250.0393Q404.8257 251.07056 404.84134 253.21118L404.84134 254.8518ZM403.5757 253.13306Q403.5757 251.52368 403.1226 250.7893Q402.6851 250.05493 401.7007 250.05493Q400.73196 250.05493 400.27884 250.7893Q399.84134 251.50806 399.8257 253.02368L399.8257 255.05493Q399.8257 256.6643 400.29446 257.44556Q400.7632 258.21118 401.71634 258.21118Q402.65384 258.21118 403.10696 257.49243Q403.5601 256.75806 403.5757 255.19556L403.5757 253.13306ZM406.7632 258.44556Q406.7632 258.11743 406.9507 257.89868Q407.15384 257.67993 407.54446 257.67993Q407.9351 257.67993 408.1382 257.89868Q408.34134 258.11743 408.34134 258.44556Q408.34134 258.75806 408.1382 258.9768Q407.9351 259.17993 407.54446 259.17993Q407.15384 259.17993 406.9507 258.9768Q406.7632 258.75806 406.7632 258.44556ZM417.1226 259.1018L410.60696 259.1018L410.60696 258.19556L414.04446 254.36743Q414.8101 253.49243 415.10696 252.96118Q415.40384 252.4143 415.40384 251.82056Q415.40384 251.05493 414.91946 250.55493Q414.4507 250.05493 413.66946 250.05493Q412.73196 250.05493 412.2007 250.58618Q411.6851 251.11743 411.6851 252.08618L410.41946 252.08618Q410.41946 250.71118 411.29446 249.86743Q412.1851 249.00806 413.66946 249.00806Q415.0601 249.00806 415.85696 249.74243Q416.66946 250.46118 416.66946 251.67993Q416.66946 253.14868 414.79446 255.17993L412.1382 258.07056L417.1226 258.07056L417.1226 259.1018ZM418.4976 251.05493Q418.4976 250.1643 419.0601 249.58618Q419.6382 249.00806 420.52884 249.00806Q421.4507 249.00806 422.0132 249.6018Q422.5757 250.17993 422.5757 251.1018L422.5757 251.58618Q422.5757 252.49243 421.9976 253.07056Q421.4351 253.63306 420.54446 253.63306Q419.65384 253.63306 419.0757 253.07056Q418.4976 252.49243 418.4976 251.5393L418.4976 251.05493ZM419.4351 251.58618Q419.4351 252.11743 419.73196 252.46118Q420.04446 252.80493 420.54446 252.80493Q421.02884 252.80493 421.3257 252.4768Q421.6226 252.14868 421.6226 251.55493L421.6226 251.05493Q421.6226 250.52368 421.3257 250.17993Q421.04446 249.83618 420.52884 249.83618Q420.02884 249.83618 419.73196 250.17993Q419.4351 250.52368 419.4351 251.08618L419.4351 251.58618ZM423.34134 256.6643Q423.34134 255.75806 423.90384 255.19556Q424.48196 254.61743 425.3726 254.61743Q426.27884 254.61743 426.84134 255.19556Q427.41946 255.75806 427.41946 256.71118L427.41946 257.19556Q427.41946 258.08618 426.84134 258.6643Q426.27884 259.24243 425.3882 259.24243Q424.5132 259.24243 423.91946 258.67993Q423.34134 258.1018 423.34134 257.14868L423.34134 256.6643ZM424.29446 257.19556Q424.29446 257.7268 424.59134 258.08618Q424.8882 258.42993 425.3882 258.42993Q425.8882 258.42993 426.1851 258.08618Q426.48196 257.74243 426.48196 257.1643L426.48196 256.6643Q426.48196 256.11743 426.16946 255.77368Q425.8726 255.42993 425.3882 255.42993Q424.8882 255.42993 424.59134 255.77368Q424.29446 256.11743 424.29446 256.69556L424.29446 257.19556ZM420.84134 258.3518L420.1226 257.89868L424.98196 250.11743L425.7007 250.57056L420.84134 258.3518ZM431.65384 255.13306Q431.65384 256.64868 431.2476 258.05493Q430.85696 259.44556 430.02884 260.63306Q429.2007 261.82056 428.3101 262.32056L428.04446 261.5393Q429.09134 260.74243 429.73196 259.0393Q430.3726 257.33618 430.3882 255.27368L430.3882 255.05493Q430.3882 253.61743 430.0757 252.38306Q429.77884 251.14868 429.2476 250.17993Q428.71634 249.19556 428.04446 248.64868L428.3101 247.86743Q429.2007 248.36743 430.0132 249.5393Q430.84134 250.71118 431.2476 252.11743Q431.65384 253.52368 431.65384 255.13306Z" fill-rule="nonzero"/><path fill="#000000" d="M255.61186 310.97842Q255.61186 311.72842 255.22124 312.30655Q254.83061 312.88467 254.15874 313.2128Q254.93999 313.55655 255.39311 314.19717Q255.84624 314.8378 255.84624 315.6503Q255.84624 316.94717 254.97124 317.7128Q254.11186 318.47842 252.68999 318.47842Q251.25249 318.47842 250.37749 317.7128Q249.51811 316.93155 249.51811 315.6503Q249.51811 314.8378 249.95561 314.19717Q250.39311 313.54092 251.17436 313.2128Q250.51811 312.88467 250.12749 312.30655Q249.75249 311.7128 249.75249 310.97842Q249.75249 309.72842 250.54936 308.99405Q251.36186 308.24405 252.68999 308.24405Q254.00249 308.24405 254.79936 308.99405Q255.61186 309.72842 255.61186 310.97842ZM254.58061 315.61905Q254.58061 314.79092 254.04936 314.2753Q253.51811 313.74405 252.65874 313.74405Q251.81499 313.74405 251.29936 314.25967Q250.78374 314.7753 250.78374 315.63467Q250.78374 316.47842 251.28374 316.9628Q251.78374 317.44717 252.68999 317.44717Q253.56499 317.44717 254.06499 316.9628Q254.58061 316.4628 254.58061 315.61905ZM252.68999 309.29092Q251.93999 309.29092 251.47124 309.75967Q251.01811 310.2128 251.01811 311.00967Q251.01811 311.75967 251.47124 312.22842Q251.92436 312.69717 252.67436 312.69717Q253.43999 312.69717 253.89311 312.22842Q254.34624 311.75967 254.34624 311.00967Q254.34624 310.24405 253.87749 309.7753Q253.40874 309.29092 252.68999 309.29092ZM263.61188 310.97842Q263.61188 311.72842 263.22125 312.30655Q262.83063 312.88467 262.15875 313.2128Q262.94 313.55655 263.39313 314.19717Q263.84625 314.8378 263.84625 315.6503Q263.84625 316.94717 262.97125 317.7128Q262.11188 318.47842 260.69 318.47842Q259.2525 318.47842 258.3775 317.7128Q257.51813 316.93155 257.51813 315.6503Q257.51813 314.8378 257.95563 314.19717Q258.39313 313.54092 259.17438 313.2128Q258.51813 312.88467 258.1275 312.30655Q257.7525 311.7128 257.7525 310.97842Q257.7525 309.72842 258.54938 308.99405Q259.36188 308.24405 260.69 308.24405Q262.0025 308.24405 262.79938 308.99405Q263.61188 309.72842 263.61188 310.97842ZM262.58063 315.61905Q262.58063 314.79092 262.04938 314.2753Q261.51813 313.74405 260.65875 313.74405Q259.815 313.74405 259.29938 314.25967Q258.78375 314.7753 258.78375 315.63467Q258.78375 316.47842 259.28375 316.9628Q259.78375 317.44717 260.69 317.44717Q261.565 317.44717 262.065 316.9628Q262.58063 316.4628 262.58063 315.61905ZM260.69 309.29092Q259.94 309.29092 259.47125 309.75967Q259.01813 310.2128 259.01813 311.00967Q259.01813 311.75967 259.47125 312.22842Q259.92438 312.69717 260.67438 312.69717Q261.44 312.69717 261.89313 312.22842Q262.34625 311.75967 262.34625 311.00967Q262.34625 310.24405 261.8775 309.7753Q261.40875 309.29092 260.69 309.29092ZM268.65875 314.29092Q268.65875 312.75967 269.065 311.3378Q269.48688 309.91592 270.29938 308.75967Q271.1275 307.5878 272.01813 307.10342L272.26813 307.94717Q271.26813 308.7128 270.6275 310.29092Q270.0025 311.85342 269.94 313.79092L269.92438 314.38467Q269.92438 317.0253 270.89313 318.9628Q271.47125 320.11905 272.26813 320.7753L272.01813 321.55655Q271.09625 321.04092 270.26813 319.85342Q268.65875 317.5253 268.65875 314.29092ZM280.09625 318.3378L273.58063 318.3378L273.58063 317.43155L277.01813 313.60342Q277.78375 312.72842 278.08063 312.19717Q278.3775 311.6503 278.3775 311.05655Q278.3775 310.29092 277.89313 309.79092Q277.42438 309.29092 276.64313 309.29092Q275.70563 309.29092 275.17438 309.82217Q274.65875 310.35342 274.65875 311.32217L273.39313 311.32217Q273.39313 309.94717 274.26813 309.10342Q275.15875 308.24405 276.64313 308.24405Q278.03375 308.24405 278.83063 308.97842Q279.64313 309.69717 279.64313 310.91592Q279.64313 312.38467 277.76813 314.41592L275.11188 317.30655L280.09625 317.30655L280.09625 318.3378ZM286.42438 313.9628Q286.03375 314.43155 285.47125 314.72842Q284.92438 315.00967 284.26813 315.00967Q283.40875 315.00967 282.76813 314.5878Q282.1275 314.16592 281.78375 313.4003Q281.44 312.61905 281.44 311.69717Q281.44 310.69717 281.815 309.9003Q282.19 309.0878 282.89313 308.66592Q283.59625 308.24405 284.51813 308.24405Q286.0025 308.24405 286.84625 309.35342Q287.70563 310.4628 287.70563 312.36905L287.70563 312.72842Q287.70563 315.63467 286.54938 316.97842Q285.40875 318.30655 283.08063 318.3378L282.83063 318.3378L282.83063 317.2753L283.11188 317.2753Q284.67438 317.24405 285.5025 316.4628Q286.34625 315.66592 286.42438 313.9628ZM284.47125 313.9628Q285.11188 313.9628 285.64313 313.57217Q286.19 313.18155 286.44 312.60342L286.44 312.10342Q286.44 310.85342 285.89313 310.0878Q285.34625 309.30655 284.53375 309.30655Q283.69 309.30655 283.17438 309.94717Q282.67438 310.57217 282.67438 311.61905Q282.67438 312.6503 283.15875 313.30655Q283.65875 313.9628 284.47125 313.9628ZM289.73688 317.68155Q289.73688 317.35342 289.92438 317.13467Q290.1275 316.91592 290.51813 316.91592Q290.90875 316.91592 291.11188 317.13467Q291.315 317.35342 291.315 317.68155Q291.315 317.99405 291.11188 318.2128Q290.90875 318.41592 290.51813 318.41592Q290.1275 318.41592 289.92438 318.2128Q289.73688 317.99405 289.73688 317.68155ZM299.61188 310.97842Q299.61188 311.72842 299.22125 312.30655Q298.83063 312.88467 298.15875 313.2128Q298.94 313.55655 299.39313 314.19717Q299.84625 314.8378 299.84625 315.6503Q299.84625 316.94717 298.97125 317.7128Q298.11188 318.47842 296.69 318.47842Q295.2525 318.47842 294.3775 317.7128Q293.51813 316.93155 293.51813 315.6503Q293.51813 314.8378 293.95563 314.19717Q294.39313 313.54092 295.17438 313.2128Q294.51813 312.88467 294.1275 312.30655Q293.7525 311.7128 293.7525 310.97842Q293.7525 309.72842 294.54938 308.99405Q295.36188 308.24405 296.69 308.24405Q298.0025 308.24405 298.79938 308.99405Q299.61188 309.72842 299.61188 310.97842ZM298.58063 315.61905Q298.58063 314.79092 298.04938 314.2753Q297.51813 313.74405 296.65875 313.74405Q295.815 313.74405 295.29938 314.25967Q294.78375 314.7753 294.78375 315.63467Q294.78375 316.47842 295.28375 316.9628Q295.78375 317.44717 296.69 317.44717Q297.565 317.44717 298.065 316.9628Q298.58063 316.4628 298.58063 315.61905ZM296.69 309.29092Q295.94 309.29092 295.47125 309.75967Q295.01813 310.2128 295.01813 311.00967Q295.01813 311.75967 295.47125 312.22842Q295.92438 312.69717 296.67438 312.69717Q297.44 312.69717 297.89313 312.22842Q298.34625 311.75967 298.34625 311.00967Q298.34625 310.24405 297.8775 309.7753Q297.40875 309.29092 296.69 309.29092ZM301.47125 310.29092Q301.47125 309.4003 302.03375 308.82217Q302.61188 308.24405 303.5025 308.24405Q304.42438 308.24405 304.98688 308.8378Q305.54938 309.41592 305.54938 310.3378L305.54938 310.82217Q305.54938 311.72842 304.97125 312.30655Q304.40875 312.86905 303.51813 312.86905Q302.6275 312.86905 302.04938 312.30655Q301.47125 311.72842 301.47125 310.7753L301.47125 310.29092ZM302.40875 310.82217Q302.40875 311.35342 302.70563 311.69717Q303.01813 312.04092 303.51813 312.04092Q304.0025 312.04092 304.29938 311.7128Q304.59625 311.38467 304.59625 310.79092L304.59625 310.29092Q304.59625 309.75967 304.29938 309.41592Q304.01813 309.07217 303.5025 309.07217Q303.0025 309.07217 302.70563 309.41592Q302.40875 309.75967 302.40875 310.32217L302.40875 310.82217ZM306.315 315.9003Q306.315 314.99405 306.8775 314.43155Q307.45563 313.85342 308.34625 313.85342Q309.2525 313.85342 309.815 314.43155Q310.39313 314.99405 310.39313 315.94717L310.39313 316.43155Q310.39313 317.32217 309.815 317.9003Q309.2525 318.47842 308.36188 318.47842Q307.48688 318.47842 306.89313 317.91592Q306.315 317.3378 306.315 316.38467L306.315 315.9003ZM307.26813 316.43155Q307.26813 316.9628 307.565 317.32217Q307.86188 317.66592 308.36188 317.66592Q308.86188 317.66592 309.15875 317.32217Q309.45563 316.97842 309.45563 316.4003L309.45563 315.9003Q309.45563 315.35342 309.14313 315.00967Q308.84625 314.66592 308.36188 314.66592Q307.86188 314.66592 307.565 315.00967Q307.26813 315.35342 307.26813 315.93155L307.26813 316.43155ZM303.815 317.5878L303.09625 317.13467L307.95563 309.35342L308.67438 309.80655L303.815 317.5878ZM314.6275 314.36905Q314.6275 315.88467 314.22125 317.29092Q313.83063 318.68155 313.0025 319.86905Q312.17438 321.05655 311.28375 321.55655L311.01813 320.7753Q312.065 319.97842 312.70563 318.2753Q313.34625 316.57217 313.36188 314.50967L313.36188 314.29092Q313.36188 312.85342 313.04938 311.61905Q312.7525 310.38467 312.22125 309.41592Q311.69 308.43155 311.01813 307.88467L311.28375 307.10342Q312.17438 307.60342 312.98688 308.7753Q313.815 309.94717 314.22125 311.35342Q314.6275 312.75967 314.6275 314.36905Z" fill-rule="nonzero"/><path fill="#ffffff" d="M176.96103 145.63725Q176.5704 146.106 176.0079 146.40288Q175.46103 146.68413 174.80478 146.68413Q173.9454 146.68413 173.30478 146.26225Q172.66415 145.84038 172.3204 145.07475Q171.97665 144.2935 171.97665 143.37163Q171.97665 142.37163 172.35165 141.57475Q172.72665 140.76225 173.42978 140.34038Q174.1329 139.9185 175.05478 139.9185Q176.53915 139.9185 177.3829 141.02788Q178.24228 142.13725 178.24228 144.0435L178.24228 144.40288Q178.24228 147.30913 177.08603 148.65288Q175.9454 149.981 173.61728 150.01225L173.36728 150.01225L173.36728 148.94975L173.64853 148.94975Q175.21103 148.9185 176.03915 148.13725Q176.8829 147.34038 176.96103 145.63725ZM175.0079 145.63725Q175.64853 145.63725 176.17978 145.24663Q176.72665 144.856 176.97665 144.27788L176.97665 143.77788Q176.97665 142.52788 176.42978 141.76225Q175.8829 140.981 175.0704 140.981Q174.22665 140.981 173.71103 141.62163Q173.21103 142.24663 173.21103 143.2935Q173.21103 144.32475 173.6954 144.981Q174.1954 145.63725 175.0079 145.63725ZM185.08603 140.05913L185.08603 141.12163L184.85165 141.12163Q183.36728 141.15288 182.49228 141.99663Q181.61728 142.84038 181.47665 144.38725Q182.27353 143.481 183.6329 143.481Q184.92978 143.481 185.6954 144.40288Q186.47665 145.30913 186.47665 146.76225Q186.47665 148.30913 185.6329 149.231Q184.80478 150.15288 183.39853 150.15288Q181.97665 150.15288 181.08603 149.05913Q180.1954 147.94975 180.1954 146.231L180.1954 145.74663Q180.1954 142.99663 181.36728 141.5435Q182.53915 140.09038 184.85165 140.05913L185.08603 140.05913ZM183.41415 144.5435Q182.77353 144.5435 182.22665 144.93413Q181.67978 145.30913 181.46103 145.90288L181.46103 146.37163Q181.46103 147.606 182.0079 148.356Q182.5704 149.106 183.39853 149.106Q184.2579 149.106 184.74228 148.481Q185.22665 147.84038 185.22665 146.82475Q185.22665 145.7935 184.72665 145.1685Q184.24228 144.5435 183.41415 144.5435ZM191.1954 145.96538Q191.1954 144.43413 191.60165 143.01225Q192.02353 141.59038 192.83603 140.43413Q193.66415 139.26225 194.55478 138.77788L194.80478 139.62163Q193.80478 140.38725 193.16415 141.96538Q192.53915 143.52788 192.47665 145.46538L192.46103 146.05913Q192.46103 148.69975 193.42978 150.63725Q194.0079 151.7935 194.80478 152.44975L194.55478 153.231Q193.6329 152.71538 192.80478 151.52788Q191.1954 149.19975 191.1954 145.96538ZM197.96103 144.4185L198.89853 144.4185Q199.80478 144.40288 200.30478 143.94975Q200.8204 143.49663 200.8204 142.71538Q200.8204 140.96538 199.08603 140.96538Q198.2579 140.96538 197.77353 141.43413Q197.28915 141.90288 197.28915 142.6685L196.02353 142.6685Q196.02353 141.481 196.8829 140.69975Q197.7579 139.9185 199.08603 139.9185Q200.49228 139.9185 201.28915 140.6685Q202.08603 141.4185 202.08603 142.731Q202.08603 143.38725 201.66415 143.99663Q201.2579 144.606 200.52353 144.90288Q201.35165 145.1685 201.78915 145.77788Q202.24228 146.37163 202.24228 147.231Q202.24228 148.57475 201.36728 149.37163Q200.49228 150.15288 199.08603 150.15288Q197.6954 150.15288 196.80478 149.40288Q195.92978 148.63725 195.92978 147.38725L197.21103 147.38725Q197.21103 148.1685 197.71103 148.65288Q198.22665 149.12163 199.08603 149.12163Q200.0079 149.12163 200.49228 148.63725Q200.97665 148.15288 200.97665 147.26225Q200.97665 146.40288 200.4454 145.93413Q199.91415 145.46538 198.89853 145.44975L197.96103 145.44975L197.96103 144.4185ZM210.6329 150.01225L204.11728 150.01225L204.11728 149.106L207.55478 145.27788Q208.3204 144.40288 208.61728 143.87163Q208.91415 143.32475 208.91415 142.731Q208.91415 141.96538 208.42978 141.46538Q207.96103 140.96538 207.17978 140.96538Q206.24228 140.96538 205.71103 141.49663Q205.1954 142.02788 205.1954 142.99663L203.92978 142.99663Q203.92978 141.62163 204.80478 140.77788Q205.6954 139.9185 207.17978 139.9185Q208.5704 139.9185 209.36728 140.65288Q210.17978 141.37163 210.17978 142.59038Q210.17978 144.05913 208.30478 146.09038L205.64853 148.981L210.6329 148.981L210.6329 150.01225ZM212.27353 149.356Q212.27353 149.02788 212.46103 148.80913Q212.66415 148.59038 213.05478 148.59038Q213.4454 148.59038 213.64853 148.80913Q213.85165 149.02788 213.85165 149.356Q213.85165 149.6685 213.64853 149.88725Q213.4454 150.09038 213.05478 150.09038Q212.66415 150.09038 212.46103 149.88725Q212.27353 149.6685 212.27353 149.356ZM216.6954 145.02788L217.21103 140.05913L222.30478 140.05913L222.30478 141.231L218.27353 141.231L217.97665 143.93413Q218.71103 143.51225 219.6329 143.51225Q220.99228 143.51225 221.78915 144.4185Q222.60165 145.30913 222.60165 146.84038Q222.60165 148.37163 221.7579 149.26225Q220.92978 150.15288 219.4454 150.15288Q218.1329 150.15288 217.28915 149.4185Q216.46103 148.68413 216.33603 147.38725L217.53915 147.38725Q217.64853 148.24663 218.1329 148.68413Q218.6329 149.12163 219.4454 149.12163Q220.3204 149.12163 220.8204 148.52788Q221.33603 147.9185 221.33603 146.856Q221.33603 145.856 220.78915 145.26225Q220.24228 144.65288 219.33603 144.65288Q218.52353 144.65288 218.03915 145.01225L217.71103 145.27788L216.6954 145.02788ZM224.0079 141.96538Q224.0079 141.07475 224.5704 140.49663Q225.14853 139.9185 226.03915 139.9185Q226.96103 139.9185 227.52353 140.51225Q228.08603 141.09038 228.08603 142.01225L228.08603 142.49663Q228.08603 143.40288 227.5079 143.981Q226.9454 144.5435 226.05478 144.5435Q225.16415 144.5435 224.58603 143.981Q224.0079 143.40288 224.0079 142.44975L224.0079 141.96538ZM224.9454 142.49663Q224.9454 143.02788 225.24228 143.37163Q225.55478 143.71538 226.05478 143.71538Q226.53915 143.71538 226.83603 143.38725Q227.1329 143.05913 227.1329 142.46538L227.1329 141.96538Q227.1329 141.43413 226.83603 141.09038Q226.55478 140.74663 226.03915 140.74663Q225.53915 140.74663 225.24228 141.09038Q224.9454 141.43413 224.9454 141.99663L224.9454 142.49663ZM228.85165 147.57475Q228.85165 146.6685 229.41415 146.106Q229.99228 145.52788 230.8829 145.52788Q231.78915 145.52788 232.35165 146.106Q232.92978 146.6685 232.92978 147.62163L232.92978 148.106Q232.92978 148.99663 232.35165 149.57475Q231.78915 150.15288 230.89853 150.15288Q230.02353 150.15288 229.42978 149.59038Q228.85165 149.01225 228.85165 148.05913L228.85165 147.57475ZM229.80478 148.106Q229.80478 148.63725 230.10165 148.99663Q230.39853 149.34038 230.89853 149.34038Q231.39853 149.34038 231.6954 148.99663Q231.99228 148.65288 231.99228 148.07475L231.99228 147.57475Q231.99228 147.02788 231.67978 146.68413Q231.3829 146.34038 230.89853 146.34038Q230.39853 146.34038 230.10165 146.68413Q229.80478 147.02788 229.80478 147.606L229.80478 148.106ZM226.35165 149.26225L225.6329 148.80913L230.49228 141.02788L231.21103 141.481L226.35165 149.26225ZM237.16415 146.0435Q237.16415 147.55913 236.7579 148.96538Q236.36728 150.356 235.53915 151.5435Q234.71103 152.731 233.8204 153.231L233.55478 152.44975Q234.60165 151.65288 235.24228 149.94975Q235.8829 148.24663 235.89853 146.18413L235.89853 145.96538Q235.89853 144.52788 235.58603 143.2935Q235.28915 142.05913 234.7579 141.09038Q234.22665 140.106 233.55478 139.55913L233.8204 138.77788Q234.71103 139.27788 235.52353 140.44975Q236.35165 141.62163 236.7579 143.02788Q237.16415 144.43413 237.16415 146.0435Z" fill-rule="nonzero"/><path fill="#757575" d="M31.14375 122.499954L19.971874 122.499954L19.971874 120.937454L25.878124 114.374954Q27.190624 112.89058 27.690624 111.968704Q28.190624 111.031204 28.190624 110.031204Q28.190624 108.687454 27.378124 107.843704Q26.565624 106.98433 25.221874 106.98433Q23.596874 106.98433 22.70625 107.906204Q21.815624 108.82808 21.815624 110.468704L19.64375 110.468704Q19.64375 108.10933 21.159374 106.656204Q22.675 105.20308 25.221874 105.20308Q27.596874 105.20308 28.971874 106.45308Q30.3625 107.70308 30.3625 109.76558Q30.3625 112.29683 27.159374 115.76558L22.58125 120.73433L31.14375 120.73433L31.14375 122.499954ZM43.675 115.218704Q43.675 119.031204 42.3625 120.89058Q41.065624 122.73433 38.3 122.73433Q35.565624 122.73433 34.253124 120.92183Q32.940624 119.10933 32.89375 115.51558L32.89375 112.624954Q32.89375 108.85933 34.190624 107.031204Q35.503124 105.20308 38.284374 105.20308Q41.034374 105.20308 42.33125 106.968704Q43.628124 108.73433 43.675 112.406204L43.675 115.218704ZM41.503124 112.249954Q41.503124 109.499954 40.721874 108.249954Q39.95625 106.98433 38.284374 106.98433Q36.6125 106.98433 35.846874 108.23433Q35.096874 109.48433 35.065624 112.093704L35.065624 115.562454Q35.065624 118.32808 35.8625 119.656204Q36.675 120.968704 38.3 120.968704Q39.909374 120.968704 40.690624 119.73433Q41.471874 118.48433 41.503124 115.812454L41.503124 112.249954ZM53.096874 122.499954L50.909374 122.499954L50.909374 108.04683L46.55 109.656204L46.55 107.687454L52.753124 105.35933L53.096874 105.35933L53.096874 122.499954ZM67.28438 114.999954Q66.59688 115.812454 65.64375 116.312454Q64.70625 116.79683 63.58125 116.79683Q62.1125 116.79683 61.01875 116.07808Q59.925 115.343704 59.315624 114.031204Q58.721874 112.70308 58.721874 111.10933Q58.721874 109.39058 59.3625 108.031204Q60.01875 106.656204 61.20625 105.937454Q62.409374 105.20308 64.00313 105.20308Q66.53438 105.20308 67.9875 107.093704Q69.45625 108.98433 69.45625 112.249954L69.45625 112.89058Q69.45625 117.874954 67.4875 120.17183Q65.51875 122.45308 61.55 122.51558L61.128124 122.51558L61.128124 120.687454L61.58125 120.687454Q64.26875 120.64058 65.70625 119.281204Q67.14375 117.92183 67.28438 114.999954ZM63.940624 114.999954Q65.03438 114.999954 65.94063 114.32808Q66.8625 113.656204 67.28438 112.67183L67.28438 111.812454Q67.28438 109.67183 66.3625 108.343704Q65.44063 106.999954 64.01875 106.999954Q62.596874 106.999954 61.721874 108.10933Q60.8625 109.20308 60.8625 110.98433Q60.8625 112.73433 61.690624 113.874954Q62.534374 114.999954 63.940624 114.999954Z" fill-rule="nonzero"/><path fill="#9e9e9e" d="M23.128124 144.9062L24.753124 144.9062Q26.284374 144.89058 27.159374 144.10933Q28.05 143.31245 28.05 141.98433Q28.05 138.98433 25.05 138.98433Q23.64375 138.98433 22.8 139.79683Q21.971874 140.5937 21.971874 141.9062L19.8 141.9062Q19.8 139.89058 21.284374 138.54683Q22.76875 137.20308 25.05 137.20308Q27.471874 137.20308 28.83125 138.48433Q30.20625 139.74995 30.20625 142.0312Q30.20625 143.14058 29.4875 144.18745Q28.76875 145.23433 27.534374 145.74995Q28.940624 146.18745 29.70625 147.2187Q30.471874 148.24995 30.471874 149.73433Q30.471874 152.0312 28.971874 153.39058Q27.471874 154.73433 25.065624 154.73433Q22.659374 154.73433 21.159374 153.43745Q19.659374 152.12495 19.659374 149.99995L21.83125 149.99995Q21.83125 151.3437 22.70625 152.1562Q23.596874 152.9687 25.065624 152.9687Q26.64375 152.9687 27.471874 152.1562Q28.3 151.32808 28.3 149.7812Q28.3 148.29683 27.378124 147.49995Q26.471874 146.70308 24.753124 146.68745L23.128124 146.68745L23.128124 144.9062ZM44.14375 154.49995L32.971874 154.49995L32.971874 152.93745L38.878124 146.37495Q40.190624 144.89058 40.690624 143.9687Q41.190624 143.0312 41.190624 142.0312Q41.190624 140.68745 40.378124 139.8437Q39.565624 138.98433 38.221874 138.98433Q36.596874 138.98433 35.70625 139.9062Q34.815624 140.82808 34.815624 142.4687L32.64375 142.4687Q32.64375 140.10933 34.159374 138.6562Q35.675 137.20308 38.221874 137.20308Q40.596874 137.20308 41.971874 138.45308Q43.3625 139.70308 43.3625 141.76558Q43.3625 144.29683 40.159374 147.76558L35.58125 152.73433L44.14375 152.73433L44.14375 154.49995ZM46.2375 153.35933Q46.2375 152.79683 46.565624 152.42183Q46.909374 152.04683 47.565624 152.04683Q48.2375 152.04683 48.58125 152.42183Q48.940624 152.79683 48.940624 153.35933Q48.940624 153.9062 48.58125 154.26558Q48.2375 154.62495 47.565624 154.62495Q46.909374 154.62495 46.565624 154.26558Q46.2375 153.9062 46.2375 153.35933ZM52.971874 145.93745L53.83125 137.43745L62.58125 137.43745L62.58125 139.43745L55.675 139.43745L55.159374 144.0937Q56.409374 143.35933 58.003124 143.35933Q60.33125 143.35933 61.70625 144.9062Q63.08125 146.43745 63.08125 149.06245Q63.08125 151.70308 61.659374 153.2187Q60.2375 154.73433 57.675 154.73433Q55.409374 154.73433 53.971874 153.48433Q52.55 152.2187 52.3625 150.01558L54.409374 150.01558Q54.6125 151.4687 55.45625 152.2187Q56.3 152.9687 57.675 152.9687Q59.190624 152.9687 60.05 151.93745Q60.909374 150.9062 60.909374 149.07808Q60.909374 147.37495 59.971874 146.3437Q59.05 145.29683 57.503124 145.29683Q56.08125 145.29683 55.26875 145.92183L54.70625 146.39058L52.971874 145.93745ZM64.78438 140.7187Q64.78438 139.18745 65.75313 138.18745Q66.7375 137.18745 68.26875 137.18745Q69.83125 137.18745 70.8 138.18745Q71.76875 139.18745 71.76875 140.7812L71.76875 141.62495Q71.76875 143.17183 70.78438 144.1562Q69.81563 145.12495 68.3 145.12495Q66.76875 145.12495 65.76875 144.1562Q64.78438 143.17183 64.78438 141.5312L64.78438 140.7187ZM66.39375 141.62495Q66.39375 142.5312 66.90938 143.12495Q67.425 143.7187 68.3 143.7187Q69.12813 143.7187 69.62813 143.14058Q70.14375 142.56245 70.14375 141.57808L70.14375 140.7187Q70.14375 139.79683 69.64375 139.20308Q69.14375 138.60933 68.26875 138.60933Q67.40938 138.60933 66.89375 139.20308Q66.39375 139.79683 66.39375 140.76558L66.39375 141.62495ZM73.09688 150.31245Q73.09688 148.7812 74.06563 147.79683Q75.05 146.79683 76.58125 146.79683Q78.1125 146.79683 79.09688 147.7812Q80.08125 148.76558 80.08125 150.39058L80.08125 151.23433Q80.08125 152.76558 79.09688 153.76558Q78.12813 154.74995 76.59688 154.74995Q75.08125 154.74995 74.08125 153.76558Q73.09688 152.7812 73.09688 151.1562L73.09688 150.31245ZM74.70625 151.23433Q74.70625 152.1562 75.22188 152.74995Q75.7375 153.3437 76.6125 153.3437Q77.45625 153.3437 77.95625 152.76558Q78.45625 152.17183 78.45625 151.18745L78.45625 150.31245Q78.45625 149.39058 77.94063 148.81245Q77.44063 148.2187 76.58125 148.2187Q75.75313 148.2187 75.22188 148.79683Q74.70625 149.37495 74.70625 150.35933L74.70625 151.23433ZM68.78438 153.20308L67.56563 152.43745L75.89375 139.0937L77.12813 139.87495L68.78438 153.20308Z" fill-rule="nonzero"/><path stroke="#757575" stroke-width="1.0" stroke-linecap="butt" d="M18.55 129.99995L145.23334 129.99995L179.3996 129.99995" fill-rule="nonzero"/><path fill="#9e9e9e" d="M181.3996 129.99995C181.3996 128.89539 180.50417 127.999954 179.3996 127.999954C178.29503 127.999954 177.3996 128.89539 177.3996 129.99995C177.3996 131.10452 178.29503 131.99995 179.3996 131.99995C180.50417 131.99995 181.3996 131.10452 181.3996 129.99995" fill-rule="nonzero"/><path fill="#757575" d="M31.14375 314.45L19.971874 314.45L19.971874 312.8875L25.878124 306.325Q27.190624 304.84064 27.690624 303.91876Q28.190624 302.98126 28.190624 301.98126Q28.190624 300.6375 27.378124 299.79376Q26.565624 298.9344 25.221874 298.9344Q23.596874 298.9344 22.70625 299.85626Q21.815624 300.77814 21.815624 302.41876L19.64375 302.41876Q19.64375 300.0594 21.159374 298.60626Q22.675 297.15314 25.221874 297.15314Q27.596874 297.15314 28.971874 298.40314Q30.3625 299.65314 30.3625 301.71564Q30.3625 304.2469 27.159374 307.71564L22.58125 312.6844L31.14375 312.6844L31.14375 314.45ZM43.675 307.16876Q43.675 310.98126 42.3625 312.84064Q41.065624 314.6844 38.3 314.6844Q35.565624 314.6844 34.253124 312.8719Q32.940624 311.0594 32.89375 307.46564L32.89375 304.575Q32.89375 300.8094 34.190624 298.98126Q35.503124 297.15314 38.284374 297.15314Q41.034374 297.15314 42.33125 298.91876Q43.628124 300.6844 43.675 304.35626L43.675 307.16876ZM41.503124 304.2Q41.503124 301.45 40.721874 300.2Q39.95625 298.9344 38.284374 298.9344Q36.6125 298.9344 35.846874 300.1844Q35.096874 301.4344 35.065624 304.04376L35.065624 307.5125Q35.065624 310.27814 35.8625 311.60626Q36.675 312.91876 38.3 312.91876Q39.909374 312.91876 40.690624 311.6844Q41.471874 310.4344 41.503124 307.7625L41.503124 304.2ZM53.096874 314.45L50.909374 314.45L50.909374 299.9969L46.55 301.60626L46.55 299.6375L52.753124 297.3094L53.096874 297.3094L53.096874 314.45ZM69.31563 301.84064Q69.31563 303.1219 68.64375 304.1219Q67.97188 305.10626 66.81563 305.66876Q68.15938 306.2469 68.94063 307.35626Q69.72188 308.45 69.72188 309.84064Q69.72188 312.0594 68.22188 313.3719Q66.72188 314.6844 64.28438 314.6844Q61.83125 314.6844 60.346874 313.3719Q58.8625 312.04376 58.8625 309.84064Q58.8625 308.46564 59.6125 307.35626Q60.378124 306.23126 61.70625 305.65314Q60.58125 305.09064 59.925 304.10626Q59.26875 303.10626 59.26875 301.84064Q59.26875 299.6844 60.64375 298.41876Q62.034374 297.15314 64.28438 297.15314Q66.53438 297.15314 67.925 298.41876Q69.31563 299.6844 69.31563 301.84064ZM67.55 309.79376Q67.55 308.3719 66.64375 307.46564Q65.7375 306.5594 64.26875 306.5594Q62.8 306.5594 61.909374 307.45Q61.034374 308.34064 61.034374 309.79376Q61.034374 311.2469 61.89375 312.09064Q62.753124 312.91876 64.28438 312.91876Q65.81563 312.91876 66.675 312.075Q67.55 311.23126 67.55 309.79376ZM64.28438 298.9344Q63.01875 298.9344 62.221874 299.73126Q61.425 300.5125 61.425 301.8719Q61.425 303.16876 62.20625 303.98126Q62.9875 304.77814 64.28438 304.77814Q65.59688 304.77814 66.3625 303.98126Q67.14375 303.16876 67.14375 301.8719Q67.14375 300.575 66.33125 299.7625Q65.53438 298.9344 64.28438 298.9344Z" fill-rule="nonzero"/><path fill="#9e9e9e" d="M31.14375 346.45L19.971874 346.45L19.971874 344.8875L25.878124 338.325Q27.190624 336.84064 27.690624 335.91876Q28.190624 334.98126 28.190624 333.98126Q28.190624 332.6375 27.378124 331.79376Q26.565624 330.9344 25.221874 330.9344Q23.596874 330.9344 22.70625 331.85626Q21.815624 332.77814 21.815624 334.41876L19.64375 334.41876Q19.64375 332.0594 21.159374 330.60626Q22.675 329.15314 25.221874 329.15314Q27.596874 329.15314 28.971874 330.40314Q30.3625 331.65314 30.3625 333.71564Q30.3625 336.2469 27.159374 339.71564L22.58125 344.6844L31.14375 344.6844L31.14375 346.45ZM41.284374 338.95Q40.596874 339.7625 39.64375 340.2625Q38.70625 340.7469 37.58125 340.7469Q36.1125 340.7469 35.01875 340.02814Q33.925 339.29376 33.315624 337.98126Q32.721874 336.65314 32.721874 335.0594Q32.721874 333.34064 33.3625 331.98126Q34.01875 330.60626 35.20625 329.8875Q36.409374 329.15314 38.003124 329.15314Q40.534374 329.15314 41.9875 331.04376Q43.45625 332.9344 43.45625 336.2L43.45625 336.84064Q43.45625 341.825 41.4875 344.1219Q39.51875 346.40314 35.55 346.46564L35.128124 346.46564L35.128124 344.6375L35.58125 344.6375Q38.26875 344.59064 39.70625 343.23126Q41.14375 341.8719 41.284374 338.95ZM37.940624 338.95Q39.034374 338.95 39.940624 338.27814Q40.8625 337.60626 41.284374 336.6219L41.284374 335.7625Q41.284374 333.6219 40.3625 332.29376Q39.440624 330.95 38.01875 330.95Q36.596874 330.95 35.721874 332.0594Q34.8625 333.15314 34.8625 334.9344Q34.8625 336.6844 35.690624 337.825Q36.534374 338.95 37.940624 338.95ZM46.2375 345.3094Q46.2375 344.7469 46.565624 344.3719Q46.909374 343.9969 47.565624 343.9969Q48.2375 343.9969 48.58125 344.3719Q48.940624 344.7469 48.940624 345.3094Q48.940624 345.85626 48.58125 346.21564Q48.2375 346.575 47.565624 346.575Q46.909374 346.575 46.565624 346.21564Q46.2375 345.85626 46.2375 345.3094ZM62.315624 333.84064Q62.315624 335.1219 61.64375 336.1219Q60.971874 337.10626 59.815624 337.66876Q61.159374 338.2469 61.940624 339.35626Q62.721874 340.45 62.721874 341.84064Q62.721874 344.0594 61.221874 345.3719Q59.721874 346.6844 57.284374 346.6844Q54.83125 346.6844 53.346874 345.3719Q51.8625 344.04376 51.8625 341.84064Q51.8625 340.46564 52.6125 339.35626Q53.378124 338.23126 54.70625 337.65314Q53.58125 337.09064 52.925 336.10626Q52.26875 335.10626 52.26875 333.84064Q52.26875 331.6844 53.64375 330.41876Q55.034374 329.15314 57.284374 329.15314Q59.534374 329.15314 60.925 330.41876Q62.315624 331.6844 62.315624 333.84064ZM60.55 341.79376Q60.55 340.3719 59.64375 339.46564Q58.7375 338.5594 57.26875 338.5594Q55.8 338.5594 54.909374 339.45Q54.034374 340.34064 54.034374 341.79376Q54.034374 343.2469 54.89375 344.09064Q55.753124 344.91876 57.284374 344.91876Q58.815624 344.91876 59.675 344.075Q60.55 343.23126 60.55 341.79376ZM57.284374 330.9344Q56.01875 330.9344 55.221874 331.73126Q54.425 332.5125 54.425 333.8719Q54.425 335.16876 55.20625 335.98126Q55.9875 336.77814 57.284374 336.77814Q58.596874 336.77814 59.3625 335.98126Q60.14375 335.16876 60.14375 333.8719Q60.14375 332.575 59.33125 331.7625Q58.534374 330.9344 57.284374 330.9344ZM64.78438 332.66876Q64.78438 331.1375 65.75313 330.1375Q66.7375 329.1375 68.26875 329.1375Q69.83125 329.1375 70.8 330.1375Q71.76875 331.1375 71.76875 332.73126L71.76875 333.575Q71.76875 335.1219 70.78438 336.10626Q69.81563 337.075 68.3 337.075Q66.76875 337.075 65.76875 336.10626Q64.78438 335.1219 64.78438 333.48126L64.78438 332.66876ZM66.39375 333.575Q66.39375 334.48126 66.90938 335.075Q67.425 335.66876 68.3 335.66876Q69.12813 335.66876 69.62813 335.09064Q70.14375 334.5125 70.14375 333.52814L70.14375 332.66876Q70.14375 331.7469 69.64375 331.15314Q69.14375 330.5594 68.26875 330.5594Q67.40938 330.5594 66.89375 331.15314Q66.39375 331.7469 66.39375 332.71564L66.39375 333.575ZM73.09688 342.2625Q73.09688 340.73126 74.06563 339.7469Q75.05 338.7469 76.58125 338.7469Q78.1125 338.7469 79.09688 339.73126Q80.08125 340.71564 80.08125 342.34064L80.08125 343.1844Q80.08125 344.71564 79.09688 345.71564Q78.12813 346.7 76.59688 346.7Q75.08125 346.7 74.08125 345.71564Q73.09688 344.73126 73.09688 343.10626L73.09688 342.2625ZM74.70625 343.1844Q74.70625 344.10626 75.22188 344.7Q75.7375 345.29376 76.6125 345.29376Q77.45625 345.29376 77.95625 344.71564Q78.45625 344.1219 78.45625 343.1375L78.45625 342.2625Q78.45625 341.34064 77.94063 340.7625Q77.44063 340.16876 76.58125 340.16876Q75.75313 340.16876 75.22188 340.7469Q74.70625 341.325 74.70625 342.3094L74.70625 343.1844ZM68.78438 345.15314L67.56563 344.3875L75.89375 331.04376L77.12813 331.825L68.78438 345.15314Z" fill-rule="nonzero"/><path stroke="#757575" stroke-width="1.0" stroke-linecap="butt" d="M18.55 321.95L145.23334 321.95L277.51984 343.2123" fill-rule="nonzero"/><path fill="#9e9e9e" d="M279.51984 343.2123C279.51984 342.10776 278.6244 341.2123 277.51984 341.2123C276.41525 341.2123 275.51984 342.10776 275.51984 343.2123C275.51984 344.3169 276.41525 345.2123 277.51984 345.2123C278.6244 345.2123 279.51984 344.3169 279.51984 343.2123" fill-rule="nonzero"/><path fill="#757575" d="M542.04376 77.916664L530.8719 77.916664L530.8719 76.354164L536.77814 69.791664Q538.09064 68.30729 538.59064 67.385414Q539.09064 66.447914 539.09064 65.447914Q539.09064 64.104164 538.27814 63.260414Q537.46564 62.40104 536.1219 62.40104Q534.4969 62.40104 533.60626 63.322914Q532.71564 64.24479 532.71564 65.885414L530.54376 65.885414Q530.54376 63.52604 532.0594 62.072914Q533.575 60.61979 536.1219 60.61979Q538.4969 60.61979 539.8719 61.86979Q541.2625 63.11979 541.2625 65.18229Q541.2625 67.71354 538.0594 71.18229L533.48126 76.15104L542.04376 76.15104L542.04376 77.916664ZM554.575 70.635414Q554.575 74.447914 553.2625 76.30729Q551.96564 78.15104 549.2 78.15104Q546.46564 78.15104 545.15314 76.33854Q543.84064 74.52604 543.79376 70.93229L543.79376 68.041664Q543.79376 64.27604 545.09064 62.447914Q546.40314 60.61979 549.1844 60.61979Q551.9344 60.61979 553.23126 62.385414Q554.52814 64.15104 554.575 67.822914L554.575 70.635414ZM552.40314 67.666664Q552.40314 64.916664 551.6219 63.666664Q550.85626 62.40104 549.1844 62.40104Q547.5125 62.40104 546.7469 63.65104Q545.9969 64.90104 545.96564 67.510414L545.96564 70.979164Q545.96564 73.74479 546.7625 75.072914Q547.575 76.385414 549.2 76.385414Q550.8094 76.385414 551.59064 75.15104Q552.3719 73.90104 552.40314 71.229164L552.40314 67.666664ZM563.9969 77.916664L561.8094 77.916664L561.8094 63.46354L557.45 65.072914L557.45 63.104164L563.65314 60.77604L563.9969 60.77604L563.9969 77.916664ZM579.02814 72.18229L581.3875 72.18229L581.3875 73.947914L579.02814 73.947914L579.02814 77.916664L576.84064 77.916664L576.84064 73.947914L569.075 73.947914L569.075 72.68229L576.71564 60.854164L579.02814 60.854164L579.02814 72.18229ZM571.52814 72.18229L576.84064 72.18229L576.84064 63.822914L576.59064 64.291664L571.52814 72.18229Z" fill-rule="nonzero"/><path fill="#9e9e9e" d="M536.02814 100.322914L537.65314 100.322914Q539.1844 100.30729 540.0594 99.52604Q540.95 98.729164 540.95 97.40104Q540.95 94.40104 537.95 94.40104Q536.54376 94.40104 535.7 95.21354Q534.8719 96.010414 534.8719 97.322914L532.7 97.322914Q532.7 95.30729 534.1844 93.96354Q535.66876 92.61979 537.95 92.61979Q540.3719 92.61979 541.73126 93.90104Q543.10626 95.166664 543.10626 97.447914Q543.10626 98.55729 542.3875 99.604164Q541.66876 100.65104 540.4344 101.166664Q541.84064 101.604164 542.60626 102.635414Q543.3719 103.666664 543.3719 105.15104Q543.3719 107.447914 541.8719 108.80729Q540.3719 110.15104 537.96564 110.15104Q535.5594 110.15104 534.0594 108.854164Q532.5594 107.541664 532.5594 105.416664L534.73126 105.416664Q534.73126 106.760414 535.60626 107.572914Q536.4969 108.385414 537.96564 108.385414Q539.54376 108.385414 540.3719 107.572914Q541.2 106.74479 541.2 105.197914Q541.2 103.71354 540.27814 102.916664Q539.3719 102.11979 537.65314 102.104164L536.02814 102.104164L536.02814 100.322914ZM546.1375 108.77604Q546.1375 108.21354 546.46564 107.83854Q546.8094 107.46354 547.46564 107.46354Q548.1375 107.46354 548.48126 107.83854Q548.84064 108.21354 548.84064 108.77604Q548.84064 109.322914 548.48126 109.68229Q548.1375 110.041664 547.46564 110.041664Q546.8094 110.041664 546.46564 109.68229Q546.1375 109.322914 546.1375 108.77604ZM558.9969 109.916664L556.8094 109.916664L556.8094 95.46354L552.45 97.072914L552.45 95.104164L558.65314 92.77604L558.9969 92.77604L558.9969 109.916664ZM564.6844 96.135414Q564.6844 94.604164 565.65314 93.604164Q566.6375 92.604164 568.16876 92.604164Q569.73126 92.604164 570.7 93.604164Q571.66876 94.604164 571.66876 96.197914L571.66876 97.041664Q571.66876 98.58854 570.6844 99.572914Q569.71564 100.541664 568.2 100.541664Q566.66876 100.541664 565.66876 99.572914Q564.6844 98.58854 564.6844 96.947914L564.6844 96.135414ZM566.29376 97.041664Q566.29376 97.947914 566.8094 98.541664Q567.325 99.135414 568.2 99.135414Q569.02814 99.135414 569.52814 98.55729Q570.04376 97.979164 570.04376 96.99479L570.04376 96.135414Q570.04376 95.21354 569.54376 94.61979Q569.04376 94.02604 568.16876 94.02604Q567.3094 94.02604 566.79376 94.61979Q566.29376 95.21354 566.29376 96.18229L566.29376 97.041664ZM572.9969 105.729164Q572.9969 104.197914 573.96564 103.21354Q574.95 102.21354 576.48126 102.21354Q578.0125 102.21354 578.9969 103.197914Q579.98126 104.18229 579.98126 105.80729L579.98126 106.65104Q579.98126 108.18229 578.9969 109.18229Q578.02814 110.166664 576.4969 110.166664Q574.98126 110.166664 573.98126 109.18229Q572.9969 108.197914 572.9969 106.572914L572.9969 105.729164ZM574.60626 106.65104Q574.60626 107.572914 575.1219 108.166664Q575.6375 108.760414 576.5125 108.760414Q577.35626 108.760414 577.85626 108.18229Q578.35626 107.58854 578.35626 106.604164L578.35626 105.729164Q578.35626 104.80729 577.84064 104.229164Q577.34064 103.635414 576.48126 103.635414Q575.65314 103.635414 575.1219 104.21354Q574.60626 104.791664 574.60626 105.77604L574.60626 106.65104ZM568.6844 108.61979L567.46564 107.854164L575.79376 94.510414L577.02814 95.291664L568.6844 108.61979Z" fill-rule="nonzero"/><path stroke="#757575" stroke-width="1.0" stroke-linecap="butt" d="M581.45 85.416664L454.76666 85.416664L342.95654 69.04146" fill-rule="nonzero"/><path fill="#9e9e9e" d="M344.95654 69.04146C344.95654 67.93689 344.0611 67.04146 342.95654 67.04146C341.85196 67.04146 340.95654 67.93689 340.95654 69.04146C340.95654 70.146034 341.85196 71.04146 342.95654 71.04146C344.0611 71.04146 344.95654 70.146034 344.95654 69.04146" fill-rule="nonzero"/><path fill="#757575" d="M542.04376 138.91667L530.8719 138.91667L530.8719 137.35417L536.77814 130.79167Q538.09064 129.3073 538.59064 128.38542Q539.09064 127.44792 539.09064 126.44792Q539.09064 125.10417 538.27814 124.26042Q537.46564 123.40105 536.1219 123.40105Q534.4969 123.40105 533.60626 124.32292Q532.71564 125.2448 532.71564 126.88542L530.54376 126.88542Q530.54376 124.52605 532.0594 123.07292Q533.575 121.6198 536.1219 121.6198Q538.4969 121.6198 539.8719 122.8698Q541.2625 124.1198 541.2625 126.1823Q541.2625 128.71355 538.0594 132.1823L533.48126 137.15105L542.04376 137.15105L542.04376 138.91667ZM554.575 131.63542Q554.575 135.44792 553.2625 137.3073Q551.96564 139.15105 549.2 139.15105Q546.46564 139.15105 545.15314 137.33855Q543.84064 135.52605 543.79376 131.9323L543.79376 129.04167Q543.79376 125.27605 545.09064 123.44792Q546.40314 121.6198 549.1844 121.6198Q551.9344 121.6198 553.23126 123.38542Q554.52814 125.15105 554.575 128.82292L554.575 131.63542ZM552.40314 128.66667Q552.40314 125.91667 551.6219 124.66667Q550.85626 123.40105 549.1844 123.40105Q547.5125 123.40105 546.7469 124.65105Q545.9969 125.90105 545.96564 128.51042L545.96564 131.97917Q545.96564 134.7448 546.7625 136.07292Q547.575 137.38542 549.2 137.38542Q550.8094 137.38542 551.59064 136.15105Q552.3719 134.90105 552.40314 132.22917L552.40314 128.66667ZM563.9969 138.91667L561.8094 138.91667L561.8094 124.46355L557.45 126.07292L557.45 124.10417L563.65314 121.77605L563.9969 121.77605L563.9969 138.91667ZM570.8719 130.35417L571.73126 121.85417L580.48126 121.85417L580.48126 123.85417L573.575 123.85417L573.0594 128.51042Q574.3094 127.77605 575.90314 127.77605Q578.23126 127.77605 579.60626 129.32292Q580.98126 130.85417 580.98126 133.47917Q580.98126 136.1198 579.5594 137.63542Q578.1375 139.15105 575.575 139.15105Q573.3094 139.15105 571.8719 137.90105Q570.45 136.63542 570.2625 134.4323L572.3094 134.4323Q572.5125 135.88542 573.35626 136.63542Q574.2 137.38542 575.575 137.38542Q577.09064 137.38542 577.95 136.35417Q578.8094 135.32292 578.8094 133.4948Q578.8094 131.79167 577.8719 130.76042Q576.95 129.71355 575.40314 129.71355Q573.98126 129.71355 573.16876 130.33855L572.60626 130.8073L570.8719 130.35417Z" fill-rule="nonzero"/><path fill="#9e9e9e" d="M536.02814 161.32292L537.65314 161.32292Q539.1844 161.3073 540.0594 160.52605Q540.95 159.72917 540.95 158.40105Q540.95 155.40105 537.95 155.40105Q536.54376 155.40105 535.7 156.21355Q534.8719 157.01042 534.8719 158.32292L532.7 158.32292Q532.7 156.3073 534.1844 154.96355Q535.66876 153.6198 537.95 153.6198Q540.3719 153.6198 541.73126 154.90105Q543.10626 156.16667 543.10626 158.44792Q543.10626 159.5573 542.3875 160.60417Q541.66876 161.65105 540.4344 162.16667Q541.84064 162.60417 542.60626 163.63542Q543.3719 164.66667 543.3719 166.15105Q543.3719 168.44792 541.8719 169.8073Q540.3719 171.15105 537.96564 171.15105Q535.5594 171.15105 534.0594 169.85417Q532.5594 168.54167 532.5594 166.41667L534.73126 166.41667Q534.73126 167.76042 535.60626 168.57292Q536.4969 169.38542 537.96564 169.38542Q539.54376 169.38542 540.3719 168.57292Q541.2 167.7448 541.2 166.19792Q541.2 164.71355 540.27814 163.91667Q539.3719 163.1198 537.65314 163.10417L536.02814 163.10417L536.02814 161.32292ZM546.1375 169.77605Q546.1375 169.21355 546.46564 168.83855Q546.8094 168.46355 547.46564 168.46355Q548.1375 168.46355 548.48126 168.83855Q548.84064 169.21355 548.84064 169.77605Q548.84064 170.32292 548.48126 170.6823Q548.1375 171.04167 547.46564 171.04167Q546.8094 171.04167 546.46564 170.6823Q546.1375 170.32292 546.1375 169.77605ZM558.9969 170.91667L556.8094 170.91667L556.8094 156.46355L552.45 158.07292L552.45 156.10417L558.65314 153.77605L558.9969 153.77605L558.9969 170.91667ZM564.6844 157.13542Q564.6844 155.60417 565.65314 154.60417Q566.6375 153.60417 568.16876 153.60417Q569.73126 153.60417 570.7 154.60417Q571.66876 155.60417 571.66876 157.19792L571.66876 158.04167Q571.66876 159.58855 570.6844 160.57292Q569.71564 161.54167 568.2 161.54167Q566.66876 161.54167 565.66876 160.57292Q564.6844 159.58855 564.6844 157.94792L564.6844 157.13542ZM566.29376 158.04167Q566.29376 158.94792 566.8094 159.54167Q567.325 160.13542 568.2 160.13542Q569.02814 160.13542 569.52814 159.5573Q570.04376 158.97917 570.04376 157.9948L570.04376 157.13542Q570.04376 156.21355 569.54376 155.6198Q569.04376 155.02605 568.16876 155.02605Q567.3094 155.02605 566.79376 155.6198Q566.29376 156.21355 566.29376 157.1823L566.29376 158.04167ZM572.9969 166.72917Q572.9969 165.19792 573.96564 164.21355Q574.95 163.21355 576.48126 163.21355Q578.0125 163.21355 578.9969 164.19792Q579.98126 165.1823 579.98126 166.8073L579.98126 167.65105Q579.98126 169.1823 578.9969 170.1823Q578.02814 171.16667 576.4969 171.16667Q574.98126 171.16667 573.98126 170.1823Q572.9969 169.19792 572.9969 167.57292L572.9969 166.72917ZM574.60626 167.65105Q574.60626 168.57292 575.1219 169.16667Q575.6375 169.76042 576.5125 169.76042Q577.35626 169.76042 577.85626 169.1823Q578.35626 168.58855 578.35626 167.60417L578.35626 166.72917Q578.35626 165.8073 577.84064 165.22917Q577.34064 164.63542 576.48126 164.63542Q575.65314 164.63542 575.1219 165.21355Q574.60626 165.79167 574.60626 166.77605L574.60626 167.65105ZM568.6844 169.6198L567.46564 168.85417L575.79376 155.51042L577.02814 156.29167L568.6844 169.6198Z" fill-rule="nonzero"/><path stroke="#757575" stroke-width="1.0" stroke-linecap="butt" d="M581.45 146.41667L454.76666 146.41667L367.8215 79.691635" fill-rule="nonzero"/><path fill="#9e9e9e" d="M369.8215 79.691635C369.8215 78.58707 368.9261 77.691635 367.8215 77.691635C366.71695 77.691635 365.8215 78.58707 365.8215 79.691635C365.8215 80.7962 366.71695 81.691635 367.8215 81.691635C368.9261 81.691635 369.8215 80.7962 369.8215 79.691635" fill-rule="nonzero"/><path fill="#757575" d="M542.04376 199.91667L530.8719 199.91667L530.8719 198.35417L536.77814 191.79167Q538.09064 190.3073 538.59064 189.38542Q539.09064 188.44792 539.09064 187.44792Q539.09064 186.10417 538.27814 185.26042Q537.46564 184.40105 536.1219 184.40105Q534.4969 184.40105 533.60626 185.32292Q532.71564 186.2448 532.71564 187.88542L530.54376 187.88542Q530.54376 185.52605 532.0594 184.07292Q533.575 182.6198 536.1219 182.6198Q538.4969 182.6198 539.8719 183.8698Q541.2625 185.1198 541.2625 187.1823Q541.2625 189.71355 538.0594 193.1823L533.48126 198.15105L542.04376 198.15105L542.04376 199.91667ZM554.575 192.63542Q554.575 196.44792 553.2625 198.3073Q551.96564 200.15105 549.2 200.15105Q546.46564 200.15105 545.15314 198.33855Q543.84064 196.52605 543.79376 192.9323L543.79376 190.04167Q543.79376 186.27605 545.09064 184.44792Q546.40314 182.6198 549.1844 182.6198Q551.9344 182.6198 553.23126 184.38542Q554.52814 186.15105 554.575 189.82292L554.575 192.63542ZM552.40314 189.66667Q552.40314 186.91667 551.6219 185.66667Q550.85626 184.40105 549.1844 184.40105Q547.5125 184.40105 546.7469 185.65105Q545.9969 186.90105 545.96564 189.51042L545.96564 192.97917Q545.96564 195.7448 546.7625 197.07292Q547.575 198.38542 549.2 198.38542Q550.8094 198.38542 551.59064 197.15105Q552.3719 195.90105 552.40314 193.22917L552.40314 189.66667ZM563.9969 199.91667L561.8094 199.91667L561.8094 185.46355L557.45 187.07292L557.45 185.10417L563.65314 182.77605L563.9969 182.77605L563.9969 199.91667ZM578.3719 182.83855L578.3719 184.6823L577.98126 184.6823Q575.45 184.72917 573.95 186.1823Q572.45 187.63542 572.21564 190.27605Q573.5594 188.72917 575.8875 188.72917Q578.1219 188.72917 579.45 190.3073Q580.77814 191.8698 580.77814 194.35417Q580.77814 196.97917 579.34064 198.57292Q577.90314 200.15105 575.4969 200.15105Q573.04376 200.15105 571.5125 198.27605Q569.9969 196.38542 569.9969 193.41667L569.9969 192.58855Q569.9969 187.88542 571.9969 185.40105Q574.0125 182.90105 577.9969 182.83855L578.3719 182.83855ZM575.52814 190.52605Q574.41876 190.52605 573.48126 191.19792Q572.54376 191.8698 572.1844 192.8698L572.1844 193.66667Q572.1844 195.77605 573.1219 197.07292Q574.075 198.35417 575.4969 198.35417Q576.96564 198.35417 577.79376 197.27605Q578.6375 196.19792 578.6375 194.44792Q578.6375 192.69792 577.77814 191.6198Q576.9344 190.52605 575.52814 190.52605Z" fill-rule="nonzero"/><path fill="#9e9e9e" d="M526.9969 231.91667L524.8094 231.91667L524.8094 217.46355L520.45 219.07292L520.45 217.10417L526.65314 214.77605L526.9969 214.77605L526.9969 231.91667ZM543.21564 219.3073Q543.21564 220.58855 542.54376 221.58855Q541.8719 222.57292 540.71564 223.13542Q542.0594 223.71355 542.84064 224.82292Q543.6219 225.91667 543.6219 227.3073Q543.6219 229.52605 542.1219 230.83855Q540.6219 232.15105 538.1844 232.15105Q535.73126 232.15105 534.2469 230.83855Q532.7625 229.51042 532.7625 227.3073Q532.7625 225.9323 533.5125 224.82292Q534.27814 223.69792 535.60626 223.1198Q534.48126 222.5573 533.825 221.57292Q533.16876 220.57292 533.16876 219.3073Q533.16876 217.15105 534.54376 215.88542Q535.9344 214.6198 538.1844 214.6198Q540.4344 214.6198 541.825 215.88542Q543.21564 217.15105 543.21564 219.3073ZM541.45 227.26042Q541.45 225.83855 540.54376 224.9323Q539.6375 224.02605 538.16876 224.02605Q536.7 224.02605 535.8094 224.91667Q534.9344 225.8073 534.9344 227.26042Q534.9344 228.71355 535.79376 229.5573Q536.65314 230.38542 538.1844 230.38542Q539.71564 230.38542 540.575 229.54167Q541.45 228.69792 541.45 227.26042ZM538.1844 216.40105Q536.91876 216.40105 536.1219 217.19792Q535.325 217.97917 535.325 219.33855Q535.325 220.63542 536.10626 221.44792Q536.8875 222.2448 538.1844 222.2448Q539.4969 222.2448 540.2625 221.44792Q541.04376 220.63542 541.04376 219.33855Q541.04376 218.04167 540.23126 217.22917Q539.4344 216.40105 538.1844 216.40105ZM546.1375 230.77605Q546.1375 230.21355 546.46564 229.83855Q546.8094 229.46355 547.46564 229.46355Q548.1375 229.46355 548.48126 229.83855Q548.84064 230.21355 548.84064 230.77605Q548.84064 231.32292 548.48126 231.6823Q548.1375 232.04167 547.46564 232.04167Q546.8094 232.04167 546.46564 231.6823Q546.1375 231.32292 546.1375 230.77605ZM562.575 224.63542Q562.575 228.44792 561.2625 230.3073Q559.96564 232.15105 557.2 232.15105Q554.46564 232.15105 553.15314 230.33855Q551.84064 228.52605 551.79376 224.9323L551.79376 222.04167Q551.79376 218.27605 553.09064 216.44792Q554.40314 214.6198 557.1844 214.6198Q559.9344 214.6198 561.23126 216.38542Q562.52814 218.15105 562.575 221.82292L562.575 224.63542ZM560.40314 221.66667Q560.40314 218.91667 559.6219 217.66667Q558.85626 216.40105 557.1844 216.40105Q555.5125 216.40105 554.7469 217.65105Q553.9969 218.90105 553.96564 221.51042L553.96564 224.97917Q553.96564 227.7448 554.7625 229.07292Q555.575 230.38542 557.2 230.38542Q558.8094 230.38542 559.59064 229.15105Q560.3719 227.90105 560.40314 225.22917L560.40314 221.66667ZM564.6844 218.13542Q564.6844 216.60417 565.65314 215.60417Q566.6375 214.60417 568.16876 214.60417Q569.73126 214.60417 570.7 215.60417Q571.66876 216.60417 571.66876 218.19792L571.66876 219.04167Q571.66876 220.58855 570.6844 221.57292Q569.71564 222.54167 568.2 222.54167Q566.66876 222.54167 565.66876 221.57292Q564.6844 220.58855 564.6844 218.94792L564.6844 218.13542ZM566.29376 219.04167Q566.29376 219.94792 566.8094 220.54167Q567.325 221.13542 568.2 221.13542Q569.02814 221.13542 569.52814 220.5573Q570.04376 219.97917 570.04376 218.9948L570.04376 218.13542Q570.04376 217.21355 569.54376 216.6198Q569.04376 216.02605 568.16876 216.02605Q567.3094 216.02605 566.79376 216.6198Q566.29376 217.21355 566.29376 218.1823L566.29376 219.04167ZM572.9969 227.72917Q572.9969 226.19792 573.96564 225.21355Q574.95 224.21355 576.48126 224.21355Q578.0125 224.21355 578.9969 225.19792Q579.98126 226.1823 579.98126 227.8073L579.98126 228.65105Q579.98126 230.1823 578.9969 231.1823Q578.02814 232.16667 576.4969 232.16667Q574.98126 232.16667 573.98126 231.1823Q572.9969 230.19792 572.9969 228.57292L572.9969 227.72917ZM574.60626 228.65105Q574.60626 229.57292 575.1219 230.16667Q575.6375 230.76042 576.5125 230.76042Q577.35626 230.76042 577.85626 230.1823Q578.35626 229.58855 578.35626 228.60417L578.35626 227.72917Q578.35626 226.8073 577.84064 226.22917Q577.34064 225.63542 576.48126 225.63542Q575.65314 225.63542 575.1219 226.21355Q574.60626 226.79167 574.60626 227.77605L574.60626 228.65105ZM568.6844 230.6198L567.46564 229.85417L575.79376 216.51042L577.02814 217.29167L568.6844 230.6198Z" fill-rule="nonzero"/><path stroke="#757575" stroke-width="1.0" stroke-linecap="butt" d="M581.45 207.41667L454.76666 207.41667L429.6149 147.34796" fill-rule="nonzero"/><path fill="#9e9e9e" d="M431.6149 147.34796C431.6149 146.2434 430.71948 145.34796 429.6149 145.34796C428.51035 145.34796 427.6149 146.2434 427.6149 147.34796C427.6149 148.45253 428.51035 149.34796 429.6149 149.34796C430.71948 149.34796 431.6149 148.45253 431.6149 147.34796" fill-rule="nonzero"/><path fill="#757575" d="M542.04376 260.91666L530.8719 260.91666L530.8719 259.35416L536.77814 252.79166Q538.09064 251.30728 538.59064 250.3854Q539.09064 249.4479 539.09064 248.4479Q539.09064 247.10416 538.27814 246.2604Q537.46564 245.40103 536.1219 245.40103Q534.4969 245.40103 533.60626 246.3229Q532.71564 247.24478 532.71564 248.8854L530.54376 248.8854Q530.54376 246.52603 532.0594 245.0729Q533.575 243.61978 536.1219 243.61978Q538.4969 243.61978 539.8719 244.86978Q541.2625 246.11978 541.2625 248.18228Q541.2625 250.71353 538.0594 254.18228L533.48126 259.15103L542.04376 259.15103L542.04376 260.91666ZM554.575 253.6354Q554.575 257.4479 553.2625 259.30728Q551.96564 261.15103 549.2 261.15103Q546.46564 261.15103 545.15314 259.33853Q543.84064 257.52603 543.79376 253.93228L543.79376 251.04166Q543.79376 247.27603 545.09064 245.4479Q546.40314 243.61978 549.1844 243.61978Q551.9344 243.61978 553.23126 245.3854Q554.52814 247.15103 554.575 250.8229L554.575 253.6354ZM552.40314 250.66666Q552.40314 247.91666 551.6219 246.66666Q550.85626 245.40103 549.1844 245.40103Q547.5125 245.40103 546.7469 246.65103Q545.9969 247.90103 545.96564 250.5104L545.96564 253.97916Q545.96564 256.74478 546.7625 258.0729Q547.575 259.3854 549.2 259.3854Q550.8094 259.3854 551.59064 258.15103Q552.3719 256.90103 552.40314 254.22916L552.40314 250.66666ZM563.9969 260.91666L561.8094 260.91666L561.8094 246.46353L557.45 248.0729L557.45 246.10416L563.65314 243.77603L563.9969 243.77603L563.9969 260.91666ZM580.8875 245.0729L573.825 260.91666L571.54376 260.91666L578.59064 245.6354L569.35626 245.6354L569.35626 243.85416L580.8875 243.85416L580.8875 245.0729Z" fill-rule="nonzero"/><path fill="#9e9e9e" d="M526.9969 292.91666L524.8094 292.91666L524.8094 278.46353L520.45 280.0729L520.45 278.10416L526.65314 275.77603L526.9969 275.77603L526.9969 292.91666ZM543.575 285.6354Q543.575 289.4479 542.2625 291.30728Q540.96564 293.15103 538.2 293.15103Q535.46564 293.15103 534.15314 291.33853Q532.84064 289.52603 532.79376 285.93228L532.79376 283.04166Q532.79376 279.27603 534.09064 277.4479Q535.40314 275.61978 538.1844 275.61978Q540.9344 275.61978 542.23126 277.3854Q543.52814 279.15103 543.575 282.8229L543.575 285.6354ZM541.40314 282.66666Q541.40314 279.91666 540.6219 278.66666Q539.85626 277.40103 538.1844 277.40103Q536.5125 277.40103 535.7469 278.65103Q534.9969 279.90103 534.96564 282.5104L534.96564 285.97916Q534.96564 288.74478 535.7625 290.0729Q536.575 291.3854 538.2 291.3854Q539.8094 291.3854 540.59064 290.15103Q541.3719 288.90103 541.40314 286.22916L541.40314 282.66666ZM546.1375 291.77603Q546.1375 291.21353 546.46564 290.83853Q546.8094 290.46353 547.46564 290.46353Q548.1375 290.46353 548.48126 290.83853Q548.84064 291.21353 548.84064 291.77603Q548.84064 292.3229 548.48126 292.68228Q548.1375 293.04166 547.46564 293.04166Q546.8094 293.04166 546.46564 292.68228Q546.1375 292.3229 546.1375 291.77603ZM563.04376 292.91666L551.8719 292.91666L551.8719 291.35416L557.77814 284.79166Q559.09064 283.30728 559.59064 282.3854Q560.09064 281.4479 560.09064 280.4479Q560.09064 279.10416 559.27814 278.2604Q558.46564 277.40103 557.1219 277.40103Q555.4969 277.40103 554.60626 278.3229Q553.71564 279.24478 553.71564 280.8854L551.54376 280.8854Q551.54376 278.52603 553.0594 277.0729Q554.575 275.61978 557.1219 275.61978Q559.4969 275.61978 560.8719 276.86978Q562.2625 278.11978 562.2625 280.18228Q562.2625 282.71353 559.0594 286.18228L554.48126 291.15103L563.04376 291.15103L563.04376 292.91666ZM564.6844 279.1354Q564.6844 277.60416 565.65314 276.60416Q566.6375 275.60416 568.16876 275.60416Q569.73126 275.60416 570.7 276.60416Q571.66876 277.60416 571.66876 279.1979L571.66876 280.04166Q571.66876 281.58853 570.6844 282.5729Q569.71564 283.54166 568.2 283.54166Q566.66876 283.54166 565.66876 282.5729Q564.6844 281.58853 564.6844 279.9479L564.6844 279.1354ZM566.29376 280.04166Q566.29376 280.9479 566.8094 281.54166Q567.325 282.1354 568.2 282.1354Q569.02814 282.1354 569.52814 281.55728Q570.04376 280.97916 570.04376 279.99478L570.04376 279.1354Q570.04376 278.21353 569.54376 277.61978Q569.04376 277.02603 568.16876 277.02603Q567.3094 277.02603 566.79376 277.61978Q566.29376 278.21353 566.29376 279.18228L566.29376 280.04166ZM572.9969 288.72916Q572.9969 287.1979 573.96564 286.21353Q574.95 285.21353 576.48126 285.21353Q578.0125 285.21353 578.9969 286.1979Q579.98126 287.18228 579.98126 288.80728L579.98126 289.65103Q579.98126 291.18228 578.9969 292.18228Q578.02814 293.16666 576.4969 293.16666Q574.98126 293.16666 573.98126 292.18228Q572.9969 291.1979 572.9969 289.5729L572.9969 288.72916ZM574.60626 289.65103Q574.60626 290.5729 575.1219 291.16666Q575.6375 291.7604 576.5125 291.7604Q577.35626 291.7604 577.85626 291.18228Q578.35626 290.58853 578.35626 289.60416L578.35626 288.72916Q578.35626 287.80728 577.84064 287.22916Q577.34064 286.6354 576.48126 286.6354Q575.65314 286.6354 575.1219 287.21353Q574.60626 287.79166 574.60626 288.77603L574.60626 289.65103ZM568.6844 291.61978L567.46564 290.85416L575.79376 277.5104L577.02814 278.29166L568.6844 291.61978Z" fill-rule="nonzero"/><path stroke="#757575" stroke-width="1.0" stroke-linecap="butt" d="M581.45 268.41666L454.76666 268.41666L425.7532 268.18008" fill-rule="nonzero"/><path fill="#9e9e9e" d="M427.7532 268.18008C427.7532 267.0755 426.85776 266.18008 425.7532 266.18008C424.64862 266.18008 423.7532 267.0755 423.7532 268.18008C423.7532 269.28467 424.64862 270.18008 425.7532 270.18008C426.85776 270.18008 427.7532 269.28467 427.7532 268.18008" fill-rule="nonzero"/><path fill="#757575" d="M21.596874 37.940624Q25.659374 37.8625 28.003124 36.690624Q26.83125 35.675 25.1125 34.89375Q23.628124 35.909374 22.221874 36.45625L21.51875 35.128124Q24.565624 34.1125 26.440624 31.221874L21.596874 31.221874L21.596874 33.253124L20.034374 33.253124L20.034374 29.971874L36.909374 29.971874L36.909374 33.096874L35.346874 33.096874L35.346874 31.221874L28.08125 31.221874L27.3 32.39375L32.6125 32.39375L33.003124 32.003124L34.253124 32.940624Q34.565624 33.33125 33.940624 33.4875Q30.190624 38.878124 22.14375 39.503124L21.596874 37.940624ZM26.440624 33.64375L26.05 34.034374Q28.159374 34.815624 29.4875 35.83125Q31.20625 34.7375 31.83125 33.64375L26.440624 33.64375ZM34.8 29.034374L22.221874 29.034374L22.221874 25.128124L24.95625 25.128124L24.95625 24.034374L20.034374 24.034374L20.034374 22.784374L24.95625 22.784374L24.95625 21.221874L26.440624 21.221874Q27.065624 21.3 26.51875 21.690624L26.51875 22.784374L30.346874 22.784374L30.346874 21.221874L31.83125 21.221874Q32.45625 21.3 31.909374 21.690624L31.909374 22.784374L36.909374 22.784374L36.909374 24.034374L31.909374 24.034374L31.909374 25.128124L34.8 25.128124L34.8 29.034374ZM26.05 26.378124L23.784374 26.378124L23.784374 27.784374L26.05 27.784374L26.05 26.378124ZM27.378124 26.378124L27.378124 27.784374L29.565624 27.784374L29.565624 26.378124L27.378124 26.378124ZM33.2375 26.378124L30.89375 26.378124L30.89375 27.784374L33.2375 27.784374L33.2375 26.378124ZM30.346874 24.034374L26.51875 24.034374L26.51875 25.128124L30.346874 25.128124L30.346874 24.034374ZM44.253124 38.253124L42.45625 38.253124L42.45625 23.175L54.721874 23.175L54.721874 37.940624L52.925 37.940624L52.925 36.846874L44.253124 36.846874L44.253124 38.253124ZM52.925 29.1125L52.925 24.659374L44.253124 24.659374L44.253124 29.1125L52.925 29.1125ZM52.925 35.3625L52.925 30.596874L44.253124 30.596874L44.253124 35.3625L52.925 35.3625ZM73.08125 33.253124Q74.175 31.14375 74.40938 26.846874L71.75313 26.846874Q71.9875 31.14375 73.08125 33.253124ZM75.97188 26.846874Q75.81563 31.690624 74.09688 34.659374Q75.34688 36.221874 77.6125 37.39375L76.59688 39.1125Q74.09688 37.471874 73.08125 35.9875Q71.28438 38.01875 67.53438 39.503124L66.75313 37.940624Q70.81563 36.3 72.14375 34.58125Q70.81563 32.003124 70.65938 29.425Q70.19063 30.596874 69.72188 31.221874L68.39375 30.20625Q70.7375 26.76875 71.20625 21.690624L72.84688 22.08125Q73.31563 22.39375 72.6125 22.55Q72.37813 23.95625 71.9875 25.3625L77.3 25.3625L77.3 26.846874L75.97188 26.846874ZM68.70625 23.096874Q68.2375 24.26875 67.6125 25.05L66.3625 24.346874Q66.9875 23.33125 67.53438 22.003124L68.94063 22.70625Q69.25313 23.01875 68.70625 23.096874ZM63.70625 34.1125Q64.8 34.425 65.65938 34.815624Q66.28438 34.1125 66.675 32.70625L64.40938 32.70625Q64.09688 33.409374 63.70625 34.1125ZM62.6125 36.065624L61.3625 35.3625Q62.14375 34.190624 62.925 32.70625L59.95625 32.70625L59.95625 31.45625L63.39375 31.45625Q63.8625 30.440624 64.09688 29.7375L65.58125 30.128124Q65.89375 30.440624 65.34688 30.51875L64.87813 31.45625L69.33125 31.45625L69.33125 32.70625L68.15938 32.70625Q67.76875 34.26875 66.9875 35.3625Q67.69063 35.675 68.47188 36.14375L67.76875 37.39375Q66.90938 36.846874 66.20625 36.534374Q64.175 38.565624 60.7375 39.034374L60.190624 37.628124Q63.2375 37.315624 64.87813 35.909374Q64.01875 35.51875 63.159374 35.20625L62.6125 36.065624ZM64.175 21.378124L65.425 21.378124Q66.05 21.45625 65.50313 21.846874L65.50313 25.20625L69.4875 25.20625L69.4875 26.45625L66.20625 26.45625Q67.06563 27.471874 68.8625 28.409374L68.00313 29.7375Q66.675 28.95625 65.50313 27.55L65.50313 29.425L64.175 29.425L64.175 27.940624Q62.925 29.503124 60.7375 30.753124L59.721874 29.503124Q62.14375 28.253124 63.70625 26.45625L60.1125 26.45625L60.1125 25.20625L64.175 25.20625L64.175 21.378124ZM61.9875 24.971874Q61.440624 23.8 60.58125 22.940624L61.83125 22.159374Q62.76875 23.096874 63.2375 24.1125L61.9875 24.971874Z" fill-rule="nonzero"/><path fill="#757575" d="M85.20625 37.55L85.20625 23.33125L89.22188 23.33125Q91.06563 23.33125 92.4875 24.159374Q93.925 24.971874 94.69063 26.4875Q95.47188 28.003124 95.4875 29.95625L95.4875 30.8625Q95.4875 32.878124 94.70625 34.39375Q93.925 35.909374 92.4875 36.721874Q91.05 37.534374 89.14375 37.55L85.20625 37.55ZM87.08125 24.878124L87.08125 36.01875L89.05 36.01875Q91.22188 36.01875 92.425 34.675Q93.62813 33.315624 93.62813 30.83125L93.62813 30.003124Q93.62813 27.58125 92.4875 26.2375Q91.34688 24.89375 89.26875 24.878124L87.08125 24.878124ZM104.44063 37.55Q104.28438 37.2375 104.19063 36.440624Q102.925 37.753124 101.175 37.753124Q99.6125 37.753124 98.6125 36.8625Q97.6125 35.971874 97.6125 34.6125Q97.6125 32.971874 98.8625 32.065624Q100.12813 31.14375 102.39375 31.14375L104.15938 31.14375L104.15938 30.315624Q104.15938 29.3625 103.58125 28.8Q103.01875 28.2375 101.925 28.2375Q100.95625 28.2375 100.3 28.7375Q99.64375 29.221874 99.64375 29.909374L97.83125 29.909374Q97.83125 29.128124 98.39375 28.39375Q98.95625 27.64375 99.90938 27.221874Q100.87813 26.784374 102.03438 26.784374Q103.8625 26.784374 104.89375 27.70625Q105.925 28.6125 105.97188 30.221874L105.97188 35.08125Q105.97188 36.534374 106.33125 37.39375L106.33125 37.55L104.44063 37.55ZM101.44063 36.175Q102.3 36.175 103.05 35.7375Q103.81563 35.3 104.15938 34.596874L104.15938 32.425L102.7375 32.425Q99.425 32.425 99.425 34.3625Q99.425 35.221874 99.9875 35.70625Q100.55 36.175 101.44063 36.175ZM112.37813 34.909374L114.83125 26.9875L116.76875 26.9875L112.51875 39.175Q111.53438 41.815624 109.39375 41.815624L109.05 41.784374L108.37813 41.659374L108.37813 40.190624L108.8625 40.2375Q109.78438 40.2375 110.28438 39.8625Q110.8 39.4875 111.12813 38.503124L111.53438 37.425L107.76875 26.9875L109.7375 26.9875L112.37813 34.909374ZM124.06563 34.753124Q124.06563 34.01875 123.51875 33.6125Q122.97188 33.20625 121.59688 32.909374Q120.22188 32.6125 119.40938 32.20625Q118.6125 31.8 118.22188 31.2375Q117.84688 30.659374 117.84688 29.878124Q117.84688 28.58125 118.94063 27.690624Q120.03438 26.784374 121.75313 26.784374Q123.55 26.784374 124.65938 27.721874Q125.78438 28.64375 125.78438 30.08125L123.95625 30.08125Q123.95625 29.346874 123.33125 28.815624Q122.70625 28.26875 121.75313 28.26875Q120.75313 28.26875 120.19063 28.70625Q119.64375 29.128124 119.64375 29.83125Q119.64375 30.471874 120.15938 30.815624Q120.675 31.14375 122.03438 31.45625Q123.39375 31.753124 124.22188 32.175Q125.06563 32.58125 125.47188 33.175Q125.87813 33.76875 125.87813 34.6125Q125.87813 36.034374 124.7375 36.89375Q123.6125 37.753124 121.8 37.753124Q120.53438 37.753124 119.55 37.3Q118.58125 36.846874 118.01875 36.05Q117.47188 35.2375 117.47188 34.3L119.28438 34.3Q119.33125 35.20625 120.00313 35.7375Q120.69063 36.26875 121.8 36.26875Q122.83125 36.26875 123.44063 35.8625Q124.06563 35.440624 124.06563 34.753124ZM135.3625 24.425L135.3625 26.9875L137.34688 26.9875L137.34688 28.378124L135.3625 28.378124L135.3625 34.925Q135.3625 35.565624 135.62813 35.89375Q135.89375 36.20625 136.53438 36.20625Q136.84688 36.20625 137.39375 36.08125L137.39375 37.55Q136.675 37.753124 136.00313 37.753124Q134.8 37.753124 134.175 37.01875Q133.56563 36.284374 133.56563 34.925L133.56563 28.378124L131.64375 28.378124L131.64375 26.9875L133.56563 26.9875L133.56563 24.425L135.3625 24.425ZM139.44063 32.175Q139.44063 30.6125 140.05 29.378124Q140.65938 28.128124 141.7375 27.45625Q142.83125 26.784374 144.2375 26.784374Q146.39375 26.784374 147.72188 28.284374Q149.06563 29.76875 149.06563 32.253124L149.06563 32.378124Q149.06563 33.925 148.47188 35.159374Q147.87813 36.378124 146.76875 37.065624Q145.675 37.753124 144.25313 37.753124Q142.1125 37.753124 140.76875 36.253124Q139.44063 34.753124 139.44063 32.3L139.44063 32.175ZM141.25313 32.378124Q141.25313 34.14375 142.06563 35.20625Q142.89375 36.26875 144.25313 36.26875Q145.62813 36.26875 146.44063 35.190624Q147.25313 34.1125 147.25313 32.175Q147.25313 30.425 146.425 29.346874Q145.59688 28.26875 144.2375 28.26875Q142.89375 28.26875 142.06563 29.33125Q141.25313 30.39375 141.25313 32.378124ZM155.47188 32.175Q155.47188 29.753124 156.62813 28.26875Q157.78438 26.784374 159.64375 26.784374Q161.50313 26.784374 162.58125 28.05L162.58125 22.55L164.39375 22.55L164.39375 37.55L162.7375 37.55L162.64375 36.409374Q161.56563 37.753124 159.62813 37.753124Q157.8 37.753124 156.62813 36.253124Q155.47188 34.7375 155.47188 32.315624L155.47188 32.175ZM157.28438 32.378124Q157.28438 34.175 158.01875 35.190624Q158.76875 36.20625 160.08125 36.20625Q161.8 36.20625 162.58125 34.675L162.58125 29.815624Q161.78438 28.315624 160.09688 28.315624Q158.76875 28.315624 158.01875 29.346874Q157.28438 30.378124 157.28438 32.378124ZM172.01875 28.596874Q171.6125 28.534374 171.14375 28.534374Q169.3625 28.534374 168.72188 30.05L168.72188 37.55L166.925 37.55L166.925 26.9875L168.675 26.9875L168.70625 28.20625Q169.59688 26.784374 171.22188 26.784374Q171.75313 26.784374 172.01875 26.925L172.01875 28.596874ZM178.3 37.753124Q176.15938 37.753124 174.8 36.346874Q173.45625 34.925 173.45625 32.565624L173.45625 32.221874Q173.45625 30.659374 174.05 29.425Q174.65938 28.190624 175.7375 27.4875Q176.81563 26.784374 178.08125 26.784374Q180.14375 26.784374 181.28438 28.14375Q182.425 29.503124 182.425 32.034374L182.425 32.784374L175.26875 32.784374Q175.3 34.346874 176.175 35.315624Q177.05 36.26875 178.39375 36.26875Q179.3625 36.26875 180.01875 35.878124Q180.69063 35.4875 181.19063 34.846874L182.28438 35.70625Q180.95625 37.753124 178.3 37.753124ZM178.08125 28.26875Q176.9875 28.26875 176.2375 29.065624Q175.50313 29.8625 175.33125 31.3L180.6125 31.3L180.6125 31.159374Q180.53438 29.784374 179.8625 29.034374Q179.20625 28.26875 178.08125 28.26875ZM191.44063 37.55Q191.28438 37.2375 191.19063 36.440624Q189.925 37.753124 188.175 37.753124Q186.6125 37.753124 185.6125 36.8625Q184.6125 35.971874 184.6125 34.6125Q184.6125 32.971874 185.8625 32.065624Q187.12813 31.14375 189.39375 31.14375L191.15938 31.14375L191.15938 30.315624Q191.15938 29.3625 190.58125 28.8Q190.01875 28.2375 188.925 28.2375Q187.95625 28.2375 187.3 28.7375Q186.64375 29.221874 186.64375 29.909374L184.83125 29.909374Q184.83125 29.128124 185.39375 28.39375Q185.95625 27.64375 186.90938 27.221874Q187.87813 26.784374 189.03438 26.784374Q190.8625 26.784374 191.89375 27.70625Q192.925 28.6125 192.97188 30.221874L192.97188 35.08125Q192.97188 36.534374 193.33125 37.39375L193.33125 37.55L191.44063 37.55ZM188.44063 36.175Q189.3 36.175 190.05 35.7375Q190.81563 35.3 191.15938 34.596874L191.15938 32.425L189.7375 32.425Q186.425 32.425 186.425 34.3625Q186.425 35.221874 186.9875 35.70625Q187.55 36.175 188.44063 36.175ZM197.6125 26.9875L197.65938 28.159374Q198.83125 26.784374 200.8 26.784374Q203.01875 26.784374 203.81563 28.4875Q204.34688 27.721874 205.19063 27.253124Q206.03438 26.784374 207.19063 26.784374Q210.65938 26.784374 210.72188 30.471874L210.72188 37.55L208.90938 37.55L208.90938 30.58125Q208.90938 29.440624 208.39375 28.878124Q207.87813 28.315624 206.65938 28.315624Q205.65938 28.315624 204.9875 28.925Q204.33125 29.51875 204.22188 30.534374L204.22188 37.55L202.40938 37.55L202.40938 30.628124Q202.40938 28.315624 200.14375 28.315624Q198.3625 28.315624 197.72188 29.83125L197.72188 37.55L195.90938 37.55L195.90938 26.9875L197.6125 26.9875ZM218.84688 31.784374Q218.84688 29.565624 219.44063 27.534374Q220.03438 25.503124 221.20625 23.846874Q222.37813 22.190624 223.62813 21.503124L224.00313 22.690624Q222.58125 23.784374 221.65938 26.034374Q220.75313 28.284374 220.65938 31.065624L220.65938 31.89375Q220.65938 35.659374 222.03438 38.440624Q222.8625 40.096874 224.00313 41.034374L223.62813 42.14375Q222.33125 41.425 221.15938 39.721874Q218.84688 36.39375 218.84688 31.784374ZM235.05 37.55L225.7375 37.55L225.7375 36.253124L230.65938 30.784374Q231.75313 29.534374 232.15938 28.76875Q232.58125 27.9875 232.58125 27.159374Q232.58125 26.05 231.90938 25.33125Q231.2375 24.6125 230.1125 24.6125Q228.75313 24.6125 228.00313 25.39375Q227.26875 26.159374 227.26875 27.51875L225.45625 27.51875Q225.45625 25.55 226.72188 24.346874Q227.9875 23.128124 230.1125 23.128124Q232.09688 23.128124 233.2375 24.175Q234.39375 25.221874 234.39375 26.940624Q234.39375 29.05 231.72188 31.940624L227.90938 36.08125L235.05 36.08125L235.05 37.55ZM245.64375 31.4875Q245.64375 34.659374 244.56563 36.20625Q243.4875 37.753124 241.175 37.753124Q238.89375 37.753124 237.8 36.2375Q236.70625 34.721874 236.675 31.721874L236.675 29.315624Q236.675 26.175 237.75313 24.659374Q238.84688 23.128124 241.15938 23.128124Q243.45625 23.128124 244.53438 24.6125Q245.6125 26.08125 245.64375 29.14375L245.64375 31.4875ZM243.84688 29.01875Q243.84688 26.721874 243.19063 25.675Q242.55 24.6125 241.15938 24.6125Q239.76875 24.6125 239.12813 25.659374Q238.50313 26.70625 238.4875 28.878124L238.4875 31.76875Q238.4875 34.065624 239.14375 35.175Q239.81563 36.26875 241.175 36.26875Q242.51875 36.26875 243.15938 35.2375Q243.81563 34.20625 243.84688 31.971874L243.84688 29.01875ZM256.64374 31.4875Q256.64374 34.659374 255.56563 36.20625Q254.4875 37.753124 252.175 37.753124Q249.89375 37.753124 248.8 36.2375Q247.70625 34.721874 247.675 31.721874L247.675 29.315624Q247.675 26.175 248.75313 24.659374Q249.84688 23.128124 252.15938 23.128124Q254.45625 23.128124 255.53438 24.6125Q256.6125 26.08125 256.64374 29.14375L256.64374 31.4875ZM254.84688 29.01875Q254.84688 26.721874 254.19063 25.675Q253.55 24.6125 252.15938 24.6125Q250.76875 24.6125 250.12813 25.659374Q249.50313 26.70625 249.4875 28.878124L249.4875 31.76875Q249.4875 34.065624 250.14375 35.175Q250.81563 36.26875 252.175 36.26875Q253.51875 36.26875 254.15938 35.2375Q254.81563 34.20625 254.84688 31.971874L254.84688 29.01875ZM267.90936 24.346874L262.01874 37.55L260.1281 37.55L266.0031 24.815624L258.3 24.815624L258.3 23.33125L267.90936 23.33125L267.90936 24.346874ZM273.675 32.253124L268.90936 32.253124L268.90936 30.76875L273.675 30.76875L273.675 32.253124ZM285.05 37.55L275.7375 37.55L275.7375 36.253124L280.65936 30.784374Q281.7531 29.534374 282.15936 28.76875Q282.58124 27.9875 282.58124 27.159374Q282.58124 26.05 281.90936 25.33125Q281.2375 24.6125 280.1125 24.6125Q278.7531 24.6125 278.0031 25.39375Q277.26874 26.159374 277.26874 27.51875L275.45624 27.51875Q275.45624 25.55 276.72186 24.346874Q277.9875 23.128124 280.1125 23.128124Q282.09686 23.128124 283.2375 24.175Q284.39374 25.221874 284.39374 26.940624Q284.39374 29.05 281.72186 31.940624L277.90936 36.08125L285.05 36.08125L285.05 37.55ZM295.64374 31.4875Q295.64374 34.659374 294.5656 36.20625Q293.4875 37.753124 291.175 37.753124Q288.89374 37.753124 287.8 36.2375Q286.70624 34.721874 286.675 31.721874L286.675 29.315624Q286.675 26.175 287.7531 24.659374Q288.84686 23.128124 291.15936 23.128124Q293.45624 23.128124 294.53436 24.6125Q295.6125 26.08125 295.64374 29.14375L295.64374 31.4875ZM293.84686 29.01875Q293.84686 26.721874 293.1906 25.675Q292.55 24.6125 291.15936 24.6125Q289.76874 24.6125 289.1281 25.659374Q288.5031 26.70625 288.4875 28.878124L288.4875 31.76875Q288.4875 34.065624 289.14374 35.175Q289.8156 36.26875 291.175 36.26875Q292.51874 36.26875 293.15936 35.2375Q293.8156 34.20625 293.84686 31.971874L293.84686 29.01875ZM303.675 37.55L301.84686 37.55L301.84686 25.503124L298.20624 26.846874L298.20624 25.20625L303.39374 23.26875L303.675 23.26875L303.675 37.55ZM315.65936 31.3Q315.09686 31.971874 314.3 32.39375Q313.51874 32.8 312.58124 32.8Q311.34686 32.8 310.425 32.190624Q309.51874 31.58125 309.01874 30.4875Q308.53436 29.378124 308.53436 28.05Q308.53436 26.628124 309.0656 25.4875Q309.6125 24.346874 310.59686 23.7375Q311.59686 23.128124 312.925 23.128124Q315.03436 23.128124 316.2531 24.70625Q317.47186 26.284374 317.47186 29.01875L317.47186 29.534374Q317.47186 33.690624 315.83124 35.596874Q314.1906 37.503124 310.8781 37.565624L310.53436 37.565624L310.53436 36.034374L310.90936 36.034374Q313.14374 36.003124 314.34686 34.878124Q315.55 33.7375 315.65936 31.3ZM312.8781 31.3Q313.78436 31.3 314.55 30.753124Q315.3156 30.190624 315.65936 29.3625L315.65936 28.64375Q315.65936 26.8625 314.89374 25.753124Q314.1281 24.64375 312.9406 24.64375Q311.7531 24.64375 311.01874 25.565624Q310.3 26.471874 310.3 27.95625Q310.3 29.409374 311.0031 30.3625Q311.70624 31.3 312.8781 31.3ZM324.08124 31.878124Q324.08124 34.05 323.5031 36.05Q322.9406 38.05 321.76874 39.7375Q320.59686 41.425 319.3 42.14375L318.925 41.034374Q320.425 39.878124 321.33124 37.45625Q322.2531 35.034374 322.26874 32.065624L322.26874 31.753124Q322.26874 29.70625 321.83124 27.940624Q321.40936 26.175 320.64374 24.784374Q319.8781 23.39375 318.925 22.6125L319.3 21.503124Q320.59686 22.221874 321.7531 23.89375Q322.925 25.55 323.5031 27.565624Q324.08124 29.58125 324.08124 31.878124Z" fill-rule="nonzero"/></svg>