<svg version="1.1" viewBox="0.0 0.0 600.0 371.0" fill="none" stroke="none" stroke-linecap="square" stroke-miterlimit="10" width="600" height="371" xmlns:xlink="http://www.w3.org/1999/xlink" xmlns="http://www.w3.org/2000/svg"><path fill="#ffffff" d="M0 0L600.0 0L600.0 371.0L0 371.0L0 0Z" fill-rule="nonzero"/><path fill="#4285f4" d="M300.0 54.916668C308.42603 54.916668 316.83685 55.63253 325.1417 57.05654L312.57083 130.36993C308.41843 129.65793 304.213 129.3 300.0 129.3Z" fill-rule="nonzero"/><path fill="#db4437" d="M325.1417 57.05654C327.90848 57.530956 330.66132 58.083588 333.39685 58.713776L316.69843 131.19856C315.33066 130.88347 313.95425 130.60715 312.57083 130.36993Z" fill-rule="nonzero"/><path fill="#f4b400" d="M333.39685 58.713776C349.84848 62.503765 365.53497 69.06644 379.78424 78.12062L339.89212 140.90198C332.7675 136.37488 324.92422 133.09355 316.69843 131.19856Z" fill-rule="nonzero"/><path fill="#0f9d58" d="M379.78424 78.12062C401.22284 91.74299 418.81647 110.62769 430.88907 132.9757L365.44455 168.32951C359.40823 157.15552 350.61142 147.71317 339.89212 140.90198Z" fill-rule="nonzero"/><path fill="#ff6d00" d="M430.88907 132.9757C442.9617 155.3237 449.1112 180.39062 448.75177 205.78851L374.3759 204.73592C374.5556 192.03699 371.48087 179.50351 365.44455 168.32951Z" fill-rule="nonzero"/><path fill="#ab30c4" d="M152.43828 222.57935C147.0084 180.17671 160.08186 137.48737 188.32498 105.39696C216.5681 73.30655 257.2511 54.916668 300.0 54.916668L300.0 129.3C278.62555 129.3 258.28406 138.49493 244.16249 154.54015C230.04094 170.58534 223.5042 191.93002 226.21915 213.13135Z" fill-rule="nonzero"/><path fill="#46bdc6" d="M448.75177 205.78851C447.64688 283.861 386.3717 347.79434 308.41647 352.21173C230.46124 356.62912 162.35587 300.02722 152.43828 222.57935L226.21915 213.13135C231.17793 251.85529 265.23062 280.15622 304.20825 277.94754C343.18585 275.73883 373.82343 243.77216 374.3759 204.73592Z" fill-rule="nonzero"/><path fill="#ffffff" d="M361.80856 127.75287Q361.41794 128.22162 360.85544 128.5185Q360.30856 128.79974 359.6523 128.79974Q358.79294 128.79974 358.1523 128.37787Q357.5117 127.95599 357.16794 127.19037Q356.8242 126.40912 356.8242 125.48724Q356.8242 124.48724 357.1992 123.69037Q357.5742 122.87787 358.2773 122.45599Q358.98044 122.03412 359.9023 122.03412Q361.3867 122.03412 362.23044 123.14349Q363.0898 124.25287 363.0898 126.15912L363.0898 126.51849Q363.0898 129.42474 361.93356 130.7685Q360.79294 132.09662 358.4648 132.12787L358.2148 132.12787L358.2148 131.06537L358.49606 131.06537Q360.05856 131.03412 360.8867 130.25287Q361.73044 129.456 361.80856 127.75287ZM359.85544 127.75287Q360.49606 127.75287 361.0273 127.36224Q361.5742 126.97162 361.8242 126.39349L361.8242 125.89349Q361.8242 124.64349 361.2773 123.87787Q360.73044 123.09662 359.91794 123.09662Q359.0742 123.09662 358.55856 123.73724Q358.05856 124.36224 358.05856 125.40912Q358.05856 126.44037 358.54294 127.09662Q359.04294 127.75287 359.85544 127.75287ZM368.04294 128.081Q368.04294 126.54974 368.4492 125.12787Q368.87106 123.70599 369.68356 122.54974Q370.5117 121.37787 371.4023 120.89349L371.6523 121.73724Q370.6523 122.50287 370.0117 124.08099Q369.3867 125.64349 369.3242 127.58099L369.30856 128.17474Q369.30856 130.81537 370.2773 132.75287Q370.85544 133.90912 371.6523 134.56537L371.4023 135.34662Q370.48044 134.831 369.6523 133.6435Q368.04294 131.31537 368.04294 128.081ZM378.99606 124.76849Q378.99606 125.51849 378.60544 126.09662Q378.2148 126.67474 377.54294 127.00287Q378.3242 127.34662 378.7773 127.98724Q379.23044 128.62787 379.23044 129.44037Q379.23044 130.73724 378.35544 131.50287Q377.49606 132.2685 376.0742 132.2685Q374.6367 132.2685 373.7617 131.50287Q372.9023 130.72162 372.9023 129.44037Q372.9023 128.62787 373.3398 127.98724Q373.7773 127.33099 374.55856 127.00287Q373.9023 126.67474 373.5117 126.09662Q373.1367 125.50287 373.1367 124.76849Q373.1367 123.51849 373.93356 122.78412Q374.74606 122.03412 376.0742 122.03412Q377.3867 122.03412 378.18356 122.78412Q378.99606 123.51849 378.99606 124.76849ZM377.9648 129.40912Q377.9648 128.581 377.43356 128.06537Q376.9023 127.53412 376.04294 127.53412Q375.1992 127.53412 374.68356 128.04974Q374.16794 128.56537 374.16794 129.42474Q374.16794 130.2685 374.66794 130.75287Q375.16794 131.23724 376.0742 131.23724Q376.9492 131.23724 377.4492 130.75287Q377.9648 130.25287 377.9648 129.40912ZM376.0742 123.08099Q375.3242 123.08099 374.85544 123.54974Q374.4023 124.00287 374.4023 124.79974Q374.4023 125.54974 374.85544 126.01849Q375.30856 126.48724 376.05856 126.48724Q376.8242 126.48724 377.2773 126.01849Q377.73044 125.54974 377.73044 124.79974Q377.73044 124.03412 377.2617 123.56537Q376.79294 123.08099 376.0742 123.08099ZM381.12106 131.47162Q381.12106 131.1435 381.30856 130.92474Q381.5117 130.706 381.9023 130.706Q382.29294 130.706 382.49606 130.92474Q382.6992 131.1435 382.6992 131.47162Q382.6992 131.78412 382.49606 132.00287Q382.29294 132.206 381.9023 132.206Q381.5117 132.206 381.30856 132.00287Q381.12106 131.78412 381.12106 131.47162ZM389.12106 132.12787L387.85544 132.12787L387.85544 123.70599L385.29294 124.62787L385.29294 123.48724L388.91794 122.12787L389.12106 122.12787L389.12106 132.12787ZM392.85544 124.08099Q392.85544 123.19037 393.41794 122.61224Q393.99606 122.03412 394.8867 122.03412Q395.80856 122.03412 396.37106 122.62787Q396.93356 123.20599 396.93356 124.12787L396.93356 124.61224Q396.93356 125.51849 396.35544 126.09662Q395.79294 126.65912 394.9023 126.65912Q394.0117 126.65912 393.43356 126.09662Q392.85544 125.51849 392.85544 124.56537L392.85544 124.08099ZM393.79294 124.61224Q393.79294 125.14349 394.0898 125.48724Q394.4023 125.83099 394.9023 125.83099Q395.3867 125.83099 395.68356 125.50287Q395.98044 125.17474 395.98044 124.58099L395.98044 124.08099Q395.98044 123.54974 395.68356 123.20599Q395.4023 122.86224 394.8867 122.86224Q394.3867 122.86224 394.0898 123.20599Q393.79294 123.54974 393.79294 124.11224L393.79294 124.61224ZM397.6992 129.69037Q397.6992 128.78412 398.2617 128.22162Q398.8398 127.64349 399.73044 127.64349Q400.6367 127.64349 401.1992 128.22162Q401.7773 128.78412 401.7773 129.73724L401.7773 130.22162Q401.7773 131.11224 401.1992 131.69037Q400.6367 132.2685 399.74606 132.2685Q398.87106 132.2685 398.2773 131.706Q397.6992 131.12787 397.6992 130.17474L397.6992 129.69037ZM398.6523 130.22162Q398.6523 130.75287 398.9492 131.11224Q399.24606 131.456 399.74606 131.456Q400.24606 131.456 400.54294 131.11224Q400.8398 130.7685 400.8398 130.19037L400.8398 129.69037Q400.8398 129.1435 400.5273 128.79974Q400.23044 128.456 399.74606 128.456Q399.24606 128.456 398.9492 128.79974Q398.6523 129.1435 398.6523 129.72162L398.6523 130.22162ZM395.1992 131.37787L394.48044 130.92474L399.3398 123.14349L400.05856 123.59662L395.1992 131.37787ZM406.0117 128.15912Q406.0117 129.67474 405.60544 131.081Q405.2148 132.47162 404.3867 133.65912Q403.55856 134.84662 402.66794 135.34662L402.4023 134.56537Q403.4492 133.7685 404.0898 132.06537Q404.73044 130.36224 404.74606 128.29974L404.74606 128.081Q404.74606 126.64349 404.43356 125.40912Q404.1367 124.17474 403.60544 123.20599Q403.0742 122.22162 402.4023 121.67474L402.66794 120.89349Q403.55856 121.39349 404.37106 122.56537Q405.1992 123.73724 405.60544 125.14349Q406.0117 126.54974 406.0117 128.15912Z" fill-rule="nonzero"/><path fill="#000000" d="M388.53372 177.22462Q388.1431 177.69337 387.5806 177.99025Q387.03372 178.2715 386.37747 178.2715Q385.5181 178.2715 384.87747 177.84962Q384.23685 177.42775 383.8931 176.66212Q383.54935 175.88087 383.54935 174.959Q383.54935 173.959 383.92435 173.16212Q384.29935 172.34962 385.00247 171.92775Q385.7056 171.50587 386.62747 171.50587Q388.11185 171.50587 388.9556 172.61525Q389.81497 173.72462 389.81497 175.63087L389.81497 175.99025Q389.81497 178.8965 388.65872 180.24025Q387.5181 181.56837 385.18997 181.59962L384.93997 181.59962L384.93997 180.53712L385.22122 180.53712Q386.78372 180.50587 387.61185 179.72462Q388.4556 178.92775 388.53372 177.22462ZM386.5806 177.22462Q387.22122 177.22462 387.75247 176.834Q388.29935 176.44337 388.54935 175.86525L388.54935 175.36525Q388.54935 174.11525 388.00247 173.34962Q387.4556 172.56837 386.6431 172.56837Q385.79935 172.56837 385.28372 173.209Q384.78372 173.834 384.78372 174.88087Q384.78372 175.91212 385.2681 176.56837Q385.7681 177.22462 386.5806 177.22462ZM394.7681 177.55275Q394.7681 176.0215 395.17435 174.59962Q395.59622 173.17775 396.40872 172.0215Q397.23685 170.84962 398.12747 170.36525L398.37747 171.209Q397.37747 171.97462 396.73685 173.55275Q396.11185 175.11525 396.04935 177.05275L396.03372 177.6465Q396.03372 180.28712 397.00247 182.22462Q397.5806 183.38087 398.37747 184.03712L398.12747 184.81837Q397.2056 184.30275 396.37747 183.11525Q394.7681 180.78712 394.7681 177.55275ZM405.72122 174.24025Q405.72122 174.99025 405.3306 175.56837Q404.93997 176.1465 404.2681 176.47462Q405.04935 176.81837 405.50247 177.459Q405.9556 178.09962 405.9556 178.91212Q405.9556 180.209 405.0806 180.97462Q404.22122 181.74025 402.79935 181.74025Q401.36185 181.74025 400.48685 180.97462Q399.62747 180.19337 399.62747 178.91212Q399.62747 178.09962 400.06497 177.459Q400.50247 176.80275 401.28372 176.47462Q400.62747 176.1465 400.23685 175.56837Q399.86185 174.97462 399.86185 174.24025Q399.86185 172.99025 400.65872 172.25587Q401.47122 171.50587 402.79935 171.50587Q404.11185 171.50587 404.90872 172.25587Q405.72122 172.99025 405.72122 174.24025ZM404.68997 178.88087Q404.68997 178.05275 404.15872 177.53712Q403.62747 177.00587 402.7681 177.00587Q401.92435 177.00587 401.40872 177.5215Q400.8931 178.03712 400.8931 178.8965Q400.8931 179.74025 401.3931 180.22462Q401.8931 180.709 402.79935 180.709Q403.67435 180.709 404.17435 180.22462Q404.68997 179.72462 404.68997 178.88087ZM402.79935 172.55275Q402.04935 172.55275 401.5806 173.0215Q401.12747 173.47462 401.12747 174.2715Q401.12747 175.0215 401.5806 175.49025Q402.03372 175.959 402.78372 175.959Q403.54935 175.959 404.00247 175.49025Q404.4556 175.0215 404.4556 174.2715Q404.4556 173.50587 403.98685 173.03712Q403.5181 172.55275 402.79935 172.55275ZM407.84622 180.94337Q407.84622 180.61525 408.03372 180.3965Q408.23685 180.17775 408.62747 180.17775Q409.0181 180.17775 409.22122 180.3965Q409.42435 180.61525 409.42435 180.94337Q409.42435 181.25587 409.22122 181.47462Q409.0181 181.67775 408.62747 181.67775Q408.23685 181.67775 408.03372 181.47462Q407.84622 181.25587 407.84622 180.94337ZM415.84622 181.59962L414.5806 181.59962L414.5806 173.17775L412.0181 174.09962L412.0181 172.959L415.6431 171.59962L415.84622 171.59962L415.84622 181.59962ZM419.5806 173.55275Q419.5806 172.66212 420.1431 172.084Q420.72122 171.50587 421.61185 171.50587Q422.53372 171.50587 423.09622 172.09962Q423.65872 172.67775 423.65872 173.59962L423.65872 174.084Q423.65872 174.99025 423.0806 175.56837Q422.5181 176.13087 421.62747 176.13087Q420.73685 176.13087 420.15872 175.56837Q419.5806 174.99025 419.5806 174.03712L419.5806 173.55275ZM420.5181 174.084Q420.5181 174.61525 420.81497 174.959Q421.12747 175.30275 421.62747 175.30275Q422.11185 175.30275 422.40872 174.97462Q422.7056 174.6465 422.7056 174.05275L422.7056 173.55275Q422.7056 173.0215 422.40872 172.67775Q422.12747 172.334 421.61185 172.334Q421.11185 172.334 420.81497 172.67775Q420.5181 173.0215 420.5181 173.584L420.5181 174.084ZM424.42435 179.16212Q424.42435 178.25587 424.98685 177.69337Q425.56497 177.11525 426.4556 177.11525Q427.36185 177.11525 427.92435 177.69337Q428.50247 178.25587 428.50247 179.209L428.50247 179.69337Q428.50247 180.584 427.92435 181.16212Q427.36185 181.74025 426.47122 181.74025Q425.59622 181.74025 425.00247 181.17775Q424.42435 180.59962 424.42435 179.6465L424.42435 179.16212ZM425.37747 179.69337Q425.37747 180.22462 425.67435 180.584Q425.97122 180.92775 426.47122 180.92775Q426.97122 180.92775 427.2681 180.584Q427.56497 180.24025 427.56497 179.66212L427.56497 179.16212Q427.56497 178.61525 427.25247 178.2715Q426.9556 177.92775 426.47122 177.92775Q425.97122 177.92775 425.67435 178.2715Q425.37747 178.61525 425.37747 179.19337L425.37747 179.69337ZM421.92435 180.84962L421.2056 180.3965L426.06497 172.61525L426.78372 173.06837L421.92435 180.84962ZM432.73685 177.63087Q432.73685 179.1465 432.3306 180.55275Q431.93997 181.94337 431.11185 183.13087Q430.28372 184.31837 429.3931 184.81837L429.12747 184.03712Q430.17435 183.24025 430.81497 181.53712Q431.4556 179.834 431.47122 177.7715L431.47122 177.55275Q431.47122 176.11525 431.15872 174.88087Q430.86185 173.6465 430.3306 172.67775Q429.79935 171.69337 429.12747 171.1465L429.3931 170.36525Q430.28372 170.86525 431.09622 172.03712Q431.92435 173.209 432.3306 174.61525Q432.73685 176.0215 432.73685 177.63087Z" fill-rule="nonzero"/><path fill="#000000" d="M274.41684 318.09344L274.93246 313.1247L280.0262 313.1247L280.0262 314.29657L275.99496 314.29657L275.6981 316.9997Q276.43246 316.57782 277.35434 316.57782Q278.7137 316.57782 279.5106 317.48407Q280.3231 318.3747 280.3231 319.90594Q280.3231 321.4372 279.47934 322.32782Q278.6512 323.21844 277.16684 323.21844Q275.85434 323.21844 275.0106 322.48407Q274.18246 321.7497 274.05746 320.45282L275.2606 320.45282Q275.36996 321.3122 275.85434 321.7497Q276.35434 322.1872 277.16684 322.1872Q278.04184 322.1872 278.54184 321.59344Q279.05746 320.98407 279.05746 319.92157Q279.05746 318.92157 278.5106 318.32782Q277.9637 317.71844 277.05746 317.71844Q276.24496 317.71844 275.7606 318.07782L275.43246 318.34344L274.41684 318.09344ZM283.68246 317.48407L284.61996 317.48407Q285.5262 317.46844 286.0262 317.01532Q286.54184 316.5622 286.54184 315.78094Q286.54184 314.03094 284.80746 314.03094Q283.97934 314.03094 283.49496 314.4997Q283.0106 314.96844 283.0106 315.73407L281.74496 315.73407Q281.74496 314.54657 282.60434 313.76532Q283.47934 312.98407 284.80746 312.98407Q286.2137 312.98407 287.0106 313.73407Q287.80746 314.48407 287.80746 315.79657Q287.80746 316.45282 287.3856 317.0622Q286.97934 317.67157 286.24496 317.96844Q287.0731 318.23407 287.5106 318.84344Q287.9637 319.4372 287.9637 320.29657Q287.9637 321.64032 287.0887 322.4372Q286.2137 323.21844 284.80746 323.21844Q283.41684 323.21844 282.5262 322.46844Q281.6512 321.70282 281.6512 320.45282L282.93246 320.45282Q282.93246 321.23407 283.43246 321.71844Q283.9481 322.1872 284.80746 322.1872Q285.72934 322.1872 286.2137 321.70282Q286.6981 321.21844 286.6981 320.32782Q286.6981 319.46844 286.16684 318.9997Q285.6356 318.53094 284.61996 318.51532L283.68246 318.51532L283.68246 317.48407ZM292.91684 319.03094Q292.91684 317.4997 293.3231 316.07782Q293.74496 314.65594 294.55746 313.4997Q295.3856 312.32782 296.2762 311.84344L296.5262 312.6872Q295.5262 313.45282 294.8856 315.03094Q294.2606 316.59344 294.1981 318.53094L294.18246 319.1247Q294.18246 321.76532 295.1512 323.70282Q295.72934 324.85907 296.5262 325.51532L296.2762 326.29657Q295.35434 325.78094 294.5262 324.59344Q292.91684 322.26532 292.91684 319.03094ZM303.18246 319.73407L304.55746 319.73407L304.55746 320.76532L303.18246 320.76532L303.18246 323.07782L301.9012 323.07782L301.9012 320.76532L297.36996 320.76532L297.36996 320.01532L301.8231 313.1247L303.18246 313.1247L303.18246 319.73407ZM298.80746 319.73407L301.9012 319.73407L301.9012 314.85907L301.7606 315.1247L298.80746 319.73407ZM312.2606 313.82782L308.1356 323.07782L306.8231 323.07782L310.91684 314.15594L305.54184 314.15594L305.54184 313.1247L312.2606 313.1247L312.2606 313.82782ZM313.99496 322.42157Q313.99496 322.09344 314.18246 321.8747Q314.3856 321.65594 314.7762 321.65594Q315.16684 321.65594 315.36996 321.8747Q315.5731 322.09344 315.5731 322.42157Q315.5731 322.73407 315.36996 322.95282Q315.16684 323.15594 314.7762 323.15594Q314.3856 323.15594 314.18246 322.95282Q313.99496 322.73407 313.99496 322.42157ZM324.2606 313.82782L320.1356 323.07782L318.8231 323.07782L322.91684 314.15594L317.54184 314.15594L317.54184 313.1247L324.2606 313.1247L324.2606 313.82782ZM325.72934 315.03094Q325.72934 314.14032 326.29184 313.5622Q326.86996 312.98407 327.7606 312.98407Q328.68246 312.98407 329.24496 313.57782Q329.80746 314.15594 329.80746 315.07782L329.80746 315.5622Q329.80746 316.46844 329.22934 317.04657Q328.66684 317.60907 327.7762 317.60907Q326.8856 317.60907 326.30746 317.04657Q325.72934 316.46844 325.72934 315.51532L325.72934 315.03094ZM326.66684 315.5622Q326.66684 316.09344 326.9637 316.4372Q327.2762 316.78094 327.7762 316.78094Q328.2606 316.78094 328.55746 316.45282Q328.85434 316.1247 328.85434 315.53094L328.85434 315.03094Q328.85434 314.4997 328.55746 314.15594Q328.2762 313.8122 327.7606 313.8122Q327.2606 313.8122 326.9637 314.15594Q326.66684 314.4997 326.66684 315.0622L326.66684 315.5622ZM330.5731 320.64032Q330.5731 319.73407 331.1356 319.17157Q331.7137 318.59344 332.60434 318.59344Q333.5106 318.59344 334.0731 319.17157Q334.6512 319.73407 334.6512 320.6872L334.6512 321.17157Q334.6512 322.0622 334.0731 322.64032Q333.5106 323.21844 332.61996 323.21844Q331.74496 323.21844 331.1512 322.65594Q330.5731 322.07782 330.5731 321.1247L330.5731 320.64032ZM331.5262 321.17157Q331.5262 321.70282 331.8231 322.0622Q332.11996 322.40594 332.61996 322.40594Q333.11996 322.40594 333.41684 322.0622Q333.7137 321.71844 333.7137 321.14032L333.7137 320.64032Q333.7137 320.09344 333.4012 319.7497Q333.10434 319.40594 332.61996 319.40594Q332.11996 319.40594 331.8231 319.7497Q331.5262 320.09344 331.5262 320.67157L331.5262 321.17157ZM328.0731 322.32782L327.35434 321.8747L332.2137 314.09344L332.93246 314.54657L328.0731 322.32782ZM338.8856 319.10907Q338.8856 320.6247 338.47934 322.03094Q338.0887 323.42157 337.2606 324.60907Q336.43246 325.79657 335.54184 326.29657L335.2762 325.51532Q336.3231 324.71844 336.9637 323.01532Q337.60434 321.3122 337.61996 319.2497L337.61996 319.03094Q337.61996 317.59344 337.30746 316.35907Q337.0106 315.1247 336.47934 314.15594Q335.9481 313.17157 335.2762 312.6247L335.54184 311.84344Q336.43246 312.34344 337.24496 313.51532Q338.0731 314.6872 338.47934 316.09344Q338.8856 317.4997 338.8856 319.10907Z" fill-rule="nonzero"/><path fill="#ffffff" d="M185.41562 128.8748L186.35312 128.8748Q187.25937 128.85918 187.75937 128.40605Q188.275 127.95293 188.275 127.17168Q188.275 125.42168 186.54062 125.42168Q185.7125 125.42168 185.22812 125.89043Q184.74374 126.35918 184.74374 127.1248L183.47812 127.1248Q183.47812 125.9373 184.3375 125.15605Q185.2125 124.3748 186.54062 124.3748Q187.94687 124.3748 188.74374 125.1248Q189.54062 125.8748 189.54062 127.1873Q189.54062 127.84355 189.11874 128.45293Q188.7125 129.0623 187.97812 129.35918Q188.80624 129.6248 189.24374 130.23418Q189.69687 130.82793 189.69687 131.6873Q189.69687 133.03105 188.82187 133.82793Q187.94687 134.60918 186.54062 134.60918Q185.15 134.60918 184.25937 133.85918Q183.38437 133.09355 183.38437 131.84355L184.66562 131.84355Q184.66562 132.6248 185.16562 133.10918Q185.68124 133.57793 186.54062 133.57793Q187.4625 133.57793 187.94687 133.09355Q188.43124 132.60918 188.43124 131.71855Q188.43124 130.85918 187.9 130.39043Q187.36874 129.92168 186.35312 129.90605L185.41562 129.90605L185.41562 128.8748ZM197.80624 130.21855Q197.80624 132.4373 197.04062 133.53105Q196.29062 134.60918 194.68124 134.60918Q193.0875 134.60918 192.32187 133.5623Q191.55624 132.4998 191.525 130.39043L191.525 128.70293Q191.525 126.51543 192.275 125.45293Q193.04062 124.3748 194.66562 124.3748Q196.275 124.3748 197.025 125.40605Q197.79062 126.4373 197.80624 128.57793L197.80624 130.21855ZM196.54062 128.4998Q196.54062 126.89043 196.0875 126.15605Q195.65 125.42168 194.66562 125.42168Q193.69687 125.42168 193.24374 126.15605Q192.80624 126.8748 192.79062 128.39043L192.79062 130.42168Q192.79062 132.03105 193.25937 132.8123Q193.72812 133.57793 194.68124 133.57793Q195.61874 133.57793 196.07187 132.85918Q196.525 132.1248 196.54062 130.5623L196.54062 128.4998ZM202.65 130.42168Q202.65 128.89043 203.05624 127.46855Q203.47812 126.04668 204.29062 124.89043Q205.11874 123.71855 206.00937 123.23418L206.25937 124.07793Q205.25937 124.84355 204.61874 126.42168Q203.99374 127.98418 203.93124 129.92168L203.91562 130.51543Q203.91562 133.15605 204.88437 135.09355Q205.4625 136.2498 206.25937 136.90605L206.00937 137.6873Q205.0875 137.17168 204.25937 135.98418Q202.65 133.65605 202.65 130.42168ZM214.0875 134.46855L207.57187 134.46855L207.57187 133.5623L211.00937 129.73418Q211.775 128.85918 212.07187 128.32793Q212.36874 127.78105 212.36874 127.1873Q212.36874 126.42168 211.88437 125.92168Q211.41562 125.42168 210.63437 125.42168Q209.69687 125.42168 209.16562 125.95293Q208.65 126.48418 208.65 127.45293L207.38437 127.45293Q207.38437 126.07793 208.25937 125.23418Q209.15 124.3748 210.63437 124.3748Q212.025 124.3748 212.82187 125.10918Q213.63437 125.82793 213.63437 127.04668Q213.63437 128.51543 211.75937 130.54668L209.10312 133.4373L214.0875 133.4373L214.0875 134.46855ZM221.99374 125.21855L217.86874 134.46855L216.55624 134.46855L220.65 125.54668L215.275 125.54668L215.275 124.51543L221.99374 124.51543L221.99374 125.21855ZM223.72812 133.8123Q223.72812 133.48418 223.91562 133.26543Q224.11874 133.04668 224.50937 133.04668Q224.9 133.04668 225.10312 133.26543Q225.30624 133.48418 225.30624 133.8123Q225.30624 134.1248 225.10312 134.34355Q224.9 134.54668 224.50937 134.54668Q224.11874 134.54668 223.91562 134.34355Q223.72812 134.1248 223.72812 133.8123ZM233.80624 130.21855Q233.80624 132.4373 233.04062 133.53105Q232.29062 134.60918 230.68124 134.60918Q229.0875 134.60918 228.32187 133.5623Q227.55624 132.4998 227.525 130.39043L227.525 128.70293Q227.525 126.51543 228.275 125.45293Q229.04062 124.3748 230.66562 124.3748Q232.275 124.3748 233.025 125.40605Q233.79062 126.4373 233.80624 128.57793L233.80624 130.21855ZM232.54062 128.4998Q232.54062 126.89043 232.0875 126.15605Q231.65 125.42168 230.66562 125.42168Q229.69687 125.42168 229.24374 126.15605Q228.80624 126.8748 228.79062 128.39043L228.79062 130.42168Q228.79062 132.03105 229.25937 132.8123Q229.72812 133.57793 230.68124 133.57793Q231.61874 133.57793 232.07187 132.85918Q232.525 132.1248 232.54062 130.5623L232.54062 128.4998ZM235.4625 126.42168Q235.4625 125.53105 236.025 124.95293Q236.60312 124.3748 237.49374 124.3748Q238.41562 124.3748 238.97812 124.96855Q239.54062 125.54668 239.54062 126.46855L239.54062 126.95293Q239.54062 127.85918 238.9625 128.4373Q238.4 128.9998 237.50937 128.9998Q236.61874 128.9998 236.04062 128.4373Q235.4625 127.85918 235.4625 126.90605L235.4625 126.42168ZM236.4 126.95293Q236.4 127.48418 236.69687 127.82793Q237.00937 128.17168 237.50937 128.17168Q237.99374 128.17168 238.29062 127.84355Q238.5875 127.51543 238.5875 126.92168L238.5875 126.42168Q238.5875 125.89043 238.29062 125.54668Q238.00937 125.20293 237.49374 125.20293Q236.99374 125.20293 236.69687 125.54668Q236.4 125.89043 236.4 126.45293L236.4 126.95293ZM240.30624 132.03105Q240.30624 131.1248 240.86874 130.5623Q241.44687 129.98418 242.3375 129.98418Q243.24374 129.98418 243.80624 130.5623Q244.38437 131.1248 244.38437 132.07793L244.38437 132.5623Q244.38437 133.45293 243.80624 134.03105Q243.24374 134.60918 242.35312 134.60918Q241.47812 134.60918 240.88437 134.04668Q240.30624 133.46855 240.30624 132.51543L240.30624 132.03105ZM241.25937 132.5623Q241.25937 133.09355 241.55624 133.45293Q241.85312 133.79668 242.35312 133.79668Q242.85312 133.79668 243.15 133.45293Q243.44687 133.10918 243.44687 132.53105L243.44687 132.03105Q243.44687 131.48418 243.13437 131.14043Q242.8375 130.79668 242.35312 130.79668Q241.85312 130.79668 241.55624 131.14043Q241.25937 131.48418 241.25937 132.0623L241.25937 132.5623ZM237.80624 133.71855L237.0875 133.26543L241.94687 125.48418L242.66562 125.9373L237.80624 133.71855ZM248.61874 130.4998Q248.61874 132.01543 248.2125 133.42168Q247.82187 134.8123 246.99374 135.9998Q246.16562 137.1873 245.275 137.6873L245.00937 136.90605Q246.05624 136.10918 246.69687 134.40605Q247.3375 132.70293 247.35312 130.64043L247.35312 130.42168Q247.35312 128.98418 247.04062 127.7498Q246.74374 126.51543 246.2125 125.54668Q245.68124 124.5623 245.00937 124.01543L245.275 123.23418Q246.16562 123.73418 246.97812 124.90605Q247.80624 126.07793 248.2125 127.48418Q248.61874 128.89043 248.61874 130.4998Z" fill-rule="nonzero"/><path fill="#757575" d="M31.14375 102.81128L19.971874 102.81128L19.971874 101.24878L25.878124 94.68628Q27.190624 93.201904 27.690624 92.28003Q28.190624 91.34253 28.190624 90.34253Q28.190624 88.99878 27.378124 88.15503Q26.565624 87.295654 25.221874 87.295654Q23.596874 87.295654 22.70625 88.21753Q21.815624 89.139404 21.815624 90.78003L19.64375 90.78003Q19.64375 88.420654 21.159374 86.96753Q22.675 85.514404 25.221874 85.514404Q27.596874 85.514404 28.971874 86.764404Q30.3625 88.014404 30.3625 90.076904Q30.3625 92.608154 27.159374 96.076904L22.58125 101.045654L31.14375 101.045654L31.14375 102.81128ZM43.675 95.53003Q43.675 99.34253 42.3625 101.201904Q41.065624 103.045654 38.3 103.045654Q35.565624 103.045654 34.253124 101.233154Q32.940624 99.420654 32.89375 95.826904L32.89375 92.93628Q32.89375 89.170654 34.190624 87.34253Q35.503124 85.514404 38.284374 85.514404Q41.034374 85.514404 42.33125 87.28003Q43.628124 89.045654 43.675 92.71753L43.675 95.53003ZM41.503124 92.56128Q41.503124 89.81128 40.721874 88.56128Q39.95625 87.295654 38.284374 87.295654Q36.6125 87.295654 35.846874 88.545654Q35.096874 89.795654 35.065624 92.40503L35.065624 95.87378Q35.065624 98.639404 35.8625 99.96753Q36.675 101.28003 38.3 101.28003Q39.909374 101.28003 40.690624 100.045654Q41.471874 98.795654 41.503124 96.12378L41.503124 92.56128ZM53.096874 102.81128L50.909374 102.81128L50.909374 88.358154L46.55 89.96753L46.55 87.99878L52.753124 85.670654L53.096874 85.670654L53.096874 102.81128ZM69.9875 86.96753L62.925 102.81128L60.64375 102.81128L67.69063 87.53003L58.45625 87.53003L58.45625 85.74878L69.9875 85.74878L69.9875 86.96753Z" fill-rule="nonzero"/><path fill="#9e9e9e" d="M31.14375 134.81128L19.971874 134.81128L19.971874 133.24878L25.878124 126.68628Q27.190624 125.201904 27.690624 124.28003Q28.190624 123.34253 28.190624 122.34253Q28.190624 120.99878 27.378124 120.15503Q26.565624 119.295654 25.221874 119.295654Q23.596874 119.295654 22.70625 120.21753Q21.815624 121.139404 21.815624 122.78003L19.64375 122.78003Q19.64375 120.420654 21.159374 118.96753Q22.675 117.514404 25.221874 117.514404Q27.596874 117.514404 28.971874 118.764404Q30.3625 120.014404 30.3625 122.076904Q30.3625 124.608154 27.159374 128.0769L22.58125 133.04565L31.14375 133.04565L31.14375 134.81128ZM43.9875 118.96753L36.925 134.81128L34.64375 134.81128L41.690624 119.53003L32.45625 119.53003L32.45625 117.74878L43.9875 117.74878L43.9875 118.96753ZM46.2375 133.67065Q46.2375 133.10815 46.565624 132.73315Q46.909374 132.35815 47.565624 132.35815Q48.2375 132.35815 48.58125 132.73315Q48.940624 133.10815 48.940624 133.67065Q48.940624 134.21753 48.58125 134.5769Q48.2375 134.93628 47.565624 134.93628Q46.909374 134.93628 46.565624 134.5769Q46.2375 134.21753 46.2375 133.67065ZM62.675 127.53003Q62.675 131.34253 61.3625 133.2019Q60.065624 135.04565 57.3 135.04565Q54.565624 135.04565 53.253124 133.23315Q51.940624 131.42065 51.89375 127.826904L51.89375 124.93628Q51.89375 121.170654 53.190624 119.34253Q54.503124 117.514404 57.284374 117.514404Q60.034374 117.514404 61.33125 119.28003Q62.628124 121.045654 62.675 124.71753L62.675 127.53003ZM60.503124 124.56128Q60.503124 121.81128 59.721874 120.56128Q58.95625 119.295654 57.284374 119.295654Q55.6125 119.295654 54.846874 120.545654Q54.096874 121.795654 54.065624 124.40503L54.065624 127.87378Q54.065624 130.6394 54.8625 131.96753Q55.675 133.28003 57.3 133.28003Q58.909374 133.28003 59.690624 132.04565Q60.471874 130.79565 60.503124 128.12378L60.503124 124.56128ZM64.78438 121.03003Q64.78438 119.49878 65.75313 118.49878Q66.7375 117.49878 68.26875 117.49878Q69.83125 117.49878 70.8 118.49878Q71.76875 119.49878 71.76875 121.09253L71.76875 121.93628Q71.76875 123.483154 70.78438 124.46753Q69.81563 125.43628 68.3 125.43628Q66.76875 125.43628 65.76875 124.46753Q64.78438 123.483154 64.78438 121.84253L64.78438 121.03003ZM66.39375 121.93628Q66.39375 122.84253 66.90938 123.43628Q67.425 124.03003 68.3 124.03003Q69.12813 124.03003 69.62813 123.451904Q70.14375 122.87378 70.14375 121.889404L70.14375 121.03003Q70.14375 120.108154 69.64375 119.514404Q69.14375 118.920654 68.26875 118.920654Q67.40938 118.920654 66.89375 119.514404Q66.39375 120.108154 66.39375 121.076904L66.39375 121.93628ZM73.09688 130.62378Q73.09688 129.09253 74.06563 128.10815Q75.05 127.108154 76.58125 127.108154Q78.1125 127.108154 79.09688 128.09253Q80.08125 129.0769 80.08125 130.7019L80.08125 131.54565Q80.08125 133.0769 79.09688 134.0769Q78.12813 135.06128 76.59688 135.06128Q75.08125 135.06128 74.08125 134.0769Q73.09688 133.09253 73.09688 131.46753L73.09688 130.62378ZM74.70625 131.54565Q74.70625 132.46753 75.22188 133.06128Q75.7375 133.65503 76.6125 133.65503Q77.45625 133.65503 77.95625 133.0769Q78.45625 132.48315 78.45625 131.49878L78.45625 130.62378Q78.45625 129.7019 77.94063 129.12378Q77.44063 128.53003 76.58125 128.53003Q75.75313 128.53003 75.22188 129.10815Q74.70625 129.68628 74.70625 130.67065L74.70625 131.54565ZM68.78438 133.5144L67.56563 132.74878L75.89375 119.40503L77.12813 120.18628L68.78438 133.5144Z" fill-rule="nonzero"/><path stroke="#757575" stroke-width="1.0" stroke-linecap="butt" d="M18.55 110.31128L145.23334 110.31128L193.90874 110.31128" fill-rule="nonzero"/><path fill="#9e9e9e" d="M195.90874 110.31128C195.90874 109.2067 195.0133 108.31128 193.90874 108.31128C192.80417 108.31128 191.90874 109.2067 191.90874 110.31128C191.90874 111.41585 192.80417 112.31128 193.90874 112.31128C195.0133 112.31128 195.90874 111.41585 195.90874 110.31128" fill-rule="nonzero"/><path fill="#757575" d="M542.04376 77.916664L530.8719 77.916664L530.8719 76.354164L536.77814 69.791664Q538.09064 68.30729 538.59064 67.385414Q539.09064 66.447914 539.09064 65.447914Q539.09064 64.104164 538.27814 63.260414Q537.46564 62.40104 536.1219 62.40104Q534.4969 62.40104 533.60626 63.322914Q532.71564 64.24479 532.71564 65.885414L530.54376 65.885414Q530.54376 63.52604 532.0594 62.072914Q533.575 60.61979 536.1219 60.61979Q538.4969 60.61979 539.8719 61.86979Q541.2625 63.11979 541.2625 65.18229Q541.2625 67.71354 538.0594 71.18229L533.48126 76.15104L542.04376 76.15104L542.04376 77.916664ZM554.575 70.635414Q554.575 74.447914 553.2625 76.30729Q551.96564 78.15104 549.2 78.15104Q546.46564 78.15104 545.15314 76.33854Q543.84064 74.52604 543.79376 70.93229L543.79376 68.041664Q543.79376 64.27604 545.09064 62.447914Q546.40314 60.61979 549.1844 60.61979Q551.9344 60.61979 553.23126 62.385414Q554.52814 64.15104 554.575 67.822914L554.575 70.635414ZM552.40314 67.666664Q552.40314 64.916664 551.6219 63.666664Q550.85626 62.40104 549.1844 62.40104Q547.5125 62.40104 546.7469 63.65104Q545.9969 64.90104 545.96564 67.510414L545.96564 70.979164Q545.96564 73.74479 546.7625 75.072914Q547.575 76.385414 549.2 76.385414Q550.8094 76.385414 551.59064 75.15104Q552.3719 73.90104 552.40314 71.229164L552.40314 67.666664ZM563.9969 77.916664L561.8094 77.916664L561.8094 63.46354L557.45 65.072914L557.45 63.104164L563.65314 60.77604L563.9969 60.77604L563.9969 77.916664ZM573.02814 68.322914L574.65314 68.322914Q576.1844 68.30729 577.0594 67.52604Q577.95 66.729164 577.95 65.40104Q577.95 62.40104 574.95 62.40104Q573.54376 62.40104 572.7 63.21354Q571.8719 64.010414 571.8719 65.322914L569.7 65.322914Q569.7 63.30729 571.1844 61.96354Q572.66876 60.61979 574.95 60.61979Q577.3719 60.61979 578.73126 61.90104Q580.10626 63.166664 580.10626 65.447914Q580.10626 66.55729 579.3875 67.604164Q578.66876 68.65104 577.4344 69.166664Q578.84064 69.604164 579.60626 70.635414Q580.3719 71.666664 580.3719 73.15104Q580.3719 75.447914 578.8719 76.80729Q577.3719 78.15104 574.96564 78.15104Q572.5594 78.15104 571.0594 76.854164Q569.5594 75.541664 569.5594 73.416664L571.73126 73.416664Q571.73126 74.760414 572.60626 75.572914Q573.4969 76.385414 574.96564 76.385414Q576.54376 76.385414 577.3719 75.572914Q578.2 74.74479 578.2 73.197914Q578.2 71.71354 577.27814 70.916664Q576.3719 70.11979 574.65314 70.104164L573.02814 70.104164L573.02814 68.322914Z" fill-rule="nonzero"/><path fill="#9e9e9e" d="M533.8719 101.354164L534.73126 92.854164L543.48126 92.854164L543.48126 94.854164L536.575 94.854164L536.0594 99.510414Q537.3094 98.77604 538.90314 98.77604Q541.23126 98.77604 542.60626 100.322914Q543.98126 101.854164 543.98126 104.479164Q543.98126 107.11979 542.5594 108.635414Q541.1375 110.15104 538.575 110.15104Q536.3094 110.15104 534.8719 108.90104Q533.45 107.635414 533.2625 105.43229L535.3094 105.43229Q535.5125 106.885414 536.35626 107.635414Q537.2 108.385414 538.575 108.385414Q540.09064 108.385414 540.95 107.354164Q541.8094 106.322914 541.8094 104.49479Q541.8094 102.791664 540.8719 101.760414Q539.95 100.71354 538.40314 100.71354Q536.98126 100.71354 536.16876 101.33854L535.60626 101.80729L533.8719 101.354164ZM546.1375 108.77604Q546.1375 108.21354 546.46564 107.83854Q546.8094 107.46354 547.46564 107.46354Q548.1375 107.46354 548.48126 107.83854Q548.84064 108.21354 548.84064 108.77604Q548.84064 109.322914 548.48126 109.68229Q548.1375 110.041664 547.46564 110.041664Q546.8094 110.041664 546.46564 109.68229Q546.1375 109.322914 546.1375 108.77604ZM561.02814 104.18229L563.3875 104.18229L563.3875 105.947914L561.02814 105.947914L561.02814 109.916664L558.84064 109.916664L558.84064 105.947914L551.075 105.947914L551.075 104.68229L558.71564 92.854164L561.02814 92.854164L561.02814 104.18229ZM553.52814 104.18229L558.84064 104.18229L558.84064 95.822914L558.59064 96.291664L553.52814 104.18229ZM564.6844 96.135414Q564.6844 94.604164 565.65314 93.604164Q566.6375 92.604164 568.16876 92.604164Q569.73126 92.604164 570.7 93.604164Q571.66876 94.604164 571.66876 96.197914L571.66876 97.041664Q571.66876 98.58854 570.6844 99.572914Q569.71564 100.541664 568.2 100.541664Q566.66876 100.541664 565.66876 99.572914Q564.6844 98.58854 564.6844 96.947914L564.6844 96.135414ZM566.29376 97.041664Q566.29376 97.947914 566.8094 98.541664Q567.325 99.135414 568.2 99.135414Q569.02814 99.135414 569.52814 98.55729Q570.04376 97.979164 570.04376 96.99479L570.04376 96.135414Q570.04376 95.21354 569.54376 94.61979Q569.04376 94.02604 568.16876 94.02604Q567.3094 94.02604 566.79376 94.61979Q566.29376 95.21354 566.29376 96.18229L566.29376 97.041664ZM572.9969 105.729164Q572.9969 104.197914 573.96564 103.21354Q574.95 102.21354 576.48126 102.21354Q578.0125 102.21354 578.9969 103.197914Q579.98126 104.18229 579.98126 105.80729L579.98126 106.65104Q579.98126 108.18229 578.9969 109.18229Q578.02814 110.166664 576.4969 110.166664Q574.98126 110.166664 573.98126 109.18229Q572.9969 108.197914 572.9969 106.572914L572.9969 105.729164ZM574.60626 106.65104Q574.60626 107.572914 575.1219 108.166664Q575.6375 108.760414 576.5125 108.760414Q577.35626 108.760414 577.85626 108.18229Q578.35626 107.58854 578.35626 106.604164L578.35626 105.729164Q578.35626 104.80729 577.84064 104.229164Q577.34064 103.635414 576.48126 103.635414Q575.65314 103.635414 575.1219 104.21354Q574.60626 104.791664 574.60626 105.77604L574.60626 106.65104ZM568.6844 108.61979L567.46564 107.854164L575.79376 94.510414L577.02814 95.291664L568.6844 108.61979Z" fill-rule="nonzero"/><path stroke="#757575" stroke-width="1.0" stroke-linecap="butt" d="M581.45 85.416664L454.76666 85.416664L354.5456 73.30514" fill-rule="nonzero"/><path fill="#9e9e9e" d="M356.5456 73.30514C356.5456 72.20057 355.65018 71.30514 354.5456 71.30514C353.44104 71.30514 352.5456 72.20057 352.5456 73.30514C352.5456 74.409706 353.44104 75.30514 354.5456 75.30514C355.65018 75.30514 356.5456 74.409706 356.5456 73.30514" fill-rule="nonzero"/><path fill="#757575" d="M542.04376 138.91667L530.8719 138.91667L530.8719 137.35417L536.77814 130.79167Q538.09064 129.3073 538.59064 128.38542Q539.09064 127.44792 539.09064 126.44792Q539.09064 125.10417 538.27814 124.26042Q537.46564 123.40105 536.1219 123.40105Q534.4969 123.40105 533.60626 124.32292Q532.71564 125.2448 532.71564 126.88542L530.54376 126.88542Q530.54376 124.52605 532.0594 123.07292Q533.575 121.6198 536.1219 121.6198Q538.4969 121.6198 539.8719 122.8698Q541.2625 124.1198 541.2625 126.1823Q541.2625 128.71355 538.0594 132.1823L533.48126 137.15105L542.04376 137.15105L542.04376 138.91667ZM554.575 131.63542Q554.575 135.44792 553.2625 137.3073Q551.96564 139.15105 549.2 139.15105Q546.46564 139.15105 545.15314 137.33855Q543.84064 135.52605 543.79376 131.9323L543.79376 129.04167Q543.79376 125.27605 545.09064 123.44792Q546.40314 121.6198 549.1844 121.6198Q551.9344 121.6198 553.23126 123.38542Q554.52814 125.15105 554.575 128.82292L554.575 131.63542ZM552.40314 128.66667Q552.40314 125.91667 551.6219 124.66667Q550.85626 123.40105 549.1844 123.40105Q547.5125 123.40105 546.7469 124.65105Q545.9969 125.90105 545.96564 128.51042L545.96564 131.97917Q545.96564 134.7448 546.7625 136.07292Q547.575 137.38542 549.2 137.38542Q550.8094 137.38542 551.59064 136.15105Q552.3719 134.90105 552.40314 132.22917L552.40314 128.66667ZM563.9969 138.91667L561.8094 138.91667L561.8094 124.46355L557.45 126.07292L557.45 124.10417L563.65314 121.77605L563.9969 121.77605L563.9969 138.91667ZM579.02814 133.1823L581.3875 133.1823L581.3875 134.94792L579.02814 134.94792L579.02814 138.91667L576.84064 138.91667L576.84064 134.94792L569.075 134.94792L569.075 133.6823L576.71564 121.85417L579.02814 121.85417L579.02814 133.1823ZM571.52814 133.1823L576.84064 133.1823L576.84064 124.82292L576.59064 125.29167L571.52814 133.1823Z" fill-rule="nonzero"/><path fill="#9e9e9e" d="M543.21564 158.3073Q543.21564 159.58855 542.54376 160.58855Q541.8719 161.57292 540.71564 162.13542Q542.0594 162.71355 542.84064 163.82292Q543.6219 164.91667 543.6219 166.3073Q543.6219 168.52605 542.1219 169.83855Q540.6219 171.15105 538.1844 171.15105Q535.73126 171.15105 534.2469 169.83855Q532.7625 168.51042 532.7625 166.3073Q532.7625 164.9323 533.5125 163.82292Q534.27814 162.69792 535.60626 162.1198Q534.48126 161.5573 533.825 160.57292Q533.16876 159.57292 533.16876 158.3073Q533.16876 156.15105 534.54376 154.88542Q535.9344 153.6198 538.1844 153.6198Q540.4344 153.6198 541.825 154.88542Q543.21564 156.15105 543.21564 158.3073ZM541.45 166.26042Q541.45 164.83855 540.54376 163.9323Q539.6375 163.02605 538.16876 163.02605Q536.7 163.02605 535.8094 163.91667Q534.9344 164.8073 534.9344 166.26042Q534.9344 167.71355 535.79376 168.5573Q536.65314 169.38542 538.1844 169.38542Q539.71564 169.38542 540.575 168.54167Q541.45 167.69792 541.45 166.26042ZM538.1844 155.40105Q536.91876 155.40105 536.1219 156.19792Q535.325 156.97917 535.325 158.33855Q535.325 159.63542 536.10626 160.44792Q536.8875 161.2448 538.1844 161.2448Q539.4969 161.2448 540.2625 160.44792Q541.04376 159.63542 541.04376 158.33855Q541.04376 157.04167 540.23126 156.22917Q539.4344 155.40105 538.1844 155.40105ZM546.1375 169.77605Q546.1375 169.21355 546.46564 168.83855Q546.8094 168.46355 547.46564 168.46355Q548.1375 168.46355 548.48126 168.83855Q548.84064 169.21355 548.84064 169.77605Q548.84064 170.32292 548.48126 170.6823Q548.1375 171.04167 547.46564 171.04167Q546.8094 171.04167 546.46564 170.6823Q546.1375 170.32292 546.1375 169.77605ZM558.9969 170.91667L556.8094 170.91667L556.8094 156.46355L552.45 158.07292L552.45 156.10417L558.65314 153.77605L558.9969 153.77605L558.9969 170.91667ZM564.6844 157.13542Q564.6844 155.60417 565.65314 154.60417Q566.6375 153.60417 568.16876 153.60417Q569.73126 153.60417 570.7 154.60417Q571.66876 155.60417 571.66876 157.19792L571.66876 158.04167Q571.66876 159.58855 570.6844 160.57292Q569.71564 161.54167 568.2 161.54167Q566.66876 161.54167 565.66876 160.57292Q564.6844 159.58855 564.6844 157.94792L564.6844 157.13542ZM566.29376 158.04167Q566.29376 158.94792 566.8094 159.54167Q567.325 160.13542 568.2 160.13542Q569.02814 160.13542 569.52814 159.5573Q570.04376 158.97917 570.04376 157.9948L570.04376 157.13542Q570.04376 156.21355 569.54376 155.6198Q569.04376 155.02605 568.16876 155.02605Q567.3094 155.02605 566.79376 155.6198Q566.29376 156.21355 566.29376 157.1823L566.29376 158.04167ZM572.9969 166.72917Q572.9969 165.19792 573.96564 164.21355Q574.95 163.21355 576.48126 163.21355Q578.0125 163.21355 578.9969 164.19792Q579.98126 165.1823 579.98126 166.8073L579.98126 167.65105Q579.98126 169.1823 578.9969 170.1823Q578.02814 171.16667 576.4969 171.16667Q574.98126 171.16667 573.98126 170.1823Q572.9969 169.19792 572.9969 167.57292L572.9969 166.72917ZM574.60626 167.65105Q574.60626 168.57292 575.1219 169.16667Q575.6375 169.76042 576.5125 169.76042Q577.35626 169.76042 577.85626 169.1823Q578.35626 168.58855 578.35626 167.60417L578.35626 166.72917Q578.35626 165.8073 577.84064 165.22917Q577.34064 164.63542 576.48126 164.63542Q575.65314 164.63542 575.1219 165.21355Q574.60626 165.79167 574.60626 166.77605L574.60626 167.65105ZM568.6844 169.6198L567.46564 168.85417L575.79376 155.51042L577.02814 156.29167L568.6844 169.6198Z" fill-rule="nonzero"/><path stroke="#757575" stroke-width="1.0" stroke-linecap="butt" d="M581.45 146.41667L454.76666 146.41667L403.40646 107.34641" fill-rule="nonzero"/><path fill="#9e9e9e" d="M405.40646 107.34641C405.40646 106.24184 404.51102 105.34641 403.40646 105.34641C402.30188 105.34641 401.40646 106.24184 401.40646 107.34641C401.40646 108.45098 402.30188 109.34641 403.40646 109.34641C404.51102 109.34641 405.40646 108.45098 405.40646 107.34641" fill-rule="nonzero"/><path fill="#757575" d="M542.04376 199.91667L530.8719 199.91667L530.8719 198.35417L536.77814 191.79167Q538.09064 190.3073 538.59064 189.38542Q539.09064 188.44792 539.09064 187.44792Q539.09064 186.10417 538.27814 185.26042Q537.46564 184.40105 536.1219 184.40105Q534.4969 184.40105 533.60626 185.32292Q532.71564 186.2448 532.71564 187.88542L530.54376 187.88542Q530.54376 185.52605 532.0594 184.07292Q533.575 182.6198 536.1219 182.6198Q538.4969 182.6198 539.8719 183.8698Q541.2625 185.1198 541.2625 187.1823Q541.2625 189.71355 538.0594 193.1823L533.48126 198.15105L542.04376 198.15105L542.04376 199.91667ZM554.575 192.63542Q554.575 196.44792 553.2625 198.3073Q551.96564 200.15105 549.2 200.15105Q546.46564 200.15105 545.15314 198.33855Q543.84064 196.52605 543.79376 192.9323L543.79376 190.04167Q543.79376 186.27605 545.09064 184.44792Q546.40314 182.6198 549.1844 182.6198Q551.9344 182.6198 553.23126 184.38542Q554.52814 186.15105 554.575 189.82292L554.575 192.63542ZM552.40314 189.66667Q552.40314 186.91667 551.6219 185.66667Q550.85626 184.40105 549.1844 184.40105Q547.5125 184.40105 546.7469 185.65105Q545.9969 186.90105 545.96564 189.51042L545.96564 192.97917Q545.96564 195.7448 546.7625 197.07292Q547.575 198.38542 549.2 198.38542Q550.8094 198.38542 551.59064 197.15105Q552.3719 195.90105 552.40314 193.22917L552.40314 189.66667ZM563.9969 199.91667L561.8094 199.91667L561.8094 185.46355L557.45 187.07292L557.45 185.10417L563.65314 182.77605L563.9969 182.77605L563.9969 199.91667ZM570.8719 191.35417L571.73126 182.85417L580.48126 182.85417L580.48126 184.85417L573.575 184.85417L573.0594 189.51042Q574.3094 188.77605 575.90314 188.77605Q578.23126 188.77605 579.60626 190.32292Q580.98126 191.85417 580.98126 194.47917Q580.98126 197.1198 579.5594 198.63542Q578.1375 200.15105 575.575 200.15105Q573.3094 200.15105 571.8719 198.90105Q570.45 197.63542 570.2625 195.4323L572.3094 195.4323Q572.5125 196.88542 573.35626 197.63542Q574.2 198.38542 575.575 198.38542Q577.09064 198.38542 577.95 197.35417Q578.8094 196.32292 578.8094 194.4948Q578.8094 192.79167 577.8719 191.76042Q576.95 190.71355 575.40314 190.71355Q573.98126 190.71355 573.16876 191.33855L572.60626 191.8073L570.8719 191.35417Z" fill-rule="nonzero"/><path fill="#9e9e9e" d="M543.21564 219.3073Q543.21564 220.58855 542.54376 221.58855Q541.8719 222.57292 540.71564 223.13542Q542.0594 223.71355 542.84064 224.82292Q543.6219 225.91667 543.6219 227.3073Q543.6219 229.52605 542.1219 230.83855Q540.6219 232.15105 538.1844 232.15105Q535.73126 232.15105 534.2469 230.83855Q532.7625 229.51042 532.7625 227.3073Q532.7625 225.9323 533.5125 224.82292Q534.27814 223.69792 535.60626 223.1198Q534.48126 222.5573 533.825 221.57292Q533.16876 220.57292 533.16876 219.3073Q533.16876 217.15105 534.54376 215.88542Q535.9344 214.6198 538.1844 214.6198Q540.4344 214.6198 541.825 215.88542Q543.21564 217.15105 543.21564 219.3073ZM541.45 227.26042Q541.45 225.83855 540.54376 224.9323Q539.6375 224.02605 538.16876 224.02605Q536.7 224.02605 535.8094 224.91667Q534.9344 225.8073 534.9344 227.26042Q534.9344 228.71355 535.79376 229.5573Q536.65314 230.38542 538.1844 230.38542Q539.71564 230.38542 540.575 229.54167Q541.45 228.69792 541.45 227.26042ZM538.1844 216.40105Q536.91876 216.40105 536.1219 217.19792Q535.325 217.97917 535.325 219.33855Q535.325 220.63542 536.10626 221.44792Q536.8875 222.2448 538.1844 222.2448Q539.4969 222.2448 540.2625 221.44792Q541.04376 220.63542 541.04376 219.33855Q541.04376 218.04167 540.23126 217.22917Q539.4344 216.40105 538.1844 216.40105ZM546.1375 230.77605Q546.1375 230.21355 546.46564 229.83855Q546.8094 229.46355 547.46564 229.46355Q548.1375 229.46355 548.48126 229.83855Q548.84064 230.21355 548.84064 230.77605Q548.84064 231.32292 548.48126 231.6823Q548.1375 232.04167 547.46564 232.04167Q546.8094 232.04167 546.46564 231.6823Q546.1375 231.32292 546.1375 230.77605ZM558.9969 231.91667L556.8094 231.91667L556.8094 217.46355L552.45 219.07292L552.45 217.10417L558.65314 214.77605L558.9969 214.77605L558.9969 231.91667ZM564.6844 218.13542Q564.6844 216.60417 565.65314 215.60417Q566.6375 214.60417 568.16876 214.60417Q569.73126 214.60417 570.7 215.60417Q571.66876 216.60417 571.66876 218.19792L571.66876 219.04167Q571.66876 220.58855 570.6844 221.57292Q569.71564 222.54167 568.2 222.54167Q566.66876 222.54167 565.66876 221.57292Q564.6844 220.58855 564.6844 218.94792L564.6844 218.13542ZM566.29376 219.04167Q566.29376 219.94792 566.8094 220.54167Q567.325 221.13542 568.2 221.13542Q569.02814 221.13542 569.52814 220.5573Q570.04376 219.97917 570.04376 218.9948L570.04376 218.13542Q570.04376 217.21355 569.54376 216.6198Q569.04376 216.02605 568.16876 216.02605Q567.3094 216.02605 566.79376 216.6198Q566.29376 217.21355 566.29376 218.1823L566.29376 219.04167ZM572.9969 227.72917Q572.9969 226.19792 573.96564 225.21355Q574.95 224.21355 576.48126 224.21355Q578.0125 224.21355 578.9969 225.19792Q579.98126 226.1823 579.98126 227.8073L579.98126 228.65105Q579.98126 230.1823 578.9969 231.1823Q578.02814 232.16667 576.4969 232.16667Q574.98126 232.16667 573.98126 231.1823Q572.9969 230.19792 572.9969 228.57292L572.9969 227.72917ZM574.60626 228.65105Q574.60626 229.57292 575.1219 230.16667Q575.6375 230.76042 576.5125 230.76042Q577.35626 230.76042 577.85626 230.1823Q578.35626 229.58855 578.35626 228.60417L578.35626 227.72917Q578.35626 226.8073 577.84064 226.22917Q577.34064 225.63542 576.48126 225.63542Q575.65314 225.63542 575.1219 226.21355Q574.60626 226.79167 574.60626 227.77605L574.60626 228.65105ZM568.6844 230.6198L567.46564 229.85417L575.79376 216.51042L577.02814 217.29167L568.6844 230.6198Z" fill-rule="nonzero"/><path stroke="#757575" stroke-width="1.0" stroke-linecap="butt" d="M581.45 207.41667L454.76666 207.41667L437.25833 170.01065" fill-rule="nonzero"/><path fill="#9e9e9e" d="M439.25833 170.01065C439.25833 168.90607 438.36288 168.01065 437.25833 168.01065C436.15375 168.01065 435.25833 168.90607 435.25833 170.01065C435.25833 171.11522 436.15375 172.01065 437.25833 172.01065C438.36288 172.01065 439.25833 171.11522 439.25833 170.01065" fill-rule="nonzero"/><path fill="#757575" d="M542.04376 314.45L530.8719 314.45L530.8719 312.8875L536.77814 306.325Q538.09064 304.84064 538.59064 303.91876Q539.09064 302.98126 539.09064 301.98126Q539.09064 300.6375 538.27814 299.79376Q537.46564 298.9344 536.1219 298.9344Q534.4969 298.9344 533.60626 299.85626Q532.71564 300.77814 532.71564 302.41876L530.54376 302.41876Q530.54376 300.0594 532.0594 298.60626Q533.575 297.15314 536.1219 297.15314Q538.4969 297.15314 539.8719 298.40314Q541.2625 299.65314 541.2625 301.71564Q541.2625 304.2469 538.0594 307.71564L533.48126 312.6844L542.04376 312.6844L542.04376 314.45ZM554.575 307.16876Q554.575 310.98126 553.2625 312.84064Q551.96564 314.6844 549.2 314.6844Q546.46564 314.6844 545.15314 312.8719Q543.84064 311.0594 543.79376 307.46564L543.79376 304.575Q543.79376 300.8094 545.09064 298.98126Q546.40314 297.15314 549.1844 297.15314Q551.9344 297.15314 553.23126 298.91876Q554.52814 300.6844 554.575 304.35626L554.575 307.16876ZM552.40314 304.2Q552.40314 301.45 551.6219 300.2Q550.85626 298.9344 549.1844 298.9344Q547.5125 298.9344 546.7469 300.1844Q545.9969 301.4344 545.96564 304.04376L545.96564 307.5125Q545.96564 310.27814 546.7625 311.60626Q547.575 312.91876 549.2 312.91876Q550.8094 312.91876 551.59064 311.6844Q552.3719 310.4344 552.40314 307.7625L552.40314 304.2ZM563.9969 314.45L561.8094 314.45L561.8094 299.9969L557.45 301.60626L557.45 299.6375L563.65314 297.3094L563.9969 297.3094L563.9969 314.45ZM578.3719 297.3719L578.3719 299.21564L577.98126 299.21564Q575.45 299.2625 573.95 300.71564Q572.45 302.16876 572.21564 304.8094Q573.5594 303.2625 575.8875 303.2625Q578.1219 303.2625 579.45 304.84064Q580.77814 306.40314 580.77814 308.8875Q580.77814 311.5125 579.34064 313.10626Q577.90314 314.6844 575.4969 314.6844Q573.04376 314.6844 571.5125 312.8094Q569.9969 310.91876 569.9969 307.95L569.9969 307.1219Q569.9969 302.41876 571.9969 299.9344Q574.0125 297.4344 577.9969 297.3719L578.3719 297.3719ZM575.52814 305.0594Q574.41876 305.0594 573.48126 305.73126Q572.54376 306.40314 572.1844 307.40314L572.1844 308.2Q572.1844 310.3094 573.1219 311.60626Q574.075 312.8875 575.4969 312.8875Q576.96564 312.8875 577.79376 311.8094Q578.6375 310.73126 578.6375 308.98126Q578.6375 307.23126 577.77814 306.15314Q576.9344 305.0594 575.52814 305.0594Z" fill-rule="nonzero"/><path fill="#9e9e9e" d="M529.02814 340.71564L531.3875 340.71564L531.3875 342.48126L529.02814 342.48126L529.02814 346.45L526.84064 346.45L526.84064 342.48126L519.075 342.48126L519.075 341.21564L526.71564 329.3875L529.02814 329.3875L529.02814 340.71564ZM521.52814 340.71564L526.84064 340.71564L526.84064 332.35626L526.59064 332.825L521.52814 340.71564ZM543.8875 330.60626L536.825 346.45L534.54376 346.45L541.59064 331.16876L532.35626 331.16876L532.35626 329.3875L543.8875 329.3875L543.8875 330.60626ZM546.1375 345.3094Q546.1375 344.7469 546.46564 344.3719Q546.8094 343.9969 547.46564 343.9969Q548.1375 343.9969 548.48126 344.3719Q548.84064 344.7469 548.84064 345.3094Q548.84064 345.85626 548.48126 346.21564Q548.1375 346.575 547.46564 346.575Q546.8094 346.575 546.46564 346.21564Q546.1375 345.85626 546.1375 345.3094ZM562.8875 330.60626L555.825 346.45L553.54376 346.45L560.59064 331.16876L551.35626 331.16876L551.35626 329.3875L562.8875 329.3875L562.8875 330.60626ZM564.6844 332.66876Q564.6844 331.1375 565.65314 330.1375Q566.6375 329.1375 568.16876 329.1375Q569.73126 329.1375 570.7 330.1375Q571.66876 331.1375 571.66876 332.73126L571.66876 333.575Q571.66876 335.1219 570.6844 336.10626Q569.71564 337.075 568.2 337.075Q566.66876 337.075 565.66876 336.10626Q564.6844 335.1219 564.6844 333.48126L564.6844 332.66876ZM566.29376 333.575Q566.29376 334.48126 566.8094 335.075Q567.325 335.66876 568.2 335.66876Q569.02814 335.66876 569.52814 335.09064Q570.04376 334.5125 570.04376 333.52814L570.04376 332.66876Q570.04376 331.7469 569.54376 331.15314Q569.04376 330.5594 568.16876 330.5594Q567.3094 330.5594 566.79376 331.15314Q566.29376 331.7469 566.29376 332.71564L566.29376 333.575ZM572.9969 342.2625Q572.9969 340.73126 573.96564 339.7469Q574.95 338.7469 576.48126 338.7469Q578.0125 338.7469 578.9969 339.73126Q579.98126 340.71564 579.98126 342.34064L579.98126 343.1844Q579.98126 344.71564 578.9969 345.71564Q578.02814 346.7 576.4969 346.7Q574.98126 346.7 573.98126 345.71564Q572.9969 344.73126 572.9969 343.10626L572.9969 342.2625ZM574.60626 343.1844Q574.60626 344.10626 575.1219 344.7Q575.6375 345.29376 576.5125 345.29376Q577.35626 345.29376 577.85626 344.71564Q578.35626 344.1219 578.35626 343.1375L578.35626 342.2625Q578.35626 341.34064 577.84064 340.7625Q577.34064 340.16876 576.48126 340.16876Q575.65314 340.16876 575.1219 340.7469Q574.60626 341.325 574.60626 342.3094L574.60626 343.1844ZM568.6844 345.15314L567.46564 344.3875L575.79376 331.04376L577.02814 331.825L568.6844 345.15314Z" fill-rule="nonzero"/><path stroke="#757575" stroke-width="1.0" stroke-linecap="butt" d="M581.45 321.95L454.76666 321.95L307.99567 344.7853" fill-rule="nonzero"/><path fill="#9e9e9e" d="M309.99567 344.7853C309.99567 343.68073 309.10022 342.7853 307.99567 342.7853C306.89108 342.7853 305.99567 343.68073 305.99567 344.7853C305.99567 345.8899 306.89108 346.7853 307.99567 346.7853C309.10022 346.7853 309.99567 345.8899 309.99567 344.7853" fill-rule="nonzero"/><path fill="#757575" d="M21.596874 37.940624Q25.659374 37.8625 28.003124 36.690624Q26.83125 35.675 25.1125 34.89375Q23.628124 35.909374 22.221874 36.45625L21.51875 35.128124Q24.565624 34.1125 26.440624 31.221874L21.596874 31.221874L21.596874 33.253124L20.034374 33.253124L20.034374 29.971874L36.909374 29.971874L36.909374 33.096874L35.346874 33.096874L35.346874 31.221874L28.08125 31.221874L27.3 32.39375L32.6125 32.39375L33.003124 32.003124L34.253124 32.940624Q34.565624 33.33125 33.940624 33.4875Q30.190624 38.878124 22.14375 39.503124L21.596874 37.940624ZM26.440624 33.64375L26.05 34.034374Q28.159374 34.815624 29.4875 35.83125Q31.20625 34.7375 31.83125 33.64375L26.440624 33.64375ZM34.8 29.034374L22.221874 29.034374L22.221874 25.128124L24.95625 25.128124L24.95625 24.034374L20.034374 24.034374L20.034374 22.784374L24.95625 22.784374L24.95625 21.221874L26.440624 21.221874Q27.065624 21.3 26.51875 21.690624L26.51875 22.784374L30.346874 22.784374L30.346874 21.221874L31.83125 21.221874Q32.45625 21.3 31.909374 21.690624L31.909374 22.784374L36.909374 22.784374L36.909374 24.034374L31.909374 24.034374L31.909374 25.128124L34.8 25.128124L34.8 29.034374ZM26.05 26.378124L23.784374 26.378124L23.784374 27.784374L26.05 27.784374L26.05 26.378124ZM27.378124 26.378124L27.378124 27.784374L29.565624 27.784374L29.565624 26.378124L27.378124 26.378124ZM33.2375 26.378124L30.89375 26.378124L30.89375 27.784374L33.2375 27.784374L33.2375 26.378124ZM30.346874 24.034374L26.51875 24.034374L26.51875 25.128124L30.346874 25.128124L30.346874 24.034374ZM44.253124 38.253124L42.45625 38.253124L42.45625 23.175L54.721874 23.175L54.721874 37.940624L52.925 37.940624L52.925 36.846874L44.253124 36.846874L44.253124 38.253124ZM52.925 29.1125L52.925 24.659374L44.253124 24.659374L44.253124 29.1125L52.925 29.1125ZM52.925 35.3625L52.925 30.596874L44.253124 30.596874L44.253124 35.3625L52.925 35.3625ZM73.08125 33.253124Q74.175 31.14375 74.40938 26.846874L71.75313 26.846874Q71.9875 31.14375 73.08125 33.253124ZM75.97188 26.846874Q75.81563 31.690624 74.09688 34.659374Q75.34688 36.221874 77.6125 37.39375L76.59688 39.1125Q74.09688 37.471874 73.08125 35.9875Q71.28438 38.01875 67.53438 39.503124L66.75313 37.940624Q70.81563 36.3 72.14375 34.58125Q70.81563 32.003124 70.65938 29.425Q70.19063 30.596874 69.72188 31.221874L68.39375 30.20625Q70.7375 26.76875 71.20625 21.690624L72.84688 22.08125Q73.31563 22.39375 72.6125 22.55Q72.37813 23.95625 71.9875 25.3625L77.3 25.3625L77.3 26.846874L75.97188 26.846874ZM68.70625 23.096874Q68.2375 24.26875 67.6125 25.05L66.3625 24.346874Q66.9875 23.33125 67.53438 22.003124L68.94063 22.70625Q69.25313 23.01875 68.70625 23.096874ZM63.70625 34.1125Q64.8 34.425 65.65938 34.815624Q66.28438 34.1125 66.675 32.70625L64.40938 32.70625Q64.09688 33.409374 63.70625 34.1125ZM62.6125 36.065624L61.3625 35.3625Q62.14375 34.190624 62.925 32.70625L59.95625 32.70625L59.95625 31.45625L63.39375 31.45625Q63.8625 30.440624 64.09688 29.7375L65.58125 30.128124Q65.89375 30.440624 65.34688 30.51875L64.87813 31.45625L69.33125 31.45625L69.33125 32.70625L68.15938 32.70625Q67.76875 34.26875 66.9875 35.3625Q67.69063 35.675 68.47188 36.14375L67.76875 37.39375Q66.90938 36.846874 66.20625 36.534374Q64.175 38.565624 60.7375 39.034374L60.190624 37.628124Q63.2375 37.315624 64.87813 35.909374Q64.01875 35.51875 63.159374 35.20625L62.6125 36.065624ZM64.175 21.378124L65.425 21.378124Q66.05 21.45625 65.50313 21.846874L65.50313 25.20625L69.4875 25.20625L69.4875 26.45625L66.20625 26.45625Q67.06563 27.471874 68.8625 28.409374L68.00313 29.7375Q66.675 28.95625 65.50313 27.55L65.50313 29.425L64.175 29.425L64.175 27.940624Q62.925 29.503124 60.7375 30.753124L59.721874 29.503124Q62.14375 28.253124 63.70625 26.45625L60.1125 26.45625L60.1125 25.20625L64.175 25.20625L64.175 21.378124ZM61.9875 24.971874Q61.440624 23.8 60.58125 22.940624L61.83125 22.159374Q62.76875 23.096874 63.2375 24.1125L61.9875 24.971874Z" fill-rule="nonzero"/><path fill="#757575" d="M85.20625 37.55L85.20625 23.33125L89.22188 23.33125Q91.06563 23.33125 92.4875 24.159374Q93.925 24.971874 94.69063 26.4875Q95.47188 28.003124 95.4875 29.95625L95.4875 30.8625Q95.4875 32.878124 94.70625 34.39375Q93.925 35.909374 92.4875 36.721874Q91.05 37.534374 89.14375 37.55L85.20625 37.55ZM87.08125 24.878124L87.08125 36.01875L89.05 36.01875Q91.22188 36.01875 92.425 34.675Q93.62813 33.315624 93.62813 30.83125L93.62813 30.003124Q93.62813 27.58125 92.4875 26.2375Q91.34688 24.89375 89.26875 24.878124L87.08125 24.878124ZM104.44063 37.55Q104.28438 37.2375 104.19063 36.440624Q102.925 37.753124 101.175 37.753124Q99.6125 37.753124 98.6125 36.8625Q97.6125 35.971874 97.6125 34.6125Q97.6125 32.971874 98.8625 32.065624Q100.12813 31.14375 102.39375 31.14375L104.15938 31.14375L104.15938 30.315624Q104.15938 29.3625 103.58125 28.8Q103.01875 28.2375 101.925 28.2375Q100.95625 28.2375 100.3 28.7375Q99.64375 29.221874 99.64375 29.909374L97.83125 29.909374Q97.83125 29.128124 98.39375 28.39375Q98.95625 27.64375 99.90938 27.221874Q100.87813 26.784374 102.03438 26.784374Q103.8625 26.784374 104.89375 27.70625Q105.925 28.6125 105.97188 30.221874L105.97188 35.08125Q105.97188 36.534374 106.33125 37.39375L106.33125 37.55L104.44063 37.55ZM101.44063 36.175Q102.3 36.175 103.05 35.7375Q103.81563 35.3 104.15938 34.596874L104.15938 32.425L102.7375 32.425Q99.425 32.425 99.425 34.3625Q99.425 35.221874 99.9875 35.70625Q100.55 36.175 101.44063 36.175ZM112.37813 34.909374L114.83125 26.9875L116.76875 26.9875L112.51875 39.175Q111.53438 41.815624 109.39375 41.815624L109.05 41.784374L108.37813 41.659374L108.37813 40.190624L108.8625 40.2375Q109.78438 40.2375 110.28438 39.8625Q110.8 39.4875 111.12813 38.503124L111.53438 37.425L107.76875 26.9875L109.7375 26.9875L112.37813 34.909374ZM124.06563 34.753124Q124.06563 34.01875 123.51875 33.6125Q122.97188 33.20625 121.59688 32.909374Q120.22188 32.6125 119.40938 32.20625Q118.6125 31.8 118.22188 31.2375Q117.84688 30.659374 117.84688 29.878124Q117.84688 28.58125 118.94063 27.690624Q120.03438 26.784374 121.75313 26.784374Q123.55 26.784374 124.65938 27.721874Q125.78438 28.64375 125.78438 30.08125L123.95625 30.08125Q123.95625 29.346874 123.33125 28.815624Q122.70625 28.26875 121.75313 28.26875Q120.75313 28.26875 120.19063 28.70625Q119.64375 29.128124 119.64375 29.83125Q119.64375 30.471874 120.15938 30.815624Q120.675 31.14375 122.03438 31.45625Q123.39375 31.753124 124.22188 32.175Q125.06563 32.58125 125.47188 33.175Q125.87813 33.76875 125.87813 34.6125Q125.87813 36.034374 124.7375 36.89375Q123.6125 37.753124 121.8 37.753124Q120.53438 37.753124 119.55 37.3Q118.58125 36.846874 118.01875 36.05Q117.47188 35.2375 117.47188 34.3L119.28438 34.3Q119.33125 35.20625 120.00313 35.7375Q120.69063 36.26875 121.8 36.26875Q122.83125 36.26875 123.44063 35.8625Q124.06563 35.440624 124.06563 34.753124ZM135.3625 24.425L135.3625 26.9875L137.34688 26.9875L137.34688 28.378124L135.3625 28.378124L135.3625 34.925Q135.3625 35.565624 135.62813 35.89375Q135.89375 36.20625 136.53438 36.20625Q136.84688 36.20625 137.39375 36.08125L137.39375 37.55Q136.675 37.753124 136.00313 37.753124Q134.8 37.753124 134.175 37.01875Q133.56563 36.284374 133.56563 34.925L133.56563 28.378124L131.64375 28.378124L131.64375 26.9875L133.56563 26.9875L133.56563 24.425L135.3625 24.425ZM139.44063 32.175Q139.44063 30.6125 140.05 29.378124Q140.65938 28.128124 141.7375 27.45625Q142.83125 26.784374 144.2375 26.784374Q146.39375 26.784374 147.72188 28.284374Q149.06563 29.76875 149.06563 32.253124L149.06563 32.378124Q149.06563 33.925 148.47188 35.159374Q147.87813 36.378124 146.76875 37.065624Q145.675 37.753124 144.25313 37.753124Q142.1125 37.753124 140.76875 36.253124Q139.44063 34.753124 139.44063 32.3L139.44063 32.175ZM141.25313 32.378124Q141.25313 34.14375 142.06563 35.20625Q142.89375 36.26875 144.25313 36.26875Q145.62813 36.26875 146.44063 35.190624Q147.25313 34.1125 147.25313 32.175Q147.25313 30.425 146.425 29.346874Q145.59688 28.26875 144.2375 28.26875Q142.89375 28.26875 142.06563 29.33125Q141.25313 30.39375 141.25313 32.378124ZM155.47188 32.175Q155.47188 29.753124 156.62813 28.26875Q157.78438 26.784374 159.64375 26.784374Q161.50313 26.784374 162.58125 28.05L162.58125 22.55L164.39375 22.55L164.39375 37.55L162.7375 37.55L162.64375 36.409374Q161.56563 37.753124 159.62813 37.753124Q157.8 37.753124 156.62813 36.253124Q155.47188 34.7375 155.47188 32.315624L155.47188 32.175ZM157.28438 32.378124Q157.28438 34.175 158.01875 35.190624Q158.76875 36.20625 160.08125 36.20625Q161.8 36.20625 162.58125 34.675L162.58125 29.815624Q161.78438 28.315624 160.09688 28.315624Q158.76875 28.315624 158.01875 29.346874Q157.28438 30.378124 157.28438 32.378124ZM172.01875 28.596874Q171.6125 28.534374 171.14375 28.534374Q169.3625 28.534374 168.72188 30.05L168.72188 37.55L166.925 37.55L166.925 26.9875L168.675 26.9875L168.70625 28.20625Q169.59688 26.784374 171.22188 26.784374Q171.75313 26.784374 172.01875 26.925L172.01875 28.596874ZM178.3 37.753124Q176.15938 37.753124 174.8 36.346874Q173.45625 34.925 173.45625 32.565624L173.45625 32.221874Q173.45625 30.659374 174.05 29.425Q174.65938 28.190624 175.7375 27.4875Q176.81563 26.784374 178.08125 26.784374Q180.14375 26.784374 181.28438 28.14375Q182.425 29.503124 182.425 32.034374L182.425 32.784374L175.26875 32.784374Q175.3 34.346874 176.175 35.315624Q177.05 36.26875 178.39375 36.26875Q179.3625 36.26875 180.01875 35.878124Q180.69063 35.4875 181.19063 34.846874L182.28438 35.70625Q180.95625 37.753124 178.3 37.753124ZM178.08125 28.26875Q176.9875 28.26875 176.2375 29.065624Q175.50313 29.8625 175.33125 31.3L180.6125 31.3L180.6125 31.159374Q180.53438 29.784374 179.8625 29.034374Q179.20625 28.26875 178.08125 28.26875ZM191.44063 37.55Q191.28438 37.2375 191.19063 36.440624Q189.925 37.753124 188.175 37.753124Q186.6125 37.753124 185.6125 36.8625Q184.6125 35.971874 184.6125 34.6125Q184.6125 32.971874 185.8625 32.065624Q187.12813 31.14375 189.39375 31.14375L191.15938 31.14375L191.15938 30.315624Q191.15938 29.3625 190.58125 28.8Q190.01875 28.2375 188.925 28.2375Q187.95625 28.2375 187.3 28.7375Q186.64375 29.221874 186.64375 29.909374L184.83125 29.909374Q184.83125 29.128124 185.39375 28.39375Q185.95625 27.64375 186.90938 27.221874Q187.87813 26.784374 189.03438 26.784374Q190.8625 26.784374 191.89375 27.70625Q192.925 28.6125 192.97188 30.221874L192.97188 35.08125Q192.97188 36.534374 193.33125 37.39375L193.33125 37.55L191.44063 37.55ZM188.44063 36.175Q189.3 36.175 190.05 35.7375Q190.81563 35.3 191.15938 34.596874L191.15938 32.425L189.7375 32.425Q186.425 32.425 186.425 34.3625Q186.425 35.221874 186.9875 35.70625Q187.55 36.175 188.44063 36.175ZM197.6125 26.9875L197.65938 28.159374Q198.83125 26.784374 200.8 26.784374Q203.01875 26.784374 203.81563 28.4875Q204.34688 27.721874 205.19063 27.253124Q206.03438 26.784374 207.19063 26.784374Q210.65938 26.784374 210.72188 30.471874L210.72188 37.55L208.90938 37.55L208.90938 30.58125Q208.90938 29.440624 208.39375 28.878124Q207.87813 28.315624 206.65938 28.315624Q205.65938 28.315624 204.9875 28.925Q204.33125 29.51875 204.22188 30.534374L204.22188 37.55L202.40938 37.55L202.40938 30.628124Q202.40938 28.315624 200.14375 28.315624Q198.3625 28.315624 197.72188 29.83125L197.72188 37.55L195.90938 37.55L195.90938 26.9875L197.6125 26.9875ZM218.84688 31.784374Q218.84688 29.565624 219.44063 27.534374Q220.03438 25.503124 221.20625 23.846874Q222.37813 22.190624 223.62813 21.503124L224.00313 22.690624Q222.58125 23.784374 221.65938 26.034374Q220.75313 28.284374 220.65938 31.065624L220.65938 31.89375Q220.65938 35.659374 222.03438 38.440624Q222.8625 40.096874 224.00313 41.034374L223.62813 42.14375Q222.33125 41.425 221.15938 39.721874Q218.84688 36.39375 218.84688 31.784374ZM235.05 37.55L225.7375 37.55L225.7375 36.253124L230.65938 30.784374Q231.75313 29.534374 232.15938 28.76875Q232.58125 27.9875 232.58125 27.159374Q232.58125 26.05 231.90938 25.33125Q231.2375 24.6125 230.1125 24.6125Q228.75313 24.6125 228.00313 25.39375Q227.26875 26.159374 227.26875 27.51875L225.45625 27.51875Q225.45625 25.55 226.72188 24.346874Q227.9875 23.128124 230.1125 23.128124Q232.09688 23.128124 233.2375 24.175Q234.39375 25.221874 234.39375 26.940624Q234.39375 29.05 231.72188 31.940624L227.90938 36.08125L235.05 36.08125L235.05 37.55ZM245.64375 31.4875Q245.64375 34.659374 244.56563 36.20625Q243.4875 37.753124 241.175 37.753124Q238.89375 37.753124 237.8 36.2375Q236.70625 34.721874 236.675 31.721874L236.675 29.315624Q236.675 26.175 237.75313 24.659374Q238.84688 23.128124 241.15938 23.128124Q243.45625 23.128124 244.53438 24.6125Q245.6125 26.08125 245.64375 29.14375L245.64375 31.4875ZM243.84688 29.01875Q243.84688 26.721874 243.19063 25.675Q242.55 24.6125 241.15938 24.6125Q239.76875 24.6125 239.12813 25.659374Q238.50313 26.70625 238.4875 28.878124L238.4875 31.76875Q238.4875 34.065624 239.14375 35.175Q239.81563 36.26875 241.175 36.26875Q242.51875 36.26875 243.15938 35.2375Q243.81563 34.20625 243.84688 31.971874L243.84688 29.01875ZM256.64374 31.4875Q256.64374 34.659374 255.56563 36.20625Q254.4875 37.753124 252.175 37.753124Q249.89375 37.753124 248.8 36.2375Q247.70625 34.721874 247.675 31.721874L247.675 29.315624Q247.675 26.175 248.75313 24.659374Q249.84688 23.128124 252.15938 23.128124Q254.45625 23.128124 255.53438 24.6125Q256.6125 26.08125 256.64374 29.14375L256.64374 31.4875ZM254.84688 29.01875Q254.84688 26.721874 254.19063 25.675Q253.55 24.6125 252.15938 24.6125Q250.76875 24.6125 250.12813 25.659374Q249.50313 26.70625 249.4875 28.878124L249.4875 31.76875Q249.4875 34.065624 250.14375 35.175Q250.81563 36.26875 252.175 36.26875Q253.51875 36.26875 254.15938 35.2375Q254.81563 34.20625 254.84688 31.971874L254.84688 29.01875ZM267.90936 24.346874L262.01874 37.55L260.1281 37.55L266.0031 24.815624L258.3 24.815624L258.3 23.33125L267.90936 23.33125L267.90936 24.346874ZM273.675 32.253124L268.90936 32.253124L268.90936 30.76875L273.675 30.76875L273.675 32.253124ZM285.05 37.55L275.7375 37.55L275.7375 36.253124L280.65936 30.784374Q281.7531 29.534374 282.15936 28.76875Q282.58124 27.9875 282.58124 27.159374Q282.58124 26.05 281.90936 25.33125Q281.2375 24.6125 280.1125 24.6125Q278.7531 24.6125 278.0031 25.39375Q277.26874 26.159374 277.26874 27.51875L275.45624 27.51875Q275.45624 25.55 276.72186 24.346874Q277.9875 23.128124 280.1125 23.128124Q282.09686 23.128124 283.2375 24.175Q284.39374 25.221874 284.39374 26.940624Q284.39374 29.05 281.72186 31.940624L277.90936 36.08125L285.05 36.08125L285.05 37.55ZM295.64374 31.4875Q295.64374 34.659374 294.5656 36.20625Q293.4875 37.753124 291.175 37.753124Q288.89374 37.753124 287.8 36.2375Q286.70624 34.721874 286.675 31.721874L286.675 29.315624Q286.675 26.175 287.7531 24.659374Q288.84686 23.128124 291.15936 23.128124Q293.45624 23.128124 294.53436 24.6125Q295.6125 26.08125 295.64374 29.14375L295.64374 31.4875ZM293.84686 29.01875Q293.84686 26.721874 293.1906 25.675Q292.55 24.6125 291.15936 24.6125Q289.76874 24.6125 289.1281 25.659374Q288.5031 26.70625 288.4875 28.878124L288.4875 31.76875Q288.4875 34.065624 289.14374 35.175Q289.8156 36.26875 291.175 36.26875Q292.51874 36.26875 293.15936 35.2375Q293.8156 34.20625 293.84686 31.971874L293.84686 29.01875ZM303.675 37.55L301.84686 37.55L301.84686 25.503124L298.20624 26.846874L298.20624 25.20625L303.39374 23.26875L303.675 23.26875L303.675 37.55ZM317.90936 24.346874L312.01874 37.55L310.1281 37.55L316.0031 24.815624L308.3 24.815624L308.3 23.33125L317.90936 23.33125L317.90936 24.346874ZM324.08124 31.878124Q324.08124 34.05 323.5031 36.05Q322.9406 38.05 321.76874 39.7375Q320.59686 41.425 319.3 42.14375L318.925 41.034374Q320.425 39.878124 321.33124 37.45625Q322.2531 35.034374 322.26874 32.065624L322.26874 31.753124Q322.26874 29.70625 321.83124 27.940624Q321.40936 26.175 320.64374 24.784374Q319.8781 23.39375 318.925 22.6125L319.3 21.503124Q320.59686 22.221874 321.7531 23.89375Q322.925 25.55 323.5031 27.565624Q324.08124 29.58125 324.08124 31.878124Z" fill-rule="nonzero"/></svg>