<svg version="1.1" viewBox="0.0 0.0 600.0 371.0" fill="none" stroke="none" stroke-linecap="square" stroke-miterlimit="10" width="600" height="371" xmlns:xlink="http://www.w3.org/1999/xlink" xmlns="http://www.w3.org/2000/svg"><path fill="#ffffff" d="M0 0L600.0 0L600.0 371.0L0 371.0L0 0Z" fill-rule="nonzero"/><path fill="#4285f4" d="M300.0 54.916668C306.63174 54.916668 313.25607 55.360115 319.82864 56.244038L309.91434 129.96368C306.62805 129.52173 303.3159 129.3 300.0 129.3Z" fill-rule="nonzero"/><path fill="#db4437" d="M319.82864 56.244038C322.0188 56.53858 324.2021 56.88189 326.37692 57.27371L313.18848 130.47852C312.10104 130.28261 311.0094 130.11096 309.91434 129.96368Z" fill-rule="nonzero"/><path fill="#f4b400" d="M326.37692 57.27371C339.4449 59.62801 352.13882 63.721275 364.12048 69.44443L332.06024 136.56387C326.06943 133.7023 319.72244 131.65567 313.18848 130.47852Z" fill-rule="nonzero"/><path fill="#0f9d58" d="M364.12048 69.44443C382.12656 78.0452 398.2183 90.180565 411.43796 105.12825L355.71896 154.40579C349.10916 146.93195 341.0633 140.86427 332.06024 136.56387Z" fill-rule="nonzero"/><path fill="#ff6d00" d="M411.43796 105.12825C426.13806 121.74991 436.93372 141.44948 443.03412 162.7839L371.51706 183.23361C368.46686 172.5664 363.06903 162.71663 355.71896 154.40579Z" fill-rule="nonzero"/><path fill="#ab30c4" d="M151.98047 188.79243C159.6273 112.78089 223.6048 54.916668 300.0 54.916668L300.0 129.3C261.8024 129.3 229.81364 158.23212 225.99023 196.23788Z" fill-rule="nonzero"/><path fill="#46bdc6" d="M443.03412 162.7839C459.5073 220.39421 439.81015 282.2642 393.06268 319.74734C346.31522 357.2305 281.64313 363.0096 228.9904 334.40884C176.33768 305.80807 145.9828 248.41074 151.98047 188.79243L225.99023 196.23788C222.99141 226.04703 238.16884 254.74571 264.4952 269.04608C290.82156 283.34647 323.1576 280.4569 346.53134 261.71533C369.9051 242.97377 379.75366 212.03877 371.51706 183.23361Z" fill-rule="nonzero"/><path fill="#000000" d="M283.88348 312.33417L279.75848 321.58417L278.44598 321.58417L282.53973 312.6623L277.16473 312.6623L277.16473 311.63104L283.88348 311.63104L283.88348 312.33417ZM290.30536 317.20917Q289.91473 317.67792 289.35223 317.9748Q288.80536 318.25604 288.1491 318.25604Q287.28973 318.25604 286.6491 317.83417Q286.00848 317.4123 285.66473 316.64667Q285.32098 315.86542 285.32098 314.94354Q285.32098 313.94354 285.69598 313.14667Q286.07098 312.33417 286.7741 311.9123Q287.47723 311.49042 288.3991 311.49042Q289.88348 311.49042 290.72723 312.5998Q291.5866 313.70917 291.5866 315.61542L291.5866 315.9748Q291.5866 318.88104 290.43036 320.2248Q289.28973 321.55292 286.9616 321.58417L286.7116 321.58417L286.7116 320.52167L286.99286 320.52167Q288.55536 320.49042 289.38348 319.70917Q290.22723 318.9123 290.30536 317.20917ZM288.35223 317.20917Q288.99286 317.20917 289.5241 316.81854Q290.07098 316.42792 290.32098 315.8498L290.32098 315.3498Q290.32098 314.0998 289.7741 313.33417Q289.22723 312.55292 288.41473 312.55292Q287.57098 312.55292 287.05536 313.19354Q286.55536 313.81854 286.55536 314.86542Q286.55536 315.89667 287.03973 316.55292Q287.53973 317.20917 288.35223 317.20917ZM296.53973 317.5373Q296.53973 316.00604 296.94598 314.58417Q297.36786 313.1623 298.18036 312.00604Q299.00848 310.83417 299.8991 310.3498L300.1491 311.19354Q299.1491 311.95917 298.50848 313.5373Q297.88348 315.0998 297.82098 317.0373L297.80536 317.63104Q297.80536 320.27167 298.7741 322.20917Q299.35223 323.36542 300.1491 324.02167L299.8991 324.80292Q298.97723 324.2873 298.1491 323.0998Q296.53973 320.77167 296.53973 317.5373ZM302.03973 316.5998L302.55536 311.63104L307.6491 311.63104L307.6491 312.80292L303.61786 312.80292L303.32098 315.50604Q304.05536 315.08417 304.97723 315.08417Q306.3366 315.08417 307.13348 315.99042Q307.94598 316.88104 307.94598 318.4123Q307.94598 319.94354 307.10223 320.83417Q306.2741 321.7248 304.78973 321.7248Q303.47723 321.7248 302.63348 320.99042Q301.80536 320.25604 301.68036 318.95917L302.88348 318.95917Q302.99286 319.81854 303.47723 320.25604Q303.97723 320.69354 304.78973 320.69354Q305.66473 320.69354 306.16473 320.0998Q306.68036 319.49042 306.68036 318.42792Q306.68036 317.42792 306.13348 316.83417Q305.5866 316.2248 304.68036 316.2248Q303.86786 316.2248 303.38348 316.58417L303.05536 316.8498L302.03973 316.5998ZM314.43036 311.63104L314.43036 312.69354L314.19598 312.69354Q312.7116 312.7248 311.8366 313.56854Q310.9616 314.4123 310.82098 315.95917Q311.61786 315.05292 312.97723 315.05292Q314.2741 315.05292 315.03973 315.9748Q315.82098 316.88104 315.82098 318.33417Q315.82098 319.88104 314.97723 320.80292Q314.1491 321.7248 312.74286 321.7248Q311.32098 321.7248 310.43036 320.63104Q309.53973 319.52167 309.53973 317.80292L309.53973 317.31854Q309.53973 314.56854 310.7116 313.11542Q311.88348 311.6623 314.19598 311.63104L314.43036 311.63104ZM312.75848 316.11542Q312.11786 316.11542 311.57098 316.50604Q311.0241 316.88104 310.80536 317.4748L310.80536 317.94354Q310.80536 319.17792 311.35223 319.92792Q311.91473 320.67792 312.74286 320.67792Q313.60223 320.67792 314.0866 320.05292Q314.57098 319.4123 314.57098 318.39667Q314.57098 317.36542 314.07098 316.74042Q313.5866 316.11542 312.75848 316.11542ZM317.61786 320.92792Q317.61786 320.5998 317.80536 320.38104Q318.00848 320.1623 318.3991 320.1623Q318.78973 320.1623 318.99286 320.38104Q319.19598 320.5998 319.19598 320.92792Q319.19598 321.24042 318.99286 321.45917Q318.78973 321.6623 318.3991 321.6623Q318.00848 321.6623 317.80536 321.45917Q317.61786 321.24042 317.61786 320.92792ZM327.69598 317.33417Q327.69598 319.55292 326.93036 320.64667Q326.18036 321.7248 324.57098 321.7248Q322.97723 321.7248 322.2116 320.67792Q321.44598 319.61542 321.41473 317.50604L321.41473 315.81854Q321.41473 313.63104 322.16473 312.56854Q322.93036 311.49042 324.55536 311.49042Q326.16473 311.49042 326.91473 312.52167Q327.68036 313.55292 327.69598 315.69354L327.69598 317.33417ZM326.43036 315.61542Q326.43036 314.00604 325.97723 313.27167Q325.53973 312.5373 324.55536 312.5373Q323.5866 312.5373 323.13348 313.27167Q322.69598 313.99042 322.68036 315.50604L322.68036 317.5373Q322.68036 319.14667 323.1491 319.92792Q323.61786 320.69354 324.57098 320.69354Q325.50848 320.69354 325.9616 319.9748Q326.41473 319.24042 326.43036 317.67792L326.43036 315.61542ZM329.35223 313.5373Q329.35223 312.64667 329.91473 312.06854Q330.49286 311.49042 331.38348 311.49042Q332.30536 311.49042 332.86786 312.08417Q333.43036 312.6623 333.43036 313.58417L333.43036 314.06854Q333.43036 314.9748 332.85223 315.55292Q332.28973 316.11542 331.3991 316.11542Q330.50848 316.11542 329.93036 315.55292Q329.35223 314.9748 329.35223 314.02167L329.35223 313.5373ZM330.28973 314.06854Q330.28973 314.5998 330.5866 314.94354Q330.8991 315.2873 331.3991 315.2873Q331.88348 315.2873 332.18036 314.95917Q332.47723 314.63104 332.47723 314.0373L332.47723 313.5373Q332.47723 313.00604 332.18036 312.6623Q331.8991 312.31854 331.38348 312.31854Q330.88348 312.31854 330.5866 312.6623Q330.28973 313.00604 330.28973 313.56854L330.28973 314.06854ZM334.19598 319.14667Q334.19598 318.24042 334.75848 317.67792Q335.3366 317.0998 336.22723 317.0998Q337.13348 317.0998 337.69598 317.67792Q338.2741 318.24042 338.2741 319.19354L338.2741 319.67792Q338.2741 320.56854 337.69598 321.14667Q337.13348 321.7248 336.24286 321.7248Q335.36786 321.7248 334.7741 321.1623Q334.19598 320.58417 334.19598 319.63104L334.19598 319.14667ZM335.1491 319.67792Q335.1491 320.20917 335.44598 320.56854Q335.74286 320.9123 336.24286 320.9123Q336.74286 320.9123 337.03973 320.56854Q337.3366 320.2248 337.3366 319.64667L337.3366 319.14667Q337.3366 318.5998 337.0241 318.25604Q336.72723 317.9123 336.24286 317.9123Q335.74286 317.9123 335.44598 318.25604Q335.1491 318.5998 335.1491 319.17792L335.1491 319.67792ZM331.69598 320.83417L330.97723 320.38104L335.8366 312.5998L336.55536 313.05292L331.69598 320.83417ZM342.50848 317.61542Q342.50848 319.13104 342.10223 320.5373Q341.7116 321.92792 340.88348 323.11542Q340.05536 324.30292 339.16473 324.80292L338.8991 324.02167Q339.94598 323.2248 340.5866 321.52167Q341.22723 319.81854 341.24286 317.75604L341.24286 317.5373Q341.24286 316.0998 340.93036 314.86542Q340.63348 313.63104 340.10223 312.6623Q339.57098 311.67792 338.8991 311.13104L339.16473 310.3498Q340.05536 310.8498 340.86786 312.02167Q341.69598 313.19354 342.10223 314.5998Q342.50848 316.00604 342.50848 317.61542Z" fill-rule="nonzero"/><path fill="#ffffff" d="M194.32907 119.83975L195.26657 119.83975Q196.17282 119.82413 196.67282 119.371Q197.18845 118.91788 197.18845 118.13663Q197.18845 116.38663 195.45407 116.38663Q194.62595 116.38663 194.14157 116.85538Q193.6572 117.32413 193.6572 118.08975L192.39157 118.08975Q192.39157 116.90225 193.25095 116.121Q194.12595 115.33975 195.45407 115.33975Q196.86032 115.33975 197.6572 116.08975Q198.45407 116.83975 198.45407 118.15225Q198.45407 118.8085 198.0322 119.41788Q197.62595 120.02725 196.89157 120.32413Q197.7197 120.58975 198.1572 121.19913Q198.61032 121.79288 198.61032 122.65225Q198.61032 123.996 197.73532 124.79288Q196.86032 125.57413 195.45407 125.57413Q194.06345 125.57413 193.17282 124.82413Q192.29782 124.0585 192.29782 122.8085L193.57907 122.8085Q193.57907 123.58975 194.07907 124.07413Q194.5947 124.54288 195.45407 124.54288Q196.37595 124.54288 196.86032 124.0585Q197.3447 123.57413 197.3447 122.6835Q197.3447 121.82413 196.81345 121.35538Q196.2822 120.88663 195.26657 120.871L194.32907 120.871L194.32907 119.83975ZM202.32907 119.83975L203.26657 119.83975Q204.17282 119.82413 204.67282 119.371Q205.18845 118.91788 205.18845 118.13663Q205.18845 116.38663 203.45407 116.38663Q202.62595 116.38663 202.14157 116.85538Q201.6572 117.32413 201.6572 118.08975L200.39157 118.08975Q200.39157 116.90225 201.25095 116.121Q202.12595 115.33975 203.45407 115.33975Q204.86032 115.33975 205.6572 116.08975Q206.45407 116.83975 206.45407 118.15225Q206.45407 118.8085 206.0322 119.41788Q205.62595 120.02725 204.89157 120.32413Q205.7197 120.58975 206.1572 121.19913Q206.61032 121.79288 206.61032 122.65225Q206.61032 123.996 205.73532 124.79288Q204.86032 125.57413 203.45407 125.57413Q202.06345 125.57413 201.17282 124.82413Q200.29782 124.0585 200.29782 122.8085L201.57907 122.8085Q201.57907 123.58975 202.07907 124.07413Q202.5947 124.54288 203.45407 124.54288Q204.37595 124.54288 204.86032 124.0585Q205.3447 123.57413 205.3447 122.6835Q205.3447 121.82413 204.81345 121.35538Q204.2822 120.88663 203.26657 120.871L202.32907 120.871L202.32907 119.83975ZM211.56345 121.38663Q211.56345 119.85538 211.9697 118.4335Q212.39157 117.01163 213.20407 115.85538Q214.0322 114.6835 214.92282 114.19913L215.17282 115.04288Q214.17282 115.8085 213.5322 117.38663Q212.9072 118.94913 212.8447 120.88663L212.82907 121.48038Q212.82907 124.121 213.79782 126.0585Q214.37595 127.21475 215.17282 127.871L214.92282 128.65225Q214.00095 128.13663 213.17282 126.94913Q211.56345 124.621 211.56345 121.38663ZM223.00095 125.4335L216.48532 125.4335L216.48532 124.52725L219.92282 120.69913Q220.68845 119.82413 220.98532 119.29288Q221.2822 118.746 221.2822 118.15225Q221.2822 117.38663 220.79782 116.88663Q220.32907 116.38663 219.54782 116.38663Q218.61032 116.38663 218.07907 116.91788Q217.56345 117.44913 217.56345 118.41788L216.29782 118.41788Q216.29782 117.04288 217.17282 116.19913Q218.06345 115.33975 219.54782 115.33975Q220.93845 115.33975 221.73532 116.07413Q222.54782 116.79288 222.54782 118.01163Q222.54782 119.48038 220.67282 121.51163L218.01657 124.40225L223.00095 124.40225L223.00095 125.4335ZM226.32907 119.83975L227.26657 119.83975Q228.17282 119.82413 228.67282 119.371Q229.18845 118.91788 229.18845 118.13663Q229.18845 116.38663 227.45407 116.38663Q226.62595 116.38663 226.14157 116.85538Q225.6572 117.32413 225.6572 118.08975L224.39157 118.08975Q224.39157 116.90225 225.25095 116.121Q226.12595 115.33975 227.45407 115.33975Q228.86032 115.33975 229.6572 116.08975Q230.45407 116.83975 230.45407 118.15225Q230.45407 118.8085 230.0322 119.41788Q229.62595 120.02725 228.89157 120.32413Q229.7197 120.58975 230.1572 121.19913Q230.61032 121.79288 230.61032 122.65225Q230.61032 123.996 229.73532 124.79288Q228.86032 125.57413 227.45407 125.57413Q226.06345 125.57413 225.17282 124.82413Q224.29782 124.0585 224.29782 122.8085L225.57907 122.8085Q225.57907 123.58975 226.07907 124.07413Q226.5947 124.54288 227.45407 124.54288Q228.37595 124.54288 228.86032 124.0585Q229.3447 123.57413 229.3447 122.6835Q229.3447 121.82413 228.81345 121.35538Q228.2822 120.88663 227.26657 120.871L226.32907 120.871L226.32907 119.83975ZM232.64157 124.77725Q232.64157 124.44913 232.82907 124.23038Q233.0322 124.01163 233.42282 124.01163Q233.81345 124.01163 234.01657 124.23038Q234.2197 124.44913 234.2197 124.77725Q234.2197 125.08975 234.01657 125.3085Q233.81345 125.51163 233.42282 125.51163Q233.0322 125.51163 232.82907 125.3085Q232.64157 125.08975 232.64157 124.77725ZM241.82907 122.08975L243.20407 122.08975L243.20407 123.121L241.82907 123.121L241.82907 125.4335L240.54782 125.4335L240.54782 123.121L236.01657 123.121L236.01657 122.371L240.4697 115.48038L241.82907 115.48038L241.82907 122.08975ZM237.45407 122.08975L240.54782 122.08975L240.54782 117.21475L240.4072 117.48038L237.45407 122.08975ZM244.37595 117.38663Q244.37595 116.496 244.93845 115.91788Q245.51657 115.33975 246.4072 115.33975Q247.32907 115.33975 247.89157 115.9335Q248.45407 116.51163 248.45407 117.4335L248.45407 117.91788Q248.45407 118.82413 247.87595 119.40225Q247.31345 119.96475 246.42282 119.96475Q245.5322 119.96475 244.95407 119.40225Q244.37595 118.82413 244.37595 117.871L244.37595 117.38663ZM245.31345 117.91788Q245.31345 118.44913 245.61032 118.79288Q245.92282 119.13663 246.42282 119.13663Q246.9072 119.13663 247.20407 118.8085Q247.50095 118.48038 247.50095 117.88663L247.50095 117.38663Q247.50095 116.85538 247.20407 116.51163Q246.92282 116.16788 246.4072 116.16788Q245.9072 116.16788 245.61032 116.51163Q245.31345 116.85538 245.31345 117.41788L245.31345 117.91788ZM249.2197 122.996Q249.2197 122.08975 249.7822 121.52725Q250.36032 120.94913 251.25095 120.94913Q252.1572 120.94913 252.7197 121.52725Q253.29782 122.08975 253.29782 123.04288L253.29782 123.52725Q253.29782 124.41788 252.7197 124.996Q252.1572 125.57413 251.26657 125.57413Q250.39157 125.57413 249.79782 125.01163Q249.2197 124.4335 249.2197 123.48038L249.2197 122.996ZM250.17282 123.52725Q250.17282 124.0585 250.4697 124.41788Q250.76657 124.76163 251.26657 124.76163Q251.76657 124.76163 252.06345 124.41788Q252.36032 124.07413 252.36032 123.496L252.36032 122.996Q252.36032 122.44913 252.04782 122.10538Q251.75095 121.76163 251.26657 121.76163Q250.76657 121.76163 250.4697 122.10538Q250.17282 122.44913 250.17282 123.02725L250.17282 123.52725ZM246.7197 124.6835L246.00095 124.23038L250.86032 116.44913L251.57907 116.90225L246.7197 124.6835ZM257.5322 121.46475Q257.5322 122.98038 257.12595 124.38663Q256.73532 125.77725 255.9072 126.96475Q255.07907 128.15225 254.18845 128.65225L253.92282 127.871Q254.9697 127.07413 255.61032 125.371Q256.25095 123.66788 256.26657 121.60538L256.26657 121.38663Q256.26657 119.94913 255.95407 118.71475Q255.6572 117.48038 255.12595 116.51163Q254.5947 115.52725 253.92282 114.98038L254.18845 114.19913Q255.07907 114.69913 255.89157 115.871Q256.7197 117.04288 257.12595 118.44913Q257.5322 119.85538 257.5322 121.46475Z" fill-rule="nonzero"/><path fill="#757575" d="M31.14375 91.366875L19.971874 91.366875L19.971874 89.804375L25.878124 83.241875Q27.190624 81.7575 27.690624 80.835625Q28.190624 79.898125 28.190624 78.898125Q28.190624 77.554375 27.378124 76.710625Q26.565624 75.85125 25.221874 75.85125Q23.596874 75.85125 22.70625 76.773125Q21.815624 77.695 21.815624 79.335625L19.64375 79.335625Q19.64375 76.97625 21.159374 75.523125Q22.675 74.07 25.221874 74.07Q27.596874 74.07 28.971874 75.32Q30.3625 76.57 30.3625 78.6325Q30.3625 81.16375 27.159374 84.6325L22.58125 89.60125L31.14375 89.60125L31.14375 91.366875ZM43.675 84.085625Q43.675 87.898125 42.3625 89.7575Q41.065624 91.60125 38.3 91.60125Q35.565624 91.60125 34.253124 89.78875Q32.940624 87.97625 32.89375 84.3825L32.89375 81.491875Q32.89375 77.72625 34.190624 75.898125Q35.503124 74.07 38.284374 74.07Q41.034374 74.07 42.33125 75.835625Q43.628124 77.60125 43.675 81.273125L43.675 84.085625ZM41.503124 81.116875Q41.503124 78.366875 40.721874 77.116875Q39.95625 75.85125 38.284374 75.85125Q36.6125 75.85125 35.846874 77.10125Q35.096874 78.35125 35.065624 80.960625L35.065624 84.429375Q35.065624 87.195 35.8625 88.523125Q36.675 89.835625 38.3 89.835625Q39.909374 89.835625 40.690624 88.60125Q41.471874 87.35125 41.503124 84.679375L41.503124 81.116875ZM53.096874 91.366875L50.909374 91.366875L50.909374 76.91375L46.55 78.523125L46.55 76.554375L52.753124 74.22625L53.096874 74.22625L53.096874 91.366875ZM69.9875 75.523125L62.925 91.366875L60.64375 91.366875L67.69063 76.085625L58.45625 76.085625L58.45625 74.304375L69.9875 74.304375L69.9875 75.523125Z" fill-rule="nonzero"/><path fill="#9e9e9e" d="M31.14375 123.366875L19.971874 123.366875L19.971874 121.804375L25.878124 115.241875Q27.190624 113.7575 27.690624 112.835625Q28.190624 111.898125 28.190624 110.898125Q28.190624 109.554375 27.378124 108.710625Q26.565624 107.85125 25.221874 107.85125Q23.596874 107.85125 22.70625 108.773125Q21.815624 109.695 21.815624 111.335625L19.64375 111.335625Q19.64375 108.97625 21.159374 107.523125Q22.675 106.07 25.221874 106.07Q27.596874 106.07 28.971874 107.32Q30.3625 108.57 30.3625 110.6325Q30.3625 113.16375 27.159374 116.6325L22.58125 121.60125L31.14375 121.60125L31.14375 123.366875ZM36.128124 113.773125L37.753124 113.773125Q39.284374 113.7575 40.159374 112.97625Q41.05 112.179375 41.05 110.85125Q41.05 107.85125 38.05 107.85125Q36.64375 107.85125 35.8 108.66375Q34.971874 109.460625 34.971874 110.773125L32.8 110.773125Q32.8 108.7575 34.284374 107.41375Q35.76875 106.07 38.05 106.07Q40.471874 106.07 41.83125 107.35125Q43.20625 108.616875 43.20625 110.898125Q43.20625 112.0075 42.4875 113.054375Q41.76875 114.10125 40.534374 114.616875Q41.940624 115.054375 42.70625 116.085625Q43.471874 117.116875 43.471874 118.60125Q43.471874 120.898125 41.971874 122.2575Q40.471874 123.60125 38.065624 123.60125Q35.659374 123.60125 34.159374 122.304375Q32.659374 120.991875 32.659374 118.866875L34.83125 118.866875Q34.83125 120.210625 35.70625 121.023125Q36.596874 121.835625 38.065624 121.835625Q39.64375 121.835625 40.471874 121.023125Q41.3 120.195 41.3 118.648125Q41.3 117.16375 40.378124 116.366875Q39.471874 115.57 37.753124 115.554375L36.128124 115.554375L36.128124 113.773125ZM46.2375 122.22625Q46.2375 121.66375 46.565624 121.28875Q46.909374 120.91375 47.565624 120.91375Q48.2375 120.91375 48.58125 121.28875Q48.940624 121.66375 48.940624 122.22625Q48.940624 122.773125 48.58125 123.1325Q48.2375 123.491875 47.565624 123.491875Q46.909374 123.491875 46.565624 123.1325Q46.2375 122.773125 46.2375 122.22625ZM61.128124 117.6325L63.4875 117.6325L63.4875 119.398125L61.128124 119.398125L61.128124 123.366875L58.940624 123.366875L58.940624 119.398125L51.175 119.398125L51.175 118.1325L58.815624 106.304375L61.128124 106.304375L61.128124 117.6325ZM53.628124 117.6325L58.940624 117.6325L58.940624 109.273125L58.690624 109.741875L53.628124 117.6325ZM64.78438 109.585625Q64.78438 108.054375 65.75313 107.054375Q66.7375 106.054375 68.26875 106.054375Q69.83125 106.054375 70.8 107.054375Q71.76875 108.054375 71.76875 109.648125L71.76875 110.491875Q71.76875 112.03875 70.78438 113.023125Q69.81563 113.991875 68.3 113.991875Q66.76875 113.991875 65.76875 113.023125Q64.78438 112.03875 64.78438 110.398125L64.78438 109.585625ZM66.39375 110.491875Q66.39375 111.398125 66.90938 111.991875Q67.425 112.585625 68.3 112.585625Q69.12813 112.585625 69.62813 112.0075Q70.14375 111.429375 70.14375 110.445L70.14375 109.585625Q70.14375 108.66375 69.64375 108.07Q69.14375 107.47625 68.26875 107.47625Q67.40938 107.47625 66.89375 108.07Q66.39375 108.66375 66.39375 109.6325L66.39375 110.491875ZM73.09688 119.179375Q73.09688 117.648125 74.06563 116.66375Q75.05 115.66375 76.58125 115.66375Q78.1125 115.66375 79.09688 116.648125Q80.08125 117.6325 80.08125 119.2575L80.08125 120.10125Q80.08125 121.6325 79.09688 122.6325Q78.12813 123.616875 76.59688 123.616875Q75.08125 123.616875 74.08125 122.6325Q73.09688 121.648125 73.09688 120.023125L73.09688 119.179375ZM74.70625 120.10125Q74.70625 121.023125 75.22188 121.616875Q75.7375 122.210625 76.6125 122.210625Q77.45625 122.210625 77.95625 121.6325Q78.45625 121.03875 78.45625 120.054375L78.45625 119.179375Q78.45625 118.2575 77.94063 117.679375Q77.44063 117.085625 76.58125 117.085625Q75.75313 117.085625 75.22188 117.66375Q74.70625 118.241875 74.70625 119.22625L74.70625 120.10125ZM68.78438 122.07L67.56563 121.304375L75.89375 107.960625L77.12813 108.741875L68.78438 122.07Z" fill-rule="nonzero"/><path stroke="#757575" stroke-width="1.0" stroke-linecap="butt" d="M18.55 98.866875L145.23334 98.866875L205.19911 98.866875" fill-rule="nonzero"/><path fill="#9e9e9e" d="M207.19911 98.866875C207.19911 97.76231 206.30368 96.866875 205.19911 96.866875C204.09454 96.866875 203.19911 97.76231 203.19911 98.866875C203.19911 99.97144 204.09454 100.866875 205.19911 100.866875C206.30368 100.866875 207.19911 99.97144 207.19911 98.866875" fill-rule="nonzero"/><path fill="#757575" d="M542.04376 77.916664L530.8719 77.916664L530.8719 76.354164L536.77814 69.791664Q538.09064 68.30729 538.59064 67.385414Q539.09064 66.447914 539.09064 65.447914Q539.09064 64.104164 538.27814 63.260414Q537.46564 62.40104 536.1219 62.40104Q534.4969 62.40104 533.60626 63.322914Q532.71564 64.24479 532.71564 65.885414L530.54376 65.885414Q530.54376 63.52604 532.0594 62.072914Q533.575 60.61979 536.1219 60.61979Q538.4969 60.61979 539.8719 61.86979Q541.2625 63.11979 541.2625 65.18229Q541.2625 67.71354 538.0594 71.18229L533.48126 76.15104L542.04376 76.15104L542.04376 77.916664ZM554.575 70.635414Q554.575 74.447914 553.2625 76.30729Q551.96564 78.15104 549.2 78.15104Q546.46564 78.15104 545.15314 76.33854Q543.84064 74.52604 543.79376 70.93229L543.79376 68.041664Q543.79376 64.27604 545.09064 62.447914Q546.40314 60.61979 549.1844 60.61979Q551.9344 60.61979 553.23126 62.385414Q554.52814 64.15104 554.575 67.822914L554.575 70.635414ZM552.40314 67.666664Q552.40314 64.916664 551.6219 63.666664Q550.85626 62.40104 549.1844 62.40104Q547.5125 62.40104 546.7469 63.65104Q545.9969 64.90104 545.96564 67.510414L545.96564 70.979164Q545.96564 73.74479 546.7625 75.072914Q547.575 76.385414 549.2 76.385414Q550.8094 76.385414 551.59064 75.15104Q552.3719 73.90104 552.40314 71.229164L552.40314 67.666664ZM563.9969 77.916664L561.8094 77.916664L561.8094 63.46354L557.45 65.072914L557.45 63.104164L563.65314 60.77604L563.9969 60.77604L563.9969 77.916664ZM573.02814 68.322914L574.65314 68.322914Q576.1844 68.30729 577.0594 67.52604Q577.95 66.729164 577.95 65.40104Q577.95 62.40104 574.95 62.40104Q573.54376 62.40104 572.7 63.21354Q571.8719 64.010414 571.8719 65.322914L569.7 65.322914Q569.7 63.30729 571.1844 61.96354Q572.66876 60.61979 574.95 60.61979Q577.3719 60.61979 578.73126 61.90104Q580.10626 63.166664 580.10626 65.447914Q580.10626 66.55729 579.3875 67.604164Q578.66876 68.65104 577.4344 69.166664Q578.84064 69.604164 579.60626 70.635414Q580.3719 71.666664 580.3719 73.15104Q580.3719 75.447914 578.8719 76.80729Q577.3719 78.15104 574.96564 78.15104Q572.5594 78.15104 571.0594 76.854164Q569.5594 75.541664 569.5594 73.416664L571.73126 73.416664Q571.73126 74.760414 572.60626 75.572914Q573.4969 76.385414 574.96564 76.385414Q576.54376 76.385414 577.3719 75.572914Q578.2 74.74479 578.2 73.197914Q578.2 71.71354 577.27814 70.916664Q576.3719 70.11979 574.65314 70.104164L573.02814 70.104164L573.02814 68.322914Z" fill-rule="nonzero"/><path fill="#9e9e9e" d="M542.02814 104.18229L544.3875 104.18229L544.3875 105.947914L542.02814 105.947914L542.02814 109.916664L539.84064 109.916664L539.84064 105.947914L532.075 105.947914L532.075 104.68229L539.71564 92.854164L542.02814 92.854164L542.02814 104.18229ZM534.52814 104.18229L539.84064 104.18229L539.84064 95.822914L539.59064 96.291664L534.52814 104.18229ZM546.1375 108.77604Q546.1375 108.21354 546.46564 107.83854Q546.8094 107.46354 547.46564 107.46354Q548.1375 107.46354 548.48126 107.83854Q548.84064 108.21354 548.84064 108.77604Q548.84064 109.322914 548.48126 109.68229Q548.1375 110.041664 547.46564 110.041664Q546.8094 110.041664 546.46564 109.68229Q546.1375 109.322914 546.1375 108.77604ZM555.02814 100.322914L556.65314 100.322914Q558.1844 100.30729 559.0594 99.52604Q559.95 98.729164 559.95 97.40104Q559.95 94.40104 556.95 94.40104Q555.54376 94.40104 554.7 95.21354Q553.8719 96.010414 553.8719 97.322914L551.7 97.322914Q551.7 95.30729 553.1844 93.96354Q554.66876 92.61979 556.95 92.61979Q559.3719 92.61979 560.73126 93.90104Q562.10626 95.166664 562.10626 97.447914Q562.10626 98.55729 561.3875 99.604164Q560.66876 100.65104 559.4344 101.166664Q560.84064 101.604164 561.60626 102.635414Q562.3719 103.666664 562.3719 105.15104Q562.3719 107.447914 560.8719 108.80729Q559.3719 110.15104 556.96564 110.15104Q554.5594 110.15104 553.0594 108.854164Q551.5594 107.541664 551.5594 105.416664L553.73126 105.416664Q553.73126 106.760414 554.60626 107.572914Q555.4969 108.385414 556.96564 108.385414Q558.54376 108.385414 559.3719 107.572914Q560.2 106.74479 560.2 105.197914Q560.2 103.71354 559.27814 102.916664Q558.3719 102.11979 556.65314 102.104164L555.02814 102.104164L555.02814 100.322914ZM564.6844 96.135414Q564.6844 94.604164 565.65314 93.604164Q566.6375 92.604164 568.16876 92.604164Q569.73126 92.604164 570.7 93.604164Q571.66876 94.604164 571.66876 96.197914L571.66876 97.041664Q571.66876 98.58854 570.6844 99.572914Q569.71564 100.541664 568.2 100.541664Q566.66876 100.541664 565.66876 99.572914Q564.6844 98.58854 564.6844 96.947914L564.6844 96.135414ZM566.29376 97.041664Q566.29376 97.947914 566.8094 98.541664Q567.325 99.135414 568.2 99.135414Q569.02814 99.135414 569.52814 98.55729Q570.04376 97.979164 570.04376 96.99479L570.04376 96.135414Q570.04376 95.21354 569.54376 94.61979Q569.04376 94.02604 568.16876 94.02604Q567.3094 94.02604 566.79376 94.61979Q566.29376 95.21354 566.29376 96.18229L566.29376 97.041664ZM572.9969 105.729164Q572.9969 104.197914 573.96564 103.21354Q574.95 102.21354 576.48126 102.21354Q578.0125 102.21354 578.9969 103.197914Q579.98126 104.18229 579.98126 105.80729L579.98126 106.65104Q579.98126 108.18229 578.9969 109.18229Q578.02814 110.166664 576.4969 110.166664Q574.98126 110.166664 573.98126 109.18229Q572.9969 108.197914 572.9969 106.572914L572.9969 105.729164ZM574.60626 106.65104Q574.60626 107.572914 575.1219 108.166664Q575.6375 108.760414 576.5125 108.760414Q577.35626 108.760414 577.85626 108.18229Q578.35626 107.58854 578.35626 106.604164L578.35626 105.729164Q578.35626 104.80729 577.84064 104.229164Q577.34064 103.635414 576.48126 103.635414Q575.65314 103.635414 575.1219 104.21354Q574.60626 104.791664 574.60626 105.77604L574.60626 106.65104ZM568.6844 108.61979L567.46564 107.854164L575.79376 94.510414L577.02814 95.291664L568.6844 108.61979Z" fill-rule="nonzero"/><path stroke="#757575" stroke-width="1.0" stroke-linecap="butt" d="M581.45 85.416664L454.76666 85.416664L343.37326 69.175125" fill-rule="nonzero"/><path fill="#9e9e9e" d="M345.37326 69.175125C345.37326 68.07056 344.47784 67.175125 343.37326 67.175125C342.2687 67.175125 341.37326 68.07056 341.37326 69.175125C341.37326 70.2797 342.2687 71.175125 343.37326 71.175125C344.47784 71.175125 345.37326 70.2797 345.37326 69.175125" fill-rule="nonzero"/><path fill="#757575" d="M542.04376 138.91667L530.8719 138.91667L530.8719 137.35417L536.77814 130.79167Q538.09064 129.3073 538.59064 128.38542Q539.09064 127.44792 539.09064 126.44792Q539.09064 125.10417 538.27814 124.26042Q537.46564 123.40105 536.1219 123.40105Q534.4969 123.40105 533.60626 124.32292Q532.71564 125.2448 532.71564 126.88542L530.54376 126.88542Q530.54376 124.52605 532.0594 123.07292Q533.575 121.6198 536.1219 121.6198Q538.4969 121.6198 539.8719 122.8698Q541.2625 124.1198 541.2625 126.1823Q541.2625 128.71355 538.0594 132.1823L533.48126 137.15105L542.04376 137.15105L542.04376 138.91667ZM554.575 131.63542Q554.575 135.44792 553.2625 137.3073Q551.96564 139.15105 549.2 139.15105Q546.46564 139.15105 545.15314 137.33855Q543.84064 135.52605 543.79376 131.9323L543.79376 129.04167Q543.79376 125.27605 545.09064 123.44792Q546.40314 121.6198 549.1844 121.6198Q551.9344 121.6198 553.23126 123.38542Q554.52814 125.15105 554.575 128.82292L554.575 131.63542ZM552.40314 128.66667Q552.40314 125.91667 551.6219 124.66667Q550.85626 123.40105 549.1844 123.40105Q547.5125 123.40105 546.7469 124.65105Q545.9969 125.90105 545.96564 128.51042L545.96564 131.97917Q545.96564 134.7448 546.7625 136.07292Q547.575 137.38542 549.2 137.38542Q550.8094 137.38542 551.59064 136.15105Q552.3719 134.90105 552.40314 132.22917L552.40314 128.66667ZM563.9969 138.91667L561.8094 138.91667L561.8094 124.46355L557.45 126.07292L557.45 124.10417L563.65314 121.77605L563.9969 121.77605L563.9969 138.91667ZM579.02814 133.1823L581.3875 133.1823L581.3875 134.94792L579.02814 134.94792L579.02814 138.91667L576.84064 138.91667L576.84064 134.94792L569.075 134.94792L569.075 133.6823L576.71564 121.85417L579.02814 121.85417L579.02814 133.1823ZM571.52814 133.1823L576.84064 133.1823L576.84064 124.82292L576.59064 125.29167L571.52814 133.1823Z" fill-rule="nonzero"/><path fill="#9e9e9e" d="M541.3719 153.83855L541.3719 155.6823L540.98126 155.6823Q538.45 155.72917 536.95 157.1823Q535.45 158.63542 535.21564 161.27605Q536.5594 159.72917 538.8875 159.72917Q541.1219 159.72917 542.45 161.3073Q543.77814 162.8698 543.77814 165.35417Q543.77814 167.97917 542.34064 169.57292Q540.90314 171.15105 538.4969 171.15105Q536.04376 171.15105 534.5125 169.27605Q532.9969 167.38542 532.9969 164.41667L532.9969 163.58855Q532.9969 158.88542 534.9969 156.40105Q537.0125 153.90105 540.9969 153.83855L541.3719 153.83855ZM538.52814 161.52605Q537.41876 161.52605 536.48126 162.19792Q535.54376 162.8698 535.1844 163.8698L535.1844 164.66667Q535.1844 166.77605 536.1219 168.07292Q537.075 169.35417 538.4969 169.35417Q539.96564 169.35417 540.79376 168.27605Q541.6375 167.19792 541.6375 165.44792Q541.6375 163.69792 540.77814 162.6198Q539.9344 161.52605 538.52814 161.52605ZM546.1375 169.77605Q546.1375 169.21355 546.46564 168.83855Q546.8094 168.46355 547.46564 168.46355Q548.1375 168.46355 548.48126 168.83855Q548.84064 169.21355 548.84064 169.77605Q548.84064 170.32292 548.48126 170.6823Q548.1375 171.04167 547.46564 171.04167Q546.8094 171.04167 546.46564 170.6823Q546.1375 170.32292 546.1375 169.77605ZM561.02814 165.1823L563.3875 165.1823L563.3875 166.94792L561.02814 166.94792L561.02814 170.91667L558.84064 170.91667L558.84064 166.94792L551.075 166.94792L551.075 165.6823L558.71564 153.85417L561.02814 153.85417L561.02814 165.1823ZM553.52814 165.1823L558.84064 165.1823L558.84064 156.82292L558.59064 157.29167L553.52814 165.1823ZM564.6844 157.13542Q564.6844 155.60417 565.65314 154.60417Q566.6375 153.60417 568.16876 153.60417Q569.73126 153.60417 570.7 154.60417Q571.66876 155.60417 571.66876 157.19792L571.66876 158.04167Q571.66876 159.58855 570.6844 160.57292Q569.71564 161.54167 568.2 161.54167Q566.66876 161.54167 565.66876 160.57292Q564.6844 159.58855 564.6844 157.94792L564.6844 157.13542ZM566.29376 158.04167Q566.29376 158.94792 566.8094 159.54167Q567.325 160.13542 568.2 160.13542Q569.02814 160.13542 569.52814 159.5573Q570.04376 158.97917 570.04376 157.9948L570.04376 157.13542Q570.04376 156.21355 569.54376 155.6198Q569.04376 155.02605 568.16876 155.02605Q567.3094 155.02605 566.79376 155.6198Q566.29376 156.21355 566.29376 157.1823L566.29376 158.04167ZM572.9969 166.72917Q572.9969 165.19792 573.96564 164.21355Q574.95 163.21355 576.48126 163.21355Q578.0125 163.21355 578.9969 164.19792Q579.98126 165.1823 579.98126 166.8073L579.98126 167.65105Q579.98126 169.1823 578.9969 170.1823Q578.02814 171.16667 576.4969 171.16667Q574.98126 171.16667 573.98126 170.1823Q572.9969 169.19792 572.9969 167.57292L572.9969 166.72917ZM574.60626 167.65105Q574.60626 168.57292 575.1219 169.16667Q575.6375 169.76042 576.5125 169.76042Q577.35626 169.76042 577.85626 169.1823Q578.35626 168.58855 578.35626 167.60417L578.35626 166.72917Q578.35626 165.8073 577.84064 165.22917Q577.34064 164.63542 576.48126 164.63542Q575.65314 164.63542 575.1219 165.21355Q574.60626 165.79167 574.60626 166.77605L574.60626 167.65105ZM568.6844 169.6198L567.46564 168.85417L575.79376 155.51042L577.02814 156.29167L568.6844 169.6198Z" fill-rule="nonzero"/><path stroke="#757575" stroke-width="1.0" stroke-linecap="butt" d="M581.45 146.41667L454.76666 146.41667L385.09543 90.8451" fill-rule="nonzero"/><path fill="#9e9e9e" d="M387.09543 90.8451C387.09543 89.74053 386.19998 88.8451 385.09543 88.8451C383.99084 88.8451 383.09543 89.74053 383.09543 90.8451C383.09543 91.94967 383.99084 92.8451 385.09543 92.8451C386.19998 92.8451 387.09543 91.94967 387.09543 90.8451" fill-rule="nonzero"/><path fill="#757575" d="M542.04376 199.91667L530.8719 199.91667L530.8719 198.35417L536.77814 191.79167Q538.09064 190.3073 538.59064 189.38542Q539.09064 188.44792 539.09064 187.44792Q539.09064 186.10417 538.27814 185.26042Q537.46564 184.40105 536.1219 184.40105Q534.4969 184.40105 533.60626 185.32292Q532.71564 186.2448 532.71564 187.88542L530.54376 187.88542Q530.54376 185.52605 532.0594 184.07292Q533.575 182.6198 536.1219 182.6198Q538.4969 182.6198 539.8719 183.8698Q541.2625 185.1198 541.2625 187.1823Q541.2625 189.71355 538.0594 193.1823L533.48126 198.15105L542.04376 198.15105L542.04376 199.91667ZM554.575 192.63542Q554.575 196.44792 553.2625 198.3073Q551.96564 200.15105 549.2 200.15105Q546.46564 200.15105 545.15314 198.33855Q543.84064 196.52605 543.79376 192.9323L543.79376 190.04167Q543.79376 186.27605 545.09064 184.44792Q546.40314 182.6198 549.1844 182.6198Q551.9344 182.6198 553.23126 184.38542Q554.52814 186.15105 554.575 189.82292L554.575 192.63542ZM552.40314 189.66667Q552.40314 186.91667 551.6219 185.66667Q550.85626 184.40105 549.1844 184.40105Q547.5125 184.40105 546.7469 185.65105Q545.9969 186.90105 545.96564 189.51042L545.96564 192.97917Q545.96564 195.7448 546.7625 197.07292Q547.575 198.38542 549.2 198.38542Q550.8094 198.38542 551.59064 197.15105Q552.3719 195.90105 552.40314 193.22917L552.40314 189.66667ZM563.9969 199.91667L561.8094 199.91667L561.8094 185.46355L557.45 187.07292L557.45 185.10417L563.65314 182.77605L563.9969 182.77605L563.9969 199.91667ZM570.8719 191.35417L571.73126 182.85417L580.48126 182.85417L580.48126 184.85417L573.575 184.85417L573.0594 189.51042Q574.3094 188.77605 575.90314 188.77605Q578.23126 188.77605 579.60626 190.32292Q580.98126 191.85417 580.98126 194.47917Q580.98126 197.1198 579.5594 198.63542Q578.1375 200.15105 575.575 200.15105Q573.3094 200.15105 571.8719 198.90105Q570.45 197.63542 570.2625 195.4323L572.3094 195.4323Q572.5125 196.88542 573.35626 197.63542Q574.2 198.38542 575.575 198.38542Q577.09064 198.38542 577.95 197.35417Q578.8094 196.32292 578.8094 194.4948Q578.8094 192.79167 577.8719 191.76042Q576.95 190.71355 575.40314 190.71355Q573.98126 190.71355 573.16876 191.33855L572.60626 191.8073L570.8719 191.35417Z" fill-rule="nonzero"/><path fill="#9e9e9e" d="M543.8875 216.07292L536.825 231.91667L534.54376 231.91667L541.59064 216.63542L532.35626 216.63542L532.35626 214.85417L543.8875 214.85417L543.8875 216.07292ZM546.1375 230.77605Q546.1375 230.21355 546.46564 229.83855Q546.8094 229.46355 547.46564 229.46355Q548.1375 229.46355 548.48126 229.83855Q548.84064 230.21355 548.84064 230.77605Q548.84064 231.32292 548.48126 231.6823Q548.1375 232.04167 547.46564 232.04167Q546.8094 232.04167 546.46564 231.6823Q546.1375 231.32292 546.1375 230.77605ZM558.9969 231.91667L556.8094 231.91667L556.8094 217.46355L552.45 219.07292L552.45 217.10417L558.65314 214.77605L558.9969 214.77605L558.9969 231.91667ZM564.6844 218.13542Q564.6844 216.60417 565.65314 215.60417Q566.6375 214.60417 568.16876 214.60417Q569.73126 214.60417 570.7 215.60417Q571.66876 216.60417 571.66876 218.19792L571.66876 219.04167Q571.66876 220.58855 570.6844 221.57292Q569.71564 222.54167 568.2 222.54167Q566.66876 222.54167 565.66876 221.57292Q564.6844 220.58855 564.6844 218.94792L564.6844 218.13542ZM566.29376 219.04167Q566.29376 219.94792 566.8094 220.54167Q567.325 221.13542 568.2 221.13542Q569.02814 221.13542 569.52814 220.5573Q570.04376 219.97917 570.04376 218.9948L570.04376 218.13542Q570.04376 217.21355 569.54376 216.6198Q569.04376 216.02605 568.16876 216.02605Q567.3094 216.02605 566.79376 216.6198Q566.29376 217.21355 566.29376 218.1823L566.29376 219.04167ZM572.9969 227.72917Q572.9969 226.19792 573.96564 225.21355Q574.95 224.21355 576.48126 224.21355Q578.0125 224.21355 578.9969 225.19792Q579.98126 226.1823 579.98126 227.8073L579.98126 228.65105Q579.98126 230.1823 578.9969 231.1823Q578.02814 232.16667 576.4969 232.16667Q574.98126 232.16667 573.98126 231.1823Q572.9969 230.19792 572.9969 228.57292L572.9969 227.72917ZM574.60626 228.65105Q574.60626 229.57292 575.1219 230.16667Q575.6375 230.76042 576.5125 230.76042Q577.35626 230.76042 577.85626 230.1823Q578.35626 229.58855 578.35626 228.60417L578.35626 227.72917Q578.35626 226.8073 577.84064 226.22917Q577.34064 225.63542 576.48126 225.63542Q575.65314 225.63542 575.1219 226.21355Q574.60626 226.79167 574.60626 227.77605L574.60626 228.65105ZM568.6844 230.6198L567.46564 229.85417L575.79376 216.51042L577.02814 217.29167L568.6844 230.6198Z" fill-rule="nonzero"/><path stroke="#757575" stroke-width="1.0" stroke-linecap="butt" d="M581.45 207.41667L454.76666 207.41667L423.93787 135.76352" fill-rule="nonzero"/><path fill="#9e9e9e" d="M425.93787 135.76352C425.93787 134.65895 425.04245 133.76352 423.93787 133.76352C422.8333 133.76352 421.93787 134.65895 421.93787 135.76352C421.93787 136.86809 422.8333 137.76352 423.93787 137.76352C425.04245 137.76352 425.93787 136.86809 425.93787 135.76352" fill-rule="nonzero"/><path fill="#757575" d="M542.04376 314.45L530.8719 314.45L530.8719 312.8875L536.77814 306.325Q538.09064 304.84064 538.59064 303.91876Q539.09064 302.98126 539.09064 301.98126Q539.09064 300.6375 538.27814 299.79376Q537.46564 298.9344 536.1219 298.9344Q534.4969 298.9344 533.60626 299.85626Q532.71564 300.77814 532.71564 302.41876L530.54376 302.41876Q530.54376 300.0594 532.0594 298.60626Q533.575 297.15314 536.1219 297.15314Q538.4969 297.15314 539.8719 298.40314Q541.2625 299.65314 541.2625 301.71564Q541.2625 304.2469 538.0594 307.71564L533.48126 312.6844L542.04376 312.6844L542.04376 314.45ZM554.575 307.16876Q554.575 310.98126 553.2625 312.84064Q551.96564 314.6844 549.2 314.6844Q546.46564 314.6844 545.15314 312.8719Q543.84064 311.0594 543.79376 307.46564L543.79376 304.575Q543.79376 300.8094 545.09064 298.98126Q546.40314 297.15314 549.1844 297.15314Q551.9344 297.15314 553.23126 298.91876Q554.52814 300.6844 554.575 304.35626L554.575 307.16876ZM552.40314 304.2Q552.40314 301.45 551.6219 300.2Q550.85626 298.9344 549.1844 298.9344Q547.5125 298.9344 546.7469 300.1844Q545.9969 301.4344 545.96564 304.04376L545.96564 307.5125Q545.96564 310.27814 546.7625 311.60626Q547.575 312.91876 549.2 312.91876Q550.8094 312.91876 551.59064 311.6844Q552.3719 310.4344 552.40314 307.7625L552.40314 304.2ZM563.9969 314.45L561.8094 314.45L561.8094 299.9969L557.45 301.60626L557.45 299.6375L563.65314 297.3094L563.9969 297.3094L563.9969 314.45ZM578.3719 297.3719L578.3719 299.21564L577.98126 299.21564Q575.45 299.2625 573.95 300.71564Q572.45 302.16876 572.21564 304.8094Q573.5594 303.2625 575.8875 303.2625Q578.1219 303.2625 579.45 304.84064Q580.77814 306.40314 580.77814 308.8875Q580.77814 311.5125 579.34064 313.10626Q577.90314 314.6844 575.4969 314.6844Q573.04376 314.6844 571.5125 312.8094Q569.9969 310.91876 569.9969 307.95L569.9969 307.1219Q569.9969 302.41876 571.9969 299.9344Q574.0125 297.4344 577.9969 297.3719L578.3719 297.3719ZM575.52814 305.0594Q574.41876 305.0594 573.48126 305.73126Q572.54376 306.40314 572.1844 307.40314L572.1844 308.2Q572.1844 310.3094 573.1219 311.60626Q574.075 312.8875 575.4969 312.8875Q576.96564 312.8875 577.79376 311.8094Q578.6375 310.73126 578.6375 308.98126Q578.6375 307.23126 577.77814 306.15314Q576.9344 305.0594 575.52814 305.0594Z" fill-rule="nonzero"/><path fill="#9e9e9e" d="M520.8719 337.8875L521.73126 329.3875L530.48126 329.3875L530.48126 331.3875L523.575 331.3875L523.0594 336.04376Q524.3094 335.3094 525.90314 335.3094Q528.23126 335.3094 529.60626 336.85626Q530.98126 338.3875 530.98126 341.0125Q530.98126 343.65314 529.5594 345.16876Q528.1375 346.6844 525.575 346.6844Q523.3094 346.6844 521.8719 345.4344Q520.45 344.16876 520.2625 341.96564L522.3094 341.96564Q522.5125 343.41876 523.35626 344.16876Q524.2 344.91876 525.575 344.91876Q527.09064 344.91876 527.95 343.8875Q528.8094 342.85626 528.8094 341.02814Q528.8094 339.325 527.8719 338.29376Q526.95 337.2469 525.40314 337.2469Q523.98126 337.2469 523.16876 337.8719L522.60626 338.34064L520.8719 337.8875ZM541.3719 329.3719L541.3719 331.21564L540.98126 331.21564Q538.45 331.2625 536.95 332.71564Q535.45 334.16876 535.21564 336.8094Q536.5594 335.2625 538.8875 335.2625Q541.1219 335.2625 542.45 336.84064Q543.77814 338.40314 543.77814 340.8875Q543.77814 343.5125 542.34064 345.10626Q540.90314 346.6844 538.4969 346.6844Q536.04376 346.6844 534.5125 344.8094Q532.9969 342.91876 532.9969 339.95L532.9969 339.1219Q532.9969 334.41876 534.9969 331.9344Q537.0125 329.4344 540.9969 329.3719L541.3719 329.3719ZM538.52814 337.0594Q537.41876 337.0594 536.48126 337.73126Q535.54376 338.40314 535.1844 339.40314L535.1844 340.2Q535.1844 342.3094 536.1219 343.60626Q537.075 344.8875 538.4969 344.8875Q539.96564 344.8875 540.79376 343.8094Q541.6375 342.73126 541.6375 340.98126Q541.6375 339.23126 540.77814 338.15314Q539.9344 337.0594 538.52814 337.0594ZM546.1375 345.3094Q546.1375 344.7469 546.46564 344.3719Q546.8094 343.9969 547.46564 343.9969Q548.1375 343.9969 548.48126 344.3719Q548.84064 344.7469 548.84064 345.3094Q548.84064 345.85626 548.48126 346.21564Q548.1375 346.575 547.46564 346.575Q546.8094 346.575 546.46564 346.21564Q546.1375 345.85626 546.1375 345.3094ZM562.575 339.16876Q562.575 342.98126 561.2625 344.84064Q559.96564 346.6844 557.2 346.6844Q554.46564 346.6844 553.15314 344.8719Q551.84064 343.0594 551.79376 339.46564L551.79376 336.575Q551.79376 332.8094 553.09064 330.98126Q554.40314 329.15314 557.1844 329.15314Q559.9344 329.15314 561.23126 330.91876Q562.52814 332.6844 562.575 336.35626L562.575 339.16876ZM560.40314 336.2Q560.40314 333.45 559.6219 332.2Q558.85626 330.9344 557.1844 330.9344Q555.5125 330.9344 554.7469 332.1844Q553.9969 333.4344 553.96564 336.04376L553.96564 339.5125Q553.96564 342.27814 554.7625 343.60626Q555.575 344.91876 557.2 344.91876Q558.8094 344.91876 559.59064 343.6844Q560.3719 342.4344 560.40314 339.7625L560.40314 336.2ZM564.6844 332.66876Q564.6844 331.1375 565.65314 330.1375Q566.6375 329.1375 568.16876 329.1375Q569.73126 329.1375 570.7 330.1375Q571.66876 331.1375 571.66876 332.73126L571.66876 333.575Q571.66876 335.1219 570.6844 336.10626Q569.71564 337.075 568.2 337.075Q566.66876 337.075 565.66876 336.10626Q564.6844 335.1219 564.6844 333.48126L564.6844 332.66876ZM566.29376 333.575Q566.29376 334.48126 566.8094 335.075Q567.325 335.66876 568.2 335.66876Q569.02814 335.66876 569.52814 335.09064Q570.04376 334.5125 570.04376 333.52814L570.04376 332.66876Q570.04376 331.7469 569.54376 331.15314Q569.04376 330.5594 568.16876 330.5594Q567.3094 330.5594 566.79376 331.15314Q566.29376 331.7469 566.29376 332.71564L566.29376 333.575ZM572.9969 342.2625Q572.9969 340.73126 573.96564 339.7469Q574.95 338.7469 576.48126 338.7469Q578.0125 338.7469 578.9969 339.73126Q579.98126 340.71564 579.98126 342.34064L579.98126 343.1844Q579.98126 344.71564 578.9969 345.71564Q578.02814 346.7 576.4969 346.7Q574.98126 346.7 573.98126 345.71564Q572.9969 344.73126 572.9969 343.10626L572.9969 342.2625ZM574.60626 343.1844Q574.60626 344.10626 575.1219 344.7Q575.6375 345.29376 576.5125 345.29376Q577.35626 345.29376 577.85626 344.71564Q578.35626 344.1219 578.35626 343.1375L578.35626 342.2625Q578.35626 341.34064 577.84064 340.7625Q577.34064 340.16876 576.48126 340.16876Q575.65314 340.16876 575.1219 340.7469Q574.60626 341.325 574.60626 342.3094L574.60626 343.1844ZM568.6844 345.15314L567.46564 344.3875L575.79376 331.04376L577.02814 331.825L568.6844 345.15314Z" fill-rule="nonzero"/><path stroke="#757575" stroke-width="1.0" stroke-linecap="butt" d="M581.45 321.95L454.76666 321.95L312.57898 344.45074" fill-rule="nonzero"/><path fill="#9e9e9e" d="M314.57898 344.45074C314.57898 343.3462 313.68353 342.45074 312.57898 342.45074C311.4744 342.45074 310.57898 343.3462 310.57898 344.45074C310.57898 345.55533 311.4744 346.45074 312.57898 346.45074C313.68353 346.45074 314.57898 345.55533 314.57898 344.45074" fill-rule="nonzero"/><path fill="#757575" d="M21.596874 37.940624Q25.659374 37.8625 28.003124 36.690624Q26.83125 35.675 25.1125 34.89375Q23.628124 35.909374 22.221874 36.45625L21.51875 35.128124Q24.565624 34.1125 26.440624 31.221874L21.596874 31.221874L21.596874 33.253124L20.034374 33.253124L20.034374 29.971874L36.909374 29.971874L36.909374 33.096874L35.346874 33.096874L35.346874 31.221874L28.08125 31.221874L27.3 32.39375L32.6125 32.39375L33.003124 32.003124L34.253124 32.940624Q34.565624 33.33125 33.940624 33.4875Q30.190624 38.878124 22.14375 39.503124L21.596874 37.940624ZM26.440624 33.64375L26.05 34.034374Q28.159374 34.815624 29.4875 35.83125Q31.20625 34.7375 31.83125 33.64375L26.440624 33.64375ZM34.8 29.034374L22.221874 29.034374L22.221874 25.128124L24.95625 25.128124L24.95625 24.034374L20.034374 24.034374L20.034374 22.784374L24.95625 22.784374L24.95625 21.221874L26.440624 21.221874Q27.065624 21.3 26.51875 21.690624L26.51875 22.784374L30.346874 22.784374L30.346874 21.221874L31.83125 21.221874Q32.45625 21.3 31.909374 21.690624L31.909374 22.784374L36.909374 22.784374L36.909374 24.034374L31.909374 24.034374L31.909374 25.128124L34.8 25.128124L34.8 29.034374ZM26.05 26.378124L23.784374 26.378124L23.784374 27.784374L26.05 27.784374L26.05 26.378124ZM27.378124 26.378124L27.378124 27.784374L29.565624 27.784374L29.565624 26.378124L27.378124 26.378124ZM33.2375 26.378124L30.89375 26.378124L30.89375 27.784374L33.2375 27.784374L33.2375 26.378124ZM30.346874 24.034374L26.51875 24.034374L26.51875 25.128124L30.346874 25.128124L30.346874 24.034374ZM53.08125 33.253124Q54.175 31.14375 54.409374 26.846874L51.753124 26.846874Q51.9875 31.14375 53.08125 33.253124ZM55.971874 26.846874Q55.815624 31.690624 54.096874 34.659374Q55.346874 36.221874 57.6125 37.39375L56.596874 39.1125Q54.096874 37.471874 53.08125 35.9875Q51.284374 38.01875 47.534374 39.503124L46.753124 37.940624Q50.815624 36.3 52.14375 34.58125Q50.815624 32.003124 50.659374 29.425Q50.190624 30.596874 49.721874 31.221874L48.39375 30.20625Q50.7375 26.76875 51.20625 21.690624L52.846874 22.08125Q53.315624 22.39375 52.6125 22.55Q52.378124 23.95625 51.9875 25.3625L57.3 25.3625L57.3 26.846874L55.971874 26.846874ZM48.70625 23.096874Q48.2375 24.26875 47.6125 25.05L46.3625 24.346874Q46.9875 23.33125 47.534374 22.003124L48.940624 22.70625Q49.253124 23.01875 48.70625 23.096874ZM43.70625 34.1125Q44.8 34.425 45.659374 34.815624Q46.284374 34.1125 46.675 32.70625L44.409374 32.70625Q44.096874 33.409374 43.70625 34.1125ZM42.6125 36.065624L41.3625 35.3625Q42.14375 34.190624 42.925 32.70625L39.95625 32.70625L39.95625 31.45625L43.39375 31.45625Q43.8625 30.440624 44.096874 29.7375L45.58125 30.128124Q45.89375 30.440624 45.346874 30.51875L44.878124 31.45625L49.33125 31.45625L49.33125 32.70625L48.159374 32.70625Q47.76875 34.26875 46.9875 35.3625Q47.690624 35.675 48.471874 36.14375L47.76875 37.39375Q46.909374 36.846874 46.20625 36.534374Q44.175 38.565624 40.7375 39.034374L40.190624 37.628124Q43.2375 37.315624 44.878124 35.909374Q44.01875 35.51875 43.159374 35.20625L42.6125 36.065624ZM44.175 21.378124L45.425 21.378124Q46.05 21.45625 45.503124 21.846874L45.503124 25.20625L49.4875 25.20625L49.4875 26.45625L46.20625 26.45625Q47.065624 27.471874 48.8625 28.409374L48.003124 29.7375Q46.675 28.95625 45.503124 27.55L45.503124 29.425L44.175 29.425L44.175 27.940624Q42.925 29.503124 40.7375 30.753124L39.721874 29.503124Q42.14375 28.253124 43.70625 26.45625L40.1125 26.45625L40.1125 25.20625L44.175 25.20625L44.175 21.378124ZM41.9875 24.971874Q41.440624 23.8 40.58125 22.940624L41.83125 22.159374Q42.76875 23.096874 43.2375 24.1125L41.9875 24.971874Z" fill-rule="nonzero"/><path fill="#757575" d="M65.20625 37.55L65.20625 23.33125L69.22188 23.33125Q71.06563 23.33125 72.4875 24.159374Q73.925 24.971874 74.69063 26.4875Q75.47188 28.003124 75.4875 29.95625L75.4875 30.8625Q75.4875 32.878124 74.70625 34.39375Q73.925 35.909374 72.4875 36.721874Q71.05 37.534374 69.14375 37.55L65.20625 37.55ZM67.08125 24.878124L67.08125 36.01875L69.05 36.01875Q71.22188 36.01875 72.425 34.675Q73.62813 33.315624 73.62813 30.83125L73.62813 30.003124Q73.62813 27.58125 72.4875 26.2375Q71.34688 24.89375 69.26875 24.878124L67.08125 24.878124ZM83.01875 28.596874Q82.6125 28.534374 82.14375 28.534374Q80.3625 28.534374 79.72188 30.05L79.72188 37.55L77.925 37.55L77.925 26.9875L79.675 26.9875L79.70625 28.20625Q80.59688 26.784374 82.22188 26.784374Q82.75313 26.784374 83.01875 26.925L83.01875 28.596874ZM89.3 37.753124Q87.15938 37.753124 85.8 36.346874Q84.45625 34.925 84.45625 32.565624L84.45625 32.221874Q84.45625 30.659374 85.05 29.425Q85.65938 28.190624 86.7375 27.4875Q87.81563 26.784374 89.08125 26.784374Q91.14375 26.784374 92.28438 28.14375Q93.425 29.503124 93.425 32.034374L93.425 32.784374L86.26875 32.784374Q86.3 34.346874 87.175 35.315624Q88.05 36.26875 89.39375 36.26875Q90.3625 36.26875 91.01875 35.878124Q91.69063 35.4875 92.19063 34.846874L93.28438 35.70625Q91.95625 37.753124 89.3 37.753124ZM89.08125 28.26875Q87.9875 28.26875 87.2375 29.065624Q86.50313 29.8625 86.33125 31.3L91.6125 31.3L91.6125 31.159374Q91.53438 29.784374 90.8625 29.034374Q90.20625 28.26875 89.08125 28.26875ZM102.44063 37.55Q102.28438 37.2375 102.19063 36.440624Q100.925 37.753124 99.175 37.753124Q97.6125 37.753124 96.6125 36.8625Q95.6125 35.971874 95.6125 34.6125Q95.6125 32.971874 96.8625 32.065624Q98.12813 31.14375 100.39375 31.14375L102.15938 31.14375L102.15938 30.315624Q102.15938 29.3625 101.58125 28.8Q101.01875 28.2375 99.925 28.2375Q98.95625 28.2375 98.3 28.7375Q97.64375 29.221874 97.64375 29.909374L95.83125 29.909374Q95.83125 29.128124 96.39375 28.39375Q96.95625 27.64375 97.90938 27.221874Q98.87813 26.784374 100.03438 26.784374Q101.8625 26.784374 102.89375 27.70625Q103.925 28.6125 103.97188 30.221874L103.97188 35.08125Q103.97188 36.534374 104.33125 37.39375L104.33125 37.55L102.44063 37.55ZM99.44063 36.175Q100.3 36.175 101.05 35.7375Q101.81563 35.3 102.15938 34.596874L102.15938 32.425L100.7375 32.425Q97.425 32.425 97.425 34.3625Q97.425 35.221874 97.9875 35.70625Q98.55 36.175 99.44063 36.175ZM108.6125 26.9875L108.65938 28.159374Q109.83125 26.784374 111.8 26.784374Q114.01875 26.784374 114.81563 28.4875Q115.34688 27.721874 116.19063 27.253124Q117.03438 26.784374 118.19063 26.784374Q121.65938 26.784374 121.72188 30.471874L121.72188 37.55L119.90938 37.55L119.90938 30.58125Q119.90938 29.440624 119.39375 28.878124Q118.87813 28.315624 117.65938 28.315624Q116.65938 28.315624 115.9875 28.925Q115.33125 29.51875 115.22188 30.534374L115.22188 37.55L113.40938 37.55L113.40938 30.628124Q113.40938 28.315624 111.14375 28.315624Q109.3625 28.315624 108.72188 29.83125L108.72188 37.55L106.90938 37.55L106.90938 26.9875L108.6125 26.9875ZM131.06563 34.753124Q131.06563 34.01875 130.51875 33.6125Q129.97188 33.20625 128.59688 32.909374Q127.22188 32.6125 126.40938 32.20625Q125.6125 31.8 125.22188 31.2375Q124.84688 30.659374 124.84688 29.878124Q124.84688 28.58125 125.94063 27.690624Q127.03438 26.784374 128.75313 26.784374Q130.55 26.784374 131.65938 27.721874Q132.78438 28.64375 132.78438 30.08125L130.95625 30.08125Q130.95625 29.346874 130.33125 28.815624Q129.70625 28.26875 128.75313 28.26875Q127.75313 28.26875 127.19063 28.70625Q126.64375 29.128124 126.64375 29.83125Q126.64375 30.471874 127.15938 30.815624Q127.675 31.14375 129.03438 31.45625Q130.39375 31.753124 131.22188 32.175Q132.06563 32.58125 132.47188 33.175Q132.87813 33.76875 132.87813 34.6125Q132.87813 36.034374 131.7375 36.89375Q130.6125 37.753124 128.8 37.753124Q127.53438 37.753124 126.55 37.3Q125.58125 36.846874 125.01875 36.05Q124.47188 35.2375 124.47188 34.3L126.28438 34.3Q126.33125 35.20625 127.00313 35.7375Q127.69063 36.26875 128.8 36.26875Q129.83125 36.26875 130.44063 35.8625Q131.06563 35.440624 131.06563 34.753124ZM139.84688 31.784374Q139.84688 29.565624 140.44063 27.534374Q141.03438 25.503124 142.20625 23.846874Q143.37813 22.190624 144.62813 21.503124L145.00313 22.690624Q143.58125 23.784374 142.65938 26.034374Q141.75313 28.284374 141.65938 31.065624L141.65938 31.89375Q141.65938 35.659374 143.03438 38.440624Q143.8625 40.096874 145.00313 41.034374L144.62813 42.14375Q143.33125 41.425 142.15938 39.721874Q139.84688 36.39375 139.84688 31.784374ZM156.05 37.55L146.7375 37.55L146.7375 36.253124L151.65938 30.784374Q152.75313 29.534374 153.15938 28.76875Q153.58125 27.9875 153.58125 27.159374Q153.58125 26.05 152.90938 25.33125Q152.2375 24.6125 151.1125 24.6125Q149.75313 24.6125 149.00313 25.39375Q148.26875 26.159374 148.26875 27.51875L146.45625 27.51875Q146.45625 25.55 147.72188 24.346874Q148.9875 23.128124 151.1125 23.128124Q153.09688 23.128124 154.2375 24.175Q155.39375 25.221874 155.39375 26.940624Q155.39375 29.05 152.72188 31.940624L148.90938 36.08125L156.05 36.08125L156.05 37.55ZM166.64375 31.4875Q166.64375 34.659374 165.56563 36.20625Q164.4875 37.753124 162.175 37.753124Q159.89375 37.753124 158.8 36.2375Q157.70625 34.721874 157.675 31.721874L157.675 29.315624Q157.675 26.175 158.75313 24.659374Q159.84688 23.128124 162.15938 23.128124Q164.45625 23.128124 165.53438 24.6125Q166.6125 26.08125 166.64375 29.14375L166.64375 31.4875ZM164.84688 29.01875Q164.84688 26.721874 164.19063 25.675Q163.55 24.6125 162.15938 24.6125Q160.76875 24.6125 160.12813 25.659374Q159.50313 26.70625 159.4875 28.878124L159.4875 31.76875Q159.4875 34.065624 160.14375 35.175Q160.81563 36.26875 162.175 36.26875Q163.51875 36.26875 164.15938 35.2375Q164.81563 34.20625 164.84688 31.971874L164.84688 29.01875ZM177.64375 31.4875Q177.64375 34.659374 176.56563 36.20625Q175.4875 37.753124 173.175 37.753124Q170.89375 37.753124 169.8 36.2375Q168.70625 34.721874 168.675 31.721874L168.675 29.315624Q168.675 26.175 169.75313 24.659374Q170.84688 23.128124 173.15938 23.128124Q175.45625 23.128124 176.53438 24.6125Q177.6125 26.08125 177.64375 29.14375L177.64375 31.4875ZM175.84688 29.01875Q175.84688 26.721874 175.19063 25.675Q174.55 24.6125 173.15938 24.6125Q171.76875 24.6125 171.12813 25.659374Q170.50313 26.70625 170.4875 28.878124L170.4875 31.76875Q170.4875 34.065624 171.14375 35.175Q171.81563 36.26875 173.175 36.26875Q174.51875 36.26875 175.15938 35.2375Q175.81563 34.20625 175.84688 31.971874L175.84688 29.01875ZM188.90938 24.346874L183.01875 37.55L181.12813 37.55L187.00313 24.815624L179.3 24.815624L179.3 23.33125L188.90938 23.33125L188.90938 24.346874ZM194.675 32.253124L189.90938 32.253124L189.90938 30.76875L194.675 30.76875L194.675 32.253124ZM206.05 37.55L196.7375 37.55L196.7375 36.253124L201.65938 30.784374Q202.75313 29.534374 203.15938 28.76875Q203.58125 27.9875 203.58125 27.159374Q203.58125 26.05 202.90938 25.33125Q202.2375 24.6125 201.1125 24.6125Q199.75313 24.6125 199.00313 25.39375Q198.26875 26.159374 198.26875 27.51875L196.45625 27.51875Q196.45625 25.55 197.72188 24.346874Q198.9875 23.128124 201.1125 23.128124Q203.09688 23.128124 204.2375 24.175Q205.39375 25.221874 205.39375 26.940624Q205.39375 29.05 202.72188 31.940624L198.90938 36.08125L206.05 36.08125L206.05 37.55ZM216.64375 31.4875Q216.64375 34.659374 215.56563 36.20625Q214.4875 37.753124 212.175 37.753124Q209.89375 37.753124 208.8 36.2375Q207.70625 34.721874 207.675 31.721874L207.675 29.315624Q207.675 26.175 208.75313 24.659374Q209.84688 23.128124 212.15938 23.128124Q214.45625 23.128124 215.53438 24.6125Q216.6125 26.08125 216.64375 29.14375L216.64375 31.4875ZM214.84688 29.01875Q214.84688 26.721874 214.19063 25.675Q213.55 24.6125 212.15938 24.6125Q210.76875 24.6125 210.12813 25.659374Q209.50313 26.70625 209.4875 28.878124L209.4875 31.76875Q209.4875 34.065624 210.14375 35.175Q210.81563 36.26875 212.175 36.26875Q213.51875 36.26875 214.15938 35.2375Q214.81563 34.20625 214.84688 31.971874L214.84688 29.01875ZM224.675 37.55L222.84688 37.55L222.84688 25.503124L219.20625 26.846874L219.20625 25.20625L224.39375 23.26875L224.675 23.26875L224.675 37.55ZM238.90938 24.346874L233.01875 37.55L231.12813 37.55L237.00313 24.815624L229.3 24.815624L229.3 23.33125L238.90938 23.33125L238.90938 24.346874ZM245.08125 31.878124Q245.08125 34.05 244.50313 36.05Q243.94063 38.05 242.76875 39.7375Q241.59688 41.425 240.3 42.14375L239.925 41.034374Q241.425 39.878124 242.33125 37.45625Q243.25313 35.034374 243.26875 32.065624L243.26875 31.753124Q243.26875 29.70625 242.83125 27.940624Q242.40938 26.175 241.64375 24.784374Q240.87813 23.39375 239.925 22.6125L240.3 21.503124Q241.59688 22.221874 242.75313 23.89375Q243.925 25.55 244.50313 27.565624Q245.08125 29.58125 245.08125 31.878124Z" fill-rule="nonzero"/></svg>