<svg version="1.1" viewBox="0.0 0.0 600.0 371.0" fill="none" stroke="none" stroke-linecap="square" stroke-miterlimit="10" width="600" height="371" xmlns:xlink="http://www.w3.org/1999/xlink" xmlns="http://www.w3.org/2000/svg"><path fill="#ffffff" d="M0 0L600.0 0L600.0 371.0L0 371.0L0 0Z" fill-rule="nonzero"/><path fill="#4285f4" d="M300.0 54.916668C302.44705 54.916668 304.89374 54.977043 307.33783 55.097744L303.6689 129.39053C302.44687 129.33018 301.22354 129.3 300.0 129.3Z" fill-rule="nonzero"/><path fill="#db4437" d="M307.33783 55.097744C308.15247 55.137974 308.9668 55.184906 309.78067 55.23853L304.89035 129.46094C304.4834 129.43411 304.07623 129.41066 303.6689 129.39053Z" fill-rule="nonzero"/><path fill="#f4b400" d="M309.78067 55.23853C314.66495 55.560345 319.53036 56.12302 324.35916 56.924507L312.17957 130.30392C309.76517 129.90318 307.33246 129.62184 304.89035 129.46094Z" fill-rule="nonzero"/><path fill="#0f9d58" d="M324.35916 56.924507C331.6042 58.127045 338.7502 59.864426 345.73865 62.122402L322.86932 132.90286C319.37512 131.77388 315.8021 130.90518 312.17957 130.30392Z" fill-rule="nonzero"/><path fill="#ff6d00" d="M345.73865 62.122402C353.5044 64.63153 361.0505 67.77543 368.3006 71.52227L334.1503 137.6028C330.52527 135.72939 326.7522 134.15744 322.86932 132.90286Z" fill-rule="nonzero"/><path fill="#46bdc6" d="M368.3006 71.52227C427.64645 102.19209 459.2715 168.65948 445.6334 234.05496L372.8167 218.86914C379.63577 186.1714 363.82324 152.93771 334.1503 137.6028Z" fill-rule="nonzero"/><path fill="#ab30c4" d="M445.6334 234.05496C440.10428 260.56726 427.44275 285.06726 409.01404 304.91306L354.50702 254.2982C363.72137 244.37529 370.05215 232.12529 372.8167 218.86914Z" fill-rule="nonzero"/><path fill="#3949ab" d="M167.28171 270.89474C143.92644 224.77654 146.1867 169.8403 173.25156 125.79655C200.31639 81.75279 248.30515 54.916668 300.0 54.916668L300.0 129.3C274.1526 129.3 250.15819 142.71806 236.62578 164.73994C223.09335 186.76181 221.96323 214.22993 233.64085 237.28905Z" fill-rule="nonzero"/><path fill="#c1bc1f" d="M409.01404 304.91306C375.90466 340.56848 327.45135 357.77902 279.26877 350.9984C231.08615 344.21783 189.26466 314.30316 167.28171 270.89474L233.64085 237.28905C244.63232 258.99326 265.54306 273.9506 289.63437 277.34088C313.72568 280.73117 337.95233 272.12592 354.50702 254.2982Z" fill-rule="nonzero"/><path fill="#000000" d="M374.50198 150.9957L370.37698 160.2457L369.06448 160.2457L373.15823 151.32382L367.78323 151.32382L367.78323 150.29257L374.50198 150.29257L374.50198 150.9957ZM380.92386 155.8707Q380.53323 156.33945 379.97073 156.63632Q379.42386 156.91757 378.7676 156.91757Q377.90823 156.91757 377.2676 156.4957Q376.62698 156.07382 376.28323 155.3082Q375.93948 154.52695 375.93948 153.60507Q375.93948 152.60507 376.31448 151.8082Q376.68948 150.9957 377.3926 150.57382Q378.09573 150.15195 379.0176 150.15195Q380.50198 150.15195 381.34573 151.26132Q382.2051 152.3707 382.2051 154.27695L382.2051 154.63632Q382.2051 157.54257 381.04886 158.88632Q379.90823 160.21445 377.5801 160.2457L377.3301 160.2457L377.3301 159.1832L377.61136 159.1832Q379.17386 159.15195 380.00198 158.3707Q380.84573 157.57382 380.92386 155.8707ZM378.97073 155.8707Q379.61136 155.8707 380.1426 155.48007Q380.68948 155.08945 380.93948 154.51132L380.93948 154.01132Q380.93948 152.76132 380.3926 151.9957Q379.84573 151.21445 379.03323 151.21445Q378.18948 151.21445 377.67386 151.85507Q377.17386 152.48007 377.17386 153.52695Q377.17386 154.5582 377.65823 155.21445Q378.15823 155.8707 378.97073 155.8707ZM387.15823 156.19882Q387.15823 154.66757 387.56448 153.2457Q387.98636 151.82382 388.79886 150.66757Q389.62698 149.4957 390.5176 149.01132L390.7676 149.85507Q389.7676 150.6207 389.12698 152.19882Q388.50198 153.76132 388.43948 155.69882L388.42386 156.29257Q388.42386 158.9332 389.3926 160.8707Q389.97073 162.02695 390.7676 162.6832L390.5176 163.46445Q389.59573 162.94882 388.7676 161.76132Q387.15823 159.4332 387.15823 156.19882ZM398.59573 160.2457L392.0801 160.2457L392.0801 159.33945L395.5176 155.51132Q396.28323 154.63632 396.5801 154.10507Q396.87698 153.5582 396.87698 152.96445Q396.87698 152.19882 396.3926 151.69882Q395.92386 151.19882 395.1426 151.19882Q394.2051 151.19882 393.67386 151.73007Q393.15823 152.26132 393.15823 153.23007L391.8926 153.23007Q391.8926 151.85507 392.7676 151.01132Q393.65823 150.15195 395.1426 150.15195Q396.53323 150.15195 397.3301 150.88632Q398.1426 151.60507 398.1426 152.82382Q398.1426 154.29257 396.2676 156.32382L393.61136 159.21445L398.59573 159.21445L398.59573 160.2457ZM406.31448 155.9957Q406.31448 158.21445 405.54886 159.3082Q404.79886 160.38632 403.18948 160.38632Q401.59573 160.38632 400.8301 159.33945Q400.06448 158.27695 400.03323 156.16757L400.03323 154.48007Q400.03323 152.29257 400.78323 151.23007Q401.54886 150.15195 403.17386 150.15195Q404.78323 150.15195 405.53323 151.1832Q406.29886 152.21445 406.31448 154.35507L406.31448 155.9957ZM405.04886 154.27695Q405.04886 152.66757 404.59573 151.9332Q404.15823 151.19882 403.17386 151.19882Q402.2051 151.19882 401.75198 151.9332Q401.31448 152.65195 401.29886 154.16757L401.29886 156.19882Q401.29886 157.8082 401.7676 158.58945Q402.23636 159.35507 403.18948 159.35507Q404.12698 159.35507 404.5801 158.63632Q405.03323 157.90195 405.04886 156.33945L405.04886 154.27695ZM408.23636 159.58945Q408.23636 159.26132 408.42386 159.04257Q408.62698 158.82382 409.0176 158.82382Q409.40823 158.82382 409.61136 159.04257Q409.81448 159.26132 409.81448 159.58945Q409.81448 159.90195 409.61136 160.1207Q409.40823 160.32382 409.0176 160.32382Q408.62698 160.32382 408.42386 160.1207Q408.23636 159.90195 408.23636 159.58945ZM418.50198 150.9957L414.37698 160.2457L413.06448 160.2457L417.15823 151.32382L411.78323 151.32382L411.78323 150.29257L418.50198 150.29257L418.50198 150.9957ZM419.97073 152.19882Q419.97073 151.3082 420.53323 150.73007Q421.11136 150.15195 422.00198 150.15195Q422.92386 150.15195 423.48636 150.7457Q424.04886 151.32382 424.04886 152.2457L424.04886 152.73007Q424.04886 153.63632 423.47073 154.21445Q422.90823 154.77695 422.0176 154.77695Q421.12698 154.77695 420.54886 154.21445Q419.97073 153.63632 419.97073 152.6832L419.97073 152.19882ZM420.90823 152.73007Q420.90823 153.26132 421.2051 153.60507Q421.5176 153.94882 422.0176 153.94882Q422.50198 153.94882 422.79886 153.6207Q423.09573 153.29257 423.09573 152.69882L423.09573 152.19882Q423.09573 151.66757 422.79886 151.32382Q422.5176 150.98007 422.00198 150.98007Q421.50198 150.98007 421.2051 151.32382Q420.90823 151.66757 420.90823 152.23007L420.90823 152.73007ZM424.81448 157.8082Q424.81448 156.90195 425.37698 156.33945Q425.9551 155.76132 426.84573 155.76132Q427.75198 155.76132 428.31448 156.33945Q428.8926 156.90195 428.8926 157.85507L428.8926 158.33945Q428.8926 159.23007 428.31448 159.8082Q427.75198 160.38632 426.86136 160.38632Q425.98636 160.38632 425.3926 159.82382Q424.81448 159.2457 424.81448 158.29257L424.81448 157.8082ZM425.7676 158.33945Q425.7676 158.8707 426.06448 159.23007Q426.36136 159.57382 426.86136 159.57382Q427.36136 159.57382 427.65823 159.23007Q427.9551 158.88632 427.9551 158.3082L427.9551 157.8082Q427.9551 157.26132 427.6426 156.91757Q427.34573 156.57382 426.86136 156.57382Q426.36136 156.57382 426.06448 156.91757Q425.7676 157.26132 425.7676 157.83945L425.7676 158.33945ZM422.31448 159.4957L421.59573 159.04257L426.4551 151.26132L427.17386 151.71445L422.31448 159.4957ZM433.12698 156.27695Q433.12698 157.79257 432.72073 159.19882Q432.3301 160.58945 431.50198 161.77695Q430.67386 162.96445 429.78323 163.46445L429.5176 162.6832Q430.56448 161.88632 431.2051 160.1832Q431.84573 158.48007 431.86136 156.41757L431.86136 156.19882Q431.86136 154.76132 431.54886 153.52695Q431.25198 152.29257 430.72073 151.32382Q430.18948 150.33945 429.5176 149.79257L429.78323 149.01132Q430.67386 149.51132 431.48636 150.6832Q432.31448 151.85507 432.72073 153.26132Q433.12698 154.66757 433.12698 156.27695Z" fill-rule="nonzero"/><path fill="#ffffff" d="M372.29266 253.81503L373.23016 253.81503Q374.1364 253.79941 374.6364 253.34628Q375.15204 252.89316 375.15204 252.11191Q375.15204 250.36191 373.41766 250.36191Q372.58954 250.36191 372.10516 250.83066Q371.6208 251.29941 371.6208 252.06503L370.35516 252.06503Q370.35516 250.87753 371.21454 250.09628Q372.08954 249.31503 373.41766 249.31503Q374.8239 249.31503 375.6208 250.06503Q376.41766 250.81503 376.41766 252.12753Q376.41766 252.78378 375.9958 253.39316Q375.58954 254.00253 374.85516 254.29941Q375.6833 254.56503 376.1208 255.17441Q376.5739 255.76816 376.5739 256.62753Q376.5739 257.97128 375.6989 258.76816Q374.8239 259.5494 373.41766 259.5494Q372.02704 259.5494 371.1364 258.7994Q370.2614 258.03378 370.2614 256.78378L371.54266 256.78378Q371.54266 257.56503 372.04266 258.0494Q372.5583 258.51816 373.41766 258.51816Q374.33954 258.51816 374.8239 258.03378Q375.3083 257.5494 375.3083 256.65878Q375.3083 255.79941 374.77704 255.33066Q374.2458 254.86191 373.23016 254.84628L372.29266 254.84628L372.29266 253.81503ZM380.29266 253.81503L381.23016 253.81503Q382.1364 253.79941 382.6364 253.34628Q383.15204 252.89316 383.15204 252.11191Q383.15204 250.36191 381.41766 250.36191Q380.58954 250.36191 380.10516 250.83066Q379.6208 251.29941 379.6208 252.06503L378.35516 252.06503Q378.35516 250.87753 379.21454 250.09628Q380.08954 249.31503 381.41766 249.31503Q382.8239 249.31503 383.6208 250.06503Q384.41766 250.81503 384.41766 252.12753Q384.41766 252.78378 383.9958 253.39316Q383.58954 254.00253 382.85516 254.29941Q383.6833 254.56503 384.1208 255.17441Q384.5739 255.76816 384.5739 256.62753Q384.5739 257.97128 383.6989 258.76816Q382.8239 259.5494 381.41766 259.5494Q380.02704 259.5494 379.1364 258.7994Q378.2614 258.03378 378.2614 256.78378L379.54266 256.78378Q379.54266 257.56503 380.04266 258.0494Q380.5583 258.51816 381.41766 258.51816Q382.33954 258.51816 382.8239 258.03378Q383.3083 257.5494 383.3083 256.65878Q383.3083 255.79941 382.77704 255.33066Q382.2458 254.86191 381.23016 254.84628L380.29266 254.84628L380.29266 253.81503ZM389.52704 255.36191Q389.52704 253.83066 389.9333 252.40878Q390.35516 250.98691 391.16766 249.83066Q391.9958 248.65878 392.8864 248.17441L393.1364 249.01816Q392.1364 249.78378 391.4958 251.36191Q390.8708 252.92441 390.8083 254.86191L390.79266 255.45566Q390.79266 258.09628 391.7614 260.03378Q392.33954 261.19003 393.1364 261.84628L392.8864 262.62753Q391.96454 262.1119 391.1364 260.9244Q389.52704 258.59628 389.52704 255.36191ZM400.48016 252.04941Q400.48016 252.79941 400.08954 253.37753Q399.6989 253.95566 399.02704 254.28378Q399.8083 254.62753 400.2614 255.26816Q400.71454 255.90878 400.71454 256.72128Q400.71454 258.01816 399.83954 258.78378Q398.98016 259.5494 397.5583 259.5494Q396.1208 259.5494 395.2458 258.78378Q394.3864 258.00253 394.3864 256.72128Q394.3864 255.90878 394.8239 255.26816Q395.2614 254.61191 396.04266 254.28378Q395.3864 253.95566 394.9958 253.37753Q394.6208 252.78378 394.6208 252.04941Q394.6208 250.79941 395.41766 250.06503Q396.23016 249.31503 397.5583 249.31503Q398.8708 249.31503 399.66766 250.06503Q400.48016 250.79941 400.48016 252.04941ZM399.4489 256.69003Q399.4489 255.86191 398.91766 255.34628Q398.3864 254.81503 397.52704 254.81503Q396.6833 254.81503 396.16766 255.33066Q395.65204 255.84628 395.65204 256.70566Q395.65204 257.5494 396.15204 258.03378Q396.65204 258.51816 397.5583 258.51816Q398.4333 258.51816 398.9333 258.03378Q399.4489 257.53378 399.4489 256.69003ZM397.5583 250.36191Q396.8083 250.36191 396.33954 250.83066Q395.8864 251.28378 395.8864 252.08066Q395.8864 252.83066 396.33954 253.29941Q396.79266 253.76816 397.54266 253.76816Q398.3083 253.76816 398.7614 253.29941Q399.21454 252.83066 399.21454 252.08066Q399.21454 251.31503 398.7458 250.84628Q398.27704 250.36191 397.5583 250.36191ZM402.60516 258.75253Q402.60516 258.4244 402.79266 258.20566Q402.9958 257.9869 403.3864 257.9869Q403.77704 257.9869 403.98016 258.20566Q404.1833 258.4244 404.1833 258.75253Q404.1833 259.06503 403.98016 259.28378Q403.77704 259.4869 403.3864 259.4869Q402.9958 259.4869 402.79266 259.28378Q402.60516 259.06503 402.60516 258.75253ZM411.41766 249.45566L411.41766 250.51816L411.1833 250.51816Q409.6989 250.54941 408.8239 251.39316Q407.9489 252.23691 407.8083 253.78378Q408.60516 252.87753 409.96454 252.87753Q411.2614 252.87753 412.02704 253.79941Q412.8083 254.70566 412.8083 256.15878Q412.8083 257.70566 411.96454 258.62753Q411.1364 259.5494 409.73016 259.5494Q408.3083 259.5494 407.41766 258.45566Q406.52704 257.34628 406.52704 255.62753L406.52704 255.14316Q406.52704 252.39316 407.6989 250.94003Q408.8708 249.48691 411.1833 249.45566L411.41766 249.45566ZM409.7458 253.94003Q409.10516 253.94003 408.5583 254.33066Q408.0114 254.70566 407.79266 255.29941L407.79266 255.76816Q407.79266 257.00253 408.33954 257.75253Q408.90204 258.50253 409.73016 258.50253Q410.58954 258.50253 411.0739 257.87753Q411.5583 257.2369 411.5583 256.22128Q411.5583 255.19003 411.0583 254.56503Q410.5739 253.94003 409.7458 253.94003ZM414.33954 251.36191Q414.33954 250.47128 414.90204 249.89316Q415.48016 249.31503 416.3708 249.31503Q417.29266 249.31503 417.85516 249.90878Q418.41766 250.48691 418.41766 251.40878L418.41766 251.89316Q418.41766 252.79941 417.83954 253.37753Q417.27704 253.94003 416.3864 253.94003Q415.4958 253.94003 414.91766 253.37753Q414.33954 252.79941 414.33954 251.84628L414.33954 251.36191ZM415.27704 251.89316Q415.27704 252.42441 415.5739 252.76816Q415.8864 253.11191 416.3864 253.11191Q416.8708 253.11191 417.16766 252.78378Q417.46454 252.45566 417.46454 251.86191L417.46454 251.36191Q417.46454 250.83066 417.16766 250.48691Q416.8864 250.14316 416.3708 250.14316Q415.8708 250.14316 415.5739 250.48691Q415.27704 250.83066 415.27704 251.39316L415.27704 251.89316ZM419.1833 256.97128Q419.1833 256.06503 419.7458 255.50253Q420.3239 254.92441 421.21454 254.92441Q422.1208 254.92441 422.6833 255.50253Q423.2614 256.06503 423.2614 257.01816L423.2614 257.50253Q423.2614 258.39316 422.6833 258.97128Q422.1208 259.5494 421.23016 259.5494Q420.35516 259.5494 419.7614 258.9869Q419.1833 258.40878 419.1833 257.45566L419.1833 256.97128ZM420.1364 257.50253Q420.1364 258.03378 420.4333 258.39316Q420.73016 258.7369 421.23016 258.7369Q421.73016 258.7369 422.02704 258.39316Q422.3239 258.0494 422.3239 257.47128L422.3239 256.97128Q422.3239 256.4244 422.0114 256.08066Q421.71454 255.73691 421.23016 255.73691Q420.73016 255.73691 420.4333 256.08066Q420.1364 256.4244 420.1364 257.00253L420.1364 257.50253ZM416.6833 258.65878L415.96454 258.20566L420.8239 250.42441L421.54266 250.87753L416.6833 258.65878ZM427.4958 255.44003Q427.4958 256.95566 427.08954 258.3619Q426.6989 259.75253 425.8708 260.94003Q425.04266 262.12753 424.15204 262.62753L423.8864 261.84628Q424.9333 261.0494 425.5739 259.34628Q426.21454 257.64316 426.23016 255.58066L426.23016 255.36191Q426.23016 253.92441 425.91766 252.69003Q425.6208 251.45566 425.08954 250.48691Q424.5583 249.50253 423.8864 248.95566L424.15204 248.17441Q425.04266 248.67441 425.85516 249.84628Q426.6833 251.01816 427.08954 252.42441Q427.4958 253.83066 427.4958 255.44003Z" fill-rule="nonzero"/><path fill="#000000" d="M251.93594 318.66965L250.67032 318.66965L250.67032 310.24777L248.10782 311.16965L248.10782 310.02902L251.73282 308.66965L251.93594 308.66965L251.93594 318.66965ZM259.93594 318.66965L258.67032 318.66965L258.67032 310.24777L256.10782 311.16965L256.10782 310.02902L259.73282 308.66965L259.93594 308.66965L259.93594 318.66965ZM270.20157 309.41965L266.07657 318.66965L264.76407 318.66965L268.85782 309.74777L263.48282 309.74777L263.48282 308.71652L270.20157 308.71652L270.20157 309.41965ZM274.85782 314.62277Q274.85782 313.09152 275.26407 311.66965Q275.68594 310.24777 276.49844 309.09152Q277.32657 307.91965 278.2172 307.43527L278.4672 308.27902Q277.4672 309.04465 276.82657 310.62277Q276.20157 312.18527 276.13907 314.12277L276.12344 314.71652Q276.12344 317.35715 277.0922 319.29465Q277.67032 320.4509 278.4672 321.10715L278.2172 321.8884Q277.29532 321.37277 276.4672 320.18527Q274.85782 317.85715 274.85782 314.62277ZM281.62344 313.0759L282.56094 313.0759Q283.4672 313.06027 283.9672 312.60715Q284.48282 312.15402 284.48282 311.37277Q284.48282 309.62277 282.74844 309.62277Q281.92032 309.62277 281.43594 310.09152Q280.95157 310.56027 280.95157 311.3259L279.68594 311.3259Q279.68594 310.1384 280.54532 309.35715Q281.42032 308.5759 282.74844 308.5759Q284.1547 308.5759 284.95157 309.3259Q285.74844 310.0759 285.74844 311.3884Q285.74844 312.04465 285.32657 312.65402Q284.92032 313.2634 284.18594 313.56027Q285.01407 313.8259 285.45157 314.43527Q285.9047 315.02902 285.9047 315.8884Q285.9047 317.23215 285.0297 318.02902Q284.1547 318.81027 282.74844 318.81027Q281.35782 318.81027 280.4672 318.06027Q279.5922 317.29465 279.5922 316.04465L280.87344 316.04465Q280.87344 316.8259 281.37344 317.31027Q281.88907 317.77902 282.74844 317.77902Q283.67032 317.77902 284.1547 317.29465Q284.63907 316.81027 284.63907 315.91965Q284.63907 315.06027 284.10782 314.59152Q283.57657 314.12277 282.56094 314.10715L281.62344 314.10715L281.62344 313.0759ZM294.01407 314.41965Q294.01407 316.6384 293.24844 317.73215Q292.49844 318.81027 290.88907 318.81027Q289.29532 318.81027 288.5297 317.7634Q287.76407 316.7009 287.73282 314.59152L287.73282 312.90402Q287.73282 310.71652 288.48282 309.65402Q289.24844 308.5759 290.87344 308.5759Q292.48282 308.5759 293.23282 309.60715Q293.99844 310.6384 294.01407 312.77902L294.01407 314.41965ZM292.74844 312.7009Q292.74844 311.09152 292.29532 310.35715Q291.85782 309.62277 290.87344 309.62277Q289.9047 309.62277 289.45157 310.35715Q289.01407 311.0759 288.99844 312.59152L288.99844 314.62277Q288.99844 316.23215 289.4672 317.0134Q289.93594 317.77902 290.88907 317.77902Q291.82657 317.77902 292.2797 317.06027Q292.73282 316.3259 292.74844 314.7634L292.74844 312.7009ZM295.93594 318.0134Q295.93594 317.68527 296.12344 317.46652Q296.32657 317.24777 296.7172 317.24777Q297.10782 317.24777 297.31094 317.46652Q297.51407 317.68527 297.51407 318.0134Q297.51407 318.3259 297.31094 318.54465Q297.10782 318.74777 296.7172 318.74777Q296.32657 318.74777 296.12344 318.54465Q295.93594 318.3259 295.93594 318.0134ZM304.74844 308.71652L304.74844 309.77902L304.51407 309.77902Q303.0297 309.81027 302.1547 310.65402Q301.2797 311.49777 301.13907 313.04465Q301.93594 312.1384 303.29532 312.1384Q304.5922 312.1384 305.35782 313.06027Q306.13907 313.96652 306.13907 315.41965Q306.13907 316.96652 305.29532 317.8884Q304.4672 318.81027 303.06094 318.81027Q301.63907 318.81027 300.74844 317.71652Q299.85782 316.60715 299.85782 314.8884L299.85782 314.40402Q299.85782 311.65402 301.0297 310.2009Q302.20157 308.74777 304.51407 308.71652L304.74844 308.71652ZM303.07657 313.2009Q302.43594 313.2009 301.88907 313.59152Q301.3422 313.96652 301.12344 314.56027L301.12344 315.02902Q301.12344 316.2634 301.67032 317.0134Q302.23282 317.7634 303.06094 317.7634Q303.92032 317.7634 304.4047 317.1384Q304.88907 316.49777 304.88907 315.48215Q304.88907 314.4509 304.38907 313.8259Q303.9047 313.2009 303.07657 313.2009ZM307.67032 310.62277Q307.67032 309.73215 308.23282 309.15402Q308.81094 308.5759 309.70157 308.5759Q310.62344 308.5759 311.18594 309.16965Q311.74844 309.74777 311.74844 310.66965L311.74844 311.15402Q311.74844 312.06027 311.17032 312.6384Q310.60782 313.2009 309.7172 313.2009Q308.82657 313.2009 308.24844 312.6384Q307.67032 312.06027 307.67032 311.10715L307.67032 310.62277ZM308.60782 311.15402Q308.60782 311.68527 308.9047 312.02902Q309.2172 312.37277 309.7172 312.37277Q310.20157 312.37277 310.49844 312.04465Q310.79532 311.71652 310.79532 311.12277L310.79532 310.62277Q310.79532 310.09152 310.49844 309.74777Q310.2172 309.40402 309.70157 309.40402Q309.20157 309.40402 308.9047 309.74777Q308.60782 310.09152 308.60782 310.65402L308.60782 311.15402ZM312.51407 316.23215Q312.51407 315.3259 313.07657 314.7634Q313.6547 314.18527 314.54532 314.18527Q315.45157 314.18527 316.01407 314.7634Q316.5922 315.3259 316.5922 316.27902L316.5922 316.7634Q316.5922 317.65402 316.01407 318.23215Q315.45157 318.81027 314.56094 318.81027Q313.68594 318.81027 313.0922 318.24777Q312.51407 317.66965 312.51407 316.71652L312.51407 316.23215ZM313.4672 316.7634Q313.4672 317.29465 313.76407 317.65402Q314.06094 317.99777 314.56094 317.99777Q315.06094 317.99777 315.35782 317.65402Q315.6547 317.31027 315.6547 316.73215L315.6547 316.23215Q315.6547 315.68527 315.3422 315.34152Q315.04532 314.99777 314.56094 314.99777Q314.06094 314.99777 313.76407 315.34152Q313.4672 315.68527 313.4672 316.2634L313.4672 316.7634ZM310.01407 317.91965L309.29532 317.46652L314.1547 309.68527L314.87344 310.1384L310.01407 317.91965ZM320.82657 314.7009Q320.82657 316.21652 320.42032 317.62277Q320.0297 319.0134 319.20157 320.2009Q318.37344 321.3884 317.48282 321.8884L317.2172 321.10715Q318.26407 320.31027 318.9047 318.60715Q319.54532 316.90402 319.56094 314.84152L319.56094 314.62277Q319.56094 313.18527 319.24844 311.9509Q318.95157 310.71652 318.42032 309.74777Q317.88907 308.7634 317.2172 308.21652L317.48282 307.43527Q318.37344 307.93527 319.18594 309.10715Q320.01407 310.27902 320.42032 311.68527Q320.82657 313.09152 320.82657 314.7009Z" fill-rule="nonzero"/><path fill="#ffffff" d="M172.42303 149.76825L171.15741 149.76825L171.15741 141.34637L168.59491 142.26825L168.59491 141.12762L172.21991 139.76825L172.42303 139.76825L172.42303 149.76825ZM182.78241 149.76825L176.26678 149.76825L176.26678 148.862L179.70428 145.03387Q180.46991 144.15887 180.76678 143.62762Q181.06366 143.08075 181.06366 142.487Q181.06366 141.72137 180.57928 141.22137Q180.11053 140.72137 179.32928 140.72137Q178.39178 140.72137 177.86053 141.25262Q177.34491 141.78387 177.34491 142.75262L176.07928 142.75262Q176.07928 141.37762 176.95428 140.53387Q177.84491 139.6745 179.32928 139.6745Q180.71991 139.6745 181.51678 140.40887Q182.32928 141.12762 182.32928 142.34637Q182.32928 143.81512 180.45428 145.84637L177.79803 148.737L182.78241 148.737L182.78241 149.76825ZM189.61053 146.4245L190.98553 146.4245L190.98553 147.45575L189.61053 147.45575L189.61053 149.76825L188.32928 149.76825L188.32928 147.45575L183.79803 147.45575L183.79803 146.70575L188.25116 139.81512L189.61053 139.81512L189.61053 146.4245ZM185.23553 146.4245L188.32928 146.4245L188.32928 141.5495L188.18866 141.81512L185.23553 146.4245ZM195.34491 145.72137Q195.34491 144.19012 195.75116 142.76825Q196.17303 141.34637 196.98553 140.19012Q197.81366 139.01825 198.70428 138.53387L198.95428 139.37762Q197.95428 140.14325 197.31366 141.72137Q196.68866 143.28387 196.62616 145.22137L196.61053 145.81512Q196.61053 148.45575 197.57928 150.39325Q198.15741 151.5495 198.95428 152.20575L198.70428 152.987Q197.78241 152.47137 196.95428 151.28387Q195.34491 148.95575 195.34491 145.72137ZM202.11053 144.1745L203.04803 144.1745Q203.95428 144.15887 204.45428 143.70575Q204.96991 143.25262 204.96991 142.47137Q204.96991 140.72137 203.23553 140.72137Q202.40741 140.72137 201.92303 141.19012Q201.43866 141.65887 201.43866 142.4245L200.17303 142.4245Q200.17303 141.237 201.03241 140.45575Q201.90741 139.6745 203.23553 139.6745Q204.64178 139.6745 205.43866 140.4245Q206.23553 141.1745 206.23553 142.487Q206.23553 143.14325 205.81366 143.75262Q205.40741 144.362 204.67303 144.65887Q205.50116 144.9245 205.93866 145.53387Q206.39178 146.12762 206.39178 146.987Q206.39178 148.33075 205.51678 149.12762Q204.64178 149.90887 203.23553 149.90887Q201.84491 149.90887 200.95428 149.15887Q200.07928 148.39325 200.07928 147.14325L201.36053 147.14325Q201.36053 147.9245 201.86053 148.40887Q202.37616 148.87762 203.23553 148.87762Q204.15741 148.87762 204.64178 148.39325Q205.12616 147.90887 205.12616 147.01825Q205.12616 146.15887 204.59491 145.69012Q204.06366 145.22137 203.04803 145.20575L202.11053 145.20575L202.11053 144.1745ZM214.78241 149.76825L208.26678 149.76825L208.26678 148.862L211.70428 145.03387Q212.46991 144.15887 212.76678 143.62762Q213.06366 143.08075 213.06366 142.487Q213.06366 141.72137 212.57928 141.22137Q212.11053 140.72137 211.32928 140.72137Q210.39178 140.72137 209.86053 141.25262Q209.34491 141.78387 209.34491 142.75262L208.07928 142.75262Q208.07928 141.37762 208.95428 140.53387Q209.84491 139.6745 211.32928 139.6745Q212.71991 139.6745 213.51678 140.40887Q214.32928 141.12762 214.32928 142.34637Q214.32928 143.81512 212.45428 145.84637L209.79803 148.737L214.78241 148.737L214.78241 149.76825ZM216.42303 149.112Q216.42303 148.78387 216.61053 148.56512Q216.81366 148.34637 217.20428 148.34637Q217.59491 148.34637 217.79803 148.56512Q218.00116 148.78387 218.00116 149.112Q218.00116 149.4245 217.79803 149.64325Q217.59491 149.84637 217.20428 149.84637Q216.81366 149.84637 216.61053 149.64325Q216.42303 149.4245 216.42303 149.112ZM220.84491 144.78387L221.36053 139.81512L226.45428 139.81512L226.45428 140.987L222.42303 140.987L222.12616 143.69012Q222.86053 143.26825 223.78241 143.26825Q225.14178 143.26825 225.93866 144.1745Q226.75116 145.06512 226.75116 146.59637Q226.75116 148.12762 225.90741 149.01825Q225.07928 149.90887 223.59491 149.90887Q222.28241 149.90887 221.43866 149.1745Q220.61053 148.44012 220.48553 147.14325L221.68866 147.14325Q221.79803 148.00262 222.28241 148.44012Q222.78241 148.87762 223.59491 148.87762Q224.46991 148.87762 224.96991 148.28387Q225.48553 147.6745 225.48553 146.612Q225.48553 145.612 224.93866 145.01825Q224.39178 144.40887 223.48553 144.40887Q222.67303 144.40887 222.18866 144.76825L221.86053 145.03387L220.84491 144.78387ZM228.15741 141.72137Q228.15741 140.83075 228.71991 140.25262Q229.29803 139.6745 230.18866 139.6745Q231.11053 139.6745 231.67303 140.26825Q232.23553 140.84637 232.23553 141.76825L232.23553 142.25262Q232.23553 143.15887 231.65741 143.737Q231.09491 144.2995 230.20428 144.2995Q229.31366 144.2995 228.73553 143.737Q228.15741 143.15887 228.15741 142.20575L228.15741 141.72137ZM229.09491 142.25262Q229.09491 142.78387 229.39178 143.12762Q229.70428 143.47137 230.20428 143.47137Q230.68866 143.47137 230.98553 143.14325Q231.28241 142.81512 231.28241 142.22137L231.28241 141.72137Q231.28241 141.19012 230.98553 140.84637Q230.70428 140.50262 230.18866 140.50262Q229.68866 140.50262 229.39178 140.84637Q229.09491 141.19012 229.09491 141.75262L229.09491 142.25262ZM233.00116 147.33075Q233.00116 146.4245 233.56366 145.862Q234.14178 145.28387 235.03241 145.28387Q235.93866 145.28387 236.50116 145.862Q237.07928 146.4245 237.07928 147.37762L237.07928 147.862Q237.07928 148.75262 236.50116 149.33075Q235.93866 149.90887 235.04803 149.90887Q234.17303 149.90887 233.57928 149.34637Q233.00116 148.76825 233.00116 147.81512L233.00116 147.33075ZM233.95428 147.862Q233.95428 148.39325 234.25116 148.75262Q234.54803 149.09637 235.04803 149.09637Q235.54803 149.09637 235.84491 148.75262Q236.14178 148.40887 236.14178 147.83075L236.14178 147.33075Q236.14178 146.78387 235.82928 146.44012Q235.53241 146.09637 235.04803 146.09637Q234.54803 146.09637 234.25116 146.44012Q233.95428 146.78387 233.95428 147.362L233.95428 147.862ZM230.50116 149.01825L229.78241 148.56512L234.64178 140.78387L235.36053 141.237L230.50116 149.01825ZM241.31366 145.7995Q241.31366 147.31512 240.90741 148.72137Q240.51678 150.112 239.68866 151.2995Q238.86053 152.487 237.96991 152.987L237.70428 152.20575Q238.75116 151.40887 239.39178 149.70575Q240.03241 148.00262 240.04803 145.94012L240.04803 145.72137Q240.04803 144.28387 239.73553 143.0495Q239.43866 141.81512 238.90741 140.84637Q238.37616 139.862 237.70428 139.31512L237.96991 138.53387Q238.86053 139.03387 239.67303 140.20575Q240.50116 141.37762 240.90741 142.78387Q241.31366 144.19012 241.31366 145.7995Z" fill-rule="nonzero"/><path fill="#757575" d="M31.14375 122.19089L19.971874 122.19089L19.971874 120.62839L25.878124 114.06589Q27.190624 112.58151 27.690624 111.65964Q28.190624 110.72214 28.190624 109.72214Q28.190624 108.37839 27.378124 107.53464Q26.565624 106.67526 25.221874 106.67526Q23.596874 106.67526 22.70625 107.59714Q21.815624 108.51901 21.815624 110.15964L19.64375 110.15964Q19.64375 107.80026 21.159374 106.34714Q22.675 104.89401 25.221874 104.89401Q27.596874 104.89401 28.971874 106.14401Q30.3625 107.39401 30.3625 109.45651Q30.3625 111.98776 27.159374 115.45651L22.58125 120.42526L31.14375 120.42526L31.14375 122.19089ZM43.675 114.90964Q43.675 118.72214 42.3625 120.58151Q41.065624 122.42526 38.3 122.42526Q35.565624 122.42526 34.253124 120.61276Q32.940624 118.80026 32.89375 115.20651L32.89375 112.31589Q32.89375 108.55026 34.190624 106.72214Q35.503124 104.89401 38.284374 104.89401Q41.034374 104.89401 42.33125 106.65964Q43.628124 108.42526 43.675 112.09714L43.675 114.90964ZM41.503124 111.94089Q41.503124 109.19089 40.721874 107.94089Q39.95625 106.67526 38.284374 106.67526Q36.6125 106.67526 35.846874 107.92526Q35.096874 109.17526 35.065624 111.78464L35.065624 115.25339Q35.065624 118.01901 35.8625 119.34714Q36.675 120.65964 38.3 120.65964Q39.909374 120.65964 40.690624 119.42526Q41.471874 118.17526 41.503124 115.50339L41.503124 111.94089ZM53.096874 122.19089L50.909374 122.19089L50.909374 107.73776L46.55 109.34714L46.55 107.37839L52.753124 105.05026L53.096874 105.05026L53.096874 122.19089ZM67.28438 114.69089Q66.59688 115.50339 65.64375 116.00339Q64.70625 116.48776 63.58125 116.48776Q62.1125 116.48776 61.01875 115.76901Q59.925 115.03464 59.315624 113.72214Q58.721874 112.39401 58.721874 110.80026Q58.721874 109.08151 59.3625 107.72214Q60.01875 106.34714 61.20625 105.62839Q62.409374 104.89401 64.00313 104.89401Q66.53438 104.89401 67.9875 106.78464Q69.45625 108.67526 69.45625 111.94089L69.45625 112.58151Q69.45625 117.56589 67.4875 119.86276Q65.51875 122.14401 61.55 122.20651L61.128124 122.20651L61.128124 120.37839L61.58125 120.37839Q64.26875 120.33151 65.70625 118.97214Q67.14375 117.61276 67.28438 114.69089ZM63.940624 114.69089Q65.03438 114.69089 65.94063 114.01901Q66.8625 113.34714 67.28438 112.36276L67.28438 111.50339Q67.28438 109.36276 66.3625 108.03464Q65.44063 106.69089 64.01875 106.69089Q62.596874 106.69089 61.721874 107.80026Q60.8625 108.89401 60.8625 110.67526Q60.8625 112.42526 61.690624 113.56589Q62.534374 114.69089 63.940624 114.69089Z" fill-rule="nonzero"/><path fill="#9e9e9e" d="M23.128124 144.59714L24.753124 144.59714Q26.284374 144.58151 27.159374 143.80026Q28.05 143.00339 28.05 141.67526Q28.05 138.67526 25.05 138.67526Q23.64375 138.67526 22.8 139.48776Q21.971874 140.28464 21.971874 141.59714L19.8 141.59714Q19.8 139.58151 21.284374 138.23776Q22.76875 136.89401 25.05 136.89401Q27.471874 136.89401 28.83125 138.17526Q30.20625 139.44089 30.20625 141.72214Q30.20625 142.83151 29.4875 143.87839Q28.76875 144.92526 27.534374 145.44089Q28.940624 145.87839 29.70625 146.90964Q30.471874 147.94089 30.471874 149.42526Q30.471874 151.72214 28.971874 153.08151Q27.471874 154.42526 25.065624 154.42526Q22.659374 154.42526 21.159374 153.12839Q19.659374 151.81589 19.659374 149.69089L21.83125 149.69089Q21.83125 151.03464 22.70625 151.84714Q23.596874 152.65964 25.065624 152.65964Q26.64375 152.65964 27.471874 151.84714Q28.3 151.01901 28.3 149.47214Q28.3 147.98776 27.378124 147.19089Q26.471874 146.39401 24.753124 146.37839L23.128124 146.37839L23.128124 144.59714ZM44.14375 154.19089L32.971874 154.19089L32.971874 152.62839L38.878124 146.06589Q40.190624 144.58151 40.690624 143.65964Q41.190624 142.72214 41.190624 141.72214Q41.190624 140.37839 40.378124 139.53464Q39.565624 138.67526 38.221874 138.67526Q36.596874 138.67526 35.70625 139.59714Q34.815624 140.51901 34.815624 142.15964L32.64375 142.15964Q32.64375 139.80026 34.159374 138.34714Q35.675 136.89401 38.221874 136.89401Q40.596874 136.89401 41.971874 138.14401Q43.3625 139.39401 43.3625 141.45651Q43.3625 143.98776 40.159374 147.45651L35.58125 152.42526L44.14375 152.42526L44.14375 154.19089ZM46.2375 153.05026Q46.2375 152.48776 46.565624 152.11276Q46.909374 151.73776 47.565624 151.73776Q48.2375 151.73776 48.58125 152.11276Q48.940624 152.48776 48.940624 153.05026Q48.940624 153.59714 48.58125 153.95651Q48.2375 154.31589 47.565624 154.31589Q46.909374 154.31589 46.565624 153.95651Q46.2375 153.59714 46.2375 153.05026ZM52.971874 145.62839L53.83125 137.12839L62.58125 137.12839L62.58125 139.12839L55.675 139.12839L55.159374 143.78464Q56.409374 143.05026 58.003124 143.05026Q60.33125 143.05026 61.70625 144.59714Q63.08125 146.12839 63.08125 148.75339Q63.08125 151.39401 61.659374 152.90964Q60.2375 154.42526 57.675 154.42526Q55.409374 154.42526 53.971874 153.17526Q52.55 151.90964 52.3625 149.70651L54.409374 149.70651Q54.6125 151.15964 55.45625 151.90964Q56.3 152.65964 57.675 152.65964Q59.190624 152.65964 60.05 151.62839Q60.909374 150.59714 60.909374 148.76901Q60.909374 147.06589 59.971874 146.03464Q59.05 144.98776 57.503124 144.98776Q56.08125 144.98776 55.26875 145.61276L54.70625 146.08151L52.971874 145.62839ZM64.78438 140.40964Q64.78438 138.87839 65.75313 137.87839Q66.7375 136.87839 68.26875 136.87839Q69.83125 136.87839 70.8 137.87839Q71.76875 138.87839 71.76875 140.47214L71.76875 141.31589Q71.76875 142.86276 70.78438 143.84714Q69.81563 144.81589 68.3 144.81589Q66.76875 144.81589 65.76875 143.84714Q64.78438 142.86276 64.78438 141.22214L64.78438 140.40964ZM66.39375 141.31589Q66.39375 142.22214 66.90938 142.81589Q67.425 143.40964 68.3 143.40964Q69.12813 143.40964 69.62813 142.83151Q70.14375 142.25339 70.14375 141.26901L70.14375 140.40964Q70.14375 139.48776 69.64375 138.89401Q69.14375 138.30026 68.26875 138.30026Q67.40938 138.30026 66.89375 138.89401Q66.39375 139.48776 66.39375 140.45651L66.39375 141.31589ZM73.09688 150.00339Q73.09688 148.47214 74.06563 147.48776Q75.05 146.48776 76.58125 146.48776Q78.1125 146.48776 79.09688 147.47214Q80.08125 148.45651 80.08125 150.08151L80.08125 150.92526Q80.08125 152.45651 79.09688 153.45651Q78.12813 154.44089 76.59688 154.44089Q75.08125 154.44089 74.08125 153.45651Q73.09688 152.47214 73.09688 150.84714L73.09688 150.00339ZM74.70625 150.92526Q74.70625 151.84714 75.22188 152.44089Q75.7375 153.03464 76.6125 153.03464Q77.45625 153.03464 77.95625 152.45651Q78.45625 151.86276 78.45625 150.87839L78.45625 150.00339Q78.45625 149.08151 77.94063 148.50339Q77.44063 147.90964 76.58125 147.90964Q75.75313 147.90964 75.22188 148.48776Q74.70625 149.06589 74.70625 150.05026L74.70625 150.92526ZM68.78438 152.89401L67.56563 152.12839L75.89375 138.78464L77.12813 139.56589L68.78438 152.89401Z" fill-rule="nonzero"/><path stroke="#757575" stroke-width="1.0" stroke-linecap="butt" d="M18.55 129.69089L145.23334 129.69089L179.58897 129.69089" fill-rule="nonzero"/><path fill="#9e9e9e" d="M181.58897 129.69089C181.58897 128.58632 180.69354 127.69089 179.58897 127.69089C178.4844 127.69089 177.58897 128.58632 177.58897 129.69089C177.58897 130.79546 178.4844 131.69089 179.58897 131.69089C180.69354 131.69089 181.58897 130.79546 181.58897 129.69089" fill-rule="nonzero"/><path fill="#757575" d="M31.14375 314.45L19.971874 314.45L19.971874 312.8875L25.878124 306.325Q27.190624 304.84064 27.690624 303.91876Q28.190624 302.98126 28.190624 301.98126Q28.190624 300.6375 27.378124 299.79376Q26.565624 298.9344 25.221874 298.9344Q23.596874 298.9344 22.70625 299.85626Q21.815624 300.77814 21.815624 302.41876L19.64375 302.41876Q19.64375 300.0594 21.159374 298.60626Q22.675 297.15314 25.221874 297.15314Q27.596874 297.15314 28.971874 298.40314Q30.3625 299.65314 30.3625 301.71564Q30.3625 304.2469 27.159374 307.71564L22.58125 312.6844L31.14375 312.6844L31.14375 314.45ZM43.675 307.16876Q43.675 310.98126 42.3625 312.84064Q41.065624 314.6844 38.3 314.6844Q35.565624 314.6844 34.253124 312.8719Q32.940624 311.0594 32.89375 307.46564L32.89375 304.575Q32.89375 300.8094 34.190624 298.98126Q35.503124 297.15314 38.284374 297.15314Q41.034374 297.15314 42.33125 298.91876Q43.628124 300.6844 43.675 304.35626L43.675 307.16876ZM41.503124 304.2Q41.503124 301.45 40.721874 300.2Q39.95625 298.9344 38.284374 298.9344Q36.6125 298.9344 35.846874 300.1844Q35.096874 301.4344 35.065624 304.04376L35.065624 307.5125Q35.065624 310.27814 35.8625 311.60626Q36.675 312.91876 38.3 312.91876Q39.909374 312.91876 40.690624 311.6844Q41.471874 310.4344 41.503124 307.7625L41.503124 304.2ZM53.096874 314.45L50.909374 314.45L50.909374 299.9969L46.55 301.60626L46.55 299.6375L52.753124 297.3094L53.096874 297.3094L53.096874 314.45ZM69.31563 301.84064Q69.31563 303.1219 68.64375 304.1219Q67.97188 305.10626 66.81563 305.66876Q68.15938 306.2469 68.94063 307.35626Q69.72188 308.45 69.72188 309.84064Q69.72188 312.0594 68.22188 313.3719Q66.72188 314.6844 64.28438 314.6844Q61.83125 314.6844 60.346874 313.3719Q58.8625 312.04376 58.8625 309.84064Q58.8625 308.46564 59.6125 307.35626Q60.378124 306.23126 61.70625 305.65314Q60.58125 305.09064 59.925 304.10626Q59.26875 303.10626 59.26875 301.84064Q59.26875 299.6844 60.64375 298.41876Q62.034374 297.15314 64.28438 297.15314Q66.53438 297.15314 67.925 298.41876Q69.31563 299.6844 69.31563 301.84064ZM67.55 309.79376Q67.55 308.3719 66.64375 307.46564Q65.7375 306.5594 64.26875 306.5594Q62.8 306.5594 61.909374 307.45Q61.034374 308.34064 61.034374 309.79376Q61.034374 311.2469 61.89375 312.09064Q62.753124 312.91876 64.28438 312.91876Q65.81563 312.91876 66.675 312.075Q67.55 311.23126 67.55 309.79376ZM64.28438 298.9344Q63.01875 298.9344 62.221874 299.73126Q61.425 300.5125 61.425 301.8719Q61.425 303.16876 62.20625 303.98126Q62.9875 304.77814 64.28438 304.77814Q65.59688 304.77814 66.3625 303.98126Q67.14375 303.16876 67.14375 301.8719Q67.14375 300.575 66.33125 299.7625Q65.53438 298.9344 64.28438 298.9344Z" fill-rule="nonzero"/><path fill="#9e9e9e" d="M23.128124 336.85626L24.753124 336.85626Q26.284374 336.84064 27.159374 336.0594Q28.05 335.2625 28.05 333.9344Q28.05 330.9344 25.05 330.9344Q23.64375 330.9344 22.8 331.7469Q21.971874 332.54376 21.971874 333.85626L19.8 333.85626Q19.8 331.84064 21.284374 330.4969Q22.76875 329.15314 25.05 329.15314Q27.471874 329.15314 28.83125 330.4344Q30.20625 331.7 30.20625 333.98126Q30.20625 335.09064 29.4875 336.1375Q28.76875 337.1844 27.534374 337.7Q28.940624 338.1375 29.70625 339.16876Q30.471874 340.2 30.471874 341.6844Q30.471874 343.98126 28.971874 345.34064Q27.471874 346.6844 25.065624 346.6844Q22.659374 346.6844 21.159374 345.3875Q19.659374 344.075 19.659374 341.95L21.83125 341.95Q21.83125 343.29376 22.70625 344.10626Q23.596874 344.91876 25.065624 344.91876Q26.64375 344.91876 27.471874 344.10626Q28.3 343.27814 28.3 341.73126Q28.3 340.2469 27.378124 339.45Q26.471874 338.65314 24.753124 338.6375L23.128124 338.6375L23.128124 336.85626ZM43.675 339.16876Q43.675 342.98126 42.3625 344.84064Q41.065624 346.6844 38.3 346.6844Q35.565624 346.6844 34.253124 344.8719Q32.940624 343.0594 32.89375 339.46564L32.89375 336.575Q32.89375 332.8094 34.190624 330.98126Q35.503124 329.15314 38.284374 329.15314Q41.034374 329.15314 42.33125 330.91876Q43.628124 332.6844 43.675 336.35626L43.675 339.16876ZM41.503124 336.2Q41.503124 333.45 40.721874 332.2Q39.95625 330.9344 38.284374 330.9344Q36.6125 330.9344 35.846874 332.1844Q35.096874 333.4344 35.065624 336.04376L35.065624 339.5125Q35.065624 342.27814 35.8625 343.60626Q36.675 344.91876 38.3 344.91876Q39.909374 344.91876 40.690624 343.6844Q41.471874 342.4344 41.503124 339.7625L41.503124 336.2ZM46.2375 345.3094Q46.2375 344.7469 46.565624 344.3719Q46.909374 343.9969 47.565624 343.9969Q48.2375 343.9969 48.58125 344.3719Q48.940624 344.7469 48.940624 345.3094Q48.940624 345.85626 48.58125 346.21564Q48.2375 346.575 47.565624 346.575Q46.909374 346.575 46.565624 346.21564Q46.2375 345.85626 46.2375 345.3094ZM60.471874 329.3719L60.471874 331.21564L60.08125 331.21564Q57.55 331.2625 56.05 332.71564Q54.55 334.16876 54.315624 336.8094Q55.659374 335.2625 57.9875 335.2625Q60.221874 335.2625 61.55 336.84064Q62.878124 338.40314 62.878124 340.8875Q62.878124 343.5125 61.440624 345.10626Q60.003124 346.6844 57.596874 346.6844Q55.14375 346.6844 53.6125 344.8094Q52.096874 342.91876 52.096874 339.95L52.096874 339.1219Q52.096874 334.41876 54.096874 331.9344Q56.1125 329.4344 60.096874 329.3719L60.471874 329.3719ZM57.628124 337.0594Q56.51875 337.0594 55.58125 337.73126Q54.64375 338.40314 54.284374 339.40314L54.284374 340.2Q54.284374 342.3094 55.221874 343.60626Q56.175 344.8875 57.596874 344.8875Q59.065624 344.8875 59.89375 343.8094Q60.7375 342.73126 60.7375 340.98126Q60.7375 339.23126 59.878124 338.15314Q59.034374 337.0594 57.628124 337.0594ZM64.78438 332.66876Q64.78438 331.1375 65.75313 330.1375Q66.7375 329.1375 68.26875 329.1375Q69.83125 329.1375 70.8 330.1375Q71.76875 331.1375 71.76875 332.73126L71.76875 333.575Q71.76875 335.1219 70.78438 336.10626Q69.81563 337.075 68.3 337.075Q66.76875 337.075 65.76875 336.10626Q64.78438 335.1219 64.78438 333.48126L64.78438 332.66876ZM66.39375 333.575Q66.39375 334.48126 66.90938 335.075Q67.425 335.66876 68.3 335.66876Q69.12813 335.66876 69.62813 335.09064Q70.14375 334.5125 70.14375 333.52814L70.14375 332.66876Q70.14375 331.7469 69.64375 331.15314Q69.14375 330.5594 68.26875 330.5594Q67.40938 330.5594 66.89375 331.15314Q66.39375 331.7469 66.39375 332.71564L66.39375 333.575ZM73.09688 342.2625Q73.09688 340.73126 74.06563 339.7469Q75.05 338.7469 76.58125 338.7469Q78.1125 338.7469 79.09688 339.73126Q80.08125 340.71564 80.08125 342.34064L80.08125 343.1844Q80.08125 344.71564 79.09688 345.71564Q78.12813 346.7 76.59688 346.7Q75.08125 346.7 74.08125 345.71564Q73.09688 344.73126 73.09688 343.10626L73.09688 342.2625ZM74.70625 343.1844Q74.70625 344.10626 75.22188 344.7Q75.7375 345.29376 76.6125 345.29376Q77.45625 345.29376 77.95625 344.71564Q78.45625 344.1219 78.45625 343.1375L78.45625 342.2625Q78.45625 341.34064 77.94063 340.7625Q77.44063 340.16876 76.58125 340.16876Q75.75313 340.16876 75.22188 340.7469Q74.70625 341.325 74.70625 342.3094L74.70625 343.1844ZM68.78438 345.15314L67.56563 344.3875L75.89375 331.04376L77.12813 331.825L68.78438 345.15314Z" fill-rule="nonzero"/><path stroke="#757575" stroke-width="1.0" stroke-linecap="butt" d="M18.55 321.95L145.23334 321.95L280.30533 343.63266" fill-rule="nonzero"/><path fill="#9e9e9e" d="M282.30533 343.63266C282.30533 342.5281 281.40988 341.63266 280.30533 341.63266C279.20074 341.63266 278.30533 342.5281 278.30533 343.63266C278.30533 344.73724 279.20074 345.63266 280.30533 345.63266C281.40988 345.63266 282.30533 344.73724 282.30533 343.63266" fill-rule="nonzero"/><path fill="#757575" d="M542.04376 77.916664L530.8719 77.916664L530.8719 76.354164L536.77814 69.791664Q538.09064 68.30729 538.59064 67.385414Q539.09064 66.447914 539.09064 65.447914Q539.09064 64.104164 538.27814 63.260414Q537.46564 62.40104 536.1219 62.40104Q534.4969 62.40104 533.60626 63.322914Q532.71564 64.24479 532.71564 65.885414L530.54376 65.885414Q530.54376 63.52604 532.0594 62.072914Q533.575 60.61979 536.1219 60.61979Q538.4969 60.61979 539.8719 61.86979Q541.2625 63.11979 541.2625 65.18229Q541.2625 67.71354 538.0594 71.18229L533.48126 76.15104L542.04376 76.15104L542.04376 77.916664ZM554.575 70.635414Q554.575 74.447914 553.2625 76.30729Q551.96564 78.15104 549.2 78.15104Q546.46564 78.15104 545.15314 76.33854Q543.84064 74.52604 543.79376 70.93229L543.79376 68.041664Q543.79376 64.27604 545.09064 62.447914Q546.40314 60.61979 549.1844 60.61979Q551.9344 60.61979 553.23126 62.385414Q554.52814 64.15104 554.575 67.822914L554.575 70.635414ZM552.40314 67.666664Q552.40314 64.916664 551.6219 63.666664Q550.85626 62.40104 549.1844 62.40104Q547.5125 62.40104 546.7469 63.65104Q545.9969 64.90104 545.96564 67.510414L545.96564 70.979164Q545.96564 73.74479 546.7625 75.072914Q547.575 76.385414 549.2 76.385414Q550.8094 76.385414 551.59064 75.15104Q552.3719 73.90104 552.40314 71.229164L552.40314 67.666664ZM563.9969 77.916664L561.8094 77.916664L561.8094 63.46354L557.45 65.072914L557.45 63.104164L563.65314 60.77604L563.9969 60.77604L563.9969 77.916664ZM579.02814 72.18229L581.3875 72.18229L581.3875 73.947914L579.02814 73.947914L579.02814 77.916664L576.84064 77.916664L576.84064 73.947914L569.075 73.947914L569.075 72.68229L576.71564 60.854164L579.02814 60.854164L579.02814 72.18229ZM571.52814 72.18229L576.84064 72.18229L576.84064 63.822914L576.59064 64.291664L571.52814 72.18229Z" fill-rule="nonzero"/><path fill="#9e9e9e" d="M544.04376 109.916664L532.8719 109.916664L532.8719 108.354164L538.77814 101.791664Q540.09064 100.30729 540.59064 99.385414Q541.09064 98.447914 541.09064 97.447914Q541.09064 96.104164 540.27814 95.260414Q539.46564 94.40104 538.1219 94.40104Q536.4969 94.40104 535.60626 95.322914Q534.71564 96.24479 534.71564 97.885414L532.54376 97.885414Q532.54376 95.52604 534.0594 94.072914Q535.575 92.61979 538.1219 92.61979Q540.4969 92.61979 541.8719 93.86979Q543.2625 95.11979 543.2625 97.18229Q543.2625 99.71354 540.0594 103.18229L535.48126 108.15104L544.04376 108.15104L544.04376 109.916664ZM546.1375 108.77604Q546.1375 108.21354 546.46564 107.83854Q546.8094 107.46354 547.46564 107.46354Q548.1375 107.46354 548.48126 107.83854Q548.84064 108.21354 548.84064 108.77604Q548.84064 109.322914 548.48126 109.68229Q548.1375 110.041664 547.46564 110.041664Q546.8094 110.041664 546.46564 109.68229Q546.1375 109.322914 546.1375 108.77604ZM561.02814 104.18229L563.3875 104.18229L563.3875 105.947914L561.02814 105.947914L561.02814 109.916664L558.84064 109.916664L558.84064 105.947914L551.075 105.947914L551.075 104.68229L558.71564 92.854164L561.02814 92.854164L561.02814 104.18229ZM553.52814 104.18229L558.84064 104.18229L558.84064 95.822914L558.59064 96.291664L553.52814 104.18229ZM564.6844 96.135414Q564.6844 94.604164 565.65314 93.604164Q566.6375 92.604164 568.16876 92.604164Q569.73126 92.604164 570.7 93.604164Q571.66876 94.604164 571.66876 96.197914L571.66876 97.041664Q571.66876 98.58854 570.6844 99.572914Q569.71564 100.541664 568.2 100.541664Q566.66876 100.541664 565.66876 99.572914Q564.6844 98.58854 564.6844 96.947914L564.6844 96.135414ZM566.29376 97.041664Q566.29376 97.947914 566.8094 98.541664Q567.325 99.135414 568.2 99.135414Q569.02814 99.135414 569.52814 98.55729Q570.04376 97.979164 570.04376 96.99479L570.04376 96.135414Q570.04376 95.21354 569.54376 94.61979Q569.04376 94.02604 568.16876 94.02604Q567.3094 94.02604 566.79376 94.61979Q566.29376 95.21354 566.29376 96.18229L566.29376 97.041664ZM572.9969 105.729164Q572.9969 104.197914 573.96564 103.21354Q574.95 102.21354 576.48126 102.21354Q578.0125 102.21354 578.9969 103.197914Q579.98126 104.18229 579.98126 105.80729L579.98126 106.65104Q579.98126 108.18229 578.9969 109.18229Q578.02814 110.166664 576.4969 110.166664Q574.98126 110.166664 573.98126 109.18229Q572.9969 108.197914 572.9969 106.572914L572.9969 105.729164ZM574.60626 106.65104Q574.60626 107.572914 575.1219 108.166664Q575.6375 108.760414 576.5125 108.760414Q577.35626 108.760414 577.85626 108.18229Q578.35626 107.58854 578.35626 106.604164L578.35626 105.729164Q578.35626 104.80729 577.84064 104.229164Q577.34064 103.635414 576.48126 103.635414Q575.65314 103.635414 575.1219 104.21354Q574.60626 104.791664 574.60626 105.77604L574.60626 106.65104ZM568.6844 108.61979L567.46564 107.854164L575.79376 94.510414L577.02814 95.291664L568.6844 108.61979Z" fill-rule="nonzero"/><path stroke="#757575" stroke-width="1.0" stroke-linecap="butt" d="M581.45 85.416664L454.76666 85.416664L333.38788 66.355446" fill-rule="nonzero"/><path fill="#9e9e9e" d="M335.38788 66.355446C335.38788 65.25088 334.49243 64.355446 333.38788 64.355446C332.2833 64.355446 331.38788 65.25088 331.38788 66.355446C331.38788 67.460014 332.2833 68.355446 333.38788 68.355446C334.49243 68.355446 335.38788 67.460014 335.38788 66.355446" fill-rule="nonzero"/><path fill="#757575" d="M542.04376 138.91667L530.8719 138.91667L530.8719 137.35417L536.77814 130.79167Q538.09064 129.3073 538.59064 128.38542Q539.09064 127.44792 539.09064 126.44792Q539.09064 125.10417 538.27814 124.26042Q537.46564 123.40105 536.1219 123.40105Q534.4969 123.40105 533.60626 124.32292Q532.71564 125.2448 532.71564 126.88542L530.54376 126.88542Q530.54376 124.52605 532.0594 123.07292Q533.575 121.6198 536.1219 121.6198Q538.4969 121.6198 539.8719 122.8698Q541.2625 124.1198 541.2625 126.1823Q541.2625 128.71355 538.0594 132.1823L533.48126 137.15105L542.04376 137.15105L542.04376 138.91667ZM554.575 131.63542Q554.575 135.44792 553.2625 137.3073Q551.96564 139.15105 549.2 139.15105Q546.46564 139.15105 545.15314 137.33855Q543.84064 135.52605 543.79376 131.9323L543.79376 129.04167Q543.79376 125.27605 545.09064 123.44792Q546.40314 121.6198 549.1844 121.6198Q551.9344 121.6198 553.23126 123.38542Q554.52814 125.15105 554.575 128.82292L554.575 131.63542ZM552.40314 128.66667Q552.40314 125.91667 551.6219 124.66667Q550.85626 123.40105 549.1844 123.40105Q547.5125 123.40105 546.7469 124.65105Q545.9969 125.90105 545.96564 128.51042L545.96564 131.97917Q545.96564 134.7448 546.7625 136.07292Q547.575 137.38542 549.2 137.38542Q550.8094 137.38542 551.59064 136.15105Q552.3719 134.90105 552.40314 132.22917L552.40314 128.66667ZM563.9969 138.91667L561.8094 138.91667L561.8094 124.46355L557.45 126.07292L557.45 124.10417L563.65314 121.77605L563.9969 121.77605L563.9969 138.91667ZM570.8719 130.35417L571.73126 121.85417L580.48126 121.85417L580.48126 123.85417L573.575 123.85417L573.0594 128.51042Q574.3094 127.77605 575.90314 127.77605Q578.23126 127.77605 579.60626 129.32292Q580.98126 130.85417 580.98126 133.47917Q580.98126 136.1198 579.5594 137.63542Q578.1375 139.15105 575.575 139.15105Q573.3094 139.15105 571.8719 137.90105Q570.45 136.63542 570.2625 134.4323L572.3094 134.4323Q572.5125 135.88542 573.35626 136.63542Q574.2 137.38542 575.575 137.38542Q577.09064 137.38542 577.95 136.35417Q578.8094 135.32292 578.8094 133.4948Q578.8094 131.79167 577.8719 130.76042Q576.95 129.71355 575.40314 129.71355Q573.98126 129.71355 573.16876 130.33855L572.60626 130.8073L570.8719 130.35417Z" fill-rule="nonzero"/><path fill="#9e9e9e" d="M544.04376 170.91667L532.8719 170.91667L532.8719 169.35417L538.77814 162.79167Q540.09064 161.3073 540.59064 160.38542Q541.09064 159.44792 541.09064 158.44792Q541.09064 157.10417 540.27814 156.26042Q539.46564 155.40105 538.1219 155.40105Q536.4969 155.40105 535.60626 156.32292Q534.71564 157.2448 534.71564 158.88542L532.54376 158.88542Q532.54376 156.52605 534.0594 155.07292Q535.575 153.6198 538.1219 153.6198Q540.4969 153.6198 541.8719 154.8698Q543.2625 156.1198 543.2625 158.1823Q543.2625 160.71355 540.0594 164.1823L535.48126 169.15105L544.04376 169.15105L544.04376 170.91667ZM546.1375 169.77605Q546.1375 169.21355 546.46564 168.83855Q546.8094 168.46355 547.46564 168.46355Q548.1375 168.46355 548.48126 168.83855Q548.84064 169.21355 548.84064 169.77605Q548.84064 170.32292 548.48126 170.6823Q548.1375 171.04167 547.46564 171.04167Q546.8094 171.04167 546.46564 170.6823Q546.1375 170.32292 546.1375 169.77605ZM560.3719 153.83855L560.3719 155.6823L559.98126 155.6823Q557.45 155.72917 555.95 157.1823Q554.45 158.63542 554.21564 161.27605Q555.5594 159.72917 557.8875 159.72917Q560.1219 159.72917 561.45 161.3073Q562.77814 162.8698 562.77814 165.35417Q562.77814 167.97917 561.34064 169.57292Q559.90314 171.15105 557.4969 171.15105Q555.04376 171.15105 553.5125 169.27605Q551.9969 167.38542 551.9969 164.41667L551.9969 163.58855Q551.9969 158.88542 553.9969 156.40105Q556.0125 153.90105 559.9969 153.83855L560.3719 153.83855ZM557.52814 161.52605Q556.41876 161.52605 555.48126 162.19792Q554.54376 162.8698 554.1844 163.8698L554.1844 164.66667Q554.1844 166.77605 555.1219 168.07292Q556.075 169.35417 557.4969 169.35417Q558.96564 169.35417 559.79376 168.27605Q560.6375 167.19792 560.6375 165.44792Q560.6375 163.69792 559.77814 162.6198Q558.9344 161.52605 557.52814 161.52605ZM564.6844 157.13542Q564.6844 155.60417 565.65314 154.60417Q566.6375 153.60417 568.16876 153.60417Q569.73126 153.60417 570.7 154.60417Q571.66876 155.60417 571.66876 157.19792L571.66876 158.04167Q571.66876 159.58855 570.6844 160.57292Q569.71564 161.54167 568.2 161.54167Q566.66876 161.54167 565.66876 160.57292Q564.6844 159.58855 564.6844 157.94792L564.6844 157.13542ZM566.29376 158.04167Q566.29376 158.94792 566.8094 159.54167Q567.325 160.13542 568.2 160.13542Q569.02814 160.13542 569.52814 159.5573Q570.04376 158.97917 570.04376 157.9948L570.04376 157.13542Q570.04376 156.21355 569.54376 155.6198Q569.04376 155.02605 568.16876 155.02605Q567.3094 155.02605 566.79376 155.6198Q566.29376 156.21355 566.29376 157.1823L566.29376 158.04167ZM572.9969 166.72917Q572.9969 165.19792 573.96564 164.21355Q574.95 163.21355 576.48126 163.21355Q578.0125 163.21355 578.9969 164.19792Q579.98126 165.1823 579.98126 166.8073L579.98126 167.65105Q579.98126 169.1823 578.9969 170.1823Q578.02814 171.16667 576.4969 171.16667Q574.98126 171.16667 573.98126 170.1823Q572.9969 169.19792 572.9969 167.57292L572.9969 166.72917ZM574.60626 167.65105Q574.60626 168.57292 575.1219 169.16667Q575.6375 169.76042 576.5125 169.76042Q577.35626 169.76042 577.85626 169.1823Q578.35626 168.58855 578.35626 167.60417L578.35626 166.72917Q578.35626 165.8073 577.84064 165.22917Q577.34064 164.63542 576.48126 164.63542Q575.65314 164.63542 575.1219 165.21355Q574.60626 165.79167 574.60626 166.77605L574.60626 167.65105ZM568.6844 169.6198L567.46564 168.85417L575.79376 155.51042L577.02814 156.29167L568.6844 169.6198Z" fill-rule="nonzero"/><path stroke="#757575" stroke-width="1.0" stroke-linecap="butt" d="M581.45 146.41667L454.76666 146.41667L354.35236 73.22445" fill-rule="nonzero"/><path fill="#9e9e9e" d="M356.35236 73.22445C356.35236 72.11988 355.4569 71.22445 354.35236 71.22445C353.24777 71.22445 352.35236 72.11988 352.35236 73.22445C352.35236 74.329025 353.24777 75.22445 354.35236 75.22445C355.4569 75.22445 356.35236 74.329025 356.35236 73.22445" fill-rule="nonzero"/><path fill="#757575" d="M542.04376 199.91667L530.8719 199.91667L530.8719 198.35417L536.77814 191.79167Q538.09064 190.3073 538.59064 189.38542Q539.09064 188.44792 539.09064 187.44792Q539.09064 186.10417 538.27814 185.26042Q537.46564 184.40105 536.1219 184.40105Q534.4969 184.40105 533.60626 185.32292Q532.71564 186.2448 532.71564 187.88542L530.54376 187.88542Q530.54376 185.52605 532.0594 184.07292Q533.575 182.6198 536.1219 182.6198Q538.4969 182.6198 539.8719 183.8698Q541.2625 185.1198 541.2625 187.1823Q541.2625 189.71355 538.0594 193.1823L533.48126 198.15105L542.04376 198.15105L542.04376 199.91667ZM554.575 192.63542Q554.575 196.44792 553.2625 198.3073Q551.96564 200.15105 549.2 200.15105Q546.46564 200.15105 545.15314 198.33855Q543.84064 196.52605 543.79376 192.9323L543.79376 190.04167Q543.79376 186.27605 545.09064 184.44792Q546.40314 182.6198 549.1844 182.6198Q551.9344 182.6198 553.23126 184.38542Q554.52814 186.15105 554.575 189.82292L554.575 192.63542ZM552.40314 189.66667Q552.40314 186.91667 551.6219 185.66667Q550.85626 184.40105 549.1844 184.40105Q547.5125 184.40105 546.7469 185.65105Q545.9969 186.90105 545.96564 189.51042L545.96564 192.97917Q545.96564 195.7448 546.7625 197.07292Q547.575 198.38542 549.2 198.38542Q550.8094 198.38542 551.59064 197.15105Q552.3719 195.90105 552.40314 193.22917L552.40314 189.66667ZM563.9969 199.91667L561.8094 199.91667L561.8094 185.46355L557.45 187.07292L557.45 185.10417L563.65314 182.77605L563.9969 182.77605L563.9969 199.91667ZM578.3719 182.83855L578.3719 184.6823L577.98126 184.6823Q575.45 184.72917 573.95 186.1823Q572.45 187.63542 572.21564 190.27605Q573.5594 188.72917 575.8875 188.72917Q578.1219 188.72917 579.45 190.3073Q580.77814 191.8698 580.77814 194.35417Q580.77814 196.97917 579.34064 198.57292Q577.90314 200.15105 575.4969 200.15105Q573.04376 200.15105 571.5125 198.27605Q569.9969 196.38542 569.9969 193.41667L569.9969 192.58855Q569.9969 187.88542 571.9969 185.40105Q574.0125 182.90105 577.9969 182.83855L578.3719 182.83855ZM575.52814 190.52605Q574.41876 190.52605 573.48126 191.19792Q572.54376 191.8698 572.1844 192.8698L572.1844 193.66667Q572.1844 195.77605 573.1219 197.07292Q574.075 198.35417 575.4969 198.35417Q576.96564 198.35417 577.79376 197.27605Q578.6375 196.19792 578.6375 194.44792Q578.6375 192.69792 577.77814 191.6198Q576.9344 190.52605 575.52814 190.52605Z" fill-rule="nonzero"/><path fill="#9e9e9e" d="M531.04376 231.91667L519.8719 231.91667L519.8719 230.35417L525.77814 223.79167Q527.09064 222.3073 527.59064 221.38542Q528.09064 220.44792 528.09064 219.44792Q528.09064 218.10417 527.27814 217.26042Q526.46564 216.40105 525.1219 216.40105Q523.4969 216.40105 522.60626 217.32292Q521.71564 218.2448 521.71564 219.88542L519.54376 219.88542Q519.54376 217.52605 521.0594 216.07292Q522.575 214.6198 525.1219 214.6198Q527.4969 214.6198 528.8719 215.8698Q530.2625 217.1198 530.2625 219.1823Q530.2625 221.71355 527.0594 225.1823L522.48126 230.15105L531.04376 230.15105L531.04376 231.91667ZM543.575 224.63542Q543.575 228.44792 542.2625 230.3073Q540.96564 232.15105 538.2 232.15105Q535.46564 232.15105 534.15314 230.33855Q532.84064 228.52605 532.79376 224.9323L532.79376 222.04167Q532.79376 218.27605 534.09064 216.44792Q535.40314 214.6198 538.1844 214.6198Q540.9344 214.6198 542.23126 216.38542Q543.52814 218.15105 543.575 221.82292L543.575 224.63542ZM541.40314 221.66667Q541.40314 218.91667 540.6219 217.66667Q539.85626 216.40105 538.1844 216.40105Q536.5125 216.40105 535.7469 217.65105Q534.9969 218.90105 534.96564 221.51042L534.96564 224.97917Q534.96564 227.7448 535.7625 229.07292Q536.575 230.38542 538.2 230.38542Q539.8094 230.38542 540.59064 229.15105Q541.3719 227.90105 541.40314 225.22917L541.40314 221.66667ZM546.1375 230.77605Q546.1375 230.21355 546.46564 229.83855Q546.8094 229.46355 547.46564 229.46355Q548.1375 229.46355 548.48126 229.83855Q548.84064 230.21355 548.84064 230.77605Q548.84064 231.32292 548.48126 231.6823Q548.1375 232.04167 547.46564 232.04167Q546.8094 232.04167 546.46564 231.6823Q546.1375 231.32292 546.1375 230.77605ZM562.8875 216.07292L555.825 231.91667L553.54376 231.91667L560.59064 216.63542L551.35626 216.63542L551.35626 214.85417L562.8875 214.85417L562.8875 216.07292ZM564.6844 218.13542Q564.6844 216.60417 565.65314 215.60417Q566.6375 214.60417 568.16876 214.60417Q569.73126 214.60417 570.7 215.60417Q571.66876 216.60417 571.66876 218.19792L571.66876 219.04167Q571.66876 220.58855 570.6844 221.57292Q569.71564 222.54167 568.2 222.54167Q566.66876 222.54167 565.66876 221.57292Q564.6844 220.58855 564.6844 218.94792L564.6844 218.13542ZM566.29376 219.04167Q566.29376 219.94792 566.8094 220.54167Q567.325 221.13542 568.2 221.13542Q569.02814 221.13542 569.52814 220.5573Q570.04376 219.97917 570.04376 218.9948L570.04376 218.13542Q570.04376 217.21355 569.54376 216.6198Q569.04376 216.02605 568.16876 216.02605Q567.3094 216.02605 566.79376 216.6198Q566.29376 217.21355 566.29376 218.1823L566.29376 219.04167ZM572.9969 227.72917Q572.9969 226.19792 573.96564 225.21355Q574.95 224.21355 576.48126 224.21355Q578.0125 224.21355 578.9969 225.19792Q579.98126 226.1823 579.98126 227.8073L579.98126 228.65105Q579.98126 230.1823 578.9969 231.1823Q578.02814 232.16667 576.4969 232.16667Q574.98126 232.16667 573.98126 231.1823Q572.9969 230.19792 572.9969 228.57292L572.9969 227.72917ZM574.60626 228.65105Q574.60626 229.57292 575.1219 230.16667Q575.6375 230.76042 576.5125 230.76042Q577.35626 230.76042 577.85626 230.1823Q578.35626 229.58855 578.35626 228.60417L578.35626 227.72917Q578.35626 226.8073 577.84064 226.22917Q577.34064 225.63542 576.48126 225.63542Q575.65314 225.63542 575.1219 226.21355Q574.60626 226.79167 574.60626 227.77605L574.60626 228.65105ZM568.6844 230.6198L567.46564 229.85417L575.79376 216.51042L577.02814 217.29167L568.6844 230.6198Z" fill-rule="nonzero"/><path stroke="#757575" stroke-width="1.0" stroke-linecap="butt" d="M581.45 207.41667L454.76666 207.41667L427.6192 142.96234" fill-rule="nonzero"/><path fill="#9e9e9e" d="M429.6192 142.96234C429.6192 141.85777 428.72375 140.96234 427.6192 140.96234C426.51462 140.96234 425.6192 141.85777 425.6192 142.96234C425.6192 144.06691 426.51462 144.96234 427.6192 144.96234C428.72375 144.96234 429.6192 144.06691 429.6192 142.96234" fill-rule="nonzero"/><path fill="#757575" d="M542.04376 261.0689L530.8719 261.0689L530.8719 259.5064L536.77814 252.94391Q538.09064 251.45953 538.59064 250.53766Q539.09064 249.60016 539.09064 248.60016Q539.09064 247.25641 538.27814 246.41266Q537.46564 245.55328 536.1219 245.55328Q534.4969 245.55328 533.60626 246.47516Q532.71564 247.39703 532.71564 249.03766L530.54376 249.03766Q530.54376 246.67828 532.0594 245.22516Q533.575 243.77203 536.1219 243.77203Q538.4969 243.77203 539.8719 245.02203Q541.2625 246.27203 541.2625 248.33453Q541.2625 250.86578 538.0594 254.33453L533.48126 259.30328L542.04376 259.30328L542.04376 261.0689ZM554.575 253.78766Q554.575 257.60016 553.2625 259.45953Q551.96564 261.30328 549.2 261.30328Q546.46564 261.30328 545.15314 259.49078Q543.84064 257.67828 543.79376 254.08453L543.79376 251.19391Q543.79376 247.42828 545.09064 245.60016Q546.40314 243.77203 549.1844 243.77203Q551.9344 243.77203 553.23126 245.53766Q554.52814 247.30328 554.575 250.97516L554.575 253.78766ZM552.40314 250.81891Q552.40314 248.06891 551.6219 246.81891Q550.85626 245.55328 549.1844 245.55328Q547.5125 245.55328 546.7469 246.80328Q545.9969 248.05328 545.96564 250.66266L545.96564 254.13141Q545.96564 256.89703 546.7625 258.22516Q547.575 259.53766 549.2 259.53766Q550.8094 259.53766 551.59064 258.30328Q552.3719 257.05328 552.40314 254.38141L552.40314 250.81891ZM563.9969 261.0689L561.8094 261.0689L561.8094 246.61578L557.45 248.22516L557.45 246.25641L563.65314 243.92828L563.9969 243.92828L563.9969 261.0689ZM580.8875 245.22516L573.825 261.0689L571.54376 261.0689L578.59064 245.78766L569.35626 245.78766L569.35626 244.00641L580.8875 244.00641L580.8875 245.22516Z" fill-rule="nonzero"/><path fill="#9e9e9e" d="M543.21564 280.45953Q543.21564 281.74078 542.54376 282.74078Q541.8719 283.72516 540.71564 284.28766Q542.0594 284.86578 542.84064 285.97516Q543.6219 287.0689 543.6219 288.45953Q543.6219 290.67828 542.1219 291.99078Q540.6219 293.30328 538.1844 293.30328Q535.73126 293.30328 534.2469 291.99078Q532.7625 290.66266 532.7625 288.45953Q532.7625 287.08453 533.5125 285.97516Q534.27814 284.85016 535.60626 284.27203Q534.48126 283.70953 533.825 282.72516Q533.16876 281.72516 533.16876 280.45953Q533.16876 278.30328 534.54376 277.03766Q535.9344 275.77203 538.1844 275.77203Q540.4344 275.77203 541.825 277.03766Q543.21564 278.30328 543.21564 280.45953ZM541.45 288.41266Q541.45 286.99078 540.54376 286.08453Q539.6375 285.17828 538.16876 285.17828Q536.7 285.17828 535.8094 286.0689Q534.9344 286.95953 534.9344 288.41266Q534.9344 289.86578 535.79376 290.70953Q536.65314 291.53766 538.1844 291.53766Q539.71564 291.53766 540.575 290.6939Q541.45 289.85016 541.45 288.41266ZM538.1844 277.55328Q536.91876 277.55328 536.1219 278.35016Q535.325 279.1314 535.325 280.49078Q535.325 281.78766 536.10626 282.60016Q536.8875 283.39703 538.1844 283.39703Q539.4969 283.39703 540.2625 282.60016Q541.04376 281.78766 541.04376 280.49078Q541.04376 279.1939 540.23126 278.3814Q539.4344 277.55328 538.1844 277.55328ZM546.1375 291.92828Q546.1375 291.36578 546.46564 290.99078Q546.8094 290.61578 547.46564 290.61578Q548.1375 290.61578 548.48126 290.99078Q548.84064 291.36578 548.84064 291.92828Q548.84064 292.47516 548.48126 292.83453Q548.1375 293.1939 547.46564 293.1939Q546.8094 293.1939 546.46564 292.83453Q546.1375 292.47516 546.1375 291.92828ZM560.3719 275.99078L560.3719 277.83453L559.98126 277.83453Q557.45 277.8814 555.95 279.33453Q554.45 280.78766 554.21564 283.42828Q555.5594 281.8814 557.8875 281.8814Q560.1219 281.8814 561.45 283.45953Q562.77814 285.02203 562.77814 287.5064Q562.77814 290.1314 561.34064 291.72516Q559.90314 293.30328 557.4969 293.30328Q555.04376 293.30328 553.5125 291.42828Q551.9969 289.53766 551.9969 286.5689L551.9969 285.74078Q551.9969 281.03766 553.9969 278.55328Q556.0125 276.05328 559.9969 275.99078L560.3719 275.99078ZM557.52814 283.67828Q556.41876 283.67828 555.48126 284.35016Q554.54376 285.02203 554.1844 286.02203L554.1844 286.8189Q554.1844 288.92828 555.1219 290.22516Q556.075 291.5064 557.4969 291.5064Q558.96564 291.5064 559.79376 290.42828Q560.6375 289.35016 560.6375 287.60016Q560.6375 285.85016 559.77814 284.77203Q558.9344 283.67828 557.52814 283.67828ZM564.6844 279.28766Q564.6844 277.7564 565.65314 276.7564Q566.6375 275.7564 568.16876 275.7564Q569.73126 275.7564 570.7 276.7564Q571.66876 277.7564 571.66876 279.35016L571.66876 280.1939Q571.66876 281.74078 570.6844 282.72516Q569.71564 283.6939 568.2 283.6939Q566.66876 283.6939 565.66876 282.72516Q564.6844 281.74078 564.6844 280.10016L564.6844 279.28766ZM566.29376 280.1939Q566.29376 281.10016 566.8094 281.6939Q567.325 282.28766 568.2 282.28766Q569.02814 282.28766 569.52814 281.70953Q570.04376 281.1314 570.04376 280.14703L570.04376 279.28766Q570.04376 278.36578 569.54376 277.77203Q569.04376 277.17828 568.16876 277.17828Q567.3094 277.17828 566.79376 277.77203Q566.29376 278.36578 566.29376 279.33453L566.29376 280.1939ZM572.9969 288.8814Q572.9969 287.35016 573.96564 286.36578Q574.95 285.36578 576.48126 285.36578Q578.0125 285.36578 578.9969 286.35016Q579.98126 287.33453 579.98126 288.95953L579.98126 289.80328Q579.98126 291.33453 578.9969 292.33453Q578.02814 293.3189 576.4969 293.3189Q574.98126 293.3189 573.98126 292.33453Q572.9969 291.35016 572.9969 289.72516L572.9969 288.8814ZM574.60626 289.80328Q574.60626 290.72516 575.1219 291.3189Q575.6375 291.91266 576.5125 291.91266Q577.35626 291.91266 577.85626 291.33453Q578.35626 290.74078 578.35626 289.7564L578.35626 288.8814Q578.35626 287.95953 577.84064 287.3814Q577.34064 286.78766 576.48126 286.78766Q575.65314 286.78766 575.1219 287.36578Q574.60626 287.9439 574.60626 288.92828L574.60626 289.80328ZM568.6844 291.77203L567.46564 291.0064L575.79376 277.66266L577.02814 278.4439L568.6844 291.77203Z" fill-rule="nonzero"/><path stroke="#757575" stroke-width="1.0" stroke-linecap="butt" d="M581.45 268.5689L454.76666 268.5689L425.553 268.5689" fill-rule="nonzero"/><path fill="#9e9e9e" d="M427.553 268.5689C427.553 267.46436 426.6576 266.5689 425.553 266.5689C424.44846 266.5689 423.553 267.46436 423.553 268.5689C423.553 269.6735 424.44846 270.5689 425.553 270.5689C426.6576 270.5689 427.553 269.6735 427.553 268.5689" fill-rule="nonzero"/><path fill="#757575" d="M21.596874 37.940624Q25.659374 37.8625 28.003124 36.690624Q26.83125 35.675 25.1125 34.89375Q23.628124 35.909374 22.221874 36.45625L21.51875 35.128124Q24.565624 34.1125 26.440624 31.221874L21.596874 31.221874L21.596874 33.253124L20.034374 33.253124L20.034374 29.971874L36.909374 29.971874L36.909374 33.096874L35.346874 33.096874L35.346874 31.221874L28.08125 31.221874L27.3 32.39375L32.6125 32.39375L33.003124 32.003124L34.253124 32.940624Q34.565624 33.33125 33.940624 33.4875Q30.190624 38.878124 22.14375 39.503124L21.596874 37.940624ZM26.440624 33.64375L26.05 34.034374Q28.159374 34.815624 29.4875 35.83125Q31.20625 34.7375 31.83125 33.64375L26.440624 33.64375ZM34.8 29.034374L22.221874 29.034374L22.221874 25.128124L24.95625 25.128124L24.95625 24.034374L20.034374 24.034374L20.034374 22.784374L24.95625 22.784374L24.95625 21.221874L26.440624 21.221874Q27.065624 21.3 26.51875 21.690624L26.51875 22.784374L30.346874 22.784374L30.346874 21.221874L31.83125 21.221874Q32.45625 21.3 31.909374 21.690624L31.909374 22.784374L36.909374 22.784374L36.909374 24.034374L31.909374 24.034374L31.909374 25.128124L34.8 25.128124L34.8 29.034374ZM26.05 26.378124L23.784374 26.378124L23.784374 27.784374L26.05 27.784374L26.05 26.378124ZM27.378124 26.378124L27.378124 27.784374L29.565624 27.784374L29.565624 26.378124L27.378124 26.378124ZM33.2375 26.378124L30.89375 26.378124L30.89375 27.784374L33.2375 27.784374L33.2375 26.378124ZM30.346874 24.034374L26.51875 24.034374L26.51875 25.128124L30.346874 25.128124L30.346874 24.034374ZM53.08125 33.253124Q54.175 31.14375 54.409374 26.846874L51.753124 26.846874Q51.9875 31.14375 53.08125 33.253124ZM55.971874 26.846874Q55.815624 31.690624 54.096874 34.659374Q55.346874 36.221874 57.6125 37.39375L56.596874 39.1125Q54.096874 37.471874 53.08125 35.9875Q51.284374 38.01875 47.534374 39.503124L46.753124 37.940624Q50.815624 36.3 52.14375 34.58125Q50.815624 32.003124 50.659374 29.425Q50.190624 30.596874 49.721874 31.221874L48.39375 30.20625Q50.7375 26.76875 51.20625 21.690624L52.846874 22.08125Q53.315624 22.39375 52.6125 22.55Q52.378124 23.95625 51.9875 25.3625L57.3 25.3625L57.3 26.846874L55.971874 26.846874ZM48.70625 23.096874Q48.2375 24.26875 47.6125 25.05L46.3625 24.346874Q46.9875 23.33125 47.534374 22.003124L48.940624 22.70625Q49.253124 23.01875 48.70625 23.096874ZM43.70625 34.1125Q44.8 34.425 45.659374 34.815624Q46.284374 34.1125 46.675 32.70625L44.409374 32.70625Q44.096874 33.409374 43.70625 34.1125ZM42.6125 36.065624L41.3625 35.3625Q42.14375 34.190624 42.925 32.70625L39.95625 32.70625L39.95625 31.45625L43.39375 31.45625Q43.8625 30.440624 44.096874 29.7375L45.58125 30.128124Q45.89375 30.440624 45.346874 30.51875L44.878124 31.45625L49.33125 31.45625L49.33125 32.70625L48.159374 32.70625Q47.76875 34.26875 46.9875 35.3625Q47.690624 35.675 48.471874 36.14375L47.76875 37.39375Q46.909374 36.846874 46.20625 36.534374Q44.175 38.565624 40.7375 39.034374L40.190624 37.628124Q43.2375 37.315624 44.878124 35.909374Q44.01875 35.51875 43.159374 35.20625L42.6125 36.065624ZM44.175 21.378124L45.425 21.378124Q46.05 21.45625 45.503124 21.846874L45.503124 25.20625L49.4875 25.20625L49.4875 26.45625L46.20625 26.45625Q47.065624 27.471874 48.8625 28.409374L48.003124 29.7375Q46.675 28.95625 45.503124 27.55L45.503124 29.425L44.175 29.425L44.175 27.940624Q42.925 29.503124 40.7375 30.753124L39.721874 29.503124Q42.14375 28.253124 43.70625 26.45625L40.1125 26.45625L40.1125 25.20625L44.175 25.20625L44.175 21.378124ZM41.9875 24.971874Q41.440624 23.8 40.58125 22.940624L41.83125 22.159374Q42.76875 23.096874 43.2375 24.1125L41.9875 24.971874Z" fill-rule="nonzero"/><path fill="#757575" d="M65.20625 37.55L65.20625 23.33125L69.22188 23.33125Q71.06563 23.33125 72.4875 24.159374Q73.925 24.971874 74.69063 26.4875Q75.47188 28.003124 75.4875 29.95625L75.4875 30.8625Q75.4875 32.878124 74.70625 34.39375Q73.925 35.909374 72.4875 36.721874Q71.05 37.534374 69.14375 37.55L65.20625 37.55ZM67.08125 24.878124L67.08125 36.01875L69.05 36.01875Q71.22188 36.01875 72.425 34.675Q73.62813 33.315624 73.62813 30.83125L73.62813 30.003124Q73.62813 27.58125 72.4875 26.2375Q71.34688 24.89375 69.26875 24.878124L67.08125 24.878124ZM83.01875 28.596874Q82.6125 28.534374 82.14375 28.534374Q80.3625 28.534374 79.72188 30.05L79.72188 37.55L77.925 37.55L77.925 26.9875L79.675 26.9875L79.70625 28.20625Q80.59688 26.784374 82.22188 26.784374Q82.75313 26.784374 83.01875 26.925L83.01875 28.596874ZM89.3 37.753124Q87.15938 37.753124 85.8 36.346874Q84.45625 34.925 84.45625 32.565624L84.45625 32.221874Q84.45625 30.659374 85.05 29.425Q85.65938 28.190624 86.7375 27.4875Q87.81563 26.784374 89.08125 26.784374Q91.14375 26.784374 92.28438 28.14375Q93.425 29.503124 93.425 32.034374L93.425 32.784374L86.26875 32.784374Q86.3 34.346874 87.175 35.315624Q88.05 36.26875 89.39375 36.26875Q90.3625 36.26875 91.01875 35.878124Q91.69063 35.4875 92.19063 34.846874L93.28438 35.70625Q91.95625 37.753124 89.3 37.753124ZM89.08125 28.26875Q87.9875 28.26875 87.2375 29.065624Q86.50313 29.8625 86.33125 31.3L91.6125 31.3L91.6125 31.159374Q91.53438 29.784374 90.8625 29.034374Q90.20625 28.26875 89.08125 28.26875ZM102.44063 37.55Q102.28438 37.2375 102.19063 36.440624Q100.925 37.753124 99.175 37.753124Q97.6125 37.753124 96.6125 36.8625Q95.6125 35.971874 95.6125 34.6125Q95.6125 32.971874 96.8625 32.065624Q98.12813 31.14375 100.39375 31.14375L102.15938 31.14375L102.15938 30.315624Q102.15938 29.3625 101.58125 28.8Q101.01875 28.2375 99.925 28.2375Q98.95625 28.2375 98.3 28.7375Q97.64375 29.221874 97.64375 29.909374L95.83125 29.909374Q95.83125 29.128124 96.39375 28.39375Q96.95625 27.64375 97.90938 27.221874Q98.87813 26.784374 100.03438 26.784374Q101.8625 26.784374 102.89375 27.70625Q103.925 28.6125 103.97188 30.221874L103.97188 35.08125Q103.97188 36.534374 104.33125 37.39375L104.33125 37.55L102.44063 37.55ZM99.44063 36.175Q100.3 36.175 101.05 35.7375Q101.81563 35.3 102.15938 34.596874L102.15938 32.425L100.7375 32.425Q97.425 32.425 97.425 34.3625Q97.425 35.221874 97.9875 35.70625Q98.55 36.175 99.44063 36.175ZM108.6125 26.9875L108.65938 28.159374Q109.83125 26.784374 111.8 26.784374Q114.01875 26.784374 114.81563 28.4875Q115.34688 27.721874 116.19063 27.253124Q117.03438 26.784374 118.19063 26.784374Q121.65938 26.784374 121.72188 30.471874L121.72188 37.55L119.90938 37.55L119.90938 30.58125Q119.90938 29.440624 119.39375 28.878124Q118.87813 28.315624 117.65938 28.315624Q116.65938 28.315624 115.9875 28.925Q115.33125 29.51875 115.22188 30.534374L115.22188 37.55L113.40938 37.55L113.40938 30.628124Q113.40938 28.315624 111.14375 28.315624Q109.3625 28.315624 108.72188 29.83125L108.72188 37.55L106.90938 37.55L106.90938 26.9875L108.6125 26.9875ZM131.06563 34.753124Q131.06563 34.01875 130.51875 33.6125Q129.97188 33.20625 128.59688 32.909374Q127.22188 32.6125 126.40938 32.20625Q125.6125 31.8 125.22188 31.2375Q124.84688 30.659374 124.84688 29.878124Q124.84688 28.58125 125.94063 27.690624Q127.03438 26.784374 128.75313 26.784374Q130.55 26.784374 131.65938 27.721874Q132.78438 28.64375 132.78438 30.08125L130.95625 30.08125Q130.95625 29.346874 130.33125 28.815624Q129.70625 28.26875 128.75313 28.26875Q127.75313 28.26875 127.19063 28.70625Q126.64375 29.128124 126.64375 29.83125Q126.64375 30.471874 127.15938 30.815624Q127.675 31.14375 129.03438 31.45625Q130.39375 31.753124 131.22188 32.175Q132.06563 32.58125 132.47188 33.175Q132.87813 33.76875 132.87813 34.6125Q132.87813 36.034374 131.7375 36.89375Q130.6125 37.753124 128.8 37.753124Q127.53438 37.753124 126.55 37.3Q125.58125 36.846874 125.01875 36.05Q124.47188 35.2375 124.47188 34.3L126.28438 34.3Q126.33125 35.20625 127.00313 35.7375Q127.69063 36.26875 128.8 36.26875Q129.83125 36.26875 130.44063 35.8625Q131.06563 35.440624 131.06563 34.753124ZM139.84688 31.784374Q139.84688 29.565624 140.44063 27.534374Q141.03438 25.503124 142.20625 23.846874Q143.37813 22.190624 144.62813 21.503124L145.00313 22.690624Q143.58125 23.784374 142.65938 26.034374Q141.75313 28.284374 141.65938 31.065624L141.65938 31.89375Q141.65938 35.659374 143.03438 38.440624Q143.8625 40.096874 145.00313 41.034374L144.62813 42.14375Q143.33125 41.425 142.15938 39.721874Q139.84688 36.39375 139.84688 31.784374ZM156.05 37.55L146.7375 37.55L146.7375 36.253124L151.65938 30.784374Q152.75313 29.534374 153.15938 28.76875Q153.58125 27.9875 153.58125 27.159374Q153.58125 26.05 152.90938 25.33125Q152.2375 24.6125 151.1125 24.6125Q149.75313 24.6125 149.00313 25.39375Q148.26875 26.159374 148.26875 27.51875L146.45625 27.51875Q146.45625 25.55 147.72188 24.346874Q148.9875 23.128124 151.1125 23.128124Q153.09688 23.128124 154.2375 24.175Q155.39375 25.221874 155.39375 26.940624Q155.39375 29.05 152.72188 31.940624L148.90938 36.08125L156.05 36.08125L156.05 37.55ZM166.64375 31.4875Q166.64375 34.659374 165.56563 36.20625Q164.4875 37.753124 162.175 37.753124Q159.89375 37.753124 158.8 36.2375Q157.70625 34.721874 157.675 31.721874L157.675 29.315624Q157.675 26.175 158.75313 24.659374Q159.84688 23.128124 162.15938 23.128124Q164.45625 23.128124 165.53438 24.6125Q166.6125 26.08125 166.64375 29.14375L166.64375 31.4875ZM164.84688 29.01875Q164.84688 26.721874 164.19063 25.675Q163.55 24.6125 162.15938 24.6125Q160.76875 24.6125 160.12813 25.659374Q159.50313 26.70625 159.4875 28.878124L159.4875 31.76875Q159.4875 34.065624 160.14375 35.175Q160.81563 36.26875 162.175 36.26875Q163.51875 36.26875 164.15938 35.2375Q164.81563 34.20625 164.84688 31.971874L164.84688 29.01875ZM177.64375 31.4875Q177.64375 34.659374 176.56563 36.20625Q175.4875 37.753124 173.175 37.753124Q170.89375 37.753124 169.8 36.2375Q168.70625 34.721874 168.675 31.721874L168.675 29.315624Q168.675 26.175 169.75313 24.659374Q170.84688 23.128124 173.15938 23.128124Q175.45625 23.128124 176.53438 24.6125Q177.6125 26.08125 177.64375 29.14375L177.64375 31.4875ZM175.84688 29.01875Q175.84688 26.721874 175.19063 25.675Q174.55 24.6125 173.15938 24.6125Q171.76875 24.6125 171.12813 25.659374Q170.50313 26.70625 170.4875 28.878124L170.4875 31.76875Q170.4875 34.065624 171.14375 35.175Q171.81563 36.26875 173.175 36.26875Q174.51875 36.26875 175.15938 35.2375Q175.81563 34.20625 175.84688 31.971874L175.84688 29.01875ZM188.90938 24.346874L183.01875 37.55L181.12813 37.55L187.00313 24.815624L179.3 24.815624L179.3 23.33125L188.90938 23.33125L188.90938 24.346874ZM194.675 32.253124L189.90938 32.253124L189.90938 30.76875L194.675 30.76875L194.675 32.253124ZM206.05 37.55L196.7375 37.55L196.7375 36.253124L201.65938 30.784374Q202.75313 29.534374 203.15938 28.76875Q203.58125 27.9875 203.58125 27.159374Q203.58125 26.05 202.90938 25.33125Q202.2375 24.6125 201.1125 24.6125Q199.75313 24.6125 199.00313 25.39375Q198.26875 26.159374 198.26875 27.51875L196.45625 27.51875Q196.45625 25.55 197.72188 24.346874Q198.9875 23.128124 201.1125 23.128124Q203.09688 23.128124 204.2375 24.175Q205.39375 25.221874 205.39375 26.940624Q205.39375 29.05 202.72188 31.940624L198.90938 36.08125L206.05 36.08125L206.05 37.55ZM216.64375 31.4875Q216.64375 34.659374 215.56563 36.20625Q214.4875 37.753124 212.175 37.753124Q209.89375 37.753124 208.8 36.2375Q207.70625 34.721874 207.675 31.721874L207.675 29.315624Q207.675 26.175 208.75313 24.659374Q209.84688 23.128124 212.15938 23.128124Q214.45625 23.128124 215.53438 24.6125Q216.6125 26.08125 216.64375 29.14375L216.64375 31.4875ZM214.84688 29.01875Q214.84688 26.721874 214.19063 25.675Q213.55 24.6125 212.15938 24.6125Q210.76875 24.6125 210.12813 25.659374Q209.50313 26.70625 209.4875 28.878124L209.4875 31.76875Q209.4875 34.065624 210.14375 35.175Q210.81563 36.26875 212.175 36.26875Q213.51875 36.26875 214.15938 35.2375Q214.81563 34.20625 214.84688 31.971874L214.84688 29.01875ZM224.675 37.55L222.84688 37.55L222.84688 25.503124L219.20625 26.846874L219.20625 25.20625L224.39375 23.26875L224.675 23.26875L224.675 37.55ZM236.65938 31.3Q236.09688 31.971874 235.3 32.39375Q234.51875 32.8 233.58125 32.8Q232.34688 32.8 231.425 32.190624Q230.51875 31.58125 230.01875 30.4875Q229.53438 29.378124 229.53438 28.05Q229.53438 26.628124 230.06563 25.4875Q230.6125 24.346874 231.59688 23.7375Q232.59688 23.128124 233.925 23.128124Q236.03438 23.128124 237.25313 24.70625Q238.47188 26.284374 238.47188 29.01875L238.47188 29.534374Q238.47188 33.690624 236.83125 35.596874Q235.19063 37.503124 231.87813 37.565624L231.53438 37.565624L231.53438 36.034374L231.90938 36.034374Q234.14375 36.003124 235.34688 34.878124Q236.55 33.7375 236.65938 31.3ZM233.87813 31.3Q234.78438 31.3 235.55 30.753124Q236.31563 30.190624 236.65938 29.3625L236.65938 28.64375Q236.65938 26.8625 235.89375 25.753124Q235.12813 24.64375 233.94063 24.64375Q232.75313 24.64375 232.01875 25.565624Q231.3 26.471874 231.3 27.95625Q231.3 29.409374 232.00313 30.3625Q232.70625 31.3 233.87813 31.3ZM245.08125 31.878124Q245.08125 34.05 244.50313 36.05Q243.94063 38.05 242.76875 39.7375Q241.59688 41.425 240.3 42.14375L239.925 41.034374Q241.425 39.878124 242.33125 37.45625Q243.25313 35.034374 243.26875 32.065624L243.26875 31.753124Q243.26875 29.70625 242.83125 27.940624Q242.40938 26.175 241.64375 24.784374Q240.87813 23.39375 239.925 22.6125L240.3 21.503124Q241.59688 22.221874 242.75313 23.89375Q243.925 25.55 244.50313 27.565624Q245.08125 29.58125 245.08125 31.878124Z" fill-rule="nonzero"/></svg>