<svg version="1.1" viewBox="0.0 0.0 600.0 371.0" fill="none" stroke="none" stroke-linecap="square" stroke-miterlimit="10" width="600" height="371" xmlns:xlink="http://www.w3.org/1999/xlink" xmlns="http://www.w3.org/2000/svg"><path fill="#ffffff" d="M0 0L600.0 0L600.0 371.0L0 371.0L0 0Z" fill-rule="nonzero"/><path fill="#4285f4" d="M300.0 54.916668C332.51874 54.916668 364.1418 65.57172 390.02975 85.25122L345.01486 144.46727C332.0709 134.62752 316.25937 129.3 300.0 129.3Z" fill-rule="nonzero"/><path fill="#db4437" d="M390.02975 85.25122C398.59134 91.75958 406.42197 99.17714 413.3843 107.37383L356.69217 155.52858C353.211 151.43024 349.2957 147.72145 345.01486 144.46727Z" fill-rule="nonzero"/><path fill="#f4b400" d="M413.3843 107.37383C456.65158 158.312 460.6388 231.85168 423.13254 287.16925L361.56625 245.4263C380.3194 217.76752 378.32578 180.99767 356.69217 155.52858Z" fill-rule="nonzero"/><path fill="#ff6d00" d="M176.86746 287.16925C145.96112 241.58582 142.76613 182.65756 168.56285 133.99977C194.35959 85.34198 244.92685 54.916668 300.0 54.916668L300.0 129.3C272.46344 129.3 247.1798 144.51265 234.28143 168.84155C221.38307 193.17044 222.98056 222.63458 238.43373 245.4263Z" fill-rule="nonzero"/><path fill="#0f9d58" d="M423.13254 287.16925C395.44983 327.99817 349.32883 352.45 300.0 352.45C250.67119 352.45 204.55016 327.99817 176.86746 287.16925L238.43373 245.4263C252.27509 265.84076 275.3356 278.06668 300.0 278.06668C324.6644 278.06668 347.7249 265.84076 361.56625 245.4263Z" fill-rule="nonzero"/><path fill="#ffffff" d="M308.79794 96.85518L309.73544 96.85518Q310.6417 96.839554 311.1417 96.38643Q311.65732 95.933304 311.65732 95.152054Q311.65732 93.402054 309.92294 93.402054Q309.09482 93.402054 308.61044 93.870804Q308.12607 94.339554 308.12607 95.10518L306.86044 95.10518Q306.86044 93.91768 307.71982 93.13643Q308.59482 92.35518 309.92294 92.35518Q311.3292 92.35518 312.12607 93.10518Q312.92294 93.85518 312.92294 95.16768Q312.92294 95.82393 312.50107 96.433304Q312.09482 97.04268 311.36044 97.339554Q312.18857 97.60518 312.62607 98.214554Q313.0792 98.808304 313.0792 99.66768Q313.0792 101.01143 312.2042 101.808304Q311.3292 102.589554 309.92294 102.589554Q308.53232 102.589554 307.6417 101.839554Q306.7667 101.07393 306.7667 99.82393L308.04794 99.82393Q308.04794 100.60518 308.54794 101.089554Q309.06357 101.558304 309.92294 101.558304Q310.84482 101.558304 311.3292 101.07393Q311.81357 100.589554 311.81357 99.69893Q311.81357 98.839554 311.28232 98.370804Q310.75107 97.902054 309.73544 97.88643L308.79794 97.88643L308.79794 96.85518ZM318.03232 98.402054Q318.03232 96.870804 318.43857 95.44893Q318.86044 94.027054 319.67294 92.870804Q320.50107 91.69893 321.3917 91.214554L321.6417 92.058304Q320.6417 92.82393 320.00107 94.402054Q319.37607 95.964554 319.31357 97.902054L319.29794 98.495804Q319.29794 101.13643 320.2667 103.07393Q320.84482 104.23018 321.6417 104.88643L321.3917 105.66768Q320.46982 105.152054 319.6417 103.964554Q318.03232 101.63643 318.03232 98.402054ZM327.11044 102.44893L325.84482 102.44893L325.84482 94.027054L323.28232 94.94893L323.28232 93.808304L326.90732 92.44893L327.11044 92.44893L327.11044 102.44893ZM337.18857 98.19893Q337.18857 100.41768 336.42294 101.51143Q335.67294 102.589554 334.06357 102.589554Q332.46982 102.589554 331.7042 101.54268Q330.93857 100.48018 330.90732 98.370804L330.90732 96.683304Q330.90732 94.495804 331.65732 93.433304Q332.42294 92.35518 334.04794 92.35518Q335.65732 92.35518 336.40732 93.38643Q337.17294 94.41768 337.18857 96.558304L337.18857 98.19893ZM335.92294 96.48018Q335.92294 94.870804 335.46982 94.13643Q335.03232 93.402054 334.04794 93.402054Q333.0792 93.402054 332.62607 94.13643Q332.18857 94.85518 332.17294 96.370804L332.17294 98.402054Q332.17294 100.01143 332.6417 100.79268Q333.11044 101.558304 334.06357 101.558304Q335.00107 101.558304 335.4542 100.839554Q335.90732 100.10518 335.92294 98.54268L335.92294 96.48018ZM339.11044 101.79268Q339.11044 101.464554 339.29794 101.245804Q339.50107 101.027054 339.8917 101.027054Q340.28232 101.027054 340.48544 101.245804Q340.68857 101.464554 340.68857 101.79268Q340.68857 102.10518 340.48544 102.32393Q340.28232 102.527054 339.8917 102.527054Q339.50107 102.527054 339.29794 102.32393Q339.11044 102.10518 339.11044 101.79268ZM344.79794 96.85518L345.73544 96.85518Q346.6417 96.839554 347.1417 96.38643Q347.65732 95.933304 347.65732 95.152054Q347.65732 93.402054 345.92294 93.402054Q345.09482 93.402054 344.61044 93.870804Q344.12607 94.339554 344.12607 95.10518L342.86044 95.10518Q342.86044 93.91768 343.71982 93.13643Q344.59482 92.35518 345.92294 92.35518Q347.3292 92.35518 348.12607 93.10518Q348.92294 93.85518 348.92294 95.16768Q348.92294 95.82393 348.50107 96.433304Q348.09482 97.04268 347.36044 97.339554Q348.18857 97.60518 348.62607 98.214554Q349.0792 98.808304 349.0792 99.66768Q349.0792 101.01143 348.2042 101.808304Q347.3292 102.589554 345.92294 102.589554Q344.53232 102.589554 343.6417 101.839554Q342.7667 101.07393 342.7667 99.82393L344.04794 99.82393Q344.04794 100.60518 344.54794 101.089554Q345.06357 101.558304 345.92294 101.558304Q346.84482 101.558304 347.3292 101.07393Q347.81357 100.589554 347.81357 99.69893Q347.81357 98.839554 347.28232 98.370804Q346.75107 97.902054 345.73544 97.88643L344.79794 97.88643L344.79794 96.85518ZM350.84482 94.402054Q350.84482 93.51143 351.40732 92.933304Q351.98544 92.35518 352.87607 92.35518Q353.79794 92.35518 354.36044 92.94893Q354.92294 93.527054 354.92294 94.44893L354.92294 94.933304Q354.92294 95.839554 354.34482 96.41768Q353.78232 96.98018 352.8917 96.98018Q352.00107 96.98018 351.42294 96.41768Q350.84482 95.839554 350.84482 94.88643L350.84482 94.402054ZM351.78232 94.933304Q351.78232 95.464554 352.0792 95.808304Q352.3917 96.152054 352.8917 96.152054Q353.37607 96.152054 353.67294 95.82393Q353.96982 95.495804 353.96982 94.902054L353.96982 94.402054Q353.96982 93.870804 353.67294 93.527054Q353.3917 93.183304 352.87607 93.183304Q352.37607 93.183304 352.0792 93.527054Q351.78232 93.870804 351.78232 94.433304L351.78232 94.933304ZM355.68857 100.01143Q355.68857 99.10518 356.25107 98.54268Q356.8292 97.964554 357.71982 97.964554Q358.62607 97.964554 359.18857 98.54268Q359.7667 99.10518 359.7667 100.058304L359.7667 100.54268Q359.7667 101.433304 359.18857 102.01143Q358.62607 102.589554 357.73544 102.589554Q356.86044 102.589554 356.2667 102.027054Q355.68857 101.44893 355.68857 100.495804L355.68857 100.01143ZM356.6417 100.54268Q356.6417 101.07393 356.93857 101.433304Q357.23544 101.777054 357.73544 101.777054Q358.23544 101.777054 358.53232 101.433304Q358.8292 101.089554 358.8292 100.51143L358.8292 100.01143Q358.8292 99.464554 358.5167 99.120804Q358.21982 98.777054 357.73544 98.777054Q357.23544 98.777054 356.93857 99.120804Q356.6417 99.464554 356.6417 100.04268L356.6417 100.54268ZM353.18857 101.69893L352.46982 101.245804L357.3292 93.464554L358.04794 93.91768L353.18857 101.69893ZM364.00107 98.48018Q364.00107 99.995804 363.59482 101.402054Q363.2042 102.79268 362.37607 103.98018Q361.54794 105.16768 360.65732 105.66768L360.3917 104.88643Q361.43857 104.089554 362.0792 102.38643Q362.71982 100.683304 362.73544 98.620804L362.73544 98.402054Q362.73544 96.964554 362.42294 95.73018Q362.12607 94.495804 361.59482 93.527054Q361.06357 92.54268 360.3917 91.995804L360.65732 91.214554Q361.54794 91.714554 362.36044 92.88643Q363.18857 94.058304 363.59482 95.464554Q364.00107 96.870804 364.00107 98.48018Z" fill-rule="nonzero"/><path fill="#000000" d="M387.70825 192.18967L387.70825 193.25217L387.47388 193.25217Q385.9895 193.28342 385.1145 194.12717Q384.2395 194.97092 384.09888 196.51779Q384.89575 195.61154 386.25513 195.61154Q387.552 195.61154 388.31763 196.53342Q389.09888 197.43967 389.09888 198.89279Q389.09888 200.43967 388.25513 201.36154Q387.427 202.28342 386.02075 202.28342Q384.59888 202.28342 383.70825 201.18967Q382.81763 200.08029 382.81763 198.36154L382.81763 197.87717Q382.81763 195.12717 383.9895 193.67404Q385.16138 192.22092 387.47388 192.18967L387.70825 192.18967ZM386.03638 196.67404Q385.39575 196.67404 384.84888 197.06467Q384.302 197.43967 384.08325 198.03342L384.08325 198.50217Q384.08325 199.73654 384.63013 200.48654Q385.19263 201.23654 386.02075 201.23654Q386.88013 201.23654 387.3645 200.61154Q387.84888 199.97092 387.84888 198.95529Q387.84888 197.92404 387.34888 197.29904Q386.8645 196.67404 386.03638 196.67404ZM393.81763 198.09592Q393.81763 196.56467 394.22388 195.14279Q394.64575 193.72092 395.45825 192.56467Q396.28638 191.39279 397.177 190.90842L397.427 191.75217Q396.427 192.51779 395.78638 194.09592Q395.16138 195.65842 395.09888 197.59592L395.08325 198.18967Q395.08325 200.83029 396.052 202.76779Q396.63013 203.92404 397.427 204.58029L397.177 205.36154Q396.25513 204.84592 395.427 203.65842Q393.81763 201.33029 393.81763 198.09592ZM405.25513 202.14279L398.7395 202.14279L398.7395 201.23654L402.177 197.40842Q402.94263 196.53342 403.2395 196.00217Q403.53638 195.45529 403.53638 194.86154Q403.53638 194.09592 403.052 193.59592Q402.58325 193.09592 401.802 193.09592Q400.8645 193.09592 400.33325 193.62717Q399.81763 194.15842 399.81763 195.12717L398.552 195.12717Q398.552 193.75217 399.427 192.90842Q400.31763 192.04904 401.802 192.04904Q403.19263 192.04904 403.9895 192.78342Q404.802 193.50217 404.802 194.72092Q404.802 196.18967 402.927 198.22092L400.27075 201.11154L405.25513 201.11154L405.25513 202.14279ZM412.97388 197.89279Q412.97388 200.11154 412.20825 201.20529Q411.45825 202.28342 409.84888 202.28342Q408.25513 202.28342 407.4895 201.23654Q406.72388 200.17404 406.69263 198.06467L406.69263 196.37717Q406.69263 194.18967 407.44263 193.12717Q408.20825 192.04904 409.83325 192.04904Q411.44263 192.04904 412.19263 193.08029Q412.95825 194.11154 412.97388 196.25217L412.97388 197.89279ZM411.70825 196.17404Q411.70825 194.56467 411.25513 193.83029Q410.81763 193.09592 409.83325 193.09592Q408.8645 193.09592 408.41138 193.83029Q407.97388 194.54904 407.95825 196.06467L407.95825 198.09592Q407.95825 199.70529 408.427 200.48654Q408.89575 201.25217 409.84888 201.25217Q410.78638 201.25217 411.2395 200.53342Q411.69263 199.79904 411.70825 198.23654L411.70825 196.17404ZM414.89575 201.48654Q414.89575 201.15842 415.08325 200.93967Q415.28638 200.72092 415.677 200.72092Q416.06763 200.72092 416.27075 200.93967Q416.47388 201.15842 416.47388 201.48654Q416.47388 201.79904 416.27075 202.01779Q416.06763 202.22092 415.677 202.22092Q415.28638 202.22092 415.08325 202.01779Q414.89575 201.79904 414.89575 201.48654ZM425.16138 192.89279L421.03638 202.14279L419.72388 202.14279L423.81763 193.22092L418.44263 193.22092L418.44263 192.18967L425.16138 192.18967L425.16138 192.89279ZM426.63013 194.09592Q426.63013 193.20529 427.19263 192.62717Q427.77075 192.04904 428.66138 192.04904Q429.58325 192.04904 430.14575 192.64279Q430.70825 193.22092 430.70825 194.14279L430.70825 194.62717Q430.70825 195.53342 430.13013 196.11154Q429.56763 196.67404 428.677 196.67404Q427.78638 196.67404 427.20825 196.11154Q426.63013 195.53342 426.63013 194.58029L426.63013 194.09592ZM427.56763 194.62717Q427.56763 195.15842 427.8645 195.50217Q428.177 195.84592 428.677 195.84592Q429.16138 195.84592 429.45825 195.51779Q429.75513 195.18967 429.75513 194.59592L429.75513 194.09592Q429.75513 193.56467 429.45825 193.22092Q429.177 192.87717 428.66138 192.87717Q428.16138 192.87717 427.8645 193.22092Q427.56763 193.56467 427.56763 194.12717L427.56763 194.62717ZM431.47388 199.70529Q431.47388 198.79904 432.03638 198.23654Q432.6145 197.65842 433.50513 197.65842Q434.41138 197.65842 434.97388 198.23654Q435.552 198.79904 435.552 199.75217L435.552 200.23654Q435.552 201.12717 434.97388 201.70529Q434.41138 202.28342 433.52075 202.28342Q432.64575 202.28342 432.052 201.72092Q431.47388 201.14279 431.47388 200.18967L431.47388 199.70529ZM432.427 200.23654Q432.427 200.76779 432.72388 201.12717Q433.02075 201.47092 433.52075 201.47092Q434.02075 201.47092 434.31763 201.12717Q434.6145 200.78342 434.6145 200.20529L434.6145 199.70529Q434.6145 199.15842 434.302 198.81467Q434.00513 198.47092 433.52075 198.47092Q433.02075 198.47092 432.72388 198.81467Q432.427 199.15842 432.427 199.73654L432.427 200.23654ZM428.97388 201.39279L428.25513 200.93967L433.1145 193.15842L433.83325 193.61154L428.97388 201.39279ZM439.78638 198.17404Q439.78638 199.68967 439.38013 201.09592Q438.9895 202.48654 438.16138 203.67404Q437.33325 204.86154 436.44263 205.36154L436.177 204.58029Q437.22388 203.78342 437.8645 202.08029Q438.50513 200.37717 438.52075 198.31467L438.52075 198.09592Q438.52075 196.65842 438.20825 195.42404Q437.91138 194.18967 437.38013 193.22092Q436.84888 192.23654 436.177 191.68967L436.44263 190.90842Q437.33325 191.40842 438.14575 192.58029Q438.97388 193.75217 439.38013 195.15842Q439.78638 196.56467 439.78638 198.17404Z" fill-rule="nonzero"/><path fill="#ffffff" d="M276.17188 322.42545Q275.78125 322.8942 275.21875 323.19107Q274.67188 323.47232 274.01562 323.47232Q273.15625 323.47232 272.51562 323.05045Q271.875 322.62857 271.53125 321.86295Q271.1875 321.0817 271.1875 320.15982Q271.1875 319.15982 271.5625 318.36295Q271.9375 317.55045 272.64062 317.12857Q273.34375 316.7067 274.26562 316.7067Q275.75 316.7067 276.59375 317.81607Q277.45312 318.92545 277.45312 320.8317L277.45312 321.19107Q277.45312 324.09732 276.29688 325.44107Q275.15625 326.7692 272.82812 326.80045L272.57812 326.80045L272.57812 325.73795L272.85938 325.73795Q274.42188 325.7067 275.25 324.92545Q276.09375 324.12857 276.17188 322.42545ZM274.21875 322.42545Q274.85938 322.42545 275.39062 322.03482Q275.9375 321.6442 276.1875 321.06607L276.1875 320.56607Q276.1875 319.31607 275.64062 318.55045Q275.09375 317.7692 274.28125 317.7692Q273.4375 317.7692 272.92188 318.40982Q272.42188 319.03482 272.42188 320.0817Q272.42188 321.11295 272.90625 321.7692Q273.40625 322.42545 274.21875 322.42545ZM282.40625 322.75357Q282.40625 321.22232 282.8125 319.80045Q283.23438 318.37857 284.04688 317.22232Q284.875 316.05045 285.76562 315.56607L286.01562 316.40982Q285.01562 317.17545 284.375 318.75357Q283.75 320.31607 283.6875 322.25357L283.67188 322.84732Q283.67188 325.48795 284.64062 327.42545Q285.21875 328.5817 286.01562 329.23795L285.76562 330.0192Q284.84375 329.50357 284.01562 328.31607Q282.40625 325.98795 282.40625 322.75357ZM289.17188 321.2067L290.10938 321.2067Q291.01562 321.19107 291.51562 320.73795Q292.03125 320.28482 292.03125 319.50357Q292.03125 317.75357 290.29688 317.75357Q289.46875 317.75357 288.98438 318.22232Q288.5 318.69107 288.5 319.4567L287.23438 319.4567Q287.23438 318.2692 288.09375 317.48795Q288.96875 316.7067 290.29688 316.7067Q291.70312 316.7067 292.5 317.4567Q293.29688 318.2067 293.29688 319.5192Q293.29688 320.17545 292.875 320.78482Q292.46875 321.3942 291.73438 321.69107Q292.5625 321.9567 293.0 322.56607Q293.45312 323.15982 293.45312 324.0192Q293.45312 325.36295 292.57812 326.15982Q291.70312 326.94107 290.29688 326.94107Q288.90625 326.94107 288.01562 326.19107Q287.14062 325.42545 287.14062 324.17545L288.42188 324.17545Q288.42188 324.9567 288.92188 325.44107Q289.4375 325.90982 290.29688 325.90982Q291.21875 325.90982 291.70312 325.42545Q292.1875 324.94107 292.1875 324.05045Q292.1875 323.19107 291.65625 322.72232Q291.125 322.25357 290.10938 322.23795L289.17188 322.23795L289.17188 321.2067ZM299.48438 326.80045L298.21875 326.80045L298.21875 318.37857L295.65625 319.30045L295.65625 318.15982L299.28125 316.80045L299.48438 316.80045L299.48438 326.80045ZM303.48438 326.1442Q303.48438 325.81607 303.67188 325.59732Q303.875 325.37857 304.26562 325.37857Q304.65625 325.37857 304.85938 325.59732Q305.0625 325.81607 305.0625 326.1442Q305.0625 326.4567 304.85938 326.67545Q304.65625 326.87857 304.26562 326.87857Q303.875 326.87857 303.67188 326.67545Q303.48438 326.4567 303.48438 326.1442ZM313.5625 322.55045Q313.5625 324.7692 312.79688 325.86295Q312.04688 326.94107 310.4375 326.94107Q308.84375 326.94107 308.07812 325.8942Q307.3125 324.8317 307.28125 322.72232L307.28125 321.03482Q307.28125 318.84732 308.03125 317.78482Q308.79688 316.7067 310.42188 316.7067Q312.03125 316.7067 312.78125 317.73795Q313.54688 318.7692 313.5625 320.90982L313.5625 322.55045ZM312.29688 320.8317Q312.29688 319.22232 311.84375 318.48795Q311.40625 317.75357 310.42188 317.75357Q309.45312 317.75357 309.0 318.48795Q308.5625 319.2067 308.54688 320.72232L308.54688 322.75357Q308.54688 324.36295 309.01562 325.1442Q309.48438 325.90982 310.4375 325.90982Q311.375 325.90982 311.82812 325.19107Q312.28125 324.4567 312.29688 322.8942L312.29688 320.8317ZM315.21875 318.75357Q315.21875 317.86295 315.78125 317.28482Q316.35938 316.7067 317.25 316.7067Q318.17188 316.7067 318.73438 317.30045Q319.29688 317.87857 319.29688 318.80045L319.29688 319.28482Q319.29688 320.19107 318.71875 320.7692Q318.15625 321.3317 317.26562 321.3317Q316.375 321.3317 315.79688 320.7692Q315.21875 320.19107 315.21875 319.23795L315.21875 318.75357ZM316.15625 319.28482Q316.15625 319.81607 316.45312 320.15982Q316.76562 320.50357 317.26562 320.50357Q317.75 320.50357 318.04688 320.17545Q318.34375 319.84732 318.34375 319.25357L318.34375 318.75357Q318.34375 318.22232 318.04688 317.87857Q317.76562 317.53482 317.25 317.53482Q316.75 317.53482 316.45312 317.87857Q316.15625 318.22232 316.15625 318.78482L316.15625 319.28482ZM320.0625 324.36295Q320.0625 323.4567 320.625 322.8942Q321.20312 322.31607 322.09375 322.31607Q323.0 322.31607 323.5625 322.8942Q324.14062 323.4567 324.14062 324.40982L324.14062 324.8942Q324.14062 325.78482 323.5625 326.36295Q323.0 326.94107 322.10938 326.94107Q321.23438 326.94107 320.64062 326.37857Q320.0625 325.80045 320.0625 324.84732L320.0625 324.36295ZM321.01562 324.8942Q321.01562 325.42545 321.3125 325.78482Q321.60938 326.12857 322.10938 326.12857Q322.60938 326.12857 322.90625 325.78482Q323.20312 325.44107 323.20312 324.86295L323.20312 324.36295Q323.20312 323.81607 322.89062 323.47232Q322.59375 323.12857 322.10938 323.12857Q321.60938 323.12857 321.3125 323.47232Q321.01562 323.81607 321.01562 324.3942L321.01562 324.8942ZM317.5625 326.05045L316.84375 325.59732L321.70312 317.81607L322.42188 318.2692L317.5625 326.05045ZM328.375 322.8317Q328.375 324.34732 327.96875 325.75357Q327.57812 327.1442 326.75 328.3317Q325.92188 329.5192 325.03125 330.0192L324.76562 329.23795Q325.8125 328.44107 326.45312 326.73795Q327.09375 325.03482 327.10938 322.97232L327.10938 322.75357Q327.10938 321.31607 326.79688 320.0817Q326.5 318.84732 325.96875 317.87857Q325.4375 316.8942 324.76562 316.34732L325.03125 315.56607Q325.92188 316.06607 326.73438 317.23795Q327.5625 318.40982 327.96875 319.81607Q328.375 321.22232 328.375 322.8317Z" fill-rule="nonzero"/><path fill="#000000" d="M172.90652 155.92065L171.6409 155.92065L171.6409 147.49878L169.0784 148.42065L169.0784 147.28003L172.7034 145.92065L172.90652 145.92065L172.90652 155.92065ZM182.98465 151.67065Q182.98465 153.8894 182.21902 154.98315Q181.46902 156.06128 179.85965 156.06128Q178.2659 156.06128 177.50027 155.0144Q176.73465 153.9519 176.7034 151.84253L176.7034 150.15503Q176.7034 147.96753 177.4534 146.90503Q178.21902 145.8269 179.84402 145.8269Q181.4534 145.8269 182.2034 146.85815Q182.96902 147.8894 182.98465 150.03003L182.98465 151.67065ZM181.71902 149.9519Q181.71902 148.34253 181.2659 147.60815Q180.8284 146.87378 179.84402 146.87378Q178.87527 146.87378 178.42215 147.60815Q177.98465 148.3269 177.96902 149.84253L177.96902 151.87378Q177.96902 153.48315 178.43777 154.2644Q178.90652 155.03003 179.85965 155.03003Q180.79715 155.03003 181.25027 154.31128Q181.7034 153.5769 181.71902 152.0144L181.71902 149.9519ZM187.8284 151.87378Q187.8284 150.34253 188.23465 148.92065Q188.65652 147.49878 189.46902 146.34253Q190.29715 145.17065 191.18777 144.68628L191.43777 145.53003Q190.43777 146.29565 189.79715 147.87378Q189.17215 149.43628 189.10965 151.37378L189.09402 151.96753Q189.09402 154.60815 190.06277 156.54565Q190.6409 157.7019 191.43777 158.35815L191.18777 159.1394Q190.2659 158.62378 189.43777 157.43628Q187.8284 155.10815 187.8284 151.87378ZM194.59402 150.3269L195.53152 150.3269Q196.43777 150.31128 196.93777 149.85815Q197.4534 149.40503 197.4534 148.62378Q197.4534 146.87378 195.71902 146.87378Q194.8909 146.87378 194.40652 147.34253Q193.92215 147.81128 193.92215 148.5769L192.65652 148.5769Q192.65652 147.3894 193.5159 146.60815Q194.3909 145.8269 195.71902 145.8269Q197.12527 145.8269 197.92215 146.5769Q198.71902 147.3269 198.71902 148.6394Q198.71902 149.29565 198.29715 149.90503Q197.8909 150.5144 197.15652 150.81128Q197.98465 151.0769 198.42215 151.68628Q198.87527 152.28003 198.87527 153.1394Q198.87527 154.48315 198.00027 155.28003Q197.12527 156.06128 195.71902 156.06128Q194.3284 156.06128 193.43777 155.31128Q192.56277 154.54565 192.56277 153.29565L193.84402 153.29565Q193.84402 154.0769 194.34402 154.56128Q194.85965 155.03003 195.71902 155.03003Q196.6409 155.03003 197.12527 154.54565Q197.60965 154.06128 197.60965 153.17065Q197.60965 152.31128 197.0784 151.84253Q196.54715 151.37378 195.53152 151.35815L194.59402 151.35815L194.59402 150.3269ZM206.09402 152.5769L207.46902 152.5769L207.46902 153.60815L206.09402 153.60815L206.09402 155.92065L204.81277 155.92065L204.81277 153.60815L200.28152 153.60815L200.28152 152.85815L204.73465 145.96753L206.09402 145.96753L206.09402 152.5769ZM201.71902 152.5769L204.81277 152.5769L204.81277 147.7019L204.67215 147.96753L201.71902 152.5769ZM208.90652 155.2644Q208.90652 154.93628 209.09402 154.71753Q209.29715 154.49878 209.68777 154.49878Q210.0784 154.49878 210.28152 154.71753Q210.48465 154.93628 210.48465 155.2644Q210.48465 155.5769 210.28152 155.79565Q210.0784 155.99878 209.68777 155.99878Q209.29715 155.99878 209.09402 155.79565Q208.90652 155.5769 208.90652 155.2644ZM213.3284 150.93628L213.84402 145.96753L218.93777 145.96753L218.93777 147.1394L214.90652 147.1394L214.60965 149.84253Q215.34402 149.42065 216.2659 149.42065Q217.62527 149.42065 218.42215 150.3269Q219.23465 151.21753 219.23465 152.74878Q219.23465 154.28003 218.3909 155.17065Q217.56277 156.06128 216.0784 156.06128Q214.7659 156.06128 213.92215 155.3269Q213.09402 154.59253 212.96902 153.29565L214.17215 153.29565Q214.28152 154.15503 214.7659 154.59253Q215.2659 155.03003 216.0784 155.03003Q216.9534 155.03003 217.4534 154.43628Q217.96902 153.8269 217.96902 152.7644Q217.96902 151.7644 217.42215 151.17065Q216.87527 150.56128 215.96902 150.56128Q215.15652 150.56128 214.67215 150.92065L214.34402 151.18628L213.3284 150.93628ZM220.6409 147.87378Q220.6409 146.98315 221.2034 146.40503Q221.78152 145.8269 222.67215 145.8269Q223.59402 145.8269 224.15652 146.42065Q224.71902 146.99878 224.71902 147.92065L224.71902 148.40503Q224.71902 149.31128 224.1409 149.8894Q223.5784 150.4519 222.68777 150.4519Q221.79715 150.4519 221.21902 149.8894Q220.6409 149.31128 220.6409 148.35815L220.6409 147.87378ZM221.5784 148.40503Q221.5784 148.93628 221.87527 149.28003Q222.18777 149.62378 222.68777 149.62378Q223.17215 149.62378 223.46902 149.29565Q223.7659 148.96753 223.7659 148.37378L223.7659 147.87378Q223.7659 147.34253 223.46902 146.99878Q223.18777 146.65503 222.67215 146.65503Q222.17215 146.65503 221.87527 146.99878Q221.5784 147.34253 221.5784 147.90503L221.5784 148.40503ZM225.48465 153.48315Q225.48465 152.5769 226.04715 152.0144Q226.62527 151.43628 227.5159 151.43628Q228.42215 151.43628 228.98465 152.0144Q229.56277 152.5769 229.56277 153.53003L229.56277 154.0144Q229.56277 154.90503 228.98465 155.48315Q228.42215 156.06128 227.53152 156.06128Q226.65652 156.06128 226.06277 155.49878Q225.48465 154.92065 225.48465 153.96753L225.48465 153.48315ZM226.43777 154.0144Q226.43777 154.54565 226.73465 154.90503Q227.03152 155.24878 227.53152 155.24878Q228.03152 155.24878 228.3284 154.90503Q228.62527 154.56128 228.62527 153.98315L228.62527 153.48315Q228.62527 152.93628 228.31277 152.59253Q228.0159 152.24878 227.53152 152.24878Q227.03152 152.24878 226.73465 152.59253Q226.43777 152.93628 226.43777 153.5144L226.43777 154.0144ZM222.98465 155.17065L222.2659 154.71753L227.12527 146.93628L227.84402 147.3894L222.98465 155.17065ZM233.79715 151.9519Q233.79715 153.46753 233.3909 154.87378Q233.00027 156.2644 232.17215 157.4519Q231.34402 158.6394 230.4534 159.1394L230.18777 158.35815Q231.23465 157.56128 231.87527 155.85815Q232.5159 154.15503 232.53152 152.09253L232.53152 151.87378Q232.53152 150.43628 232.21902 149.2019Q231.92215 147.96753 231.3909 146.99878Q230.85965 146.0144 230.18777 145.46753L230.4534 144.68628Q231.34402 145.18628 232.15652 146.35815Q232.98465 147.53003 233.3909 148.93628Q233.79715 150.34253 233.79715 151.9519Z" fill-rule="nonzero"/><path fill="#757575" d="M31.14375 129.98395L19.971874 129.98395L19.971874 128.42145L25.878124 121.85895Q27.190624 120.37457 27.690624 119.4527Q28.190624 118.5152 28.190624 117.5152Q28.190624 116.17145 27.378124 115.3277Q26.565624 114.46832 25.221874 114.46832Q23.596874 114.46832 22.70625 115.3902Q21.815624 116.31207 21.815624 117.9527L19.64375 117.9527Q19.64375 115.59332 21.159374 114.1402Q22.675 112.68707 25.221874 112.68707Q27.596874 112.68707 28.971874 113.93707Q30.3625 115.18707 30.3625 117.24957Q30.3625 119.78082 27.159374 123.24957L22.58125 128.21832L31.14375 128.21832L31.14375 129.98395ZM43.675 122.7027Q43.675 126.5152 42.3625 128.37457Q41.065624 130.21832 38.3 130.21832Q35.565624 130.21832 34.253124 128.40582Q32.940624 126.59332 32.89375 122.99957L32.89375 120.10895Q32.89375 116.34332 34.190624 114.5152Q35.503124 112.68707 38.284374 112.68707Q41.034374 112.68707 42.33125 114.4527Q43.628124 116.21832 43.675 119.8902L43.675 122.7027ZM41.503124 119.73395Q41.503124 116.98395 40.721874 115.73395Q39.95625 114.46832 38.284374 114.46832Q36.6125 114.46832 35.846874 115.71832Q35.096874 116.96832 35.065624 119.5777L35.065624 123.04645Q35.065624 125.81207 35.8625 127.1402Q36.675 128.4527 38.3 128.4527Q39.909374 128.4527 40.690624 127.21832Q41.471874 125.96832 41.503124 123.29645L41.503124 119.73395ZM53.096874 129.98395L50.909374 129.98395L50.909374 115.53082L46.55 117.1402L46.55 115.17145L52.753124 112.84332L53.096874 112.84332L53.096874 129.98395ZM59.971874 121.42145L60.83125 112.92145L69.58125 112.92145L69.58125 114.92145L62.675 114.92145L62.159374 119.5777Q63.409374 118.84332 65.00313 118.84332Q67.33125 118.84332 68.70625 120.3902Q70.08125 121.92145 70.08125 124.54645Q70.08125 127.18707 68.65938 128.7027Q67.2375 130.21832 64.675 130.21832Q62.409374 130.21832 60.971874 128.96832Q59.55 127.7027 59.3625 125.49957L61.409374 125.49957Q61.6125 126.9527 62.45625 127.7027Q63.3 128.4527 64.675 128.4527Q66.19063 128.4527 67.05 127.42145Q67.90938 126.3902 67.90938 124.56207Q67.90938 122.85895 66.97188 121.8277Q66.05 120.78082 64.50313 120.78082Q63.08125 120.78082 62.26875 121.40582L61.70625 121.87457L59.971874 121.42145Z" fill-rule="nonzero"/><path fill="#9e9e9e" d="M23.128124 152.3902L24.753124 152.3902Q26.284374 152.37457 27.159374 151.59332Q28.05 150.79645 28.05 149.46832Q28.05 146.46832 25.05 146.46832Q23.64375 146.46832 22.8 147.28082Q21.971874 148.0777 21.971874 149.3902L19.8 149.3902Q19.8 147.37457 21.284374 146.03082Q22.76875 144.68707 25.05 144.68707Q27.471874 144.68707 28.83125 145.96832Q30.20625 147.23395 30.20625 149.5152Q30.20625 150.62457 29.4875 151.67145Q28.76875 152.71832 27.534374 153.23395Q28.940624 153.67145 29.70625 154.7027Q30.471874 155.73395 30.471874 157.21832Q30.471874 159.5152 28.971874 160.87457Q27.471874 162.21832 25.065624 162.21832Q22.659374 162.21832 21.159374 160.92145Q19.659374 159.60895 19.659374 157.48395L21.83125 157.48395Q21.83125 158.8277 22.70625 159.6402Q23.596874 160.4527 25.065624 160.4527Q26.64375 160.4527 27.471874 159.6402Q28.3 158.81207 28.3 157.2652Q28.3 155.78082 27.378124 154.98395Q26.471874 154.18707 24.753124 154.17145L23.128124 154.17145L23.128124 152.3902ZM42.128124 156.24957L44.4875 156.24957L44.4875 158.0152L42.128124 158.0152L42.128124 161.98395L39.940624 161.98395L39.940624 158.0152L32.175 158.0152L32.175 156.74957L39.815624 144.92145L42.128124 144.92145L42.128124 156.24957ZM34.628124 156.24957L39.940624 156.24957L39.940624 147.8902L39.690624 148.35895L34.628124 156.24957ZM46.2375 160.84332Q46.2375 160.28082 46.565624 159.90582Q46.909374 159.53082 47.565624 159.53082Q48.2375 159.53082 48.58125 159.90582Q48.940624 160.28082 48.940624 160.84332Q48.940624 161.3902 48.58125 161.74957Q48.2375 162.10895 47.565624 162.10895Q46.909374 162.10895 46.565624 161.74957Q46.2375 161.3902 46.2375 160.84332ZM52.971874 153.42145L53.83125 144.92145L62.58125 144.92145L62.58125 146.92145L55.675 146.92145L55.159374 151.5777Q56.409374 150.84332 58.003124 150.84332Q60.33125 150.84332 61.70625 152.3902Q63.08125 153.92145 63.08125 156.54645Q63.08125 159.18707 61.659374 160.7027Q60.2375 162.21832 57.675 162.21832Q55.409374 162.21832 53.971874 160.96832Q52.55 159.7027 52.3625 157.49957L54.409374 157.49957Q54.6125 158.9527 55.45625 159.7027Q56.3 160.4527 57.675 160.4527Q59.190624 160.4527 60.05 159.42145Q60.909374 158.3902 60.909374 156.56207Q60.909374 154.85895 59.971874 153.8277Q59.05 152.78082 57.503124 152.78082Q56.08125 152.78082 55.26875 153.40582L54.70625 153.87457L52.971874 153.42145ZM64.78438 148.2027Q64.78438 146.67145 65.75313 145.67145Q66.7375 144.67145 68.26875 144.67145Q69.83125 144.67145 70.8 145.67145Q71.76875 146.67145 71.76875 148.2652L71.76875 149.10895Q71.76875 150.65582 70.78438 151.6402Q69.81563 152.60895 68.3 152.60895Q66.76875 152.60895 65.76875 151.6402Q64.78438 150.65582 64.78438 149.0152L64.78438 148.2027ZM66.39375 149.10895Q66.39375 150.0152 66.90938 150.60895Q67.425 151.2027 68.3 151.2027Q69.12813 151.2027 69.62813 150.62457Q70.14375 150.04645 70.14375 149.06207L70.14375 148.2027Q70.14375 147.28082 69.64375 146.68707Q69.14375 146.09332 68.26875 146.09332Q67.40938 146.09332 66.89375 146.68707Q66.39375 147.28082 66.39375 148.24957L66.39375 149.10895ZM73.09688 157.79645Q73.09688 156.2652 74.06563 155.28082Q75.05 154.28082 76.58125 154.28082Q78.1125 154.28082 79.09688 155.2652Q80.08125 156.24957 80.08125 157.87457L80.08125 158.71832Q80.08125 160.24957 79.09688 161.24957Q78.12813 162.23395 76.59688 162.23395Q75.08125 162.23395 74.08125 161.24957Q73.09688 160.2652 73.09688 158.6402L73.09688 157.79645ZM74.70625 158.71832Q74.70625 159.6402 75.22188 160.23395Q75.7375 160.8277 76.6125 160.8277Q77.45625 160.8277 77.95625 160.24957Q78.45625 159.65582 78.45625 158.67145L78.45625 157.79645Q78.45625 156.87457 77.94063 156.29645Q77.44063 155.7027 76.58125 155.7027Q75.75313 155.7027 75.22188 156.28082Q74.70625 156.85895 74.70625 157.84332L74.70625 158.71832ZM68.78438 160.68707L67.56563 159.92145L75.89375 146.5777L77.12813 147.35895L68.78438 160.68707Z" fill-rule="nonzero"/><path stroke="#757575" stroke-width="1.0" stroke-linecap="butt" d="M18.55 137.48395L145.23334 137.48395L175.13472 137.48395" fill-rule="nonzero"/><path fill="#9e9e9e" d="M177.13472 137.48395C177.13472 136.37938 176.23929 135.48395 175.13472 135.48395C174.03015 135.48395 173.13472 136.37938 173.13472 137.48395C173.13472 138.58852 174.03015 139.48395 175.13472 139.48395C176.23929 139.48395 177.13472 138.58852 177.13472 137.48395" fill-rule="nonzero"/><path fill="#757575" d="M542.04376 77.916664L530.8719 77.916664L530.8719 76.354164L536.77814 69.791664Q538.09064 68.30729 538.59064 67.385414Q539.09064 66.447914 539.09064 65.447914Q539.09064 64.104164 538.27814 63.260414Q537.46564 62.40104 536.1219 62.40104Q534.4969 62.40104 533.60626 63.322914Q532.71564 64.24479 532.71564 65.885414L530.54376 65.885414Q530.54376 63.52604 532.0594 62.072914Q533.575 60.61979 536.1219 60.61979Q538.4969 60.61979 539.8719 61.86979Q541.2625 63.11979 541.2625 65.18229Q541.2625 67.71354 538.0594 71.18229L533.48126 76.15104L542.04376 76.15104L542.04376 77.916664ZM554.575 70.635414Q554.575 74.447914 553.2625 76.30729Q551.96564 78.15104 549.2 78.15104Q546.46564 78.15104 545.15314 76.33854Q543.84064 74.52604 543.79376 70.93229L543.79376 68.041664Q543.79376 64.27604 545.09064 62.447914Q546.40314 60.61979 549.1844 60.61979Q551.9344 60.61979 553.23126 62.385414Q554.52814 64.15104 554.575 67.822914L554.575 70.635414ZM552.40314 67.666664Q552.40314 64.916664 551.6219 63.666664Q550.85626 62.40104 549.1844 62.40104Q547.5125 62.40104 546.7469 63.65104Q545.9969 64.90104 545.96564 67.510414L545.96564 70.979164Q545.96564 73.74479 546.7625 75.072914Q547.575 76.385414 549.2 76.385414Q550.8094 76.385414 551.59064 75.15104Q552.3719 73.90104 552.40314 71.229164L552.40314 67.666664ZM567.575 70.635414Q567.575 74.447914 566.2625 76.30729Q564.96564 78.15104 562.2 78.15104Q559.46564 78.15104 558.15314 76.33854Q556.84064 74.52604 556.79376 70.93229L556.79376 68.041664Q556.79376 64.27604 558.09064 62.447914Q559.40314 60.61979 562.1844 60.61979Q564.9344 60.61979 566.23126 62.385414Q567.52814 64.15104 567.575 67.822914L567.575 70.635414ZM565.40314 67.666664Q565.40314 64.916664 564.6219 63.666664Q563.85626 62.40104 562.1844 62.40104Q560.5125 62.40104 559.7469 63.65104Q558.9969 64.90104 558.96564 67.510414L558.96564 70.979164Q558.96564 73.74479 559.7625 75.072914Q560.575 76.385414 562.2 76.385414Q563.8094 76.385414 564.59064 75.15104Q565.3719 73.90104 565.40314 71.229164L565.40314 67.666664ZM580.8875 62.072914L573.825 77.916664L571.54376 77.916664L578.59064 62.635414L569.35626 62.635414L569.35626 60.854164L580.8875 60.854164L580.8875 62.072914Z" fill-rule="nonzero"/><path fill="#9e9e9e" d="M526.9969 109.916664L524.8094 109.916664L524.8094 95.46354L520.45 97.072914L520.45 95.104164L526.65314 92.77604L526.9969 92.77604L526.9969 109.916664ZM543.575 102.635414Q543.575 106.447914 542.2625 108.30729Q540.96564 110.15104 538.2 110.15104Q535.46564 110.15104 534.15314 108.33854Q532.84064 106.52604 532.79376 102.93229L532.79376 100.041664Q532.79376 96.27604 534.09064 94.447914Q535.40314 92.61979 538.1844 92.61979Q540.9344 92.61979 542.23126 94.385414Q543.52814 96.15104 543.575 99.822914L543.575 102.635414ZM541.40314 99.666664Q541.40314 96.916664 540.6219 95.666664Q539.85626 94.40104 538.1844 94.40104Q536.5125 94.40104 535.7469 95.65104Q534.9969 96.90104 534.96564 99.510414L534.96564 102.979164Q534.96564 105.74479 535.7625 107.072914Q536.575 108.385414 538.2 108.385414Q539.8094 108.385414 540.59064 107.15104Q541.3719 105.90104 541.40314 103.229164L541.40314 99.666664ZM546.1375 108.77604Q546.1375 108.21354 546.46564 107.83854Q546.8094 107.46354 547.46564 107.46354Q548.1375 107.46354 548.48126 107.83854Q548.84064 108.21354 548.84064 108.77604Q548.84064 109.322914 548.48126 109.68229Q548.1375 110.041664 547.46564 110.041664Q546.8094 110.041664 546.46564 109.68229Q546.1375 109.322914 546.1375 108.77604ZM555.02814 100.322914L556.65314 100.322914Q558.1844 100.30729 559.0594 99.52604Q559.95 98.729164 559.95 97.40104Q559.95 94.40104 556.95 94.40104Q555.54376 94.40104 554.7 95.21354Q553.8719 96.010414 553.8719 97.322914L551.7 97.322914Q551.7 95.30729 553.1844 93.96354Q554.66876 92.61979 556.95 92.61979Q559.3719 92.61979 560.73126 93.90104Q562.10626 95.166664 562.10626 97.447914Q562.10626 98.55729 561.3875 99.604164Q560.66876 100.65104 559.4344 101.166664Q560.84064 101.604164 561.60626 102.635414Q562.3719 103.666664 562.3719 105.15104Q562.3719 107.447914 560.8719 108.80729Q559.3719 110.15104 556.96564 110.15104Q554.5594 110.15104 553.0594 108.854164Q551.5594 107.541664 551.5594 105.416664L553.73126 105.416664Q553.73126 106.760414 554.60626 107.572914Q555.4969 108.385414 556.96564 108.385414Q558.54376 108.385414 559.3719 107.572914Q560.2 106.74479 560.2 105.197914Q560.2 103.71354 559.27814 102.916664Q558.3719 102.11979 556.65314 102.104164L555.02814 102.104164L555.02814 100.322914ZM564.6844 96.135414Q564.6844 94.604164 565.65314 93.604164Q566.6375 92.604164 568.16876 92.604164Q569.73126 92.604164 570.7 93.604164Q571.66876 94.604164 571.66876 96.197914L571.66876 97.041664Q571.66876 98.58854 570.6844 99.572914Q569.71564 100.541664 568.2 100.541664Q566.66876 100.541664 565.66876 99.572914Q564.6844 98.58854 564.6844 96.947914L564.6844 96.135414ZM566.29376 97.041664Q566.29376 97.947914 566.8094 98.541664Q567.325 99.135414 568.2 99.135414Q569.02814 99.135414 569.52814 98.55729Q570.04376 97.979164 570.04376 96.99479L570.04376 96.135414Q570.04376 95.21354 569.54376 94.61979Q569.04376 94.02604 568.16876 94.02604Q567.3094 94.02604 566.79376 94.61979Q566.29376 95.21354 566.29376 96.18229L566.29376 97.041664ZM572.9969 105.729164Q572.9969 104.197914 573.96564 103.21354Q574.95 102.21354 576.48126 102.21354Q578.0125 102.21354 578.9969 103.197914Q579.98126 104.18229 579.98126 105.80729L579.98126 106.65104Q579.98126 108.18229 578.9969 109.18229Q578.02814 110.166664 576.4969 110.166664Q574.98126 110.166664 573.98126 109.18229Q572.9969 108.197914 572.9969 106.572914L572.9969 105.729164ZM574.60626 106.65104Q574.60626 107.572914 575.1219 108.166664Q575.6375 108.760414 576.5125 108.760414Q577.35626 108.760414 577.85626 108.18229Q578.35626 107.58854 578.35626 106.604164L578.35626 105.729164Q578.35626 104.80729 577.84064 104.229164Q577.34064 103.635414 576.48126 103.635414Q575.65314 103.635414 575.1219 104.21354Q574.60626 104.791664 574.60626 105.77604L574.60626 106.65104ZM568.6844 108.61979L567.46564 107.854164L575.79376 94.510414L577.02814 95.291664L568.6844 108.61979Z" fill-rule="nonzero"/><path stroke="#757575" stroke-width="1.0" stroke-linecap="butt" d="M581.45 85.416664L454.76666 85.416664L345.12634 69.75309" fill-rule="nonzero"/><path fill="#9e9e9e" d="M347.12634 69.75309C347.12634 68.64852 346.23093 67.75309 345.12634 67.75309C344.0218 67.75309 343.12634 68.64852 343.12634 69.75309C343.12634 70.85766 344.0218 71.75309 345.12634 71.75309C346.23093 71.75309 347.12634 70.85766 347.12634 69.75309" fill-rule="nonzero"/><path fill="#757575" d="M542.04376 138.91667L530.8719 138.91667L530.8719 137.35417L536.77814 130.79167Q538.09064 129.3073 538.59064 128.38542Q539.09064 127.44792 539.09064 126.44792Q539.09064 125.10417 538.27814 124.26042Q537.46564 123.40105 536.1219 123.40105Q534.4969 123.40105 533.60626 124.32292Q532.71564 125.2448 532.71564 126.88542L530.54376 126.88542Q530.54376 124.52605 532.0594 123.07292Q533.575 121.6198 536.1219 121.6198Q538.4969 121.6198 539.8719 122.8698Q541.2625 124.1198 541.2625 126.1823Q541.2625 128.71355 538.0594 132.1823L533.48126 137.15105L542.04376 137.15105L542.04376 138.91667ZM554.575 131.63542Q554.575 135.44792 553.2625 137.3073Q551.96564 139.15105 549.2 139.15105Q546.46564 139.15105 545.15314 137.33855Q543.84064 135.52605 543.79376 131.9323L543.79376 129.04167Q543.79376 125.27605 545.09064 123.44792Q546.40314 121.6198 549.1844 121.6198Q551.9344 121.6198 553.23126 123.38542Q554.52814 125.15105 554.575 128.82292L554.575 131.63542ZM552.40314 128.66667Q552.40314 125.91667 551.6219 124.66667Q550.85626 123.40105 549.1844 123.40105Q547.5125 123.40105 546.7469 124.65105Q545.9969 125.90105 545.96564 128.51042L545.96564 131.97917Q545.96564 134.7448 546.7625 136.07292Q547.575 137.38542 549.2 137.38542Q550.8094 137.38542 551.59064 136.15105Q552.3719 134.90105 552.40314 132.22917L552.40314 128.66667ZM567.575 131.63542Q567.575 135.44792 566.2625 137.3073Q564.96564 139.15105 562.2 139.15105Q559.46564 139.15105 558.15314 137.33855Q556.84064 135.52605 556.79376 131.9323L556.79376 129.04167Q556.79376 125.27605 558.09064 123.44792Q559.40314 121.6198 562.1844 121.6198Q564.9344 121.6198 566.23126 123.38542Q567.52814 125.15105 567.575 128.82292L567.575 131.63542ZM565.40314 128.66667Q565.40314 125.91667 564.6219 124.66667Q563.85626 123.40105 562.1844 123.40105Q560.5125 123.40105 559.7469 124.65105Q558.9969 125.90105 558.96564 128.51042L558.96564 131.97917Q558.96564 134.7448 559.7625 136.07292Q560.575 137.38542 562.2 137.38542Q563.8094 137.38542 564.59064 136.15105Q565.3719 134.90105 565.40314 132.22917L565.40314 128.66667ZM578.1844 131.41667Q577.4969 132.22917 576.54376 132.72917Q575.60626 133.21355 574.48126 133.21355Q573.0125 133.21355 571.91876 132.4948Q570.825 131.76042 570.21564 130.44792Q569.6219 129.1198 569.6219 127.52605Q569.6219 125.8073 570.2625 124.44792Q570.91876 123.07292 572.10626 122.35417Q573.3094 121.6198 574.90314 121.6198Q577.4344 121.6198 578.8875 123.51042Q580.35626 125.40105 580.35626 128.66667L580.35626 129.3073Q580.35626 134.29167 578.3875 136.58855Q576.41876 138.8698 572.45 138.9323L572.02814 138.9323L572.02814 137.10417L572.48126 137.10417Q575.16876 137.0573 576.60626 135.69792Q578.04376 134.33855 578.1844 131.41667ZM574.84064 131.41667Q575.9344 131.41667 576.84064 130.7448Q577.7625 130.07292 578.1844 129.08855L578.1844 128.22917Q578.1844 126.08855 577.2625 124.76042Q576.34064 123.41667 574.91876 123.41667Q573.4969 123.41667 572.6219 124.52605Q571.7625 125.6198 571.7625 127.40105Q571.7625 129.15105 572.59064 130.29167Q573.4344 131.41667 574.84064 131.41667Z" fill-rule="nonzero"/><path fill="#9e9e9e" d="M536.02814 161.32292L537.65314 161.32292Q539.1844 161.3073 540.0594 160.52605Q540.95 159.72917 540.95 158.40105Q540.95 155.40105 537.95 155.40105Q536.54376 155.40105 535.7 156.21355Q534.8719 157.01042 534.8719 158.32292L532.7 158.32292Q532.7 156.3073 534.1844 154.96355Q535.66876 153.6198 537.95 153.6198Q540.3719 153.6198 541.73126 154.90105Q543.10626 156.16667 543.10626 158.44792Q543.10626 159.5573 542.3875 160.60417Q541.66876 161.65105 540.4344 162.16667Q541.84064 162.60417 542.60626 163.63542Q543.3719 164.66667 543.3719 166.15105Q543.3719 168.44792 541.8719 169.8073Q540.3719 171.15105 537.96564 171.15105Q535.5594 171.15105 534.0594 169.85417Q532.5594 168.54167 532.5594 166.41667L534.73126 166.41667Q534.73126 167.76042 535.60626 168.57292Q536.4969 169.38542 537.96564 169.38542Q539.54376 169.38542 540.3719 168.57292Q541.2 167.7448 541.2 166.19792Q541.2 164.71355 540.27814 163.91667Q539.3719 163.1198 537.65314 163.10417L536.02814 163.10417L536.02814 161.32292ZM546.1375 169.77605Q546.1375 169.21355 546.46564 168.83855Q546.8094 168.46355 547.46564 168.46355Q548.1375 168.46355 548.48126 168.83855Q548.84064 169.21355 548.84064 169.77605Q548.84064 170.32292 548.48126 170.6823Q548.1375 171.04167 547.46564 171.04167Q546.8094 171.04167 546.46564 170.6823Q546.1375 170.32292 546.1375 169.77605ZM561.02814 165.1823L563.3875 165.1823L563.3875 166.94792L561.02814 166.94792L561.02814 170.91667L558.84064 170.91667L558.84064 166.94792L551.075 166.94792L551.075 165.6823L558.71564 153.85417L561.02814 153.85417L561.02814 165.1823ZM553.52814 165.1823L558.84064 165.1823L558.84064 156.82292L558.59064 157.29167L553.52814 165.1823ZM564.6844 157.13542Q564.6844 155.60417 565.65314 154.60417Q566.6375 153.60417 568.16876 153.60417Q569.73126 153.60417 570.7 154.60417Q571.66876 155.60417 571.66876 157.19792L571.66876 158.04167Q571.66876 159.58855 570.6844 160.57292Q569.71564 161.54167 568.2 161.54167Q566.66876 161.54167 565.66876 160.57292Q564.6844 159.58855 564.6844 157.94792L564.6844 157.13542ZM566.29376 158.04167Q566.29376 158.94792 566.8094 159.54167Q567.325 160.13542 568.2 160.13542Q569.02814 160.13542 569.52814 159.5573Q570.04376 158.97917 570.04376 157.9948L570.04376 157.13542Q570.04376 156.21355 569.54376 155.6198Q569.04376 155.02605 568.16876 155.02605Q567.3094 155.02605 566.79376 155.6198Q566.29376 156.21355 566.29376 157.1823L566.29376 158.04167ZM572.9969 166.72917Q572.9969 165.19792 573.96564 164.21355Q574.95 163.21355 576.48126 163.21355Q578.0125 163.21355 578.9969 164.19792Q579.98126 165.1823 579.98126 166.8073L579.98126 167.65105Q579.98126 169.1823 578.9969 170.1823Q578.02814 171.16667 576.4969 171.16667Q574.98126 171.16667 573.98126 170.1823Q572.9969 169.19792 572.9969 167.57292L572.9969 166.72917ZM574.60626 167.65105Q574.60626 168.57292 575.1219 169.16667Q575.6375 169.76042 576.5125 169.76042Q577.35626 169.76042 577.85626 169.1823Q578.35626 168.58855 578.35626 167.60417L578.35626 166.72917Q578.35626 165.8073 577.84064 165.22917Q577.34064 164.63542 576.48126 164.63542Q575.65314 164.63542 575.1219 165.21355Q574.60626 165.79167 574.60626 166.77605L574.60626 167.65105ZM568.6844 169.6198L567.46564 168.85417L575.79376 155.51042L577.02814 156.29167L568.6844 169.6198Z" fill-rule="nonzero"/><path stroke="#757575" stroke-width="1.0" stroke-linecap="butt" d="M581.45 146.41667L454.76666 146.41667L397.1914 101.0796" fill-rule="nonzero"/><path fill="#9e9e9e" d="M399.1914 101.0796C399.1914 99.97503 398.296 99.0796 397.1914 99.0796C396.08685 99.0796 395.1914 99.97503 395.1914 101.0796C395.1914 102.18417 396.08685 103.0796 397.1914 103.0796C398.296 103.0796 399.1914 102.18417 399.1914 101.0796" fill-rule="nonzero"/><path fill="#757575" d="M542.04376 199.91667L530.8719 199.91667L530.8719 198.35417L536.77814 191.79167Q538.09064 190.3073 538.59064 189.38542Q539.09064 188.44792 539.09064 187.44792Q539.09064 186.10417 538.27814 185.26042Q537.46564 184.40105 536.1219 184.40105Q534.4969 184.40105 533.60626 185.32292Q532.71564 186.2448 532.71564 187.88542L530.54376 187.88542Q530.54376 185.52605 532.0594 184.07292Q533.575 182.6198 536.1219 182.6198Q538.4969 182.6198 539.8719 183.8698Q541.2625 185.1198 541.2625 187.1823Q541.2625 189.71355 538.0594 193.1823L533.48126 198.15105L542.04376 198.15105L542.04376 199.91667ZM554.575 192.63542Q554.575 196.44792 553.2625 198.3073Q551.96564 200.15105 549.2 200.15105Q546.46564 200.15105 545.15314 198.33855Q543.84064 196.52605 543.79376 192.9323L543.79376 190.04167Q543.79376 186.27605 545.09064 184.44792Q546.40314 182.6198 549.1844 182.6198Q551.9344 182.6198 553.23126 184.38542Q554.52814 186.15105 554.575 189.82292L554.575 192.63542ZM552.40314 189.66667Q552.40314 186.91667 551.6219 185.66667Q550.85626 184.40105 549.1844 184.40105Q547.5125 184.40105 546.7469 185.65105Q545.9969 186.90105 545.96564 189.51042L545.96564 192.97917Q545.96564 195.7448 546.7625 197.07292Q547.575 198.38542 549.2 198.38542Q550.8094 198.38542 551.59064 197.15105Q552.3719 195.90105 552.40314 193.22917L552.40314 189.66667ZM563.9969 199.91667L561.8094 199.91667L561.8094 185.46355L557.45 187.07292L557.45 185.10417L563.65314 182.77605L563.9969 182.77605L563.9969 199.91667ZM573.02814 190.32292L574.65314 190.32292Q576.1844 190.3073 577.0594 189.52605Q577.95 188.72917 577.95 187.40105Q577.95 184.40105 574.95 184.40105Q573.54376 184.40105 572.7 185.21355Q571.8719 186.01042 571.8719 187.32292L569.7 187.32292Q569.7 185.3073 571.1844 183.96355Q572.66876 182.6198 574.95 182.6198Q577.3719 182.6198 578.73126 183.90105Q580.10626 185.16667 580.10626 187.44792Q580.10626 188.5573 579.3875 189.60417Q578.66876 190.65105 577.4344 191.16667Q578.84064 191.60417 579.60626 192.63542Q580.3719 193.66667 580.3719 195.15105Q580.3719 197.44792 578.8719 198.8073Q577.3719 200.15105 574.96564 200.15105Q572.5594 200.15105 571.0594 198.85417Q569.5594 197.54167 569.5594 195.41667L571.73126 195.41667Q571.73126 196.76042 572.60626 197.57292Q573.4969 198.38542 574.96564 198.38542Q576.54376 198.38542 577.3719 197.57292Q578.2 196.7448 578.2 195.19792Q578.2 193.71355 577.27814 192.91667Q576.3719 192.1198 574.65314 192.10417L573.02814 192.10417L573.02814 190.32292Z" fill-rule="nonzero"/><path fill="#9e9e9e" d="M531.04376 231.91667L519.8719 231.91667L519.8719 230.35417L525.77814 223.79167Q527.09064 222.3073 527.59064 221.38542Q528.09064 220.44792 528.09064 219.44792Q528.09064 218.10417 527.27814 217.26042Q526.46564 216.40105 525.1219 216.40105Q523.4969 216.40105 522.60626 217.32292Q521.71564 218.2448 521.71564 219.88542L519.54376 219.88542Q519.54376 217.52605 521.0594 216.07292Q522.575 214.6198 525.1219 214.6198Q527.4969 214.6198 528.8719 215.8698Q530.2625 217.1198 530.2625 219.1823Q530.2625 221.71355 527.0594 225.1823L522.48126 230.15105L531.04376 230.15105L531.04376 231.91667ZM543.575 224.63542Q543.575 228.44792 542.2625 230.3073Q540.96564 232.15105 538.2 232.15105Q535.46564 232.15105 534.15314 230.33855Q532.84064 228.52605 532.79376 224.9323L532.79376 222.04167Q532.79376 218.27605 534.09064 216.44792Q535.40314 214.6198 538.1844 214.6198Q540.9344 214.6198 542.23126 216.38542Q543.52814 218.15105 543.575 221.82292L543.575 224.63542ZM541.40314 221.66667Q541.40314 218.91667 540.6219 217.66667Q539.85626 216.40105 538.1844 216.40105Q536.5125 216.40105 535.7469 217.65105Q534.9969 218.90105 534.96564 221.51042L534.96564 224.97917Q534.96564 227.7448 535.7625 229.07292Q536.575 230.38542 538.2 230.38542Q539.8094 230.38542 540.59064 229.15105Q541.3719 227.90105 541.40314 225.22917L541.40314 221.66667ZM546.1375 230.77605Q546.1375 230.21355 546.46564 229.83855Q546.8094 229.46355 547.46564 229.46355Q548.1375 229.46355 548.48126 229.83855Q548.84064 230.21355 548.84064 230.77605Q548.84064 231.32292 548.48126 231.6823Q548.1375 232.04167 547.46564 232.04167Q546.8094 232.04167 546.46564 231.6823Q546.1375 231.32292 546.1375 230.77605ZM562.8875 216.07292L555.825 231.91667L553.54376 231.91667L560.59064 216.63542L551.35626 216.63542L551.35626 214.85417L562.8875 214.85417L562.8875 216.07292ZM564.6844 218.13542Q564.6844 216.60417 565.65314 215.60417Q566.6375 214.60417 568.16876 214.60417Q569.73126 214.60417 570.7 215.60417Q571.66876 216.60417 571.66876 218.19792L571.66876 219.04167Q571.66876 220.58855 570.6844 221.57292Q569.71564 222.54167 568.2 222.54167Q566.66876 222.54167 565.66876 221.57292Q564.6844 220.58855 564.6844 218.94792L564.6844 218.13542ZM566.29376 219.04167Q566.29376 219.94792 566.8094 220.54167Q567.325 221.13542 568.2 221.13542Q569.02814 221.13542 569.52814 220.5573Q570.04376 219.97917 570.04376 218.9948L570.04376 218.13542Q570.04376 217.21355 569.54376 216.6198Q569.04376 216.02605 568.16876 216.02605Q567.3094 216.02605 566.79376 216.6198Q566.29376 217.21355 566.29376 218.1823L566.29376 219.04167ZM572.9969 227.72917Q572.9969 226.19792 573.96564 225.21355Q574.95 224.21355 576.48126 224.21355Q578.0125 224.21355 578.9969 225.19792Q579.98126 226.1823 579.98126 227.8073L579.98126 228.65105Q579.98126 230.1823 578.9969 231.1823Q578.02814 232.16667 576.4969 232.16667Q574.98126 232.16667 573.98126 231.1823Q572.9969 230.19792 572.9969 228.57292L572.9969 227.72917ZM574.60626 228.65105Q574.60626 229.57292 575.1219 230.16667Q575.6375 230.76042 576.5125 230.76042Q577.35626 230.76042 577.85626 230.1823Q578.35626 229.58855 578.35626 228.60417L578.35626 227.72917Q578.35626 226.8073 577.84064 226.22917Q577.34064 225.63542 576.48126 225.63542Q575.65314 225.63542 575.1219 226.21355Q574.60626 226.79167 574.60626 227.77605L574.60626 228.65105ZM568.6844 230.6198L567.46564 229.85417L575.79376 216.51042L577.02814 217.29167L568.6844 230.6198Z" fill-rule="nonzero"/><path stroke="#757575" stroke-width="1.0" stroke-linecap="butt" d="M581.45 207.41667L454.76666 207.41667L441.12106 196.03197" fill-rule="nonzero"/><path fill="#9e9e9e" d="M443.12106 196.03197C443.12106 194.9274 442.22565 194.03197 441.12106 194.03197C440.01648 194.03197 439.12106 194.9274 439.12106 196.03197C439.12106 197.13654 440.01648 198.03197 441.12106 198.03197C442.22565 198.03197 443.12106 197.13654 443.12106 196.03197" fill-rule="nonzero"/><path fill="#757575" d="M542.04376 314.45L530.8719 314.45L530.8719 312.8875L536.77814 306.325Q538.09064 304.84064 538.59064 303.91876Q539.09064 302.98126 539.09064 301.98126Q539.09064 300.6375 538.27814 299.79376Q537.46564 298.9344 536.1219 298.9344Q534.4969 298.9344 533.60626 299.85626Q532.71564 300.77814 532.71564 302.41876L530.54376 302.41876Q530.54376 300.0594 532.0594 298.60626Q533.575 297.15314 536.1219 297.15314Q538.4969 297.15314 539.8719 298.40314Q541.2625 299.65314 541.2625 301.71564Q541.2625 304.2469 538.0594 307.71564L533.48126 312.6844L542.04376 312.6844L542.04376 314.45ZM554.575 307.16876Q554.575 310.98126 553.2625 312.84064Q551.96564 314.6844 549.2 314.6844Q546.46564 314.6844 545.15314 312.8719Q543.84064 311.0594 543.79376 307.46564L543.79376 304.575Q543.79376 300.8094 545.09064 298.98126Q546.40314 297.15314 549.1844 297.15314Q551.9344 297.15314 553.23126 298.91876Q554.52814 300.6844 554.575 304.35626L554.575 307.16876ZM552.40314 304.2Q552.40314 301.45 551.6219 300.2Q550.85626 298.9344 549.1844 298.9344Q547.5125 298.9344 546.7469 300.1844Q545.9969 301.4344 545.96564 304.04376L545.96564 307.5125Q545.96564 310.27814 546.7625 311.60626Q547.575 312.91876 549.2 312.91876Q550.8094 312.91876 551.59064 311.6844Q552.3719 310.4344 552.40314 307.7625L552.40314 304.2ZM563.9969 314.45L561.8094 314.45L561.8094 299.9969L557.45 301.60626L557.45 299.6375L563.65314 297.3094L563.9969 297.3094L563.9969 314.45ZM579.02814 308.71564L581.3875 308.71564L581.3875 310.48126L579.02814 310.48126L579.02814 314.45L576.84064 314.45L576.84064 310.48126L569.075 310.48126L569.075 309.21564L576.71564 297.3875L579.02814 297.3875L579.02814 308.71564ZM571.52814 308.71564L576.84064 308.71564L576.84064 300.35626L576.59064 300.825L571.52814 308.71564Z" fill-rule="nonzero"/><path fill="#9e9e9e" d="M523.02814 336.85626L524.65314 336.85626Q526.1844 336.84064 527.0594 336.0594Q527.95 335.2625 527.95 333.9344Q527.95 330.9344 524.95 330.9344Q523.54376 330.9344 522.7 331.7469Q521.8719 332.54376 521.8719 333.85626L519.7 333.85626Q519.7 331.84064 521.1844 330.4969Q522.66876 329.15314 524.95 329.15314Q527.3719 329.15314 528.73126 330.4344Q530.10626 331.7 530.10626 333.98126Q530.10626 335.09064 529.3875 336.1375Q528.66876 337.1844 527.4344 337.7Q528.84064 338.1375 529.60626 339.16876Q530.3719 340.2 530.3719 341.6844Q530.3719 343.98126 528.8719 345.34064Q527.3719 346.6844 524.96564 346.6844Q522.5594 346.6844 521.0594 345.3875Q519.5594 344.075 519.5594 341.95L521.73126 341.95Q521.73126 343.29376 522.60626 344.10626Q523.4969 344.91876 524.96564 344.91876Q526.54376 344.91876 527.3719 344.10626Q528.2 343.27814 528.2 341.73126Q528.2 340.2469 527.27814 339.45Q526.3719 338.65314 524.65314 338.6375L523.02814 338.6375L523.02814 336.85626ZM539.9969 346.45L537.8094 346.45L537.8094 331.9969L533.45 333.60626L533.45 331.6375L539.65314 329.3094L539.9969 329.3094L539.9969 346.45ZM546.1375 345.3094Q546.1375 344.7469 546.46564 344.3719Q546.8094 343.9969 547.46564 343.9969Q548.1375 343.9969 548.48126 344.3719Q548.84064 344.7469 548.84064 345.3094Q548.84064 345.85626 548.48126 346.21564Q548.1375 346.575 547.46564 346.575Q546.8094 346.575 546.46564 346.21564Q546.1375 345.85626 546.1375 345.3094ZM562.575 339.16876Q562.575 342.98126 561.2625 344.84064Q559.96564 346.6844 557.2 346.6844Q554.46564 346.6844 553.15314 344.8719Q551.84064 343.0594 551.79376 339.46564L551.79376 336.575Q551.79376 332.8094 553.09064 330.98126Q554.40314 329.15314 557.1844 329.15314Q559.9344 329.15314 561.23126 330.91876Q562.52814 332.6844 562.575 336.35626L562.575 339.16876ZM560.40314 336.2Q560.40314 333.45 559.6219 332.2Q558.85626 330.9344 557.1844 330.9344Q555.5125 330.9344 554.7469 332.1844Q553.9969 333.4344 553.96564 336.04376L553.96564 339.5125Q553.96564 342.27814 554.7625 343.60626Q555.575 344.91876 557.2 344.91876Q558.8094 344.91876 559.59064 343.6844Q560.3719 342.4344 560.40314 339.7625L560.40314 336.2ZM564.6844 332.66876Q564.6844 331.1375 565.65314 330.1375Q566.6375 329.1375 568.16876 329.1375Q569.73126 329.1375 570.7 330.1375Q571.66876 331.1375 571.66876 332.73126L571.66876 333.575Q571.66876 335.1219 570.6844 336.10626Q569.71564 337.075 568.2 337.075Q566.66876 337.075 565.66876 336.10626Q564.6844 335.1219 564.6844 333.48126L564.6844 332.66876ZM566.29376 333.575Q566.29376 334.48126 566.8094 335.075Q567.325 335.66876 568.2 335.66876Q569.02814 335.66876 569.52814 335.09064Q570.04376 334.5125 570.04376 333.52814L570.04376 332.66876Q570.04376 331.7469 569.54376 331.15314Q569.04376 330.5594 568.16876 330.5594Q567.3094 330.5594 566.79376 331.15314Q566.29376 331.7469 566.29376 332.71564L566.29376 333.575ZM572.9969 342.2625Q572.9969 340.73126 573.96564 339.7469Q574.95 338.7469 576.48126 338.7469Q578.0125 338.7469 578.9969 339.73126Q579.98126 340.71564 579.98126 342.34064L579.98126 343.1844Q579.98126 344.71564 578.9969 345.71564Q578.02814 346.7 576.4969 346.7Q574.98126 346.7 573.98126 345.71564Q572.9969 344.73126 572.9969 343.10626L572.9969 342.2625ZM574.60626 343.1844Q574.60626 344.10626 575.1219 344.7Q575.6375 345.29376 576.5125 345.29376Q577.35626 345.29376 577.85626 344.71564Q578.35626 344.1219 578.35626 343.1375L578.35626 342.2625Q578.35626 341.34064 577.84064 340.7625Q577.34064 340.16876 576.48126 340.16876Q575.65314 340.16876 575.1219 340.7469Q574.60626 341.325 574.60626 342.3094L574.60626 343.1844ZM568.6844 345.15314L567.46564 344.3875L575.79376 331.04376L577.02814 331.825L568.6844 345.15314Z" fill-rule="nonzero"/><path stroke="#757575" stroke-width="1.0" stroke-linecap="butt" d="M581.45 321.95L454.76666 321.95L300.0 345.01166" fill-rule="nonzero"/><path fill="#9e9e9e" d="M302.0 345.01166C302.0 343.9071 301.10458 343.01166 300.0 343.01166C298.89542 343.01166 298.0 343.9071 298.0 345.01166C298.0 346.11624 298.89542 347.01166 300.0 347.01166C301.10458 347.01166 302.0 346.11624 302.0 345.01166" fill-rule="nonzero"/><path fill="#757575" d="M21.596874 37.940624Q25.659374 37.8625 28.003124 36.690624Q26.83125 35.675 25.1125 34.89375Q23.628124 35.909374 22.221874 36.45625L21.51875 35.128124Q24.565624 34.1125 26.440624 31.221874L21.596874 31.221874L21.596874 33.253124L20.034374 33.253124L20.034374 29.971874L36.909374 29.971874L36.909374 33.096874L35.346874 33.096874L35.346874 31.221874L28.08125 31.221874L27.3 32.39375L32.6125 32.39375L33.003124 32.003124L34.253124 32.940624Q34.565624 33.33125 33.940624 33.4875Q30.190624 38.878124 22.14375 39.503124L21.596874 37.940624ZM26.440624 33.64375L26.05 34.034374Q28.159374 34.815624 29.4875 35.83125Q31.20625 34.7375 31.83125 33.64375L26.440624 33.64375ZM34.8 29.034374L22.221874 29.034374L22.221874 25.128124L24.95625 25.128124L24.95625 24.034374L20.034374 24.034374L20.034374 22.784374L24.95625 22.784374L24.95625 21.221874L26.440624 21.221874Q27.065624 21.3 26.51875 21.690624L26.51875 22.784374L30.346874 22.784374L30.346874 21.221874L31.83125 21.221874Q32.45625 21.3 31.909374 21.690624L31.909374 22.784374L36.909374 22.784374L36.909374 24.034374L31.909374 24.034374L31.909374 25.128124L34.8 25.128124L34.8 29.034374ZM26.05 26.378124L23.784374 26.378124L23.784374 27.784374L26.05 27.784374L26.05 26.378124ZM27.378124 26.378124L27.378124 27.784374L29.565624 27.784374L29.565624 26.378124L27.378124 26.378124ZM33.2375 26.378124L30.89375 26.378124L30.89375 27.784374L33.2375 27.784374L33.2375 26.378124ZM30.346874 24.034374L26.51875 24.034374L26.51875 25.128124L30.346874 25.128124L30.346874 24.034374ZM53.08125 33.253124Q54.175 31.14375 54.409374 26.846874L51.753124 26.846874Q51.9875 31.14375 53.08125 33.253124ZM55.971874 26.846874Q55.815624 31.690624 54.096874 34.659374Q55.346874 36.221874 57.6125 37.39375L56.596874 39.1125Q54.096874 37.471874 53.08125 35.9875Q51.284374 38.01875 47.534374 39.503124L46.753124 37.940624Q50.815624 36.3 52.14375 34.58125Q50.815624 32.003124 50.659374 29.425Q50.190624 30.596874 49.721874 31.221874L48.39375 30.20625Q50.7375 26.76875 51.20625 21.690624L52.846874 22.08125Q53.315624 22.39375 52.6125 22.55Q52.378124 23.95625 51.9875 25.3625L57.3 25.3625L57.3 26.846874L55.971874 26.846874ZM48.70625 23.096874Q48.2375 24.26875 47.6125 25.05L46.3625 24.346874Q46.9875 23.33125 47.534374 22.003124L48.940624 22.70625Q49.253124 23.01875 48.70625 23.096874ZM43.70625 34.1125Q44.8 34.425 45.659374 34.815624Q46.284374 34.1125 46.675 32.70625L44.409374 32.70625Q44.096874 33.409374 43.70625 34.1125ZM42.6125 36.065624L41.3625 35.3625Q42.14375 34.190624 42.925 32.70625L39.95625 32.70625L39.95625 31.45625L43.39375 31.45625Q43.8625 30.440624 44.096874 29.7375L45.58125 30.128124Q45.89375 30.440624 45.346874 30.51875L44.878124 31.45625L49.33125 31.45625L49.33125 32.70625L48.159374 32.70625Q47.76875 34.26875 46.9875 35.3625Q47.690624 35.675 48.471874 36.14375L47.76875 37.39375Q46.909374 36.846874 46.20625 36.534374Q44.175 38.565624 40.7375 39.034374L40.190624 37.628124Q43.2375 37.315624 44.878124 35.909374Q44.01875 35.51875 43.159374 35.20625L42.6125 36.065624ZM44.175 21.378124L45.425 21.378124Q46.05 21.45625 45.503124 21.846874L45.503124 25.20625L49.4875 25.20625L49.4875 26.45625L46.20625 26.45625Q47.065624 27.471874 48.8625 28.409374L48.003124 29.7375Q46.675 28.95625 45.503124 27.55L45.503124 29.425L44.175 29.425L44.175 27.940624Q42.925 29.503124 40.7375 30.753124L39.721874 29.503124Q42.14375 28.253124 43.70625 26.45625L40.1125 26.45625L40.1125 25.20625L44.175 25.20625L44.175 21.378124ZM41.9875 24.971874Q41.440624 23.8 40.58125 22.940624L41.83125 22.159374Q42.76875 23.096874 43.2375 24.1125L41.9875 24.971874Z" fill-rule="nonzero"/><path fill="#757575" d="M65.20625 37.55L65.20625 23.33125L69.22188 23.33125Q71.06563 23.33125 72.4875 24.159374Q73.925 24.971874 74.69063 26.4875Q75.47188 28.003124 75.4875 29.95625L75.4875 30.8625Q75.4875 32.878124 74.70625 34.39375Q73.925 35.909374 72.4875 36.721874Q71.05 37.534374 69.14375 37.55L65.20625 37.55ZM67.08125 24.878124L67.08125 36.01875L69.05 36.01875Q71.22188 36.01875 72.425 34.675Q73.62813 33.315624 73.62813 30.83125L73.62813 30.003124Q73.62813 27.58125 72.4875 26.2375Q71.34688 24.89375 69.26875 24.878124L67.08125 24.878124ZM83.01875 28.596874Q82.6125 28.534374 82.14375 28.534374Q80.3625 28.534374 79.72188 30.05L79.72188 37.55L77.925 37.55L77.925 26.9875L79.675 26.9875L79.70625 28.20625Q80.59688 26.784374 82.22188 26.784374Q82.75313 26.784374 83.01875 26.925L83.01875 28.596874ZM89.3 37.753124Q87.15938 37.753124 85.8 36.346874Q84.45625 34.925 84.45625 32.565624L84.45625 32.221874Q84.45625 30.659374 85.05 29.425Q85.65938 28.190624 86.7375 27.4875Q87.81563 26.784374 89.08125 26.784374Q91.14375 26.784374 92.28438 28.14375Q93.425 29.503124 93.425 32.034374L93.425 32.784374L86.26875 32.784374Q86.3 34.346874 87.175 35.315624Q88.05 36.26875 89.39375 36.26875Q90.3625 36.26875 91.01875 35.878124Q91.69063 35.4875 92.19063 34.846874L93.28438 35.70625Q91.95625 37.753124 89.3 37.753124ZM89.08125 28.26875Q87.9875 28.26875 87.2375 29.065624Q86.50313 29.8625 86.33125 31.3L91.6125 31.3L91.6125 31.159374Q91.53438 29.784374 90.8625 29.034374Q90.20625 28.26875 89.08125 28.26875ZM102.44063 37.55Q102.28438 37.2375 102.19063 36.440624Q100.925 37.753124 99.175 37.753124Q97.6125 37.753124 96.6125 36.8625Q95.6125 35.971874 95.6125 34.6125Q95.6125 32.971874 96.8625 32.065624Q98.12813 31.14375 100.39375 31.14375L102.15938 31.14375L102.15938 30.315624Q102.15938 29.3625 101.58125 28.8Q101.01875 28.2375 99.925 28.2375Q98.95625 28.2375 98.3 28.7375Q97.64375 29.221874 97.64375 29.909374L95.83125 29.909374Q95.83125 29.128124 96.39375 28.39375Q96.95625 27.64375 97.90938 27.221874Q98.87813 26.784374 100.03438 26.784374Q101.8625 26.784374 102.89375 27.70625Q103.925 28.6125 103.97188 30.221874L103.97188 35.08125Q103.97188 36.534374 104.33125 37.39375L104.33125 37.55L102.44063 37.55ZM99.44063 36.175Q100.3 36.175 101.05 35.7375Q101.81563 35.3 102.15938 34.596874L102.15938 32.425L100.7375 32.425Q97.425 32.425 97.425 34.3625Q97.425 35.221874 97.9875 35.70625Q98.55 36.175 99.44063 36.175ZM108.6125 26.9875L108.65938 28.159374Q109.83125 26.784374 111.8 26.784374Q114.01875 26.784374 114.81563 28.4875Q115.34688 27.721874 116.19063 27.253124Q117.03438 26.784374 118.19063 26.784374Q121.65938 26.784374 121.72188 30.471874L121.72188 37.55L119.90938 37.55L119.90938 30.58125Q119.90938 29.440624 119.39375 28.878124Q118.87813 28.315624 117.65938 28.315624Q116.65938 28.315624 115.9875 28.925Q115.33125 29.51875 115.22188 30.534374L115.22188 37.55L113.40938 37.55L113.40938 30.628124Q113.40938 28.315624 111.14375 28.315624Q109.3625 28.315624 108.72188 29.83125L108.72188 37.55L106.90938 37.55L106.90938 26.9875L108.6125 26.9875ZM131.06563 34.753124Q131.06563 34.01875 130.51875 33.6125Q129.97188 33.20625 128.59688 32.909374Q127.22188 32.6125 126.40938 32.20625Q125.6125 31.8 125.22188 31.2375Q124.84688 30.659374 124.84688 29.878124Q124.84688 28.58125 125.94063 27.690624Q127.03438 26.784374 128.75313 26.784374Q130.55 26.784374 131.65938 27.721874Q132.78438 28.64375 132.78438 30.08125L130.95625 30.08125Q130.95625 29.346874 130.33125 28.815624Q129.70625 28.26875 128.75313 28.26875Q127.75313 28.26875 127.19063 28.70625Q126.64375 29.128124 126.64375 29.83125Q126.64375 30.471874 127.15938 30.815624Q127.675 31.14375 129.03438 31.45625Q130.39375 31.753124 131.22188 32.175Q132.06563 32.58125 132.47188 33.175Q132.87813 33.76875 132.87813 34.6125Q132.87813 36.034374 131.7375 36.89375Q130.6125 37.753124 128.8 37.753124Q127.53438 37.753124 126.55 37.3Q125.58125 36.846874 125.01875 36.05Q124.47188 35.2375 124.47188 34.3L126.28438 34.3Q126.33125 35.20625 127.00313 35.7375Q127.69063 36.26875 128.8 36.26875Q129.83125 36.26875 130.44063 35.8625Q131.06563 35.440624 131.06563 34.753124ZM139.84688 31.784374Q139.84688 29.565624 140.44063 27.534374Q141.03438 25.503124 142.20625 23.846874Q143.37813 22.190624 144.62813 21.503124L145.00313 22.690624Q143.58125 23.784374 142.65938 26.034374Q141.75313 28.284374 141.65938 31.065624L141.65938 31.89375Q141.65938 35.659374 143.03438 38.440624Q143.8625 40.096874 145.00313 41.034374L144.62813 42.14375Q143.33125 41.425 142.15938 39.721874Q139.84688 36.39375 139.84688 31.784374ZM156.05 37.55L146.7375 37.55L146.7375 36.253124L151.65938 30.784374Q152.75313 29.534374 153.15938 28.76875Q153.58125 27.9875 153.58125 27.159374Q153.58125 26.05 152.90938 25.33125Q152.2375 24.6125 151.1125 24.6125Q149.75313 24.6125 149.00313 25.39375Q148.26875 26.159374 148.26875 27.51875L146.45625 27.51875Q146.45625 25.55 147.72188 24.346874Q148.9875 23.128124 151.1125 23.128124Q153.09688 23.128124 154.2375 24.175Q155.39375 25.221874 155.39375 26.940624Q155.39375 29.05 152.72188 31.940624L148.90938 36.08125L156.05 36.08125L156.05 37.55ZM166.64375 31.4875Q166.64375 34.659374 165.56563 36.20625Q164.4875 37.753124 162.175 37.753124Q159.89375 37.753124 158.8 36.2375Q157.70625 34.721874 157.675 31.721874L157.675 29.315624Q157.675 26.175 158.75313 24.659374Q159.84688 23.128124 162.15938 23.128124Q164.45625 23.128124 165.53438 24.6125Q166.6125 26.08125 166.64375 29.14375L166.64375 31.4875ZM164.84688 29.01875Q164.84688 26.721874 164.19063 25.675Q163.55 24.6125 162.15938 24.6125Q160.76875 24.6125 160.12813 25.659374Q159.50313 26.70625 159.4875 28.878124L159.4875 31.76875Q159.4875 34.065624 160.14375 35.175Q160.81563 36.26875 162.175 36.26875Q163.51875 36.26875 164.15938 35.2375Q164.81563 34.20625 164.84688 31.971874L164.84688 29.01875ZM177.64375 31.4875Q177.64375 34.659374 176.56563 36.20625Q175.4875 37.753124 173.175 37.753124Q170.89375 37.753124 169.8 36.2375Q168.70625 34.721874 168.675 31.721874L168.675 29.315624Q168.675 26.175 169.75313 24.659374Q170.84688 23.128124 173.15938 23.128124Q175.45625 23.128124 176.53438 24.6125Q177.6125 26.08125 177.64375 29.14375L177.64375 31.4875ZM175.84688 29.01875Q175.84688 26.721874 175.19063 25.675Q174.55 24.6125 173.15938 24.6125Q171.76875 24.6125 171.12813 25.659374Q170.50313 26.70625 170.4875 28.878124L170.4875 31.76875Q170.4875 34.065624 171.14375 35.175Q171.81563 36.26875 173.175 36.26875Q174.51875 36.26875 175.15938 35.2375Q175.81563 34.20625 175.84688 31.971874L175.84688 29.01875ZM188.90938 24.346874L183.01875 37.55L181.12813 37.55L187.00313 24.815624L179.3 24.815624L179.3 23.33125L188.90938 23.33125L188.90938 24.346874ZM194.675 32.253124L189.90938 32.253124L189.90938 30.76875L194.675 30.76875L194.675 32.253124ZM206.05 37.55L196.7375 37.55L196.7375 36.253124L201.65938 30.784374Q202.75313 29.534374 203.15938 28.76875Q203.58125 27.9875 203.58125 27.159374Q203.58125 26.05 202.90938 25.33125Q202.2375 24.6125 201.1125 24.6125Q199.75313 24.6125 199.00313 25.39375Q198.26875 26.159374 198.26875 27.51875L196.45625 27.51875Q196.45625 25.55 197.72188 24.346874Q198.9875 23.128124 201.1125 23.128124Q203.09688 23.128124 204.2375 24.175Q205.39375 25.221874 205.39375 26.940624Q205.39375 29.05 202.72188 31.940624L198.90938 36.08125L206.05 36.08125L206.05 37.55ZM216.64375 31.4875Q216.64375 34.659374 215.56563 36.20625Q214.4875 37.753124 212.175 37.753124Q209.89375 37.753124 208.8 36.2375Q207.70625 34.721874 207.675 31.721874L207.675 29.315624Q207.675 26.175 208.75313 24.659374Q209.84688 23.128124 212.15938 23.128124Q214.45625 23.128124 215.53438 24.6125Q216.6125 26.08125 216.64375 29.14375L216.64375 31.4875ZM214.84688 29.01875Q214.84688 26.721874 214.19063 25.675Q213.55 24.6125 212.15938 24.6125Q210.76875 24.6125 210.12813 25.659374Q209.50313 26.70625 209.4875 28.878124L209.4875 31.76875Q209.4875 34.065624 210.14375 35.175Q210.81563 36.26875 212.175 36.26875Q213.51875 36.26875 214.15938 35.2375Q214.81563 34.20625 214.84688 31.971874L214.84688 29.01875ZM224.675 37.55L222.84688 37.55L222.84688 25.503124L219.20625 26.846874L219.20625 25.20625L224.39375 23.26875L224.675 23.26875L224.675 37.55ZM230.56563 30.425L231.28438 23.33125L238.56563 23.33125L238.56563 25.003124L232.81563 25.003124L232.39375 28.878124Q233.44063 28.26875 234.76875 28.26875Q236.70625 28.26875 237.84688 29.55Q238.9875 30.83125 238.9875 33.01875Q238.9875 35.221874 237.8 36.4875Q236.6125 37.753124 234.4875 37.753124Q232.59688 37.753124 231.40938 36.70625Q230.22188 35.659374 230.05 33.815624L231.76875 33.815624Q231.925 35.034374 232.62813 35.659374Q233.33125 36.26875 234.4875 36.26875Q235.75313 36.26875 236.47188 35.409374Q237.19063 34.55 237.19063 33.034374Q237.19063 31.6125 236.40938 30.753124Q235.62813 29.878124 234.34688 29.878124Q233.15938 29.878124 232.4875 30.39375L232.00313 30.784374L230.56563 30.425ZM245.08125 31.878124Q245.08125 34.05 244.50313 36.05Q243.94063 38.05 242.76875 39.7375Q241.59688 41.425 240.3 42.14375L239.925 41.034374Q241.425 39.878124 242.33125 37.45625Q243.25313 35.034374 243.26875 32.065624L243.26875 31.753124Q243.26875 29.70625 242.83125 27.940624Q242.40938 26.175 241.64375 24.784374Q240.87813 23.39375 239.925 22.6125L240.3 21.503124Q241.59688 22.221874 242.75313 23.89375Q243.925 25.55 244.50313 27.565624Q245.08125 29.58125 245.08125 31.878124Z" fill-rule="nonzero"/></svg>