<svg version="1.1" viewBox="0.0 0.0 600.0 371.0" fill="none" stroke="none" stroke-linecap="square" stroke-miterlimit="10" width="600" height="371" xmlns:xlink="http://www.w3.org/1999/xlink" xmlns="http://www.w3.org/2000/svg"><path fill="#ffffff" d="M0 0L600.0 0L600.0 371.0L0 371.0L0 0Z" fill-rule="nonzero"/><path fill="#4285f4" d="M300.0 54.916668C300.67783 54.916668 301.35565 54.9213 302.03342 54.930565L301.01672 129.30695C300.67783 129.30232 300.33893 129.3 300.0 129.3Z" fill-rule="nonzero"/><path fill="#db4437" d="M302.03342 54.930565C302.25934 54.93365 302.48526 54.937256 302.71118 54.941372L301.3556 129.31235C301.24265 129.31029 301.12967 129.30849 301.01672 129.30695Z" fill-rule="nonzero"/><path fill="#f4b400" d="M302.71118 54.941372C304.06662 54.96608 305.4217 55.00931 306.77597 55.07106L303.38797 129.3772C302.71085 129.34633 302.03333 129.3247 301.3556 129.31235Z" fill-rule="nonzero"/><path fill="#0f9d58" d="M306.77597 55.07106C308.8074 55.163685 310.83676 55.29795 312.8627 55.473778L306.43137 129.57855C305.41837 129.49065 304.40372 129.42351 303.38797 129.3772Z" fill-rule="nonzero"/><path fill="#ff6d00" d="M312.8627 55.473778C315.11377 55.669144 317.3601 55.915768 319.59995 56.21346L309.79996 129.9484C308.68005 129.79955 307.5569 129.67624 306.43137 129.57855Z" fill-rule="nonzero"/><path fill="#46bdc6" d="M319.59995 56.21346C337.3418 58.5715 354.51257 64.11172 370.28687 72.56782L335.14343 138.12558C327.2563 133.89752 318.6709 131.12741 309.79996 129.9484Z" fill-rule="nonzero"/><path fill="#ab30c4" d="M370.28687 72.56782C376.86142 76.09223 383.1616 80.10616 389.13403 84.57564L344.56702 144.12949C341.58078 141.89474 338.43073 139.88779 335.14343 138.12558Z" fill-rule="nonzero"/><path fill="#c1bc1f" d="M389.13403 84.57564C410.42532 100.508934 427.05646 121.85813 437.2961 146.40073L368.64807 175.04202C363.52823 162.77074 355.21268 152.09613 344.56702 144.12949Z" fill-rule="nonzero"/><path fill="#3949ab" d="M437.2961 146.40073C448.15637 172.43083 451.3932 201.01192 446.62912 228.81148L373.31454 216.2474C375.6966 202.34763 374.0782 188.05708 368.64807 175.04202Z" fill-rule="nonzero"/><path fill="#00695c" d="M210.054 322.17908C159.17578 283.55917 138.62984 216.77086 159.00401 156.23175C179.37819 95.69265 236.12442 54.916668 300.0 54.916668L300.0 129.3C268.0622 129.3 239.68909 149.68799 229.50201 179.95753C219.31493 210.2271 229.58789 243.62126 255.02701 262.9312Z" fill-rule="nonzero"/><path fill="#f975a8" d="M446.62912 228.81148C437.84912 280.04504 402.96448 322.98047 354.61337 342.0629C306.26227 361.1453 251.45752 353.60703 210.054 322.17908L255.02701 262.9312C275.72876 278.64517 303.13113 282.4143 327.3067 272.8731C351.48224 263.3319 368.92456 241.8642 373.31454 216.2474Z" fill-rule="nonzero"/><path fill="#ffffff" d="M382.35068 195.62775L381.08505 195.62775L381.08505 187.20587L378.52255 188.12775L378.52255 186.98712L382.14755 185.62775L382.35068 185.62775L382.35068 195.62775ZM392.71005 195.62775L386.19443 195.62775L386.19443 194.7215L389.63193 190.89337Q390.39755 190.01837 390.69443 189.48712Q390.9913 188.94025 390.9913 188.3465Q390.9913 187.58087 390.50693 187.08087Q390.03818 186.58087 389.25693 186.58087Q388.31943 186.58087 387.78818 187.11212Q387.27255 187.64337 387.27255 188.61212L386.00693 188.61212Q386.00693 187.23712 386.88193 186.39337Q387.77255 185.534 389.25693 185.534Q390.64755 185.534 391.44443 186.26837Q392.25693 186.98712 392.25693 188.20587Q392.25693 189.67462 390.38193 191.70587L387.72568 194.5965L392.71005 194.5965L392.71005 195.62775ZM399.53818 192.284L400.91318 192.284L400.91318 193.31525L399.53818 193.31525L399.53818 195.62775L398.25693 195.62775L398.25693 193.31525L393.72568 193.31525L393.72568 192.56525L398.1788 185.67462L399.53818 185.67462L399.53818 192.284ZM395.16318 192.284L398.25693 192.284L398.25693 187.409L398.1163 187.67462L395.16318 192.284ZM405.27255 191.58087Q405.27255 190.04962 405.6788 188.62775Q406.10068 187.20587 406.91318 186.04962Q407.7413 184.87775 408.63193 184.39337L408.88193 185.23712Q407.88193 186.00275 407.2413 187.58087Q406.6163 189.14337 406.5538 191.08087L406.53818 191.67462Q406.53818 194.31525 407.50693 196.25275Q408.08505 197.409 408.88193 198.06525L408.63193 198.8465Q407.71005 198.33087 406.88193 197.14337Q405.27255 194.81525 405.27255 191.58087ZM415.03818 191.25275Q414.64755 191.7215 414.08505 192.01837Q413.53818 192.29962 412.88193 192.29962Q412.02255 192.29962 411.38193 191.87775Q410.7413 191.45587 410.39755 190.69025Q410.0538 189.909 410.0538 188.98712Q410.0538 187.98712 410.4288 187.19025Q410.8038 186.37775 411.50693 185.95587Q412.21005 185.534 413.13193 185.534Q414.6163 185.534 415.46005 186.64337Q416.31943 187.75275 416.31943 189.659L416.31943 190.01837Q416.31943 192.92462 415.16318 194.26837Q414.02255 195.5965 411.69443 195.62775L411.44443 195.62775L411.44443 194.56525L411.72568 194.56525Q413.28818 194.534 414.1163 193.75275Q414.96005 192.95587 415.03818 191.25275ZM413.08505 191.25275Q413.72568 191.25275 414.25693 190.86212Q414.8038 190.4715 415.0538 189.89337L415.0538 189.39337Q415.0538 188.14337 414.50693 187.37775Q413.96005 186.5965 413.14755 186.5965Q412.3038 186.5965 411.78818 187.23712Q411.28818 187.86212 411.28818 188.909Q411.28818 189.94025 411.77255 190.5965Q412.27255 191.25275 413.08505 191.25275ZM418.35068 194.9715Q418.35068 194.64337 418.53818 194.42462Q418.7413 194.20587 419.13193 194.20587Q419.52255 194.20587 419.72568 194.42462Q419.9288 194.64337 419.9288 194.9715Q419.9288 195.284 419.72568 195.50275Q419.52255 195.70587 419.13193 195.70587Q418.7413 195.70587 418.53818 195.50275Q418.35068 195.284 418.35068 194.9715ZM428.4288 191.37775Q428.4288 193.5965 427.66318 194.69025Q426.91318 195.76837 425.3038 195.76837Q423.71005 195.76837 422.94443 194.7215Q422.1788 193.659 422.14755 191.54962L422.14755 189.86212Q422.14755 187.67462 422.89755 186.61212Q423.66318 185.534 425.28818 185.534Q426.89755 185.534 427.64755 186.56525Q428.41318 187.5965 428.4288 189.73712L428.4288 191.37775ZM427.16318 189.659Q427.16318 188.04962 426.71005 187.31525Q426.27255 186.58087 425.28818 186.58087Q424.31943 186.58087 423.8663 187.31525Q423.4288 188.034 423.41318 189.54962L423.41318 191.58087Q423.41318 193.19025 423.88193 193.9715Q424.35068 194.73712 425.3038 194.73712Q426.2413 194.73712 426.69443 194.01837Q427.14755 193.284 427.16318 191.7215L427.16318 189.659ZM430.08505 187.58087Q430.08505 186.69025 430.64755 186.11212Q431.22568 185.534 432.1163 185.534Q433.03818 185.534 433.60068 186.12775Q434.16318 186.70587 434.16318 187.62775L434.16318 188.11212Q434.16318 189.01837 433.58505 189.5965Q433.02255 190.159 432.13193 190.159Q431.2413 190.159 430.66318 189.5965Q430.08505 189.01837 430.08505 188.06525L430.08505 187.58087ZM431.02255 188.11212Q431.02255 188.64337 431.31943 188.98712Q431.63193 189.33087 432.13193 189.33087Q432.6163 189.33087 432.91318 189.00275Q433.21005 188.67462 433.21005 188.08087L433.21005 187.58087Q433.21005 187.04962 432.91318 186.70587Q432.63193 186.36212 432.1163 186.36212Q431.6163 186.36212 431.31943 186.70587Q431.02255 187.04962 431.02255 187.61212L431.02255 188.11212ZM434.9288 193.19025Q434.9288 192.284 435.4913 191.7215Q436.06943 191.14337 436.96005 191.14337Q437.8663 191.14337 438.4288 191.7215Q439.00693 192.284 439.00693 193.23712L439.00693 193.7215Q439.00693 194.61212 438.4288 195.19025Q437.8663 195.76837 436.97568 195.76837Q436.10068 195.76837 435.50693 195.20587Q434.9288 194.62775 434.9288 193.67462L434.9288 193.19025ZM435.88193 193.7215Q435.88193 194.25275 436.1788 194.61212Q436.47568 194.95587 436.97568 194.95587Q437.47568 194.95587 437.77255 194.61212Q438.06943 194.26837 438.06943 193.69025L438.06943 193.19025Q438.06943 192.64337 437.75693 192.29962Q437.46005 191.95587 436.97568 191.95587Q436.47568 191.95587 436.1788 192.29962Q435.88193 192.64337 435.88193 193.2215L435.88193 193.7215ZM432.4288 194.87775L431.71005 194.42462L436.56943 186.64337L437.28818 187.0965L432.4288 194.87775ZM443.2413 191.659Q443.2413 193.17462 442.83505 194.58087Q442.44443 195.9715 441.6163 197.159Q440.78818 198.3465 439.89755 198.8465L439.63193 198.06525Q440.6788 197.26837 441.31943 195.56525Q441.96005 193.86212 441.97568 191.79962L441.97568 191.58087Q441.97568 190.14337 441.66318 188.909Q441.3663 187.67462 440.83505 186.70587Q440.3038 185.7215 439.63193 185.17462L439.89755 184.39337Q440.78818 184.89337 441.60068 186.06525Q442.4288 187.23712 442.83505 188.64337Q443.2413 190.04962 443.2413 191.659Z" fill-rule="nonzero"/><path fill="#000000" d="M309.6319 308.62424L311.0069 308.62424L311.0069 309.6555L309.6319 309.6555L309.6319 311.968L308.35065 311.968L308.35065 309.6555L303.8194 309.6555L303.8194 308.9055L308.27252 302.01486L309.6319 302.01486L309.6319 308.62424ZM305.2569 308.62424L308.35065 308.62424L308.35065 303.74924L308.21002 304.01486L305.2569 308.62424ZM312.86627 306.9836L313.3819 302.01486L318.47565 302.01486L318.47565 303.18674L314.4444 303.18674L314.14752 305.88986Q314.8819 305.468 315.80377 305.468Q317.16315 305.468 317.96002 306.37424Q318.77252 307.26486 318.77252 308.7961Q318.77252 310.32736 317.92877 311.218Q317.10065 312.1086 315.61627 312.1086Q314.30377 312.1086 313.46002 311.37424Q312.6319 310.63986 312.5069 309.343L313.71002 309.343Q313.8194 310.20236 314.30377 310.63986Q314.80377 311.07736 315.61627 311.07736Q316.49127 311.07736 316.99127 310.4836Q317.5069 309.87424 317.5069 308.81174Q317.5069 307.81174 316.96002 307.218Q316.41315 306.6086 315.5069 306.6086Q314.6944 306.6086 314.21002 306.968L313.8819 307.2336L312.86627 306.9836ZM326.52252 307.718Q326.52252 309.93674 325.7569 311.0305Q325.0069 312.1086 323.39752 312.1086Q321.80377 312.1086 321.03815 311.06174Q320.27252 309.99924 320.24127 307.88986L320.24127 306.20236Q320.24127 304.01486 320.99127 302.95236Q321.7569 301.87424 323.3819 301.87424Q324.99127 301.87424 325.74127 302.9055Q326.5069 303.93674 326.52252 306.07736L326.52252 307.718ZM325.2569 305.99924Q325.2569 304.38986 324.80377 303.6555Q324.36627 302.9211 323.3819 302.9211Q322.41315 302.9211 321.96002 303.6555Q321.52252 304.37424 321.5069 305.88986L321.5069 307.9211Q321.5069 309.5305 321.97565 310.31174Q322.4444 311.07736 323.39752 311.07736Q324.33502 311.07736 324.78815 310.3586Q325.24127 309.62424 325.2569 308.06174L325.2569 305.99924ZM331.36627 307.9211Q331.36627 306.38986 331.77252 304.968Q332.1944 303.5461 333.0069 302.38986Q333.83502 301.218 334.72565 300.7336L334.97565 301.57736Q333.97565 302.343 333.33502 303.9211Q332.71002 305.4836 332.64752 307.4211L332.6319 308.01486Q332.6319 310.6555 333.60065 312.593Q334.17877 313.74924 334.97565 314.4055L334.72565 315.18674Q333.80377 314.6711 332.97565 313.4836Q331.36627 311.1555 331.36627 307.9211ZM338.1319 306.37424L339.0694 306.37424Q339.97565 306.3586 340.47565 305.9055Q340.99127 305.45236 340.99127 304.6711Q340.99127 302.9211 339.2569 302.9211Q338.42877 302.9211 337.9444 303.38986Q337.46002 303.8586 337.46002 304.62424L336.1944 304.62424Q336.1944 303.43674 337.05377 302.6555Q337.92877 301.87424 339.2569 301.87424Q340.66315 301.87424 341.46002 302.62424Q342.2569 303.37424 342.2569 304.68674Q342.2569 305.343 341.83502 305.95236Q341.42877 306.56174 340.6944 306.8586Q341.52252 307.12424 341.96002 307.7336Q342.41315 308.32736 342.41315 309.18674Q342.41315 310.5305 341.53815 311.32736Q340.66315 312.1086 339.2569 312.1086Q337.86627 312.1086 336.97565 311.3586Q336.10065 310.593 336.10065 309.343L337.3819 309.343Q337.3819 310.12424 337.8819 310.6086Q338.39752 311.07736 339.2569 311.07736Q340.17877 311.07736 340.66315 310.593Q341.14752 310.1086 341.14752 309.218Q341.14752 308.3586 340.61627 307.88986Q340.08502 307.4211 339.0694 307.4055L338.1319 307.4055L338.1319 306.37424ZM350.80377 311.968L344.28815 311.968L344.28815 311.06174L347.72565 307.2336Q348.49127 306.3586 348.78815 305.82736Q349.08502 305.2805 349.08502 304.68674Q349.08502 303.9211 348.60065 303.4211Q348.1319 302.9211 347.35065 302.9211Q346.41315 302.9211 345.8819 303.45236Q345.36627 303.9836 345.36627 304.95236L344.10065 304.95236Q344.10065 303.57736 344.97565 302.7336Q345.86627 301.87424 347.35065 301.87424Q348.74127 301.87424 349.53815 302.6086Q350.35065 303.32736 350.35065 304.5461Q350.35065 306.01486 348.47565 308.0461L345.8194 310.93674L350.80377 310.93674L350.80377 311.968ZM352.4444 311.31174Q352.4444 310.9836 352.6319 310.76486Q352.83502 310.5461 353.22565 310.5461Q353.61627 310.5461 353.8194 310.76486Q354.02252 310.9836 354.02252 311.31174Q354.02252 311.62424 353.8194 311.843Q353.61627 312.0461 353.22565 312.0461Q352.83502 312.0461 352.6319 311.843Q352.4444 311.62424 352.4444 311.31174ZM361.2569 302.01486L361.2569 303.07736L361.02252 303.07736Q359.53815 303.1086 358.66315 303.95236Q357.78815 304.7961 357.64752 306.343Q358.4444 305.43674 359.80377 305.43674Q361.10065 305.43674 361.86627 306.3586Q362.64752 307.26486 362.64752 308.718Q362.64752 310.26486 361.80377 311.18674Q360.97565 312.1086 359.5694 312.1086Q358.14752 312.1086 357.2569 311.01486Q356.36627 309.9055 356.36627 308.18674L356.36627 307.70236Q356.36627 304.95236 357.53815 303.49924Q358.71002 302.0461 361.02252 302.01486L361.2569 302.01486ZM359.58502 306.49924Q358.9444 306.49924 358.39752 306.88986Q357.85065 307.26486 357.6319 307.8586L357.6319 308.32736Q357.6319 309.56174 358.17877 310.31174Q358.74127 311.06174 359.5694 311.06174Q360.42877 311.06174 360.91315 310.43674Q361.39752 309.7961 361.39752 308.7805Q361.39752 307.74924 360.89752 307.12424Q360.41315 306.49924 359.58502 306.49924ZM364.17877 303.9211Q364.17877 303.0305 364.74127 302.45236Q365.3194 301.87424 366.21002 301.87424Q367.1319 301.87424 367.6944 302.468Q368.2569 303.0461 368.2569 303.968L368.2569 304.45236Q368.2569 305.3586 367.67877 305.93674Q367.11627 306.49924 366.22565 306.49924Q365.33502 306.49924 364.7569 305.93674Q364.17877 305.3586 364.17877 304.4055L364.17877 303.9211ZM365.11627 304.45236Q365.11627 304.9836 365.41315 305.32736Q365.72565 305.6711 366.22565 305.6711Q366.71002 305.6711 367.0069 305.343Q367.30377 305.01486 367.30377 304.4211L367.30377 303.9211Q367.30377 303.38986 367.0069 303.0461Q366.72565 302.70236 366.21002 302.70236Q365.71002 302.70236 365.41315 303.0461Q365.11627 303.38986 365.11627 303.95236L365.11627 304.45236ZM369.02252 309.5305Q369.02252 308.62424 369.58502 308.06174Q370.16315 307.4836 371.05377 307.4836Q371.96002 307.4836 372.52252 308.06174Q373.10065 308.62424 373.10065 309.57736L373.10065 310.06174Q373.10065 310.95236 372.52252 311.5305Q371.96002 312.1086 371.0694 312.1086Q370.1944 312.1086 369.60065 311.5461Q369.02252 310.968 369.02252 310.01486L369.02252 309.5305ZM369.97565 310.06174Q369.97565 310.593 370.27252 310.95236Q370.5694 311.2961 371.0694 311.2961Q371.5694 311.2961 371.86627 310.95236Q372.16315 310.6086 372.16315 310.0305L372.16315 309.5305Q372.16315 308.9836 371.85065 308.63986Q371.55377 308.2961 371.0694 308.2961Q370.5694 308.2961 370.27252 308.63986Q369.97565 308.9836 369.97565 309.56174L369.97565 310.06174ZM366.52252 311.218L365.80377 310.76486L370.66315 302.9836L371.3819 303.43674L366.52252 311.218ZM377.33502 307.99924Q377.33502 309.51486 376.92877 310.9211Q376.53815 312.31174 375.71002 313.49924Q374.8819 314.68674 373.99127 315.18674L373.72565 314.4055Q374.77252 313.6086 375.41315 311.9055Q376.05377 310.20236 376.0694 308.13986L376.0694 307.9211Q376.0694 306.4836 375.7569 305.24924Q375.46002 304.01486 374.92877 303.0461Q374.39752 302.06174 373.72565 301.51486L373.99127 300.7336Q374.8819 301.2336 375.6944 302.4055Q376.52252 303.57736 376.92877 304.9836Q377.33502 306.38986 377.33502 307.99924Z" fill-rule="nonzero"/><path fill="#757575" d="M31.14375 151.10432L19.971874 151.10432L19.971874 149.54182L25.878124 142.97932Q27.190624 141.49495 27.690624 140.57307Q28.190624 139.63557 28.190624 138.63557Q28.190624 137.29182 27.378124 136.44807Q26.565624 135.5887 25.221874 135.5887Q23.596874 135.5887 22.70625 136.51057Q21.815624 137.43245 21.815624 139.07307L19.64375 139.07307Q19.64375 136.7137 21.159374 135.26057Q22.675 133.80745 25.221874 133.80745Q27.596874 133.80745 28.971874 135.05745Q30.3625 136.30745 30.3625 138.36995Q30.3625 140.9012 27.159374 144.36995L22.58125 149.3387L31.14375 149.3387L31.14375 151.10432ZM43.675 143.82307Q43.675 147.63557 42.3625 149.49495Q41.065624 151.3387 38.3 151.3387Q35.565624 151.3387 34.253124 149.5262Q32.940624 147.7137 32.89375 144.11995L32.89375 141.22932Q32.89375 137.4637 34.190624 135.63557Q35.503124 133.80745 38.284374 133.80745Q41.034374 133.80745 42.33125 135.57307Q43.628124 137.3387 43.675 141.01057L43.675 143.82307ZM41.503124 140.85432Q41.503124 138.10432 40.721874 136.85432Q39.95625 135.5887 38.284374 135.5887Q36.6125 135.5887 35.846874 136.8387Q35.096874 138.0887 35.065624 140.69807L35.065624 144.16682Q35.065624 146.93245 35.8625 148.26057Q36.675 149.57307 38.3 149.57307Q39.909374 149.57307 40.690624 148.3387Q41.471874 147.0887 41.503124 144.41682L41.503124 140.85432ZM57.14375 151.10432L45.971874 151.10432L45.971874 149.54182L51.878124 142.97932Q53.190624 141.49495 53.690624 140.57307Q54.190624 139.63557 54.190624 138.63557Q54.190624 137.29182 53.378124 136.44807Q52.565624 135.5887 51.221874 135.5887Q49.596874 135.5887 48.70625 136.51057Q47.815624 137.43245 47.815624 139.07307L45.64375 139.07307Q45.64375 136.7137 47.159374 135.26057Q48.675 133.80745 51.221874 133.80745Q53.596874 133.80745 54.971874 135.05745Q56.3625 136.30745 56.3625 138.36995Q56.3625 140.9012 53.159374 144.36995L48.58125 149.3387L57.14375 149.3387L57.14375 151.10432ZM66.09688 151.10432L63.909374 151.10432L63.909374 136.6512L59.55 138.26057L59.55 136.29182L65.75313 133.9637L66.09688 133.9637L66.09688 151.10432Z" fill-rule="nonzero"/><path fill="#9e9e9e" d="M23.128124 173.51057L24.753124 173.51057Q26.284374 173.49495 27.159374 172.7137Q28.05 171.91682 28.05 170.5887Q28.05 167.5887 25.05 167.5887Q23.64375 167.5887 22.8 168.4012Q21.971874 169.19807 21.971874 170.51057L19.8 170.51057Q19.8 168.49495 21.284374 167.1512Q22.76875 165.80745 25.05 165.80745Q27.471874 165.80745 28.83125 167.0887Q30.20625 168.35432 30.20625 170.63557Q30.20625 171.74495 29.4875 172.79182Q28.76875 173.8387 27.534374 174.35432Q28.940624 174.79182 29.70625 175.82307Q30.471874 176.85432 30.471874 178.3387Q30.471874 180.63557 28.971874 181.99495Q27.471874 183.3387 25.065624 183.3387Q22.659374 183.3387 21.159374 182.04182Q19.659374 180.72932 19.659374 178.60432L21.83125 178.60432Q21.83125 179.94807 22.70625 180.76057Q23.596874 181.57307 25.065624 181.57307Q26.64375 181.57307 27.471874 180.76057Q28.3 179.93245 28.3 178.38557Q28.3 176.9012 27.378124 176.10432Q26.471874 175.30745 24.753124 175.29182L23.128124 175.29182L23.128124 173.51057ZM41.284374 175.60432Q40.596874 176.41682 39.64375 176.91682Q38.70625 177.4012 37.58125 177.4012Q36.1125 177.4012 35.01875 176.68245Q33.925 175.94807 33.315624 174.63557Q32.721874 173.30745 32.721874 171.7137Q32.721874 169.99495 33.3625 168.63557Q34.01875 167.26057 35.20625 166.54182Q36.409374 165.80745 38.003124 165.80745Q40.534374 165.80745 41.9875 167.69807Q43.45625 169.5887 43.45625 172.85432L43.45625 173.49495Q43.45625 178.47932 41.4875 180.7762Q39.51875 183.05745 35.55 183.11995L35.128124 183.11995L35.128124 181.29182L35.58125 181.29182Q38.26875 181.24495 39.70625 179.88557Q41.14375 178.5262 41.284374 175.60432ZM37.940624 175.60432Q39.034374 175.60432 39.940624 174.93245Q40.8625 174.26057 41.284374 173.2762L41.284374 172.41682Q41.284374 170.2762 40.3625 168.94807Q39.440624 167.60432 38.01875 167.60432Q36.596874 167.60432 35.721874 168.7137Q34.8625 169.80745 34.8625 171.5887Q34.8625 173.3387 35.690624 174.47932Q36.534374 175.60432 37.940624 175.60432ZM46.2375 181.9637Q46.2375 181.4012 46.565624 181.0262Q46.909374 180.6512 47.565624 180.6512Q48.2375 180.6512 48.58125 181.0262Q48.940624 181.4012 48.940624 181.9637Q48.940624 182.51057 48.58125 182.86995Q48.2375 183.22932 47.565624 183.22932Q46.909374 183.22932 46.565624 182.86995Q46.2375 182.51057 46.2375 181.9637ZM62.9875 167.26057L55.925 183.10432L53.64375 183.10432L60.690624 167.82307L51.45625 167.82307L51.45625 166.04182L62.9875 166.04182L62.9875 167.26057ZM64.78438 169.32307Q64.78438 167.79182 65.75313 166.79182Q66.7375 165.79182 68.26875 165.79182Q69.83125 165.79182 70.8 166.79182Q71.76875 167.79182 71.76875 169.38557L71.76875 170.22932Q71.76875 171.7762 70.78438 172.76057Q69.81563 173.72932 68.3 173.72932Q66.76875 173.72932 65.76875 172.76057Q64.78438 171.7762 64.78438 170.13557L64.78438 169.32307ZM66.39375 170.22932Q66.39375 171.13557 66.90938 171.72932Q67.425 172.32307 68.3 172.32307Q69.12813 172.32307 69.62813 171.74495Q70.14375 171.16682 70.14375 170.18245L70.14375 169.32307Q70.14375 168.4012 69.64375 167.80745Q69.14375 167.2137 68.26875 167.2137Q67.40938 167.2137 66.89375 167.80745Q66.39375 168.4012 66.39375 169.36995L66.39375 170.22932ZM73.09688 178.91682Q73.09688 177.38557 74.06563 176.4012Q75.05 175.4012 76.58125 175.4012Q78.1125 175.4012 79.09688 176.38557Q80.08125 177.36995 80.08125 178.99495L80.08125 179.8387Q80.08125 181.36995 79.09688 182.36995Q78.12813 183.35432 76.59688 183.35432Q75.08125 183.35432 74.08125 182.36995Q73.09688 181.38557 73.09688 179.76057L73.09688 178.91682ZM74.70625 179.8387Q74.70625 180.76057 75.22188 181.35432Q75.7375 181.94807 76.6125 181.94807Q77.45625 181.94807 77.95625 181.36995Q78.45625 180.7762 78.45625 179.79182L78.45625 178.91682Q78.45625 177.99495 77.94063 177.41682Q77.44063 176.82307 76.58125 176.82307Q75.75313 176.82307 75.22188 177.4012Q74.70625 177.97932 74.70625 178.9637L74.70625 179.8387ZM68.78438 181.80745L67.56563 181.04182L75.89375 167.69807L77.12813 168.47932L68.78438 181.80745Z" fill-rule="nonzero"/><path stroke="#757575" stroke-width="1.0" stroke-linecap="butt" d="M18.55 158.60432L145.23334 158.60432L166.05382 158.60432" fill-rule="nonzero"/><path fill="#9e9e9e" d="M168.05382 158.60432C168.05382 157.49976 167.15839 156.60432 166.05382 156.60432C164.94925 156.60432 164.05382 157.49976 164.05382 158.60432C164.05382 159.7089 164.94925 160.60432 166.05382 160.60432C167.15839 160.60432 168.05382 159.7089 168.05382 158.60432" fill-rule="nonzero"/><path fill="#757575" d="M542.04376 77.916664L530.8719 77.916664L530.8719 76.354164L536.77814 69.791664Q538.09064 68.30729 538.59064 67.385414Q539.09064 66.447914 539.09064 65.447914Q539.09064 64.104164 538.27814 63.260414Q537.46564 62.40104 536.1219 62.40104Q534.4969 62.40104 533.60626 63.322914Q532.71564 64.24479 532.71564 65.885414L530.54376 65.885414Q530.54376 63.52604 532.0594 62.072914Q533.575 60.61979 536.1219 60.61979Q538.4969 60.61979 539.8719 61.86979Q541.2625 63.11979 541.2625 65.18229Q541.2625 67.71354 538.0594 71.18229L533.48126 76.15104L542.04376 76.15104L542.04376 77.916664ZM554.575 70.635414Q554.575 74.447914 553.2625 76.30729Q551.96564 78.15104 549.2 78.15104Q546.46564 78.15104 545.15314 76.33854Q543.84064 74.52604 543.79376 70.93229L543.79376 68.041664Q543.79376 64.27604 545.09064 62.447914Q546.40314 60.61979 549.1844 60.61979Q551.9344 60.61979 553.23126 62.385414Q554.52814 64.15104 554.575 67.822914L554.575 70.635414ZM552.40314 67.666664Q552.40314 64.916664 551.6219 63.666664Q550.85626 62.40104 549.1844 62.40104Q547.5125 62.40104 546.7469 63.65104Q545.9969 64.90104 545.96564 67.510414L545.96564 70.979164Q545.96564 73.74479 546.7625 75.072914Q547.575 76.385414 549.2 76.385414Q550.8094 76.385414 551.59064 75.15104Q552.3719 73.90104 552.40314 71.229164L552.40314 67.666664ZM563.9969 77.916664L561.8094 77.916664L561.8094 63.46354L557.45 65.072914L557.45 63.104164L563.65314 60.77604L563.9969 60.77604L563.9969 77.916664ZM578.3719 60.83854L578.3719 62.68229L577.98126 62.68229Q575.45 62.729164 573.95 64.18229Q572.45 65.635414 572.21564 68.27604Q573.5594 66.729164 575.8875 66.729164Q578.1219 66.729164 579.45 68.30729Q580.77814 69.86979 580.77814 72.354164Q580.77814 74.979164 579.34064 76.572914Q577.90314 78.15104 575.4969 78.15104Q573.04376 78.15104 571.5125 76.27604Q569.9969 74.385414 569.9969 71.416664L569.9969 70.58854Q569.9969 65.885414 571.9969 63.40104Q574.0125 60.90104 577.9969 60.83854L578.3719 60.83854ZM575.52814 68.52604Q574.41876 68.52604 573.48126 69.197914Q572.54376 69.86979 572.1844 70.86979L572.1844 71.666664Q572.1844 73.77604 573.1219 75.072914Q574.075 76.354164 575.4969 76.354164Q576.96564 76.354164 577.79376 75.27604Q578.6375 74.197914 578.6375 72.447914Q578.6375 70.697914 577.77814 69.61979Q576.9344 68.52604 575.52814 68.52604Z" fill-rule="nonzero"/><path fill="#9e9e9e" d="M533.8719 101.354164L534.73126 92.854164L543.48126 92.854164L543.48126 94.854164L536.575 94.854164L536.0594 99.510414Q537.3094 98.77604 538.90314 98.77604Q541.23126 98.77604 542.60626 100.322914Q543.98126 101.854164 543.98126 104.479164Q543.98126 107.11979 542.5594 108.635414Q541.1375 110.15104 538.575 110.15104Q536.3094 110.15104 534.8719 108.90104Q533.45 107.635414 533.2625 105.43229L535.3094 105.43229Q535.5125 106.885414 536.35626 107.635414Q537.2 108.385414 538.575 108.385414Q540.09064 108.385414 540.95 107.354164Q541.8094 106.322914 541.8094 104.49479Q541.8094 102.791664 540.8719 101.760414Q539.95 100.71354 538.40314 100.71354Q536.98126 100.71354 536.16876 101.33854L535.60626 101.80729L533.8719 101.354164ZM546.1375 108.77604Q546.1375 108.21354 546.46564 107.83854Q546.8094 107.46354 547.46564 107.46354Q548.1375 107.46354 548.48126 107.83854Q548.84064 108.21354 548.84064 108.77604Q548.84064 109.322914 548.48126 109.68229Q548.1375 110.041664 547.46564 110.041664Q546.8094 110.041664 546.46564 109.68229Q546.1375 109.322914 546.1375 108.77604ZM562.8875 94.072914L555.825 109.916664L553.54376 109.916664L560.59064 94.635414L551.35626 94.635414L551.35626 92.854164L562.8875 92.854164L562.8875 94.072914ZM564.6844 96.135414Q564.6844 94.604164 565.65314 93.604164Q566.6375 92.604164 568.16876 92.604164Q569.73126 92.604164 570.7 93.604164Q571.66876 94.604164 571.66876 96.197914L571.66876 97.041664Q571.66876 98.58854 570.6844 99.572914Q569.71564 100.541664 568.2 100.541664Q566.66876 100.541664 565.66876 99.572914Q564.6844 98.58854 564.6844 96.947914L564.6844 96.135414ZM566.29376 97.041664Q566.29376 97.947914 566.8094 98.541664Q567.325 99.135414 568.2 99.135414Q569.02814 99.135414 569.52814 98.55729Q570.04376 97.979164 570.04376 96.99479L570.04376 96.135414Q570.04376 95.21354 569.54376 94.61979Q569.04376 94.02604 568.16876 94.02604Q567.3094 94.02604 566.79376 94.61979Q566.29376 95.21354 566.29376 96.18229L566.29376 97.041664ZM572.9969 105.729164Q572.9969 104.197914 573.96564 103.21354Q574.95 102.21354 576.48126 102.21354Q578.0125 102.21354 578.9969 103.197914Q579.98126 104.18229 579.98126 105.80729L579.98126 106.65104Q579.98126 108.18229 578.9969 109.18229Q578.02814 110.166664 576.4969 110.166664Q574.98126 110.166664 573.98126 109.18229Q572.9969 108.197914 572.9969 106.572914L572.9969 105.729164ZM574.60626 106.65104Q574.60626 107.572914 575.1219 108.166664Q575.6375 108.760414 576.5125 108.760414Q577.35626 108.760414 577.85626 108.18229Q578.35626 107.58854 578.35626 106.604164L578.35626 105.729164Q578.35626 104.80729 577.84064 104.229164Q577.34064 103.635414 576.48126 103.635414Q575.65314 103.635414 575.1219 104.21354Q574.60626 104.791664 574.60626 105.77604L574.60626 106.65104ZM568.6844 108.61979L567.46564 107.854164L575.79376 94.510414L577.02814 95.291664L568.6844 108.61979Z" fill-rule="nonzero"/><path stroke="#757575" stroke-width="1.0" stroke-linecap="butt" d="M581.45 85.416664L454.76666 85.416664L343.3972 69.18284" fill-rule="nonzero"/><path fill="#9e9e9e" d="M345.3972 69.18284C345.3972 68.07827 344.50174 67.18284 343.3972 67.18284C342.2926 67.18284 341.3972 68.07827 341.3972 69.18284C341.3972 70.28741 342.2926 71.18284 343.3972 71.18284C344.50174 71.18284 345.3972 70.28741 345.3972 69.18284" fill-rule="nonzero"/><path fill="#757575" d="M542.04376 138.91667L530.8719 138.91667L530.8719 137.35417L536.77814 130.79167Q538.09064 129.3073 538.59064 128.38542Q539.09064 127.44792 539.09064 126.44792Q539.09064 125.10417 538.27814 124.26042Q537.46564 123.40105 536.1219 123.40105Q534.4969 123.40105 533.60626 124.32292Q532.71564 125.2448 532.71564 126.88542L530.54376 126.88542Q530.54376 124.52605 532.0594 123.07292Q533.575 121.6198 536.1219 121.6198Q538.4969 121.6198 539.8719 122.8698Q541.2625 124.1198 541.2625 126.1823Q541.2625 128.71355 538.0594 132.1823L533.48126 137.15105L542.04376 137.15105L542.04376 138.91667ZM554.575 131.63542Q554.575 135.44792 553.2625 137.3073Q551.96564 139.15105 549.2 139.15105Q546.46564 139.15105 545.15314 137.33855Q543.84064 135.52605 543.79376 131.9323L543.79376 129.04167Q543.79376 125.27605 545.09064 123.44792Q546.40314 121.6198 549.1844 121.6198Q551.9344 121.6198 553.23126 123.38542Q554.52814 125.15105 554.575 128.82292L554.575 131.63542ZM552.40314 128.66667Q552.40314 125.91667 551.6219 124.66667Q550.85626 123.40105 549.1844 123.40105Q547.5125 123.40105 546.7469 124.65105Q545.9969 125.90105 545.96564 128.51042L545.96564 131.97917Q545.96564 134.7448 546.7625 136.07292Q547.575 137.38542 549.2 137.38542Q550.8094 137.38542 551.59064 136.15105Q552.3719 134.90105 552.40314 132.22917L552.40314 128.66667ZM563.9969 138.91667L561.8094 138.91667L561.8094 124.46355L557.45 126.07292L557.45 124.10417L563.65314 121.77605L563.9969 121.77605L563.9969 138.91667ZM580.21564 126.3073Q580.21564 127.58855 579.54376 128.58855Q578.8719 129.57292 577.71564 130.13542Q579.0594 130.71355 579.84064 131.82292Q580.6219 132.91667 580.6219 134.3073Q580.6219 136.52605 579.1219 137.83855Q577.6219 139.15105 575.1844 139.15105Q572.73126 139.15105 571.2469 137.83855Q569.7625 136.51042 569.7625 134.3073Q569.7625 132.9323 570.5125 131.82292Q571.27814 130.69792 572.60626 130.1198Q571.48126 129.5573 570.825 128.57292Q570.16876 127.57292 570.16876 126.3073Q570.16876 124.15105 571.54376 122.88542Q572.9344 121.6198 575.1844 121.6198Q577.4344 121.6198 578.825 122.88542Q580.21564 124.15105 580.21564 126.3073ZM578.45 134.26042Q578.45 132.83855 577.54376 131.9323Q576.6375 131.02605 575.16876 131.02605Q573.7 131.02605 572.8094 131.91667Q571.9344 132.8073 571.9344 134.26042Q571.9344 135.71355 572.79376 136.5573Q573.65314 137.38542 575.1844 137.38542Q576.71564 137.38542 577.575 136.54167Q578.45 135.69792 578.45 134.26042ZM575.1844 123.40105Q573.91876 123.40105 573.1219 124.19792Q572.325 124.97917 572.325 126.33855Q572.325 127.63542 573.10626 128.44792Q573.8875 129.2448 575.1844 129.2448Q576.4969 129.2448 577.2625 128.44792Q578.04376 127.63542 578.04376 126.33855Q578.04376 125.04167 577.23126 124.22917Q576.4344 123.40105 575.1844 123.40105Z" fill-rule="nonzero"/><path fill="#9e9e9e" d="M543.21564 158.3073Q543.21564 159.58855 542.54376 160.58855Q541.8719 161.57292 540.71564 162.13542Q542.0594 162.71355 542.84064 163.82292Q543.6219 164.91667 543.6219 166.3073Q543.6219 168.52605 542.1219 169.83855Q540.6219 171.15105 538.1844 171.15105Q535.73126 171.15105 534.2469 169.83855Q532.7625 168.51042 532.7625 166.3073Q532.7625 164.9323 533.5125 163.82292Q534.27814 162.69792 535.60626 162.1198Q534.48126 161.5573 533.825 160.57292Q533.16876 159.57292 533.16876 158.3073Q533.16876 156.15105 534.54376 154.88542Q535.9344 153.6198 538.1844 153.6198Q540.4344 153.6198 541.825 154.88542Q543.21564 156.15105 543.21564 158.3073ZM541.45 166.26042Q541.45 164.83855 540.54376 163.9323Q539.6375 163.02605 538.16876 163.02605Q536.7 163.02605 535.8094 163.91667Q534.9344 164.8073 534.9344 166.26042Q534.9344 167.71355 535.79376 168.5573Q536.65314 169.38542 538.1844 169.38542Q539.71564 169.38542 540.575 168.54167Q541.45 167.69792 541.45 166.26042ZM538.1844 155.40105Q536.91876 155.40105 536.1219 156.19792Q535.325 156.97917 535.325 158.33855Q535.325 159.63542 536.10626 160.44792Q536.8875 161.2448 538.1844 161.2448Q539.4969 161.2448 540.2625 160.44792Q541.04376 159.63542 541.04376 158.33855Q541.04376 157.04167 540.23126 156.22917Q539.4344 155.40105 538.1844 155.40105ZM546.1375 169.77605Q546.1375 169.21355 546.46564 168.83855Q546.8094 168.46355 547.46564 168.46355Q548.1375 168.46355 548.48126 168.83855Q548.84064 169.21355 548.84064 169.77605Q548.84064 170.32292 548.48126 170.6823Q548.1375 171.04167 547.46564 171.04167Q546.8094 171.04167 546.46564 170.6823Q546.1375 170.32292 546.1375 169.77605ZM552.8719 162.35417L553.73126 153.85417L562.48126 153.85417L562.48126 155.85417L555.575 155.85417L555.0594 160.51042Q556.3094 159.77605 557.90314 159.77605Q560.23126 159.77605 561.60626 161.32292Q562.98126 162.85417 562.98126 165.47917Q562.98126 168.1198 561.5594 169.63542Q560.1375 171.15105 557.575 171.15105Q555.3094 171.15105 553.8719 169.90105Q552.45 168.63542 552.2625 166.4323L554.3094 166.4323Q554.5125 167.88542 555.35626 168.63542Q556.2 169.38542 557.575 169.38542Q559.09064 169.38542 559.95 168.35417Q560.8094 167.32292 560.8094 165.4948Q560.8094 163.79167 559.8719 162.76042Q558.95 161.71355 557.40314 161.71355Q555.98126 161.71355 555.16876 162.33855L554.60626 162.8073L552.8719 162.35417ZM564.6844 157.13542Q564.6844 155.60417 565.65314 154.60417Q566.6375 153.60417 568.16876 153.60417Q569.73126 153.60417 570.7 154.60417Q571.66876 155.60417 571.66876 157.19792L571.66876 158.04167Q571.66876 159.58855 570.6844 160.57292Q569.71564 161.54167 568.2 161.54167Q566.66876 161.54167 565.66876 160.57292Q564.6844 159.58855 564.6844 157.94792L564.6844 157.13542ZM566.29376 158.04167Q566.29376 158.94792 566.8094 159.54167Q567.325 160.13542 568.2 160.13542Q569.02814 160.13542 569.52814 159.5573Q570.04376 158.97917 570.04376 157.9948L570.04376 157.13542Q570.04376 156.21355 569.54376 155.6198Q569.04376 155.02605 568.16876 155.02605Q567.3094 155.02605 566.79376 155.6198Q566.29376 156.21355 566.29376 157.1823L566.29376 158.04167ZM572.9969 166.72917Q572.9969 165.19792 573.96564 164.21355Q574.95 163.21355 576.48126 163.21355Q578.0125 163.21355 578.9969 164.19792Q579.98126 165.1823 579.98126 166.8073L579.98126 167.65105Q579.98126 169.1823 578.9969 170.1823Q578.02814 171.16667 576.4969 171.16667Q574.98126 171.16667 573.98126 170.1823Q572.9969 169.19792 572.9969 167.57292L572.9969 166.72917ZM574.60626 167.65105Q574.60626 168.57292 575.1219 169.16667Q575.6375 169.76042 576.5125 169.76042Q577.35626 169.76042 577.85626 169.1823Q578.35626 168.58855 578.35626 167.60417L578.35626 166.72917Q578.35626 165.8073 577.84064 165.22917Q577.34064 164.63542 576.48126 164.63542Q575.65314 164.63542 575.1219 165.21355Q574.60626 165.79167 574.60626 166.77605L574.60626 167.65105ZM568.6844 169.6198L567.46564 168.85417L575.79376 155.51042L577.02814 156.29167L568.6844 169.6198Z" fill-rule="nonzero"/><path stroke="#757575" stroke-width="1.0" stroke-linecap="butt" d="M581.45 146.41667L454.76666 146.41667L411.4915 116.83088" fill-rule="nonzero"/><path fill="#9e9e9e" d="M413.4915 116.83088C413.4915 115.72631 412.59604 114.83088 411.4915 114.83088C410.3869 114.83088 409.4915 115.72631 409.4915 116.83088C409.4915 117.93545 410.3869 118.83088 411.4915 118.83088C412.59604 118.83088 413.4915 117.93545 413.4915 116.83088" fill-rule="nonzero"/><path fill="#757575" d="M542.04376 199.91667L530.8719 199.91667L530.8719 198.35417L536.77814 191.79167Q538.09064 190.3073 538.59064 189.38542Q539.09064 188.44792 539.09064 187.44792Q539.09064 186.10417 538.27814 185.26042Q537.46564 184.40105 536.1219 184.40105Q534.4969 184.40105 533.60626 185.32292Q532.71564 186.2448 532.71564 187.88542L530.54376 187.88542Q530.54376 185.52605 532.0594 184.07292Q533.575 182.6198 536.1219 182.6198Q538.4969 182.6198 539.8719 183.8698Q541.2625 185.1198 541.2625 187.1823Q541.2625 189.71355 538.0594 193.1823L533.48126 198.15105L542.04376 198.15105L542.04376 199.91667ZM554.575 192.63542Q554.575 196.44792 553.2625 198.3073Q551.96564 200.15105 549.2 200.15105Q546.46564 200.15105 545.15314 198.33855Q543.84064 196.52605 543.79376 192.9323L543.79376 190.04167Q543.79376 186.27605 545.09064 184.44792Q546.40314 182.6198 549.1844 182.6198Q551.9344 182.6198 553.23126 184.38542Q554.52814 186.15105 554.575 189.82292L554.575 192.63542ZM552.40314 189.66667Q552.40314 186.91667 551.6219 185.66667Q550.85626 184.40105 549.1844 184.40105Q547.5125 184.40105 546.7469 185.65105Q545.9969 186.90105 545.96564 189.51042L545.96564 192.97917Q545.96564 195.7448 546.7625 197.07292Q547.575 198.38542 549.2 198.38542Q550.8094 198.38542 551.59064 197.15105Q552.3719 195.90105 552.40314 193.22917L552.40314 189.66667ZM563.9969 199.91667L561.8094 199.91667L561.8094 185.46355L557.45 187.07292L557.45 185.10417L563.65314 182.77605L563.9969 182.77605L563.9969 199.91667ZM578.1844 192.41667Q577.4969 193.22917 576.54376 193.72917Q575.60626 194.21355 574.48126 194.21355Q573.0125 194.21355 571.91876 193.4948Q570.825 192.76042 570.21564 191.44792Q569.6219 190.1198 569.6219 188.52605Q569.6219 186.8073 570.2625 185.44792Q570.91876 184.07292 572.10626 183.35417Q573.3094 182.6198 574.90314 182.6198Q577.4344 182.6198 578.8875 184.51042Q580.35626 186.40105 580.35626 189.66667L580.35626 190.3073Q580.35626 195.29167 578.3875 197.58855Q576.41876 199.8698 572.45 199.9323L572.02814 199.9323L572.02814 198.10417L572.48126 198.10417Q575.16876 198.0573 576.60626 196.69792Q578.04376 195.33855 578.1844 192.41667ZM574.84064 192.41667Q575.9344 192.41667 576.84064 191.7448Q577.7625 191.07292 578.1844 190.08855L578.1844 189.22917Q578.1844 187.08855 577.2625 185.76042Q576.34064 184.41667 574.91876 184.41667Q573.4969 184.41667 572.6219 185.52605Q571.7625 186.6198 571.7625 188.40105Q571.7625 190.15105 572.59064 191.29167Q573.4344 192.41667 574.84064 192.41667Z" fill-rule="nonzero"/><path fill="#9e9e9e" d="M541.1844 224.41667Q540.4969 225.22917 539.54376 225.72917Q538.60626 226.21355 537.48126 226.21355Q536.0125 226.21355 534.91876 225.4948Q533.825 224.76042 533.21564 223.44792Q532.6219 222.1198 532.6219 220.52605Q532.6219 218.8073 533.2625 217.44792Q533.91876 216.07292 535.10626 215.35417Q536.3094 214.6198 537.90314 214.6198Q540.4344 214.6198 541.8875 216.51042Q543.35626 218.40105 543.35626 221.66667L543.35626 222.3073Q543.35626 227.29167 541.3875 229.58855Q539.41876 231.8698 535.45 231.9323L535.02814 231.9323L535.02814 230.10417L535.48126 230.10417Q538.16876 230.0573 539.60626 228.69792Q541.04376 227.33855 541.1844 224.41667ZM537.84064 224.41667Q538.9344 224.41667 539.84064 223.7448Q540.7625 223.07292 541.1844 222.08855L541.1844 221.22917Q541.1844 219.08855 540.2625 217.76042Q539.34064 216.41667 537.91876 216.41667Q536.4969 216.41667 535.6219 217.52605Q534.7625 218.6198 534.7625 220.40105Q534.7625 222.15105 535.59064 223.29167Q536.4344 224.41667 537.84064 224.41667ZM546.1375 230.77605Q546.1375 230.21355 546.46564 229.83855Q546.8094 229.46355 547.46564 229.46355Q548.1375 229.46355 548.48126 229.83855Q548.84064 230.21355 548.84064 230.77605Q548.84064 231.32292 548.48126 231.6823Q548.1375 232.04167 547.46564 232.04167Q546.8094 232.04167 546.46564 231.6823Q546.1375 231.32292 546.1375 230.77605ZM562.575 224.63542Q562.575 228.44792 561.2625 230.3073Q559.96564 232.15105 557.2 232.15105Q554.46564 232.15105 553.15314 230.33855Q551.84064 228.52605 551.79376 224.9323L551.79376 222.04167Q551.79376 218.27605 553.09064 216.44792Q554.40314 214.6198 557.1844 214.6198Q559.9344 214.6198 561.23126 216.38542Q562.52814 218.15105 562.575 221.82292L562.575 224.63542ZM560.40314 221.66667Q560.40314 218.91667 559.6219 217.66667Q558.85626 216.40105 557.1844 216.40105Q555.5125 216.40105 554.7469 217.65105Q553.9969 218.90105 553.96564 221.51042L553.96564 224.97917Q553.96564 227.7448 554.7625 229.07292Q555.575 230.38542 557.2 230.38542Q558.8094 230.38542 559.59064 229.15105Q560.3719 227.90105 560.40314 225.22917L560.40314 221.66667ZM564.6844 218.13542Q564.6844 216.60417 565.65314 215.60417Q566.6375 214.60417 568.16876 214.60417Q569.73126 214.60417 570.7 215.60417Q571.66876 216.60417 571.66876 218.19792L571.66876 219.04167Q571.66876 220.58855 570.6844 221.57292Q569.71564 222.54167 568.2 222.54167Q566.66876 222.54167 565.66876 221.57292Q564.6844 220.58855 564.6844 218.94792L564.6844 218.13542ZM566.29376 219.04167Q566.29376 219.94792 566.8094 220.54167Q567.325 221.13542 568.2 221.13542Q569.02814 221.13542 569.52814 220.5573Q570.04376 219.97917 570.04376 218.9948L570.04376 218.13542Q570.04376 217.21355 569.54376 216.6198Q569.04376 216.02605 568.16876 216.02605Q567.3094 216.02605 566.79376 216.6198Q566.29376 217.21355 566.29376 218.1823L566.29376 219.04167ZM572.9969 227.72917Q572.9969 226.19792 573.96564 225.21355Q574.95 224.21355 576.48126 224.21355Q578.0125 224.21355 578.9969 225.19792Q579.98126 226.1823 579.98126 227.8073L579.98126 228.65105Q579.98126 230.1823 578.9969 231.1823Q578.02814 232.16667 576.4969 232.16667Q574.98126 232.16667 573.98126 231.1823Q572.9969 230.19792 572.9969 228.57292L572.9969 227.72917ZM574.60626 228.65105Q574.60626 229.57292 575.1219 230.16667Q575.6375 230.76042 576.5125 230.76042Q577.35626 230.76042 577.85626 230.1823Q578.35626 229.58855 578.35626 228.60417L578.35626 227.72917Q578.35626 226.8073 577.84064 226.22917Q577.34064 225.63542 576.48126 225.63542Q575.65314 225.63542 575.1219 226.21355Q574.60626 226.79167 574.60626 227.77605L574.60626 228.65105ZM568.6844 230.6198L567.46564 229.85417L575.79376 216.51042L577.02814 217.29167L568.6844 230.6198Z" fill-rule="nonzero"/><path stroke="#757575" stroke-width="1.0" stroke-linecap="butt" d="M581.45 207.41667L454.76666 207.41667L440.43066 187.7796" fill-rule="nonzero"/><path fill="#9e9e9e" d="M442.43066 187.7796C442.43066 186.67503 441.53522 185.7796 440.43066 185.7796C439.32608 185.7796 438.43066 186.67503 438.43066 187.7796C438.43066 188.88417 439.32608 189.7796 440.43066 189.7796C441.53522 189.7796 442.43066 188.88417 442.43066 187.7796" fill-rule="nonzero"/><path fill="#757575" d="M542.04376 314.45L530.8719 314.45L530.8719 312.8875L536.77814 306.325Q538.09064 304.84064 538.59064 303.91876Q539.09064 302.98126 539.09064 301.98126Q539.09064 300.6375 538.27814 299.79376Q537.46564 298.9344 536.1219 298.9344Q534.4969 298.9344 533.60626 299.85626Q532.71564 300.77814 532.71564 302.41876L530.54376 302.41876Q530.54376 300.0594 532.0594 298.60626Q533.575 297.15314 536.1219 297.15314Q538.4969 297.15314 539.8719 298.40314Q541.2625 299.65314 541.2625 301.71564Q541.2625 304.2469 538.0594 307.71564L533.48126 312.6844L542.04376 312.6844L542.04376 314.45ZM554.575 307.16876Q554.575 310.98126 553.2625 312.84064Q551.96564 314.6844 549.2 314.6844Q546.46564 314.6844 545.15314 312.8719Q543.84064 311.0594 543.79376 307.46564L543.79376 304.575Q543.79376 300.8094 545.09064 298.98126Q546.40314 297.15314 549.1844 297.15314Q551.9344 297.15314 553.23126 298.91876Q554.52814 300.6844 554.575 304.35626L554.575 307.16876ZM552.40314 304.2Q552.40314 301.45 551.6219 300.2Q550.85626 298.9344 549.1844 298.9344Q547.5125 298.9344 546.7469 300.1844Q545.9969 301.4344 545.96564 304.04376L545.96564 307.5125Q545.96564 310.27814 546.7625 311.60626Q547.575 312.91876 549.2 312.91876Q550.8094 312.91876 551.59064 311.6844Q552.3719 310.4344 552.40314 307.7625L552.40314 304.2ZM568.04376 314.45L556.8719 314.45L556.8719 312.8875L562.77814 306.325Q564.09064 304.84064 564.59064 303.91876Q565.09064 302.98126 565.09064 301.98126Q565.09064 300.6375 564.27814 299.79376Q563.46564 298.9344 562.1219 298.9344Q560.4969 298.9344 559.60626 299.85626Q558.71564 300.77814 558.71564 302.41876L556.54376 302.41876Q556.54376 300.0594 558.0594 298.60626Q559.575 297.15314 562.1219 297.15314Q564.4969 297.15314 565.8719 298.40314Q567.2625 299.65314 567.2625 301.71564Q567.2625 304.2469 564.0594 307.71564L559.48126 312.6844L568.04376 312.6844L568.04376 314.45ZM580.575 307.16876Q580.575 310.98126 579.2625 312.84064Q577.96564 314.6844 575.2 314.6844Q572.46564 314.6844 571.15314 312.8719Q569.84064 311.0594 569.79376 307.46564L569.79376 304.575Q569.79376 300.8094 571.09064 298.98126Q572.40314 297.15314 575.1844 297.15314Q577.9344 297.15314 579.23126 298.91876Q580.52814 300.6844 580.575 304.35626L580.575 307.16876ZM578.40314 304.2Q578.40314 301.45 577.6219 300.2Q576.85626 298.9344 575.1844 298.9344Q573.5125 298.9344 572.7469 300.1844Q571.9969 301.4344 571.96564 304.04376L571.96564 307.5125Q571.96564 310.27814 572.7625 311.60626Q573.575 312.91876 575.2 312.91876Q576.8094 312.91876 577.59064 311.6844Q578.3719 310.4344 578.40314 307.7625L578.40314 304.2Z" fill-rule="nonzero"/><path fill="#9e9e9e" d="M523.02814 336.85626L524.65314 336.85626Q526.1844 336.84064 527.0594 336.0594Q527.95 335.2625 527.95 333.9344Q527.95 330.9344 524.95 330.9344Q523.54376 330.9344 522.7 331.7469Q521.8719 332.54376 521.8719 333.85626L519.7 333.85626Q519.7 331.84064 521.1844 330.4969Q522.66876 329.15314 524.95 329.15314Q527.3719 329.15314 528.73126 330.4344Q530.10626 331.7 530.10626 333.98126Q530.10626 335.09064 529.3875 336.1375Q528.66876 337.1844 527.4344 337.7Q528.84064 338.1375 529.60626 339.16876Q530.3719 340.2 530.3719 341.6844Q530.3719 343.98126 528.8719 345.34064Q527.3719 346.6844 524.96564 346.6844Q522.5594 346.6844 521.0594 345.3875Q519.5594 344.075 519.5594 341.95L521.73126 341.95Q521.73126 343.29376 522.60626 344.10626Q523.4969 344.91876 524.96564 344.91876Q526.54376 344.91876 527.3719 344.10626Q528.2 343.27814 528.2 341.73126Q528.2 340.2469 527.27814 339.45Q526.3719 338.65314 524.65314 338.6375L523.02814 338.6375L523.02814 336.85626ZM544.04376 346.45L532.8719 346.45L532.8719 344.8875L538.77814 338.325Q540.09064 336.84064 540.59064 335.91876Q541.09064 334.98126 541.09064 333.98126Q541.09064 332.6375 540.27814 331.79376Q539.46564 330.9344 538.1219 330.9344Q536.4969 330.9344 535.60626 331.85626Q534.71564 332.77814 534.71564 334.41876L532.54376 334.41876Q532.54376 332.0594 534.0594 330.60626Q535.575 329.15314 538.1219 329.15314Q540.4969 329.15314 541.8719 330.40314Q543.2625 331.65314 543.2625 333.71564Q543.2625 336.2469 540.0594 339.71564L535.48126 344.6844L544.04376 344.6844L544.04376 346.45ZM546.1375 345.3094Q546.1375 344.7469 546.46564 344.3719Q546.8094 343.9969 547.46564 343.9969Q548.1375 343.9969 548.48126 344.3719Q548.84064 344.7469 548.84064 345.3094Q548.84064 345.85626 548.48126 346.21564Q548.1375 346.575 547.46564 346.575Q546.8094 346.575 546.46564 346.21564Q546.1375 345.85626 546.1375 345.3094ZM560.3719 329.3719L560.3719 331.21564L559.98126 331.21564Q557.45 331.2625 555.95 332.71564Q554.45 334.16876 554.21564 336.8094Q555.5594 335.2625 557.8875 335.2625Q560.1219 335.2625 561.45 336.84064Q562.77814 338.40314 562.77814 340.8875Q562.77814 343.5125 561.34064 345.10626Q559.90314 346.6844 557.4969 346.6844Q555.04376 346.6844 553.5125 344.8094Q551.9969 342.91876 551.9969 339.95L551.9969 339.1219Q551.9969 334.41876 553.9969 331.9344Q556.0125 329.4344 559.9969 329.3719L560.3719 329.3719ZM557.52814 337.0594Q556.41876 337.0594 555.48126 337.73126Q554.54376 338.40314 554.1844 339.40314L554.1844 340.2Q554.1844 342.3094 555.1219 343.60626Q556.075 344.8875 557.4969 344.8875Q558.96564 344.8875 559.79376 343.8094Q560.6375 342.73126 560.6375 340.98126Q560.6375 339.23126 559.77814 338.15314Q558.9344 337.0594 557.52814 337.0594ZM564.6844 332.66876Q564.6844 331.1375 565.65314 330.1375Q566.6375 329.1375 568.16876 329.1375Q569.73126 329.1375 570.7 330.1375Q571.66876 331.1375 571.66876 332.73126L571.66876 333.575Q571.66876 335.1219 570.6844 336.10626Q569.71564 337.075 568.2 337.075Q566.66876 337.075 565.66876 336.10626Q564.6844 335.1219 564.6844 333.48126L564.6844 332.66876ZM566.29376 333.575Q566.29376 334.48126 566.8094 335.075Q567.325 335.66876 568.2 335.66876Q569.02814 335.66876 569.52814 335.09064Q570.04376 334.5125 570.04376 333.52814L570.04376 332.66876Q570.04376 331.7469 569.54376 331.15314Q569.04376 330.5594 568.16876 330.5594Q567.3094 330.5594 566.79376 331.15314Q566.29376 331.7469 566.29376 332.71564L566.29376 333.575ZM572.9969 342.2625Q572.9969 340.73126 573.96564 339.7469Q574.95 338.7469 576.48126 338.7469Q578.0125 338.7469 578.9969 339.73126Q579.98126 340.71564 579.98126 342.34064L579.98126 343.1844Q579.98126 344.71564 578.9969 345.71564Q578.02814 346.7 576.4969 346.7Q574.98126 346.7 573.98126 345.71564Q572.9969 344.73126 572.9969 343.10626L572.9969 342.2625ZM574.60626 343.1844Q574.60626 344.10626 575.1219 344.7Q575.6375 345.29376 576.5125 345.29376Q577.35626 345.29376 577.85626 344.71564Q578.35626 344.1219 578.35626 343.1375L578.35626 342.2625Q578.35626 341.34064 577.84064 340.7625Q577.34064 340.16876 576.48126 340.16876Q575.65314 340.16876 575.1219 340.7469Q574.60626 341.325 574.60626 342.3094L574.60626 343.1844ZM568.6844 345.15314L567.46564 344.3875L575.79376 331.04376L577.02814 331.825L568.6844 345.15314Z" fill-rule="nonzero"/><path stroke="#757575" stroke-width="1.0" stroke-linecap="butt" d="M581.45 321.95L454.76666 321.95L351.88272 335.14392" fill-rule="nonzero"/><path fill="#9e9e9e" d="M353.88272 335.14392C353.88272 334.03934 352.98727 333.14392 351.88272 333.14392C350.77814 333.14392 349.88272 334.03934 349.88272 335.14392C349.88272 336.24847 350.77814 337.14392 351.88272 337.14392C352.98727 337.14392 353.88272 336.24847 353.88272 335.14392" fill-rule="nonzero"/><path fill="#757575" d="M21.596874 37.940624Q25.659374 37.8625 28.003124 36.690624Q26.83125 35.675 25.1125 34.89375Q23.628124 35.909374 22.221874 36.45625L21.51875 35.128124Q24.565624 34.1125 26.440624 31.221874L21.596874 31.221874L21.596874 33.253124L20.034374 33.253124L20.034374 29.971874L36.909374 29.971874L36.909374 33.096874L35.346874 33.096874L35.346874 31.221874L28.08125 31.221874L27.3 32.39375L32.6125 32.39375L33.003124 32.003124L34.253124 32.940624Q34.565624 33.33125 33.940624 33.4875Q30.190624 38.878124 22.14375 39.503124L21.596874 37.940624ZM26.440624 33.64375L26.05 34.034374Q28.159374 34.815624 29.4875 35.83125Q31.20625 34.7375 31.83125 33.64375L26.440624 33.64375ZM34.8 29.034374L22.221874 29.034374L22.221874 25.128124L24.95625 25.128124L24.95625 24.034374L20.034374 24.034374L20.034374 22.784374L24.95625 22.784374L24.95625 21.221874L26.440624 21.221874Q27.065624 21.3 26.51875 21.690624L26.51875 22.784374L30.346874 22.784374L30.346874 21.221874L31.83125 21.221874Q32.45625 21.3 31.909374 21.690624L31.909374 22.784374L36.909374 22.784374L36.909374 24.034374L31.909374 24.034374L31.909374 25.128124L34.8 25.128124L34.8 29.034374ZM26.05 26.378124L23.784374 26.378124L23.784374 27.784374L26.05 27.784374L26.05 26.378124ZM27.378124 26.378124L27.378124 27.784374L29.565624 27.784374L29.565624 26.378124L27.378124 26.378124ZM33.2375 26.378124L30.89375 26.378124L30.89375 27.784374L33.2375 27.784374L33.2375 26.378124ZM30.346874 24.034374L26.51875 24.034374L26.51875 25.128124L30.346874 25.128124L30.346874 24.034374ZM53.08125 33.253124Q54.175 31.14375 54.409374 26.846874L51.753124 26.846874Q51.9875 31.14375 53.08125 33.253124ZM55.971874 26.846874Q55.815624 31.690624 54.096874 34.659374Q55.346874 36.221874 57.6125 37.39375L56.596874 39.1125Q54.096874 37.471874 53.08125 35.9875Q51.284374 38.01875 47.534374 39.503124L46.753124 37.940624Q50.815624 36.3 52.14375 34.58125Q50.815624 32.003124 50.659374 29.425Q50.190624 30.596874 49.721874 31.221874L48.39375 30.20625Q50.7375 26.76875 51.20625 21.690624L52.846874 22.08125Q53.315624 22.39375 52.6125 22.55Q52.378124 23.95625 51.9875 25.3625L57.3 25.3625L57.3 26.846874L55.971874 26.846874ZM48.70625 23.096874Q48.2375 24.26875 47.6125 25.05L46.3625 24.346874Q46.9875 23.33125 47.534374 22.003124L48.940624 22.70625Q49.253124 23.01875 48.70625 23.096874ZM43.70625 34.1125Q44.8 34.425 45.659374 34.815624Q46.284374 34.1125 46.675 32.70625L44.409374 32.70625Q44.096874 33.409374 43.70625 34.1125ZM42.6125 36.065624L41.3625 35.3625Q42.14375 34.190624 42.925 32.70625L39.95625 32.70625L39.95625 31.45625L43.39375 31.45625Q43.8625 30.440624 44.096874 29.7375L45.58125 30.128124Q45.89375 30.440624 45.346874 30.51875L44.878124 31.45625L49.33125 31.45625L49.33125 32.70625L48.159374 32.70625Q47.76875 34.26875 46.9875 35.3625Q47.690624 35.675 48.471874 36.14375L47.76875 37.39375Q46.909374 36.846874 46.20625 36.534374Q44.175 38.565624 40.7375 39.034374L40.190624 37.628124Q43.2375 37.315624 44.878124 35.909374Q44.01875 35.51875 43.159374 35.20625L42.6125 36.065624ZM44.175 21.378124L45.425 21.378124Q46.05 21.45625 45.503124 21.846874L45.503124 25.20625L49.4875 25.20625L49.4875 26.45625L46.20625 26.45625Q47.065624 27.471874 48.8625 28.409374L48.003124 29.7375Q46.675 28.95625 45.503124 27.55L45.503124 29.425L44.175 29.425L44.175 27.940624Q42.925 29.503124 40.7375 30.753124L39.721874 29.503124Q42.14375 28.253124 43.70625 26.45625L40.1125 26.45625L40.1125 25.20625L44.175 25.20625L44.175 21.378124ZM41.9875 24.971874Q41.440624 23.8 40.58125 22.940624L41.83125 22.159374Q42.76875 23.096874 43.2375 24.1125L41.9875 24.971874Z" fill-rule="nonzero"/><path fill="#757575" d="M65.20625 37.55L65.20625 23.33125L69.22188 23.33125Q71.06563 23.33125 72.4875 24.159374Q73.925 24.971874 74.69063 26.4875Q75.47188 28.003124 75.4875 29.95625L75.4875 30.8625Q75.4875 32.878124 74.70625 34.39375Q73.925 35.909374 72.4875 36.721874Q71.05 37.534374 69.14375 37.55L65.20625 37.55ZM67.08125 24.878124L67.08125 36.01875L69.05 36.01875Q71.22188 36.01875 72.425 34.675Q73.62813 33.315624 73.62813 30.83125L73.62813 30.003124Q73.62813 27.58125 72.4875 26.2375Q71.34688 24.89375 69.26875 24.878124L67.08125 24.878124ZM83.01875 28.596874Q82.6125 28.534374 82.14375 28.534374Q80.3625 28.534374 79.72188 30.05L79.72188 37.55L77.925 37.55L77.925 26.9875L79.675 26.9875L79.70625 28.20625Q80.59688 26.784374 82.22188 26.784374Q82.75313 26.784374 83.01875 26.925L83.01875 28.596874ZM89.3 37.753124Q87.15938 37.753124 85.8 36.346874Q84.45625 34.925 84.45625 32.565624L84.45625 32.221874Q84.45625 30.659374 85.05 29.425Q85.65938 28.190624 86.7375 27.4875Q87.81563 26.784374 89.08125 26.784374Q91.14375 26.784374 92.28438 28.14375Q93.425 29.503124 93.425 32.034374L93.425 32.784374L86.26875 32.784374Q86.3 34.346874 87.175 35.315624Q88.05 36.26875 89.39375 36.26875Q90.3625 36.26875 91.01875 35.878124Q91.69063 35.4875 92.19063 34.846874L93.28438 35.70625Q91.95625 37.753124 89.3 37.753124ZM89.08125 28.26875Q87.9875 28.26875 87.2375 29.065624Q86.50313 29.8625 86.33125 31.3L91.6125 31.3L91.6125 31.159374Q91.53438 29.784374 90.8625 29.034374Q90.20625 28.26875 89.08125 28.26875ZM102.44063 37.55Q102.28438 37.2375 102.19063 36.440624Q100.925 37.753124 99.175 37.753124Q97.6125 37.753124 96.6125 36.8625Q95.6125 35.971874 95.6125 34.6125Q95.6125 32.971874 96.8625 32.065624Q98.12813 31.14375 100.39375 31.14375L102.15938 31.14375L102.15938 30.315624Q102.15938 29.3625 101.58125 28.8Q101.01875 28.2375 99.925 28.2375Q98.95625 28.2375 98.3 28.7375Q97.64375 29.221874 97.64375 29.909374L95.83125 29.909374Q95.83125 29.128124 96.39375 28.39375Q96.95625 27.64375 97.90938 27.221874Q98.87813 26.784374 100.03438 26.784374Q101.8625 26.784374 102.89375 27.70625Q103.925 28.6125 103.97188 30.221874L103.97188 35.08125Q103.97188 36.534374 104.33125 37.39375L104.33125 37.55L102.44063 37.55ZM99.44063 36.175Q100.3 36.175 101.05 35.7375Q101.81563 35.3 102.15938 34.596874L102.15938 32.425L100.7375 32.425Q97.425 32.425 97.425 34.3625Q97.425 35.221874 97.9875 35.70625Q98.55 36.175 99.44063 36.175ZM108.6125 26.9875L108.65938 28.159374Q109.83125 26.784374 111.8 26.784374Q114.01875 26.784374 114.81563 28.4875Q115.34688 27.721874 116.19063 27.253124Q117.03438 26.784374 118.19063 26.784374Q121.65938 26.784374 121.72188 30.471874L121.72188 37.55L119.90938 37.55L119.90938 30.58125Q119.90938 29.440624 119.39375 28.878124Q118.87813 28.315624 117.65938 28.315624Q116.65938 28.315624 115.9875 28.925Q115.33125 29.51875 115.22188 30.534374L115.22188 37.55L113.40938 37.55L113.40938 30.628124Q113.40938 28.315624 111.14375 28.315624Q109.3625 28.315624 108.72188 29.83125L108.72188 37.55L106.90938 37.55L106.90938 26.9875L108.6125 26.9875ZM131.06563 34.753124Q131.06563 34.01875 130.51875 33.6125Q129.97188 33.20625 128.59688 32.909374Q127.22188 32.6125 126.40938 32.20625Q125.6125 31.8 125.22188 31.2375Q124.84688 30.659374 124.84688 29.878124Q124.84688 28.58125 125.94063 27.690624Q127.03438 26.784374 128.75313 26.784374Q130.55 26.784374 131.65938 27.721874Q132.78438 28.64375 132.78438 30.08125L130.95625 30.08125Q130.95625 29.346874 130.33125 28.815624Q129.70625 28.26875 128.75313 28.26875Q127.75313 28.26875 127.19063 28.70625Q126.64375 29.128124 126.64375 29.83125Q126.64375 30.471874 127.15938 30.815624Q127.675 31.14375 129.03438 31.45625Q130.39375 31.753124 131.22188 32.175Q132.06563 32.58125 132.47188 33.175Q132.87813 33.76875 132.87813 34.6125Q132.87813 36.034374 131.7375 36.89375Q130.6125 37.753124 128.8 37.753124Q127.53438 37.753124 126.55 37.3Q125.58125 36.846874 125.01875 36.05Q124.47188 35.2375 124.47188 34.3L126.28438 34.3Q126.33125 35.20625 127.00313 35.7375Q127.69063 36.26875 128.8 36.26875Q129.83125 36.26875 130.44063 35.8625Q131.06563 35.440624 131.06563 34.753124ZM139.84688 31.784374Q139.84688 29.565624 140.44063 27.534374Q141.03438 25.503124 142.20625 23.846874Q143.37813 22.190624 144.62813 21.503124L145.00313 22.690624Q143.58125 23.784374 142.65938 26.034374Q141.75313 28.284374 141.65938 31.065624L141.65938 31.89375Q141.65938 35.659374 143.03438 38.440624Q143.8625 40.096874 145.00313 41.034374L144.62813 42.14375Q143.33125 41.425 142.15938 39.721874Q139.84688 36.39375 139.84688 31.784374ZM156.05 37.55L146.7375 37.55L146.7375 36.253124L151.65938 30.784374Q152.75313 29.534374 153.15938 28.76875Q153.58125 27.9875 153.58125 27.159374Q153.58125 26.05 152.90938 25.33125Q152.2375 24.6125 151.1125 24.6125Q149.75313 24.6125 149.00313 25.39375Q148.26875 26.159374 148.26875 27.51875L146.45625 27.51875Q146.45625 25.55 147.72188 24.346874Q148.9875 23.128124 151.1125 23.128124Q153.09688 23.128124 154.2375 24.175Q155.39375 25.221874 155.39375 26.940624Q155.39375 29.05 152.72188 31.940624L148.90938 36.08125L156.05 36.08125L156.05 37.55ZM166.64375 31.4875Q166.64375 34.659374 165.56563 36.20625Q164.4875 37.753124 162.175 37.753124Q159.89375 37.753124 158.8 36.2375Q157.70625 34.721874 157.675 31.721874L157.675 29.315624Q157.675 26.175 158.75313 24.659374Q159.84688 23.128124 162.15938 23.128124Q164.45625 23.128124 165.53438 24.6125Q166.6125 26.08125 166.64375 29.14375L166.64375 31.4875ZM164.84688 29.01875Q164.84688 26.721874 164.19063 25.675Q163.55 24.6125 162.15938 24.6125Q160.76875 24.6125 160.12813 25.659374Q159.50313 26.70625 159.4875 28.878124L159.4875 31.76875Q159.4875 34.065624 160.14375 35.175Q160.81563 36.26875 162.175 36.26875Q163.51875 36.26875 164.15938 35.2375Q164.81563 34.20625 164.84688 31.971874L164.84688 29.01875ZM177.64375 31.4875Q177.64375 34.659374 176.56563 36.20625Q175.4875 37.753124 173.175 37.753124Q170.89375 37.753124 169.8 36.2375Q168.70625 34.721874 168.675 31.721874L168.675 29.315624Q168.675 26.175 169.75313 24.659374Q170.84688 23.128124 173.15938 23.128124Q175.45625 23.128124 176.53438 24.6125Q177.6125 26.08125 177.64375 29.14375L177.64375 31.4875ZM175.84688 29.01875Q175.84688 26.721874 175.19063 25.675Q174.55 24.6125 173.15938 24.6125Q171.76875 24.6125 171.12813 25.659374Q170.50313 26.70625 170.4875 28.878124L170.4875 31.76875Q170.4875 34.065624 171.14375 35.175Q171.81563 36.26875 173.175 36.26875Q174.51875 36.26875 175.15938 35.2375Q175.81563 34.20625 175.84688 31.971874L175.84688 29.01875ZM188.90938 24.346874L183.01875 37.55L181.12813 37.55L187.00313 24.815624L179.3 24.815624L179.3 23.33125L188.90938 23.33125L188.90938 24.346874ZM194.675 32.253124L189.90938 32.253124L189.90938 30.76875L194.675 30.76875L194.675 32.253124ZM206.05 37.55L196.7375 37.55L196.7375 36.253124L201.65938 30.784374Q202.75313 29.534374 203.15938 28.76875Q203.58125 27.9875 203.58125 27.159374Q203.58125 26.05 202.90938 25.33125Q202.2375 24.6125 201.1125 24.6125Q199.75313 24.6125 199.00313 25.39375Q198.26875 26.159374 198.26875 27.51875L196.45625 27.51875Q196.45625 25.55 197.72188 24.346874Q198.9875 23.128124 201.1125 23.128124Q203.09688 23.128124 204.2375 24.175Q205.39375 25.221874 205.39375 26.940624Q205.39375 29.05 202.72188 31.940624L198.90938 36.08125L206.05 36.08125L206.05 37.55ZM216.64375 31.4875Q216.64375 34.659374 215.56563 36.20625Q214.4875 37.753124 212.175 37.753124Q209.89375 37.753124 208.8 36.2375Q207.70625 34.721874 207.675 31.721874L207.675 29.315624Q207.675 26.175 208.75313 24.659374Q209.84688 23.128124 212.15938 23.128124Q214.45625 23.128124 215.53438 24.6125Q216.6125 26.08125 216.64375 29.14375L216.64375 31.4875ZM214.84688 29.01875Q214.84688 26.721874 214.19063 25.675Q213.55 24.6125 212.15938 24.6125Q210.76875 24.6125 210.12813 25.659374Q209.50313 26.70625 209.4875 28.878124L209.4875 31.76875Q209.4875 34.065624 210.14375 35.175Q210.81563 36.26875 212.175 36.26875Q213.51875 36.26875 214.15938 35.2375Q214.81563 34.20625 214.84688 31.971874L214.84688 29.01875ZM228.05 37.55L218.7375 37.55L218.7375 36.253124L223.65938 30.784374Q224.75313 29.534374 225.15938 28.76875Q225.58125 27.9875 225.58125 27.159374Q225.58125 26.05 224.90938 25.33125Q224.2375 24.6125 223.1125 24.6125Q221.75313 24.6125 221.00313 25.39375Q220.26875 26.159374 220.26875 27.51875L218.45625 27.51875Q218.45625 25.55 219.72188 24.346874Q220.9875 23.128124 223.1125 23.128124Q225.09688 23.128124 226.2375 24.175Q227.39375 25.221874 227.39375 26.940624Q227.39375 29.05 224.72188 31.940624L220.90938 36.08125L228.05 36.08125L228.05 37.55ZM235.675 37.55L233.84688 37.55L233.84688 25.503124L230.20625 26.846874L230.20625 25.20625L235.39375 23.26875L235.675 23.26875L235.675 37.55ZM245.08125 31.878124Q245.08125 34.05 244.50313 36.05Q243.94063 38.05 242.76875 39.7375Q241.59688 41.425 240.3 42.14375L239.925 41.034374Q241.425 39.878124 242.33125 37.45625Q243.25313 35.034374 243.26875 32.065624L243.26875 31.753124Q243.26875 29.70625 242.83125 27.940624Q242.40938 26.175 241.64375 24.784374Q240.87813 23.39375 239.925 22.6125L240.3 21.503124Q241.59688 22.221874 242.75313 23.89375Q243.925 25.55 244.50313 27.565624Q245.08125 29.58125 245.08125 31.878124Z" fill-rule="nonzero"/></svg>