<svg version="1.1" viewBox="0.0 0.0 600.0 371.0" fill="none" stroke="none" stroke-linecap="square" stroke-miterlimit="10" width="600" height="371" xmlns:xlink="http://www.w3.org/1999/xlink" xmlns="http://www.w3.org/2000/svg"><path fill="#ffffff" d="M0 0L600.0 0L600.0 371.0L0 371.0L0 0Z" fill-rule="nonzero"/><path stroke="#cccccc" stroke-width="1.0" stroke-linecap="butt" d="M78.5 62.5L78.5 298.5" fill-rule="nonzero"/><path stroke="#cccccc" stroke-width="1.0" stroke-linecap="butt" d="M246.5 62.5L246.5 298.5" fill-rule="nonzero"/><path stroke="#cccccc" stroke-width="1.0" stroke-linecap="butt" d="M413.5 62.5L413.5 298.5" fill-rule="nonzero"/><path stroke="#cccccc" stroke-width="1.0" stroke-linecap="butt" d="M581.5 62.5L581.5 298.5" fill-rule="nonzero"/><path stroke="#333333" stroke-width="1.0" stroke-linecap="butt" d="M78.5 298.5L581.5 298.5" fill-rule="nonzero"/><path stroke="#cccccc" stroke-width="1.0" stroke-linecap="butt" d="M78.5 239.5L581.5 239.5" fill-rule="nonzero"/><path stroke="#cccccc" stroke-width="1.0" stroke-linecap="butt" d="M78.5 180.5L581.5 180.5" fill-rule="nonzero"/><path stroke="#cccccc" stroke-width="1.0" stroke-linecap="butt" d="M78.5 121.5L581.5 121.5" fill-rule="nonzero"/><path stroke="#cccccc" stroke-width="1.0" stroke-linecap="butt" d="M78.5 62.5L581.5 62.5" fill-rule="nonzero"/><path stroke="#e6e6e6" stroke-width="1.0" stroke-linecap="butt" d="M78.5 286.5L581.5 286.5" fill-rule="nonzero"/><path stroke="#e6e6e6" stroke-width="1.0" stroke-linecap="butt" d="M78.5 274.5L581.5 274.5" fill-rule="nonzero"/><path stroke="#e6e6e6" stroke-width="1.0" stroke-linecap="butt" d="M78.5 263.5L581.5 263.5" fill-rule="nonzero"/><path stroke="#e6e6e6" stroke-width="1.0" stroke-linecap="butt" d="M78.5 251.5L581.5 251.5" fill-rule="nonzero"/><path stroke="#e6e6e6" stroke-width="1.0" stroke-linecap="butt" d="M78.5 227.5L581.5 227.5" fill-rule="nonzero"/><path stroke="#e6e6e6" stroke-width="1.0" stroke-linecap="butt" d="M78.5 215.5L581.5 215.5" fill-rule="nonzero"/><path stroke="#e6e6e6" stroke-width="1.0" stroke-linecap="butt" d="M78.5 204.5L581.5 204.5" fill-rule="nonzero"/><path stroke="#e6e6e6" stroke-width="1.0" stroke-linecap="butt" d="M78.5 192.5L581.5 192.5" fill-rule="nonzero"/><path stroke="#e6e6e6" stroke-width="1.0" stroke-linecap="butt" d="M78.5 168.5L581.5 168.5" fill-rule="nonzero"/><path stroke="#e6e6e6" stroke-width="1.0" stroke-linecap="butt" d="M78.5 156.5L581.5 156.5" fill-rule="nonzero"/><path stroke="#e6e6e6" stroke-width="1.0" stroke-linecap="butt" d="M78.5 145.5L581.5 145.5" fill-rule="nonzero"/><path stroke="#e6e6e6" stroke-width="1.0" stroke-linecap="butt" d="M78.5 133.5L581.5 133.5" fill-rule="nonzero"/><path stroke="#e6e6e6" stroke-width="1.0" stroke-linecap="butt" d="M78.5 109.5L581.5 109.5" fill-rule="nonzero"/><path stroke="#e6e6e6" stroke-width="1.0" stroke-linecap="butt" d="M78.5 97.5L581.5 97.5" fill-rule="nonzero"/><path stroke="#e6e6e6" stroke-width="1.0" stroke-linecap="butt" d="M78.5 86.5L581.5 86.5" fill-rule="nonzero"/><path stroke="#e6e6e6" stroke-width="1.0" stroke-linecap="butt" d="M78.5 74.5L581.5 74.5" fill-rule="nonzero"/><path stroke="#eeeeee" stroke-width="1.0" stroke-linecap="butt" d="M-1765.4166 282.45L-1765.4166 298.45" fill-rule="nonzero"/><path stroke="#eeeeee" stroke-width="1.0" stroke-linecap="butt" d="M-1430.15 282.45L-1430.15 298.45" fill-rule="nonzero"/><path stroke="#eeeeee" stroke-width="1.0" stroke-linecap="butt" d="M-759.61664 282.45L-759.61664 298.45" fill-rule="nonzero"/><path stroke="#eeeeee" stroke-width="1.0" stroke-linecap="butt" d="M-591.98334 282.45L-591.98334 298.45" fill-rule="nonzero"/><path stroke="#eeeeee" stroke-width="1.0" stroke-linecap="butt" d="M-424.35 282.45L-424.35 298.45" fill-rule="nonzero"/><path stroke="#eeeeee" stroke-width="1.0" stroke-linecap="butt" d="M-256.71667 282.45L-256.71667 298.45" fill-rule="nonzero"/><path stroke="#eeeeee" stroke-width="1.0" stroke-linecap="butt" d="M-89.083336 282.45L-89.083336 298.45" fill-rule="nonzero"/><path stroke="#eeeeee" stroke-width="1.0" stroke-linecap="butt" d="M78.55 176.235L78.55 192.235" fill-rule="nonzero"/><path stroke="#eeeeee" stroke-width="1.0" stroke-linecap="butt" d="M246.18333 223.44167L246.18333 239.44167" fill-rule="nonzero"/><path stroke="#eeeeee" stroke-width="1.0" stroke-linecap="butt" d="M413.81668 93.62334L413.81668 109.62334" fill-rule="nonzero"/><path stroke="#eeeeee" stroke-width="1.0" stroke-linecap="butt" d="M581.45 140.83L581.45 156.83" fill-rule="nonzero"/><clipPath id="id_0"><path d="M78.55 62.416668L581.45 62.416668L581.45 298.45L78.55 298.45L78.55 62.416668Z" clip-rule="nonzero"/></clipPath><path stroke="#4285f4" stroke-width="2.0" stroke-linecap="butt" clip-path="url(#id_0)" d="M-1765.4166 298.45L-1430.15 298.45L-759.61664 298.45L-591.98334 298.45L-424.35 298.45L-256.71667 298.45L-89.083336 298.45L78.55 192.235L246.18333 239.44167L413.81668 109.62334L581.45 156.83" fill-rule="nonzero"/><path fill="#000000" fill-opacity="0.0" clip-path="url(#id_0)" d="M-1762.4166 298.45C-1762.4166 300.10684 -1763.7598 301.45 -1765.4166 301.45C-1767.0735 301.45 -1768.4166 300.10684 -1768.4166 298.45C-1768.4166 296.79315 -1767.0735 295.45 -1765.4166 295.45C-1763.7598 295.45 -1762.4166 296.79315 -1762.4166 298.45Z" fill-rule="nonzero"/><path fill="#000000" fill-opacity="0.0" clip-path="url(#id_0)" d="M-1427.15 298.45C-1427.15 300.10684 -1428.4932 301.45 -1430.15 301.45C-1431.8069 301.45 -1433.15 300.10684 -1433.15 298.45C-1433.15 296.79315 -1431.8069 295.45 -1430.15 295.45C-1428.4932 295.45 -1427.15 296.79315 -1427.15 298.45Z" fill-rule="nonzero"/><path fill="#000000" fill-opacity="0.0" clip-path="url(#id_0)" d="M-756.61664 298.45C-756.61664 300.10684 -757.95984 301.45 -759.61664 301.45C-761.2735 301.45 -762.61664 300.10684 -762.61664 298.45C-762.61664 296.79315 -761.2735 295.45 -759.61664 295.45C-757.95984 295.45 -756.61664 296.79315 -756.61664 298.45Z" fill-rule="nonzero"/><path fill="#000000" fill-opacity="0.0" clip-path="url(#id_0)" d="M-588.98334 298.45C-588.98334 300.10684 -590.3265 301.45 -591.98334 301.45C-593.6402 301.45 -594.98334 300.10684 -594.98334 298.45C-594.98334 296.79315 -593.6402 295.45 -591.98334 295.45C-590.3265 295.45 -588.98334 296.79315 -588.98334 298.45Z" fill-rule="nonzero"/><path fill="#000000" fill-opacity="0.0" clip-path="url(#id_0)" d="M-421.35 298.45C-421.35 300.10684 -422.69315 301.45 -424.35 301.45C-426.00687 301.45 -427.35 300.10684 -427.35 298.45C-427.35 296.79315 -426.00687 295.45 -424.35 295.45C-422.69315 295.45 -421.35 296.79315 -421.35 298.45Z" fill-rule="nonzero"/><path fill="#000000" fill-opacity="0.0" clip-path="url(#id_0)" d="M-253.71666 298.45C-253.71666 300.10684 -255.05981 301.45 -256.71667 301.45C-258.37354 301.45 -259.71667 300.10684 -259.71667 298.45C-259.71667 296.79315 -258.37354 295.45 -256.71667 295.45C-255.05981 295.45 -253.71666 296.79315 -253.71666 298.45Z" fill-rule="nonzero"/><path fill="#000000" fill-opacity="0.0" clip-path="url(#id_0)" d="M-86.083336 298.45C-86.083336 300.10684 -87.426476 301.45 -89.083336 301.45C-90.74019 301.45 -92.083336 300.10684 -92.083336 298.45C-92.083336 296.79315 -90.74019 295.45 -89.083336 295.45C-87.426476 295.45 -86.083336 296.79315 -86.083336 298.45Z" fill-rule="nonzero"/><path fill="#000000" fill-opacity="0.0" clip-path="url(#id_0)" d="M81.55 192.235C81.55 193.89186 80.206856 195.235 78.55 195.235C76.89314 195.235 75.55 193.89186 75.55 192.235C75.55 190.57814 76.89314 189.235 78.55 189.235C80.206856 189.235 81.55 190.57814 81.55 192.235Z" fill-rule="nonzero"/><path fill="#000000" fill-opacity="0.0" clip-path="url(#id_0)" d="M249.18333 239.44167C249.18333 241.09853 247.8402 242.44167 246.18333 242.44167C244.52647 242.44167 243.18333 241.09853 243.18333 239.44167C243.18333 237.7848 244.52647 236.44167 246.18333 236.44167C247.8402 236.44167 249.18333 237.7848 249.18333 239.44167Z" fill-rule="nonzero"/><path fill="#000000" fill-opacity="0.0" clip-path="url(#id_0)" d="M416.81668 109.62334C416.81668 111.28019 415.4735 112.62334 413.81668 112.62334C412.15982 112.62334 410.81668 111.28019 410.81668 109.62334C410.81668 107.96648 412.15982 106.62334 413.81668 106.62334C415.4735 106.62334 416.81668 107.96648 416.81668 109.62334Z" fill-rule="nonzero"/><path fill="#000000" fill-opacity="0.0" clip-path="url(#id_0)" d="M584.45 156.83C584.45 158.48685 583.1069 159.83 581.45 159.83C579.79315 159.83 578.45 158.48685 578.45 156.83C578.45 155.17314 579.79315 153.83 581.45 153.83C583.1069 153.83 584.45 155.17314 584.45 156.83Z" fill-rule="nonzero"/><path stroke="#ffffff" stroke-width="3.0" stroke-linejoin="round" stroke-linecap="round" d="M-1762.8541 276.8094Q-1762.8541 278.71564 -1763.5104 279.65314Q-1764.151 280.575 -1765.5416 280.575Q-1766.901 280.575 -1767.5573 279.66876Q-1768.2135 278.7625 -1768.2448 276.95L-1768.2448 275.5125Q-1768.2448 273.6219 -1767.6041 272.71564Q-1766.9479 271.79376 -1765.5573 271.79376Q-1764.1823 271.79376 -1763.526 272.6844Q-1762.8698 273.5594 -1762.8541 275.40314L-1762.8541 276.8094ZM-1763.9479 275.325Q-1763.9479 273.95 -1764.3385 273.325Q-1764.7135 272.6844 -1765.5573 272.6844Q-1766.3854 272.6844 -1766.776 273.325Q-1767.151 273.95 -1767.151 275.2469L-1767.151 276.98126Q-1767.151 278.35626 -1766.7604 279.02814Q-1766.3541 279.6844 -1765.5416 279.6844Q-1764.7448 279.6844 -1764.3541 279.0594Q-1763.9635 278.4344 -1763.9479 277.10626L-1763.9479 275.325Z" fill-rule="nonzero"/><path fill="#4285f4" d="M-1762.8541 276.8094Q-1762.8541 278.71564 -1763.5104 279.65314Q-1764.151 280.575 -1765.5416 280.575Q-1766.901 280.575 -1767.5573 279.66876Q-1768.2135 278.7625 -1768.2448 276.95L-1768.2448 275.5125Q-1768.2448 273.6219 -1767.6041 272.71564Q-1766.9479 271.79376 -1765.5573 271.79376Q-1764.1823 271.79376 -1763.526 272.6844Q-1762.8698 273.5594 -1762.8541 275.40314L-1762.8541 276.8094ZM-1763.9479 275.325Q-1763.9479 273.95 -1764.3385 273.325Q-1764.7135 272.6844 -1765.5573 272.6844Q-1766.3854 272.6844 -1766.776 273.325Q-1767.151 273.95 -1767.151 275.2469L-1767.151 276.98126Q-1767.151 278.35626 -1766.7604 279.02814Q-1766.3541 279.6844 -1765.5416 279.6844Q-1764.7448 279.6844 -1764.3541 279.0594Q-1763.9635 278.4344 -1763.9479 277.10626L-1763.9479 275.325Z" fill-rule="nonzero"/><path stroke="#ffffff" stroke-width="3.0" stroke-linejoin="round" stroke-linecap="round" d="M-1427.5875 276.8094Q-1427.5875 278.71564 -1428.2438 279.65314Q-1428.8844 280.575 -1430.275 280.575Q-1431.6344 280.575 -1432.2906 279.66876Q-1432.9469 278.7625 -1432.9781 276.95L-1432.9781 275.5125Q-1432.9781 273.6219 -1432.3375 272.71564Q-1431.6813 271.79376 -1430.2906 271.79376Q-1428.9156 271.79376 -1428.2594 272.6844Q-1427.6031 273.5594 -1427.5875 275.40314L-1427.5875 276.8094ZM-1428.6813 275.325Q-1428.6813 273.95 -1429.0719 273.325Q-1429.4469 272.6844 -1430.2906 272.6844Q-1431.1188 272.6844 -1431.5094 273.325Q-1431.8844 273.95 -1431.8844 275.2469L-1431.8844 276.98126Q-1431.8844 278.35626 -1431.4938 279.02814Q-1431.0875 279.6844 -1430.275 279.6844Q-1429.4781 279.6844 -1429.0875 279.0594Q-1428.6969 278.4344 -1428.6813 277.10626L-1428.6813 275.325Z" fill-rule="nonzero"/><path fill="#4285f4" d="M-1427.5875 276.8094Q-1427.5875 278.71564 -1428.2438 279.65314Q-1428.8844 280.575 -1430.275 280.575Q-1431.6344 280.575 -1432.2906 279.66876Q-1432.9469 278.7625 -1432.9781 276.95L-1432.9781 275.5125Q-1432.9781 273.6219 -1432.3375 272.71564Q-1431.6813 271.79376 -1430.2906 271.79376Q-1428.9156 271.79376 -1428.2594 272.6844Q-1427.6031 273.5594 -1427.5875 275.40314L-1427.5875 276.8094ZM-1428.6813 275.325Q-1428.6813 273.95 -1429.0719 273.325Q-1429.4469 272.6844 -1430.2906 272.6844Q-1431.1188 272.6844 -1431.5094 273.325Q-1431.8844 273.95 -1431.8844 275.2469L-1431.8844 276.98126Q-1431.8844 278.35626 -1431.4938 279.02814Q-1431.0875 279.6844 -1430.275 279.6844Q-1429.4781 279.6844 -1429.0875 279.0594Q-1428.6969 278.4344 -1428.6813 277.10626L-1428.6813 275.325Z" fill-rule="nonzero"/><path stroke="#ffffff" stroke-width="3.0" stroke-linejoin="round" stroke-linecap="round" d="M-757.05414 276.8094Q-757.05414 278.71564 -757.7104 279.65314Q-758.351 280.575 -759.74164 280.575Q-761.101 280.575 -761.75726 279.66876Q-762.4135 278.7625 -762.44476 276.95L-762.44476 275.5125Q-762.44476 273.6219 -761.80414 272.71564Q-761.1479 271.79376 -759.75726 271.79376Q-758.38226 271.79376 -757.726 272.6844Q-757.06976 273.5594 -757.05414 275.40314L-757.05414 276.8094ZM-758.1479 275.325Q-758.1479 273.95 -758.5385 273.325Q-758.9135 272.6844 -759.75726 272.6844Q-760.5854 272.6844 -760.976 273.325Q-761.351 273.95 -761.351 275.2469L-761.351 276.98126Q-761.351 278.35626 -760.9604 279.02814Q-760.55414 279.6844 -759.74164 279.6844Q-758.94476 279.6844 -758.55414 279.0594Q-758.1635 278.4344 -758.1479 277.10626L-758.1479 275.325Z" fill-rule="nonzero"/><path fill="#4285f4" d="M-757.05414 276.8094Q-757.05414 278.71564 -757.7104 279.65314Q-758.351 280.575 -759.74164 280.575Q-761.101 280.575 -761.75726 279.66876Q-762.4135 278.7625 -762.44476 276.95L-762.44476 275.5125Q-762.44476 273.6219 -761.80414 272.71564Q-761.1479 271.79376 -759.75726 271.79376Q-758.38226 271.79376 -757.726 272.6844Q-757.06976 273.5594 -757.05414 275.40314L-757.05414 276.8094ZM-758.1479 275.325Q-758.1479 273.95 -758.5385 273.325Q-758.9135 272.6844 -759.75726 272.6844Q-760.5854 272.6844 -760.976 273.325Q-761.351 273.95 -761.351 275.2469L-761.351 276.98126Q-761.351 278.35626 -760.9604 279.02814Q-760.55414 279.6844 -759.74164 279.6844Q-758.94476 279.6844 -758.55414 279.0594Q-758.1635 278.4344 -758.1479 277.10626L-758.1479 275.325Z" fill-rule="nonzero"/><path stroke="#ffffff" stroke-width="3.0" stroke-linejoin="round" stroke-linecap="round" d="M-589.42084 276.8094Q-589.42084 278.71564 -590.0771 279.65314Q-590.7177 280.575 -592.10834 280.575Q-593.4677 280.575 -594.12396 279.66876Q-594.7802 278.7625 -594.81146 276.95L-594.81146 275.5125Q-594.81146 273.6219 -594.17084 272.71564Q-593.5146 271.79376 -592.12396 271.79376Q-590.74896 271.79376 -590.0927 272.6844Q-589.43646 273.5594 -589.42084 275.40314L-589.42084 276.8094ZM-590.5146 275.325Q-590.5146 273.95 -590.9052 273.325Q-591.2802 272.6844 -592.12396 272.6844Q-592.9521 272.6844 -593.3427 273.325Q-593.7177 273.95 -593.7177 275.2469L-593.7177 276.98126Q-593.7177 278.35626 -593.3271 279.02814Q-592.92084 279.6844 -592.10834 279.6844Q-591.31146 279.6844 -590.92084 279.0594Q-590.5302 278.4344 -590.5146 277.10626L-590.5146 275.325Z" fill-rule="nonzero"/><path fill="#4285f4" d="M-589.42084 276.8094Q-589.42084 278.71564 -590.0771 279.65314Q-590.7177 280.575 -592.10834 280.575Q-593.4677 280.575 -594.12396 279.66876Q-594.7802 278.7625 -594.81146 276.95L-594.81146 275.5125Q-594.81146 273.6219 -594.17084 272.71564Q-593.5146 271.79376 -592.12396 271.79376Q-590.74896 271.79376 -590.0927 272.6844Q-589.43646 273.5594 -589.42084 275.40314L-589.42084 276.8094ZM-590.5146 275.325Q-590.5146 273.95 -590.9052 273.325Q-591.2802 272.6844 -592.12396 272.6844Q-592.9521 272.6844 -593.3427 273.325Q-593.7177 273.95 -593.7177 275.2469L-593.7177 276.98126Q-593.7177 278.35626 -593.3271 279.02814Q-592.92084 279.6844 -592.10834 279.6844Q-591.31146 279.6844 -590.92084 279.0594Q-590.5302 278.4344 -590.5146 277.10626L-590.5146 275.325Z" fill-rule="nonzero"/><path stroke="#ffffff" stroke-width="3.0" stroke-linejoin="round" stroke-linecap="round" d="M-421.7875 276.8094Q-421.7875 278.71564 -422.44376 279.65314Q-423.08438 280.575 -424.475 280.575Q-425.83438 280.575 -426.49063 279.66876Q-427.14688 278.7625 -427.17813 276.95L-427.17813 275.5125Q-427.17813 273.6219 -426.5375 272.71564Q-425.88126 271.79376 -424.49063 271.79376Q-423.11563 271.79376 -422.45938 272.6844Q-421.80313 273.5594 -421.7875 275.40314L-421.7875 276.8094ZM-422.88126 275.325Q-422.88126 273.95 -423.27188 273.325Q-423.64688 272.6844 -424.49063 272.6844Q-425.31876 272.6844 -425.70938 273.325Q-426.08438 273.95 -426.08438 275.2469L-426.08438 276.98126Q-426.08438 278.35626 -425.69376 279.02814Q-425.2875 279.6844 -424.475 279.6844Q-423.67813 279.6844 -423.2875 279.0594Q-422.89688 278.4344 -422.88126 277.10626L-422.88126 275.325Z" fill-rule="nonzero"/><path fill="#4285f4" d="M-421.7875 276.8094Q-421.7875 278.71564 -422.44376 279.65314Q-423.08438 280.575 -424.475 280.575Q-425.83438 280.575 -426.49063 279.66876Q-427.14688 278.7625 -427.17813 276.95L-427.17813 275.5125Q-427.17813 273.6219 -426.5375 272.71564Q-425.88126 271.79376 -424.49063 271.79376Q-423.11563 271.79376 -422.45938 272.6844Q-421.80313 273.5594 -421.7875 275.40314L-421.7875 276.8094ZM-422.88126 275.325Q-422.88126 273.95 -423.27188 273.325Q-423.64688 272.6844 -424.49063 272.6844Q-425.31876 272.6844 -425.70938 273.325Q-426.08438 273.95 -426.08438 275.2469L-426.08438 276.98126Q-426.08438 278.35626 -425.69376 279.02814Q-425.2875 279.6844 -424.475 279.6844Q-423.67813 279.6844 -423.2875 279.0594Q-422.89688 278.4344 -422.88126 277.10626L-422.88126 275.325Z" fill-rule="nonzero"/><path stroke="#ffffff" stroke-width="3.0" stroke-linejoin="round" stroke-linecap="round" d="M-254.15416 276.8094Q-254.15416 278.71564 -254.81041 279.65314Q-255.45103 280.575 -256.84167 280.575Q-258.20105 280.575 -258.8573 279.66876Q-259.51355 278.7625 -259.5448 276.95L-259.5448 275.5125Q-259.5448 273.6219 -258.90417 272.71564Q-258.24792 271.79376 -256.8573 271.79376Q-255.48228 271.79376 -254.82603 272.6844Q-254.16978 273.5594 -254.15416 275.40314L-254.15416 276.8094ZM-255.24791 275.325Q-255.24791 273.95 -255.63853 273.325Q-256.01355 272.6844 -256.8573 272.6844Q-257.68542 272.6844 -258.07605 273.325Q-258.45105 273.95 -258.45105 275.2469L-258.45105 276.98126Q-258.45105 278.35626 -258.06042 279.02814Q-257.65417 279.6844 -256.84167 279.6844Q-256.0448 279.6844 -255.65416 279.0594Q-255.26353 278.4344 -255.24791 277.10626L-255.24791 275.325Z" fill-rule="nonzero"/><path fill="#4285f4" d="M-254.15417 276.8094Q-254.15417 278.71564 -254.81042 279.65314Q-255.45105 280.575 -256.84167 280.575Q-258.20105 280.575 -258.8573 279.66876Q-259.51355 278.7625 -259.5448 276.95L-259.5448 275.5125Q-259.5448 273.6219 -258.90417 272.71564Q-258.24792 271.79376 -256.8573 271.79376Q-255.4823 271.79376 -254.82605 272.6844Q-254.1698 273.5594 -254.15417 275.40314L-254.15417 276.8094ZM-255.24792 275.325Q-255.24792 273.95 -255.63855 273.325Q-256.01355 272.6844 -256.8573 272.6844Q-257.68542 272.6844 -258.07605 273.325Q-258.45105 273.95 -258.45105 275.2469L-258.45105 276.98126Q-258.45105 278.35626 -258.06042 279.02814Q-257.65417 279.6844 -256.84167 279.6844Q-256.0448 279.6844 -255.65417 279.0594Q-255.26355 278.4344 -255.24792 277.10626L-255.24792 275.325Z" fill-rule="nonzero"/><path stroke="#ffffff" stroke-width="3.0" stroke-linejoin="round" stroke-linecap="round" d="M-86.520836 276.8094Q-86.520836 278.71564 -87.177086 279.65314Q-87.81771 280.575 -89.208336 280.575Q-90.56771 280.575 -91.22396 279.66876Q-91.88021 278.7625 -91.91146 276.95L-91.91146 275.5125Q-91.91146 273.6219 -91.270836 272.71564Q-90.614586 271.79376 -89.22396 271.79376Q-87.84896 271.79376 -87.19271 272.6844Q-86.53646 273.5594 -86.520836 275.40314L-86.520836 276.8094ZM-87.614586 275.325Q-87.614586 273.95 -88.00521 273.325Q-88.38021 272.6844 -89.22396 272.6844Q-90.052086 272.6844 -90.44271 273.325Q-90.81771 273.95 -90.81771 275.2469L-90.81771 276.98126Q-90.81771 278.35626 -90.427086 279.02814Q-90.020836 279.6844 -89.208336 279.6844Q-88.41146 279.6844 -88.020836 279.0594Q-87.63021 278.4344 -87.614586 277.10626L-87.614586 275.325Z" fill-rule="nonzero"/><path fill="#4285f4" d="M-86.520836 276.8094Q-86.520836 278.71564 -87.177086 279.65314Q-87.81771 280.575 -89.208336 280.575Q-90.56771 280.575 -91.22396 279.66876Q-91.88021 278.7625 -91.91146 276.95L-91.91146 275.5125Q-91.91146 273.6219 -91.270836 272.71564Q-90.614586 271.79376 -89.22396 271.79376Q-87.84896 271.79376 -87.19271 272.6844Q-86.53646 273.5594 -86.520836 275.40314L-86.520836 276.8094ZM-87.614586 275.325Q-87.614586 273.95 -88.00521 273.325Q-88.38021 272.6844 -89.22396 272.6844Q-90.052086 272.6844 -90.44271 273.325Q-90.81771 273.95 -90.81771 275.2469L-90.81771 276.98126Q-90.81771 278.35626 -90.427086 279.02814Q-90.020836 279.6844 -89.208336 279.6844Q-88.41146 279.6844 -88.020836 279.0594Q-87.63021 278.4344 -87.614586 277.10626L-87.614586 275.325Z" fill-rule="nonzero"/><path stroke="#ffffff" stroke-width="3.0" stroke-linejoin="round" stroke-linecap="round" d="M79.90938 170.485Q79.58125 170.89125 79.09688 171.14125Q78.62813 171.37563 78.06563 171.37563Q77.33125 171.37563 76.78438 171.01625Q76.2375 170.65688 75.94063 170.00063Q75.64375 169.32875 75.64375 168.53188Q75.64375 167.68813 75.95625 167.00063Q76.28438 166.31313 76.87813 165.95375Q77.4875 165.57875 78.28438 165.57875Q79.55 165.57875 80.26875 166.53188Q81.00313 167.485 81.00313 169.11L81.00313 169.4225Q81.00313 171.9225 80.01875 173.06313Q79.03438 174.20375 77.05 174.235L76.83125 174.235L76.83125 173.32875L77.06563 173.32875Q78.40938 173.2975 79.12813 172.62563Q79.84688 171.95375 79.90938 170.485ZM78.2375 170.485Q78.78438 170.485 79.2375 170.15688Q79.70625 169.81313 79.925 169.32875L79.925 168.89125Q79.925 167.82875 79.45625 167.15688Q78.9875 166.485 78.28438 166.485Q77.56563 166.485 77.12813 167.03188Q76.70625 167.57875 76.70625 168.485Q76.70625 169.36 77.1125 169.9225Q77.53438 170.485 78.2375 170.485Z" fill-rule="nonzero"/><path fill="#4285f4" d="M79.90938 170.485Q79.58125 170.89125 79.09688 171.14125Q78.62813 171.37563 78.06563 171.37563Q77.33125 171.37563 76.78438 171.01625Q76.2375 170.65688 75.94063 170.00063Q75.64375 169.32875 75.64375 168.53188Q75.64375 167.68813 75.95625 167.00063Q76.28438 166.31313 76.87813 165.95375Q77.4875 165.57875 78.28438 165.57875Q79.55 165.57875 80.26875 166.53188Q81.00313 167.485 81.00313 169.11L81.00313 169.4225Q81.00313 171.9225 80.01875 173.06313Q79.03438 174.20375 77.05 174.235L76.83125 174.235L76.83125 173.32875L77.06563 173.32875Q78.40938 173.2975 79.12813 172.62563Q79.84688 171.95375 79.90938 170.485ZM78.2375 170.485Q78.78438 170.485 79.2375 170.15688Q79.70625 169.81313 79.925 169.32875L79.925 168.89125Q79.925 167.82875 79.45625 167.15688Q78.9875 166.485 78.28438 166.485Q77.56563 166.485 77.12813 167.03188Q76.70625 167.57875 76.70625 168.485Q76.70625 169.36 77.1125 169.9225Q77.53438 170.485 78.2375 170.485Z" fill-rule="nonzero"/><path stroke="#ffffff" stroke-width="3.0" stroke-linejoin="round" stroke-linecap="round" d="M243.88646 217.16042L244.32396 212.91042L248.69896 212.91042L248.69896 213.91042L245.24583 213.91042L244.98021 216.23854Q245.62083 215.86354 246.41771 215.86354Q247.57396 215.86354 248.26146 216.64479Q248.94896 217.41042 248.94896 218.72292Q248.94896 220.03542 248.23021 220.80104Q247.52708 221.56667 246.24583 221.56667Q245.12083 221.56667 244.40208 220.94167Q243.68333 220.30104 243.58958 219.19167L244.60521 219.19167Q244.71458 219.92604 245.13646 220.30104Q245.55833 220.67604 246.24583 220.67604Q246.99583 220.67604 247.43333 220.16042Q247.87083 219.64479 247.87083 218.73854Q247.87083 217.87917 247.40208 217.36354Q246.93333 216.84792 246.15208 216.84792Q245.44896 216.84792 245.04271 217.14479L244.76146 217.37917L243.88646 217.16042Z" fill-rule="nonzero"/><path fill="#4285f4" d="M243.88646 217.16042L244.32396 212.91042L248.69896 212.91042L248.69896 213.91042L245.24583 213.91042L244.98021 216.23854Q245.62083 215.86354 246.41771 215.86354Q247.57396 215.86354 248.26146 216.64479Q248.94896 217.41042 248.94896 218.72292Q248.94896 220.03542 248.23021 220.80104Q247.52708 221.56667 246.24583 221.56667Q245.12083 221.56667 244.40208 220.94167Q243.68333 220.30104 243.58958 219.19167L244.60521 219.19167Q244.71458 219.92604 245.13646 220.30104Q245.55833 220.67604 246.24583 220.67604Q246.99583 220.67604 247.43333 220.16042Q247.87083 219.64479 247.87083 218.73854Q247.87083 217.87917 247.40208 217.36354Q246.93333 216.84792 246.15208 216.84792Q245.44896 216.84792 245.04271 217.14479L244.76146 217.37917L243.88646 217.16042Z" fill-rule="nonzero"/><path stroke="#ffffff" stroke-width="3.0" stroke-linejoin="round" stroke-linecap="round" d="M411.0823 91.62334L410.00418 91.62334L410.00418 84.40459L407.81668 85.20146L407.81668 84.21709L410.92606 83.04521L411.0823 83.04521L411.0823 91.62334ZM418.78543 83.09209L418.78543 83.99834L418.5823 83.99834Q417.31668 84.02959 416.56668 84.76396Q415.81668 85.48271 415.69168 86.79521Q416.37918 86.02959 417.53543 86.02959Q418.6448 86.02959 419.31668 86.81084Q419.98856 87.59209 419.98856 88.84209Q419.98856 90.15459 419.2698 90.95146Q418.55106 91.74834 417.3323 91.74834Q416.11356 91.74834 415.34793 90.81084Q414.59793 89.85771 414.59793 88.37334L414.59793 87.96709Q414.59793 85.60771 415.59793 84.35771Q416.59793 83.10771 418.5823 83.09209L418.78543 83.09209ZM417.36356 86.93584Q416.80106 86.93584 416.3323 87.26396Q415.86356 87.59209 415.67606 88.10771L415.67606 88.49834Q415.67606 89.56084 416.1448 90.20146Q416.62918 90.84209 417.3323 90.84209Q418.06668 90.84209 418.48856 90.31084Q418.91043 89.76396 418.91043 88.88896Q418.91043 88.01396 418.48856 87.48271Q418.06668 86.93584 417.36356 86.93584Z" fill-rule="nonzero"/><path fill="#4285f4" d="M411.0823 91.62334L410.00418 91.62334L410.00418 84.40459L407.81668 85.20146L407.81668 84.21709L410.92606 83.04521L411.0823 83.04521L411.0823 91.62334ZM418.78543 83.09209L418.78543 83.99834L418.5823 83.99834Q417.31668 84.02959 416.56668 84.76396Q415.81668 85.48271 415.69168 86.79521Q416.37918 86.02959 417.53543 86.02959Q418.6448 86.02959 419.31668 86.81084Q419.98856 87.59209 419.98856 88.84209Q419.98856 90.15459 419.2698 90.95146Q418.55106 91.74834 417.3323 91.74834Q416.11356 91.74834 415.34793 90.81084Q414.59793 89.85771 414.59793 88.37334L414.59793 87.96709Q414.59793 85.60771 415.59793 84.35771Q416.59793 83.10771 418.5823 83.09209L418.78543 83.09209ZM417.36356 86.93584Q416.80106 86.93584 416.3323 87.26396Q415.86356 87.59209 415.67606 88.10771L415.67606 88.49834Q415.67606 89.56084 416.1448 90.20146Q416.62918 90.84209 417.3323 90.84209Q418.06668 90.84209 418.48856 90.31084Q418.91043 89.76396 418.91043 88.88896Q418.91043 88.01396 418.48856 87.48271Q418.06668 86.93584 417.36356 86.93584Z" fill-rule="nonzero"/><path stroke="#ffffff" stroke-width="3.0" stroke-linejoin="round" stroke-linecap="round" d="M578.71564 138.83L577.6375 138.83L577.6375 131.61125L575.45 132.40813L575.45 131.42375L578.5594 130.25188L578.71564 130.25188L578.71564 138.83ZM587.7469 138.83L582.15314 138.83L582.15314 138.04875L585.10626 134.7675Q585.7625 134.0175 586.0125 133.56438Q586.2625 133.09563 586.2625 132.59563Q586.2625 131.92375 585.85626 131.50188Q585.46564 131.06438 584.77814 131.06438Q583.98126 131.06438 583.52814 131.53313Q583.075 131.98625 583.075 132.81438L581.9969 132.81438Q581.9969 131.62688 582.7469 130.90813Q583.5125 130.17375 584.77814 130.17375Q585.98126 130.17375 586.66876 130.79875Q587.35626 131.42375 587.35626 132.47063Q587.35626 133.72063 585.7469 135.47063L583.46564 137.93938L587.7469 137.93938L587.7469 138.83Z" fill-rule="nonzero"/><path fill="#4285f4" d="M578.71564 138.83L577.6375 138.83L577.6375 131.61125L575.45 132.40813L575.45 131.42375L578.5594 130.25188L578.71564 130.25188L578.71564 138.83ZM587.7469 138.83L582.15314 138.83L582.15314 138.04875L585.10626 134.7675Q585.7625 134.0175 586.0125 133.56438Q586.2625 133.09563 586.2625 132.59563Q586.2625 131.92375 585.85626 131.50188Q585.46564 131.06438 584.77814 131.06438Q583.98126 131.06438 583.52814 131.53313Q583.075 131.98625 583.075 132.81438L581.9969 132.81438Q581.9969 131.62688 582.7469 130.90813Q583.5125 130.17375 584.77814 130.17375Q585.98126 130.17375 586.66876 130.79875Q587.35626 131.42375 587.35626 132.47063Q587.35626 133.72063 585.7469 135.47063L583.46564 137.93938L587.7469 137.93938L587.7469 138.83Z" fill-rule="nonzero"/><path fill="#424242" d="M221.25 342.1375Q220.35938 343.6844 219.04688 344.71564L218.39062 343.8719Q220.3125 342.46564 221.01562 339.79376L222.09375 340.075Q222.28125 340.2625 221.95312 340.3094L221.57812 341.2469L228.1875 341.2469L228.1875 342.1375L224.76562 342.1375L224.76562 343.73126L227.57812 343.73126L227.57812 344.6219L224.76562 344.6219L224.76562 346.73126L228.70312 346.73126L228.70312 347.6219L224.76562 347.6219L224.76562 350.4344L223.82812 350.4344L223.82812 347.6219L218.4375 347.6219L218.4375 346.73126L220.54688 346.73126L220.54688 343.73126L223.82812 343.73126L223.82812 342.1375L221.25 342.1375ZM221.48438 346.73126L223.82812 346.73126L223.82812 344.6219L221.48438 344.6219L221.48438 346.73126ZM240.46875 350.52814Q238.21875 350.2469 236.48438 349.35626Q234.84375 350.34064 232.54688 350.575L232.17188 349.59064Q234.28125 349.40314 235.6875 348.7Q234.9375 347.95 234.32812 347.10626L233.01562 347.10626L233.01562 346.35626L238.5 346.35626L238.64062 346.21564L239.34375 346.77814Q239.53125 347.0594 239.15625 347.0125Q238.35938 347.95 237.23438 348.7469Q238.875 349.3094 240.70312 349.45L240.46875 350.52814ZM236.20312 340.96564L240.42188 340.96564L240.42188 341.85626L232.125 341.85626L232.125 345.98126Q232.125 348.60626 230.95312 350.3875L230.10938 349.6844Q231.1875 348.23126 231.1875 345.79376L231.1875 340.96564L235.125 340.96564L235.125 339.7469L236.15625 339.7469Q236.53125 339.79376 236.20312 340.02814L236.20312 340.96564ZM236.48438 348.23126Q237.04688 347.85626 237.79688 347.10626L235.35938 347.10626Q235.82812 347.66876 236.48438 348.23126ZM238.17188 345.7L237.23438 345.7L237.23438 345.41876L235.21875 345.41876L235.21875 345.7469L234.28125 345.7469L234.28125 343.8719L232.40625 343.8719L232.40625 343.1219L234.28125 343.1219L234.28125 342.23126L235.17188 342.23126Q235.54688 342.27814 235.21875 342.5125L235.21875 343.1219L237.23438 343.1219L237.23438 342.1375L238.125 342.1375Q238.5 342.1844 238.17188 342.41876L238.17188 343.1219L240.42188 343.1219L240.42188 343.8719L238.17188 343.8719L238.17188 345.7ZM237.23438 343.8719L235.21875 343.8719L235.21875 344.66876L237.23438 344.66876L237.23438 343.8719Z" fill-rule="nonzero"/><path fill="#424242" d="M250.20312 345.6844L246.60938 345.6844L246.60938 349.45L245.48438 349.45L245.48438 340.91876L250.78125 340.91876L250.78125 341.84064L246.60938 341.84064L246.60938 344.7625L250.20312 344.7625L250.20312 345.6844ZM253.5 349.45L252.42188 349.45L252.42188 343.10626L253.5 343.10626L253.5 349.45ZM252.32812 341.4344Q252.32812 341.16876 252.48438 340.98126Q252.65625 340.79376 252.96875 340.79376Q253.28125 340.79376 253.4375 340.98126Q253.60938 341.16876 253.60938 341.4344Q253.60938 341.6844 253.4375 341.8719Q253.28125 342.04376 252.96875 342.04376Q252.65625 342.04376 252.48438 341.8719Q252.32812 341.6844 252.32812 341.4344ZM259.01562 347.7625Q259.01562 347.325 258.67188 347.09064Q258.34375 346.84064 257.51562 346.66876Q256.70312 346.4969 256.21875 346.2469Q255.73438 345.9969 255.5 345.66876Q255.28125 345.325 255.28125 344.85626Q255.28125 344.075 255.9375 343.54376Q256.59375 342.9969 257.625 342.9969Q258.70312 342.9969 259.35938 343.5594Q260.03125 344.10626 260.03125 344.96564L258.95312 344.96564Q258.95312 344.52814 258.5625 344.21564Q258.1875 343.8875 257.625 343.8875Q257.03125 343.8875 256.6875 344.15314Q256.35938 344.40314 256.35938 344.8094Q256.35938 345.2 256.67188 345.40314Q256.98438 345.60626 257.79688 345.79376Q258.60938 345.96564 259.10938 346.21564Q259.60938 346.46564 259.84375 346.825Q260.09375 347.1844 260.09375 347.6844Q260.09375 348.54376 259.40625 349.0594Q258.73438 349.575 257.65625 349.575Q256.89062 349.575 256.29688 349.3094Q255.71875 349.02814 255.39062 348.54376Q255.0625 348.0594 255.0625 347.4969L256.14062 347.4969Q256.17188 348.04376 256.57812 348.3719Q256.98438 348.6844 257.65625 348.6844Q258.26562 348.6844 258.64062 348.4344Q259.01562 348.1844 259.01562 347.7625ZM263.85938 348.6844Q264.4375 348.6844 264.875 348.34064Q265.3125 347.98126 265.35938 347.45L266.39062 347.45Q266.35938 347.9969 266.0 348.4969Q265.65625 348.98126 265.07812 349.27814Q264.51562 349.575 263.85938 349.575Q262.5625 349.575 261.79688 348.71564Q261.04688 347.84064 261.04688 346.34064L261.04688 346.15314Q261.04688 345.23126 261.375 344.5125Q261.71875 343.79376 262.34375 343.40314Q262.98438 342.9969 263.85938 342.9969Q264.92188 342.9969 265.625 343.6375Q266.34375 344.2625 266.39062 345.29376L265.35938 345.29376Q265.3125 344.66876 264.89062 344.27814Q264.46875 343.8875 263.85938 343.8875Q263.03125 343.8875 262.57812 344.48126Q262.125 345.075 262.125 346.2L262.125 346.40314Q262.125 347.4969 262.57812 348.09064Q263.03125 348.6844 263.85938 348.6844ZM271.23438 349.45Q271.14062 349.2625 271.07812 348.77814Q270.32812 349.575 269.28125 349.575Q268.34375 349.575 267.73438 349.04376Q267.14062 348.5125 267.14062 347.6844Q267.14062 346.7 267.89062 346.15314Q268.64062 345.60626 270.01562 345.60626L271.0625 345.60626L271.0625 345.10626Q271.0625 344.54376 270.71875 344.21564Q270.39062 343.8719 269.71875 343.8719Q269.14062 343.8719 268.75 344.16876Q268.35938 344.45 268.35938 344.8719L267.26562 344.8719Q267.26562 344.3875 267.59375 343.95Q267.9375 343.5125 268.51562 343.2625Q269.09375 342.9969 269.78125 342.9969Q270.89062 342.9969 271.5 343.54376Q272.125 344.09064 272.15625 345.04376L272.15625 347.96564Q272.15625 348.84064 272.375 349.35626L272.375 349.45L271.23438 349.45ZM269.4375 348.6219Q269.95312 348.6219 270.40625 348.35626Q270.85938 348.09064 271.0625 347.66876L271.0625 346.3719L270.21875 346.3719Q268.21875 346.3719 268.21875 347.54376Q268.21875 348.04376 268.5625 348.34064Q268.90625 348.6219 269.4375 348.6219ZM275.5 349.45L274.42188 349.45L274.42188 340.45L275.5 340.45L275.5 349.45ZM282.39062 347.85626L283.875 343.10626L285.03125 343.10626L282.48438 350.4344Q281.89062 352.0125 280.60938 352.0125L280.39062 351.9969L280.0 351.91876L280.0 351.04376L280.28125 351.0594Q280.84375 351.0594 281.14062 350.84064Q281.45312 350.6219 281.65625 350.02814L281.89062 349.3719L279.625 343.10626L280.8125 343.10626L282.39062 347.85626ZM288.95312 349.575Q287.65625 349.575 286.84375 348.73126Q286.04688 347.8719 286.04688 346.45L286.04688 346.2625Q286.04688 345.3094 286.40625 344.575Q286.76562 343.825 287.40625 343.41876Q288.0625 342.9969 288.8125 342.9969Q290.04688 342.9969 290.73438 343.8094Q291.42188 344.6219 291.42188 346.1375L291.42188 346.59064L287.125 346.59064Q287.15625 347.52814 287.67188 348.10626Q288.20312 348.6844 289.01562 348.6844Q289.57812 348.6844 289.96875 348.45Q290.375 348.21564 290.6875 347.825L291.34375 348.34064Q290.54688 349.575 288.95312 349.575ZM288.8125 343.8875Q288.15625 343.8875 287.70312 344.3719Q287.26562 344.84064 287.17188 345.7L290.34375 345.7L290.34375 345.6219Q290.29688 344.79376 289.89062 344.34064Q289.5 343.8875 288.8125 343.8875ZM296.23438 349.45Q296.14062 349.2625 296.07812 348.77814Q295.32812 349.575 294.28125 349.575Q293.34375 349.575 292.73438 349.04376Q292.14062 348.5125 292.14062 347.6844Q292.14062 346.7 292.89062 346.15314Q293.64062 345.60626 295.01562 345.60626L296.0625 345.60626L296.0625 345.10626Q296.0625 344.54376 295.71875 344.21564Q295.39062 343.8719 294.71875 343.8719Q294.14062 343.8719 293.75 344.16876Q293.35938 344.45 293.35938 344.8719L292.26562 344.8719Q292.26562 344.3875 292.59375 343.95Q292.9375 343.5125 293.51562 343.2625Q294.09375 342.9969 294.78125 342.9969Q295.89062 342.9969 296.5 343.54376Q297.125 344.09064 297.15625 345.04376L297.15625 347.96564Q297.15625 348.84064 297.375 349.35626L297.375 349.45L296.23438 349.45ZM294.4375 348.6219Q294.95312 348.6219 295.40625 348.35626Q295.85938 348.09064 296.0625 347.66876L296.0625 346.3719L295.21875 346.3719Q293.21875 346.3719 293.21875 347.54376Q293.21875 348.04376 293.5625 348.34064Q293.90625 348.6219 294.4375 348.6219ZM302.39062 344.075Q302.14062 344.04376 301.85938 344.04376Q300.78125 344.04376 300.40625 344.95L300.40625 349.45L299.32812 349.45L299.32812 343.10626L300.375 343.10626L300.39062 343.84064Q300.92188 342.9969 301.90625 342.9969Q302.21875 342.9969 302.39062 343.075L302.39062 344.075ZM306.28125 345.98126Q306.28125 344.66876 306.625 343.45Q306.98438 342.23126 307.6875 341.23126Q308.39062 340.23126 309.15625 339.825L309.375 340.54376Q308.51562 341.2 307.96875 342.54376Q307.42188 343.8875 307.375 345.5594L307.35938 346.0594Q307.35938 348.325 308.1875 349.98126Q308.6875 350.98126 309.375 351.54376L309.15625 352.2Q308.375 351.77814 307.65625 350.7469Q306.28125 348.7625 306.28125 345.98126ZM314.23438 348.825Q313.60938 349.575 312.375 349.575Q311.35938 349.575 310.82812 348.98126Q310.29688 348.3875 310.29688 347.23126L310.29688 343.10626L311.375 343.10626L311.375 347.2Q311.375 348.65314 312.54688 348.65314Q313.79688 348.65314 314.20312 347.71564L314.20312 343.10626L315.29688 343.10626L315.29688 349.45L314.26562 349.45L314.23438 348.825ZM321.01562 347.7625Q321.01562 347.325 320.67188 347.09064Q320.34375 346.84064 319.51562 346.66876Q318.70312 346.4969 318.21875 346.2469Q317.73438 345.9969 317.5 345.66876Q317.28125 345.325 317.28125 344.85626Q317.28125 344.075 317.9375 343.54376Q318.59375 342.9969 319.625 342.9969Q320.70312 342.9969 321.35938 343.5594Q322.03125 344.10626 322.03125 344.96564L320.95312 344.96564Q320.95312 344.52814 320.5625 344.21564Q320.1875 343.8875 319.625 343.8875Q319.03125 343.8875 318.6875 344.15314Q318.35938 344.40314 318.35938 344.8094Q318.35938 345.2 318.67188 345.40314Q318.98438 345.60626 319.79688 345.79376Q320.60938 345.96564 321.10938 346.21564Q321.60938 346.46564 321.84375 346.825Q322.09375 347.1844 322.09375 347.6844Q322.09375 348.54376 321.40625 349.0594Q320.73438 349.575 319.65625 349.575Q318.89062 349.575 318.29688 349.3094Q317.71875 349.02814 317.39062 348.54376Q317.0625 348.0594 317.0625 347.4969L318.14062 347.4969Q318.17188 348.04376 318.57812 348.3719Q318.98438 348.6844 319.65625 348.6844Q320.26562 348.6844 320.64062 348.4344Q321.01562 348.1844 321.01562 347.7625ZM327.23438 348.825Q326.60938 349.575 325.375 349.575Q324.35938 349.575 323.82812 348.98126Q323.29688 348.3875 323.29688 347.23126L323.29688 343.10626L324.375 343.10626L324.375 347.2Q324.375 348.65314 325.54688 348.65314Q326.79688 348.65314 327.20312 347.71564L327.20312 343.10626L328.29688 343.10626L328.29688 349.45L327.26562 349.45L327.23438 348.825ZM330.34375 348.8875Q330.34375 348.60626 330.5 348.41876Q330.67188 348.23126 331.0 348.23126Q331.34375 348.23126 331.51562 348.41876Q331.6875 348.60626 331.6875 348.8875Q331.6875 349.15314 331.51562 349.34064Q331.34375 349.5125 331.0 349.5125Q330.67188 349.5125 330.5 349.34064Q330.34375 349.15314 330.34375 348.8875ZM341.20312 347.21564L337.625 347.21564L336.82812 349.45L335.67188 349.45L338.92188 340.91876L339.90625 340.91876L343.17188 349.45L342.01562 349.45L341.20312 347.21564ZM337.96875 346.29376L340.875 346.29376L339.42188 342.3094L337.96875 346.29376ZM349.67188 346.35626Q349.67188 347.79376 349.01562 348.6844Q348.35938 349.575 347.21875 349.575Q346.0625 349.575 345.40625 348.84064L345.40625 351.8875L344.32812 351.8875L344.32812 343.10626L345.3125 343.10626L345.35938 343.8094Q346.03125 342.9969 347.20312 342.9969Q348.34375 342.9969 349.0 343.85626Q349.67188 344.71564 349.67188 346.2469L349.67188 346.35626ZM348.59375 346.23126Q348.59375 345.15314 348.125 344.54376Q347.67188 343.91876 346.875 343.91876Q345.89062 343.91876 345.40625 344.77814L345.40625 347.8094Q345.89062 348.6844 346.89062 348.6844Q347.67188 348.6844 348.125 348.075Q348.59375 347.45 348.59375 346.23126ZM354.39062 344.075Q354.14062 344.04376 353.85938 344.04376Q352.78125 344.04376 352.40625 344.95L352.40625 349.45L351.32812 349.45L351.32812 343.10626L352.375 343.10626L352.39062 343.84064Q352.92188 342.9969 353.90625 342.9969Q354.21875 342.9969 354.39062 343.075L354.39062 344.075ZM356.5 349.45L355.42188 349.45L355.42188 343.10626L356.5 343.10626L356.5 349.45ZM355.32812 341.4344Q355.32812 341.16876 355.48438 340.98126Q355.65625 340.79376 355.96875 340.79376Q356.28125 340.79376 356.4375 340.98126Q356.60938 341.16876 356.60938 341.4344Q356.60938 341.6844 356.4375 341.8719Q356.28125 342.04376 355.96875 342.04376Q355.65625 342.04376 355.48438 341.8719Q355.32812 341.6844 355.32812 341.4344ZM359.5 349.45L358.42188 349.45L358.42188 340.45L359.5 340.45L359.5 349.45ZM367.76562 349.45L366.6875 349.45L366.6875 342.23126L364.5 343.02814L364.5 342.04376L367.60938 340.8719L367.76562 340.8719L367.76562 349.45ZM375.79688 341.575L375.79688 343.10626L376.96875 343.10626L376.96875 343.95L375.79688 343.95L375.79688 347.8719Q375.79688 348.2625 375.95312 348.45Q376.10938 348.6375 376.48438 348.6375Q376.67188 348.6375 377.0 348.575L377.0 349.45Q376.57812 349.575 376.17188 349.575Q375.45312 349.575 375.07812 349.1375Q374.70312 348.6844 374.70312 347.8719L374.70312 343.95L373.54688 343.95L373.54688 343.10626L374.70312 343.10626L374.70312 341.575L375.79688 341.575ZM378.03125 346.21564Q378.03125 345.29376 378.39062 344.54376Q378.76562 343.79376 379.42188 343.40314Q380.07812 342.9969 380.90625 342.9969Q382.20312 342.9969 383.0 343.8875Q383.8125 344.77814 383.8125 346.27814L383.8125 346.35626Q383.8125 347.27814 383.45312 348.0125Q383.09375 348.7469 382.4375 349.16876Q381.78125 349.575 380.92188 349.575Q379.64062 349.575 378.82812 348.6844Q378.03125 347.77814 378.03125 346.29376L378.03125 346.21564ZM379.125 346.35626Q379.125 347.40314 379.60938 348.04376Q380.10938 348.6844 380.92188 348.6844Q381.75 348.6844 382.23438 348.04376Q382.71875 347.3875 382.71875 346.21564Q382.71875 345.1844 382.21875 344.54376Q381.73438 343.8875 380.90625 343.8875Q380.10938 343.8875 379.60938 344.52814Q379.125 345.15314 379.125 346.35626ZM389.9375 340.91876L392.73438 347.8719L395.51562 340.91876L396.98438 340.91876L396.98438 349.45L395.85938 349.45L395.85938 346.1219L395.96875 342.54376L393.15625 349.45L392.29688 349.45L389.5 342.5594L389.60938 346.1219L389.60938 349.45L388.48438 349.45L388.48438 340.91876L389.9375 340.91876ZM402.23438 349.45Q402.14062 349.2625 402.07812 348.77814Q401.32812 349.575 400.28125 349.575Q399.34375 349.575 398.73438 349.04376Q398.14062 348.5125 398.14062 347.6844Q398.14062 346.7 398.89062 346.15314Q399.64062 345.60626 401.01562 345.60626L402.0625 345.60626L402.0625 345.10626Q402.0625 344.54376 401.71875 344.21564Q401.39062 343.8719 400.71875 343.8719Q400.14062 343.8719 399.75 344.16876Q399.35938 344.45 399.35938 344.8719L398.26562 344.8719Q398.26562 344.3875 398.59375 343.95Q398.9375 343.5125 399.51562 343.2625Q400.09375 342.9969 400.78125 342.9969Q401.89062 342.9969 402.5 343.54376Q403.125 344.09064 403.15625 345.04376L403.15625 347.96564Q403.15625 348.84064 403.375 349.35626L403.375 349.45L402.23438 349.45ZM400.4375 348.6219Q400.95312 348.6219 401.40625 348.35626Q401.85938 348.09064 402.0625 347.66876L402.0625 346.3719L401.21875 346.3719Q399.21875 346.3719 399.21875 347.54376Q399.21875 348.04376 399.5625 348.34064Q399.90625 348.6219 400.4375 348.6219ZM408.39062 344.075Q408.14062 344.04376 407.85938 344.04376Q406.78125 344.04376 406.40625 344.95L406.40625 349.45L405.32812 349.45L405.32812 343.10626L406.375 343.10626L406.39062 343.84064Q406.92188 342.9969 407.90625 342.9969Q408.21875 342.9969 408.39062 343.075L408.39062 344.075ZM411.85938 348.6844Q412.4375 348.6844 412.875 348.34064Q413.3125 347.98126 413.35938 347.45L414.39062 347.45Q414.35938 347.9969 414.0 348.4969Q413.65625 348.98126 413.07812 349.27814Q412.51562 349.575 411.85938 349.575Q410.5625 349.575 409.79688 348.71564Q409.04688 347.84064 409.04688 346.34064L409.04688 346.15314Q409.04688 345.23126 409.375 344.5125Q409.71875 343.79376 410.34375 343.40314Q410.98438 342.9969 411.85938 342.9969Q412.92188 342.9969 413.625 343.6375Q414.34375 344.2625 414.39062 345.29376L413.35938 345.29376Q413.3125 344.66876 412.89062 344.27814Q412.46875 343.8875 411.85938 343.8875Q411.03125 343.8875 410.57812 344.48126Q410.125 345.075 410.125 346.2L410.125 346.40314Q410.125 347.4969 410.57812 348.09064Q411.03125 348.6844 411.85938 348.6844ZM416.40625 343.8719Q417.125 342.9969 418.28125 342.9969Q420.29688 342.9969 420.3125 345.2625L420.3125 349.45L419.21875 349.45L419.21875 345.2469Q419.21875 344.575 418.90625 344.2469Q418.60938 343.91876 417.95312 343.91876Q417.42188 343.91876 417.01562 344.2Q416.625 344.48126 416.40625 344.9344L416.40625 349.45L415.32812 349.45L415.32812 340.45L416.40625 340.45L416.40625 343.8719ZM426.78125 344.65314L427.59375 344.65314Q428.375 344.6375 428.8125 344.2469Q429.25 343.85626 429.25 343.1844Q429.25 341.6844 427.75 341.6844Q427.04688 341.6844 426.625 342.09064Q426.21875 342.4969 426.21875 343.15314L425.125 343.15314Q425.125 342.1375 425.85938 341.46564Q426.60938 340.79376 427.75 340.79376Q428.95312 340.79376 429.64062 341.4344Q430.32812 342.075 430.32812 343.21564Q430.32812 343.77814 429.96875 344.29376Q429.60938 344.8094 428.98438 345.075Q429.6875 345.29376 430.0625 345.8094Q430.45312 346.325 430.45312 347.075Q430.45312 348.21564 429.70312 348.90314Q428.95312 349.575 427.75 349.575Q426.5625 349.575 425.79688 348.91876Q425.04688 348.2625 425.04688 347.2L426.14062 347.2Q426.14062 347.8719 426.57812 348.27814Q427.01562 348.6844 427.76562 348.6844Q428.54688 348.6844 428.95312 348.27814Q429.375 347.85626 429.375 347.09064Q429.375 346.35626 428.92188 345.96564Q428.46875 345.5594 427.59375 345.54376L426.78125 345.54376L426.78125 344.65314ZM435.76562 349.45L434.6875 349.45L434.6875 342.23126L432.5 343.02814L432.5 342.04376L435.60938 340.8719L435.76562 340.8719L435.76562 349.45ZM441.82812 346.04376Q441.82812 347.35626 441.48438 348.5594Q441.14062 349.7469 440.42188 350.7625Q439.71875 351.77814 438.95312 352.2L438.71875 351.54376Q439.625 350.85626 440.17188 349.40314Q440.71875 347.9344 440.73438 346.16876L440.73438 345.98126Q440.73438 344.7469 440.46875 343.6844Q440.21875 342.6219 439.75 341.79376Q439.29688 340.95 438.71875 340.48126L438.95312 339.825Q439.71875 340.2469 440.42188 341.2469Q441.125 342.2469 441.46875 343.46564Q441.82812 344.66876 441.82812 346.04376Z" fill-rule="nonzero"/><path fill="#424242" d="M30.081263 244.33958L28.956263 244.33958L28.956263 249.07396L30.081263 249.07396L30.081263 244.33958ZM24.503138 247.80833L24.503138 245.60521L22.768763 244.99583L22.768763 248.46458L24.503138 247.80833ZM24.503138 241.43333L25.393763 241.43333L25.393763 252.07396L24.503138 252.07396L24.503138 248.74583L22.768763 249.49583L22.768763 250.99583L21.878138 250.99583L21.878138 247.19896L20.753138 247.19896L20.753138 246.30833Q20.800013 245.93333 21.034388 246.26146L21.878138 246.26146L21.878138 242.41771L22.768763 242.41771L22.768763 243.91771L24.503138 244.71458L24.503138 241.43333ZM28.065638 244.33958L27.081263 244.33958L27.081263 249.07396L28.065638 249.07396L28.065638 244.33958ZM31.346888 243.40208L31.346888 244.33958L30.971888 244.33958L30.971888 249.07396L31.581263 249.07396L31.581263 250.01146L26.190638 250.01146L26.190638 243.40208L31.346888 243.40208ZM22.112513 234.68333L22.112513 232.71458L26.518763 232.71458L26.518763 233.51146L26.331263 233.51146L26.331263 234.21458L27.221888 234.21458L27.221888 229.62083L28.112513 229.62083L28.112513 233.69896Q29.659388 231.77708 29.987513 229.33958L31.065638 229.62083Q30.315638 232.76146 28.628138 234.21458L31.534388 234.21458L31.534388 235.15208L28.909388 235.15208Q30.409388 236.79271 31.253138 239.55833L30.221888 239.98021Q29.659388 237.35521 28.112513 235.48021L28.112513 239.74583L27.221888 239.74583L27.221888 235.15208L26.331263 235.15208L26.331263 235.85521L26.612513 235.85521L26.612513 236.65208L22.112513 236.65208L22.112513 235.43333L20.846888 235.15208L21.034388 234.12083Q21.081263 233.93333 21.315638 234.26146L22.112513 234.68333ZM22.346888 230.18333Q22.862513 230.74583 23.659388 231.68333L23.003138 232.43333Q22.159388 231.44896 21.456263 230.79271L22.206263 229.94896Q22.440638 229.90208 22.346888 230.18333ZM25.581263 235.85521L25.581263 233.51146L24.596888 233.51146L24.596888 235.85521L25.581263 235.85521ZM22.862513 235.85521L23.846888 235.85521L23.846888 233.51146L22.862513 233.51146L22.862513 235.85521ZM26.284388 230.32396Q25.393763 231.35521 24.784388 232.43333L23.987513 231.82396Q24.409388 230.88646 25.393763 229.62083L26.284388 230.32396ZM26.471888 238.94896Q26.753138 238.99583 26.565638 239.18333L25.628138 239.74583Q25.018763 238.52708 24.081263 237.49583L24.878138 236.98021Q25.534388 237.63646 26.471888 238.94896ZM23.706263 237.73021Q23.143763 238.52708 22.675013 239.32396L21.831263 238.76146Q22.300013 237.77708 22.721888 237.12083L23.706263 237.73021ZM30.784388 226.85521Q30.737513 224.41771 30.034388 223.01146Q29.425013 223.71458 28.956263 224.74583Q29.565638 225.63646 29.893763 226.48021L29.096888 226.90208Q28.487513 225.07396 26.753138 223.94896L26.753138 226.85521L27.971888 226.85521L27.971888 227.79271L26.003138 227.79271L26.003138 217.66771L27.878138 217.66771L27.878138 218.60521L26.753138 218.60521L26.753138 222.96458L27.456263 223.43333L27.456263 220.24583L27.221888 220.01146L27.784388 219.26146Q28.018763 219.07396 28.112513 219.44896Q31.346888 221.69896 31.721888 226.52708L30.784388 226.85521ZM28.206263 223.94896L28.440638 224.18333Q28.909388 222.91771 29.518763 222.12083Q28.862513 221.08958 28.206263 220.71458L28.206263 223.94896ZM25.440638 218.93333L25.440638 226.48021L23.096888 226.48021L23.096888 224.83958L22.440638 224.83958L22.440638 227.79271L21.690638 227.79271L21.690638 224.83958L20.753138 224.83958L20.753138 223.94896Q20.800013 223.57396 21.034388 223.90208L21.690638 223.90208L21.690638 221.60521L20.753138 221.60521L20.753138 220.71458Q20.800013 220.33958 21.034388 220.66771L21.690638 220.66771L21.690638 217.66771L22.440638 217.66771L22.440638 220.66771L23.096888 220.66771L23.096888 218.93333L25.440638 218.93333ZM23.846888 224.18333L23.846888 225.54271L24.690638 225.54271L24.690638 224.18333L23.846888 224.18333ZM23.846888 223.38646L24.690638 223.38646L24.690638 222.07396L23.846888 222.07396L23.846888 223.38646ZM23.846888 219.87083L23.846888 221.27708L24.690638 221.27708L24.690638 219.87083L23.846888 219.87083ZM22.440638 221.60521L22.440638 223.90208L23.096888 223.90208L23.096888 221.60521L22.440638 221.60521ZM27.971888 207.96458Q26.706263 207.30833 24.128138 207.16771L24.128138 208.76146Q26.706263 208.62083 27.971888 207.96458ZM24.128138 206.23021Q27.034388 206.32396 28.815638 207.35521Q29.753138 206.60521 30.456263 205.24583L31.487513 205.85521Q30.503138 207.35521 29.612513 207.96458Q30.831263 209.04271 31.721888 211.29271L30.784388 211.76146Q29.800013 209.32396 28.768763 208.52708Q27.221888 209.32396 25.675013 209.41771Q26.378138 209.69896 26.753138 209.98021L26.143763 210.77708Q24.081263 209.37083 21.034388 209.08958L21.268763 208.10521Q21.456263 207.82396 21.550013 208.24583Q22.393763 208.38646 23.237513 208.62083L23.237513 205.43333L24.128138 205.43333L24.128138 206.23021ZM21.878138 210.58958Q22.581263 210.87083 23.050013 211.24583L22.628138 211.99583Q22.018763 211.62083 21.221888 211.29271L21.643763 210.44896Q21.831263 210.26146 21.878138 210.58958ZM28.487513 213.58958Q28.675013 212.93333 28.909388 212.41771Q28.487513 212.04271 27.643763 211.80833L27.643763 213.16771Q28.065638 213.35521 28.487513 213.58958ZM29.659388 214.24583L29.237513 214.99583Q28.534388 214.52708 27.643763 214.05833L27.643763 215.83958L26.893763 215.83958L26.893763 213.77708Q26.284388 213.49583 25.862513 213.35521L26.096888 212.46458Q26.284388 212.27708 26.331263 212.60521L26.893763 212.88646L26.893763 210.21458L27.643763 210.21458L27.643763 210.91771Q28.581263 211.15208 29.237513 211.62083Q29.425013 211.19896 29.706263 210.73021L30.456263 211.15208Q30.128138 211.66771 29.940638 212.08958Q31.159388 213.30833 31.440638 215.37083L30.596888 215.69896Q30.409388 213.87083 29.565638 212.88646Q29.331263 213.40208 29.143763 213.91771L29.659388 214.24583ZM20.846888 213.30833L20.846888 212.55833Q20.893763 212.18333 21.128138 212.51146L23.143763 212.51146L23.143763 210.12083L23.893763 210.12083L23.893763 212.08958Q24.503138 211.57396 25.065638 210.49583L25.862513 211.01146Q25.393763 211.80833 24.550013 212.51146L25.675013 212.51146L25.675013 213.30833L24.784388 213.30833Q25.721888 214.05833 26.471888 215.37083L25.721888 215.98021Q24.971888 214.52708 23.893763 213.58958L23.893763 215.74583L23.143763 215.74583L23.143763 213.30833L20.846888 213.30833ZM23.003138 214.62083Q22.300013 214.94896 21.784388 215.46458L21.315638 214.71458Q21.878138 214.15208 22.487513 213.87083L23.003138 214.62083Z" fill-rule="nonzero"/><path fill="#424242" d="M22.018763 199.24583L28.971888 196.44896L22.018763 193.66771L22.018763 192.19896L30.550013 192.19896L30.550013 193.32396L27.221888 193.32396L23.643763 193.21458L30.550013 196.02708L30.550013 196.88646L23.659388 199.68333L27.221888 199.57396L30.550013 199.57396L30.550013 200.69896L22.018763 200.69896L22.018763 199.24583ZM29.925013 186.94896Q30.675013 187.57396 30.675013 188.80833Q30.675013 189.82396 30.081263 190.35521Q29.487513 190.88646 28.331263 190.88646L24.206263 190.88646L24.206263 189.80833L28.300013 189.80833Q29.753138 189.80833 29.753138 188.63646Q29.753138 187.38646 28.815638 186.98021L24.206263 186.98021L24.206263 185.88646L30.550013 185.88646L30.550013 186.91771L29.925013 186.94896ZM28.862513 180.16771Q28.425013 180.16771 28.190638 180.51146Q27.940638 180.83958 27.768763 181.66771Q27.596888 182.48021 27.346888 182.96458Q27.096888 183.44896 26.768763 183.68333Q26.425013 183.90208 25.956263 183.90208Q25.175013 183.90208 24.643763 183.24583Q24.096888 182.58958 24.096888 181.55833Q24.096888 180.48021 24.659388 179.82396Q25.206263 179.15208 26.065638 179.15208L26.065638 180.23021Q25.628138 180.23021 25.315638 180.62083Q24.987513 180.99583 24.987513 181.55833Q24.987513 182.15208 25.253138 182.49583Q25.503138 182.82396 25.909388 182.82396Q26.300013 182.82396 26.503138 182.51146Q26.706263 182.19896 26.893763 181.38646Q27.065638 180.57396 27.315638 180.07396Q27.565638 179.57396 27.925013 179.33958Q28.284388 179.08958 28.784388 179.08958Q29.643763 179.08958 30.159388 179.77708Q30.675013 180.44896 30.675013 181.52708Q30.675013 182.29271 30.409388 182.88646Q30.128138 183.46458 29.643763 183.79271Q29.159388 184.12083 28.596888 184.12083L28.596888 183.04271Q29.143763 183.01146 29.471888 182.60521Q29.784388 182.19896 29.784388 181.52708Q29.784388 180.91771 29.534388 180.54271Q29.284388 180.16771 28.862513 180.16771ZM30.550013 176.68333L30.550013 177.76146L24.206263 177.76146L24.206263 176.68333L30.550013 176.68333ZM22.534388 177.85521Q22.268763 177.85521 22.081263 177.69896Q21.893763 177.52708 21.893763 177.21458Q21.893763 176.90208 22.081263 176.74583Q22.268763 176.57396 22.534388 176.57396Q22.784388 176.57396 22.971888 176.74583Q23.143763 176.90208 23.143763 177.21458Q23.143763 177.52708 22.971888 177.69896Q22.784388 177.85521 22.534388 177.85521ZM29.784388 172.32396Q29.784388 171.74583 29.440638 171.30833Q29.081263 170.87083 28.550013 170.82396L28.550013 169.79271Q29.096888 169.82396 29.596888 170.18333Q30.081263 170.52708 30.378138 171.10521Q30.675013 171.66771 30.675013 172.32396Q30.675013 173.62083 29.815638 174.38646Q28.940638 175.13646 27.440638 175.13646L27.253138 175.13646Q26.331263 175.13646 25.612513 174.80833Q24.893763 174.46458 24.503138 173.83958Q24.096888 173.19896 24.096888 172.32396Q24.096888 171.26146 24.737513 170.55833Q25.362513 169.83958 26.393763 169.79271L26.393763 170.82396Q25.768763 170.87083 25.378138 171.29271Q24.987513 171.71458 24.987513 172.32396Q24.987513 173.15208 25.581263 173.60521Q26.175013 174.05833 27.300013 174.05833L27.503138 174.05833Q28.596888 174.05833 29.190638 173.60521Q29.784388 173.15208 29.784388 172.32396ZM30.550013 164.94896Q30.362513 165.04271 29.878138 165.10521Q30.675013 165.85521 30.675013 166.90208Q30.675013 167.83958 30.143763 168.44896Q29.612513 169.04271 28.784388 169.04271Q27.800013 169.04271 27.253138 168.29271Q26.706263 167.54271 26.706263 166.16771L26.706263 165.12083L26.206263 165.12083Q25.643763 165.12083 25.315638 165.46458Q24.971888 165.79271 24.971888 166.46458Q24.971888 167.04271 25.268763 167.43333Q25.550013 167.82396 25.971888 167.82396L25.971888 168.91771Q25.487513 168.91771 25.050013 168.58958Q24.612513 168.24583 24.362513 167.66771Q24.096888 167.08958 24.096888 166.40208Q24.096888 165.29271 24.643763 164.68333Q25.190638 164.05833 26.143763 164.02708L29.065638 164.02708Q29.940638 164.02708 30.456263 163.80833L30.550013 163.80833L30.550013 164.94896ZM29.721888 166.74583Q29.721888 166.23021 29.456263 165.77708Q29.190638 165.32396 28.768763 165.12083L27.471888 165.12083L27.471888 165.96458Q27.471888 167.96458 28.643763 167.96458Q29.143763 167.96458 29.440638 167.62083Q29.721888 167.27708 29.721888 166.74583ZM30.550013 160.68333L30.550013 161.76146L21.550013 161.76146L21.550013 160.68333L30.550013 160.68333ZM27.331263 156.12083Q25.862513 156.12083 24.987513 155.43333Q24.096888 154.74583 24.096888 153.62083Q24.096888 152.51146 24.846888 151.85521L21.550013 151.85521L21.550013 150.77708L30.550013 150.77708L30.550013 151.77708L29.862513 151.82396Q30.675013 152.48021 30.675013 153.63646Q30.675013 154.73021 29.768763 155.43333Q28.862513 156.12083 27.409388 156.12083L27.331263 156.12083ZM27.456263 155.04271Q28.534388 155.04271 29.143763 154.60521Q29.753138 154.15208 29.753138 153.37083Q29.753138 152.33958 28.815638 151.85521L25.909388 151.85521Q25.018763 152.33958 25.018763 153.35521Q25.018763 154.15208 25.628138 154.60521Q26.237513 155.04271 27.456263 155.04271ZM25.175013 145.79271Q25.143763 146.04271 25.143763 146.32396Q25.143763 147.40208 26.050013 147.77708L30.550013 147.77708L30.550013 148.85521L24.206263 148.85521L24.206263 147.80833L24.940638 147.79271Q24.096888 147.26146 24.096888 146.27708Q24.096888 145.96458 24.175013 145.79271L25.175013 145.79271ZM30.675013 142.23021Q30.675013 143.52708 29.831263 144.33958Q28.971888 145.13646 27.550013 145.13646L27.362513 145.13646Q26.409388 145.13646 25.675013 144.77708Q24.925013 144.41771 24.518763 143.77708Q24.096888 143.12083 24.096888 142.37083Q24.096888 141.13646 24.909388 140.44896Q25.721888 139.76146 27.237513 139.76146L27.690638 139.76146L27.690638 144.05833Q28.628138 144.02708 29.206263 143.51146Q29.784388 142.98021 29.784388 142.16771Q29.784388 141.60521 29.550013 141.21458Q29.315638 140.80833 28.925013 140.49583L29.440638 139.83958Q30.675013 140.63646 30.675013 142.23021ZM24.987513 142.37083Q24.987513 143.02708 25.471888 143.48021Q25.940638 143.91771 26.800013 144.01146L26.800013 140.83958L26.721888 140.83958Q25.893763 140.88646 25.440638 141.29271Q24.987513 141.68333 24.987513 142.37083ZM30.550013 134.94896Q30.362513 135.04271 29.878138 135.10521Q30.675013 135.85521 30.675013 136.90208Q30.675013 137.83958 30.143763 138.44896Q29.612513 139.04271 28.784388 139.04271Q27.800013 139.04271 27.253138 138.29271Q26.706263 137.54271 26.706263 136.16771L26.706263 135.12083L26.206263 135.12083Q25.643763 135.12083 25.315638 135.46458Q24.971888 135.79271 24.971888 136.46458Q24.971888 137.04271 25.268763 137.43333Q25.550013 137.82396 25.971888 137.82396L25.971888 138.91771Q25.487513 138.91771 25.050013 138.58958Q24.612513 138.24583 24.362513 137.66771Q24.096888 137.08958 24.096888 136.40208Q24.096888 135.29271 24.643763 134.68333Q25.190638 134.05833 26.143763 134.02708L29.065638 134.02708Q29.940638 134.02708 30.456263 133.80833L30.550013 133.80833L30.550013 134.94896ZM29.721888 136.74583Q29.721888 136.23021 29.456263 135.77708Q29.190638 135.32396 28.768763 135.12083L27.471888 135.12083L27.471888 135.96458Q27.471888 137.96458 28.643763 137.96458Q29.143763 137.96458 29.440638 137.62083Q29.721888 137.27708 29.721888 136.74583ZM24.206263 130.83958L24.909388 130.80833Q24.096888 130.12083 24.096888 128.93333Q24.096888 127.60521 25.112513 127.120834Q24.659388 126.808334 24.378138 126.308334Q24.096888 125.79271 24.096888 125.10521Q24.096888 123.01146 26.300013 122.98021L30.550013 122.98021L30.550013 124.058334L26.362513 124.058334Q25.690638 124.058334 25.362513 124.370834Q25.018763 124.683334 25.018763 125.41771Q25.018763 126.027084 25.378138 126.433334Q25.737513 126.82396 26.346888 126.88646L30.550013 126.88646L30.550013 127.964584L26.393763 127.964584Q25.018763 127.964584 25.018763 129.32396Q25.018763 130.38646 25.925013 130.77708L30.550013 130.77708L30.550013 131.87083L24.206263 131.87083L24.206263 130.83958Z" fill-rule="nonzero"/><path fill="#757575" d="M71.6125 299.3094Q71.6125 301.21564 70.95625 302.15314Q70.31563 303.075 68.925 303.075Q67.56563 303.075 66.90938 302.16876Q66.25313 301.2625 66.22188 299.45L66.22188 298.0125Q66.22188 296.1219 66.8625 295.21564Q67.51875 294.29376 68.90938 294.29376Q70.28438 294.29376 70.94063 295.1844Q71.59688 296.0594 71.6125 297.90314L71.6125 299.3094ZM70.51875 297.825Q70.51875 296.45 70.12813 295.825Q69.75313 295.1844 68.90938 295.1844Q68.08125 295.1844 67.69063 295.825Q67.31563 296.45 67.31563 297.7469L67.31563 299.48126Q67.31563 300.85626 67.70625 301.52814Q68.1125 302.1844 68.925 302.1844Q69.72188 302.1844 70.1125 301.5594Q70.50313 300.9344 70.51875 299.60626L70.51875 297.825Z" fill-rule="nonzero"/><path fill="#757575" d="M66.75313 239.66042L67.19063 235.41042L71.56563 235.41042L71.56563 236.41042L68.1125 236.41042L67.84688 238.73854Q68.4875 238.36354 69.28438 238.36354Q70.44063 238.36354 71.12813 239.14479Q71.81563 239.91042 71.81563 241.22292Q71.81563 242.53542 71.09688 243.30104Q70.39375 244.06667 69.1125 244.06667Q67.9875 244.06667 67.26875 243.44167Q66.55 242.80104 66.45625 241.69167L67.47188 241.69167Q67.58125 242.42604 68.00313 242.80104Q68.425 243.17604 69.1125 243.17604Q69.8625 243.17604 70.3 242.66042Q70.7375 242.14479 70.7375 241.23854Q70.7375 240.37917 70.26875 239.86354Q69.8 239.34792 69.01875 239.34792Q68.31563 239.34792 67.90938 239.64479L67.62813 239.87917L66.75313 239.66042Z" fill-rule="nonzero"/><path fill="#757575" d="M62.815624 184.93333L61.7375 184.93333L61.7375 177.71458L59.55 178.51146L59.55 177.52708L62.659374 176.35521L62.815624 176.35521L62.815624 184.93333ZM71.6125 181.29271Q71.6125 183.19896 70.95625 184.13646Q70.31563 185.05833 68.925 185.05833Q67.56563 185.05833 66.90938 184.15208Q66.25313 183.24583 66.22188 181.43333L66.22188 179.99583Q66.22188 178.10521 66.8625 177.19896Q67.51875 176.27708 68.90938 176.27708Q70.28438 176.27708 70.94063 177.16771Q71.59688 178.04271 71.6125 179.88646L71.6125 181.29271ZM70.51875 179.80833Q70.51875 178.43333 70.12813 177.80833Q69.75313 177.16771 68.90938 177.16771Q68.08125 177.16771 67.69063 177.80833Q67.31563 178.43333 67.31563 179.73021L67.31563 181.46458Q67.31563 182.83958 67.70625 183.51146Q68.1125 184.16771 68.925 184.16771Q69.72188 184.16771 70.1125 183.54271Q70.50313 182.91771 70.51875 181.58958L70.51875 179.80833Z" fill-rule="nonzero"/><path fill="#757575" d="M62.815624 125.925L61.7375 125.925L61.7375 118.70625L59.55 119.50313L59.55 118.51875L62.659374 117.34688L62.815624 117.34688L62.815624 125.925ZM66.75313 121.64375L67.19063 117.39375L71.56563 117.39375L71.56563 118.39375L68.1125 118.39375L67.84688 120.72188Q68.4875 120.34688 69.28438 120.34688Q70.44063 120.34688 71.12813 121.12813Q71.81563 121.89375 71.81563 123.20625Q71.81563 124.51875 71.09688 125.28438Q70.39375 126.05 69.1125 126.05Q67.9875 126.05 67.26875 125.425Q66.55 124.78438 66.45625 123.675L67.47188 123.675Q67.58125 124.40938 68.00313 124.78438Q68.425 125.15938 69.1125 125.15938Q69.8625 125.15938 70.3 124.64375Q70.7375 124.12813 70.7375 123.22188Q70.7375 122.3625 70.26875 121.84688Q69.8 121.33125 69.01875 121.33125Q68.31563 121.33125 67.90938 121.62813L67.62813 121.8625L66.75313 121.64375Z" fill-rule="nonzero"/><path fill="#757575" d="M64.84688 66.916664L59.253124 66.916664L59.253124 66.135414L62.20625 62.854164Q62.8625 62.104164 63.1125 61.65104Q63.3625 61.18229 63.3625 60.68229Q63.3625 60.010414 62.95625 59.58854Q62.565624 59.15104 61.878124 59.15104Q61.08125 59.15104 60.628124 59.61979Q60.175 60.072914 60.175 60.90104L59.096874 60.90104Q59.096874 59.71354 59.846874 58.99479Q60.6125 58.260414 61.878124 58.260414Q63.08125 58.260414 63.76875 58.885414Q64.45625 59.510414 64.45625 60.55729Q64.45625 61.80729 62.846874 63.55729L60.565624 66.02604L64.84688 66.02604L64.84688 66.916664ZM71.6125 63.27604Q71.6125 65.18229 70.95625 66.11979Q70.31563 67.041664 68.925 67.041664Q67.56563 67.041664 66.90938 66.135414Q66.25313 65.229164 66.22188 63.416664L66.22188 61.979164Q66.22188 60.08854 66.8625 59.18229Q67.51875 58.260414 68.90938 58.260414Q70.28438 58.260414 70.94063 59.15104Q71.59688 60.02604 71.6125 61.86979L71.6125 63.27604ZM70.51875 61.791664Q70.51875 60.416664 70.12813 59.791664Q69.75313 59.15104 68.90938 59.15104Q68.08125 59.15104 67.69063 59.791664Q67.31563 60.416664 67.31563 61.71354L67.31563 63.447914Q67.31563 64.822914 67.70625 65.49479Q68.1125 66.15104 68.925 66.15104Q69.72188 66.15104 70.1125 65.52604Q70.50313 64.90104 70.51875 63.572914L70.51875 61.791664Z" fill-rule="nonzero"/><path fill="#757575" d="M70.84688 316.45L65.25313 316.45L65.25313 315.66876L68.20625 312.3875Q68.8625 311.6375 69.1125 311.1844Q69.3625 310.71564 69.3625 310.21564Q69.3625 309.54376 68.95625 309.1219Q68.56563 308.6844 67.87813 308.6844Q67.08125 308.6844 66.62813 309.15314Q66.175 309.60626 66.175 310.4344L65.09688 310.4344Q65.09688 309.2469 65.84688 308.52814Q66.6125 307.79376 67.87813 307.79376Q69.08125 307.79376 69.76875 308.41876Q70.45625 309.04376 70.45625 310.09064Q70.45625 311.34064 68.84688 313.09064L66.56563 315.5594L70.84688 315.5594L70.84688 316.45ZM77.6125 312.8094Q77.6125 314.71564 76.95625 315.65314Q76.31563 316.575 74.925 316.575Q73.56563 316.575 72.90938 315.66876Q72.25313 314.7625 72.22188 312.95L72.22188 311.5125Q72.22188 309.6219 72.8625 308.71564Q73.51875 307.79376 74.90938 307.79376Q76.28438 307.79376 76.94063 308.6844Q77.59688 309.5594 77.6125 311.40314L77.6125 312.8094ZM76.51875 311.325Q76.51875 309.95 76.12813 309.325Q75.75313 308.6844 74.90938 308.6844Q74.08125 308.6844 73.69063 309.325Q73.31563 309.95 73.31563 311.2469L73.31563 312.98126Q73.31563 314.35626 73.70625 315.02814Q74.1125 315.6844 74.925 315.6844Q75.72188 315.6844 76.1125 315.0594Q76.50313 314.4344 76.51875 313.10626L76.51875 311.325ZM82.81563 316.45L81.7375 316.45L81.7375 309.23126L79.55 310.02814L79.55 309.04376L82.65938 307.8719L82.81563 307.8719L82.81563 316.45ZM91.44063 310.1375Q91.44063 310.77814 91.09688 311.27814Q90.75313 311.77814 90.19063 312.0594Q90.84688 312.34064 91.2375 312.90314Q91.62813 313.45 91.62813 314.15314Q91.62813 315.2469 90.87813 315.91876Q90.14375 316.575 88.925 316.575Q87.69063 316.575 86.94063 315.91876Q86.20625 315.2469 86.20625 314.15314Q86.20625 313.45 86.58125 312.90314Q86.95625 312.34064 87.62813 312.0594Q87.06563 311.77814 86.7375 311.27814Q86.40938 310.77814 86.40938 310.1375Q86.40938 309.0594 87.09688 308.4344Q87.78438 307.79376 88.925 307.79376Q90.05 307.79376 90.7375 308.4344Q91.44063 309.0594 91.44063 310.1375ZM90.55 314.1219Q90.55 313.40314 90.09688 312.96564Q89.64375 312.5125 88.90938 312.5125Q88.175 312.5125 87.72188 312.96564Q87.28438 313.40314 87.28438 314.1375Q87.28438 314.85626 87.72188 315.27814Q88.15938 315.6844 88.925 315.6844Q89.675 315.6844 90.1125 315.2625Q90.55 314.84064 90.55 314.1219ZM88.925 308.6844Q88.28438 308.6844 87.87813 309.09064Q87.4875 309.48126 87.4875 310.16876Q87.4875 310.8094 87.87813 311.21564Q88.26875 311.6219 88.90938 311.6219Q89.56563 311.6219 89.95625 311.21564Q90.34688 310.8094 90.34688 310.16876Q90.34688 309.5125 89.94063 309.10626Q89.53438 308.6844 88.925 308.6844Z" fill-rule="nonzero"/><path fill="#757575" d="M238.48021 316.45L232.88646 316.45L232.88646 315.66876L235.83958 312.3875Q236.49583 311.6375 236.74583 311.1844Q236.99583 310.71564 236.99583 310.21564Q236.99583 309.54376 236.58958 309.1219Q236.19896 308.6844 235.51146 308.6844Q234.71458 308.6844 234.26146 309.15314Q233.80833 309.60626 233.80833 310.4344L232.73021 310.4344Q232.73021 309.2469 233.48021 308.52814Q234.24583 307.79376 235.51146 307.79376Q236.71458 307.79376 237.40208 308.41876Q238.08958 309.04376 238.08958 310.09064Q238.08958 311.34064 236.48021 313.09064L234.19896 315.5594L238.48021 315.5594L238.48021 316.45ZM245.24583 312.8094Q245.24583 314.71564 244.58958 315.65314Q243.94896 316.575 242.55833 316.575Q241.19896 316.575 240.54271 315.66876Q239.88646 314.7625 239.85521 312.95L239.85521 311.5125Q239.85521 309.6219 240.49583 308.71564Q241.15208 307.79376 242.54271 307.79376Q243.91771 307.79376 244.57396 308.6844Q245.23021 309.5594 245.24583 311.40314L245.24583 312.8094ZM244.15208 311.325Q244.15208 309.95 243.76146 309.325Q243.38646 308.6844 242.54271 308.6844Q241.71458 308.6844 241.32396 309.325Q240.94896 309.95 240.94896 311.2469L240.94896 312.98126Q240.94896 314.35626 241.33958 315.02814Q241.74583 315.6844 242.55833 315.6844Q243.35521 315.6844 243.74583 315.0594Q244.13646 314.4344 244.15208 313.10626L244.15208 311.325ZM250.44896 316.45L249.37083 316.45L249.37083 309.23126L247.18333 310.02814L247.18333 309.04376L250.29271 307.8719L250.44896 307.8719L250.44896 316.45ZM258.04272 312.7Q257.7146 313.10626 257.23022 313.35626Q256.76147 313.59064 256.19897 313.59064Q255.46458 313.59064 254.91771 313.23126Q254.37083 312.8719 254.07396 312.21564Q253.77708 311.54376 253.77708 310.7469Q253.77708 309.90314 254.08958 309.21564Q254.41771 308.52814 255.01146 308.16876Q255.62083 307.79376 256.41772 307.79376Q257.68335 307.79376 258.4021 308.7469Q259.13647 309.7 259.13647 311.325L259.13647 311.6375Q259.13647 314.1375 258.1521 315.27814Q257.16772 316.41876 255.18333 316.45L254.96458 316.45L254.96458 315.54376L255.19896 315.54376Q256.54272 315.5125 257.26147 314.84064Q257.98022 314.16876 258.04272 312.7ZM256.37085 312.7Q256.91772 312.7 257.37085 312.3719Q257.8396 312.02814 258.05835 311.54376L258.05835 311.10626Q258.05835 310.04376 257.5896 309.3719Q257.12085 308.7 256.41772 308.7Q255.69896 308.7 255.26146 309.2469Q254.83958 309.79376 254.83958 310.7Q254.83958 311.575 255.24583 312.1375Q255.66771 312.7 256.37085 312.7Z" fill-rule="nonzero"/><path fill="#757575" d="M406.11356 316.45L400.5198 316.45L400.5198 315.66876L403.47293 312.3875Q404.12918 311.6375 404.37918 311.1844Q404.62918 310.71564 404.62918 310.21564Q404.62918 309.54376 404.22293 309.1219Q403.8323 308.6844 403.1448 308.6844Q402.34793 308.6844 401.8948 309.15314Q401.44168 309.60626 401.44168 310.4344L400.36356 310.4344Q400.36356 309.2469 401.11356 308.52814Q401.87918 307.79376 403.1448 307.79376Q404.34793 307.79376 405.03543 308.41876Q405.72293 309.04376 405.72293 310.09064Q405.72293 311.34064 404.11356 313.09064L401.8323 315.5594L406.11356 315.5594L406.11356 316.45ZM412.87918 312.8094Q412.87918 314.71564 412.22293 315.65314Q411.5823 316.575 410.19168 316.575Q408.8323 316.575 408.17606 315.66876Q407.5198 314.7625 407.48856 312.95L407.48856 311.5125Q407.48856 309.6219 408.12918 308.71564Q408.78543 307.79376 410.17606 307.79376Q411.55106 307.79376 412.2073 308.6844Q412.86356 309.5594 412.87918 311.40314L412.87918 312.8094ZM411.78543 311.325Q411.78543 309.95 411.3948 309.325Q411.0198 308.6844 410.17606 308.6844Q409.34793 308.6844 408.9573 309.325Q408.5823 309.95 408.5823 311.2469L408.5823 312.98126Q408.5823 314.35626 408.97293 315.02814Q409.37918 315.6844 410.19168 315.6844Q410.98856 315.6844 411.37918 315.0594Q411.7698 314.4344 411.78543 313.10626L411.78543 311.325ZM420.11356 316.45L414.5198 316.45L414.5198 315.66876L417.47293 312.3875Q418.12918 311.6375 418.37918 311.1844Q418.62918 310.71564 418.62918 310.21564Q418.62918 309.54376 418.22293 309.1219Q417.8323 308.6844 417.1448 308.6844Q416.34793 308.6844 415.8948 309.15314Q415.44168 309.60626 415.44168 310.4344L414.36356 310.4344Q414.36356 309.2469 415.11356 308.52814Q415.87918 307.79376 417.1448 307.79376Q418.34793 307.79376 419.03543 308.41876Q419.72293 309.04376 419.72293 310.09064Q419.72293 311.34064 418.11356 313.09064L415.8323 315.5594L420.11356 315.5594L420.11356 316.45ZM426.87918 312.8094Q426.87918 314.71564 426.22293 315.65314Q425.5823 316.575 424.19168 316.575Q422.8323 316.575 422.17606 315.66876Q421.5198 314.7625 421.48856 312.95L421.48856 311.5125Q421.48856 309.6219 422.12918 308.71564Q422.78543 307.79376 424.17606 307.79376Q425.55106 307.79376 426.2073 308.6844Q426.86356 309.5594 426.87918 311.40314L426.87918 312.8094ZM425.78543 311.325Q425.78543 309.95 425.3948 309.325Q425.0198 308.6844 424.17606 308.6844Q423.34793 308.6844 422.9573 309.325Q422.5823 309.95 422.5823 311.2469L422.5823 312.98126Q422.5823 314.35626 422.97293 315.02814Q423.37918 315.6844 424.19168 315.6844Q424.98856 315.6844 425.37918 315.0594Q425.7698 314.4344 425.78543 313.10626L425.78543 311.325Z" fill-rule="nonzero"/><path fill="#757575" d="M573.7469 316.45L568.15314 316.45L568.15314 315.66876L571.10626 312.3875Q571.7625 311.6375 572.0125 311.1844Q572.2625 310.71564 572.2625 310.21564Q572.2625 309.54376 571.85626 309.1219Q571.46564 308.6844 570.77814 308.6844Q569.98126 308.6844 569.52814 309.15314Q569.075 309.60626 569.075 310.4344L567.9969 310.4344Q567.9969 309.2469 568.7469 308.52814Q569.5125 307.79376 570.77814 307.79376Q571.98126 307.79376 572.66876 308.41876Q573.35626 309.04376 573.35626 310.09064Q573.35626 311.34064 571.7469 313.09064L569.46564 315.5594L573.7469 315.5594L573.7469 316.45ZM580.5125 312.8094Q580.5125 314.71564 579.85626 315.65314Q579.21564 316.575 577.825 316.575Q576.46564 316.575 575.8094 315.66876Q575.15314 314.7625 575.1219 312.95L575.1219 311.5125Q575.1219 309.6219 575.7625 308.71564Q576.41876 307.79376 577.8094 307.79376Q579.1844 307.79376 579.84064 308.6844Q580.4969 309.5594 580.5125 311.40314L580.5125 312.8094ZM579.41876 311.325Q579.41876 309.95 579.02814 309.325Q578.65314 308.6844 577.8094 308.6844Q576.98126 308.6844 576.59064 309.325Q576.21564 309.95 576.21564 311.2469L576.21564 312.98126Q576.21564 314.35626 576.60626 315.02814Q577.0125 315.6844 577.825 315.6844Q578.6219 315.6844 579.0125 315.0594Q579.40314 314.4344 579.41876 313.10626L579.41876 311.325ZM587.7469 316.45L582.15314 316.45L582.15314 315.66876L585.10626 312.3875Q585.7625 311.6375 586.0125 311.1844Q586.2625 310.71564 586.2625 310.21564Q586.2625 309.54376 585.85626 309.1219Q585.46564 308.6844 584.77814 308.6844Q583.98126 308.6844 583.52814 309.15314Q583.075 309.60626 583.075 310.4344L581.9969 310.4344Q581.9969 309.2469 582.7469 308.52814Q583.5125 307.79376 584.77814 307.79376Q585.98126 307.79376 586.66876 308.41876Q587.35626 309.04376 587.35626 310.09064Q587.35626 311.34064 585.7469 313.09064L583.46564 315.5594L587.7469 315.5594L587.7469 316.45ZM592.71564 316.45L591.6375 316.45L591.6375 309.23126L589.45 310.02814L589.45 309.04376L592.5594 307.8719L592.71564 307.8719L592.71564 316.45Z" fill-rule="nonzero"/><path fill="#757575" d="M32.45625 36.76875L32.45625 34.89375L24.565624 34.89375L24.565624 36.76875L32.45625 36.76875ZM26.675 27.471874L30.346874 27.471874L31.3625 24.58125L25.58125 24.58125L26.675 27.471874ZM37.3 27.471874L37.3 28.95625L19.565624 28.95625L19.565624 27.471874L25.1125 27.471874L23.8625 24.58125L21.3625 24.58125L21.3625 23.096874L27.690624 23.096874L27.690624 21.221874L29.175 21.221874Q29.8 21.3 29.253124 21.690624L29.253124 23.096874L35.659374 23.096874L35.659374 24.58125L33.159374 24.58125L31.83125 27.471874L37.3 27.471874ZM32.45625 33.409374L32.45625 31.76875L24.565624 31.76875L24.565624 33.409374L32.45625 33.409374ZM34.01875 38.878124L32.45625 38.878124L32.45625 38.253124L24.565624 38.253124L24.565624 39.26875L23.003124 39.26875L23.003124 30.284374L34.01875 30.284374L34.01875 38.878124ZM48.55 23.4875L51.83125 23.4875L51.83125 30.83125L50.503124 30.83125L50.503124 30.51875L49.33125 30.51875L49.33125 32.003124L56.9875 32.003124L56.9875 33.4875L50.190624 33.4875Q53.39375 36.065624 57.45625 36.6125L56.9875 38.409374Q51.753124 37.159374 49.33125 34.346874L49.33125 39.190624L47.76875 39.190624L47.76875 34.815624Q45.034374 37.315624 40.425 38.721874L39.721874 37.003124Q44.096874 36.065624 47.221874 33.4875L40.1125 33.4875L40.1125 32.003124L47.76875 32.003124L47.76875 30.51875L46.596874 30.51875L46.596874 30.9875L45.26875 30.9875L45.26875 23.4875L47.3 23.4875L47.76875 21.378124L49.4875 21.690624Q49.8 21.76875 49.253124 22.159374L48.55 23.4875ZM56.05 23.878124Q55.1125 24.7375 53.55 26.065624L52.3 24.971874Q53.940624 23.565624 55.034374 22.39375L56.440624 23.64375Q56.51875 24.034374 56.05 23.878124ZM46.596874 29.26875L50.503124 29.26875L50.503124 27.628124L46.596874 27.628124L46.596874 29.26875ZM46.596874 24.7375L46.596874 26.378124L50.503124 26.378124L50.503124 24.7375L46.596874 24.7375ZM55.815624 30.440624Q54.096874 28.95625 52.3 27.940624L53.315624 26.6125Q54.878124 27.315624 56.9875 28.95625L55.815624 30.440624ZM41.440624 30.753124Q41.3625 31.221874 41.05 30.909374L40.1125 29.346874Q42.14375 28.33125 43.8625 26.76875L44.721874 28.096874Q43.628124 29.190624 41.440624 30.753124ZM43.471874 26.14375Q42.14375 25.20625 40.815624 24.425L41.753124 23.01875Q43.39375 23.8 44.4875 24.503124L43.471874 26.14375ZM61.596874 37.940624Q65.65938 37.8625 68.00313 36.690624Q66.83125 35.675 65.1125 34.89375Q63.628124 35.909374 62.221874 36.45625L61.51875 35.128124Q64.56563 34.1125 66.44063 31.221874L61.596874 31.221874L61.596874 33.253124L60.034374 33.253124L60.034374 29.971874L76.90938 29.971874L76.90938 33.096874L75.34688 33.096874L75.34688 31.221874L68.08125 31.221874L67.3 32.39375L72.6125 32.39375L73.00313 32.003124L74.25313 32.940624Q74.56563 33.33125 73.94063 33.4875Q70.19063 38.878124 62.14375 39.503124L61.596874 37.940624ZM66.44063 33.64375L66.05 34.034374Q68.15938 34.815624 69.4875 35.83125Q71.20625 34.7375 71.83125 33.64375L66.44063 33.64375ZM74.8 29.034374L62.221874 29.034374L62.221874 25.128124L64.95625 25.128124L64.95625 24.034374L60.034374 24.034374L60.034374 22.784374L64.95625 22.784374L64.95625 21.221874L66.44063 21.221874Q67.06563 21.3 66.51875 21.690624L66.51875 22.784374L70.34688 22.784374L70.34688 21.221874L71.83125 21.221874Q72.45625 21.3 71.90938 21.690624L71.90938 22.784374L76.90938 22.784374L76.90938 24.034374L71.90938 24.034374L71.90938 25.128124L74.8 25.128124L74.8 29.034374ZM66.05 26.378124L63.784374 26.378124L63.784374 27.784374L66.05 27.784374L66.05 26.378124ZM67.37813 26.378124L67.37813 27.784374L69.56563 27.784374L69.56563 26.378124L67.37813 26.378124ZM73.2375 26.378124L70.89375 26.378124L70.89375 27.784374L73.2375 27.784374L73.2375 26.378124ZM70.34688 24.034374L66.51875 24.034374L66.51875 25.128124L70.34688 25.128124L70.34688 24.034374ZM93.08125 33.253124Q94.175 31.14375 94.40938 26.846874L91.75313 26.846874Q91.9875 31.14375 93.08125 33.253124ZM95.97188 26.846874Q95.81563 31.690624 94.09688 34.659374Q95.34688 36.221874 97.6125 37.39375L96.59688 39.1125Q94.09688 37.471874 93.08125 35.9875Q91.28438 38.01875 87.53438 39.503124L86.75313 37.940624Q90.81563 36.3 92.14375 34.58125Q90.81563 32.003124 90.65938 29.425Q90.19063 30.596874 89.72188 31.221874L88.39375 30.20625Q90.7375 26.76875 91.20625 21.690624L92.84688 22.08125Q93.31563 22.39375 92.6125 22.55Q92.37813 23.95625 91.9875 25.3625L97.3 25.3625L97.3 26.846874L95.97188 26.846874ZM88.70625 23.096874Q88.2375 24.26875 87.6125 25.05L86.3625 24.346874Q86.9875 23.33125 87.53438 22.003124L88.94063 22.70625Q89.25313 23.01875 88.70625 23.096874ZM83.70625 34.1125Q84.8 34.425 85.65938 34.815624Q86.28438 34.1125 86.675 32.70625L84.40938 32.70625Q84.09688 33.409374 83.70625 34.1125ZM82.6125 36.065624L81.3625 35.3625Q82.14375 34.190624 82.925 32.70625L79.95625 32.70625L79.95625 31.45625L83.39375 31.45625Q83.8625 30.440624 84.09688 29.7375L85.58125 30.128124Q85.89375 30.440624 85.34688 30.51875L84.87813 31.45625L89.33125 31.45625L89.33125 32.70625L88.15938 32.70625Q87.76875 34.26875 86.9875 35.3625Q87.69063 35.675 88.47188 36.14375L87.76875 37.39375Q86.90938 36.846874 86.20625 36.534374Q84.175 38.565624 80.7375 39.034374L80.19063 37.628124Q83.2375 37.315624 84.87813 35.909374Q84.01875 35.51875 83.15938 35.20625L82.6125 36.065624ZM84.175 21.378124L85.425 21.378124Q86.05 21.45625 85.50313 21.846874L85.50313 25.20625L89.4875 25.20625L89.4875 26.45625L86.20625 26.45625Q87.06563 27.471874 88.8625 28.409374L88.00313 29.7375Q86.675 28.95625 85.50313 27.55L85.50313 29.425L84.175 29.425L84.175 27.940624Q82.925 29.503124 80.7375 30.753124L79.72188 29.503124Q82.14375 28.253124 83.70625 26.45625L80.1125 26.45625L80.1125 25.20625L84.175 25.20625L84.175 21.378124ZM81.9875 24.971874Q81.44063 23.8 80.58125 22.940624L81.83125 22.159374Q82.76875 23.096874 83.2375 24.1125L81.9875 24.971874Z" fill-rule="nonzero"/><path fill="#757575" d="M107.62813 23.33125L112.26875 34.925L116.925 23.33125L119.34688 23.33125L119.34688 37.55L117.47188 37.55L117.47188 32.01875L117.65938 26.034374L112.9875 37.55L111.55 37.55L106.89375 26.065624L107.08125 32.01875L107.08125 37.55L105.20625 37.55L105.20625 23.33125L107.62813 23.33125ZM128.44063 36.503124Q127.39375 37.753124 125.34688 37.753124Q123.65938 37.753124 122.76875 36.76875Q121.89375 35.784374 121.87813 33.8625L121.87813 26.9875L123.69063 26.9875L123.69063 33.815624Q123.69063 36.20625 125.64375 36.20625Q127.70625 36.20625 128.39375 34.675L128.39375 26.9875L130.20625 26.9875L130.20625 37.55L128.4875 37.55L128.44063 36.503124ZM139.06563 34.753124Q139.06563 34.01875 138.51875 33.6125Q137.97188 33.20625 136.59688 32.909374Q135.22188 32.6125 134.40938 32.20625Q133.6125 31.8 133.22188 31.2375Q132.84688 30.659374 132.84688 29.878124Q132.84688 28.58125 133.94063 27.690624Q135.03438 26.784374 136.75313 26.784374Q138.55 26.784374 139.65938 27.721874Q140.78438 28.64375 140.78438 30.08125L138.95625 30.08125Q138.95625 29.346874 138.33125 28.815624Q137.70625 28.26875 136.75313 28.26875Q135.75313 28.26875 135.19063 28.70625Q134.64375 29.128124 134.64375 29.83125Q134.64375 30.471874 135.15938 30.815624Q135.675 31.14375 137.03438 31.45625Q138.39375 31.753124 139.22188 32.175Q140.06563 32.58125 140.47188 33.175Q140.87813 33.76875 140.87813 34.6125Q140.87813 36.034374 139.7375 36.89375Q138.6125 37.753124 136.8 37.753124Q135.53438 37.753124 134.55 37.3Q133.58125 36.846874 133.01875 36.05Q132.47188 35.2375 132.47188 34.3L134.28438 34.3Q134.33125 35.20625 135.00313 35.7375Q135.69063 36.26875 136.8 36.26875Q137.83125 36.26875 138.44063 35.8625Q139.06563 35.440624 139.06563 34.753124ZM144.87813 37.55L143.08125 37.55L143.08125 26.9875L144.87813 26.9875L144.87813 37.55ZM142.925 24.175Q142.925 23.7375 143.19063 23.440624Q143.47188 23.128124 143.9875 23.128124Q144.51875 23.128124 144.78438 23.440624Q145.06563 23.7375 145.06563 24.175Q145.06563 24.6125 144.78438 24.909374Q144.51875 25.20625 143.9875 25.20625Q143.47188 25.20625 143.19063 24.909374Q142.925 24.6125 142.925 24.175ZM152.15938 36.26875Q153.12813 36.26875 153.84688 35.690624Q154.56563 35.096874 154.64375 34.221874L156.3625 34.221874Q156.3 35.128124 155.72188 35.95625Q155.15938 36.76875 154.19063 37.26875Q153.2375 37.753124 152.15938 37.753124Q150.00313 37.753124 148.72188 36.315624Q147.45625 34.8625 147.45625 32.3625L147.45625 32.065624Q147.45625 30.51875 148.01875 29.315624Q148.58125 28.1125 149.64375 27.45625Q150.70625 26.784374 152.14375 26.784374Q153.925 26.784374 155.09688 27.846874Q156.28438 28.909374 156.3625 30.6125L154.64375 30.6125Q154.56563 29.596874 153.8625 28.940624Q153.175 28.26875 152.14375 28.26875Q150.76875 28.26875 150.00313 29.26875Q149.25313 30.253124 149.25313 32.128124L149.25313 32.471874Q149.25313 34.3 150.00313 35.284374Q150.75313 36.26875 152.15938 36.26875ZM164.44063 37.55Q164.28438 37.2375 164.19063 36.440624Q162.925 37.753124 161.175 37.753124Q159.6125 37.753124 158.6125 36.8625Q157.6125 35.971874 157.6125 34.6125Q157.6125 32.971874 158.8625 32.065624Q160.12813 31.14375 162.39375 31.14375L164.15938 31.14375L164.15938 30.315624Q164.15938 29.3625 163.58125 28.8Q163.01875 28.2375 161.925 28.2375Q160.95625 28.2375 160.3 28.7375Q159.64375 29.221874 159.64375 29.909374L157.83125 29.909374Q157.83125 29.128124 158.39375 28.39375Q158.95625 27.64375 159.90938 27.221874Q160.87813 26.784374 162.03438 26.784374Q163.8625 26.784374 164.89375 27.70625Q165.925 28.6125 165.97188 30.221874L165.97188 35.08125Q165.97188 36.534374 166.33125 37.39375L166.33125 37.55L164.44063 37.55ZM161.44063 36.175Q162.3 36.175 163.05 35.7375Q163.81563 35.3 164.15938 34.596874L164.15938 32.425L162.7375 32.425Q159.425 32.425 159.425 34.3625Q159.425 35.221874 159.9875 35.70625Q160.55 36.175 161.44063 36.175ZM170.87813 37.55L169.08125 37.55L169.08125 22.55L170.87813 22.55L170.87813 37.55ZM178.47188 32.175Q178.47188 29.753124 179.62813 28.26875Q180.78438 26.784374 182.64375 26.784374Q184.50313 26.784374 185.58125 28.05L185.58125 22.55L187.39375 22.55L187.39375 37.55L185.7375 37.55L185.64375 36.409374Q184.56563 37.753124 182.62813 37.753124Q180.8 37.753124 179.62813 36.253124Q178.47188 34.7375 178.47188 32.315624L178.47188 32.175ZM180.28438 32.378124Q180.28438 34.175 181.01875 35.190624Q181.76875 36.20625 183.08125 36.20625Q184.8 36.20625 185.58125 34.675L185.58125 29.815624Q184.78438 28.315624 183.09688 28.315624Q181.76875 28.315624 181.01875 29.346874Q180.28438 30.378124 180.28438 32.378124ZM195.01875 28.596874Q194.6125 28.534374 194.14375 28.534374Q192.3625 28.534374 191.72188 30.05L191.72188 37.55L189.925 37.55L189.925 26.9875L191.675 26.9875L191.70625 28.20625Q192.59688 26.784374 194.22188 26.784374Q194.75313 26.784374 195.01875 26.925L195.01875 28.596874ZM201.3 37.753124Q199.15938 37.753124 197.8 36.346874Q196.45625 34.925 196.45625 32.565624L196.45625 32.221874Q196.45625 30.659374 197.05 29.425Q197.65938 28.190624 198.7375 27.4875Q199.81563 26.784374 201.08125 26.784374Q203.14375 26.784374 204.28438 28.14375Q205.425 29.503124 205.425 32.034374L205.425 32.784374L198.26875 32.784374Q198.3 34.346874 199.175 35.315624Q200.05 36.26875 201.39375 36.26875Q202.3625 36.26875 203.01875 35.878124Q203.69063 35.4875 204.19063 34.846874L205.28438 35.70625Q203.95625 37.753124 201.3 37.753124ZM201.08125 28.26875Q199.9875 28.26875 199.2375 29.065624Q198.50313 29.8625 198.33125 31.3L203.6125 31.3L203.6125 31.159374Q203.53438 29.784374 202.8625 29.034374Q202.20625 28.26875 201.08125 28.26875ZM214.44063 37.55Q214.28438 37.2375 214.19063 36.440624Q212.925 37.753124 211.175 37.753124Q209.6125 37.753124 208.6125 36.8625Q207.6125 35.971874 207.6125 34.6125Q207.6125 32.971874 208.8625 32.065624Q210.12813 31.14375 212.39375 31.14375L214.15938 31.14375L214.15938 30.315624Q214.15938 29.3625 213.58125 28.8Q213.01875 28.2375 211.925 28.2375Q210.95625 28.2375 210.3 28.7375Q209.64375 29.221874 209.64375 29.909374L207.83125 29.909374Q207.83125 29.128124 208.39375 28.39375Q208.95625 27.64375 209.90938 27.221874Q210.87813 26.784374 212.03438 26.784374Q213.8625 26.784374 214.89375 27.70625Q215.925 28.6125 215.97188 30.221874L215.97188 35.08125Q215.97188 36.534374 216.33125 37.39375L216.33125 37.55L214.44063 37.55ZM211.44063 36.175Q212.3 36.175 213.05 35.7375Q213.81563 35.3 214.15938 34.596874L214.15938 32.425L212.7375 32.425Q209.425 32.425 209.425 34.3625Q209.425 35.221874 209.9875 35.70625Q210.55 36.175 211.44063 36.175ZM220.6125 26.9875L220.65938 28.159374Q221.83125 26.784374 223.8 26.784374Q226.01875 26.784374 226.81563 28.4875Q227.34688 27.721874 228.19063 27.253124Q229.03438 26.784374 230.19063 26.784374Q233.65938 26.784374 233.72188 30.471874L233.72188 37.55L231.90938 37.55L231.90938 30.58125Q231.90938 29.440624 231.39375 28.878124Q230.87813 28.315624 229.65938 28.315624Q228.65938 28.315624 227.9875 28.925Q227.33125 29.51875 227.22188 30.534374L227.22188 37.55L225.40938 37.55L225.40938 30.628124Q225.40938 28.315624 223.14375 28.315624Q221.3625 28.315624 220.72188 29.83125L220.72188 37.55L218.90938 37.55L218.90938 26.9875L220.6125 26.9875ZM243.06563 34.753124Q243.06563 34.01875 242.51875 33.6125Q241.97188 33.20625 240.59688 32.909374Q239.22188 32.6125 238.40938 32.20625Q237.6125 31.8 237.22188 31.2375Q236.84688 30.659374 236.84688 29.878124Q236.84688 28.58125 237.94063 27.690624Q239.03438 26.784374 240.75313 26.784374Q242.55 26.784374 243.65938 27.721874Q244.78438 28.64375 244.78438 30.08125L242.95625 30.08125Q242.95625 29.346874 242.33125 28.815624Q241.70625 28.26875 240.75313 28.26875Q239.75313 28.26875 239.19063 28.70625Q238.64375 29.128124 238.64375 29.83125Q238.64375 30.471874 239.15938 30.815624Q239.675 31.14375 241.03438 31.45625Q242.39375 31.753124 243.22188 32.175Q244.06563 32.58125 244.47188 33.175Q244.87813 33.76875 244.87813 34.6125Q244.87813 36.034374 243.7375 36.89375Q242.6125 37.753124 240.8 37.753124Q239.53438 37.753124 238.55 37.3Q237.58125 36.846874 237.01875 36.05Q236.47188 35.2375 236.47188 34.3L238.28438 34.3Q238.33125 35.20625 239.00313 35.7375Q239.69063 36.26875 240.8 36.26875Q241.83125 36.26875 242.44063 35.8625Q243.06563 35.440624 243.06563 34.753124Z" fill-rule="nonzero"/></svg>